<?xml version="1.0" encoding="utf-8" standalone="no"?>
<!DOCTYPE svg PUBLIC "-//W3C//DTD SVG 1.1//EN"
  "http://www.w3.org/Graphics/SVG/1.1/DTD/svg11.dtd">
<svg xmlns:xlink="http://www.w3.org/1999/xlink" width="387.082462pt" height="209.075801pt" viewBox="0 0 387.082462 209.075801" xmlns="http://www.w3.org/2000/svg" version="1.1">
 <metadata>
  <rdf:RDF xmlns:dc="http://purl.org/dc/elements/1.1/" xmlns:cc="http://creativecommons.org/ns#" xmlns:rdf="http://www.w3.org/1999/02/22-rdf-syntax-ns#">
   <cc:Work>
    <dc:type rdf:resource="http://purl.org/dc/dcmitype/StillImage"/>
    <dc:date>2024-10-10T14:45:26.317867</dc:date>
    <dc:format>image/svg+xml</dc:format>
    <dc:creator>
     <cc:Agent>
      <dc:title>Matplotlib v3.9.2, https://matplotlib.org/</dc:title>
     </cc:Agent>
    </dc:creator>
   </cc:Work>
  </rdf:RDF>
 </metadata>
 <defs>
  <style type="text/css">*{stroke-linejoin: round; stroke-linecap: butt}</style>
 </defs>
 <g id="figure_1">
  <g id="patch_1">
   <path d="M 0 209.075801 
L 387.082462 209.075801 
L 387.082462 0 
L 0 0 
z
" style="fill: #ffffff"/>
  </g>
  <g id="axes_1">
   <g id="patch_2">
    <path d="M 52.282462 171.508862 
L 387.082462 171.508862 
L 387.082462 5.188862 
L 52.282462 5.188862 
z
" style="fill: #eaeaf2"/>
   </g>
   <g id="matplotlib.axis_1">
    <g id="xtick_1">
     <g id="line2d_1">
      <path d="M 67.500644 171.508862 
L 67.500644 5.188862 
" clip-path="url(#p351f77cd75)" style="fill: none; stroke: #ffffff; stroke-linecap: round"/>
     </g>
     <g id="line2d_2"/>
     <g id="text_1">
      <!-- $\mathdefault{0.0}$ -->
      <g style="fill: #262626" transform="translate(58.152118 188.886587) scale(0.15 -0.15)">
       <defs>
        <path id="CMR17-30" d="M 2688 2025 
C 2688 2416 2682 3080 2413 3591 
C 2176 4039 1798 4198 1466 4198 
C 1158 4198 768 4058 525 3597 
C 269 3118 243 2524 243 2025 
C 243 1661 250 1106 448 619 
C 723 -39 1216 -128 1466 -128 
C 1760 -128 2208 -7 2470 600 
C 2662 1042 2688 1559 2688 2025 
z
M 1466 -26 
C 1056 -26 813 325 723 812 
C 653 1188 653 1738 653 2096 
C 653 2588 653 2997 736 3387 
C 858 3929 1216 4096 1466 4096 
C 1728 4096 2067 3923 2189 3400 
C 2272 3036 2278 2607 2278 2096 
C 2278 1680 2278 1169 2202 792 
C 2067 95 1690 -26 1466 -26 
z
" transform="scale(0.015625)"/>
        <path id="CMMI12-3a" d="M 1178 307 
C 1178 492 1024 619 870 619 
C 685 619 557 466 557 313 
C 557 128 710 0 864 0 
C 1050 0 1178 153 1178 307 
z
" transform="scale(0.015625)"/>
       </defs>
       <use xlink:href="#CMR17-30" transform="scale(0.996264)"/>
       <use xlink:href="#CMMI12-3a" transform="translate(45.690477 0) scale(0.996264)"/>
       <use xlink:href="#CMR17-30" transform="translate(72.787654 0) scale(0.996264)"/>
      </g>
     </g>
    </g>
    <g id="xtick_2">
     <g id="line2d_3">
      <path d="M 128.373371 171.508862 
L 128.373371 5.188862 
" clip-path="url(#p351f77cd75)" style="fill: none; stroke: #ffffff; stroke-linecap: round"/>
     </g>
     <g id="line2d_4"/>
     <g id="text_2">
      <!-- $\mathdefault{0.2}$ -->
      <g style="fill: #262626" transform="translate(119.024845 188.886587) scale(0.15 -0.15)">
       <defs>
        <path id="CMR17-32" d="M 2669 989 
L 2554 989 
C 2490 536 2438 459 2413 420 
C 2381 369 1920 369 1830 369 
L 602 369 
C 832 619 1280 1072 1824 1597 
C 2214 1967 2669 2402 2669 3035 
C 2669 3790 2067 4224 1395 4224 
C 691 4224 262 3604 262 3030 
C 262 2780 448 2748 525 2748 
C 589 2748 781 2787 781 3010 
C 781 3207 614 3264 525 3264 
C 486 3264 448 3258 422 3245 
C 544 3790 915 4058 1306 4058 
C 1862 4058 2227 3617 2227 3035 
C 2227 2479 1901 2000 1536 1584 
L 262 146 
L 262 0 
L 2515 0 
L 2669 989 
z
" transform="scale(0.015625)"/>
       </defs>
       <use xlink:href="#CMR17-30" transform="scale(0.996264)"/>
       <use xlink:href="#CMMI12-3a" transform="translate(45.690477 0) scale(0.996264)"/>
       <use xlink:href="#CMR17-32" transform="translate(72.787654 0) scale(0.996264)"/>
      </g>
     </g>
    </g>
    <g id="xtick_3">
     <g id="line2d_5">
      <path d="M 189.246098 171.508862 
L 189.246098 5.188862 
" clip-path="url(#p351f77cd75)" style="fill: none; stroke: #ffffff; stroke-linecap: round"/>
     </g>
     <g id="line2d_6"/>
     <g id="text_3">
      <!-- $\mathdefault{0.4}$ -->
      <g style="fill: #262626" transform="translate(179.897572 188.886587) scale(0.15 -0.15)">
       <defs>
        <path id="CMR17-34" d="M 2150 4122 
C 2150 4256 2144 4256 2029 4256 
L 128 1254 
L 128 1088 
L 1779 1088 
L 1779 457 
C 1779 224 1766 160 1318 160 
L 1197 160 
L 1197 0 
C 1402 0 1747 0 1965 0 
C 2182 0 2528 0 2733 0 
L 2733 160 
L 2611 160 
C 2163 160 2150 224 2150 457 
L 2150 1088 
L 2803 1088 
L 2803 1254 
L 2150 1254 
L 2150 4122 
z
M 1798 3703 
L 1798 1254 
L 256 1254 
L 1798 3703 
z
" transform="scale(0.015625)"/>
       </defs>
       <use xlink:href="#CMR17-30" transform="scale(0.996264)"/>
       <use xlink:href="#CMMI12-3a" transform="translate(45.690477 0) scale(0.996264)"/>
       <use xlink:href="#CMR17-34" transform="translate(72.787654 0) scale(0.996264)"/>
      </g>
     </g>
    </g>
    <g id="xtick_4">
     <g id="line2d_7">
      <path d="M 250.118826 171.508862 
L 250.118826 5.188862 
" clip-path="url(#p351f77cd75)" style="fill: none; stroke: #ffffff; stroke-linecap: round"/>
     </g>
     <g id="line2d_8"/>
     <g id="text_4">
      <!-- $\mathdefault{0.6}$ -->
      <g style="fill: #262626" transform="translate(240.770299 188.886587) scale(0.15 -0.15)">
       <defs>
        <path id="CMR17-36" d="M 678 2176 
C 678 3690 1395 4032 1811 4032 
C 1946 4032 2272 4009 2400 3776 
C 2298 3776 2106 3776 2106 3553 
C 2106 3381 2246 3323 2336 3323 
C 2394 3323 2566 3348 2566 3560 
C 2566 3954 2246 4179 1805 4179 
C 1043 4179 243 3390 243 1984 
C 243 253 966 -128 1478 -128 
C 2099 -128 2688 427 2688 1283 
C 2688 2081 2170 2662 1517 2662 
C 1126 2662 838 2407 678 1960 
L 678 2176 
z
M 1478 25 
C 691 25 691 1200 691 1436 
C 691 1896 909 2560 1504 2560 
C 1613 2560 1926 2560 2138 2120 
C 2253 1870 2253 1609 2253 1289 
C 2253 944 2253 690 2118 434 
C 1978 171 1773 25 1478 25 
z
" transform="scale(0.015625)"/>
       </defs>
       <use xlink:href="#CMR17-30" transform="scale(0.996264)"/>
       <use xlink:href="#CMMI12-3a" transform="translate(45.690477 0) scale(0.996264)"/>
       <use xlink:href="#CMR17-36" transform="translate(72.787654 0) scale(0.996264)"/>
      </g>
     </g>
    </g>
    <g id="xtick_5">
     <g id="line2d_9">
      <path d="M 310.991553 171.508862 
L 310.991553 5.188862 
" clip-path="url(#p351f77cd75)" style="fill: none; stroke: #ffffff; stroke-linecap: round"/>
     </g>
     <g id="line2d_10"/>
     <g id="text_5">
      <!-- $\mathdefault{0.8}$ -->
      <g style="fill: #262626" transform="translate(301.643027 188.886587) scale(0.15 -0.15)">
       <defs>
        <path id="CMR17-38" d="M 1741 2264 
C 2144 2467 2554 2773 2554 3263 
C 2554 3841 1990 4179 1472 4179 
C 890 4179 378 3759 378 3180 
C 378 3021 416 2747 666 2505 
C 730 2442 998 2251 1171 2130 
C 883 1983 211 1634 211 934 
C 211 279 838 -128 1459 -128 
C 2144 -128 2720 362 2720 1010 
C 2720 1590 2330 1857 2074 2029 
L 1741 2264 
z
M 902 2822 
C 851 2854 595 3051 595 3351 
C 595 3739 998 4032 1459 4032 
C 1965 4032 2336 3676 2336 3262 
C 2336 2669 1670 2331 1638 2331 
C 1632 2331 1626 2331 1574 2370 
L 902 2822 
z
M 2080 1519 
C 2176 1449 2483 1240 2483 851 
C 2483 381 2010 25 1472 25 
C 890 25 448 438 448 940 
C 448 1443 838 1862 1280 2060 
L 2080 1519 
z
" transform="scale(0.015625)"/>
       </defs>
       <use xlink:href="#CMR17-30" transform="scale(0.996264)"/>
       <use xlink:href="#CMMI12-3a" transform="translate(45.690477 0) scale(0.996264)"/>
       <use xlink:href="#CMR17-38" transform="translate(72.787654 0) scale(0.996264)"/>
      </g>
     </g>
    </g>
    <g id="xtick_6">
     <g id="line2d_11">
      <path d="M 371.86428 171.508862 
L 371.86428 5.188862 
" clip-path="url(#p351f77cd75)" style="fill: none; stroke: #ffffff; stroke-linecap: round"/>
     </g>
     <g id="line2d_12"/>
     <g id="text_6">
      <!-- $\mathdefault{1.0}$ -->
      <g style="fill: #262626" transform="translate(362.515754 188.886587) scale(0.15 -0.15)">
       <defs>
        <path id="CMR17-31" d="M 1702 4058 
C 1702 4192 1696 4192 1606 4192 
C 1357 3916 979 3827 621 3827 
C 602 3827 570 3827 563 3808 
C 557 3795 557 3782 557 3648 
C 755 3648 1088 3686 1344 3839 
L 1344 461 
C 1344 236 1331 160 781 160 
L 589 160 
L 589 0 
C 896 0 1216 0 1523 0 
C 1830 0 2150 0 2458 0 
L 2458 160 
L 2266 160 
C 1715 160 1702 230 1702 458 
L 1702 4058 
z
" transform="scale(0.015625)"/>
       </defs>
       <use xlink:href="#CMR17-31" transform="scale(0.996264)"/>
       <use xlink:href="#CMMI12-3a" transform="translate(45.690477 0) scale(0.996264)"/>
       <use xlink:href="#CMR17-30" transform="translate(72.787654 0) scale(0.996264)"/>
      </g>
     </g>
    </g>
    <g id="text_7">
     <!-- $s_1$ -->
     <g style="fill: #262626" transform="translate(213.621025 206.170057) scale(0.15 -0.15)">
      <defs>
       <path id="CMMI12-73" d="M 1459 1280 
C 1568 1261 1741 1223 1779 1216 
C 1862 1192 2150 1090 2150 783 
C 2150 586 1971 70 1229 70 
C 1094 70 614 70 486 436 
C 742 404 870 603 870 745 
C 870 880 781 950 653 950 
C 512 950 326 841 326 552 
C 326 173 710 -64 1222 -64 
C 2195 -64 2483 651 2483 984 
C 2483 1079 2483 1258 2278 1462 
C 2118 1616 1965 1648 1619 1718 
C 1446 1756 1171 1814 1171 2101 
C 1171 2229 1286 2689 1894 2689 
C 2163 2689 2426 2589 2490 2368 
C 2208 2368 2195 2125 2195 2119 
C 2195 1984 2317 1946 2374 1946 
C 2464 1946 2643 2015 2643 2281 
C 2643 2545 2400 2816 1901 2816 
C 1062 2816 838 2160 838 1899 
C 838 1414 1312 1312 1459 1280 
z
" transform="scale(0.015625)"/>
      </defs>
      <use xlink:href="#CMMI12-73" transform="scale(0.996264)"/>
      <use xlink:href="#CMR17-31" transform="translate(45.950048 -14.943915) scale(0.697382)"/>
     </g>
    </g>
   </g>
   <g id="matplotlib.axis_2">
    <g id="ytick_1">
     <g id="line2d_13">
      <path d="M 52.282462 171.508862 
L 387.082462 171.508862 
" clip-path="url(#p351f77cd75)" style="fill: none; stroke: #ffffff; stroke-linecap: round"/>
     </g>
     <g id="line2d_14"/>
     <g id="text_8">
      <!-- $\mathdefault{10^{-2}}$ -->
      <g style="fill: #262626" transform="translate(17.283469 176.697725) scale(0.15 -0.15)">
       <defs>
        <path id="CMSY10-0" d="M 4218 1472 
C 4326 1472 4442 1472 4442 1600 
C 4442 1728 4326 1728 4218 1728 
L 755 1728 
C 646 1728 531 1728 531 1600 
C 531 1472 646 1472 755 1472 
L 4218 1472 
z
" transform="scale(0.015625)"/>
       </defs>
       <use xlink:href="#CMR17-31" transform="scale(0.996264)"/>
       <use xlink:href="#CMR17-30" transform="translate(45.690477 0) scale(0.996264)"/>
       <use xlink:href="#CMSY10-0" transform="translate(91.380954 36.153639) scale(0.697382)"/>
       <use xlink:href="#CMR17-32" transform="translate(145.621947 36.153639) scale(0.697382)"/>
      </g>
     </g>
    </g>
    <g id="ytick_2">
     <g id="line2d_15">
      <path d="M 52.282462 129.928862 
L 387.082462 129.928862 
" clip-path="url(#p351f77cd75)" style="fill: none; stroke: #ffffff; stroke-linecap: round"/>
     </g>
     <g id="line2d_16"/>
     <g id="text_9">
      <!-- $\mathdefault{10^{-1}}$ -->
      <g style="fill: #262626" transform="translate(17.283469 135.117725) scale(0.15 -0.15)">
       <use xlink:href="#CMR17-31" transform="scale(0.996264)"/>
       <use xlink:href="#CMR17-30" transform="translate(45.690477 0) scale(0.996264)"/>
       <use xlink:href="#CMSY10-0" transform="translate(91.380954 36.153639) scale(0.697382)"/>
       <use xlink:href="#CMR17-31" transform="translate(145.621947 36.153639) scale(0.697382)"/>
      </g>
     </g>
    </g>
    <g id="ytick_3">
     <g id="line2d_17">
      <path d="M 52.282462 88.348862 
L 387.082462 88.348862 
" clip-path="url(#p351f77cd75)" style="fill: none; stroke: #ffffff; stroke-linecap: round"/>
     </g>
     <g id="line2d_18"/>
     <g id="text_10">
      <!-- $\mathdefault{10^{0}}$ -->
      <g style="fill: #262626" transform="translate(25.419615 93.537725) scale(0.15 -0.15)">
       <use xlink:href="#CMR17-31" transform="scale(0.996264)"/>
       <use xlink:href="#CMR17-30" transform="translate(45.690477 0) scale(0.996264)"/>
       <use xlink:href="#CMR17-30" transform="translate(91.380954 36.153639) scale(0.697382)"/>
      </g>
     </g>
    </g>
    <g id="ytick_4">
     <g id="line2d_19">
      <path d="M 52.282462 46.768862 
L 387.082462 46.768862 
" clip-path="url(#p351f77cd75)" style="fill: none; stroke: #ffffff; stroke-linecap: round"/>
     </g>
     <g id="line2d_20"/>
     <g id="text_11">
      <!-- $\mathdefault{10^{1}}$ -->
      <g style="fill: #262626" transform="translate(25.419615 51.957725) scale(0.15 -0.15)">
       <use xlink:href="#CMR17-31" transform="scale(0.996264)"/>
       <use xlink:href="#CMR17-30" transform="translate(45.690477 0) scale(0.996264)"/>
       <use xlink:href="#CMR17-31" transform="translate(91.380954 36.153639) scale(0.697382)"/>
      </g>
     </g>
    </g>
    <g id="ytick_5">
     <g id="line2d_21">
      <path d="M 52.282462 5.188862 
L 387.082462 5.188862 
" clip-path="url(#p351f77cd75)" style="fill: none; stroke: #ffffff; stroke-linecap: round"/>
     </g>
     <g id="line2d_22"/>
     <g id="text_12">
      <!-- $\mathdefault{10^{2}}$ -->
      <g style="fill: #262626" transform="translate(25.419615 10.377725) scale(0.15 -0.15)">
       <use xlink:href="#CMR17-31" transform="scale(0.996264)"/>
       <use xlink:href="#CMR17-30" transform="translate(45.690477 0) scale(0.996264)"/>
       <use xlink:href="#CMR17-32" transform="translate(91.380954 36.153639) scale(0.697382)"/>
      </g>
     </g>
    </g>
    <g id="ytick_6">
     <g id="line2d_23"/>
    </g>
    <g id="ytick_7">
     <g id="line2d_24"/>
    </g>
    <g id="ytick_8">
     <g id="line2d_25"/>
    </g>
    <g id="ytick_9">
     <g id="line2d_26"/>
    </g>
    <g id="ytick_10">
     <g id="line2d_27"/>
    </g>
    <g id="ytick_11">
     <g id="line2d_28"/>
    </g>
    <g id="ytick_12">
     <g id="line2d_29"/>
    </g>
    <g id="ytick_13">
     <g id="line2d_30"/>
    </g>
    <g id="ytick_14">
     <g id="line2d_31"/>
    </g>
    <g id="ytick_15">
     <g id="line2d_32"/>
    </g>
    <g id="ytick_16">
     <g id="line2d_33"/>
    </g>
    <g id="ytick_17">
     <g id="line2d_34"/>
    </g>
    <g id="ytick_18">
     <g id="line2d_35"/>
    </g>
    <g id="ytick_19">
     <g id="line2d_36"/>
    </g>
    <g id="ytick_20">
     <g id="line2d_37"/>
    </g>
    <g id="ytick_21">
     <g id="line2d_38"/>
    </g>
    <g id="ytick_22">
     <g id="line2d_39"/>
    </g>
    <g id="ytick_23">
     <g id="line2d_40"/>
    </g>
    <g id="ytick_24">
     <g id="line2d_41"/>
    </g>
    <g id="ytick_25">
     <g id="line2d_42"/>
    </g>
    <g id="ytick_26">
     <g id="line2d_43"/>
    </g>
    <g id="ytick_27">
     <g id="line2d_44"/>
    </g>
    <g id="ytick_28">
     <g id="line2d_45"/>
    </g>
    <g id="ytick_29">
     <g id="line2d_46"/>
    </g>
    <g id="ytick_30">
     <g id="line2d_47"/>
    </g>
    <g id="ytick_31">
     <g id="line2d_48"/>
    </g>
    <g id="ytick_32">
     <g id="line2d_49"/>
    </g>
    <g id="ytick_33">
     <g id="line2d_50"/>
    </g>
    <g id="ytick_34">
     <g id="line2d_51"/>
    </g>
    <g id="ytick_35">
     <g id="line2d_52"/>
    </g>
    <g id="ytick_36">
     <g id="line2d_53"/>
    </g>
    <g id="ytick_37">
     <g id="line2d_54"/>
    </g>
    <g id="text_13">
     <!-- Density -->
     <g style="fill: #262626" transform="translate(10.377725 112.674048) rotate(-90) scale(0.15 -0.15)">
      <defs>
       <path id="CMR17-44" d="M 333 4352 
L 333 4186 
C 774 4186 845 4186 845 3900 
L 845 452 
C 845 166 774 166 333 166 
L 333 0 
L 2368 0 
C 3398 0 4224 943 4224 2141 
C 4224 3346 3411 4352 2368 4352 
L 333 4352 
z
M 1523 166 
C 1267 166 1254 197 1254 414 
L 1254 3938 
C 1254 4155 1267 4186 1523 4186 
L 2240 4186 
C 2771 4186 3750 3874 3750 2141 
C 3750 1242 3488 879 3366 707 
C 3213 510 2848 166 2240 166 
L 1523 166 
z
" transform="scale(0.015625)"/>
       <path id="CMR17-65" d="M 2438 1472 
C 2464 1498 2464 1511 2464 1576 
C 2464 2238 2118 2816 1389 2816 
C 710 2816 173 2169 173 1383 
C 173 551 781 -64 1459 -64 
C 2176 -64 2458 607 2458 740 
C 2458 784 2419 784 2406 784 
C 2362 784 2355 771 2330 696 
C 2189 265 1837 51 1504 51 
C 1229 51 954 203 781 480 
C 582 803 582 1176 582 1472 
L 2438 1472 
z
M 589 1568 
C 634 2505 1126 2714 1382 2714 
C 1818 2714 2112 2297 2118 1568 
L 589 1568 
z
" transform="scale(0.015625)"/>
       <path id="CMR17-6e" d="M 2656 1933 
C 2656 2259 2592 2790 1837 2790 
C 1331 2790 1069 2400 973 2144 
L 966 2144 
L 966 2790 
L 211 2720 
L 211 2554 
C 589 2554 646 2515 646 2208 
L 646 428 
C 646 184 621 153 211 153 
L 211 -13 
C 365 0 646 0 813 0 
C 979 0 1267 0 1421 -13 
L 1421 153 
C 1011 153 986 178 986 428 
L 986 1658 
C 986 2247 1344 2688 1792 2688 
C 2266 2688 2317 2266 2317 1958 
L 2317 428 
C 2317 184 2291 153 1882 153 
L 1882 -13 
C 2035 0 2317 0 2483 0 
C 2650 0 2938 0 3091 -13 
L 3091 153 
C 2682 153 2656 178 2656 428 
L 2656 1933 
z
" transform="scale(0.015625)"/>
       <path id="CMR17-73" d="M 1978 2697 
C 1978 2813 1971 2819 1933 2819 
C 1907 2819 1901 2813 1824 2717 
C 1805 2691 1747 2626 1728 2601 
C 1523 2819 1235 2819 1126 2819 
C 416 2819 160 2447 160 2076 
C 160 1498 813 1365 998 1325 
C 1402 1243 1542 1217 1677 1101 
C 1760 1025 1901 884 1901 654 
C 1901 384 1747 38 1158 38 
C 602 38 403 460 288 1021 
C 269 1110 269 1117 218 1117 
C 166 1117 160 1110 160 983 
L 160 63 
C 160 -51 166 -58 205 -58 
C 237 -58 243 -51 275 0 
C 314 57 410 211 448 276 
C 576 103 800 -64 1158 -64 
C 1792 -64 2131 283 2131 784 
C 2131 1112 1958 1285 1875 1362 
C 1683 1561 1459 1606 1190 1657 
C 838 1735 390 1825 390 2217 
C 390 2383 480 2737 1126 2737 
C 1811 2737 1850 2094 1862 1888 
C 1869 1856 1901 1849 1920 1849 
C 1978 1849 1978 1869 1978 1978 
L 1978 2697 
z
" transform="scale(0.015625)"/>
       <path id="CMR17-69" d="M 992 3909 
C 992 4049 877 4170 730 4170 
C 589 4170 467 4056 467 3909 
C 467 3769 582 3648 730 3648 
C 870 3648 992 3763 992 3909 
z
M 243 2706 
L 243 2541 
C 602 2541 653 2502 653 2197 
L 653 427 
C 653 184 627 153 218 153 
L 218 -13 
C 371 0 646 0 806 0 
C 960 0 1222 0 1370 -13 
L 1370 153 
C 992 153 979 191 979 420 
L 979 2776 
L 243 2706 
z
" transform="scale(0.015625)"/>
       <path id="CMR17-74" d="M 966 2560 
L 1862 2560 
L 1862 2725 
L 966 2725 
L 966 3904 
L 851 3904 
C 838 3245 614 2668 70 2668 
L 70 2560 
L 627 2560 
L 627 771 
C 627 650 627 -64 1370 -64 
C 1747 -64 1965 306 1965 777 
L 1965 1140 
L 1850 1140 
L 1850 783 
C 1850 344 1677 51 1408 51 
C 1222 51 966 178 966 758 
L 966 2560 
z
" transform="scale(0.015625)"/>
       <path id="CMR17-79" d="M 2496 2197 
C 2656 2586 2944 2586 3034 2586 
L 3034 2752 
C 2912 2752 2752 2752 2630 2752 
C 2496 2752 2285 2752 2157 2758 
L 2157 2592 
C 2400 2573 2406 2394 2406 2343 
C 2406 2280 2394 2248 2362 2171 
L 1664 449 
L 902 2306 
C 870 2382 870 2426 870 2433 
C 870 2573 1018 2586 1171 2586 
L 1171 2758 
C 1018 2752 742 2752 582 2752 
C 410 2752 205 2752 64 2758 
L 64 2586 
C 410 2586 448 2554 531 2350 
L 1485 15 
C 1197 -738 1030 -1178 627 -1178 
C 557 -1178 397 -1159 282 -1044 
C 429 -1031 493 -942 493 -833 
C 493 -725 416 -629 288 -629 
C 147 -629 77 -725 77 -840 
C 77 -1095 339 -1280 627 -1280 
C 998 -1280 1229 -922 1357 -604 
L 2496 2197 
z
" transform="scale(0.015625)"/>
      </defs>
      <use xlink:href="#CMR17-44" transform="scale(0.996264)"/>
      <use xlink:href="#CMR17-65" transform="translate(70.393556 0) scale(0.996264)"/>
      <use xlink:href="#CMR17-6e" transform="translate(110.879216 0) scale(0.996264)"/>
      <use xlink:href="#CMR17-73" transform="translate(161.774586 0) scale(0.996264)"/>
      <use xlink:href="#CMR17-69" transform="translate(197.575924 0) scale(0.996264)"/>
      <use xlink:href="#CMR17-74" transform="translate(222.446982 0) scale(0.996264)"/>
      <use xlink:href="#CMR17-79" transform="translate(255.125296 0) scale(0.996264)"/>
     </g>
    </g>
   </g>
   <g id="PolyCollection_1">
    <path d="M 66.835167 242.22614 
L 66.835167 41668.348862 
L 67.447782 41668.348862 
L 68.060396 41668.348862 
L 68.673011 41668.348862 
L 69.285625 41668.348862 
L 69.898239 41668.348862 
L 70.510854 41668.348862 
L 71.123468 41668.348862 
L 71.736083 41668.348862 
L 72.348697 41668.348862 
L 72.961311 41668.348862 
L 73.573926 41668.348862 
L 74.18654 41668.348862 
L 74.799155 41668.348862 
L 75.411769 41668.348862 
L 76.024383 41668.348862 
L 76.636998 41668.348862 
L 77.249612 41668.348862 
L 77.862227 41668.348862 
L 78.474841 41668.348862 
L 79.087456 41668.348862 
L 79.70007 41668.348862 
L 80.312684 41668.348862 
L 80.925299 41668.348862 
L 81.537913 41668.348862 
L 82.150528 41668.348862 
L 82.763142 41668.348862 
L 83.375756 41668.348862 
L 83.988371 41668.348862 
L 84.600985 41668.348862 
L 85.2136 41668.348862 
L 85.826214 41668.348862 
L 86.438828 41668.348862 
L 87.051443 41668.348862 
L 87.664057 41668.348862 
L 88.276672 41668.348862 
L 88.889286 41668.348862 
L 89.5019 41668.348862 
L 90.114515 41668.348862 
L 90.727129 41668.348862 
L 91.339744 41668.348862 
L 91.952358 41668.348862 
L 92.564972 41668.348862 
L 93.177587 41668.348862 
L 93.790201 41668.348862 
L 94.402816 41668.348862 
L 95.01543 41668.348862 
L 95.628045 41668.348862 
L 96.240659 41668.348862 
L 96.853273 41668.348862 
L 97.465888 41668.348862 
L 98.078502 41668.348862 
L 98.691117 41668.348862 
L 99.303731 41668.348862 
L 99.916345 41668.348862 
L 100.52896 41668.348862 
L 101.141574 41668.348862 
L 101.754189 41668.348862 
L 102.366803 41668.348862 
L 102.979417 41668.348862 
L 103.592032 41668.348862 
L 104.204646 41668.348862 
L 104.817261 41668.348862 
L 105.429875 41668.348862 
L 106.042489 41668.348862 
L 106.655104 41668.348862 
L 107.267718 41668.348862 
L 107.880333 41668.348862 
L 108.492947 41668.348862 
L 109.105561 41668.348862 
L 109.718176 41668.348862 
L 110.33079 41668.348862 
L 110.943405 41668.348862 
L 111.556019 41668.348862 
L 112.168633 41668.348862 
L 112.781248 41668.348862 
L 113.393862 41668.348862 
L 114.006477 41668.348862 
L 114.619091 41668.348862 
L 115.231706 41668.348862 
L 115.84432 41668.348862 
L 116.456934 41668.348862 
L 117.069549 41668.348862 
L 117.682163 41668.348862 
L 118.294778 41668.348862 
L 118.907392 41668.348862 
L 119.520006 41668.348862 
L 120.132621 41668.348862 
L 120.745235 41668.348862 
L 121.35785 41668.348862 
L 121.970464 41668.348862 
L 122.583078 41668.348862 
L 123.195693 41668.348862 
L 123.808307 41668.348862 
L 124.420922 41668.348862 
L 125.033536 41668.348862 
L 125.64615 41668.348862 
L 126.258765 41668.348862 
L 126.871379 41668.348862 
L 127.483994 41668.348862 
L 128.096608 41668.348862 
L 128.709222 41668.348862 
L 129.321837 41668.348862 
L 129.934451 41668.348862 
L 130.547066 41668.348862 
L 131.15968 41668.348862 
L 131.772295 41668.348862 
L 132.384909 41668.348862 
L 132.997523 41668.348862 
L 133.610138 41668.348862 
L 134.222752 41668.348862 
L 134.835367 41668.348862 
L 135.447981 41668.348862 
L 136.060595 41668.348862 
L 136.67321 41668.348862 
L 137.285824 41668.348862 
L 137.898439 41668.348862 
L 138.511053 41668.348862 
L 139.123667 41668.348862 
L 139.736282 41668.348862 
L 140.348896 41668.348862 
L 140.961511 41668.348862 
L 141.574125 41668.348862 
L 142.186739 41668.348862 
L 142.799354 41668.348862 
L 143.411968 41668.348862 
L 144.024583 41668.348862 
L 144.637197 41668.348862 
L 145.249811 41668.348862 
L 145.862426 41668.348862 
L 146.47504 41668.348862 
L 147.087655 41668.348862 
L 147.700269 41668.348862 
L 148.312883 41668.348862 
L 148.925498 41668.348862 
L 149.538112 41668.348862 
L 150.150727 41668.348862 
L 150.763341 41668.348862 
L 151.375956 41668.348862 
L 151.98857 41668.348862 
L 152.601184 41668.348862 
L 153.213799 41668.348862 
L 153.826413 41668.348862 
L 154.439028 41668.348862 
L 155.051642 41668.348862 
L 155.664256 41668.348862 
L 156.276871 41668.348862 
L 156.889485 41668.348862 
L 157.5021 41668.348862 
L 158.114714 41668.348862 
L 158.727328 41668.348862 
L 159.339943 41668.348862 
L 159.952557 41668.348862 
L 160.565172 41668.348862 
L 161.177786 41668.348862 
L 161.7904 41668.348862 
L 162.403015 41668.348862 
L 163.015629 41668.348862 
L 163.628244 41668.348862 
L 164.240858 41668.348862 
L 164.853472 41668.348862 
L 165.466087 41668.348862 
L 166.078701 41668.348862 
L 166.691316 41668.348862 
L 167.30393 41668.348862 
L 167.916545 41668.348862 
L 168.529159 41668.348862 
L 169.141773 41668.348862 
L 169.754388 41668.348862 
L 170.367002 41668.348862 
L 170.979617 41668.348862 
L 171.592231 41668.348862 
L 172.204845 41668.348862 
L 172.81746 41668.348862 
L 173.430074 41668.348862 
L 174.042689 41668.348862 
L 174.655303 41668.348862 
L 175.267917 41668.348862 
L 175.880532 41668.348862 
L 176.493146 41668.348862 
L 177.105761 41668.348862 
L 177.718375 41668.348862 
L 178.330989 41668.348862 
L 178.943604 41668.348862 
L 179.556218 41668.348862 
L 180.168833 41668.348862 
L 180.781447 41668.348862 
L 181.394061 41668.348862 
L 182.006676 41668.348862 
L 182.61929 41668.348862 
L 183.231905 41668.348862 
L 183.844519 41668.348862 
L 184.457133 41668.348862 
L 185.069748 41668.348862 
L 185.682362 41668.348862 
L 186.294977 41668.348862 
L 186.907591 41668.348862 
L 187.520206 41668.348862 
L 188.13282 41668.348862 
L 188.745434 41668.348862 
L 189.358049 41668.348862 
L 189.970663 41668.348862 
L 190.583278 41668.348862 
L 191.195892 41668.348862 
L 191.808506 41668.348862 
L 192.421121 41668.348862 
L 193.033735 41668.348862 
L 193.64635 41668.348862 
L 194.258964 41668.348862 
L 194.871578 41668.348862 
L 195.484193 41668.348862 
L 196.096807 41668.348862 
L 196.709422 41668.348862 
L 197.322036 41668.348862 
L 197.93465 41668.348862 
L 198.547265 41668.348862 
L 199.159879 41668.348862 
L 199.772494 41668.348862 
L 200.385108 41668.348862 
L 200.997722 41668.348862 
L 201.610337 41668.348862 
L 202.222951 41668.348862 
L 202.835566 41668.348862 
L 203.44818 41668.348862 
L 204.060795 41668.348862 
L 204.673409 41668.348862 
L 205.286023 41668.348862 
L 205.898638 41668.348862 
L 206.511252 41668.348862 
L 207.123867 41668.348862 
L 207.736481 41668.348862 
L 208.349095 41668.348862 
L 208.96171 41668.348862 
L 209.574324 41668.348862 
L 210.186939 41668.348862 
L 210.799553 41668.348862 
L 211.412167 41668.348862 
L 212.024782 41668.348862 
L 212.637396 41668.348862 
L 213.250011 41668.348862 
L 213.862625 41668.348862 
L 214.475239 41668.348862 
L 215.087854 41668.348862 
L 215.700468 41668.348862 
L 216.313083 41668.348862 
L 216.925697 41668.348862 
L 217.538311 41668.348862 
L 218.150926 41668.348862 
L 218.76354 41668.348862 
L 219.376155 41668.348862 
L 219.988769 41668.348862 
L 220.601383 41668.348862 
L 221.213998 41668.348862 
L 221.826612 41668.348862 
L 222.439227 41668.348862 
L 223.051841 41668.348862 
L 223.664456 41668.348862 
L 224.27707 41668.348862 
L 224.889684 41668.348862 
L 225.502299 41668.348862 
L 226.114913 41668.348862 
L 226.727528 41668.348862 
L 227.340142 41668.348862 
L 227.952756 41668.348862 
L 228.565371 41668.348862 
L 229.177985 41668.348862 
L 229.7906 41668.348862 
L 230.403214 41668.348862 
L 231.015828 41668.348862 
L 231.628443 41668.348862 
L 232.241057 41668.348862 
L 232.853672 41668.348862 
L 233.466286 41668.348862 
L 234.0789 41668.348862 
L 234.691515 41668.348862 
L 235.304129 41668.348862 
L 235.916744 41668.348862 
L 236.529358 41668.348862 
L 237.141972 41668.348862 
L 237.754587 41668.348862 
L 238.367201 41668.348862 
L 238.979816 41668.348862 
L 239.59243 41668.348862 
L 240.205045 41668.348862 
L 240.817659 41668.348862 
L 241.430273 41668.348862 
L 242.042888 41668.348862 
L 242.655502 41668.348862 
L 243.268117 41668.348862 
L 243.880731 41668.348862 
L 244.493345 41668.348862 
L 245.10596 41668.348862 
L 245.718574 41668.348862 
L 246.331189 41668.348862 
L 246.943803 41668.348862 
L 247.556417 41668.348862 
L 248.169032 41668.348862 
L 248.781646 41668.348862 
L 249.394261 41668.348862 
L 250.006875 41668.348862 
L 250.619489 41668.348862 
L 251.232104 41668.348862 
L 251.844718 41668.348862 
L 252.457333 41668.348862 
L 253.069947 41668.348862 
L 253.682561 41668.348862 
L 254.295176 41668.348862 
L 254.90779 41668.348862 
L 255.520405 41668.348862 
L 256.133019 41668.348862 
L 256.745633 41668.348862 
L 257.358248 41668.348862 
L 257.970862 41668.348862 
L 258.583477 41668.348862 
L 259.196091 41668.348862 
L 259.808706 41668.348862 
L 260.42132 41668.348862 
L 261.033934 41668.348862 
L 261.646549 41668.348862 
L 262.259163 41668.348862 
L 262.871778 41668.348862 
L 263.484392 41668.348862 
L 264.097006 41668.348862 
L 264.709621 41668.348862 
L 265.322235 41668.348862 
L 265.93485 41668.348862 
L 266.547464 41668.348862 
L 267.160078 41668.348862 
L 267.772693 41668.348862 
L 268.385307 41668.348862 
L 268.997922 41668.348862 
L 269.610536 41668.348862 
L 270.22315 41668.348862 
L 270.835765 41668.348862 
L 271.448379 41668.348862 
L 272.060994 41668.348862 
L 272.673608 41668.348862 
L 273.286222 41668.348862 
L 273.898837 41668.348862 
L 274.511451 41668.348862 
L 275.124066 41668.348862 
L 275.73668 41668.348862 
L 276.349295 41668.348862 
L 276.961909 41668.348862 
L 277.574523 41668.348862 
L 278.187138 41668.348862 
L 278.799752 41668.348862 
L 279.412367 41668.348862 
L 280.024981 41668.348862 
L 280.637595 41668.348862 
L 281.25021 41668.348862 
L 281.862824 41668.348862 
L 282.475439 41668.348862 
L 283.088053 41668.348862 
L 283.700667 41668.348862 
L 284.313282 41668.348862 
L 284.925896 41668.348862 
L 285.538511 41668.348862 
L 286.151125 41668.348862 
L 286.763739 41668.348862 
L 287.376354 41668.348862 
L 287.988968 41668.348862 
L 288.601583 41668.348862 
L 289.214197 41668.348862 
L 289.826811 41668.348862 
L 290.439426 41668.348862 
L 291.05204 41668.348862 
L 291.664655 41668.348862 
L 292.277269 41668.348862 
L 292.889883 41668.348862 
L 293.502498 41668.348862 
L 294.115112 41668.348862 
L 294.727727 41668.348862 
L 295.340341 41668.348862 
L 295.952956 41668.348862 
L 296.56557 41668.348862 
L 297.178184 41668.348862 
L 297.790799 41668.348862 
L 298.403413 41668.348862 
L 299.016028 41668.348862 
L 299.628642 41668.348862 
L 300.241256 41668.348862 
L 300.853871 41668.348862 
L 301.466485 41668.348862 
L 302.0791 41668.348862 
L 302.691714 41668.348862 
L 303.304328 41668.348862 
L 303.916943 41668.348862 
L 304.529557 41668.348862 
L 305.142172 41668.348862 
L 305.754786 41668.348862 
L 306.3674 41668.348862 
L 306.980015 41668.348862 
L 307.592629 41668.348862 
L 308.205244 41668.348862 
L 308.817858 41668.348862 
L 309.430472 41668.348862 
L 310.043087 41668.348862 
L 310.655701 41668.348862 
L 311.268316 41668.348862 
L 311.88093 41668.348862 
L 312.493545 41668.348862 
L 313.106159 41668.348862 
L 313.718773 41668.348862 
L 314.331388 41668.348862 
L 314.944002 41668.348862 
L 315.556617 41668.348862 
L 316.169231 41668.348862 
L 316.781845 41668.348862 
L 317.39446 41668.348862 
L 318.007074 41668.348862 
L 318.619689 41668.348862 
L 319.232303 41668.348862 
L 319.844917 41668.348862 
L 320.457532 41668.348862 
L 321.070146 41668.348862 
L 321.682761 41668.348862 
L 322.295375 41668.348862 
L 322.907989 41668.348862 
L 323.520604 41668.348862 
L 324.133218 41668.348862 
L 324.745833 41668.348862 
L 325.358447 41668.348862 
L 325.971061 41668.348862 
L 326.583676 41668.348862 
L 327.19629 41668.348862 
L 327.808905 41668.348862 
L 328.421519 41668.348862 
L 329.034134 41668.348862 
L 329.646748 41668.348862 
L 330.259362 41668.348862 
L 330.871977 41668.348862 
L 331.484591 41668.348862 
L 332.097206 41668.348862 
L 332.70982 41668.348862 
L 333.322434 41668.348862 
L 333.935049 41668.348862 
L 334.547663 41668.348862 
L 335.160278 41668.348862 
L 335.772892 41668.348862 
L 336.385506 41668.348862 
L 336.998121 41668.348862 
L 337.610735 41668.348862 
L 338.22335 41668.348862 
L 338.835964 41668.348862 
L 339.448578 41668.348862 
L 340.061193 41668.348862 
L 340.673807 41668.348862 
L 341.286422 41668.348862 
L 341.899036 41668.348862 
L 342.51165 41668.348862 
L 343.124265 41668.348862 
L 343.736879 41668.348862 
L 344.349494 41668.348862 
L 344.962108 41668.348862 
L 345.574722 41668.348862 
L 346.187337 41668.348862 
L 346.799951 41668.348862 
L 347.412566 41668.348862 
L 348.02518 41668.348862 
L 348.637795 41668.348862 
L 349.250409 41668.348862 
L 349.863023 41668.348862 
L 350.475638 41668.348862 
L 351.088252 41668.348862 
L 351.700867 41668.348862 
L 352.313481 41668.348862 
L 352.926095 41668.348862 
L 353.53871 41668.348862 
L 354.151324 41668.348862 
L 354.763939 41668.348862 
L 355.376553 41668.348862 
L 355.989167 41668.348862 
L 356.601782 41668.348862 
L 357.214396 41668.348862 
L 357.827011 41668.348862 
L 358.439625 41668.348862 
L 359.052239 41668.348862 
L 359.664854 41668.348862 
L 360.277468 41668.348862 
L 360.890083 41668.348862 
L 361.502697 41668.348862 
L 362.115311 41668.348862 
L 362.727926 41668.348862 
L 363.34054 41668.348862 
L 363.953155 41668.348862 
L 364.565769 41668.348862 
L 365.178384 41668.348862 
L 365.790998 41668.348862 
L 366.403612 41668.348862 
L 367.016227 41668.348862 
L 367.628841 41668.348862 
L 368.241456 41668.348862 
L 368.85407 41668.348862 
L 369.466684 41668.348862 
L 370.079299 41668.348862 
L 370.691913 41668.348862 
L 371.304528 41668.348862 
L 371.917142 41668.348862 
L 372.529756 41668.348862 
L 372.529756 242.238309 
L 372.529756 242.238309 
L 371.917142 161.490214 
L 371.304528 218.469568 
L 370.691913 265.513917 
L 370.079299 164.687476 
L 369.466684 201.583411 
L 368.85407 376.206797 
L 368.241456 688.557634 
L 367.628841 1138.635923 
L 367.016227 1726.441662 
L 366.403612 2451.974852 
L 365.790998 3315.235493 
L 365.178384 2825.174853 
L 364.565769 2037.378652 
L 363.953155 1387.309902 
L 363.34054 874.968604 
L 362.727926 500.354756 
L 362.115311 263.468359 
L 361.502697 164.309413 
L 360.890083 202.877918 
L 360.277468 379.173874 
L 359.664854 669.337725 
L 359.052239 367.542227 
L 358.439625 197.870263 
L 357.827011 165.92575 
L 357.214396 271.659728 
L 356.601782 202.544953 
L 355.989167 164.404159 
L 355.376553 263.990815 
L 354.763939 501.304922 
L 354.151324 649.51881 
L 353.53871 351.543227 
L 352.926095 191.295032 
L 352.313481 168.774277 
L 351.700867 225.105718 
L 351.088252 161.038185 
L 350.475638 229.428136 
L 349.863023 154.672523 
L 349.250409 178.481986 
L 348.637795 161.216242 
L 348.02518 160.857234 
L 347.412566 233.69816 
L 346.799951 444.091849 
L 346.187337 326.292345 
L 345.574722 181.391664 
L 344.962108 155.03822 
L 344.349494 160.857634 
L 343.736879 213.91105 
L 343.124265 403.527323 
L 342.51165 730.848834 
L 341.899036 484.835125 
L 341.286422 254.465263 
L 340.673807 156.401023 
L 340.061193 154.352335 
L 339.448578 219.99143 
L 338.835964 355.751743 
L 338.22335 191.177868 
L 337.610735 142.018159 
L 336.998121 171.795227 
L 336.385506 209.58005 
L 335.772892 153.955111 
L 335.160278 173.827247 
L 334.547663 148.043223 
L 333.935049 147.686681 
L 333.322434 258.52944 
L 332.70982 182.484371 
L 332.097206 154.487369 
L 331.484591 175.011339 
L 330.871977 152.764919 
L 330.259362 151.286518 
L 329.646748 149.039386 
L 329.034134 151.166383 
L 328.421519 183.39633 
L 327.808905 173.430764 
L 327.19629 196.498581 
L 326.583676 136.832591 
L 325.971061 142.167213 
L 325.358447 150.206504 
L 324.745833 148.305884 
L 324.133218 136.969828 
L 323.520604 141.624899 
L 322.907989 152.645659 
L 322.295375 151.949148 
L 321.682761 156.974584 
L 321.070146 136.797593 
L 320.457532 131.167265 
L 319.844917 128.695198 
L 319.232303 139.525853 
L 318.619689 174.789776 
L 318.007074 148.701378 
L 317.39446 136.449852 
L 316.781845 129.383962 
L 316.169231 135.095786 
L 315.556617 148.164401 
L 314.944002 149.417854 
L 314.331388 134.052121 
L 313.718773 130.664548 
L 313.106159 159.65254 
L 312.493545 146.355461 
L 311.88093 123.734865 
L 311.268316 136.606344 
L 310.655701 125.563205 
L 310.043087 128.68969 
L 309.430472 130.613871 
L 308.817858 136.081952 
L 308.205244 138.473326 
L 307.592629 136.718152 
L 306.980015 126.213534 
L 306.3674 132.328575 
L 305.754786 137.968196 
L 305.142172 126.880857 
L 304.529557 124.523973 
L 303.916943 129.270289 
L 303.304328 125.680051 
L 302.691714 136.363768 
L 302.0791 129.477682 
L 301.466485 123.991284 
L 300.853871 124.352732 
L 300.241256 142.13399 
L 299.628642 127.043123 
L 299.016028 117.773865 
L 298.403413 124.872179 
L 297.790799 125.241691 
L 297.178184 131.85345 
L 296.56557 123.168876 
L 295.952956 128.962067 
L 295.340341 123.562966 
L 294.727727 124.113054 
L 294.115112 123.004555 
L 293.502498 125.32894 
L 292.889883 135.222631 
L 292.277269 117.1553 
L 291.664655 123.956787 
L 291.05204 117.579912 
L 290.439426 112.683558 
L 289.826811 114.152211 
L 289.214197 123.848687 
L 288.601583 117.228302 
L 287.988968 118.875524 
L 287.376354 120.850933 
L 286.763739 117.207341 
L 286.151125 113.096186 
L 285.538511 120.236571 
L 284.925896 131.189521 
L 284.313282 120.17125 
L 283.700667 112.718499 
L 283.088053 113.208376 
L 282.475439 122.040229 
L 281.862824 112.622392 
L 281.25021 107.567128 
L 280.637595 115.170338 
L 280.024981 117.282563 
L 279.412367 121.241666 
L 278.799752 120.157626 
L 278.187138 108.055231 
L 277.574523 111.818195 
L 276.961909 112.958437 
L 276.349295 109.551972 
L 275.73668 113.32125 
L 275.124066 110.973267 
L 274.511451 110.247855 
L 273.898837 107.591468 
L 273.286222 111.420691 
L 272.673608 117.212207 
L 272.060994 113.347752 
L 271.448379 110.320441 
L 270.835765 111.636225 
L 270.22315 111.307622 
L 269.610536 104.343335 
L 268.997922 109.945422 
L 268.385307 110.777913 
L 267.772693 111.95423 
L 267.160078 104.524087 
L 266.547464 102.441564 
L 265.93485 102.298962 
L 265.322235 106.732453 
L 264.709621 102.151633 
L 264.097006 104.979647 
L 263.484392 107.621203 
L 262.871778 105.718849 
L 262.259163 108.034612 
L 261.646549 111.153543 
L 261.033934 100.096088 
L 260.42132 103.599044 
L 259.808706 97.084249 
L 259.196091 97.542993 
L 258.583477 93.904371 
L 257.970862 100.781634 
L 257.358248 106.702143 
L 256.745633 105.136119 
L 256.133019 99.469089 
L 255.520405 105.735287 
L 254.90779 106.737171 
L 254.295176 107.468095 
L 253.682561 101.615377 
L 253.069947 99.055398 
L 252.457333 99.165646 
L 251.844718 93.561213 
L 251.232104 97.575837 
L 250.619489 91.158499 
L 250.006875 98.8156 
L 249.394261 104.399974 
L 248.781646 96.186183 
L 248.169032 96.913465 
L 247.556417 98.304387 
L 246.943803 99.216917 
L 246.331189 98.148058 
L 245.718574 98.757888 
L 245.10596 98.977851 
L 244.493345 97.707438 
L 243.880731 97.103031 
L 243.268117 95.335367 
L 242.655502 90.603746 
L 242.042888 92.300879 
L 241.430273 94.875763 
L 240.817659 92.901137 
L 240.205045 97.42348 
L 239.59243 94.304407 
L 238.979816 93.8716 
L 238.367201 102.226852 
L 237.754587 96.789738 
L 237.141972 97.617309 
L 236.529358 93.640527 
L 235.916744 93.022912 
L 235.304129 92.405141 
L 234.691515 87.738308 
L 234.0789 89.343492 
L 233.466286 88.537177 
L 232.853672 93.102686 
L 232.241057 91.327863 
L 231.628443 93.867256 
L 231.015828 91.768179 
L 230.403214 99.96095 
L 229.7906 96.6244 
L 229.177985 95.697809 
L 228.565371 100.845484 
L 227.952756 89.222892 
L 227.340142 92.017707 
L 226.727528 87.297736 
L 226.114913 83.157697 
L 225.502299 83.420614 
L 224.889684 85.001036 
L 224.27707 85.912331 
L 223.664456 91.900638 
L 223.051841 85.805109 
L 222.439227 88.895829 
L 221.826612 93.295141 
L 221.213998 92.154532 
L 220.601383 96.159881 
L 219.988769 92.305266 
L 219.376155 91.40649 
L 218.76354 93.298168 
L 218.150926 86.041809 
L 217.538311 85.554341 
L 216.925697 84.11859 
L 216.313083 81.931166 
L 215.700468 79.900086 
L 215.087854 80.345959 
L 214.475239 82.533854 
L 213.862625 88.462514 
L 213.250011 98.420341 
L 212.637396 93.662079 
L 212.024782 91.016039 
L 211.412167 90.624933 
L 210.799553 89.814704 
L 210.186939 89.237579 
L 209.574324 82.764422 
L 208.96171 83.314028 
L 208.349095 81.212949 
L 207.736481 79.497887 
L 207.123867 78.02654 
L 206.511252 83.377301 
L 205.898638 81.943512 
L 205.286023 85.19502 
L 204.673409 89.194965 
L 204.060795 88.826615 
L 203.44818 89.23075 
L 202.835566 91.455474 
L 202.222951 88.664448 
L 201.610337 85.13611 
L 200.997722 82.441846 
L 200.385108 79.18361 
L 199.772494 77.203125 
L 199.159879 75.719906 
L 198.547265 76.529021 
L 197.93465 74.440761 
L 197.322036 79.358725 
L 196.709422 82.242631 
L 196.096807 83.502346 
L 195.484193 87.218742 
L 194.871578 91.336857 
L 194.258964 91.961015 
L 193.64635 87.353608 
L 193.033735 90.360724 
L 192.421121 85.833068 
L 191.808506 83.070168 
L 191.195892 75.501557 
L 190.583278 75.723609 
L 189.970663 74.078877 
L 189.358049 74.417303 
L 188.745434 74.270548 
L 188.13282 81.454956 
L 187.520206 85.759186 
L 186.907591 88.570802 
L 186.294977 88.540403 
L 185.682362 93.26255 
L 185.069748 92.642529 
L 184.457133 87.853895 
L 183.844519 82.036725 
L 183.231905 78.147018 
L 182.61929 75.475619 
L 182.006676 76.959139 
L 181.394061 76.891236 
L 180.781447 74.478034 
L 180.168833 72.479759 
L 179.556218 75.138771 
L 178.943604 78.927419 
L 178.330989 81.504967 
L 177.718375 84.682525 
L 177.105761 86.935812 
L 176.493146 92.851983 
L 175.880532 95.346178 
L 175.267917 88.119762 
L 174.655303 84.811719 
L 174.042689 80.911177 
L 173.430074 78.453673 
L 172.81746 76.828113 
L 172.204845 71.456091 
L 171.592231 72.947484 
L 170.979617 71.527512 
L 170.367002 75.096925 
L 169.754388 76.776598 
L 169.141773 80.285667 
L 168.529159 86.192912 
L 167.916545 92.45804 
L 167.30393 95.865054 
L 166.691316 92.685642 
L 166.078701 90.927657 
L 165.466087 87.907598 
L 164.853472 80.99498 
L 164.240858 75.187244 
L 163.628244 72.669449 
L 163.015629 73.436542 
L 162.403015 72.681849 
L 161.7904 71.182931 
L 161.177786 75.132708 
L 160.565172 80.07429 
L 159.952557 83.753705 
L 159.339943 90.018435 
L 158.727328 97.701829 
L 158.114714 97.173582 
L 157.5021 91.3733 
L 156.889485 87.207632 
L 156.276871 84.762285 
L 155.664256 77.571168 
L 155.051642 74.736502 
L 154.439028 72.333406 
L 153.826413 72.163808 
L 153.213799 70.243448 
L 152.601184 73.933615 
L 151.98857 75.94855 
L 151.375956 78.031236 
L 150.763341 81.295659 
L 150.150727 92.663641 
L 149.538112 94.448502 
L 148.925498 95.965926 
L 148.312883 94.478383 
L 147.700269 89.822492 
L 147.087655 80.603708 
L 146.47504 77.005715 
L 145.862426 72.770664 
L 145.249811 70.973407 
L 144.637197 68.191695 
L 144.024583 70.358646 
L 143.411968 74.370765 
L 142.799354 80.599497 
L 142.186739 88.690952 
L 141.574125 92.998992 
L 140.961511 98.569017 
L 140.348896 101.255243 
L 139.736282 94.131161 
L 139.123667 86.75609 
L 138.511053 80.878049 
L 137.898439 76.46078 
L 137.285824 71.499348 
L 136.67321 71.192319 
L 136.060595 69.954917 
L 135.447981 71.580338 
L 134.835367 74.046121 
L 134.222752 78.206727 
L 133.610138 89.954887 
L 132.997523 94.776878 
L 132.384909 99.249822 
L 131.772295 101.379932 
L 131.15968 96.288002 
L 130.547066 87.029736 
L 129.934451 78.542395 
L 129.321837 74.001692 
L 128.709222 71.424571 
L 128.096608 69.779746 
L 127.483994 69.422828 
L 126.871379 72.82131 
L 126.258765 78.121722 
L 125.64615 83.494487 
L 125.033536 91.905554 
L 124.420922 94.645838 
L 123.808307 102.826656 
L 123.195693 104.540707 
L 122.583078 95.415156 
L 121.970464 87.477416 
L 121.35785 77.851151 
L 120.745235 73.824023 
L 120.132621 68.375136 
L 119.520006 67.055352 
L 118.907392 68.857928 
L 118.294778 71.389353 
L 117.682163 78.150165 
L 117.069549 83.966405 
L 116.456934 95.071079 
L 115.84432 102.529456 
L 115.231706 97.921374 
L 114.619091 103.310615 
L 114.006477 95.985329 
L 113.393862 83.690838 
L 112.781248 75.490015 
L 112.168633 70.897094 
L 111.556019 67.736311 
L 110.943405 67.94193 
L 110.33079 67.532355 
L 109.718176 72.701215 
L 109.105561 77.000646 
L 108.492947 86.808685 
L 107.880333 96.803369 
L 107.267718 99.599816 
L 106.655104 106.712966 
L 106.042489 97.101614 
L 105.429875 89.444489 
L 104.817261 80.160888 
L 104.204646 75.115313 
L 103.592032 70.83088 
L 102.979417 65.110692 
L 102.366803 65.404811 
L 101.754189 69.209795 
L 101.141574 74.257065 
L 100.52896 79.115204 
L 99.916345 90.475474 
L 99.303731 97.321121 
L 98.691117 104.26263 
L 98.078502 94.849522 
L 97.465888 86.962505 
L 96.853273 81.028625 
L 96.240659 75.385226 
L 95.628045 71.561525 
L 95.01543 67.646259 
L 94.402816 65.45807 
L 93.790201 68.498362 
L 93.177587 75.490694 
L 92.564972 87.272607 
L 91.952358 90.750791 
L 91.339744 89.828652 
L 90.727129 81.251325 
L 90.114515 75.944176 
L 89.5019 70.790954 
L 88.889286 70.06503 
L 88.276672 64.695535 
L 87.664057 66.834584 
L 87.051443 70.590793 
L 86.438828 78.461091 
L 85.826214 83.395526 
L 85.2136 76.221556 
L 84.600985 68.725486 
L 83.988371 64.706723 
L 83.375756 66.016002 
L 82.763142 68.54699 
L 82.150528 69.657902 
L 81.537913 74.603439 
L 80.925299 80.018298 
L 80.312684 80.840033 
L 79.70007 72.356379 
L 79.087456 64.492706 
L 78.474841 57.942762 
L 77.862227 58.336221 
L 77.249612 64.588304 
L 76.636998 73.350771 
L 76.024383 77.836453 
L 75.411769 82.690522 
L 74.799155 72.351736 
L 74.18654 59.185887 
L 73.573926 54.324554 
L 72.961311 59.976218 
L 72.348697 71.46005 
L 71.736083 84.594892 
L 71.123468 79.132289 
L 70.510854 70.719449 
L 69.898239 67.131286 
L 69.285625 77.372747 
L 68.673011 91.815808 
L 68.060396 110.643363 
L 67.447782 156.43978 
L 66.835167 242.22614 
z
" clip-path="url(#p351f77cd75)" style="fill: #4c72b0; fill-opacity: 0.25; stroke: #4c72b0; stroke-width: 0.3"/>
   </g>
   <g id="patch_3">
    <path d="M 52.282462 171.508862 
L 52.282462 5.188862 
" style="fill: none"/>
   </g>
   <g id="patch_4">
    <path d="M 387.082462 171.508862 
L 387.082462 5.188862 
" style="fill: none"/>
   </g>
   <g id="patch_5">
    <path d="M 52.282462 171.508862 
L 387.082462 171.508862 
" style="fill: none"/>
   </g>
   <g id="patch_6">
    <path d="M 52.282462 5.188862 
L 387.082462 5.188862 
" style="fill: none"/>
   </g>
   <g id="text_14">
    <!-- 0 -->
    <g transform="translate(70.074906 63.681834) scale(0.1 -0.1)">
     <use xlink:href="#CMR17-30" transform="scale(0.996264)"/>
    </g>
   </g>
   <g id="text_15">
    <!-- 1 -->
    <g transform="translate(73.586561 53.366462) scale(0.1 -0.1)">
     <use xlink:href="#CMR17-31" transform="scale(0.996264)"/>
    </g>
   </g>
   <g id="text_16">
    <!-- 2 -->
    <g transform="translate(78.129918 55.973363) scale(0.1 -0.1)">
     <use xlink:href="#CMR17-32" transform="scale(0.996264)"/>
    </g>
   </g>
   <g id="text_17">
    <!-- 3 -->
    <g transform="translate(83.296298 60.877161) scale(0.1 -0.1)">
     <defs>
      <path id="CMR17-33" d="M 1414 2157 
C 1984 2157 2234 1662 2234 1090 
C 2234 320 1824 25 1453 25 
C 1114 25 563 194 390 693 
C 422 680 454 680 486 680 
C 640 680 755 782 755 948 
C 755 1133 614 1216 486 1216 
C 378 1216 211 1165 211 926 
C 211 335 787 -128 1466 -128 
C 2176 -128 2720 430 2720 1085 
C 2720 1707 2208 2157 1600 2227 
C 2086 2328 2554 2756 2554 3329 
C 2554 3820 2048 4179 1472 4179 
C 890 4179 378 3829 378 3329 
C 378 3110 544 3072 627 3072 
C 762 3072 877 3155 877 3321 
C 877 3486 762 3569 627 3569 
C 602 3569 570 3569 544 3557 
C 730 3959 1235 4032 1459 4032 
C 1683 4032 2106 3925 2106 3320 
C 2106 3143 2080 2828 1862 2550 
C 1670 2304 1453 2304 1242 2284 
C 1210 2284 1062 2269 1037 2269 
C 992 2263 966 2257 966 2208 
C 966 2163 973 2157 1101 2157 
L 1414 2157 
z
" transform="scale(0.015625)"/>
     </defs>
     <use xlink:href="#CMR17-33" transform="scale(0.996264)"/>
    </g>
   </g>
   <g id="text_18">
    <!-- 4 -->
    <g transform="translate(88.449641 61.70352) scale(0.1 -0.1)">
     <use xlink:href="#CMR17-34" transform="scale(0.996264)"/>
    </g>
   </g>
   <g id="text_19">
    <!-- 5 -->
    <g transform="translate(94.84286 62.478631) scale(0.1 -0.1)">
     <defs>
      <path id="CMR17-35" d="M 730 3692 
C 794 3666 1056 3584 1325 3584 
C 1920 3584 2246 3911 2432 4100 
C 2432 4157 2432 4192 2394 4192 
C 2387 4192 2374 4192 2323 4163 
C 2099 4058 1837 3973 1517 3973 
C 1325 3973 1037 3999 723 4139 
C 653 4171 640 4171 634 4171 
C 602 4171 595 4164 595 4037 
L 595 2203 
C 595 2089 595 2057 659 2057 
C 691 2057 704 2070 736 2114 
C 941 2401 1222 2522 1542 2522 
C 1766 2522 2246 2382 2246 1289 
C 2246 1085 2246 715 2054 421 
C 1894 159 1645 25 1370 25 
C 947 25 518 320 403 814 
C 429 807 480 795 506 795 
C 589 795 749 840 749 1038 
C 749 1210 627 1280 506 1280 
C 358 1280 262 1190 262 1011 
C 262 454 704 -128 1382 -128 
C 2042 -128 2669 440 2669 1264 
C 2669 2030 2170 2624 1549 2624 
C 1222 2624 947 2503 730 2274 
L 730 3692 
z
" transform="scale(0.015625)"/>
     </defs>
     <use xlink:href="#CMR17-35" transform="scale(0.996264)"/>
    </g>
   </g>
   <g id="text_20">
    <!-- 6 -->
    <g transform="translate(102.658 61.697434) scale(0.1 -0.1)">
     <use xlink:href="#CMR17-36" transform="scale(0.996264)"/>
    </g>
   </g>
   <g id="text_21">
    <!-- 7 -->
    <g transform="translate(111.013637 62.552713) scale(0.1 -0.1)">
     <defs>
      <path id="CMR17-37" d="M 2886 3941 
L 2886 4081 
L 1382 4081 
C 634 4081 621 4165 595 4288 
L 480 4288 
L 294 3094 
L 410 3094 
C 429 3215 474 3540 550 3661 
C 589 3712 1062 3712 1171 3712 
L 2579 3712 
L 1869 2661 
C 1395 1954 1069 999 1069 165 
C 1069 89 1069 -128 1299 -128 
C 1530 -128 1530 89 1530 171 
L 1530 465 
C 1530 1508 1709 2196 2003 2636 
L 2886 3941 
z
" transform="scale(0.015625)"/>
     </defs>
     <use xlink:href="#CMR17-37" transform="scale(0.996264)"/>
    </g>
   </g>
   <g id="text_22">
    <!-- 8 -->
    <g transform="translate(119.442292 63.051565) scale(0.1 -0.1)">
     <use xlink:href="#CMR17-38" transform="scale(0.996264)"/>
    </g>
   </g>
   <g id="text_23">
    <!-- 9 -->
    <g transform="translate(127.929533 64.2752) scale(0.1 -0.1)">
     <defs>
      <path id="CMR17-39" d="M 2253 1864 
C 2253 464 1670 31 1190 31 
C 1043 31 685 31 538 294 
C 704 268 826 357 826 518 
C 826 692 685 749 595 749 
C 538 749 365 723 365 506 
C 365 71 742 -128 1203 -128 
C 1939 -128 2688 674 2688 2073 
C 2688 3817 1971 4179 1485 4179 
C 851 4179 243 3628 243 2778 
C 243 1991 762 1408 1414 1408 
C 1952 1408 2189 1903 2253 2112 
L 2253 1864 
z
M 1427 1510 
C 1254 1510 1011 1542 813 1922 
C 678 2169 678 2461 678 2771 
C 678 3146 678 3405 858 3684 
C 947 3817 1114 4032 1485 4032 
C 2240 4032 2240 2885 2240 2632 
C 2240 2182 2035 1510 1427 1510 
z
" transform="scale(0.015625)"/>
     </defs>
     <use xlink:href="#CMR17-39" transform="scale(0.996264)"/>
    </g>
   </g>
   <g id="text_24">
    <!-- 10 -->
    <g transform="translate(136.323945 64.223203) scale(0.1 -0.1)">
     <use xlink:href="#CMR17-31" transform="scale(0.996264)"/>
     <use xlink:href="#CMR17-30" transform="translate(45.690477 0) scale(0.996264)"/>
    </g>
   </g>
   <g id="text_25">
    <!-- 11 -->
    <g transform="translate(144.814327 64.286966) scale(0.1 -0.1)">
     <use xlink:href="#CMR17-31" transform="scale(0.996264)"/>
     <use xlink:href="#CMR17-31" transform="translate(45.690477 0) scale(0.996264)"/>
    </g>
   </g>
   <g id="text_26">
    <!-- 12 -->
    <g transform="translate(153.5569 65.281087) scale(0.1 -0.1)">
     <use xlink:href="#CMR17-31" transform="scale(0.996264)"/>
     <use xlink:href="#CMR17-32" transform="translate(45.690477 0) scale(0.996264)"/>
    </g>
   </g>
   <g id="text_27">
    <!-- 13 -->
    <g transform="translate(162.637372 65.627098) scale(0.1 -0.1)">
     <use xlink:href="#CMR17-31" transform="scale(0.996264)"/>
     <use xlink:href="#CMR17-33" transform="translate(45.690477 0) scale(0.996264)"/>
    </g>
   </g>
   <g id="text_28">
    <!-- 14 -->
    <g transform="translate(171.56453 66.040657) scale(0.1 -0.1)">
     <use xlink:href="#CMR17-31" transform="scale(0.996264)"/>
     <use xlink:href="#CMR17-34" transform="translate(45.690477 0) scale(0.996264)"/>
    </g>
   </g>
   <g id="text_29">
    <!-- 15 -->
    <g transform="translate(180.887225 67.001378) scale(0.1 -0.1)">
     <use xlink:href="#CMR17-31" transform="scale(0.996264)"/>
     <use xlink:href="#CMR17-35" transform="translate(45.690477 0) scale(0.996264)"/>
    </g>
   </g>
   <g id="text_30">
    <!-- 16 -->
    <g transform="translate(189.921356 67.98621) scale(0.1 -0.1)">
     <use xlink:href="#CMR17-31" transform="scale(0.996264)"/>
     <use xlink:href="#CMR17-36" transform="translate(45.690477 0) scale(0.996264)"/>
    </g>
   </g>
   <g id="text_31">
    <!-- 17 -->
    <g transform="translate(198.724658 68.41327) scale(0.1 -0.1)">
     <use xlink:href="#CMR17-31" transform="scale(0.996264)"/>
     <use xlink:href="#CMR17-37" transform="translate(45.690477 0) scale(0.996264)"/>
    </g>
   </g>
   <g id="text_32">
    <!-- 18 -->
    <g transform="translate(207.467956 71.220296) scale(0.1 -0.1)">
     <use xlink:href="#CMR17-31" transform="scale(0.996264)"/>
     <use xlink:href="#CMR17-38" transform="translate(45.690477 0) scale(0.996264)"/>
    </g>
   </g>
   <g id="text_33">
    <!-- 19 -->
    <g transform="translate(216.12578 72.436919) scale(0.1 -0.1)">
     <use xlink:href="#CMR17-31" transform="scale(0.996264)"/>
     <use xlink:href="#CMR17-39" transform="translate(45.690477 0) scale(0.996264)"/>
    </g>
   </g>
   <g id="text_34">
    <!-- 20 -->
    <g transform="translate(224.94394 73.887017) scale(0.1 -0.1)">
     <use xlink:href="#CMR17-32" transform="scale(0.996264)"/>
     <use xlink:href="#CMR17-30" transform="translate(45.690477 0) scale(0.996264)"/>
    </g>
   </g>
   <g id="text_35">
    <!-- 21 -->
    <g transform="translate(233.799453 76.499379) scale(0.1 -0.1)">
     <use xlink:href="#CMR17-32" transform="scale(0.996264)"/>
     <use xlink:href="#CMR17-31" transform="translate(45.690477 0) scale(0.996264)"/>
    </g>
   </g>
   <g id="text_36">
    <!-- 22 -->
    <g transform="translate(242.042109 78.162671) scale(0.1 -0.1)">
     <use xlink:href="#CMR17-32" transform="scale(0.996264)"/>
     <use xlink:href="#CMR17-32" transform="translate(45.690477 0) scale(0.996264)"/>
    </g>
   </g>
   <g id="text_37">
    <!-- 23 -->
    <g transform="translate(250.415897 79.017723) scale(0.1 -0.1)">
     <use xlink:href="#CMR17-32" transform="scale(0.996264)"/>
     <use xlink:href="#CMR17-33" transform="translate(45.690477 0) scale(0.996264)"/>
    </g>
   </g>
   <g id="text_38">
    <!-- 24 -->
    <g transform="translate(258.734574 80.390711) scale(0.1 -0.1)">
     <use xlink:href="#CMR17-32" transform="scale(0.996264)"/>
     <use xlink:href="#CMR17-34" transform="translate(45.690477 0) scale(0.996264)"/>
    </g>
   </g>
   <g id="text_39">
    <!-- 25 -->
    <g transform="translate(266.19474 82.058355) scale(0.1 -0.1)">
     <use xlink:href="#CMR17-32" transform="scale(0.996264)"/>
     <use xlink:href="#CMR17-35" transform="translate(45.690477 0) scale(0.996264)"/>
    </g>
   </g>
   <g id="text_40">
    <!-- 26 -->
    <g transform="translate(274.030024 83.823086) scale(0.1 -0.1)">
     <use xlink:href="#CMR17-32" transform="scale(0.996264)"/>
     <use xlink:href="#CMR17-36" transform="translate(45.690477 0) scale(0.996264)"/>
    </g>
   </g>
   <g id="text_41">
    <!-- 27 -->
    <g transform="translate(281.304172 84.802872) scale(0.1 -0.1)">
     <use xlink:href="#CMR17-32" transform="scale(0.996264)"/>
     <use xlink:href="#CMR17-37" transform="translate(45.690477 0) scale(0.996264)"/>
    </g>
   </g>
   <g id="text_42">
    <!-- 28 -->
    <g transform="translate(290.264696 85.380212) scale(0.1 -0.1)">
     <use xlink:href="#CMR17-32" transform="scale(0.996264)"/>
     <use xlink:href="#CMR17-38" transform="translate(45.690477 0) scale(0.996264)"/>
    </g>
   </g>
   <g id="text_43">
    <!-- 29 -->
    <g transform="translate(303.841578 86.746352) scale(0.1 -0.1)">
     <use xlink:href="#CMR17-32" transform="scale(0.996264)"/>
     <use xlink:href="#CMR17-39" transform="translate(45.690477 0) scale(0.996264)"/>
    </g>
   </g>
   <g id="text_44">
    <!-- 30+ -->
    <g transform="translate(320.582347 87.67756) scale(0.1 -0.1)">
     <defs>
      <path id="CMR17-2b" d="M 2413 1472 
L 4109 1472 
C 4198 1472 4307 1472 4307 1580 
C 4307 1695 4205 1695 4109 1695 
L 2413 1695 
L 2413 3386 
C 2413 3475 2413 3584 2304 3584 
C 2189 3584 2189 3482 2189 3386 
L 2189 1695 
L 493 1695 
C 403 1695 294 1695 294 1587 
C 294 1472 397 1472 493 1472 
L 2189 1472 
L 2189 -218 
C 2189 -307 2189 -416 2298 -416 
C 2413 -416 2413 -314 2413 -218 
L 2413 1472 
z
" transform="scale(0.015625)"/>
     </defs>
     <use xlink:href="#CMR17-33" transform="scale(0.996264)"/>
     <use xlink:href="#CMR17-30" transform="translate(45.690477 0) scale(0.996264)"/>
     <use xlink:href="#CMR17-2b" transform="translate(91.380954 0) scale(0.996264)"/>
    </g>
   </g>
   <g id="text_45">
    <!-- AREA -->
    <g style="fill: #262626" transform="translate(312.46174 22.007411) scale(0.15 -0.15)">
     <defs>
      <path id="CMR17-41" d="M 2323 4378 
C 2291 4461 2278 4480 2214 4480 
C 2150 4480 2138 4461 2106 4378 
L 749 566 
C 627 223 371 153 147 153 
L 147 -13 
C 262 0 518 0 640 0 
C 800 0 1056 0 1210 -13 
L 1210 153 
C 909 153 864 361 864 439 
C 864 497 877 530 890 569 
L 1229 1536 
L 2906 1536 
L 3290 442 
C 3322 365 3322 352 3322 327 
C 3322 153 3046 153 2925 153 
L 2925 0 
C 3110 0 3443 0 3642 0 
C 3808 0 4128 0 4282 -13 
L 4282 153 
C 3942 153 3827 153 3744 387 
L 2323 4378 
z
M 2067 3893 
L 2848 1702 
L 1286 1702 
L 2067 3893 
z
" transform="scale(0.015625)"/>
      <path id="CMR17-52" d="M 2509 2146 
C 3117 2268 3629 2676 3629 3186 
C 3629 3785 2950 4326 2054 4326 
L 333 4326 
L 333 4160 
C 774 4160 845 4160 845 3873 
L 845 415 
C 845 128 774 128 333 128 
L 333 -26 
C 518 -26 851 -26 1050 -26 
C 1248 -26 1581 -26 1766 -26 
L 1766 128 
C 1325 128 1254 128 1254 417 
L 1254 2112 
L 2003 2112 
C 2368 2112 2573 1964 2662 1881 
C 2918 1632 2918 1459 2918 1024 
C 2918 595 2918 377 3110 160 
C 3354 -102 3680 -128 3821 -128 
C 4294 -128 4365 396 4365 503 
C 4365 540 4365 585 4307 585 
C 4256 585 4250 547 4250 522 
C 4218 112 4032 -26 3834 -26 
C 3482 -26 3443 375 3405 764 
C 3386 898 3373 993 3360 1133 
C 3322 1452 3270 1917 2509 2146 
z
M 1984 2214 
L 1254 2214 
L 1254 3913 
C 1254 4129 1267 4160 1523 4160 
L 1990 4160 
C 2522 4160 3142 3977 3142 3190 
C 3142 2372 2464 2214 1984 2214 
z
" transform="scale(0.015625)"/>
      <path id="CMR17-45" d="M 3885 1615 
L 3770 1615 
C 3629 676 3546 166 2419 166 
L 1530 166 
C 1274 166 1261 197 1261 414 
L 1261 2176 
L 1862 2176 
C 2464 2176 2522 1960 2522 1430 
L 2637 1430 
L 2637 3081 
L 2522 3081 
C 2522 2557 2464 2342 1862 2342 
L 1261 2342 
L 1261 3913 
C 1261 4128 1274 4160 1530 4160 
L 2406 4160 
C 3398 4160 3514 3769 3603 2929 
L 3718 2929 
L 3565 4325 
L 326 4325 
L 326 4160 
C 768 4160 838 4160 838 3874 
L 838 451 
C 838 166 768 166 326 166 
L 326 0 
L 3654 0 
L 3885 1615 
z
" transform="scale(0.015625)"/>
     </defs>
     <use xlink:href="#CMR17-41" transform="scale(0.996264)"/>
     <use xlink:href="#CMR17-52" transform="translate(69.07243 0) scale(0.996264)"/>
     <use xlink:href="#CMR17-45" transform="translate(136.863532 0) scale(0.996264)"/>
     <use xlink:href="#CMR17-41" transform="translate(199.449832 0) scale(0.996264)"/>
    </g>
   </g>
  </g>
 </g>
 <defs>
  <clipPath id="p351f77cd75">
   <rect x="52.282462" y="5.188862" width="334.8" height="166.32"/>
  </clipPath>
 </defs>
</svg>
