<?xml version="1.0" encoding="utf-8" standalone="no"?>
<!DOCTYPE svg PUBLIC "-//W3C//DTD SVG 1.1//EN"
  "http://www.w3.org/Graphics/SVG/1.1/DTD/svg11.dtd">
<svg xmlns:xlink="http://www.w3.org/1999/xlink" width="387.082462pt" height="209.075801pt" viewBox="0 0 387.082462 209.075801" xmlns="http://www.w3.org/2000/svg" version="1.1">
 <metadata>
  <rdf:RDF xmlns:dc="http://purl.org/dc/elements/1.1/" xmlns:cc="http://creativecommons.org/ns#" xmlns:rdf="http://www.w3.org/1999/02/22-rdf-syntax-ns#">
   <cc:Work>
    <dc:type rdf:resource="http://purl.org/dc/dcmitype/StillImage"/>
    <dc:date>2024-10-10T15:01:50.504586</dc:date>
    <dc:format>image/svg+xml</dc:format>
    <dc:creator>
     <cc:Agent>
      <dc:title>Matplotlib v3.9.2, https://matplotlib.org/</dc:title>
     </cc:Agent>
    </dc:creator>
   </cc:Work>
  </rdf:RDF>
 </metadata>
 <defs>
  <style type="text/css">*{stroke-linejoin: round; stroke-linecap: butt}</style>
 </defs>
 <g id="figure_1">
  <g id="patch_1">
   <path d="M 0 209.075801 
L 387.082462 209.075801 
L 387.082462 0 
L 0 0 
z
" style="fill: #ffffff"/>
  </g>
  <g id="axes_1">
   <g id="patch_2">
    <path d="M 52.282462 171.508862 
L 387.082462 171.508862 
L 387.082462 5.188862 
L 52.282462 5.188862 
z
" style="fill: #eaeaf2"/>
   </g>
   <g id="matplotlib.axis_1">
    <g id="xtick_1">
     <g id="line2d_1">
      <path d="M 67.500644 171.508862 
L 67.500644 5.188862 
" clip-path="url(#pf58f348840)" style="fill: none; stroke: #ffffff; stroke-linecap: round"/>
     </g>
     <g id="line2d_2"/>
     <g id="text_1">
      <!-- $\mathdefault{0.0}$ -->
      <g style="fill: #262626" transform="translate(58.152118 188.886587) scale(0.15 -0.15)">
       <defs>
        <path id="CMR17-30" d="M 2688 2025 
C 2688 2416 2682 3080 2413 3591 
C 2176 4039 1798 4198 1466 4198 
C 1158 4198 768 4058 525 3597 
C 269 3118 243 2524 243 2025 
C 243 1661 250 1106 448 619 
C 723 -39 1216 -128 1466 -128 
C 1760 -128 2208 -7 2470 600 
C 2662 1042 2688 1559 2688 2025 
z
M 1466 -26 
C 1056 -26 813 325 723 812 
C 653 1188 653 1738 653 2096 
C 653 2588 653 2997 736 3387 
C 858 3929 1216 4096 1466 4096 
C 1728 4096 2067 3923 2189 3400 
C 2272 3036 2278 2607 2278 2096 
C 2278 1680 2278 1169 2202 792 
C 2067 95 1690 -26 1466 -26 
z
" transform="scale(0.015625)"/>
        <path id="CMMI12-3a" d="M 1178 307 
C 1178 492 1024 619 870 619 
C 685 619 557 466 557 313 
C 557 128 710 0 864 0 
C 1050 0 1178 153 1178 307 
z
" transform="scale(0.015625)"/>
       </defs>
       <use xlink:href="#CMR17-30" transform="scale(0.996264)"/>
       <use xlink:href="#CMMI12-3a" transform="translate(45.690477 0) scale(0.996264)"/>
       <use xlink:href="#CMR17-30" transform="translate(72.787654 0) scale(0.996264)"/>
      </g>
     </g>
    </g>
    <g id="xtick_2">
     <g id="line2d_3">
      <path d="M 128.373371 171.508862 
L 128.373371 5.188862 
" clip-path="url(#pf58f348840)" style="fill: none; stroke: #ffffff; stroke-linecap: round"/>
     </g>
     <g id="line2d_4"/>
     <g id="text_2">
      <!-- $\mathdefault{0.2}$ -->
      <g style="fill: #262626" transform="translate(119.024845 188.886587) scale(0.15 -0.15)">
       <defs>
        <path id="CMR17-32" d="M 2669 989 
L 2554 989 
C 2490 536 2438 459 2413 420 
C 2381 369 1920 369 1830 369 
L 602 369 
C 832 619 1280 1072 1824 1597 
C 2214 1967 2669 2402 2669 3035 
C 2669 3790 2067 4224 1395 4224 
C 691 4224 262 3604 262 3030 
C 262 2780 448 2748 525 2748 
C 589 2748 781 2787 781 3010 
C 781 3207 614 3264 525 3264 
C 486 3264 448 3258 422 3245 
C 544 3790 915 4058 1306 4058 
C 1862 4058 2227 3617 2227 3035 
C 2227 2479 1901 2000 1536 1584 
L 262 146 
L 262 0 
L 2515 0 
L 2669 989 
z
" transform="scale(0.015625)"/>
       </defs>
       <use xlink:href="#CMR17-30" transform="scale(0.996264)"/>
       <use xlink:href="#CMMI12-3a" transform="translate(45.690477 0) scale(0.996264)"/>
       <use xlink:href="#CMR17-32" transform="translate(72.787654 0) scale(0.996264)"/>
      </g>
     </g>
    </g>
    <g id="xtick_3">
     <g id="line2d_5">
      <path d="M 189.246098 171.508862 
L 189.246098 5.188862 
" clip-path="url(#pf58f348840)" style="fill: none; stroke: #ffffff; stroke-linecap: round"/>
     </g>
     <g id="line2d_6"/>
     <g id="text_3">
      <!-- $\mathdefault{0.4}$ -->
      <g style="fill: #262626" transform="translate(179.897572 188.886587) scale(0.15 -0.15)">
       <defs>
        <path id="CMR17-34" d="M 2150 4122 
C 2150 4256 2144 4256 2029 4256 
L 128 1254 
L 128 1088 
L 1779 1088 
L 1779 457 
C 1779 224 1766 160 1318 160 
L 1197 160 
L 1197 0 
C 1402 0 1747 0 1965 0 
C 2182 0 2528 0 2733 0 
L 2733 160 
L 2611 160 
C 2163 160 2150 224 2150 457 
L 2150 1088 
L 2803 1088 
L 2803 1254 
L 2150 1254 
L 2150 4122 
z
M 1798 3703 
L 1798 1254 
L 256 1254 
L 1798 3703 
z
" transform="scale(0.015625)"/>
       </defs>
       <use xlink:href="#CMR17-30" transform="scale(0.996264)"/>
       <use xlink:href="#CMMI12-3a" transform="translate(45.690477 0) scale(0.996264)"/>
       <use xlink:href="#CMR17-34" transform="translate(72.787654 0) scale(0.996264)"/>
      </g>
     </g>
    </g>
    <g id="xtick_4">
     <g id="line2d_7">
      <path d="M 250.118826 171.508862 
L 250.118826 5.188862 
" clip-path="url(#pf58f348840)" style="fill: none; stroke: #ffffff; stroke-linecap: round"/>
     </g>
     <g id="line2d_8"/>
     <g id="text_4">
      <!-- $\mathdefault{0.6}$ -->
      <g style="fill: #262626" transform="translate(240.770299 188.886587) scale(0.15 -0.15)">
       <defs>
        <path id="CMR17-36" d="M 678 2176 
C 678 3690 1395 4032 1811 4032 
C 1946 4032 2272 4009 2400 3776 
C 2298 3776 2106 3776 2106 3553 
C 2106 3381 2246 3323 2336 3323 
C 2394 3323 2566 3348 2566 3560 
C 2566 3954 2246 4179 1805 4179 
C 1043 4179 243 3390 243 1984 
C 243 253 966 -128 1478 -128 
C 2099 -128 2688 427 2688 1283 
C 2688 2081 2170 2662 1517 2662 
C 1126 2662 838 2407 678 1960 
L 678 2176 
z
M 1478 25 
C 691 25 691 1200 691 1436 
C 691 1896 909 2560 1504 2560 
C 1613 2560 1926 2560 2138 2120 
C 2253 1870 2253 1609 2253 1289 
C 2253 944 2253 690 2118 434 
C 1978 171 1773 25 1478 25 
z
" transform="scale(0.015625)"/>
       </defs>
       <use xlink:href="#CMR17-30" transform="scale(0.996264)"/>
       <use xlink:href="#CMMI12-3a" transform="translate(45.690477 0) scale(0.996264)"/>
       <use xlink:href="#CMR17-36" transform="translate(72.787654 0) scale(0.996264)"/>
      </g>
     </g>
    </g>
    <g id="xtick_5">
     <g id="line2d_9">
      <path d="M 310.991553 171.508862 
L 310.991553 5.188862 
" clip-path="url(#pf58f348840)" style="fill: none; stroke: #ffffff; stroke-linecap: round"/>
     </g>
     <g id="line2d_10"/>
     <g id="text_5">
      <!-- $\mathdefault{0.8}$ -->
      <g style="fill: #262626" transform="translate(301.643027 188.886587) scale(0.15 -0.15)">
       <defs>
        <path id="CMR17-38" d="M 1741 2264 
C 2144 2467 2554 2773 2554 3263 
C 2554 3841 1990 4179 1472 4179 
C 890 4179 378 3759 378 3180 
C 378 3021 416 2747 666 2505 
C 730 2442 998 2251 1171 2130 
C 883 1983 211 1634 211 934 
C 211 279 838 -128 1459 -128 
C 2144 -128 2720 362 2720 1010 
C 2720 1590 2330 1857 2074 2029 
L 1741 2264 
z
M 902 2822 
C 851 2854 595 3051 595 3351 
C 595 3739 998 4032 1459 4032 
C 1965 4032 2336 3676 2336 3262 
C 2336 2669 1670 2331 1638 2331 
C 1632 2331 1626 2331 1574 2370 
L 902 2822 
z
M 2080 1519 
C 2176 1449 2483 1240 2483 851 
C 2483 381 2010 25 1472 25 
C 890 25 448 438 448 940 
C 448 1443 838 1862 1280 2060 
L 2080 1519 
z
" transform="scale(0.015625)"/>
       </defs>
       <use xlink:href="#CMR17-30" transform="scale(0.996264)"/>
       <use xlink:href="#CMMI12-3a" transform="translate(45.690477 0) scale(0.996264)"/>
       <use xlink:href="#CMR17-38" transform="translate(72.787654 0) scale(0.996264)"/>
      </g>
     </g>
    </g>
    <g id="xtick_6">
     <g id="line2d_11">
      <path d="M 371.86428 171.508862 
L 371.86428 5.188862 
" clip-path="url(#pf58f348840)" style="fill: none; stroke: #ffffff; stroke-linecap: round"/>
     </g>
     <g id="line2d_12"/>
     <g id="text_6">
      <!-- $\mathdefault{1.0}$ -->
      <g style="fill: #262626" transform="translate(362.515754 188.886587) scale(0.15 -0.15)">
       <defs>
        <path id="CMR17-31" d="M 1702 4058 
C 1702 4192 1696 4192 1606 4192 
C 1357 3916 979 3827 621 3827 
C 602 3827 570 3827 563 3808 
C 557 3795 557 3782 557 3648 
C 755 3648 1088 3686 1344 3839 
L 1344 461 
C 1344 236 1331 160 781 160 
L 589 160 
L 589 0 
C 896 0 1216 0 1523 0 
C 1830 0 2150 0 2458 0 
L 2458 160 
L 2266 160 
C 1715 160 1702 230 1702 458 
L 1702 4058 
z
" transform="scale(0.015625)"/>
       </defs>
       <use xlink:href="#CMR17-31" transform="scale(0.996264)"/>
       <use xlink:href="#CMMI12-3a" transform="translate(45.690477 0) scale(0.996264)"/>
       <use xlink:href="#CMR17-30" transform="translate(72.787654 0) scale(0.996264)"/>
      </g>
     </g>
    </g>
    <g id="text_7">
     <!-- $s_1$ -->
     <g style="fill: #262626" transform="translate(213.621025 206.170057) scale(0.15 -0.15)">
      <defs>
       <path id="CMMI12-73" d="M 1459 1280 
C 1568 1261 1741 1223 1779 1216 
C 1862 1192 2150 1090 2150 783 
C 2150 586 1971 70 1229 70 
C 1094 70 614 70 486 436 
C 742 404 870 603 870 745 
C 870 880 781 950 653 950 
C 512 950 326 841 326 552 
C 326 173 710 -64 1222 -64 
C 2195 -64 2483 651 2483 984 
C 2483 1079 2483 1258 2278 1462 
C 2118 1616 1965 1648 1619 1718 
C 1446 1756 1171 1814 1171 2101 
C 1171 2229 1286 2689 1894 2689 
C 2163 2689 2426 2589 2490 2368 
C 2208 2368 2195 2125 2195 2119 
C 2195 1984 2317 1946 2374 1946 
C 2464 1946 2643 2015 2643 2281 
C 2643 2545 2400 2816 1901 2816 
C 1062 2816 838 2160 838 1899 
C 838 1414 1312 1312 1459 1280 
z
" transform="scale(0.015625)"/>
      </defs>
      <use xlink:href="#CMMI12-73" transform="scale(0.996264)"/>
      <use xlink:href="#CMR17-31" transform="translate(45.950048 -14.943915) scale(0.697382)"/>
     </g>
    </g>
   </g>
   <g id="matplotlib.axis_2">
    <g id="ytick_1">
     <g id="line2d_13">
      <path d="M 52.282462 171.508862 
L 387.082462 171.508862 
" clip-path="url(#pf58f348840)" style="fill: none; stroke: #ffffff; stroke-linecap: round"/>
     </g>
     <g id="line2d_14"/>
     <g id="text_8">
      <!-- $\mathdefault{10^{-2}}$ -->
      <g style="fill: #262626" transform="translate(17.283469 176.697725) scale(0.15 -0.15)">
       <defs>
        <path id="CMSY10-0" d="M 4218 1472 
C 4326 1472 4442 1472 4442 1600 
C 4442 1728 4326 1728 4218 1728 
L 755 1728 
C 646 1728 531 1728 531 1600 
C 531 1472 646 1472 755 1472 
L 4218 1472 
z
" transform="scale(0.015625)"/>
       </defs>
       <use xlink:href="#CMR17-31" transform="scale(0.996264)"/>
       <use xlink:href="#CMR17-30" transform="translate(45.690477 0) scale(0.996264)"/>
       <use xlink:href="#CMSY10-0" transform="translate(91.380954 36.153639) scale(0.697382)"/>
       <use xlink:href="#CMR17-32" transform="translate(145.621947 36.153639) scale(0.697382)"/>
      </g>
     </g>
    </g>
    <g id="ytick_2">
     <g id="line2d_15">
      <path d="M 52.282462 129.928862 
L 387.082462 129.928862 
" clip-path="url(#pf58f348840)" style="fill: none; stroke: #ffffff; stroke-linecap: round"/>
     </g>
     <g id="line2d_16"/>
     <g id="text_9">
      <!-- $\mathdefault{10^{-1}}$ -->
      <g style="fill: #262626" transform="translate(17.283469 135.117725) scale(0.15 -0.15)">
       <use xlink:href="#CMR17-31" transform="scale(0.996264)"/>
       <use xlink:href="#CMR17-30" transform="translate(45.690477 0) scale(0.996264)"/>
       <use xlink:href="#CMSY10-0" transform="translate(91.380954 36.153639) scale(0.697382)"/>
       <use xlink:href="#CMR17-31" transform="translate(145.621947 36.153639) scale(0.697382)"/>
      </g>
     </g>
    </g>
    <g id="ytick_3">
     <g id="line2d_17">
      <path d="M 52.282462 88.348862 
L 387.082462 88.348862 
" clip-path="url(#pf58f348840)" style="fill: none; stroke: #ffffff; stroke-linecap: round"/>
     </g>
     <g id="line2d_18"/>
     <g id="text_10">
      <!-- $\mathdefault{10^{0}}$ -->
      <g style="fill: #262626" transform="translate(25.419615 93.537725) scale(0.15 -0.15)">
       <use xlink:href="#CMR17-31" transform="scale(0.996264)"/>
       <use xlink:href="#CMR17-30" transform="translate(45.690477 0) scale(0.996264)"/>
       <use xlink:href="#CMR17-30" transform="translate(91.380954 36.153639) scale(0.697382)"/>
      </g>
     </g>
    </g>
    <g id="ytick_4">
     <g id="line2d_19">
      <path d="M 52.282462 46.768862 
L 387.082462 46.768862 
" clip-path="url(#pf58f348840)" style="fill: none; stroke: #ffffff; stroke-linecap: round"/>
     </g>
     <g id="line2d_20"/>
     <g id="text_11">
      <!-- $\mathdefault{10^{1}}$ -->
      <g style="fill: #262626" transform="translate(25.419615 51.957725) scale(0.15 -0.15)">
       <use xlink:href="#CMR17-31" transform="scale(0.996264)"/>
       <use xlink:href="#CMR17-30" transform="translate(45.690477 0) scale(0.996264)"/>
       <use xlink:href="#CMR17-31" transform="translate(91.380954 36.153639) scale(0.697382)"/>
      </g>
     </g>
    </g>
    <g id="ytick_5">
     <g id="line2d_21">
      <path d="M 52.282462 5.188862 
L 387.082462 5.188862 
" clip-path="url(#pf58f348840)" style="fill: none; stroke: #ffffff; stroke-linecap: round"/>
     </g>
     <g id="line2d_22"/>
     <g id="text_12">
      <!-- $\mathdefault{10^{2}}$ -->
      <g style="fill: #262626" transform="translate(25.419615 10.377725) scale(0.15 -0.15)">
       <use xlink:href="#CMR17-31" transform="scale(0.996264)"/>
       <use xlink:href="#CMR17-30" transform="translate(45.690477 0) scale(0.996264)"/>
       <use xlink:href="#CMR17-32" transform="translate(91.380954 36.153639) scale(0.697382)"/>
      </g>
     </g>
    </g>
    <g id="ytick_6">
     <g id="line2d_23"/>
    </g>
    <g id="ytick_7">
     <g id="line2d_24"/>
    </g>
    <g id="ytick_8">
     <g id="line2d_25"/>
    </g>
    <g id="ytick_9">
     <g id="line2d_26"/>
    </g>
    <g id="ytick_10">
     <g id="line2d_27"/>
    </g>
    <g id="ytick_11">
     <g id="line2d_28"/>
    </g>
    <g id="ytick_12">
     <g id="line2d_29"/>
    </g>
    <g id="ytick_13">
     <g id="line2d_30"/>
    </g>
    <g id="ytick_14">
     <g id="line2d_31"/>
    </g>
    <g id="ytick_15">
     <g id="line2d_32"/>
    </g>
    <g id="ytick_16">
     <g id="line2d_33"/>
    </g>
    <g id="ytick_17">
     <g id="line2d_34"/>
    </g>
    <g id="ytick_18">
     <g id="line2d_35"/>
    </g>
    <g id="ytick_19">
     <g id="line2d_36"/>
    </g>
    <g id="ytick_20">
     <g id="line2d_37"/>
    </g>
    <g id="ytick_21">
     <g id="line2d_38"/>
    </g>
    <g id="ytick_22">
     <g id="line2d_39"/>
    </g>
    <g id="ytick_23">
     <g id="line2d_40"/>
    </g>
    <g id="ytick_24">
     <g id="line2d_41"/>
    </g>
    <g id="ytick_25">
     <g id="line2d_42"/>
    </g>
    <g id="ytick_26">
     <g id="line2d_43"/>
    </g>
    <g id="ytick_27">
     <g id="line2d_44"/>
    </g>
    <g id="ytick_28">
     <g id="line2d_45"/>
    </g>
    <g id="ytick_29">
     <g id="line2d_46"/>
    </g>
    <g id="ytick_30">
     <g id="line2d_47"/>
    </g>
    <g id="ytick_31">
     <g id="line2d_48"/>
    </g>
    <g id="ytick_32">
     <g id="line2d_49"/>
    </g>
    <g id="ytick_33">
     <g id="line2d_50"/>
    </g>
    <g id="ytick_34">
     <g id="line2d_51"/>
    </g>
    <g id="ytick_35">
     <g id="line2d_52"/>
    </g>
    <g id="ytick_36">
     <g id="line2d_53"/>
    </g>
    <g id="ytick_37">
     <g id="line2d_54"/>
    </g>
    <g id="text_13">
     <!-- Density -->
     <g style="fill: #262626" transform="translate(10.377725 112.674048) rotate(-90) scale(0.15 -0.15)">
      <defs>
       <path id="CMR17-44" d="M 333 4352 
L 333 4186 
C 774 4186 845 4186 845 3900 
L 845 452 
C 845 166 774 166 333 166 
L 333 0 
L 2368 0 
C 3398 0 4224 943 4224 2141 
C 4224 3346 3411 4352 2368 4352 
L 333 4352 
z
M 1523 166 
C 1267 166 1254 197 1254 414 
L 1254 3938 
C 1254 4155 1267 4186 1523 4186 
L 2240 4186 
C 2771 4186 3750 3874 3750 2141 
C 3750 1242 3488 879 3366 707 
C 3213 510 2848 166 2240 166 
L 1523 166 
z
" transform="scale(0.015625)"/>
       <path id="CMR17-65" d="M 2438 1472 
C 2464 1498 2464 1511 2464 1576 
C 2464 2238 2118 2816 1389 2816 
C 710 2816 173 2169 173 1383 
C 173 551 781 -64 1459 -64 
C 2176 -64 2458 607 2458 740 
C 2458 784 2419 784 2406 784 
C 2362 784 2355 771 2330 696 
C 2189 265 1837 51 1504 51 
C 1229 51 954 203 781 480 
C 582 803 582 1176 582 1472 
L 2438 1472 
z
M 589 1568 
C 634 2505 1126 2714 1382 2714 
C 1818 2714 2112 2297 2118 1568 
L 589 1568 
z
" transform="scale(0.015625)"/>
       <path id="CMR17-6e" d="M 2656 1933 
C 2656 2259 2592 2790 1837 2790 
C 1331 2790 1069 2400 973 2144 
L 966 2144 
L 966 2790 
L 211 2720 
L 211 2554 
C 589 2554 646 2515 646 2208 
L 646 428 
C 646 184 621 153 211 153 
L 211 -13 
C 365 0 646 0 813 0 
C 979 0 1267 0 1421 -13 
L 1421 153 
C 1011 153 986 178 986 428 
L 986 1658 
C 986 2247 1344 2688 1792 2688 
C 2266 2688 2317 2266 2317 1958 
L 2317 428 
C 2317 184 2291 153 1882 153 
L 1882 -13 
C 2035 0 2317 0 2483 0 
C 2650 0 2938 0 3091 -13 
L 3091 153 
C 2682 153 2656 178 2656 428 
L 2656 1933 
z
" transform="scale(0.015625)"/>
       <path id="CMR17-73" d="M 1978 2697 
C 1978 2813 1971 2819 1933 2819 
C 1907 2819 1901 2813 1824 2717 
C 1805 2691 1747 2626 1728 2601 
C 1523 2819 1235 2819 1126 2819 
C 416 2819 160 2447 160 2076 
C 160 1498 813 1365 998 1325 
C 1402 1243 1542 1217 1677 1101 
C 1760 1025 1901 884 1901 654 
C 1901 384 1747 38 1158 38 
C 602 38 403 460 288 1021 
C 269 1110 269 1117 218 1117 
C 166 1117 160 1110 160 983 
L 160 63 
C 160 -51 166 -58 205 -58 
C 237 -58 243 -51 275 0 
C 314 57 410 211 448 276 
C 576 103 800 -64 1158 -64 
C 1792 -64 2131 283 2131 784 
C 2131 1112 1958 1285 1875 1362 
C 1683 1561 1459 1606 1190 1657 
C 838 1735 390 1825 390 2217 
C 390 2383 480 2737 1126 2737 
C 1811 2737 1850 2094 1862 1888 
C 1869 1856 1901 1849 1920 1849 
C 1978 1849 1978 1869 1978 1978 
L 1978 2697 
z
" transform="scale(0.015625)"/>
       <path id="CMR17-69" d="M 992 3909 
C 992 4049 877 4170 730 4170 
C 589 4170 467 4056 467 3909 
C 467 3769 582 3648 730 3648 
C 870 3648 992 3763 992 3909 
z
M 243 2706 
L 243 2541 
C 602 2541 653 2502 653 2197 
L 653 427 
C 653 184 627 153 218 153 
L 218 -13 
C 371 0 646 0 806 0 
C 960 0 1222 0 1370 -13 
L 1370 153 
C 992 153 979 191 979 420 
L 979 2776 
L 243 2706 
z
" transform="scale(0.015625)"/>
       <path id="CMR17-74" d="M 966 2560 
L 1862 2560 
L 1862 2725 
L 966 2725 
L 966 3904 
L 851 3904 
C 838 3245 614 2668 70 2668 
L 70 2560 
L 627 2560 
L 627 771 
C 627 650 627 -64 1370 -64 
C 1747 -64 1965 306 1965 777 
L 1965 1140 
L 1850 1140 
L 1850 783 
C 1850 344 1677 51 1408 51 
C 1222 51 966 178 966 758 
L 966 2560 
z
" transform="scale(0.015625)"/>
       <path id="CMR17-79" d="M 2496 2197 
C 2656 2586 2944 2586 3034 2586 
L 3034 2752 
C 2912 2752 2752 2752 2630 2752 
C 2496 2752 2285 2752 2157 2758 
L 2157 2592 
C 2400 2573 2406 2394 2406 2343 
C 2406 2280 2394 2248 2362 2171 
L 1664 449 
L 902 2306 
C 870 2382 870 2426 870 2433 
C 870 2573 1018 2586 1171 2586 
L 1171 2758 
C 1018 2752 742 2752 582 2752 
C 410 2752 205 2752 64 2758 
L 64 2586 
C 410 2586 448 2554 531 2350 
L 1485 15 
C 1197 -738 1030 -1178 627 -1178 
C 557 -1178 397 -1159 282 -1044 
C 429 -1031 493 -942 493 -833 
C 493 -725 416 -629 288 -629 
C 147 -629 77 -725 77 -840 
C 77 -1095 339 -1280 627 -1280 
C 998 -1280 1229 -922 1357 -604 
L 2496 2197 
z
" transform="scale(0.015625)"/>
      </defs>
      <use xlink:href="#CMR17-44" transform="scale(0.996264)"/>
      <use xlink:href="#CMR17-65" transform="translate(70.393556 0) scale(0.996264)"/>
      <use xlink:href="#CMR17-6e" transform="translate(110.879216 0) scale(0.996264)"/>
      <use xlink:href="#CMR17-73" transform="translate(161.774586 0) scale(0.996264)"/>
      <use xlink:href="#CMR17-69" transform="translate(197.575924 0) scale(0.996264)"/>
      <use xlink:href="#CMR17-74" transform="translate(222.446982 0) scale(0.996264)"/>
      <use xlink:href="#CMR17-79" transform="translate(255.125296 0) scale(0.996264)"/>
     </g>
    </g>
   </g>
   <g id="PolyCollection_1">
    <path d="M 66.779134 243.648979 
L 66.779134 41668.348862 
L 67.391973 41668.348862 
L 68.004812 41668.348862 
L 68.617651 41668.348862 
L 69.23049 41668.348862 
L 69.843329 41668.348862 
L 70.456168 41668.348862 
L 71.069007 41668.348862 
L 71.681846 41668.348862 
L 72.294685 41668.348862 
L 72.907524 41668.348862 
L 73.520363 41668.348862 
L 74.133202 41668.348862 
L 74.74604 41668.348862 
L 75.358879 41668.348862 
L 75.971718 41668.348862 
L 76.584557 41668.348862 
L 77.197396 41668.348862 
L 77.810235 41668.348862 
L 78.423074 41668.348862 
L 79.035913 41668.348862 
L 79.648752 41668.348862 
L 80.261591 41668.348862 
L 80.87443 41668.348862 
L 81.487269 41668.348862 
L 82.100108 41668.348862 
L 82.712947 41668.348862 
L 83.325786 41668.348862 
L 83.938625 41668.348862 
L 84.551464 41668.348862 
L 85.164303 41668.348862 
L 85.777142 41668.348862 
L 86.389981 41668.348862 
L 87.00282 41668.348862 
L 87.615659 41668.348862 
L 88.228498 41668.348862 
L 88.841337 41668.348862 
L 89.454176 41668.348862 
L 90.067015 41668.348862 
L 90.679854 41668.348862 
L 91.292693 41668.348862 
L 91.905532 41668.348862 
L 92.518371 41668.348862 
L 93.13121 41668.348862 
L 93.744049 41668.348862 
L 94.356888 41668.348862 
L 94.969727 41668.348862 
L 95.582566 41668.348862 
L 96.195405 41668.348862 
L 96.808244 41668.348862 
L 97.421083 41668.348862 
L 98.033922 41668.348862 
L 98.646761 41668.348862 
L 99.2596 41668.348862 
L 99.872439 41668.348862 
L 100.485278 41668.348862 
L 101.098117 41668.348862 
L 101.710956 41668.348862 
L 102.323795 41668.348862 
L 102.936634 41668.348862 
L 103.549473 41668.348862 
L 104.162312 41668.348862 
L 104.775151 41668.348862 
L 105.38799 41668.348862 
L 106.000829 41668.348862 
L 106.613668 41668.348862 
L 107.226507 41668.348862 
L 107.839346 41668.348862 
L 108.452185 41668.348862 
L 109.065024 41668.348862 
L 109.677863 41668.348862 
L 110.290702 41668.348862 
L 110.903541 41668.348862 
L 111.51638 41668.348862 
L 112.129219 41668.348862 
L 112.742058 41668.348862 
L 113.354897 41668.348862 
L 113.967736 41668.348862 
L 114.580575 41668.348862 
L 115.193414 41668.348862 
L 115.806253 41668.348862 
L 116.419092 41668.348862 
L 117.031931 41668.348862 
L 117.64477 41668.348862 
L 118.257609 41668.348862 
L 118.870448 41668.348862 
L 119.483287 41668.348862 
L 120.096126 41668.348862 
L 120.708965 41668.348862 
L 121.321804 41668.348862 
L 121.934643 41668.348862 
L 122.547482 41668.348862 
L 123.160321 41668.348862 
L 123.77316 41668.348862 
L 124.385999 41668.348862 
L 124.998838 41668.348862 
L 125.611677 41668.348862 
L 126.224516 41668.348862 
L 126.837355 41668.348862 
L 127.450194 41668.348862 
L 128.063033 41668.348862 
L 128.675872 41668.348862 
L 129.288711 41668.348862 
L 129.90155 41668.348862 
L 130.514389 41668.348862 
L 131.127228 41668.348862 
L 131.740067 41668.348862 
L 132.352906 41668.348862 
L 132.965745 41668.348862 
L 133.578584 41668.348862 
L 134.191423 41668.348862 
L 134.804262 41668.348862 
L 135.417101 41668.348862 
L 136.02994 41668.348862 
L 136.642779 41668.348862 
L 137.255618 41668.348862 
L 137.868457 41668.348862 
L 138.481296 41668.348862 
L 139.094135 41668.348862 
L 139.706974 41668.348862 
L 140.319813 41668.348862 
L 140.932652 41668.348862 
L 141.545491 41668.348862 
L 142.15833 41668.348862 
L 142.771169 41668.348862 
L 143.384007 41668.348862 
L 143.996846 41668.348862 
L 144.609685 41668.348862 
L 145.222524 41668.348862 
L 145.835363 41668.348862 
L 146.448202 41668.348862 
L 147.061041 41668.348862 
L 147.67388 41668.348862 
L 148.286719 41668.348862 
L 148.899558 41668.348862 
L 149.512397 41668.348862 
L 150.125236 41668.348862 
L 150.738075 41668.348862 
L 151.350914 41668.348862 
L 151.963753 41668.348862 
L 152.576592 41668.348862 
L 153.189431 41668.348862 
L 153.80227 41668.348862 
L 154.415109 41668.348862 
L 155.027948 41668.348862 
L 155.640787 41668.348862 
L 156.253626 41668.348862 
L 156.866465 41668.348862 
L 157.479304 41668.348862 
L 158.092143 41668.348862 
L 158.704982 41668.348862 
L 159.317821 41668.348862 
L 159.93066 41668.348862 
L 160.543499 41668.348862 
L 161.156338 41668.348862 
L 161.769177 41668.348862 
L 162.382016 41668.348862 
L 162.994855 41668.348862 
L 163.607694 41668.348862 
L 164.220533 41668.348862 
L 164.833372 41668.348862 
L 165.446211 41668.348862 
L 166.05905 41668.348862 
L 166.671889 41668.348862 
L 167.284728 41668.348862 
L 167.897567 41668.348862 
L 168.510406 41668.348862 
L 169.123245 41668.348862 
L 169.736084 41668.348862 
L 170.348923 41668.348862 
L 170.961762 41668.348862 
L 171.574601 41668.348862 
L 172.18744 41668.348862 
L 172.800279 41668.348862 
L 173.413118 41668.348862 
L 174.025957 41668.348862 
L 174.638796 41668.348862 
L 175.251635 41668.348862 
L 175.864474 41668.348862 
L 176.477313 41668.348862 
L 177.090152 41668.348862 
L 177.702991 41668.348862 
L 178.31583 41668.348862 
L 178.928669 41668.348862 
L 179.541508 41668.348862 
L 180.154347 41668.348862 
L 180.767186 41668.348862 
L 181.380025 41668.348862 
L 181.992864 41668.348862 
L 182.605703 41668.348862 
L 183.218542 41668.348862 
L 183.831381 41668.348862 
L 184.44422 41668.348862 
L 185.057059 41668.348862 
L 185.669898 41668.348862 
L 186.282737 41668.348862 
L 186.895576 41668.348862 
L 187.508415 41668.348862 
L 188.121254 41668.348862 
L 188.734093 41668.348862 
L 189.346932 41668.348862 
L 189.959771 41668.348862 
L 190.57261 41668.348862 
L 191.185449 41668.348862 
L 191.798288 41668.348862 
L 192.411127 41668.348862 
L 193.023966 41668.348862 
L 193.636805 41668.348862 
L 194.249644 41668.348862 
L 194.862483 41668.348862 
L 195.475322 41668.348862 
L 196.088161 41668.348862 
L 196.701 41668.348862 
L 197.313839 41668.348862 
L 197.926678 41668.348862 
L 198.539517 41668.348862 
L 199.152356 41668.348862 
L 199.765195 41668.348862 
L 200.378034 41668.348862 
L 200.990873 41668.348862 
L 201.603712 41668.348862 
L 202.216551 41668.348862 
L 202.82939 41668.348862 
L 203.442229 41668.348862 
L 204.055068 41668.348862 
L 204.667907 41668.348862 
L 205.280746 41668.348862 
L 205.893585 41668.348862 
L 206.506424 41668.348862 
L 207.119263 41668.348862 
L 207.732102 41668.348862 
L 208.344941 41668.348862 
L 208.95778 41668.348862 
L 209.570619 41668.348862 
L 210.183458 41668.348862 
L 210.796297 41668.348862 
L 211.409136 41668.348862 
L 212.021974 41668.348862 
L 212.634813 41668.348862 
L 213.247652 41668.348862 
L 213.860491 41668.348862 
L 214.47333 41668.348862 
L 215.086169 41668.348862 
L 215.699008 41668.348862 
L 216.311847 41668.348862 
L 216.924686 41668.348862 
L 217.537525 41668.348862 
L 218.150364 41668.348862 
L 218.763203 41668.348862 
L 219.376042 41668.348862 
L 219.988881 41668.348862 
L 220.60172 41668.348862 
L 221.214559 41668.348862 
L 221.827398 41668.348862 
L 222.440237 41668.348862 
L 223.053076 41668.348862 
L 223.665915 41668.348862 
L 224.278754 41668.348862 
L 224.891593 41668.348862 
L 225.504432 41668.348862 
L 226.117271 41668.348862 
L 226.73011 41668.348862 
L 227.342949 41668.348862 
L 227.955788 41668.348862 
L 228.568627 41668.348862 
L 229.181466 41668.348862 
L 229.794305 41668.348862 
L 230.407144 41668.348862 
L 231.019983 41668.348862 
L 231.632822 41668.348862 
L 232.245661 41668.348862 
L 232.8585 41668.348862 
L 233.471339 41668.348862 
L 234.084178 41668.348862 
L 234.697017 41668.348862 
L 235.309856 41668.348862 
L 235.922695 41668.348862 
L 236.535534 41668.348862 
L 237.148373 41668.348862 
L 237.761212 41668.348862 
L 238.374051 41668.348862 
L 238.98689 41668.348862 
L 239.599729 41668.348862 
L 240.212568 41668.348862 
L 240.825407 41668.348862 
L 241.438246 41668.348862 
L 242.051085 41668.348862 
L 242.663924 41668.348862 
L 243.276763 41668.348862 
L 243.889602 41668.348862 
L 244.502441 41668.348862 
L 245.11528 41668.348862 
L 245.728119 41668.348862 
L 246.340958 41668.348862 
L 246.953797 41668.348862 
L 247.566636 41668.348862 
L 248.179475 41668.348862 
L 248.792314 41668.348862 
L 249.405153 41668.348862 
L 250.017992 41668.348862 
L 250.630831 41668.348862 
L 251.24367 41668.348862 
L 251.856509 41668.348862 
L 252.469348 41668.348862 
L 253.082187 41668.348862 
L 253.695026 41668.348862 
L 254.307865 41668.348862 
L 254.920704 41668.348862 
L 255.533543 41668.348862 
L 256.146382 41668.348862 
L 256.759221 41668.348862 
L 257.37206 41668.348862 
L 257.984899 41668.348862 
L 258.597738 41668.348862 
L 259.210577 41668.348862 
L 259.823416 41668.348862 
L 260.436255 41668.348862 
L 261.049094 41668.348862 
L 261.661933 41668.348862 
L 262.274772 41668.348862 
L 262.887611 41668.348862 
L 263.50045 41668.348862 
L 264.113289 41668.348862 
L 264.726128 41668.348862 
L 265.338967 41668.348862 
L 265.951806 41668.348862 
L 266.564645 41668.348862 
L 267.177484 41668.348862 
L 267.790323 41668.348862 
L 268.403162 41668.348862 
L 269.016001 41668.348862 
L 269.62884 41668.348862 
L 270.241679 41668.348862 
L 270.854518 41668.348862 
L 271.467357 41668.348862 
L 272.080196 41668.348862 
L 272.693035 41668.348862 
L 273.305874 41668.348862 
L 273.918713 41668.348862 
L 274.531552 41668.348862 
L 275.144391 41668.348862 
L 275.75723 41668.348862 
L 276.370069 41668.348862 
L 276.982908 41668.348862 
L 277.595747 41668.348862 
L 278.208586 41668.348862 
L 278.821425 41668.348862 
L 279.434264 41668.348862 
L 280.047103 41668.348862 
L 280.659941 41668.348862 
L 281.27278 41668.348862 
L 281.885619 41668.348862 
L 282.498458 41668.348862 
L 283.111297 41668.348862 
L 283.724136 41668.348862 
L 284.336975 41668.348862 
L 284.949814 41668.348862 
L 285.562653 41668.348862 
L 286.175492 41668.348862 
L 286.788331 41668.348862 
L 287.40117 41668.348862 
L 288.014009 41668.348862 
L 288.626848 41668.348862 
L 289.239687 41668.348862 
L 289.852526 41668.348862 
L 290.465365 41668.348862 
L 291.078204 41668.348862 
L 291.691043 41668.348862 
L 292.303882 41668.348862 
L 292.916721 41668.348862 
L 293.52956 41668.348862 
L 294.142399 41668.348862 
L 294.755238 41668.348862 
L 295.368077 41668.348862 
L 295.980916 41668.348862 
L 296.593755 41668.348862 
L 297.206594 41668.348862 
L 297.819433 41668.348862 
L 298.432272 41668.348862 
L 299.045111 41668.348862 
L 299.65795 41668.348862 
L 300.270789 41668.348862 
L 300.883628 41668.348862 
L 301.496467 41668.348862 
L 302.109306 41668.348862 
L 302.722145 41668.348862 
L 303.334984 41668.348862 
L 303.947823 41668.348862 
L 304.560662 41668.348862 
L 305.173501 41668.348862 
L 305.78634 41668.348862 
L 306.399179 41668.348862 
L 307.012018 41668.348862 
L 307.624857 41668.348862 
L 308.237696 41668.348862 
L 308.850535 41668.348862 
L 309.463374 41668.348862 
L 310.076213 41668.348862 
L 310.689052 41668.348862 
L 311.301891 41668.348862 
L 311.91473 41668.348862 
L 312.527569 41668.348862 
L 313.140408 41668.348862 
L 313.753247 41668.348862 
L 314.366086 41668.348862 
L 314.978925 41668.348862 
L 315.591764 41668.348862 
L 316.204603 41668.348862 
L 316.817442 41668.348862 
L 317.430281 41668.348862 
L 318.04312 41668.348862 
L 318.655959 41668.348862 
L 319.268798 41668.348862 
L 319.881637 41668.348862 
L 320.494476 41668.348862 
L 321.107315 41668.348862 
L 321.720154 41668.348862 
L 322.332993 41668.348862 
L 322.945832 41668.348862 
L 323.558671 41668.348862 
L 324.17151 41668.348862 
L 324.784349 41668.348862 
L 325.397188 41668.348862 
L 326.010027 41668.348862 
L 326.622866 41668.348862 
L 327.235705 41668.348862 
L 327.848544 41668.348862 
L 328.461383 41668.348862 
L 329.074222 41668.348862 
L 329.687061 41668.348862 
L 330.2999 41668.348862 
L 330.912739 41668.348862 
L 331.525578 41668.348862 
L 332.138417 41668.348862 
L 332.751256 41668.348862 
L 333.364095 41668.348862 
L 333.976934 41668.348862 
L 334.589773 41668.348862 
L 335.202612 41668.348862 
L 335.815451 41668.348862 
L 336.42829 41668.348862 
L 337.041129 41668.348862 
L 337.653968 41668.348862 
L 338.266807 41668.348862 
L 338.879646 41668.348862 
L 339.492485 41668.348862 
L 340.105324 41668.348862 
L 340.718163 41668.348862 
L 341.331002 41668.348862 
L 341.943841 41668.348862 
L 342.55668 41668.348862 
L 343.169519 41668.348862 
L 343.782358 41668.348862 
L 344.395197 41668.348862 
L 345.008036 41668.348862 
L 345.620875 41668.348862 
L 346.233714 41668.348862 
L 346.846553 41668.348862 
L 347.459392 41668.348862 
L 348.072231 41668.348862 
L 348.68507 41668.348862 
L 349.297908 41668.348862 
L 349.910747 41668.348862 
L 350.523586 41668.348862 
L 351.136425 41668.348862 
L 351.749264 41668.348862 
L 352.362103 41668.348862 
L 352.974942 41668.348862 
L 353.587781 41668.348862 
L 354.20062 41668.348862 
L 354.813459 41668.348862 
L 355.426298 41668.348862 
L 356.039137 41668.348862 
L 356.651976 41668.348862 
L 357.264815 41668.348862 
L 357.877654 41668.348862 
L 358.490493 41668.348862 
L 359.103332 41668.348862 
L 359.716171 41668.348862 
L 360.32901 41668.348862 
L 360.941849 41668.348862 
L 361.554688 41668.348862 
L 362.167527 41668.348862 
L 362.780366 41668.348862 
L 363.393205 41668.348862 
L 364.006044 41668.348862 
L 364.618883 41668.348862 
L 365.231722 41668.348862 
L 365.844561 41668.348862 
L 366.4574 41668.348862 
L 367.070239 41668.348862 
L 367.683078 41668.348862 
L 368.295917 41668.348862 
L 368.908756 41668.348862 
L 369.521595 41668.348862 
L 370.134434 41668.348862 
L 370.747273 41668.348862 
L 371.360112 41668.348862 
L 371.972951 41668.348862 
L 372.58579 41668.348862 
L 372.58579 243.698175 
L 372.58579 243.698175 
L 371.972951 164.280756 
L 371.360112 201.951037 
L 370.747273 174.692309 
L 370.134434 179.709148 
L 369.521595 301.976981 
L 368.908756 541.496546 
L 368.295917 898.267842 
L 367.683078 1372.29087 
L 367.070239 1180.675916 
L 366.4574 750.650092 
L 365.844561 437.875956 
L 365.231722 242.346715 
L 364.618883 163.030282 
L 364.006044 160.783286 
L 363.393205 227.507626 
L 362.780366 189.120279 
L 362.167527 155.639507 
L 361.554688 160.456071 
L 360.941849 257.682684 
L 360.32901 423.360569 
L 359.716171 235.478664 
L 359.103332 161.805342 
L 358.490493 139.515897 
L 357.877654 174.213855 
L 357.264815 162.896493 
L 356.651976 161.470949 
L 356.039137 210.905986 
L 355.426298 251.986237 
L 354.813459 165.703526 
L 354.20062 196.649978 
L 353.587781 196.605914 
L 352.974942 147.989097 
L 352.362103 142.126745 
L 351.749264 157.357136 
L 351.136425 148.44918 
L 350.523586 167.240425 
L 349.910747 182.949616 
L 349.297908 157.989158 
L 348.68507 143.086702 
L 348.072231 158.877695 
L 347.459392 148.928611 
L 346.846553 224.33973 
L 346.233714 237.644088 
L 345.620875 163.209708 
L 345.008036 151.973356 
L 344.395197 141.932146 
L 343.782358 156.960889 
L 343.169519 145.349858 
L 342.55668 144.89606 
L 341.943841 168.436882 
L 341.331002 148.896441 
L 340.718163 128.474741 
L 340.105324 151.162215 
L 339.492485 145.533106 
L 338.879646 140.93936 
L 338.266807 155.628596 
L 337.653968 131.952536 
L 337.041129 139.718731 
L 336.42829 139.509643 
L 335.815451 136.793097 
L 335.202612 154.785407 
L 334.589773 142.951341 
L 333.976934 124.458436 
L 333.364095 125.033077 
L 332.751256 140.336571 
L 332.138417 158.815148 
L 331.525578 156.741776 
L 330.912739 141.875464 
L 330.2999 132.208644 
L 329.687061 117.512846 
L 329.074222 146.54308 
L 328.461383 146.704319 
L 327.848544 126.644507 
L 327.235705 124.880185 
L 326.622866 140.682502 
L 326.010027 134.341856 
L 325.397188 132.021414 
L 324.784349 134.835649 
L 324.17151 122.72293 
L 323.558671 119.92637 
L 322.945832 128.512593 
L 322.332993 146.821741 
L 321.720154 149.4171 
L 321.107315 138.270485 
L 320.494476 121.289236 
L 319.881637 150.659949 
L 319.268798 127.361948 
L 318.655959 135.220781 
L 318.04312 127.819839 
L 317.430281 124.886604 
L 316.817442 129.071639 
L 316.204603 117.764081 
L 315.591764 110.021973 
L 314.978925 119.159015 
L 314.366086 119.782401 
L 313.753247 148.857832 
L 313.140408 120.683329 
L 312.527569 125.170636 
L 311.91473 124.882544 
L 311.301891 119.650649 
L 310.689052 128.580514 
L 310.076213 120.21759 
L 309.463374 120.761355 
L 308.850535 115.205377 
L 308.237696 115.360623 
L 307.624857 133.378399 
L 307.012018 123.973365 
L 306.399179 113.314166 
L 305.78634 112.956728 
L 305.173501 119.099571 
L 304.560662 128.630393 
L 303.947823 118.350294 
L 303.334984 106.087082 
L 302.722145 114.93556 
L 302.109306 121.070668 
L 301.496467 116.760885 
L 300.883628 108.318559 
L 300.270789 110.401804 
L 299.65795 133.042352 
L 299.045111 118.724699 
L 298.432272 121.367285 
L 297.819433 117.462873 
L 297.206594 141.748897 
L 296.593755 122.075319 
L 295.980916 101.960723 
L 295.368077 111.452896 
L 294.755238 107.594789 
L 294.142399 117.539804 
L 293.52956 108.303342 
L 292.916721 101.755454 
L 292.303882 105.725583 
L 291.691043 116.119434 
L 291.078204 126.634821 
L 290.465365 114.804733 
L 289.852526 111.26608 
L 289.239687 103.571255 
L 288.626848 129.145656 
L 288.014009 117.599533 
L 287.40117 108.096789 
L 286.788331 92.821554 
L 286.175492 102.765939 
L 285.562653 111.783945 
L 284.949814 116.205521 
L 284.336975 94.909299 
L 283.724136 95.898206 
L 283.111297 104.821419 
L 282.498458 109.79662 
L 281.885619 116.713528 
L 281.27278 99.401494 
L 280.659941 98.995057 
L 280.047103 92.443705 
L 279.434264 100.468406 
L 278.821425 117.674919 
L 278.208586 93.277695 
L 277.595747 95.490619 
L 276.982908 90.852889 
L 276.370069 107.915232 
L 275.75723 112.497107 
L 275.144391 107.883779 
L 274.531552 103.169201 
L 273.918713 99.305118 
L 273.305874 103.025424 
L 272.693035 111.398323 
L 272.080196 99.332021 
L 271.467357 88.231972 
L 270.854518 86.39247 
L 270.241679 103.257164 
L 269.62884 94.815795 
L 269.016001 94.178333 
L 268.403162 97.035186 
L 267.790323 106.728596 
L 267.177484 107.677283 
L 266.564645 93.678111 
L 265.951806 99.685771 
L 265.338967 100.489098 
L 264.726128 109.603538 
L 264.113289 89.870735 
L 263.50045 85.982428 
L 262.887611 95.052851 
L 262.274772 92.976024 
L 261.661933 103.191886 
L 261.049094 89.770676 
L 260.436255 89.985031 
L 259.823416 96.126548 
L 259.210577 106.325934 
L 258.597738 99.084784 
L 257.984899 94.103283 
L 257.37206 95.518375 
L 256.759221 109.314971 
L 256.146382 98.224869 
L 255.533543 82.292339 
L 254.920704 84.024375 
L 254.307865 100.891023 
L 253.695026 85.876436 
L 253.082187 84.423803 
L 252.469348 87.845817 
L 251.856509 102.277576 
L 251.24367 102.017336 
L 250.630831 93.155635 
L 250.017992 92.715173 
L 249.405153 96.981785 
L 248.792314 95.405704 
L 248.179475 94.553388 
L 247.566636 85.65888 
L 246.953797 79.921846 
L 246.340958 81.837292 
L 245.728119 83.177281 
L 245.11528 89.390023 
L 244.502441 87.413602 
L 243.889602 89.61886 
L 243.276763 94.930742 
L 242.663924 92.997332 
L 242.051085 97.054788 
L 241.438246 87.877484 
L 240.825407 101.09889 
L 240.212568 104.168837 
L 239.599729 88.286041 
L 238.98689 78.864505 
L 238.374051 89.57696 
L 237.761212 87.333338 
L 237.148373 82.413003 
L 236.535534 78.133166 
L 235.922695 77.876082 
L 235.309856 89.498109 
L 234.697017 90.650069 
L 234.084178 90.76074 
L 233.471339 92.628722 
L 232.8585 98.215478 
L 232.245661 104.431083 
L 231.632822 93.62148 
L 231.019983 87.446071 
L 230.407144 88.580234 
L 229.794305 92.528704 
L 229.181466 84.586073 
L 228.568627 79.53206 
L 227.955788 80.14969 
L 227.342949 78.823513 
L 226.73011 79.033836 
L 226.117271 83.367581 
L 225.504432 86.848668 
L 224.891593 86.240957 
L 224.278754 92.397089 
L 223.665915 93.568141 
L 223.053076 97.974354 
L 222.440237 95.013151 
L 221.827398 91.446781 
L 221.214559 88.113327 
L 220.60172 85.160712 
L 219.988881 73.797909 
L 219.376042 73.948577 
L 218.763203 74.79044 
L 218.150364 75.20706 
L 217.537525 75.686291 
L 216.924686 80.780348 
L 216.311847 87.077092 
L 215.699008 85.698083 
L 215.086169 87.152014 
L 214.47333 96.140657 
L 213.860491 95.970216 
L 213.247652 93.339906 
L 212.634813 89.171163 
L 212.021974 93.644304 
L 211.409136 85.801669 
L 210.796297 75.738451 
L 210.183458 77.681058 
L 209.570619 79.325454 
L 208.95778 75.137113 
L 208.344941 74.709015 
L 207.732102 85.026527 
L 207.119263 81.697112 
L 206.506424 80.92727 
L 205.893585 86.002712 
L 205.280746 91.272733 
L 204.667907 89.252428 
L 204.055068 92.421246 
L 203.442229 98.522741 
L 202.82939 92.840287 
L 202.216551 85.987192 
L 201.603712 79.180199 
L 200.990873 82.121407 
L 200.378034 72.499243 
L 199.765195 73.484152 
L 199.152356 71.028725 
L 198.539517 70.335854 
L 197.926678 71.639712 
L 197.313839 78.528699 
L 196.701 81.699861 
L 196.088161 87.560263 
L 195.475322 92.337126 
L 194.862483 100.238021 
L 194.249644 92.087105 
L 193.636805 93.734908 
L 193.023966 88.425783 
L 192.411127 78.59308 
L 191.798288 75.866803 
L 191.185449 72.587697 
L 190.57261 72.077789 
L 189.959771 69.423347 
L 189.346932 74.019838 
L 188.734093 76.846434 
L 188.121254 77.575807 
L 187.508415 84.637158 
L 186.895576 88.998348 
L 186.282737 93.907406 
L 185.669898 96.714981 
L 185.057059 100.595507 
L 184.44422 97.079488 
L 183.831381 86.461982 
L 183.218542 84.810944 
L 182.605703 80.197849 
L 181.992864 74.338545 
L 181.380025 70.817837 
L 180.767186 73.221158 
L 180.154347 77.293488 
L 179.541508 74.023575 
L 178.928669 74.115011 
L 178.31583 83.385421 
L 177.702991 86.475314 
L 177.090152 92.503836 
L 176.477313 92.16472 
L 175.864474 100.97994 
L 175.251635 99.123101 
L 174.638796 92.095134 
L 174.025957 88.772299 
L 173.413118 78.949458 
L 172.800279 80.239226 
L 172.18744 74.26631 
L 171.574601 73.497044 
L 170.961762 72.268101 
L 170.348923 69.398346 
L 169.736084 75.246195 
L 169.123245 74.670849 
L 168.510406 81.405724 
L 167.897567 81.286891 
L 167.284728 91.652354 
L 166.671889 99.341489 
L 166.05905 97.454041 
L 165.446211 91.828982 
L 164.833372 83.671411 
L 164.220533 76.026045 
L 163.607694 71.073226 
L 162.994855 69.130168 
L 162.382016 71.605119 
L 161.769177 67.534073 
L 161.156338 76.504735 
L 160.543499 86.240568 
L 159.93066 82.487885 
L 159.317821 90.539095 
L 158.704982 98.355086 
L 158.092143 96.662219 
L 157.479304 93.630939 
L 156.866465 86.307108 
L 156.253626 89.892073 
L 155.640787 77.390108 
L 155.027948 70.437522 
L 154.415109 73.063684 
L 153.80227 67.632161 
L 153.189431 69.958555 
L 152.576592 78.098781 
L 151.963753 73.919598 
L 151.350914 87.843078 
L 150.738075 94.304135 
L 150.125236 96.933332 
L 149.512397 107.432293 
L 148.899558 110.567907 
L 148.286719 109.267009 
L 147.67388 95.305773 
L 147.061041 90.273506 
L 146.448202 81.707171 
L 145.835363 73.226411 
L 145.222524 67.390254 
L 144.609685 70.354179 
L 143.996846 75.008581 
L 143.384007 74.470389 
L 142.771169 77.84632 
L 142.15833 79.339292 
L 141.545491 89.85853 
L 140.932652 98.85576 
L 140.319813 106.954488 
L 139.706974 111.89555 
L 139.094135 115.03368 
L 138.481296 100.13297 
L 137.868457 112.145145 
L 137.255618 88.922833 
L 136.642779 80.409481 
L 136.02994 90.968385 
L 135.417101 71.957141 
L 134.804262 65.520465 
L 134.191423 78.702039 
L 133.578584 70.559655 
L 132.965745 73.167064 
L 132.352906 74.862099 
L 131.740067 76.680802 
L 131.127228 95.996232 
L 130.514389 103.200396 
L 129.90155 116.503156 
L 129.288711 116.265527 
L 128.675872 121.113515 
L 128.063033 99.845798 
L 127.450194 93.427129 
L 126.837355 89.041559 
L 126.224516 81.042524 
L 125.611677 66.029267 
L 124.998838 77.619722 
L 124.385999 70.184832 
L 123.77316 62.953028 
L 123.160321 84.084551 
L 122.547482 77.565152 
L 121.934643 77.298745 
L 121.321804 93.812036 
L 120.708965 93.29563 
L 120.096126 99.787543 
L 119.483287 111.383411 
L 118.870448 119.351641 
L 118.257609 96.307933 
L 117.64477 89.103212 
L 117.031931 80.462186 
L 116.419092 72.477439 
L 115.806253 71.332039 
L 115.193414 79.544154 
L 114.580575 63.958971 
L 113.967736 67.180433 
L 113.354897 82.60893 
L 112.742058 72.20037 
L 112.129219 80.596738 
L 111.51638 95.485415 
L 110.903541 104.381343 
L 110.290702 112.335616 
L 109.677863 122.140854 
L 109.065024 119.016347 
L 108.452185 93.825577 
L 107.839346 87.488362 
L 107.226507 82.936113 
L 106.613668 74.804274 
L 106.000829 65.725075 
L 105.38799 74.228639 
L 104.775151 72.405413 
L 104.162312 65.281141 
L 103.549473 81.111272 
L 102.936634 86.455991 
L 102.323795 86.355281 
L 101.710956 102.961099 
L 101.098117 122.234582 
L 100.485278 108.163108 
L 99.872439 101.529028 
L 99.2596 107.052666 
L 98.646761 68.72691 
L 98.033922 80.033518 
L 97.421083 76.466129 
L 96.808244 59.395419 
L 96.195405 69.296458 
L 95.582566 69.558073 
L 94.969727 73.525553 
L 94.356888 94.449054 
L 93.744049 126.576801 
L 93.13121 122.122228 
L 92.518371 100.866453 
L 91.905532 114.834075 
L 91.292693 63.530429 
L 90.679854 59.226966 
L 90.067015 76.043026 
L 89.454176 56.05507 
L 88.841337 73.764368 
L 88.228498 83.281221 
L 87.615659 83.908921 
L 87.00282 109.269649 
L 86.389981 138.559269 
L 85.777142 133.447904 
L 85.164303 89.6292 
L 84.551464 112.189199 
L 83.938625 71.06414 
L 83.325786 62.272446 
L 82.712947 59.184948 
L 82.100108 49.757543 
L 81.487269 71.858044 
L 80.87443 82.508733 
L 80.261591 100.940514 
L 79.648752 136.712957 
L 79.035913 145.89742 
L 78.423074 183.845508 
L 77.810235 143.342872 
L 77.197396 98.506731 
L 76.584557 56.263814 
L 75.971718 83.129982 
L 75.358879 47.511918 
L 74.74604 61.43567 
L 74.133202 82.337906 
L 73.520363 102.681597 
L 72.907524 117.746572 
L 72.294685 121.8675 
L 71.681846 137.162269 
L 71.069007 89.994909 
L 70.456168 60.290845 
L 69.843329 65.979166 
L 69.23049 83.644792 
L 68.617651 113.853999 
L 68.004812 129.265142 
L 67.391973 160.614716 
L 66.779134 243.648979 
z
" clip-path="url(#pf58f348840)" style="fill: #4c72b0; fill-opacity: 0.25; stroke: #4c72b0; stroke-width: 0.3"/>
   </g>
   <g id="patch_3">
    <path d="M 52.282462 171.508862 
L 52.282462 5.188862 
" style="fill: none"/>
   </g>
   <g id="patch_4">
    <path d="M 387.082462 171.508862 
L 387.082462 5.188862 
" style="fill: none"/>
   </g>
   <g id="patch_5">
    <path d="M 52.282462 171.508862 
L 387.082462 171.508862 
" style="fill: none"/>
   </g>
   <g id="patch_6">
    <path d="M 52.282462 5.188862 
L 387.082462 5.188862 
" style="fill: none"/>
   </g>
   <g id="text_14">
    <!-- 0 -->
    <g transform="translate(70.116787 59.506483) scale(0.1 -0.1)">
     <use xlink:href="#CMR17-30" transform="scale(0.996264)"/>
    </g>
   </g>
   <g id="text_15">
    <!-- 1 -->
    <g transform="translate(75.483796 52.040014) scale(0.1 -0.1)">
     <use xlink:href="#CMR17-31" transform="scale(0.996264)"/>
    </g>
   </g>
   <g id="text_16">
    <!-- 2 -->
    <g transform="translate(82.581991 53.103618) scale(0.1 -0.1)">
     <use xlink:href="#CMR17-32" transform="scale(0.996264)"/>
    </g>
   </g>
   <g id="text_17">
    <!-- 3 -->
    <g transform="translate(89.914912 57.371829) scale(0.1 -0.1)">
     <defs>
      <path id="CMR17-33" d="M 1414 2157 
C 1984 2157 2234 1662 2234 1090 
C 2234 320 1824 25 1453 25 
C 1114 25 563 194 390 693 
C 422 680 454 680 486 680 
C 640 680 755 782 755 948 
C 755 1133 614 1216 486 1216 
C 378 1216 211 1165 211 926 
C 211 335 787 -128 1466 -128 
C 2176 -128 2720 430 2720 1085 
C 2720 1707 2208 2157 1600 2227 
C 2086 2328 2554 2756 2554 3329 
C 2554 3820 2048 4179 1472 4179 
C 890 4179 378 3829 378 3329 
C 378 3110 544 3072 627 3072 
C 762 3072 877 3155 877 3321 
C 877 3486 762 3569 627 3569 
C 602 3569 570 3569 544 3557 
C 730 3959 1235 4032 1459 4032 
C 1683 4032 2106 3925 2106 3320 
C 2106 3143 2080 2828 1862 2550 
C 1670 2304 1453 2304 1242 2284 
C 1210 2284 1062 2269 1037 2269 
C 992 2263 966 2257 966 2208 
C 966 2163 973 2157 1101 2157 
L 1414 2157 
z
" transform="scale(0.015625)"/>
     </defs>
     <use xlink:href="#CMR17-33" transform="scale(0.996264)"/>
    </g>
   </g>
   <g id="text_18">
    <!-- 4 -->
    <g transform="translate(96.801358 60.553872) scale(0.1 -0.1)">
     <use xlink:href="#CMR17-34" transform="scale(0.996264)"/>
    </g>
   </g>
   <g id="text_19">
    <!-- 5 -->
    <g transform="translate(105.180443 63.506779) scale(0.1 -0.1)">
     <defs>
      <path id="CMR17-35" d="M 730 3692 
C 794 3666 1056 3584 1325 3584 
C 1920 3584 2246 3911 2432 4100 
C 2432 4157 2432 4192 2394 4192 
C 2387 4192 2374 4192 2323 4163 
C 2099 4058 1837 3973 1517 3973 
C 1325 3973 1037 3999 723 4139 
C 653 4171 640 4171 634 4171 
C 602 4171 595 4164 595 4037 
L 595 2203 
C 595 2089 595 2057 659 2057 
C 691 2057 704 2070 736 2114 
C 941 2401 1222 2522 1542 2522 
C 1766 2522 2246 2382 2246 1289 
C 2246 1085 2246 715 2054 421 
C 1894 159 1645 25 1370 25 
C 947 25 518 320 403 814 
C 429 807 480 795 506 795 
C 589 795 749 840 749 1038 
C 749 1210 627 1280 506 1280 
C 358 1280 262 1190 262 1011 
C 262 454 704 -128 1382 -128 
C 2042 -128 2669 440 2669 1264 
C 2669 2030 2170 2624 1549 2624 
C 1222 2624 947 2503 730 2274 
L 730 3692 
z
" transform="scale(0.015625)"/>
     </defs>
     <use xlink:href="#CMR17-35" transform="scale(0.996264)"/>
    </g>
   </g>
   <g id="text_20">
    <!-- 6 -->
    <g transform="translate(114.688944 63.198277) scale(0.1 -0.1)">
     <use xlink:href="#CMR17-36" transform="scale(0.996264)"/>
    </g>
   </g>
   <g id="text_21">
    <!-- 7 -->
    <g transform="translate(124.199861 63.99159) scale(0.1 -0.1)">
     <defs>
      <path id="CMR17-37" d="M 2886 3941 
L 2886 4081 
L 1382 4081 
C 634 4081 621 4165 595 4288 
L 480 4288 
L 294 3094 
L 410 3094 
C 429 3215 474 3540 550 3661 
C 589 3712 1062 3712 1171 3712 
L 2579 3712 
L 1869 2661 
C 1395 1954 1069 999 1069 165 
C 1069 89 1069 -128 1299 -128 
C 1530 -128 1530 89 1530 171 
L 1530 465 
C 1530 1508 1709 2196 2003 2636 
L 2886 3941 
z
" transform="scale(0.015625)"/>
     </defs>
     <use xlink:href="#CMR17-37" transform="scale(0.996264)"/>
    </g>
   </g>
   <g id="text_22">
    <!-- 8 -->
    <g transform="translate(134.166621 64.501427) scale(0.1 -0.1)">
     <use xlink:href="#CMR17-38" transform="scale(0.996264)"/>
    </g>
   </g>
   <g id="text_23">
    <!-- 9 -->
    <g transform="translate(144.368457 64.752383) scale(0.1 -0.1)">
     <defs>
      <path id="CMR17-39" d="M 2253 1864 
C 2253 464 1670 31 1190 31 
C 1043 31 685 31 538 294 
C 704 268 826 357 826 518 
C 826 692 685 749 595 749 
C 538 749 365 723 365 506 
C 365 71 742 -128 1203 -128 
C 1939 -128 2688 674 2688 2073 
C 2688 3817 1971 4179 1485 4179 
C 851 4179 243 3628 243 2778 
C 243 1991 762 1408 1414 1408 
C 1952 1408 2189 1903 2253 2112 
L 2253 1864 
z
M 1427 1510 
C 1254 1510 1011 1542 813 1922 
C 678 2169 678 2461 678 2771 
C 678 3146 678 3405 858 3684 
C 947 3817 1114 4032 1485 4032 
C 2240 4032 2240 2885 2240 2632 
C 2240 2182 2035 1510 1427 1510 
z
" transform="scale(0.015625)"/>
     </defs>
     <use xlink:href="#CMR17-39" transform="scale(0.996264)"/>
    </g>
   </g>
   <g id="text_24">
    <!-- 10 -->
    <g transform="translate(153.909499 64.479375) scale(0.1 -0.1)">
     <use xlink:href="#CMR17-31" transform="scale(0.996264)"/>
     <use xlink:href="#CMR17-30" transform="translate(45.690477 0) scale(0.996264)"/>
    </g>
   </g>
   <g id="text_25">
    <!-- 11 -->
    <g transform="translate(162.444151 64.064695) scale(0.1 -0.1)">
     <use xlink:href="#CMR17-31" transform="scale(0.996264)"/>
     <use xlink:href="#CMR17-31" transform="translate(45.690477 0) scale(0.996264)"/>
    </g>
   </g>
   <g id="text_26">
    <!-- 12 -->
    <g transform="translate(170.846965 65.240903) scale(0.1 -0.1)">
     <use xlink:href="#CMR17-31" transform="scale(0.996264)"/>
     <use xlink:href="#CMR17-32" transform="translate(45.690477 0) scale(0.996264)"/>
    </g>
   </g>
   <g id="text_27">
    <!-- 13 -->
    <g transform="translate(180.593556 66.384382) scale(0.1 -0.1)">
     <use xlink:href="#CMR17-31" transform="scale(0.996264)"/>
     <use xlink:href="#CMR17-33" transform="translate(45.690477 0) scale(0.996264)"/>
    </g>
   </g>
   <g id="text_28">
    <!-- 14 -->
    <g transform="translate(190.136987 65.399085) scale(0.1 -0.1)">
     <use xlink:href="#CMR17-31" transform="scale(0.996264)"/>
     <use xlink:href="#CMR17-34" transform="translate(45.690477 0) scale(0.996264)"/>
    </g>
   </g>
   <g id="text_29">
    <!-- 15 -->
    <g transform="translate(199.150705 65.315491) scale(0.1 -0.1)">
     <use xlink:href="#CMR17-31" transform="scale(0.996264)"/>
     <use xlink:href="#CMR17-35" transform="translate(45.690477 0) scale(0.996264)"/>
    </g>
   </g>
   <g id="text_30">
    <!-- 16 -->
    <g transform="translate(208.839461 68.998514) scale(0.1 -0.1)">
     <use xlink:href="#CMR17-31" transform="scale(0.996264)"/>
     <use xlink:href="#CMR17-36" transform="translate(45.690477 0) scale(0.996264)"/>
    </g>
   </g>
   <g id="text_31">
    <!-- 17 -->
    <g transform="translate(218.489671 67.861179) scale(0.1 -0.1)">
     <use xlink:href="#CMR17-31" transform="scale(0.996264)"/>
     <use xlink:href="#CMR17-37" transform="translate(45.690477 0) scale(0.996264)"/>
    </g>
   </g>
   <g id="text_32">
    <!-- 18 -->
    <g transform="translate(227.582902 70.95881) scale(0.1 -0.1)">
     <use xlink:href="#CMR17-31" transform="scale(0.996264)"/>
     <use xlink:href="#CMR17-38" transform="translate(45.690477 0) scale(0.996264)"/>
    </g>
   </g>
   <g id="text_33">
    <!-- 19 -->
    <g transform="translate(236.950299 72.033508) scale(0.1 -0.1)">
     <use xlink:href="#CMR17-31" transform="scale(0.996264)"/>
     <use xlink:href="#CMR17-39" transform="translate(45.690477 0) scale(0.996264)"/>
    </g>
   </g>
   <g id="text_34">
    <!-- 20 -->
    <g transform="translate(245.894465 73.46111) scale(0.1 -0.1)">
     <use xlink:href="#CMR17-32" transform="scale(0.996264)"/>
     <use xlink:href="#CMR17-30" transform="translate(45.690477 0) scale(0.996264)"/>
    </g>
   </g>
   <g id="text_35">
    <!-- 21 -->
    <g transform="translate(254.181457 75.579156) scale(0.1 -0.1)">
     <use xlink:href="#CMR17-32" transform="scale(0.996264)"/>
     <use xlink:href="#CMR17-31" transform="translate(45.690477 0) scale(0.996264)"/>
    </g>
   </g>
   <g id="text_36">
    <!-- 22 -->
    <g transform="translate(262.451577 77.375022) scale(0.1 -0.1)">
     <use xlink:href="#CMR17-32" transform="scale(0.996264)"/>
     <use xlink:href="#CMR17-32" transform="translate(45.690477 0) scale(0.996264)"/>
    </g>
   </g>
   <g id="text_37">
    <!-- 23 -->
    <g transform="translate(270.550994 78.211053) scale(0.1 -0.1)">
     <use xlink:href="#CMR17-32" transform="scale(0.996264)"/>
     <use xlink:href="#CMR17-33" transform="translate(45.690477 0) scale(0.996264)"/>
    </g>
   </g>
   <g id="text_38">
    <!-- 24 -->
    <g transform="translate(278.458122 79.518504) scale(0.1 -0.1)">
     <use xlink:href="#CMR17-32" transform="scale(0.996264)"/>
     <use xlink:href="#CMR17-34" transform="translate(45.690477 0) scale(0.996264)"/>
    </g>
   </g>
   <g id="text_39">
    <!-- 25 -->
    <g transform="translate(285.402746 81.170668) scale(0.1 -0.1)">
     <use xlink:href="#CMR17-32" transform="scale(0.996264)"/>
     <use xlink:href="#CMR17-35" transform="translate(45.690477 0) scale(0.996264)"/>
    </g>
   </g>
   <g id="text_40">
    <!-- 26 -->
    <g transform="translate(293.556127 82.985262) scale(0.1 -0.1)">
     <use xlink:href="#CMR17-32" transform="scale(0.996264)"/>
     <use xlink:href="#CMR17-36" transform="translate(45.690477 0) scale(0.996264)"/>
    </g>
   </g>
   <g id="text_41">
    <!-- 27 -->
    <g transform="translate(303.041062 84.395832) scale(0.1 -0.1)">
     <use xlink:href="#CMR17-32" transform="scale(0.996264)"/>
     <use xlink:href="#CMR17-37" transform="translate(45.690477 0) scale(0.996264)"/>
    </g>
   </g>
   <g id="text_42">
    <!-- 28 -->
    <g transform="translate(313.526522 85.498113) scale(0.1 -0.1)">
     <use xlink:href="#CMR17-32" transform="scale(0.996264)"/>
     <use xlink:href="#CMR17-38" transform="translate(45.690477 0) scale(0.996264)"/>
    </g>
   </g>
   <g id="text_43">
    <!-- 29 -->
    <g transform="translate(325.573968 86.652786) scale(0.1 -0.1)">
     <use xlink:href="#CMR17-32" transform="scale(0.996264)"/>
     <use xlink:href="#CMR17-39" transform="translate(45.690477 0) scale(0.996264)"/>
    </g>
   </g>
   <g id="text_44">
    <!-- 30 -->
    <g transform="translate(336.601066 87.261216) scale(0.1 -0.1)">
     <use xlink:href="#CMR17-33" transform="scale(0.996264)"/>
     <use xlink:href="#CMR17-30" transform="translate(45.690477 0) scale(0.996264)"/>
    </g>
   </g>
   <g id="text_45">
    <!-- 31+ -->
    <g transform="translate(352.816538 87.722245) scale(0.1 -0.1)">
     <defs>
      <path id="CMR17-2b" d="M 2413 1472 
L 4109 1472 
C 4198 1472 4307 1472 4307 1580 
C 4307 1695 4205 1695 4109 1695 
L 2413 1695 
L 2413 3386 
C 2413 3475 2413 3584 2304 3584 
C 2189 3584 2189 3482 2189 3386 
L 2189 1695 
L 493 1695 
C 403 1695 294 1695 294 1587 
C 294 1472 397 1472 493 1472 
L 2189 1472 
L 2189 -218 
C 2189 -307 2189 -416 2298 -416 
C 2413 -416 2413 -314 2413 -218 
L 2413 1472 
z
" transform="scale(0.015625)"/>
     </defs>
     <use xlink:href="#CMR17-33" transform="scale(0.996264)"/>
     <use xlink:href="#CMR17-31" transform="translate(45.690477 0) scale(0.996264)"/>
     <use xlink:href="#CMR17-2b" transform="translate(91.380954 0) scale(0.996264)"/>
    </g>
   </g>
   <g id="text_46">
    <!-- ISO 1D -->
    <g style="fill: #262626" transform="translate(306.966812 22.007411) scale(0.15 -0.15)">
     <defs>
      <path id="CMR17-49" d="M 1261 3905 
C 1261 4192 1338 4192 1798 4192 
L 1798 4352 
C 1594 4352 1267 4352 1050 4352 
C 832 4352 506 4352 301 4352 
L 301 4192 
C 762 4192 838 4192 838 3905 
L 838 447 
C 838 160 762 160 301 160 
L 301 0 
C 506 0 832 0 1050 0 
C 1267 0 1594 0 1798 0 
L 1798 160 
C 1338 160 1261 160 1261 447 
L 1261 3905 
z
" transform="scale(0.015625)"/>
      <path id="CMR17-53" d="M 2803 4290 
C 2803 4404 2797 4411 2758 4411 
C 2720 4411 2707 4385 2682 4328 
L 2490 3907 
C 2246 4257 1875 4416 1472 4416 
C 819 4416 294 3901 294 3253 
C 294 3056 339 2776 557 2510 
C 794 2218 1018 2167 1530 2033 
C 1722 1982 2042 1899 2106 1874 
C 2470 1722 2662 1341 2662 985 
C 2662 527 2336 38 1779 38 
C 1094 38 454 419 410 1311 
C 403 1413 397 1419 352 1419 
C 301 1419 294 1413 294 1285 
L 294 -1 
C 294 -115 301 -122 339 -122 
C 384 -122 397 -90 486 108 
C 493 127 493 140 614 381 
C 934 -39 1472 -128 1779 -128 
C 2477 -128 2970 451 2970 1124 
C 2970 1454 2848 1708 2778 1823 
C 2509 2230 2221 2306 1914 2382 
C 1869 2402 1856 2402 1498 2490 
C 1152 2579 1005 2624 845 2796 
C 666 2992 602 3196 602 3399 
C 602 3812 934 4263 1478 4263 
C 2157 4263 2579 3786 2675 2993 
C 2694 2878 2701 2872 2746 2872 
C 2803 2872 2803 2891 2803 2999 
L 2803 4290 
z
" transform="scale(0.015625)"/>
      <path id="CMR17-4f" d="M 4307 2135 
C 4307 3437 3366 4416 2304 4416 
C 1216 4416 294 3424 294 2135 
C 294 845 1229 -128 2298 -128 
C 3392 -128 4307 864 4307 2135 
z
M 2304 -13 
C 1574 -13 781 711 781 2217 
C 781 3716 1651 4301 2298 4301 
C 2976 4301 3821 3698 3821 2217 
C 3821 686 3008 -13 2304 -13 
z
" transform="scale(0.015625)"/>
     </defs>
     <use xlink:href="#CMR17-49" transform="scale(0.996264)"/>
     <use xlink:href="#CMR17-53" transform="translate(32.638409 0) scale(0.996264)"/>
     <use xlink:href="#CMR17-4f" transform="translate(83.533779 0) scale(0.996264)"/>
     <use xlink:href="#CMR17-31" transform="translate(185.324534 0) scale(0.996264)"/>
     <use xlink:href="#CMR17-44" transform="translate(231.015011 0) scale(0.996264)"/>
    </g>
   </g>
  </g>
 </g>
 <defs>
  <clipPath id="pf58f348840">
   <rect x="52.282462" y="5.188862" width="334.8" height="166.32"/>
  </clipPath>
 </defs>
</svg>
