<?xml version="1.0" encoding="utf-8" standalone="no"?>
<!DOCTYPE svg PUBLIC "-//W3C//DTD SVG 1.1//EN"
  "http://www.w3.org/Graphics/SVG/1.1/DTD/svg11.dtd">
<svg xmlns:xlink="http://www.w3.org/1999/xlink" width="387.082462pt" height="209.075801pt" viewBox="0 0 387.082462 209.075801" xmlns="http://www.w3.org/2000/svg" version="1.1">
 <metadata>
  <rdf:RDF xmlns:dc="http://purl.org/dc/elements/1.1/" xmlns:cc="http://creativecommons.org/ns#" xmlns:rdf="http://www.w3.org/1999/02/22-rdf-syntax-ns#">
   <cc:Work>
    <dc:type rdf:resource="http://purl.org/dc/dcmitype/StillImage"/>
    <dc:date>2024-10-10T14:45:21.749958</dc:date>
    <dc:format>image/svg+xml</dc:format>
    <dc:creator>
     <cc:Agent>
      <dc:title>Matplotlib v3.9.2, https://matplotlib.org/</dc:title>
     </cc:Agent>
    </dc:creator>
   </cc:Work>
  </rdf:RDF>
 </metadata>
 <defs>
  <style type="text/css">*{stroke-linejoin: round; stroke-linecap: butt}</style>
 </defs>
 <g id="figure_1">
  <g id="patch_1">
   <path d="M 0 209.075801 
L 387.082462 209.075801 
L 387.082462 0 
L 0 0 
z
" style="fill: #ffffff"/>
  </g>
  <g id="axes_1">
   <g id="patch_2">
    <path d="M 52.282462 171.508862 
L 387.082462 171.508862 
L 387.082462 5.188862 
L 52.282462 5.188862 
z
" style="fill: #eaeaf2"/>
   </g>
   <g id="matplotlib.axis_1">
    <g id="xtick_1">
     <g id="line2d_1">
      <path d="M 67.500644 171.508862 
L 67.500644 5.188862 
" clip-path="url(#p4a7ce6cc11)" style="fill: none; stroke: #ffffff; stroke-linecap: round"/>
     </g>
     <g id="line2d_2"/>
     <g id="text_1">
      <!-- $\mathdefault{0.0}$ -->
      <g style="fill: #262626" transform="translate(58.152118 188.886587) scale(0.15 -0.15)">
       <defs>
        <path id="CMR17-30" d="M 2688 2025 
C 2688 2416 2682 3080 2413 3591 
C 2176 4039 1798 4198 1466 4198 
C 1158 4198 768 4058 525 3597 
C 269 3118 243 2524 243 2025 
C 243 1661 250 1106 448 619 
C 723 -39 1216 -128 1466 -128 
C 1760 -128 2208 -7 2470 600 
C 2662 1042 2688 1559 2688 2025 
z
M 1466 -26 
C 1056 -26 813 325 723 812 
C 653 1188 653 1738 653 2096 
C 653 2588 653 2997 736 3387 
C 858 3929 1216 4096 1466 4096 
C 1728 4096 2067 3923 2189 3400 
C 2272 3036 2278 2607 2278 2096 
C 2278 1680 2278 1169 2202 792 
C 2067 95 1690 -26 1466 -26 
z
" transform="scale(0.015625)"/>
        <path id="CMMI12-3a" d="M 1178 307 
C 1178 492 1024 619 870 619 
C 685 619 557 466 557 313 
C 557 128 710 0 864 0 
C 1050 0 1178 153 1178 307 
z
" transform="scale(0.015625)"/>
       </defs>
       <use xlink:href="#CMR17-30" transform="scale(0.996264)"/>
       <use xlink:href="#CMMI12-3a" transform="translate(45.690477 0) scale(0.996264)"/>
       <use xlink:href="#CMR17-30" transform="translate(72.787654 0) scale(0.996264)"/>
      </g>
     </g>
    </g>
    <g id="xtick_2">
     <g id="line2d_3">
      <path d="M 128.373371 171.508862 
L 128.373371 5.188862 
" clip-path="url(#p4a7ce6cc11)" style="fill: none; stroke: #ffffff; stroke-linecap: round"/>
     </g>
     <g id="line2d_4"/>
     <g id="text_2">
      <!-- $\mathdefault{0.2}$ -->
      <g style="fill: #262626" transform="translate(119.024845 188.886587) scale(0.15 -0.15)">
       <defs>
        <path id="CMR17-32" d="M 2669 989 
L 2554 989 
C 2490 536 2438 459 2413 420 
C 2381 369 1920 369 1830 369 
L 602 369 
C 832 619 1280 1072 1824 1597 
C 2214 1967 2669 2402 2669 3035 
C 2669 3790 2067 4224 1395 4224 
C 691 4224 262 3604 262 3030 
C 262 2780 448 2748 525 2748 
C 589 2748 781 2787 781 3010 
C 781 3207 614 3264 525 3264 
C 486 3264 448 3258 422 3245 
C 544 3790 915 4058 1306 4058 
C 1862 4058 2227 3617 2227 3035 
C 2227 2479 1901 2000 1536 1584 
L 262 146 
L 262 0 
L 2515 0 
L 2669 989 
z
" transform="scale(0.015625)"/>
       </defs>
       <use xlink:href="#CMR17-30" transform="scale(0.996264)"/>
       <use xlink:href="#CMMI12-3a" transform="translate(45.690477 0) scale(0.996264)"/>
       <use xlink:href="#CMR17-32" transform="translate(72.787654 0) scale(0.996264)"/>
      </g>
     </g>
    </g>
    <g id="xtick_3">
     <g id="line2d_5">
      <path d="M 189.246098 171.508862 
L 189.246098 5.188862 
" clip-path="url(#p4a7ce6cc11)" style="fill: none; stroke: #ffffff; stroke-linecap: round"/>
     </g>
     <g id="line2d_6"/>
     <g id="text_3">
      <!-- $\mathdefault{0.4}$ -->
      <g style="fill: #262626" transform="translate(179.897572 188.886587) scale(0.15 -0.15)">
       <defs>
        <path id="CMR17-34" d="M 2150 4122 
C 2150 4256 2144 4256 2029 4256 
L 128 1254 
L 128 1088 
L 1779 1088 
L 1779 457 
C 1779 224 1766 160 1318 160 
L 1197 160 
L 1197 0 
C 1402 0 1747 0 1965 0 
C 2182 0 2528 0 2733 0 
L 2733 160 
L 2611 160 
C 2163 160 2150 224 2150 457 
L 2150 1088 
L 2803 1088 
L 2803 1254 
L 2150 1254 
L 2150 4122 
z
M 1798 3703 
L 1798 1254 
L 256 1254 
L 1798 3703 
z
" transform="scale(0.015625)"/>
       </defs>
       <use xlink:href="#CMR17-30" transform="scale(0.996264)"/>
       <use xlink:href="#CMMI12-3a" transform="translate(45.690477 0) scale(0.996264)"/>
       <use xlink:href="#CMR17-34" transform="translate(72.787654 0) scale(0.996264)"/>
      </g>
     </g>
    </g>
    <g id="xtick_4">
     <g id="line2d_7">
      <path d="M 250.118826 171.508862 
L 250.118826 5.188862 
" clip-path="url(#p4a7ce6cc11)" style="fill: none; stroke: #ffffff; stroke-linecap: round"/>
     </g>
     <g id="line2d_8"/>
     <g id="text_4">
      <!-- $\mathdefault{0.6}$ -->
      <g style="fill: #262626" transform="translate(240.770299 188.886587) scale(0.15 -0.15)">
       <defs>
        <path id="CMR17-36" d="M 678 2176 
C 678 3690 1395 4032 1811 4032 
C 1946 4032 2272 4009 2400 3776 
C 2298 3776 2106 3776 2106 3553 
C 2106 3381 2246 3323 2336 3323 
C 2394 3323 2566 3348 2566 3560 
C 2566 3954 2246 4179 1805 4179 
C 1043 4179 243 3390 243 1984 
C 243 253 966 -128 1478 -128 
C 2099 -128 2688 427 2688 1283 
C 2688 2081 2170 2662 1517 2662 
C 1126 2662 838 2407 678 1960 
L 678 2176 
z
M 1478 25 
C 691 25 691 1200 691 1436 
C 691 1896 909 2560 1504 2560 
C 1613 2560 1926 2560 2138 2120 
C 2253 1870 2253 1609 2253 1289 
C 2253 944 2253 690 2118 434 
C 1978 171 1773 25 1478 25 
z
" transform="scale(0.015625)"/>
       </defs>
       <use xlink:href="#CMR17-30" transform="scale(0.996264)"/>
       <use xlink:href="#CMMI12-3a" transform="translate(45.690477 0) scale(0.996264)"/>
       <use xlink:href="#CMR17-36" transform="translate(72.787654 0) scale(0.996264)"/>
      </g>
     </g>
    </g>
    <g id="xtick_5">
     <g id="line2d_9">
      <path d="M 310.991553 171.508862 
L 310.991553 5.188862 
" clip-path="url(#p4a7ce6cc11)" style="fill: none; stroke: #ffffff; stroke-linecap: round"/>
     </g>
     <g id="line2d_10"/>
     <g id="text_5">
      <!-- $\mathdefault{0.8}$ -->
      <g style="fill: #262626" transform="translate(301.643027 188.886587) scale(0.15 -0.15)">
       <defs>
        <path id="CMR17-38" d="M 1741 2264 
C 2144 2467 2554 2773 2554 3263 
C 2554 3841 1990 4179 1472 4179 
C 890 4179 378 3759 378 3180 
C 378 3021 416 2747 666 2505 
C 730 2442 998 2251 1171 2130 
C 883 1983 211 1634 211 934 
C 211 279 838 -128 1459 -128 
C 2144 -128 2720 362 2720 1010 
C 2720 1590 2330 1857 2074 2029 
L 1741 2264 
z
M 902 2822 
C 851 2854 595 3051 595 3351 
C 595 3739 998 4032 1459 4032 
C 1965 4032 2336 3676 2336 3262 
C 2336 2669 1670 2331 1638 2331 
C 1632 2331 1626 2331 1574 2370 
L 902 2822 
z
M 2080 1519 
C 2176 1449 2483 1240 2483 851 
C 2483 381 2010 25 1472 25 
C 890 25 448 438 448 940 
C 448 1443 838 1862 1280 2060 
L 2080 1519 
z
" transform="scale(0.015625)"/>
       </defs>
       <use xlink:href="#CMR17-30" transform="scale(0.996264)"/>
       <use xlink:href="#CMMI12-3a" transform="translate(45.690477 0) scale(0.996264)"/>
       <use xlink:href="#CMR17-38" transform="translate(72.787654 0) scale(0.996264)"/>
      </g>
     </g>
    </g>
    <g id="xtick_6">
     <g id="line2d_11">
      <path d="M 371.86428 171.508862 
L 371.86428 5.188862 
" clip-path="url(#p4a7ce6cc11)" style="fill: none; stroke: #ffffff; stroke-linecap: round"/>
     </g>
     <g id="line2d_12"/>
     <g id="text_6">
      <!-- $\mathdefault{1.0}$ -->
      <g style="fill: #262626" transform="translate(362.515754 188.886587) scale(0.15 -0.15)">
       <defs>
        <path id="CMR17-31" d="M 1702 4058 
C 1702 4192 1696 4192 1606 4192 
C 1357 3916 979 3827 621 3827 
C 602 3827 570 3827 563 3808 
C 557 3795 557 3782 557 3648 
C 755 3648 1088 3686 1344 3839 
L 1344 461 
C 1344 236 1331 160 781 160 
L 589 160 
L 589 0 
C 896 0 1216 0 1523 0 
C 1830 0 2150 0 2458 0 
L 2458 160 
L 2266 160 
C 1715 160 1702 230 1702 458 
L 1702 4058 
z
" transform="scale(0.015625)"/>
       </defs>
       <use xlink:href="#CMR17-31" transform="scale(0.996264)"/>
       <use xlink:href="#CMMI12-3a" transform="translate(45.690477 0) scale(0.996264)"/>
       <use xlink:href="#CMR17-30" transform="translate(72.787654 0) scale(0.996264)"/>
      </g>
     </g>
    </g>
    <g id="text_7">
     <!-- $s_1$ -->
     <g style="fill: #262626" transform="translate(213.621025 206.170057) scale(0.15 -0.15)">
      <defs>
       <path id="CMMI12-73" d="M 1459 1280 
C 1568 1261 1741 1223 1779 1216 
C 1862 1192 2150 1090 2150 783 
C 2150 586 1971 70 1229 70 
C 1094 70 614 70 486 436 
C 742 404 870 603 870 745 
C 870 880 781 950 653 950 
C 512 950 326 841 326 552 
C 326 173 710 -64 1222 -64 
C 2195 -64 2483 651 2483 984 
C 2483 1079 2483 1258 2278 1462 
C 2118 1616 1965 1648 1619 1718 
C 1446 1756 1171 1814 1171 2101 
C 1171 2229 1286 2689 1894 2689 
C 2163 2689 2426 2589 2490 2368 
C 2208 2368 2195 2125 2195 2119 
C 2195 1984 2317 1946 2374 1946 
C 2464 1946 2643 2015 2643 2281 
C 2643 2545 2400 2816 1901 2816 
C 1062 2816 838 2160 838 1899 
C 838 1414 1312 1312 1459 1280 
z
" transform="scale(0.015625)"/>
      </defs>
      <use xlink:href="#CMMI12-73" transform="scale(0.996264)"/>
      <use xlink:href="#CMR17-31" transform="translate(45.950048 -14.943915) scale(0.697382)"/>
     </g>
    </g>
   </g>
   <g id="matplotlib.axis_2">
    <g id="ytick_1">
     <g id="line2d_13">
      <path d="M 52.282462 171.508862 
L 387.082462 171.508862 
" clip-path="url(#p4a7ce6cc11)" style="fill: none; stroke: #ffffff; stroke-linecap: round"/>
     </g>
     <g id="line2d_14"/>
     <g id="text_8">
      <!-- $\mathdefault{10^{-2}}$ -->
      <g style="fill: #262626" transform="translate(17.283469 176.697725) scale(0.15 -0.15)">
       <defs>
        <path id="CMSY10-0" d="M 4218 1472 
C 4326 1472 4442 1472 4442 1600 
C 4442 1728 4326 1728 4218 1728 
L 755 1728 
C 646 1728 531 1728 531 1600 
C 531 1472 646 1472 755 1472 
L 4218 1472 
z
" transform="scale(0.015625)"/>
       </defs>
       <use xlink:href="#CMR17-31" transform="scale(0.996264)"/>
       <use xlink:href="#CMR17-30" transform="translate(45.690477 0) scale(0.996264)"/>
       <use xlink:href="#CMSY10-0" transform="translate(91.380954 36.153639) scale(0.697382)"/>
       <use xlink:href="#CMR17-32" transform="translate(145.621947 36.153639) scale(0.697382)"/>
      </g>
     </g>
    </g>
    <g id="ytick_2">
     <g id="line2d_15">
      <path d="M 52.282462 129.928862 
L 387.082462 129.928862 
" clip-path="url(#p4a7ce6cc11)" style="fill: none; stroke: #ffffff; stroke-linecap: round"/>
     </g>
     <g id="line2d_16"/>
     <g id="text_9">
      <!-- $\mathdefault{10^{-1}}$ -->
      <g style="fill: #262626" transform="translate(17.283469 135.117725) scale(0.15 -0.15)">
       <use xlink:href="#CMR17-31" transform="scale(0.996264)"/>
       <use xlink:href="#CMR17-30" transform="translate(45.690477 0) scale(0.996264)"/>
       <use xlink:href="#CMSY10-0" transform="translate(91.380954 36.153639) scale(0.697382)"/>
       <use xlink:href="#CMR17-31" transform="translate(145.621947 36.153639) scale(0.697382)"/>
      </g>
     </g>
    </g>
    <g id="ytick_3">
     <g id="line2d_17">
      <path d="M 52.282462 88.348862 
L 387.082462 88.348862 
" clip-path="url(#p4a7ce6cc11)" style="fill: none; stroke: #ffffff; stroke-linecap: round"/>
     </g>
     <g id="line2d_18"/>
     <g id="text_10">
      <!-- $\mathdefault{10^{0}}$ -->
      <g style="fill: #262626" transform="translate(25.419615 93.537725) scale(0.15 -0.15)">
       <use xlink:href="#CMR17-31" transform="scale(0.996264)"/>
       <use xlink:href="#CMR17-30" transform="translate(45.690477 0) scale(0.996264)"/>
       <use xlink:href="#CMR17-30" transform="translate(91.380954 36.153639) scale(0.697382)"/>
      </g>
     </g>
    </g>
    <g id="ytick_4">
     <g id="line2d_19">
      <path d="M 52.282462 46.768862 
L 387.082462 46.768862 
" clip-path="url(#p4a7ce6cc11)" style="fill: none; stroke: #ffffff; stroke-linecap: round"/>
     </g>
     <g id="line2d_20"/>
     <g id="text_11">
      <!-- $\mathdefault{10^{1}}$ -->
      <g style="fill: #262626" transform="translate(25.419615 51.957725) scale(0.15 -0.15)">
       <use xlink:href="#CMR17-31" transform="scale(0.996264)"/>
       <use xlink:href="#CMR17-30" transform="translate(45.690477 0) scale(0.996264)"/>
       <use xlink:href="#CMR17-31" transform="translate(91.380954 36.153639) scale(0.697382)"/>
      </g>
     </g>
    </g>
    <g id="ytick_5">
     <g id="line2d_21">
      <path d="M 52.282462 5.188862 
L 387.082462 5.188862 
" clip-path="url(#p4a7ce6cc11)" style="fill: none; stroke: #ffffff; stroke-linecap: round"/>
     </g>
     <g id="line2d_22"/>
     <g id="text_12">
      <!-- $\mathdefault{10^{2}}$ -->
      <g style="fill: #262626" transform="translate(25.419615 10.377725) scale(0.15 -0.15)">
       <use xlink:href="#CMR17-31" transform="scale(0.996264)"/>
       <use xlink:href="#CMR17-30" transform="translate(45.690477 0) scale(0.996264)"/>
       <use xlink:href="#CMR17-32" transform="translate(91.380954 36.153639) scale(0.697382)"/>
      </g>
     </g>
    </g>
    <g id="ytick_6">
     <g id="line2d_23"/>
    </g>
    <g id="ytick_7">
     <g id="line2d_24"/>
    </g>
    <g id="ytick_8">
     <g id="line2d_25"/>
    </g>
    <g id="ytick_9">
     <g id="line2d_26"/>
    </g>
    <g id="ytick_10">
     <g id="line2d_27"/>
    </g>
    <g id="ytick_11">
     <g id="line2d_28"/>
    </g>
    <g id="ytick_12">
     <g id="line2d_29"/>
    </g>
    <g id="ytick_13">
     <g id="line2d_30"/>
    </g>
    <g id="ytick_14">
     <g id="line2d_31"/>
    </g>
    <g id="ytick_15">
     <g id="line2d_32"/>
    </g>
    <g id="ytick_16">
     <g id="line2d_33"/>
    </g>
    <g id="ytick_17">
     <g id="line2d_34"/>
    </g>
    <g id="ytick_18">
     <g id="line2d_35"/>
    </g>
    <g id="ytick_19">
     <g id="line2d_36"/>
    </g>
    <g id="ytick_20">
     <g id="line2d_37"/>
    </g>
    <g id="ytick_21">
     <g id="line2d_38"/>
    </g>
    <g id="ytick_22">
     <g id="line2d_39"/>
    </g>
    <g id="ytick_23">
     <g id="line2d_40"/>
    </g>
    <g id="ytick_24">
     <g id="line2d_41"/>
    </g>
    <g id="ytick_25">
     <g id="line2d_42"/>
    </g>
    <g id="ytick_26">
     <g id="line2d_43"/>
    </g>
    <g id="ytick_27">
     <g id="line2d_44"/>
    </g>
    <g id="ytick_28">
     <g id="line2d_45"/>
    </g>
    <g id="ytick_29">
     <g id="line2d_46"/>
    </g>
    <g id="ytick_30">
     <g id="line2d_47"/>
    </g>
    <g id="ytick_31">
     <g id="line2d_48"/>
    </g>
    <g id="ytick_32">
     <g id="line2d_49"/>
    </g>
    <g id="ytick_33">
     <g id="line2d_50"/>
    </g>
    <g id="ytick_34">
     <g id="line2d_51"/>
    </g>
    <g id="ytick_35">
     <g id="line2d_52"/>
    </g>
    <g id="ytick_36">
     <g id="line2d_53"/>
    </g>
    <g id="ytick_37">
     <g id="line2d_54"/>
    </g>
    <g id="text_13">
     <!-- Density -->
     <g style="fill: #262626" transform="translate(10.377725 112.674048) rotate(-90) scale(0.15 -0.15)">
      <defs>
       <path id="CMR17-44" d="M 333 4352 
L 333 4186 
C 774 4186 845 4186 845 3900 
L 845 452 
C 845 166 774 166 333 166 
L 333 0 
L 2368 0 
C 3398 0 4224 943 4224 2141 
C 4224 3346 3411 4352 2368 4352 
L 333 4352 
z
M 1523 166 
C 1267 166 1254 197 1254 414 
L 1254 3938 
C 1254 4155 1267 4186 1523 4186 
L 2240 4186 
C 2771 4186 3750 3874 3750 2141 
C 3750 1242 3488 879 3366 707 
C 3213 510 2848 166 2240 166 
L 1523 166 
z
" transform="scale(0.015625)"/>
       <path id="CMR17-65" d="M 2438 1472 
C 2464 1498 2464 1511 2464 1576 
C 2464 2238 2118 2816 1389 2816 
C 710 2816 173 2169 173 1383 
C 173 551 781 -64 1459 -64 
C 2176 -64 2458 607 2458 740 
C 2458 784 2419 784 2406 784 
C 2362 784 2355 771 2330 696 
C 2189 265 1837 51 1504 51 
C 1229 51 954 203 781 480 
C 582 803 582 1176 582 1472 
L 2438 1472 
z
M 589 1568 
C 634 2505 1126 2714 1382 2714 
C 1818 2714 2112 2297 2118 1568 
L 589 1568 
z
" transform="scale(0.015625)"/>
       <path id="CMR17-6e" d="M 2656 1933 
C 2656 2259 2592 2790 1837 2790 
C 1331 2790 1069 2400 973 2144 
L 966 2144 
L 966 2790 
L 211 2720 
L 211 2554 
C 589 2554 646 2515 646 2208 
L 646 428 
C 646 184 621 153 211 153 
L 211 -13 
C 365 0 646 0 813 0 
C 979 0 1267 0 1421 -13 
L 1421 153 
C 1011 153 986 178 986 428 
L 986 1658 
C 986 2247 1344 2688 1792 2688 
C 2266 2688 2317 2266 2317 1958 
L 2317 428 
C 2317 184 2291 153 1882 153 
L 1882 -13 
C 2035 0 2317 0 2483 0 
C 2650 0 2938 0 3091 -13 
L 3091 153 
C 2682 153 2656 178 2656 428 
L 2656 1933 
z
" transform="scale(0.015625)"/>
       <path id="CMR17-73" d="M 1978 2697 
C 1978 2813 1971 2819 1933 2819 
C 1907 2819 1901 2813 1824 2717 
C 1805 2691 1747 2626 1728 2601 
C 1523 2819 1235 2819 1126 2819 
C 416 2819 160 2447 160 2076 
C 160 1498 813 1365 998 1325 
C 1402 1243 1542 1217 1677 1101 
C 1760 1025 1901 884 1901 654 
C 1901 384 1747 38 1158 38 
C 602 38 403 460 288 1021 
C 269 1110 269 1117 218 1117 
C 166 1117 160 1110 160 983 
L 160 63 
C 160 -51 166 -58 205 -58 
C 237 -58 243 -51 275 0 
C 314 57 410 211 448 276 
C 576 103 800 -64 1158 -64 
C 1792 -64 2131 283 2131 784 
C 2131 1112 1958 1285 1875 1362 
C 1683 1561 1459 1606 1190 1657 
C 838 1735 390 1825 390 2217 
C 390 2383 480 2737 1126 2737 
C 1811 2737 1850 2094 1862 1888 
C 1869 1856 1901 1849 1920 1849 
C 1978 1849 1978 1869 1978 1978 
L 1978 2697 
z
" transform="scale(0.015625)"/>
       <path id="CMR17-69" d="M 992 3909 
C 992 4049 877 4170 730 4170 
C 589 4170 467 4056 467 3909 
C 467 3769 582 3648 730 3648 
C 870 3648 992 3763 992 3909 
z
M 243 2706 
L 243 2541 
C 602 2541 653 2502 653 2197 
L 653 427 
C 653 184 627 153 218 153 
L 218 -13 
C 371 0 646 0 806 0 
C 960 0 1222 0 1370 -13 
L 1370 153 
C 992 153 979 191 979 420 
L 979 2776 
L 243 2706 
z
" transform="scale(0.015625)"/>
       <path id="CMR17-74" d="M 966 2560 
L 1862 2560 
L 1862 2725 
L 966 2725 
L 966 3904 
L 851 3904 
C 838 3245 614 2668 70 2668 
L 70 2560 
L 627 2560 
L 627 771 
C 627 650 627 -64 1370 -64 
C 1747 -64 1965 306 1965 777 
L 1965 1140 
L 1850 1140 
L 1850 783 
C 1850 344 1677 51 1408 51 
C 1222 51 966 178 966 758 
L 966 2560 
z
" transform="scale(0.015625)"/>
       <path id="CMR17-79" d="M 2496 2197 
C 2656 2586 2944 2586 3034 2586 
L 3034 2752 
C 2912 2752 2752 2752 2630 2752 
C 2496 2752 2285 2752 2157 2758 
L 2157 2592 
C 2400 2573 2406 2394 2406 2343 
C 2406 2280 2394 2248 2362 2171 
L 1664 449 
L 902 2306 
C 870 2382 870 2426 870 2433 
C 870 2573 1018 2586 1171 2586 
L 1171 2758 
C 1018 2752 742 2752 582 2752 
C 410 2752 205 2752 64 2758 
L 64 2586 
C 410 2586 448 2554 531 2350 
L 1485 15 
C 1197 -738 1030 -1178 627 -1178 
C 557 -1178 397 -1159 282 -1044 
C 429 -1031 493 -942 493 -833 
C 493 -725 416 -629 288 -629 
C 147 -629 77 -725 77 -840 
C 77 -1095 339 -1280 627 -1280 
C 998 -1280 1229 -922 1357 -604 
L 2496 2197 
z
" transform="scale(0.015625)"/>
      </defs>
      <use xlink:href="#CMR17-44" transform="scale(0.996264)"/>
      <use xlink:href="#CMR17-65" transform="translate(70.393556 0) scale(0.996264)"/>
      <use xlink:href="#CMR17-6e" transform="translate(110.879216 0) scale(0.996264)"/>
      <use xlink:href="#CMR17-73" transform="translate(161.774586 0) scale(0.996264)"/>
      <use xlink:href="#CMR17-69" transform="translate(197.575924 0) scale(0.996264)"/>
      <use xlink:href="#CMR17-74" transform="translate(222.446982 0) scale(0.996264)"/>
      <use xlink:href="#CMR17-79" transform="translate(255.125296 0) scale(0.996264)"/>
     </g>
    </g>
   </g>
   <g id="PolyCollection_1">
    <path d="M 66.508714 249.439823 
L 66.508714 41668.348862 
L 67.122637 41668.348862 
L 67.73656 41668.348862 
L 68.350482 41668.348862 
L 68.964405 41668.348862 
L 69.578328 41668.348862 
L 70.192251 41668.348862 
L 70.806174 41668.348862 
L 71.420097 41668.348862 
L 72.034019 41668.348862 
L 72.647942 41668.348862 
L 73.261865 41668.348862 
L 73.875788 41668.348862 
L 74.489711 41668.348862 
L 75.103634 41668.348862 
L 75.717556 41668.348862 
L 76.331479 41668.348862 
L 76.945402 41668.348862 
L 77.559325 41668.348862 
L 78.173248 41668.348862 
L 78.787171 41668.348862 
L 79.401093 41668.348862 
L 80.015016 41668.348862 
L 80.628939 41668.348862 
L 81.242862 41668.348862 
L 81.856785 41668.348862 
L 82.470708 41668.348862 
L 83.08463 41668.348862 
L 83.698553 41668.348862 
L 84.312476 41668.348862 
L 84.926399 41668.348862 
L 85.540322 41668.348862 
L 86.154245 41668.348862 
L 86.768168 41668.348862 
L 87.38209 41668.348862 
L 87.996013 41668.348862 
L 88.609936 41668.348862 
L 89.223859 41668.348862 
L 89.837782 41668.348862 
L 90.451705 41668.348862 
L 91.065627 41668.348862 
L 91.67955 41668.348862 
L 92.293473 41668.348862 
L 92.907396 41668.348862 
L 93.521319 41668.348862 
L 94.135242 41668.348862 
L 94.749164 41668.348862 
L 95.363087 41668.348862 
L 95.97701 41668.348862 
L 96.590933 41668.348862 
L 97.204856 41668.348862 
L 97.818779 41668.348862 
L 98.432701 41668.348862 
L 99.046624 41668.348862 
L 99.660547 41668.348862 
L 100.27447 41668.348862 
L 100.888393 41668.348862 
L 101.502316 41668.348862 
L 102.116238 41668.348862 
L 102.730161 41668.348862 
L 103.344084 41668.348862 
L 103.958007 41668.348862 
L 104.57193 41668.348862 
L 105.185853 41668.348862 
L 105.799775 41668.348862 
L 106.413698 41668.348862 
L 107.027621 41668.348862 
L 107.641544 41668.348862 
L 108.255467 41668.348862 
L 108.86939 41668.348862 
L 109.483313 41668.348862 
L 110.097235 41668.348862 
L 110.711158 41668.348862 
L 111.325081 41668.348862 
L 111.939004 41668.348862 
L 112.552927 41668.348862 
L 113.16685 41668.348862 
L 113.780772 41668.348862 
L 114.394695 41668.348862 
L 115.008618 41668.348862 
L 115.622541 41668.348862 
L 116.236464 41668.348862 
L 116.850387 41668.348862 
L 117.464309 41668.348862 
L 118.078232 41668.348862 
L 118.692155 41668.348862 
L 119.306078 41668.348862 
L 119.920001 41668.348862 
L 120.533924 41668.348862 
L 121.147846 41668.348862 
L 121.761769 41668.348862 
L 122.375692 41668.348862 
L 122.989615 41668.348862 
L 123.603538 41668.348862 
L 124.217461 41668.348862 
L 124.831383 41668.348862 
L 125.445306 41668.348862 
L 126.059229 41668.348862 
L 126.673152 41668.348862 
L 127.287075 41668.348862 
L 127.900998 41668.348862 
L 128.51492 41668.348862 
L 129.128843 41668.348862 
L 129.742766 41668.348862 
L 130.356689 41668.348862 
L 130.970612 41668.348862 
L 131.584535 41668.348862 
L 132.198458 41668.348862 
L 132.81238 41668.348862 
L 133.426303 41668.348862 
L 134.040226 41668.348862 
L 134.654149 41668.348862 
L 135.268072 41668.348862 
L 135.881995 41668.348862 
L 136.495917 41668.348862 
L 137.10984 41668.348862 
L 137.723763 41668.348862 
L 138.337686 41668.348862 
L 138.951609 41668.348862 
L 139.565532 41668.348862 
L 140.179454 41668.348862 
L 140.793377 41668.348862 
L 141.4073 41668.348862 
L 142.021223 41668.348862 
L 142.635146 41668.348862 
L 143.249069 41668.348862 
L 143.862991 41668.348862 
L 144.476914 41668.348862 
L 145.090837 41668.348862 
L 145.70476 41668.348862 
L 146.318683 41668.348862 
L 146.932606 41668.348862 
L 147.546528 41668.348862 
L 148.160451 41668.348862 
L 148.774374 41668.348862 
L 149.388297 41668.348862 
L 150.00222 41668.348862 
L 150.616143 41668.348862 
L 151.230065 41668.348862 
L 151.843988 41668.348862 
L 152.457911 41668.348862 
L 153.071834 41668.348862 
L 153.685757 41668.348862 
L 154.29968 41668.348862 
L 154.913602 41668.348862 
L 155.527525 41668.348862 
L 156.141448 41668.348862 
L 156.755371 41668.348862 
L 157.369294 41668.348862 
L 157.983217 41668.348862 
L 158.59714 41668.348862 
L 159.211062 41668.348862 
L 159.824985 41668.348862 
L 160.438908 41668.348862 
L 161.052831 41668.348862 
L 161.666754 41668.348862 
L 162.280677 41668.348862 
L 162.894599 41668.348862 
L 163.508522 41668.348862 
L 164.122445 41668.348862 
L 164.736368 41668.348862 
L 165.350291 41668.348862 
L 165.964214 41668.348862 
L 166.578136 41668.348862 
L 167.192059 41668.348862 
L 167.805982 41668.348862 
L 168.419905 41668.348862 
L 169.033828 41668.348862 
L 169.647751 41668.348862 
L 170.261673 41668.348862 
L 170.875596 41668.348862 
L 171.489519 41668.348862 
L 172.103442 41668.348862 
L 172.717365 41668.348862 
L 173.331288 41668.348862 
L 173.94521 41668.348862 
L 174.559133 41668.348862 
L 175.173056 41668.348862 
L 175.786979 41668.348862 
L 176.400902 41668.348862 
L 177.014825 41668.348862 
L 177.628747 41668.348862 
L 178.24267 41668.348862 
L 178.856593 41668.348862 
L 179.470516 41668.348862 
L 180.084439 41668.348862 
L 180.698362 41668.348862 
L 181.312285 41668.348862 
L 181.926207 41668.348862 
L 182.54013 41668.348862 
L 183.154053 41668.348862 
L 183.767976 41668.348862 
L 184.381899 41668.348862 
L 184.995822 41668.348862 
L 185.609744 41668.348862 
L 186.223667 41668.348862 
L 186.83759 41668.348862 
L 187.451513 41668.348862 
L 188.065436 41668.348862 
L 188.679359 41668.348862 
L 189.293281 41668.348862 
L 189.907204 41668.348862 
L 190.521127 41668.348862 
L 191.13505 41668.348862 
L 191.748973 41668.348862 
L 192.362896 41668.348862 
L 192.976818 41668.348862 
L 193.590741 41668.348862 
L 194.204664 41668.348862 
L 194.818587 41668.348862 
L 195.43251 41668.348862 
L 196.046433 41668.348862 
L 196.660355 41668.348862 
L 197.274278 41668.348862 
L 197.888201 41668.348862 
L 198.502124 41668.348862 
L 199.116047 41668.348862 
L 199.72997 41668.348862 
L 200.343892 41668.348862 
L 200.957815 41668.348862 
L 201.571738 41668.348862 
L 202.185661 41668.348862 
L 202.799584 41668.348862 
L 203.413507 41668.348862 
L 204.02743 41668.348862 
L 204.641352 41668.348862 
L 205.255275 41668.348862 
L 205.869198 41668.348862 
L 206.483121 41668.348862 
L 207.097044 41668.348862 
L 207.710967 41668.348862 
L 208.324889 41668.348862 
L 208.938812 41668.348862 
L 209.552735 41668.348862 
L 210.166658 41668.348862 
L 210.780581 41668.348862 
L 211.394504 41668.348862 
L 212.008426 41668.348862 
L 212.622349 41668.348862 
L 213.236272 41668.348862 
L 213.850195 41668.348862 
L 214.464118 41668.348862 
L 215.078041 41668.348862 
L 215.691963 41668.348862 
L 216.305886 41668.348862 
L 216.919809 41668.348862 
L 217.533732 41668.348862 
L 218.147655 41668.348862 
L 218.761578 41668.348862 
L 219.3755 41668.348862 
L 219.989423 41668.348862 
L 220.603346 41668.348862 
L 221.217269 41668.348862 
L 221.831192 41668.348862 
L 222.445115 41668.348862 
L 223.059037 41668.348862 
L 223.67296 41668.348862 
L 224.286883 41668.348862 
L 224.900806 41668.348862 
L 225.514729 41668.348862 
L 226.128652 41668.348862 
L 226.742575 41668.348862 
L 227.356497 41668.348862 
L 227.97042 41668.348862 
L 228.584343 41668.348862 
L 229.198266 41668.348862 
L 229.812189 41668.348862 
L 230.426112 41668.348862 
L 231.040034 41668.348862 
L 231.653957 41668.348862 
L 232.26788 41668.348862 
L 232.881803 41668.348862 
L 233.495726 41668.348862 
L 234.109649 41668.348862 
L 234.723571 41668.348862 
L 235.337494 41668.348862 
L 235.951417 41668.348862 
L 236.56534 41668.348862 
L 237.179263 41668.348862 
L 237.793186 41668.348862 
L 238.407108 41668.348862 
L 239.021031 41668.348862 
L 239.634954 41668.348862 
L 240.248877 41668.348862 
L 240.8628 41668.348862 
L 241.476723 41668.348862 
L 242.090645 41668.348862 
L 242.704568 41668.348862 
L 243.318491 41668.348862 
L 243.932414 41668.348862 
L 244.546337 41668.348862 
L 245.16026 41668.348862 
L 245.774182 41668.348862 
L 246.388105 41668.348862 
L 247.002028 41668.348862 
L 247.615951 41668.348862 
L 248.229874 41668.348862 
L 248.843797 41668.348862 
L 249.45772 41668.348862 
L 250.071642 41668.348862 
L 250.685565 41668.348862 
L 251.299488 41668.348862 
L 251.913411 41668.348862 
L 252.527334 41668.348862 
L 253.141257 41668.348862 
L 253.755179 41668.348862 
L 254.369102 41668.348862 
L 254.983025 41668.348862 
L 255.596948 41668.348862 
L 256.210871 41668.348862 
L 256.824794 41668.348862 
L 257.438716 41668.348862 
L 258.052639 41668.348862 
L 258.666562 41668.348862 
L 259.280485 41668.348862 
L 259.894408 41668.348862 
L 260.508331 41668.348862 
L 261.122253 41668.348862 
L 261.736176 41668.348862 
L 262.350099 41668.348862 
L 262.964022 41668.348862 
L 263.577945 41668.348862 
L 264.191868 41668.348862 
L 264.80579 41668.348862 
L 265.419713 41668.348862 
L 266.033636 41668.348862 
L 266.647559 41668.348862 
L 267.261482 41668.348862 
L 267.875405 41668.348862 
L 268.489327 41668.348862 
L 269.10325 41668.348862 
L 269.717173 41668.348862 
L 270.331096 41668.348862 
L 270.945019 41668.348862 
L 271.558942 41668.348862 
L 272.172865 41668.348862 
L 272.786787 41668.348862 
L 273.40071 41668.348862 
L 274.014633 41668.348862 
L 274.628556 41668.348862 
L 275.242479 41668.348862 
L 275.856402 41668.348862 
L 276.470324 41668.348862 
L 277.084247 41668.348862 
L 277.69817 41668.348862 
L 278.312093 41668.348862 
L 278.926016 41668.348862 
L 279.539939 41668.348862 
L 280.153861 41668.348862 
L 280.767784 41668.348862 
L 281.381707 41668.348862 
L 281.99563 41668.348862 
L 282.609553 41668.348862 
L 283.223476 41668.348862 
L 283.837398 41668.348862 
L 284.451321 41668.348862 
L 285.065244 41668.348862 
L 285.679167 41668.348862 
L 286.29309 41668.348862 
L 286.907013 41668.348862 
L 287.520935 41668.348862 
L 288.134858 41668.348862 
L 288.748781 41668.348862 
L 289.362704 41668.348862 
L 289.976627 41668.348862 
L 290.59055 41668.348862 
L 291.204472 41668.348862 
L 291.818395 41668.348862 
L 292.432318 41668.348862 
L 293.046241 41668.348862 
L 293.660164 41668.348862 
L 294.274087 41668.348862 
L 294.88801 41668.348862 
L 295.501932 41668.348862 
L 296.115855 41668.348862 
L 296.729778 41668.348862 
L 297.343701 41668.348862 
L 297.957624 41668.348862 
L 298.571547 41668.348862 
L 299.185469 41668.348862 
L 299.799392 41668.348862 
L 300.413315 41668.348862 
L 301.027238 41668.348862 
L 301.641161 41668.348862 
L 302.255084 41668.348862 
L 302.869006 41668.348862 
L 303.482929 41668.348862 
L 304.096852 41668.348862 
L 304.710775 41668.348862 
L 305.324698 41668.348862 
L 305.938621 41668.348862 
L 306.552543 41668.348862 
L 307.166466 41668.348862 
L 307.780389 41668.348862 
L 308.394312 41668.348862 
L 309.008235 41668.348862 
L 309.622158 41668.348862 
L 310.23608 41668.348862 
L 310.850003 41668.348862 
L 311.463926 41668.348862 
L 312.077849 41668.348862 
L 312.691772 41668.348862 
L 313.305695 41668.348862 
L 313.919617 41668.348862 
L 314.53354 41668.348862 
L 315.147463 41668.348862 
L 315.761386 41668.348862 
L 316.375309 41668.348862 
L 316.989232 41668.348862 
L 317.603155 41668.348862 
L 318.217077 41668.348862 
L 318.831 41668.348862 
L 319.444923 41668.348862 
L 320.058846 41668.348862 
L 320.672769 41668.348862 
L 321.286692 41668.348862 
L 321.900614 41668.348862 
L 322.514537 41668.348862 
L 323.12846 41668.348862 
L 323.742383 41668.348862 
L 324.356306 41668.348862 
L 324.970229 41668.348862 
L 325.584151 41668.348862 
L 326.198074 41668.348862 
L 326.811997 41668.348862 
L 327.42592 41668.348862 
L 328.039843 41668.348862 
L 328.653766 41668.348862 
L 329.267688 41668.348862 
L 329.881611 41668.348862 
L 330.495534 41668.348862 
L 331.109457 41668.348862 
L 331.72338 41668.348862 
L 332.337303 41668.348862 
L 332.951225 41668.348862 
L 333.565148 41668.348862 
L 334.179071 41668.348862 
L 334.792994 41668.348862 
L 335.406917 41668.348862 
L 336.02084 41668.348862 
L 336.634762 41668.348862 
L 337.248685 41668.348862 
L 337.862608 41668.348862 
L 338.476531 41668.348862 
L 339.090454 41668.348862 
L 339.704377 41668.348862 
L 340.3183 41668.348862 
L 340.932222 41668.348862 
L 341.546145 41668.348862 
L 342.160068 41668.348862 
L 342.773991 41668.348862 
L 343.387914 41668.348862 
L 344.001837 41668.348862 
L 344.615759 41668.348862 
L 345.229682 41668.348862 
L 345.843605 41668.348862 
L 346.457528 41668.348862 
L 347.071451 41668.348862 
L 347.685374 41668.348862 
L 348.299296 41668.348862 
L 348.913219 41668.348862 
L 349.527142 41668.348862 
L 350.141065 41668.348862 
L 350.754988 41668.348862 
L 351.368911 41668.348862 
L 351.982833 41668.348862 
L 352.596756 41668.348862 
L 353.210679 41668.348862 
L 353.824602 41668.348862 
L 354.438525 41668.348862 
L 355.052448 41668.348862 
L 355.66637 41668.348862 
L 356.280293 41668.348862 
L 356.894216 41668.348862 
L 357.508139 41668.348862 
L 358.122062 41668.348862 
L 358.735985 41668.348862 
L 359.349907 41668.348862 
L 359.96383 41668.348862 
L 360.577753 41668.348862 
L 361.191676 41668.348862 
L 361.805599 41668.348862 
L 362.419522 41668.348862 
L 363.033445 41668.348862 
L 363.647367 41668.348862 
L 364.26129 41668.348862 
L 364.875213 41668.348862 
L 365.489136 41668.348862 
L 366.103059 41668.348862 
L 366.716982 41668.348862 
L 367.330904 41668.348862 
L 367.944827 41668.348862 
L 368.55875 41668.348862 
L 369.172673 41668.348862 
L 369.786596 41668.348862 
L 370.400519 41668.348862 
L 371.014441 41668.348862 
L 371.628364 41668.348862 
L 372.242287 41668.348862 
L 372.85621 41668.348862 
L 372.85621 249.446134 
L 372.85621 249.446134 
L 372.242287 179.986301 
L 371.628364 172.78186 
L 371.014441 227.83281 
L 370.400519 345.100782 
L 369.786596 294.669047 
L 369.172673 194.484397 
L 368.55875 153.27004 
L 367.944827 150.457249 
L 367.330904 142.961592 
L 366.716982 129.726265 
L 366.103059 130.538688 
L 365.489136 137.247768 
L 364.875213 128.074802 
L 364.26129 126.321257 
L 363.647367 121.262463 
L 363.033445 120.003671 
L 362.419522 119.789039 
L 361.805599 113.292958 
L 361.191676 105.070887 
L 360.577753 104.915571 
L 359.96383 99.96658 
L 359.349907 97.919335 
L 358.735985 99.613032 
L 358.122062 94.969946 
L 357.508139 89.114244 
L 356.894216 87.733058 
L 356.280293 89.306666 
L 355.66637 87.882072 
L 355.052448 82.777418 
L 354.438525 80.738871 
L 353.824602 81.176877 
L 353.210679 78.889648 
L 352.596756 78.531549 
L 351.982833 78.717376 
L 351.368911 78.375218 
L 350.754988 77.108688 
L 350.141065 74.60204 
L 349.527142 74.075406 
L 348.913219 77.345124 
L 348.299296 76.185173 
L 347.685374 74.670269 
L 347.071451 74.507666 
L 346.457528 72.179921 
L 345.843605 72.804739 
L 345.229682 74.004761 
L 344.615759 71.884025 
L 344.001837 72.572097 
L 343.387914 73.127666 
L 342.773991 71.174943 
L 342.160068 73.327504 
L 341.546145 73.271652 
L 340.932222 71.313566 
L 340.3183 68.676556 
L 339.704377 69.394245 
L 339.090454 70.773158 
L 338.476531 68.958834 
L 337.862608 69.958049 
L 337.248685 69.105111 
L 336.634762 69.438363 
L 336.02084 70.154132 
L 335.406917 70.040001 
L 334.792994 69.471903 
L 334.179071 69.311185 
L 333.565148 70.262743 
L 332.951225 72.014263 
L 332.337303 70.968919 
L 331.72338 69.625257 
L 331.109457 69.584175 
L 330.495534 70.93517 
L 329.881611 72.31341 
L 329.267688 70.156596 
L 328.653766 69.24939 
L 328.039843 69.942232 
L 327.42592 70.254589 
L 326.811997 70.740023 
L 326.198074 70.536902 
L 325.584151 70.941921 
L 324.970229 74.04881 
L 324.356306 73.574885 
L 323.742383 72.507382 
L 323.12846 73.454462 
L 322.514537 74.437299 
L 321.900614 75.372663 
L 321.286692 73.661175 
L 320.672769 73.925235 
L 320.058846 74.100663 
L 319.444923 75.469292 
L 318.831 73.165803 
L 318.217077 73.56861 
L 317.603155 75.303905 
L 316.989232 77.145412 
L 316.375309 76.868746 
L 315.761386 75.512994 
L 315.147463 74.917613 
L 314.53354 75.595133 
L 313.919617 76.539522 
L 313.305695 76.060935 
L 312.691772 75.814009 
L 312.077849 77.690197 
L 311.463926 80.838238 
L 310.850003 78.68908 
L 310.23608 78.789867 
L 309.622158 79.909315 
L 309.008235 80.305538 
L 308.394312 78.627528 
L 307.780389 81.117248 
L 307.166466 81.190835 
L 306.552543 83.126715 
L 305.938621 82.824688 
L 305.324698 82.010294 
L 304.710775 79.977745 
L 304.096852 80.997325 
L 303.482929 81.695712 
L 302.869006 81.2864 
L 302.255084 81.119055 
L 301.641161 80.983559 
L 301.027238 83.089169 
L 300.413315 85.368445 
L 299.799392 83.082735 
L 299.185469 85.206386 
L 298.571547 82.706339 
L 297.957624 83.520837 
L 297.343701 85.756628 
L 296.729778 83.574223 
L 296.115855 84.771559 
L 295.501932 88.813013 
L 294.88801 89.631191 
L 294.274087 86.718729 
L 293.660164 86.137141 
L 293.046241 86.664459 
L 292.432318 84.466378 
L 291.818395 85.216859 
L 291.204472 85.169163 
L 290.59055 81.771876 
L 289.976627 81.974949 
L 289.362704 85.465321 
L 288.748781 82.395348 
L 288.134858 82.315045 
L 287.520935 84.75837 
L 286.907013 84.796717 
L 286.29309 85.475145 
L 285.679167 85.351055 
L 285.065244 87.322234 
L 284.451321 88.614254 
L 283.837398 89.204488 
L 283.223476 90.403655 
L 282.609553 88.480128 
L 281.99563 85.80834 
L 281.381707 85.166988 
L 280.767784 84.310375 
L 280.153861 79.030016 
L 279.539939 79.714858 
L 278.926016 78.632884 
L 278.312093 75.991504 
L 277.69817 76.122509 
L 277.084247 77.5653 
L 276.470324 79.202356 
L 275.856402 80.708943 
L 275.242479 85.289238 
L 274.628556 91.320798 
L 274.014633 92.770487 
L 273.40071 91.029061 
L 272.786787 90.23704 
L 272.172865 85.042468 
L 271.558942 83.589154 
L 270.945019 81.076659 
L 270.331096 75.866693 
L 269.717173 75.183995 
L 269.10325 76.396918 
L 268.489327 76.75254 
L 267.875405 78.359522 
L 267.261482 80.295522 
L 266.647559 81.831994 
L 266.033636 86.135254 
L 265.419713 89.390386 
L 264.80579 93.066854 
L 264.191868 100.153721 
L 263.577945 102.579753 
L 262.964022 108.372362 
L 262.350099 103.528272 
L 261.736176 98.851095 
L 261.122253 92.471856 
L 260.508331 86.441168 
L 259.894408 81.730457 
L 259.280485 81.729774 
L 258.666562 80.658505 
L 258.052639 80.514846 
L 257.438716 80.54451 
L 256.824794 77.587269 
L 256.210871 78.925376 
L 255.596948 78.67508 
L 254.983025 84.203826 
L 254.369102 86.466189 
L 253.755179 91.442079 
L 253.141257 95.13514 
L 252.527334 98.598284 
L 251.913411 102.083326 
L 251.299488 109.651662 
L 250.685565 116.443368 
L 250.071642 114.249361 
L 249.45772 112.998026 
L 248.843797 110.694657 
L 248.229874 111.086409 
L 247.615951 104.575186 
L 247.002028 98.962275 
L 246.388105 92.582216 
L 245.774182 90.110638 
L 245.16026 87.836647 
L 244.546337 84.383886 
L 243.932414 81.432281 
L 243.318491 80.084962 
L 242.704568 77.367697 
L 242.090645 77.284267 
L 241.476723 80.941495 
L 240.8628 82.979921 
L 240.248877 81.112004 
L 239.634954 85.65575 
L 239.021031 91.963951 
L 238.407108 91.574223 
L 237.793186 92.317449 
L 237.179263 101.986722 
L 236.56534 105.773434 
L 235.951417 108.292588 
L 235.337494 113.704001 
L 234.723571 117.153925 
L 234.109649 120.67586 
L 233.495726 125.499231 
L 232.881803 129.208099 
L 232.26788 124.824475 
L 231.653957 123.373276 
L 231.040034 113.530963 
L 230.426112 106.270995 
L 229.812189 106.275631 
L 229.198266 101.678256 
L 228.584343 99.353224 
L 227.97042 96.609006 
L 227.356497 91.854186 
L 226.742575 89.228009 
L 226.128652 87.431569 
L 225.514729 85.026096 
L 224.900806 83.797695 
L 224.286883 82.946497 
L 223.67296 79.898228 
L 223.059037 80.508242 
L 222.445115 82.117503 
L 221.831192 85.541817 
L 221.217269 86.094102 
L 220.603346 85.790196 
L 219.989423 88.822873 
L 219.3755 89.741691 
L 218.761578 89.448351 
L 218.147655 93.823724 
L 217.533732 101.966069 
L 216.919809 107.118353 
L 216.305886 115.338219 
L 215.691963 120.84384 
L 215.078041 122.869764 
L 214.464118 126.94074 
L 213.850195 131.78144 
L 213.236272 122.818167 
L 212.622349 135.463105 
L 212.008426 144.074003 
L 211.394504 143.251425 
L 210.780581 150.379044 
L 210.166658 137.718185 
L 209.552735 123.518742 
L 208.938812 125.320975 
L 208.324889 123.205474 
L 207.710967 115.406424 
L 207.097044 111.68746 
L 206.483121 106.850931 
L 205.869198 105.639586 
L 205.255275 105.157046 
L 204.641352 96.808499 
L 204.02743 94.769153 
L 203.413507 89.728516 
L 202.799584 87.540253 
L 202.185661 85.008024 
L 201.571738 84.664763 
L 200.957815 83.053643 
L 200.343892 85.250945 
L 199.72997 85.104378 
L 199.116047 84.190819 
L 198.502124 84.707682 
L 197.888201 83.975061 
L 197.274278 84.006371 
L 196.660355 87.393294 
L 196.046433 90.291157 
L 195.43251 88.605254 
L 194.818587 92.471345 
L 194.204664 95.647956 
L 193.590741 99.877893 
L 192.976818 102.25312 
L 192.362896 104.439012 
L 191.748973 108.372562 
L 191.13505 108.022677 
L 190.521127 113.653414 
L 189.907204 121.760551 
L 189.293281 126.319137 
L 188.679359 132.766555 
L 188.065436 137.042118 
L 187.451513 134.340379 
L 186.83759 135.909997 
L 186.223667 152.343758 
L 185.609744 149.511807 
L 184.995822 144.231694 
L 184.381899 154.338062 
L 183.767976 151.530336 
L 183.154053 149.777556 
L 182.54013 129.119011 
L 181.926207 128.602472 
L 181.312285 119.037774 
L 180.698362 114.604171 
L 180.084439 113.721138 
L 179.470516 114.670985 
L 178.856593 112.211001 
L 178.24267 108.887459 
L 177.628747 103.665847 
L 177.014825 105.44476 
L 176.400902 99.079443 
L 175.786979 94.632767 
L 175.173056 92.633801 
L 174.559133 91.851076 
L 173.94521 92.275964 
L 173.331288 90.840477 
L 172.717365 88.727151 
L 172.103442 85.783676 
L 171.489519 84.113359 
L 170.875596 83.301261 
L 170.261673 86.212369 
L 169.647751 89.690814 
L 169.033828 87.762041 
L 168.419905 89.404075 
L 167.805982 92.545417 
L 167.192059 92.092692 
L 166.578136 93.621643 
L 165.964214 94.794917 
L 165.350291 98.500465 
L 164.736368 105.770849 
L 164.122445 111.33191 
L 163.508522 117.608149 
L 162.894599 117.723443 
L 162.280677 127.887086 
L 161.666754 131.918455 
L 161.052831 129.129881 
L 160.438908 126.213429 
L 159.824985 131.540915 
L 159.211062 147.837511 
L 158.59714 160.94716 
L 157.983217 148.108386 
L 157.369294 149.563104 
L 156.755371 154.849954 
L 156.141448 159.741066 
L 155.527525 139.728226 
L 154.913602 128.015885 
L 154.29968 136.00567 
L 153.685757 121.604442 
L 153.071834 116.902231 
L 152.457911 110.658965 
L 151.843988 106.141881 
L 151.230065 98.659216 
L 150.616143 90.883137 
L 150.00222 87.371069 
L 149.388297 82.206601 
L 148.774374 79.742217 
L 148.160451 78.058645 
L 147.546528 77.544242 
L 146.932606 77.018318 
L 146.318683 76.866721 
L 145.70476 78.551622 
L 145.090837 83.979743 
L 144.476914 85.561779 
L 143.862991 88.583095 
L 143.249069 94.579925 
L 142.635146 103.129559 
L 142.021223 107.187227 
L 141.4073 113.041727 
L 140.793377 127.956978 
L 140.179454 128.681165 
L 139.565532 131.666365 
L 138.951609 128.744227 
L 138.337686 138.30131 
L 137.723763 158.517301 
L 137.10984 146.304404 
L 136.495917 144.880818 
L 135.881995 127.111069 
L 135.268072 117.67637 
L 134.654149 109.520745 
L 134.040226 98.837532 
L 133.426303 93.151011 
L 132.81238 90.730277 
L 132.198458 89.137677 
L 131.584535 83.666335 
L 130.970612 80.655372 
L 130.356689 78.582031 
L 129.742766 77.87396 
L 129.128843 76.672231 
L 128.51492 79.037915 
L 127.900998 79.708406 
L 127.287075 80.511153 
L 126.673152 82.728258 
L 126.059229 86.802741 
L 125.445306 88.145708 
L 124.831383 93.877509 
L 124.217461 100.458564 
L 123.603538 108.374884 
L 122.989615 115.915639 
L 122.375692 116.029727 
L 121.761769 125.342248 
L 121.147846 129.594001 
L 120.533924 130.42186 
L 119.920001 139.919362 
L 119.306078 148.116083 
L 118.692155 188.161265 
L 118.078232 230.207757 
L 117.464309 161.225238 
L 116.850387 151.929974 
L 116.236464 164.377356 
L 115.622541 139.67827 
L 115.008618 137.250914 
L 114.394695 122.743266 
L 113.780772 116.639218 
L 113.16685 108.965921 
L 112.552927 103.647743 
L 111.939004 100.474732 
L 111.325081 92.481929 
L 110.711158 87.567068 
L 110.097235 81.82192 
L 109.483313 80.357597 
L 108.86939 81.344218 
L 108.255467 76.889549 
L 107.641544 75.205438 
L 107.027621 74.994439 
L 106.413698 76.653783 
L 105.799775 77.04286 
L 105.185853 78.197501 
L 104.57193 80.594025 
L 103.958007 84.282807 
L 103.344084 87.972789 
L 102.730161 92.94766 
L 102.116238 96.595325 
L 101.502316 104.417334 
L 100.888393 114.594952 
L 100.27447 125.575602 
L 99.660547 130.928186 
L 99.046624 137.702714 
L 98.432701 141.469782 
L 97.818779 138.274969 
L 97.204856 151.880836 
L 96.590933 160.627671 
L 95.97701 147.582456 
L 95.363087 145.795079 
L 94.749164 162.337009 
L 94.135242 167.639325 
L 93.521319 191.711916 
L 92.907396 276.803571 
L 92.293473 231.919679 
L 91.67955 165.518104 
L 91.065627 155.505266 
L 90.451705 145.745609 
L 89.837782 146.419774 
L 89.223859 130.805956 
L 88.609936 119.16652 
L 87.996013 108.417926 
L 87.38209 97.457423 
L 86.768168 88.77054 
L 86.154245 80.26905 
L 85.540322 71.738651 
L 84.926399 66.839565 
L 84.312476 65.604937 
L 83.698553 66.728633 
L 83.08463 72.165925 
L 82.470708 77.79678 
L 81.856785 83.683219 
L 81.242862 92.91727 
L 80.628939 99.134405 
L 80.015016 110.35018 
L 79.401093 122.683849 
L 78.787171 137.357195 
L 78.173248 138.162001 
L 77.559325 139.914399 
L 76.945402 141.770708 
L 76.331479 137.757475 
L 75.717556 146.997772 
L 75.103634 164.464063 
L 74.489711 144.331966 
L 73.875788 124.917821 
L 73.261865 102.473004 
L 72.647942 91.950967 
L 72.034019 82.374369 
L 71.420097 77.082309 
L 70.806174 74.279529 
L 70.192251 77.606785 
L 69.578328 87.937292 
L 68.964405 104.245428 
L 68.350482 122.719471 
L 67.73656 152.228963 
L 67.122637 179.547803 
L 66.508714 249.439823 
z
" clip-path="url(#p4a7ce6cc11)" style="fill: #4c72b0; fill-opacity: 0.25; stroke: #4c72b0; stroke-width: 0.3"/>
   </g>
   <g id="patch_3">
    <path d="M 52.282462 171.508862 
L 52.282462 5.188862 
" style="fill: none"/>
   </g>
   <g id="patch_4">
    <path d="M 387.082462 171.508862 
L 387.082462 5.188862 
" style="fill: none"/>
   </g>
   <g id="patch_5">
    <path d="M 52.282462 171.508862 
L 387.082462 171.508862 
" style="fill: none"/>
   </g>
   <g id="patch_6">
    <path d="M 52.282462 5.188862 
L 387.082462 5.188862 
" style="fill: none"/>
   </g>
   <g id="text_14">
    <!-- 0 -->
    <g transform="translate(71.06695 68.04029) scale(0.1 -0.1)">
     <use xlink:href="#CMR17-30" transform="scale(0.996264)"/>
    </g>
   </g>
   <g id="text_15">
    <!-- 1 -->
    <g transform="translate(84.123913 63.223081) scale(0.1 -0.1)">
     <use xlink:href="#CMR17-31" transform="scale(0.996264)"/>
    </g>
   </g>
   <g id="text_16">
    <!-- 2 -->
    <g transform="translate(107.015494 68.56673) scale(0.1 -0.1)">
     <use xlink:href="#CMR17-32" transform="scale(0.996264)"/>
    </g>
   </g>
   <g id="text_17">
    <!-- 3 -->
    <g transform="translate(128.974539 69.758725) scale(0.1 -0.1)">
     <defs>
      <path id="CMR17-33" d="M 1414 2157 
C 1984 2157 2234 1662 2234 1090 
C 2234 320 1824 25 1453 25 
C 1114 25 563 194 390 693 
C 422 680 454 680 486 680 
C 640 680 755 782 755 948 
C 755 1133 614 1216 486 1216 
C 378 1216 211 1165 211 926 
C 211 335 787 -128 1466 -128 
C 2176 -128 2720 430 2720 1085 
C 2720 1707 2208 2157 1600 2227 
C 2086 2328 2554 2756 2554 3329 
C 2554 3820 2048 4179 1472 4179 
C 890 4179 378 3829 378 3329 
C 378 3110 544 3072 627 3072 
C 762 3072 877 3155 877 3321 
C 877 3486 762 3569 627 3569 
C 602 3569 570 3569 544 3557 
C 730 3959 1235 4032 1459 4032 
C 1683 4032 2106 3925 2106 3320 
C 2106 3143 2080 2828 1862 2550 
C 1670 2304 1453 2304 1242 2284 
C 1210 2284 1062 2269 1037 2269 
C 992 2263 966 2257 966 2208 
C 966 2163 973 2157 1101 2157 
L 1414 2157 
z
" transform="scale(0.015625)"/>
     </defs>
     <use xlink:href="#CMR17-33" transform="scale(0.996264)"/>
    </g>
   </g>
   <g id="text_18">
    <!-- 4 -->
    <g transform="translate(147.130996 69.600109) scale(0.1 -0.1)">
     <use xlink:href="#CMR17-34" transform="scale(0.996264)"/>
    </g>
   </g>
   <g id="text_19">
    <!-- 5 -->
    <g transform="translate(171.273608 75.014863) scale(0.1 -0.1)">
     <defs>
      <path id="CMR17-35" d="M 730 3692 
C 794 3666 1056 3584 1325 3584 
C 1920 3584 2246 3911 2432 4100 
C 2432 4157 2432 4192 2394 4192 
C 2387 4192 2374 4192 2323 4163 
C 2099 4058 1837 3973 1517 3973 
C 1325 3973 1037 3999 723 4139 
C 653 4171 640 4171 634 4171 
C 602 4171 595 4164 595 4037 
L 595 2203 
C 595 2089 595 2057 659 2057 
C 691 2057 704 2070 736 2114 
C 941 2401 1222 2522 1542 2522 
C 1766 2522 2246 2382 2246 1289 
C 2246 1085 2246 715 2054 421 
C 1894 159 1645 25 1370 25 
C 947 25 518 320 403 814 
C 429 807 480 795 506 795 
C 589 795 749 840 749 1038 
C 749 1210 627 1280 506 1280 
C 358 1280 262 1190 262 1011 
C 262 454 704 -128 1382 -128 
C 2042 -128 2669 440 2669 1264 
C 2669 2030 2170 2624 1549 2624 
C 1222 2624 947 2503 730 2274 
L 730 3692 
z
" transform="scale(0.015625)"/>
     </defs>
     <use xlink:href="#CMR17-35" transform="scale(0.996264)"/>
    </g>
   </g>
   <g id="text_20">
    <!-- 6 -->
    <g transform="translate(199.17553 73.366903) scale(0.1 -0.1)">
     <use xlink:href="#CMR17-36" transform="scale(0.996264)"/>
    </g>
   </g>
   <g id="text_21">
    <!-- 7 -->
    <g transform="translate(223.273677 72.389657) scale(0.1 -0.1)">
     <defs>
      <path id="CMR17-37" d="M 2886 3941 
L 2886 4081 
L 1382 4081 
C 634 4081 621 4165 595 4288 
L 480 4288 
L 294 3094 
L 410 3094 
C 429 3215 474 3540 550 3661 
C 589 3712 1062 3712 1171 3712 
L 2579 3712 
L 1869 2661 
C 1395 1954 1069 999 1069 165 
C 1069 89 1069 -128 1299 -128 
C 1530 -128 1530 89 1530 171 
L 1530 465 
C 1530 1508 1709 2196 2003 2636 
L 2886 3941 
z
" transform="scale(0.015625)"/>
     </defs>
     <use xlink:href="#CMR17-37" transform="scale(0.996264)"/>
    </g>
   </g>
   <g id="text_22">
    <!-- 8 -->
    <g transform="translate(242.206818 70.952395) scale(0.1 -0.1)">
     <use xlink:href="#CMR17-38" transform="scale(0.996264)"/>
    </g>
   </g>
   <g id="text_23">
    <!-- 9 -->
    <g transform="translate(256.797397 70.322902) scale(0.1 -0.1)">
     <defs>
      <path id="CMR17-39" d="M 2253 1864 
C 2253 464 1670 31 1190 31 
C 1043 31 685 31 538 294 
C 704 268 826 357 826 518 
C 826 692 685 749 595 749 
C 538 749 365 723 365 506 
C 365 71 742 -128 1203 -128 
C 1939 -128 2688 674 2688 2073 
C 2688 3817 1971 4179 1485 4179 
C 851 4179 243 3628 243 2778 
C 243 1991 762 1408 1414 1408 
C 1952 1408 2189 1903 2253 2112 
L 2253 1864 
z
M 1427 1510 
C 1254 1510 1011 1542 813 1922 
C 678 2169 678 2461 678 2771 
C 678 3146 678 3405 858 3684 
C 947 3817 1114 4032 1485 4032 
C 2240 4032 2240 2885 2240 2632 
C 2240 2182 2035 1510 1427 1510 
z
" transform="scale(0.015625)"/>
     </defs>
     <use xlink:href="#CMR17-39" transform="scale(0.996264)"/>
    </g>
   </g>
   <g id="text_24">
    <!-- 10 -->
    <g transform="translate(271.181315 72.016396) scale(0.1 -0.1)">
     <use xlink:href="#CMR17-31" transform="scale(0.996264)"/>
     <use xlink:href="#CMR17-30" transform="translate(45.690477 0) scale(0.996264)"/>
    </g>
   </g>
   <g id="text_25">
    <!-- 11 -->
    <g transform="translate(287.402073 73.760455) scale(0.1 -0.1)">
     <use xlink:href="#CMR17-31" transform="scale(0.996264)"/>
     <use xlink:href="#CMR17-31" transform="translate(45.690477 0) scale(0.996264)"/>
    </g>
   </g>
   <g id="text_26">
    <!-- 12 -->
    <g transform="translate(305.015526 72.677641) scale(0.1 -0.1)">
     <use xlink:href="#CMR17-31" transform="scale(0.996264)"/>
     <use xlink:href="#CMR17-32" transform="translate(45.690477 0) scale(0.996264)"/>
    </g>
   </g>
   <g id="text_27">
    <!-- 13 -->
    <g transform="translate(316.896625 69.681398) scale(0.1 -0.1)">
     <use xlink:href="#CMR17-31" transform="scale(0.996264)"/>
     <use xlink:href="#CMR17-33" transform="translate(45.690477 0) scale(0.996264)"/>
    </g>
   </g>
   <g id="text_28">
    <!-- 14 -->
    <g transform="translate(328.762434 65.452725) scale(0.1 -0.1)">
     <use xlink:href="#CMR17-31" transform="scale(0.996264)"/>
     <use xlink:href="#CMR17-34" transform="translate(45.690477 0) scale(0.996264)"/>
    </g>
   </g>
   <g id="text_29">
    <!-- 15 -->
    <g transform="translate(341.077157 65.927364) scale(0.1 -0.1)">
     <use xlink:href="#CMR17-31" transform="scale(0.996264)"/>
     <use xlink:href="#CMR17-35" transform="translate(45.690477 0) scale(0.996264)"/>
    </g>
   </g>
   <g id="text_30">
    <!-- 16+ -->
    <g transform="translate(352.684741 65.065747) scale(0.1 -0.1)">
     <defs>
      <path id="CMR17-2b" d="M 2413 1472 
L 4109 1472 
C 4198 1472 4307 1472 4307 1580 
C 4307 1695 4205 1695 4109 1695 
L 2413 1695 
L 2413 3386 
C 2413 3475 2413 3584 2304 3584 
C 2189 3584 2189 3482 2189 3386 
L 2189 1695 
L 493 1695 
C 403 1695 294 1695 294 1587 
C 294 1472 397 1472 493 1472 
L 2189 1472 
L 2189 -218 
C 2189 -307 2189 -416 2298 -416 
C 2413 -416 2413 -314 2413 -218 
L 2413 1472 
z
" transform="scale(0.015625)"/>
     </defs>
     <use xlink:href="#CMR17-31" transform="scale(0.996264)"/>
     <use xlink:href="#CMR17-36" transform="translate(45.690477 0) scale(0.996264)"/>
     <use xlink:href="#CMR17-2b" transform="translate(91.380954 0) scale(0.996264)"/>
    </g>
   </g>
   <g id="text_31">
    <!-- MAX -->
    <g style="fill: #262626" transform="translate(319.777993 22.007411) scale(0.15 -0.15)">
     <defs>
      <path id="CMR17-4d" d="M 1338 4224 
C 1299 4320 1293 4320 1158 4320 
L 339 4320 
L 339 4160 
C 781 4160 851 4160 851 3875 
L 851 610 
C 851 451 851 153 339 153 
L 339 -13 
C 486 0 755 0 915 0 
C 1075 0 1344 0 1491 -13 
L 1491 153 
C 979 153 979 451 979 610 
L 979 4135 
L 986 4135 
L 2490 89 
C 2515 25 2528 -13 2579 -13 
C 2630 -13 2643 25 2669 89 
L 4186 4166 
L 4192 4166 
L 4192 438 
C 4192 153 4122 153 3680 153 
L 3680 -13 
C 3853 0 4198 0 4384 0 
C 4570 0 4922 0 5094 -13 
L 5094 153 
C 4653 153 4582 153 4582 438 
L 4582 3875 
C 4582 4160 4653 4160 5094 4160 
L 5094 4320 
L 4282 4320 
C 4147 4320 4141 4314 4102 4218 
L 2720 502 
L 1338 4224 
z
" transform="scale(0.015625)"/>
      <path id="CMR17-41" d="M 2323 4378 
C 2291 4461 2278 4480 2214 4480 
C 2150 4480 2138 4461 2106 4378 
L 749 566 
C 627 223 371 153 147 153 
L 147 -13 
C 262 0 518 0 640 0 
C 800 0 1056 0 1210 -13 
L 1210 153 
C 909 153 864 361 864 439 
C 864 497 877 530 890 569 
L 1229 1536 
L 2906 1536 
L 3290 442 
C 3322 365 3322 352 3322 327 
C 3322 153 3046 153 2925 153 
L 2925 0 
C 3110 0 3443 0 3642 0 
C 3808 0 4128 0 4282 -13 
L 4282 153 
C 3942 153 3827 153 3744 387 
L 2323 4378 
z
M 2067 3893 
L 2848 1702 
L 1286 1702 
L 2067 3893 
z
" transform="scale(0.015625)"/>
      <path id="CMR17-58" d="M 2336 2398 
L 3283 3753 
C 3379 3886 3571 4160 4096 4160 
L 4096 4332 
C 3949 4319 3706 4319 3552 4319 
C 3341 4319 3078 4319 2918 4332 
L 2918 4166 
C 3123 4147 3174 4020 3174 3918 
C 3174 3843 3142 3792 3098 3728 
L 2253 2513 
L 1306 3887 
C 1261 3956 1254 3975 1254 3994 
C 1254 4052 1325 4160 1536 4160 
L 1536 4319 
C 1331 4319 1018 4319 806 4319 
C 640 4319 320 4319 166 4332 
L 166 4160 
C 518 4160 634 4148 774 3951 
L 2010 2163 
L 896 549 
C 621 153 205 153 83 153 
L 83 -13 
C 230 0 474 0 627 0 
C 800 0 1101 0 1261 -13 
L 1261 153 
C 1062 172 1005 299 1005 401 
C 1005 483 1037 528 1069 572 
L 2093 2048 
L 3206 422 
C 3258 352 3258 333 3258 314 
C 3258 263 3200 153 2976 153 
L 2976 0 
C 3181 0 3494 0 3706 0 
C 3872 0 4192 0 4346 -13 
L 4346 153 
C 3936 153 3872 184 3744 363 
L 2336 2398 
z
" transform="scale(0.015625)"/>
     </defs>
     <use xlink:href="#CMR17-4d" transform="scale(0.996264)"/>
     <use xlink:href="#CMR17-41" transform="translate(84.686941 0) scale(0.996264)"/>
     <use xlink:href="#CMR17-58" transform="translate(153.75937 0) scale(0.996264)"/>
    </g>
   </g>
  </g>
 </g>
 <defs>
  <clipPath id="p4a7ce6cc11">
   <rect x="52.282462" y="5.188862" width="334.8" height="166.32"/>
  </clipPath>
 </defs>
</svg>
