<?xml version="1.0" encoding="utf-8" standalone="no"?>
<!DOCTYPE svg PUBLIC "-//W3C//DTD SVG 1.1//EN"
  "http://www.w3.org/Graphics/SVG/1.1/DTD/svg11.dtd">
<svg xmlns:xlink="http://www.w3.org/1999/xlink" width="387.082462pt" height="209.075801pt" viewBox="0 0 387.082462 209.075801" xmlns="http://www.w3.org/2000/svg" version="1.1">
 <metadata>
  <rdf:RDF xmlns:dc="http://purl.org/dc/elements/1.1/" xmlns:cc="http://creativecommons.org/ns#" xmlns:rdf="http://www.w3.org/1999/02/22-rdf-syntax-ns#">
   <cc:Work>
    <dc:type rdf:resource="http://purl.org/dc/dcmitype/StillImage"/>
    <dc:date>2024-10-10T15:01:47.197345</dc:date>
    <dc:format>image/svg+xml</dc:format>
    <dc:creator>
     <cc:Agent>
      <dc:title>Matplotlib v3.9.2, https://matplotlib.org/</dc:title>
     </cc:Agent>
    </dc:creator>
   </cc:Work>
  </rdf:RDF>
 </metadata>
 <defs>
  <style type="text/css">*{stroke-linejoin: round; stroke-linecap: butt}</style>
 </defs>
 <g id="figure_1">
  <g id="patch_1">
   <path d="M 0 209.075801 
L 387.082462 209.075801 
L 387.082462 0 
L 0 0 
z
" style="fill: #ffffff"/>
  </g>
  <g id="axes_1">
   <g id="patch_2">
    <path d="M 52.282462 171.508862 
L 387.082462 171.508862 
L 387.082462 5.188862 
L 52.282462 5.188862 
z
" style="fill: #eaeaf2"/>
   </g>
   <g id="matplotlib.axis_1">
    <g id="xtick_1">
     <g id="line2d_1">
      <path d="M 67.500644 171.508862 
L 67.500644 5.188862 
" clip-path="url(#p2194fe7ae9)" style="fill: none; stroke: #ffffff; stroke-linecap: round"/>
     </g>
     <g id="line2d_2"/>
     <g id="text_1">
      <!-- $\mathdefault{0.0}$ -->
      <g style="fill: #262626" transform="translate(58.152118 188.886587) scale(0.15 -0.15)">
       <defs>
        <path id="CMR17-30" d="M 2688 2025 
C 2688 2416 2682 3080 2413 3591 
C 2176 4039 1798 4198 1466 4198 
C 1158 4198 768 4058 525 3597 
C 269 3118 243 2524 243 2025 
C 243 1661 250 1106 448 619 
C 723 -39 1216 -128 1466 -128 
C 1760 -128 2208 -7 2470 600 
C 2662 1042 2688 1559 2688 2025 
z
M 1466 -26 
C 1056 -26 813 325 723 812 
C 653 1188 653 1738 653 2096 
C 653 2588 653 2997 736 3387 
C 858 3929 1216 4096 1466 4096 
C 1728 4096 2067 3923 2189 3400 
C 2272 3036 2278 2607 2278 2096 
C 2278 1680 2278 1169 2202 792 
C 2067 95 1690 -26 1466 -26 
z
" transform="scale(0.015625)"/>
        <path id="CMMI12-3a" d="M 1178 307 
C 1178 492 1024 619 870 619 
C 685 619 557 466 557 313 
C 557 128 710 0 864 0 
C 1050 0 1178 153 1178 307 
z
" transform="scale(0.015625)"/>
       </defs>
       <use xlink:href="#CMR17-30" transform="scale(0.996264)"/>
       <use xlink:href="#CMMI12-3a" transform="translate(45.690477 0) scale(0.996264)"/>
       <use xlink:href="#CMR17-30" transform="translate(72.787654 0) scale(0.996264)"/>
      </g>
     </g>
    </g>
    <g id="xtick_2">
     <g id="line2d_3">
      <path d="M 128.373371 171.508862 
L 128.373371 5.188862 
" clip-path="url(#p2194fe7ae9)" style="fill: none; stroke: #ffffff; stroke-linecap: round"/>
     </g>
     <g id="line2d_4"/>
     <g id="text_2">
      <!-- $\mathdefault{0.2}$ -->
      <g style="fill: #262626" transform="translate(119.024845 188.886587) scale(0.15 -0.15)">
       <defs>
        <path id="CMR17-32" d="M 2669 989 
L 2554 989 
C 2490 536 2438 459 2413 420 
C 2381 369 1920 369 1830 369 
L 602 369 
C 832 619 1280 1072 1824 1597 
C 2214 1967 2669 2402 2669 3035 
C 2669 3790 2067 4224 1395 4224 
C 691 4224 262 3604 262 3030 
C 262 2780 448 2748 525 2748 
C 589 2748 781 2787 781 3010 
C 781 3207 614 3264 525 3264 
C 486 3264 448 3258 422 3245 
C 544 3790 915 4058 1306 4058 
C 1862 4058 2227 3617 2227 3035 
C 2227 2479 1901 2000 1536 1584 
L 262 146 
L 262 0 
L 2515 0 
L 2669 989 
z
" transform="scale(0.015625)"/>
       </defs>
       <use xlink:href="#CMR17-30" transform="scale(0.996264)"/>
       <use xlink:href="#CMMI12-3a" transform="translate(45.690477 0) scale(0.996264)"/>
       <use xlink:href="#CMR17-32" transform="translate(72.787654 0) scale(0.996264)"/>
      </g>
     </g>
    </g>
    <g id="xtick_3">
     <g id="line2d_5">
      <path d="M 189.246098 171.508862 
L 189.246098 5.188862 
" clip-path="url(#p2194fe7ae9)" style="fill: none; stroke: #ffffff; stroke-linecap: round"/>
     </g>
     <g id="line2d_6"/>
     <g id="text_3">
      <!-- $\mathdefault{0.4}$ -->
      <g style="fill: #262626" transform="translate(179.897572 188.886587) scale(0.15 -0.15)">
       <defs>
        <path id="CMR17-34" d="M 2150 4122 
C 2150 4256 2144 4256 2029 4256 
L 128 1254 
L 128 1088 
L 1779 1088 
L 1779 457 
C 1779 224 1766 160 1318 160 
L 1197 160 
L 1197 0 
C 1402 0 1747 0 1965 0 
C 2182 0 2528 0 2733 0 
L 2733 160 
L 2611 160 
C 2163 160 2150 224 2150 457 
L 2150 1088 
L 2803 1088 
L 2803 1254 
L 2150 1254 
L 2150 4122 
z
M 1798 3703 
L 1798 1254 
L 256 1254 
L 1798 3703 
z
" transform="scale(0.015625)"/>
       </defs>
       <use xlink:href="#CMR17-30" transform="scale(0.996264)"/>
       <use xlink:href="#CMMI12-3a" transform="translate(45.690477 0) scale(0.996264)"/>
       <use xlink:href="#CMR17-34" transform="translate(72.787654 0) scale(0.996264)"/>
      </g>
     </g>
    </g>
    <g id="xtick_4">
     <g id="line2d_7">
      <path d="M 250.118826 171.508862 
L 250.118826 5.188862 
" clip-path="url(#p2194fe7ae9)" style="fill: none; stroke: #ffffff; stroke-linecap: round"/>
     </g>
     <g id="line2d_8"/>
     <g id="text_4">
      <!-- $\mathdefault{0.6}$ -->
      <g style="fill: #262626" transform="translate(240.770299 188.886587) scale(0.15 -0.15)">
       <defs>
        <path id="CMR17-36" d="M 678 2176 
C 678 3690 1395 4032 1811 4032 
C 1946 4032 2272 4009 2400 3776 
C 2298 3776 2106 3776 2106 3553 
C 2106 3381 2246 3323 2336 3323 
C 2394 3323 2566 3348 2566 3560 
C 2566 3954 2246 4179 1805 4179 
C 1043 4179 243 3390 243 1984 
C 243 253 966 -128 1478 -128 
C 2099 -128 2688 427 2688 1283 
C 2688 2081 2170 2662 1517 2662 
C 1126 2662 838 2407 678 1960 
L 678 2176 
z
M 1478 25 
C 691 25 691 1200 691 1436 
C 691 1896 909 2560 1504 2560 
C 1613 2560 1926 2560 2138 2120 
C 2253 1870 2253 1609 2253 1289 
C 2253 944 2253 690 2118 434 
C 1978 171 1773 25 1478 25 
z
" transform="scale(0.015625)"/>
       </defs>
       <use xlink:href="#CMR17-30" transform="scale(0.996264)"/>
       <use xlink:href="#CMMI12-3a" transform="translate(45.690477 0) scale(0.996264)"/>
       <use xlink:href="#CMR17-36" transform="translate(72.787654 0) scale(0.996264)"/>
      </g>
     </g>
    </g>
    <g id="xtick_5">
     <g id="line2d_9">
      <path d="M 310.991553 171.508862 
L 310.991553 5.188862 
" clip-path="url(#p2194fe7ae9)" style="fill: none; stroke: #ffffff; stroke-linecap: round"/>
     </g>
     <g id="line2d_10"/>
     <g id="text_5">
      <!-- $\mathdefault{0.8}$ -->
      <g style="fill: #262626" transform="translate(301.643027 188.886587) scale(0.15 -0.15)">
       <defs>
        <path id="CMR17-38" d="M 1741 2264 
C 2144 2467 2554 2773 2554 3263 
C 2554 3841 1990 4179 1472 4179 
C 890 4179 378 3759 378 3180 
C 378 3021 416 2747 666 2505 
C 730 2442 998 2251 1171 2130 
C 883 1983 211 1634 211 934 
C 211 279 838 -128 1459 -128 
C 2144 -128 2720 362 2720 1010 
C 2720 1590 2330 1857 2074 2029 
L 1741 2264 
z
M 902 2822 
C 851 2854 595 3051 595 3351 
C 595 3739 998 4032 1459 4032 
C 1965 4032 2336 3676 2336 3262 
C 2336 2669 1670 2331 1638 2331 
C 1632 2331 1626 2331 1574 2370 
L 902 2822 
z
M 2080 1519 
C 2176 1449 2483 1240 2483 851 
C 2483 381 2010 25 1472 25 
C 890 25 448 438 448 940 
C 448 1443 838 1862 1280 2060 
L 2080 1519 
z
" transform="scale(0.015625)"/>
       </defs>
       <use xlink:href="#CMR17-30" transform="scale(0.996264)"/>
       <use xlink:href="#CMMI12-3a" transform="translate(45.690477 0) scale(0.996264)"/>
       <use xlink:href="#CMR17-38" transform="translate(72.787654 0) scale(0.996264)"/>
      </g>
     </g>
    </g>
    <g id="xtick_6">
     <g id="line2d_11">
      <path d="M 371.86428 171.508862 
L 371.86428 5.188862 
" clip-path="url(#p2194fe7ae9)" style="fill: none; stroke: #ffffff; stroke-linecap: round"/>
     </g>
     <g id="line2d_12"/>
     <g id="text_6">
      <!-- $\mathdefault{1.0}$ -->
      <g style="fill: #262626" transform="translate(362.515754 188.886587) scale(0.15 -0.15)">
       <defs>
        <path id="CMR17-31" d="M 1702 4058 
C 1702 4192 1696 4192 1606 4192 
C 1357 3916 979 3827 621 3827 
C 602 3827 570 3827 563 3808 
C 557 3795 557 3782 557 3648 
C 755 3648 1088 3686 1344 3839 
L 1344 461 
C 1344 236 1331 160 781 160 
L 589 160 
L 589 0 
C 896 0 1216 0 1523 0 
C 1830 0 2150 0 2458 0 
L 2458 160 
L 2266 160 
C 1715 160 1702 230 1702 458 
L 1702 4058 
z
" transform="scale(0.015625)"/>
       </defs>
       <use xlink:href="#CMR17-31" transform="scale(0.996264)"/>
       <use xlink:href="#CMMI12-3a" transform="translate(45.690477 0) scale(0.996264)"/>
       <use xlink:href="#CMR17-30" transform="translate(72.787654 0) scale(0.996264)"/>
      </g>
     </g>
    </g>
    <g id="text_7">
     <!-- $s_1$ -->
     <g style="fill: #262626" transform="translate(213.621025 206.170057) scale(0.15 -0.15)">
      <defs>
       <path id="CMMI12-73" d="M 1459 1280 
C 1568 1261 1741 1223 1779 1216 
C 1862 1192 2150 1090 2150 783 
C 2150 586 1971 70 1229 70 
C 1094 70 614 70 486 436 
C 742 404 870 603 870 745 
C 870 880 781 950 653 950 
C 512 950 326 841 326 552 
C 326 173 710 -64 1222 -64 
C 2195 -64 2483 651 2483 984 
C 2483 1079 2483 1258 2278 1462 
C 2118 1616 1965 1648 1619 1718 
C 1446 1756 1171 1814 1171 2101 
C 1171 2229 1286 2689 1894 2689 
C 2163 2689 2426 2589 2490 2368 
C 2208 2368 2195 2125 2195 2119 
C 2195 1984 2317 1946 2374 1946 
C 2464 1946 2643 2015 2643 2281 
C 2643 2545 2400 2816 1901 2816 
C 1062 2816 838 2160 838 1899 
C 838 1414 1312 1312 1459 1280 
z
" transform="scale(0.015625)"/>
      </defs>
      <use xlink:href="#CMMI12-73" transform="scale(0.996264)"/>
      <use xlink:href="#CMR17-31" transform="translate(45.950048 -14.943915) scale(0.697382)"/>
     </g>
    </g>
   </g>
   <g id="matplotlib.axis_2">
    <g id="ytick_1">
     <g id="line2d_13">
      <path d="M 52.282462 171.508862 
L 387.082462 171.508862 
" clip-path="url(#p2194fe7ae9)" style="fill: none; stroke: #ffffff; stroke-linecap: round"/>
     </g>
     <g id="line2d_14"/>
     <g id="text_8">
      <!-- $\mathdefault{10^{-2}}$ -->
      <g style="fill: #262626" transform="translate(17.283469 176.697725) scale(0.15 -0.15)">
       <defs>
        <path id="CMSY10-0" d="M 4218 1472 
C 4326 1472 4442 1472 4442 1600 
C 4442 1728 4326 1728 4218 1728 
L 755 1728 
C 646 1728 531 1728 531 1600 
C 531 1472 646 1472 755 1472 
L 4218 1472 
z
" transform="scale(0.015625)"/>
       </defs>
       <use xlink:href="#CMR17-31" transform="scale(0.996264)"/>
       <use xlink:href="#CMR17-30" transform="translate(45.690477 0) scale(0.996264)"/>
       <use xlink:href="#CMSY10-0" transform="translate(91.380954 36.153639) scale(0.697382)"/>
       <use xlink:href="#CMR17-32" transform="translate(145.621947 36.153639) scale(0.697382)"/>
      </g>
     </g>
    </g>
    <g id="ytick_2">
     <g id="line2d_15">
      <path d="M 52.282462 129.928862 
L 387.082462 129.928862 
" clip-path="url(#p2194fe7ae9)" style="fill: none; stroke: #ffffff; stroke-linecap: round"/>
     </g>
     <g id="line2d_16"/>
     <g id="text_9">
      <!-- $\mathdefault{10^{-1}}$ -->
      <g style="fill: #262626" transform="translate(17.283469 135.117725) scale(0.15 -0.15)">
       <use xlink:href="#CMR17-31" transform="scale(0.996264)"/>
       <use xlink:href="#CMR17-30" transform="translate(45.690477 0) scale(0.996264)"/>
       <use xlink:href="#CMSY10-0" transform="translate(91.380954 36.153639) scale(0.697382)"/>
       <use xlink:href="#CMR17-31" transform="translate(145.621947 36.153639) scale(0.697382)"/>
      </g>
     </g>
    </g>
    <g id="ytick_3">
     <g id="line2d_17">
      <path d="M 52.282462 88.348862 
L 387.082462 88.348862 
" clip-path="url(#p2194fe7ae9)" style="fill: none; stroke: #ffffff; stroke-linecap: round"/>
     </g>
     <g id="line2d_18"/>
     <g id="text_10">
      <!-- $\mathdefault{10^{0}}$ -->
      <g style="fill: #262626" transform="translate(25.419615 93.537725) scale(0.15 -0.15)">
       <use xlink:href="#CMR17-31" transform="scale(0.996264)"/>
       <use xlink:href="#CMR17-30" transform="translate(45.690477 0) scale(0.996264)"/>
       <use xlink:href="#CMR17-30" transform="translate(91.380954 36.153639) scale(0.697382)"/>
      </g>
     </g>
    </g>
    <g id="ytick_4">
     <g id="line2d_19">
      <path d="M 52.282462 46.768862 
L 387.082462 46.768862 
" clip-path="url(#p2194fe7ae9)" style="fill: none; stroke: #ffffff; stroke-linecap: round"/>
     </g>
     <g id="line2d_20"/>
     <g id="text_11">
      <!-- $\mathdefault{10^{1}}$ -->
      <g style="fill: #262626" transform="translate(25.419615 51.957725) scale(0.15 -0.15)">
       <use xlink:href="#CMR17-31" transform="scale(0.996264)"/>
       <use xlink:href="#CMR17-30" transform="translate(45.690477 0) scale(0.996264)"/>
       <use xlink:href="#CMR17-31" transform="translate(91.380954 36.153639) scale(0.697382)"/>
      </g>
     </g>
    </g>
    <g id="ytick_5">
     <g id="line2d_21">
      <path d="M 52.282462 5.188862 
L 387.082462 5.188862 
" clip-path="url(#p2194fe7ae9)" style="fill: none; stroke: #ffffff; stroke-linecap: round"/>
     </g>
     <g id="line2d_22"/>
     <g id="text_12">
      <!-- $\mathdefault{10^{2}}$ -->
      <g style="fill: #262626" transform="translate(25.419615 10.377725) scale(0.15 -0.15)">
       <use xlink:href="#CMR17-31" transform="scale(0.996264)"/>
       <use xlink:href="#CMR17-30" transform="translate(45.690477 0) scale(0.996264)"/>
       <use xlink:href="#CMR17-32" transform="translate(91.380954 36.153639) scale(0.697382)"/>
      </g>
     </g>
    </g>
    <g id="ytick_6">
     <g id="line2d_23"/>
    </g>
    <g id="ytick_7">
     <g id="line2d_24"/>
    </g>
    <g id="ytick_8">
     <g id="line2d_25"/>
    </g>
    <g id="ytick_9">
     <g id="line2d_26"/>
    </g>
    <g id="ytick_10">
     <g id="line2d_27"/>
    </g>
    <g id="ytick_11">
     <g id="line2d_28"/>
    </g>
    <g id="ytick_12">
     <g id="line2d_29"/>
    </g>
    <g id="ytick_13">
     <g id="line2d_30"/>
    </g>
    <g id="ytick_14">
     <g id="line2d_31"/>
    </g>
    <g id="ytick_15">
     <g id="line2d_32"/>
    </g>
    <g id="ytick_16">
     <g id="line2d_33"/>
    </g>
    <g id="ytick_17">
     <g id="line2d_34"/>
    </g>
    <g id="ytick_18">
     <g id="line2d_35"/>
    </g>
    <g id="ytick_19">
     <g id="line2d_36"/>
    </g>
    <g id="ytick_20">
     <g id="line2d_37"/>
    </g>
    <g id="ytick_21">
     <g id="line2d_38"/>
    </g>
    <g id="ytick_22">
     <g id="line2d_39"/>
    </g>
    <g id="ytick_23">
     <g id="line2d_40"/>
    </g>
    <g id="ytick_24">
     <g id="line2d_41"/>
    </g>
    <g id="ytick_25">
     <g id="line2d_42"/>
    </g>
    <g id="ytick_26">
     <g id="line2d_43"/>
    </g>
    <g id="ytick_27">
     <g id="line2d_44"/>
    </g>
    <g id="ytick_28">
     <g id="line2d_45"/>
    </g>
    <g id="ytick_29">
     <g id="line2d_46"/>
    </g>
    <g id="ytick_30">
     <g id="line2d_47"/>
    </g>
    <g id="ytick_31">
     <g id="line2d_48"/>
    </g>
    <g id="ytick_32">
     <g id="line2d_49"/>
    </g>
    <g id="ytick_33">
     <g id="line2d_50"/>
    </g>
    <g id="ytick_34">
     <g id="line2d_51"/>
    </g>
    <g id="ytick_35">
     <g id="line2d_52"/>
    </g>
    <g id="ytick_36">
     <g id="line2d_53"/>
    </g>
    <g id="ytick_37">
     <g id="line2d_54"/>
    </g>
    <g id="text_13">
     <!-- Density -->
     <g style="fill: #262626" transform="translate(10.377725 112.674048) rotate(-90) scale(0.15 -0.15)">
      <defs>
       <path id="CMR17-44" d="M 333 4352 
L 333 4186 
C 774 4186 845 4186 845 3900 
L 845 452 
C 845 166 774 166 333 166 
L 333 0 
L 2368 0 
C 3398 0 4224 943 4224 2141 
C 4224 3346 3411 4352 2368 4352 
L 333 4352 
z
M 1523 166 
C 1267 166 1254 197 1254 414 
L 1254 3938 
C 1254 4155 1267 4186 1523 4186 
L 2240 4186 
C 2771 4186 3750 3874 3750 2141 
C 3750 1242 3488 879 3366 707 
C 3213 510 2848 166 2240 166 
L 1523 166 
z
" transform="scale(0.015625)"/>
       <path id="CMR17-65" d="M 2438 1472 
C 2464 1498 2464 1511 2464 1576 
C 2464 2238 2118 2816 1389 2816 
C 710 2816 173 2169 173 1383 
C 173 551 781 -64 1459 -64 
C 2176 -64 2458 607 2458 740 
C 2458 784 2419 784 2406 784 
C 2362 784 2355 771 2330 696 
C 2189 265 1837 51 1504 51 
C 1229 51 954 203 781 480 
C 582 803 582 1176 582 1472 
L 2438 1472 
z
M 589 1568 
C 634 2505 1126 2714 1382 2714 
C 1818 2714 2112 2297 2118 1568 
L 589 1568 
z
" transform="scale(0.015625)"/>
       <path id="CMR17-6e" d="M 2656 1933 
C 2656 2259 2592 2790 1837 2790 
C 1331 2790 1069 2400 973 2144 
L 966 2144 
L 966 2790 
L 211 2720 
L 211 2554 
C 589 2554 646 2515 646 2208 
L 646 428 
C 646 184 621 153 211 153 
L 211 -13 
C 365 0 646 0 813 0 
C 979 0 1267 0 1421 -13 
L 1421 153 
C 1011 153 986 178 986 428 
L 986 1658 
C 986 2247 1344 2688 1792 2688 
C 2266 2688 2317 2266 2317 1958 
L 2317 428 
C 2317 184 2291 153 1882 153 
L 1882 -13 
C 2035 0 2317 0 2483 0 
C 2650 0 2938 0 3091 -13 
L 3091 153 
C 2682 153 2656 178 2656 428 
L 2656 1933 
z
" transform="scale(0.015625)"/>
       <path id="CMR17-73" d="M 1978 2697 
C 1978 2813 1971 2819 1933 2819 
C 1907 2819 1901 2813 1824 2717 
C 1805 2691 1747 2626 1728 2601 
C 1523 2819 1235 2819 1126 2819 
C 416 2819 160 2447 160 2076 
C 160 1498 813 1365 998 1325 
C 1402 1243 1542 1217 1677 1101 
C 1760 1025 1901 884 1901 654 
C 1901 384 1747 38 1158 38 
C 602 38 403 460 288 1021 
C 269 1110 269 1117 218 1117 
C 166 1117 160 1110 160 983 
L 160 63 
C 160 -51 166 -58 205 -58 
C 237 -58 243 -51 275 0 
C 314 57 410 211 448 276 
C 576 103 800 -64 1158 -64 
C 1792 -64 2131 283 2131 784 
C 2131 1112 1958 1285 1875 1362 
C 1683 1561 1459 1606 1190 1657 
C 838 1735 390 1825 390 2217 
C 390 2383 480 2737 1126 2737 
C 1811 2737 1850 2094 1862 1888 
C 1869 1856 1901 1849 1920 1849 
C 1978 1849 1978 1869 1978 1978 
L 1978 2697 
z
" transform="scale(0.015625)"/>
       <path id="CMR17-69" d="M 992 3909 
C 992 4049 877 4170 730 4170 
C 589 4170 467 4056 467 3909 
C 467 3769 582 3648 730 3648 
C 870 3648 992 3763 992 3909 
z
M 243 2706 
L 243 2541 
C 602 2541 653 2502 653 2197 
L 653 427 
C 653 184 627 153 218 153 
L 218 -13 
C 371 0 646 0 806 0 
C 960 0 1222 0 1370 -13 
L 1370 153 
C 992 153 979 191 979 420 
L 979 2776 
L 243 2706 
z
" transform="scale(0.015625)"/>
       <path id="CMR17-74" d="M 966 2560 
L 1862 2560 
L 1862 2725 
L 966 2725 
L 966 3904 
L 851 3904 
C 838 3245 614 2668 70 2668 
L 70 2560 
L 627 2560 
L 627 771 
C 627 650 627 -64 1370 -64 
C 1747 -64 1965 306 1965 777 
L 1965 1140 
L 1850 1140 
L 1850 783 
C 1850 344 1677 51 1408 51 
C 1222 51 966 178 966 758 
L 966 2560 
z
" transform="scale(0.015625)"/>
       <path id="CMR17-79" d="M 2496 2197 
C 2656 2586 2944 2586 3034 2586 
L 3034 2752 
C 2912 2752 2752 2752 2630 2752 
C 2496 2752 2285 2752 2157 2758 
L 2157 2592 
C 2400 2573 2406 2394 2406 2343 
C 2406 2280 2394 2248 2362 2171 
L 1664 449 
L 902 2306 
C 870 2382 870 2426 870 2433 
C 870 2573 1018 2586 1171 2586 
L 1171 2758 
C 1018 2752 742 2752 582 2752 
C 410 2752 205 2752 64 2758 
L 64 2586 
C 410 2586 448 2554 531 2350 
L 1485 15 
C 1197 -738 1030 -1178 627 -1178 
C 557 -1178 397 -1159 282 -1044 
C 429 -1031 493 -942 493 -833 
C 493 -725 416 -629 288 -629 
C 147 -629 77 -725 77 -840 
C 77 -1095 339 -1280 627 -1280 
C 998 -1280 1229 -922 1357 -604 
L 2496 2197 
z
" transform="scale(0.015625)"/>
      </defs>
      <use xlink:href="#CMR17-44" transform="scale(0.996264)"/>
      <use xlink:href="#CMR17-65" transform="translate(70.393556 0) scale(0.996264)"/>
      <use xlink:href="#CMR17-6e" transform="translate(110.879216 0) scale(0.996264)"/>
      <use xlink:href="#CMR17-73" transform="translate(161.774586 0) scale(0.996264)"/>
      <use xlink:href="#CMR17-69" transform="translate(197.575924 0) scale(0.996264)"/>
      <use xlink:href="#CMR17-74" transform="translate(222.446982 0) scale(0.996264)"/>
      <use xlink:href="#CMR17-79" transform="translate(255.125296 0) scale(0.996264)"/>
     </g>
    </g>
   </g>
   <g id="PolyCollection_1">
    <path d="M 66.855891 235.342869 
L 66.855891 41668.348862 
L 67.468422 41668.348862 
L 68.080953 41668.348862 
L 68.693485 41668.348862 
L 69.306016 41668.348862 
L 69.918547 41668.348862 
L 70.531079 41668.348862 
L 71.14361 41668.348862 
L 71.756141 41668.348862 
L 72.368673 41668.348862 
L 72.981204 41668.348862 
L 73.593736 41668.348862 
L 74.206267 41668.348862 
L 74.818798 41668.348862 
L 75.43133 41668.348862 
L 76.043861 41668.348862 
L 76.656392 41668.348862 
L 77.268924 41668.348862 
L 77.881455 41668.348862 
L 78.493986 41668.348862 
L 79.106518 41668.348862 
L 79.719049 41668.348862 
L 80.33158 41668.348862 
L 80.944112 41668.348862 
L 81.556643 41668.348862 
L 82.169174 41668.348862 
L 82.781706 41668.348862 
L 83.394237 41668.348862 
L 84.006768 41668.348862 
L 84.6193 41668.348862 
L 85.231831 41668.348862 
L 85.844362 41668.348862 
L 86.456894 41668.348862 
L 87.069425 41668.348862 
L 87.681957 41668.348862 
L 88.294488 41668.348862 
L 88.907019 41668.348862 
L 89.519551 41668.348862 
L 90.132082 41668.348862 
L 90.744613 41668.348862 
L 91.357145 41668.348862 
L 91.969676 41668.348862 
L 92.582207 41668.348862 
L 93.194739 41668.348862 
L 93.80727 41668.348862 
L 94.419801 41668.348862 
L 95.032333 41668.348862 
L 95.644864 41668.348862 
L 96.257395 41668.348862 
L 96.869927 41668.348862 
L 97.482458 41668.348862 
L 98.094989 41668.348862 
L 98.707521 41668.348862 
L 99.320052 41668.348862 
L 99.932583 41668.348862 
L 100.545115 41668.348862 
L 101.157646 41668.348862 
L 101.770177 41668.348862 
L 102.382709 41668.348862 
L 102.99524 41668.348862 
L 103.607772 41668.348862 
L 104.220303 41668.348862 
L 104.832834 41668.348862 
L 105.445366 41668.348862 
L 106.057897 41668.348862 
L 106.670428 41668.348862 
L 107.28296 41668.348862 
L 107.895491 41668.348862 
L 108.508022 41668.348862 
L 109.120554 41668.348862 
L 109.733085 41668.348862 
L 110.345616 41668.348862 
L 110.958148 41668.348862 
L 111.570679 41668.348862 
L 112.18321 41668.348862 
L 112.795742 41668.348862 
L 113.408273 41668.348862 
L 114.020804 41668.348862 
L 114.633336 41668.348862 
L 115.245867 41668.348862 
L 115.858398 41668.348862 
L 116.47093 41668.348862 
L 117.083461 41668.348862 
L 117.695993 41668.348862 
L 118.308524 41668.348862 
L 118.921055 41668.348862 
L 119.533587 41668.348862 
L 120.146118 41668.348862 
L 120.758649 41668.348862 
L 121.371181 41668.348862 
L 121.983712 41668.348862 
L 122.596243 41668.348862 
L 123.208775 41668.348862 
L 123.821306 41668.348862 
L 124.433837 41668.348862 
L 125.046369 41668.348862 
L 125.6589 41668.348862 
L 126.271431 41668.348862 
L 126.883963 41668.348862 
L 127.496494 41668.348862 
L 128.109025 41668.348862 
L 128.721557 41668.348862 
L 129.334088 41668.348862 
L 129.946619 41668.348862 
L 130.559151 41668.348862 
L 131.171682 41668.348862 
L 131.784214 41668.348862 
L 132.396745 41668.348862 
L 133.009276 41668.348862 
L 133.621808 41668.348862 
L 134.234339 41668.348862 
L 134.84687 41668.348862 
L 135.459402 41668.348862 
L 136.071933 41668.348862 
L 136.684464 41668.348862 
L 137.296996 41668.348862 
L 137.909527 41668.348862 
L 138.522058 41668.348862 
L 139.13459 41668.348862 
L 139.747121 41668.348862 
L 140.359652 41668.348862 
L 140.972184 41668.348862 
L 141.584715 41668.348862 
L 142.197246 41668.348862 
L 142.809778 41668.348862 
L 143.422309 41668.348862 
L 144.03484 41668.348862 
L 144.647372 41668.348862 
L 145.259903 41668.348862 
L 145.872435 41668.348862 
L 146.484966 41668.348862 
L 147.097497 41668.348862 
L 147.710029 41668.348862 
L 148.32256 41668.348862 
L 148.935091 41668.348862 
L 149.547623 41668.348862 
L 150.160154 41668.348862 
L 150.772685 41668.348862 
L 151.385217 41668.348862 
L 151.997748 41668.348862 
L 152.610279 41668.348862 
L 153.222811 41668.348862 
L 153.835342 41668.348862 
L 154.447873 41668.348862 
L 155.060405 41668.348862 
L 155.672936 41668.348862 
L 156.285467 41668.348862 
L 156.897999 41668.348862 
L 157.51053 41668.348862 
L 158.123061 41668.348862 
L 158.735593 41668.348862 
L 159.348124 41668.348862 
L 159.960656 41668.348862 
L 160.573187 41668.348862 
L 161.185718 41668.348862 
L 161.79825 41668.348862 
L 162.410781 41668.348862 
L 163.023312 41668.348862 
L 163.635844 41668.348862 
L 164.248375 41668.348862 
L 164.860906 41668.348862 
L 165.473438 41668.348862 
L 166.085969 41668.348862 
L 166.6985 41668.348862 
L 167.311032 41668.348862 
L 167.923563 41668.348862 
L 168.536094 41668.348862 
L 169.148626 41668.348862 
L 169.761157 41668.348862 
L 170.373688 41668.348862 
L 170.98622 41668.348862 
L 171.598751 41668.348862 
L 172.211282 41668.348862 
L 172.823814 41668.348862 
L 173.436345 41668.348862 
L 174.048876 41668.348862 
L 174.661408 41668.348862 
L 175.273939 41668.348862 
L 175.886471 41668.348862 
L 176.499002 41668.348862 
L 177.111533 41668.348862 
L 177.724065 41668.348862 
L 178.336596 41668.348862 
L 178.949127 41668.348862 
L 179.561659 41668.348862 
L 180.17419 41668.348862 
L 180.786721 41668.348862 
L 181.399253 41668.348862 
L 182.011784 41668.348862 
L 182.624315 41668.348862 
L 183.236847 41668.348862 
L 183.849378 41668.348862 
L 184.461909 41668.348862 
L 185.074441 41668.348862 
L 185.686972 41668.348862 
L 186.299503 41668.348862 
L 186.912035 41668.348862 
L 187.524566 41668.348862 
L 188.137097 41668.348862 
L 188.749629 41668.348862 
L 189.36216 41668.348862 
L 189.974692 41668.348862 
L 190.587223 41668.348862 
L 191.199754 41668.348862 
L 191.812286 41668.348862 
L 192.424817 41668.348862 
L 193.037348 41668.348862 
L 193.64988 41668.348862 
L 194.262411 41668.348862 
L 194.874942 41668.348862 
L 195.487474 41668.348862 
L 196.100005 41668.348862 
L 196.712536 41668.348862 
L 197.325068 41668.348862 
L 197.937599 41668.348862 
L 198.55013 41668.348862 
L 199.162662 41668.348862 
L 199.775193 41668.348862 
L 200.387724 41668.348862 
L 201.000256 41668.348862 
L 201.612787 41668.348862 
L 202.225318 41668.348862 
L 202.83785 41668.348862 
L 203.450381 41668.348862 
L 204.062913 41668.348862 
L 204.675444 41668.348862 
L 205.287975 41668.348862 
L 205.900507 41668.348862 
L 206.513038 41668.348862 
L 207.125569 41668.348862 
L 207.738101 41668.348862 
L 208.350632 41668.348862 
L 208.963163 41668.348862 
L 209.575695 41668.348862 
L 210.188226 41668.348862 
L 210.800757 41668.348862 
L 211.413289 41668.348862 
L 212.02582 41668.348862 
L 212.638351 41668.348862 
L 213.250883 41668.348862 
L 213.863414 41668.348862 
L 214.475945 41668.348862 
L 215.088477 41668.348862 
L 215.701008 41668.348862 
L 216.313539 41668.348862 
L 216.926071 41668.348862 
L 217.538602 41668.348862 
L 218.151134 41668.348862 
L 218.763665 41668.348862 
L 219.376196 41668.348862 
L 219.988728 41668.348862 
L 220.601259 41668.348862 
L 221.21379 41668.348862 
L 221.826322 41668.348862 
L 222.438853 41668.348862 
L 223.051384 41668.348862 
L 223.663916 41668.348862 
L 224.276447 41668.348862 
L 224.888978 41668.348862 
L 225.50151 41668.348862 
L 226.114041 41668.348862 
L 226.726572 41668.348862 
L 227.339104 41668.348862 
L 227.951635 41668.348862 
L 228.564166 41668.348862 
L 229.176698 41668.348862 
L 229.789229 41668.348862 
L 230.40176 41668.348862 
L 231.014292 41668.348862 
L 231.626823 41668.348862 
L 232.239355 41668.348862 
L 232.851886 41668.348862 
L 233.464417 41668.348862 
L 234.076949 41668.348862 
L 234.68948 41668.348862 
L 235.302011 41668.348862 
L 235.914543 41668.348862 
L 236.527074 41668.348862 
L 237.139605 41668.348862 
L 237.752137 41668.348862 
L 238.364668 41668.348862 
L 238.977199 41668.348862 
L 239.589731 41668.348862 
L 240.202262 41668.348862 
L 240.814793 41668.348862 
L 241.427325 41668.348862 
L 242.039856 41668.348862 
L 242.652387 41668.348862 
L 243.264919 41668.348862 
L 243.87745 41668.348862 
L 244.489981 41668.348862 
L 245.102513 41668.348862 
L 245.715044 41668.348862 
L 246.327576 41668.348862 
L 246.940107 41668.348862 
L 247.552638 41668.348862 
L 248.16517 41668.348862 
L 248.777701 41668.348862 
L 249.390232 41668.348862 
L 250.002764 41668.348862 
L 250.615295 41668.348862 
L 251.227826 41668.348862 
L 251.840358 41668.348862 
L 252.452889 41668.348862 
L 253.06542 41668.348862 
L 253.677952 41668.348862 
L 254.290483 41668.348862 
L 254.903014 41668.348862 
L 255.515546 41668.348862 
L 256.128077 41668.348862 
L 256.740608 41668.348862 
L 257.35314 41668.348862 
L 257.965671 41668.348862 
L 258.578202 41668.348862 
L 259.190734 41668.348862 
L 259.803265 41668.348862 
L 260.415796 41668.348862 
L 261.028328 41668.348862 
L 261.640859 41668.348862 
L 262.253391 41668.348862 
L 262.865922 41668.348862 
L 263.478453 41668.348862 
L 264.090985 41668.348862 
L 264.703516 41668.348862 
L 265.316047 41668.348862 
L 265.928579 41668.348862 
L 266.54111 41668.348862 
L 267.153641 41668.348862 
L 267.766173 41668.348862 
L 268.378704 41668.348862 
L 268.991235 41668.348862 
L 269.603767 41668.348862 
L 270.216298 41668.348862 
L 270.828829 41668.348862 
L 271.441361 41668.348862 
L 272.053892 41668.348862 
L 272.666423 41668.348862 
L 273.278955 41668.348862 
L 273.891486 41668.348862 
L 274.504017 41668.348862 
L 275.116549 41668.348862 
L 275.72908 41668.348862 
L 276.341612 41668.348862 
L 276.954143 41668.348862 
L 277.566674 41668.348862 
L 278.179206 41668.348862 
L 278.791737 41668.348862 
L 279.404268 41668.348862 
L 280.0168 41668.348862 
L 280.629331 41668.348862 
L 281.241862 41668.348862 
L 281.854394 41668.348862 
L 282.466925 41668.348862 
L 283.079456 41668.348862 
L 283.691988 41668.348862 
L 284.304519 41668.348862 
L 284.91705 41668.348862 
L 285.529582 41668.348862 
L 286.142113 41668.348862 
L 286.754644 41668.348862 
L 287.367176 41668.348862 
L 287.979707 41668.348862 
L 288.592238 41668.348862 
L 289.20477 41668.348862 
L 289.817301 41668.348862 
L 290.429833 41668.348862 
L 291.042364 41668.348862 
L 291.654895 41668.348862 
L 292.267427 41668.348862 
L 292.879958 41668.348862 
L 293.492489 41668.348862 
L 294.105021 41668.348862 
L 294.717552 41668.348862 
L 295.330083 41668.348862 
L 295.942615 41668.348862 
L 296.555146 41668.348862 
L 297.167677 41668.348862 
L 297.780209 41668.348862 
L 298.39274 41668.348862 
L 299.005271 41668.348862 
L 299.617803 41668.348862 
L 300.230334 41668.348862 
L 300.842865 41668.348862 
L 301.455397 41668.348862 
L 302.067928 41668.348862 
L 302.680459 41668.348862 
L 303.292991 41668.348862 
L 303.905522 41668.348862 
L 304.518054 41668.348862 
L 305.130585 41668.348862 
L 305.743116 41668.348862 
L 306.355648 41668.348862 
L 306.968179 41668.348862 
L 307.58071 41668.348862 
L 308.193242 41668.348862 
L 308.805773 41668.348862 
L 309.418304 41668.348862 
L 310.030836 41668.348862 
L 310.643367 41668.348862 
L 311.255898 41668.348862 
L 311.86843 41668.348862 
L 312.480961 41668.348862 
L 313.093492 41668.348862 
L 313.706024 41668.348862 
L 314.318555 41668.348862 
L 314.931086 41668.348862 
L 315.543618 41668.348862 
L 316.156149 41668.348862 
L 316.76868 41668.348862 
L 317.381212 41668.348862 
L 317.993743 41668.348862 
L 318.606275 41668.348862 
L 319.218806 41668.348862 
L 319.831337 41668.348862 
L 320.443869 41668.348862 
L 321.0564 41668.348862 
L 321.668931 41668.348862 
L 322.281463 41668.348862 
L 322.893994 41668.348862 
L 323.506525 41668.348862 
L 324.119057 41668.348862 
L 324.731588 41668.348862 
L 325.344119 41668.348862 
L 325.956651 41668.348862 
L 326.569182 41668.348862 
L 327.181713 41668.348862 
L 327.794245 41668.348862 
L 328.406776 41668.348862 
L 329.019307 41668.348862 
L 329.631839 41668.348862 
L 330.24437 41668.348862 
L 330.856901 41668.348862 
L 331.469433 41668.348862 
L 332.081964 41668.348862 
L 332.694495 41668.348862 
L 333.307027 41668.348862 
L 333.919558 41668.348862 
L 334.53209 41668.348862 
L 335.144621 41668.348862 
L 335.757152 41668.348862 
L 336.369684 41668.348862 
L 336.982215 41668.348862 
L 337.594746 41668.348862 
L 338.207278 41668.348862 
L 338.819809 41668.348862 
L 339.43234 41668.348862 
L 340.044872 41668.348862 
L 340.657403 41668.348862 
L 341.269934 41668.348862 
L 341.882466 41668.348862 
L 342.494997 41668.348862 
L 343.107528 41668.348862 
L 343.72006 41668.348862 
L 344.332591 41668.348862 
L 344.945122 41668.348862 
L 345.557654 41668.348862 
L 346.170185 41668.348862 
L 346.782716 41668.348862 
L 347.395248 41668.348862 
L 348.007779 41668.348862 
L 348.620311 41668.348862 
L 349.232842 41668.348862 
L 349.845373 41668.348862 
L 350.457905 41668.348862 
L 351.070436 41668.348862 
L 351.682967 41668.348862 
L 352.295499 41668.348862 
L 352.90803 41668.348862 
L 353.520561 41668.348862 
L 354.133093 41668.348862 
L 354.745624 41668.348862 
L 355.358155 41668.348862 
L 355.970687 41668.348862 
L 356.583218 41668.348862 
L 357.195749 41668.348862 
L 357.808281 41668.348862 
L 358.420812 41668.348862 
L 359.033343 41668.348862 
L 359.645875 41668.348862 
L 360.258406 41668.348862 
L 360.870937 41668.348862 
L 361.483469 41668.348862 
L 362.096 41668.348862 
L 362.708532 41668.348862 
L 363.321063 41668.348862 
L 363.933594 41668.348862 
L 364.546126 41668.348862 
L 365.158657 41668.348862 
L 365.771188 41668.348862 
L 366.38372 41668.348862 
L 366.996251 41668.348862 
L 367.608782 41668.348862 
L 368.221314 41668.348862 
L 368.833845 41668.348862 
L 369.446376 41668.348862 
L 370.058908 41668.348862 
L 370.671439 41668.348862 
L 371.28397 41668.348862 
L 371.896502 41668.348862 
L 372.509033 41668.348862 
L 372.509033 241.667033 
L 372.509033 241.667033 
L 371.896502 160.609143 
L 371.28397 226.234724 
L 370.671439 438.543775 
L 370.058908 433.055692 
L 369.446376 223.578846 
L 368.833845 160.785471 
L 368.221314 244.675566 
L 367.608782 475.249132 
L 366.996251 852.506168 
L 366.38372 1376.446674 
L 365.771188 2047.070651 
L 365.158657 2864.378098 
L 364.546126 3828.369015 
L 363.933594 4939.043403 
L 363.321063 4604.041901 
L 362.708532 3535.623673 
L 362.096 2613.888915 
L 361.483469 1838.837627 
L 360.870937 1210.469811 
L 360.258406 728.785464 
L 359.645875 393.784588 
L 359.033343 205.467182 
L 358.420812 163.833247 
L 357.808281 268.882782 
L 357.195749 407.636389 
L 356.583218 211.681515 
L 355.970687 162.375443 
L 355.358155 259.752842 
L 354.745624 503.813711 
L 354.133093 486.100184 
L 353.520561 250.333766 
L 352.90803 161.25082 
L 352.295499 218.851343 
L 351.682967 423.135334 
L 351.070436 380.407703 
L 350.457905 199.699895 
L 349.845373 165.675558 
L 349.232842 257.553573 
L 348.620311 163.074271 
L 348.007779 172.011493 
L 347.395248 183.143133 
L 346.782716 162.20824 
L 346.170185 183.675938 
L 345.557654 153.860628 
L 344.945122 163.028329 
L 344.332591 203.635712 
L 343.72006 389.592901 
L 343.107528 631.680172 
L 342.494997 333.228007 
L 341.882466 180.157112 
L 341.269934 152.344135 
L 340.657403 167.481895 
L 340.044872 287.788899 
L 339.43234 201.666274 
L 338.819809 164.988265 
L 338.207278 274.993727 
L 337.594746 531.644966 
L 336.982215 340.144942 
L 336.369684 183.857817 
L 335.757152 172.924472 
L 335.144621 147.970783 
L 334.53209 155.644797 
L 333.919558 177.114479 
L 333.307027 147.669265 
L 332.694495 165.250935 
L 332.081964 153.423289 
L 331.469433 215.509517 
L 330.856901 174.252866 
L 330.24437 142.085877 
L 329.631839 185.915624 
L 329.019307 256.147293 
L 328.406776 161.901835 
L 327.794245 195.945583 
L 327.181713 163.715139 
L 326.569182 148.452912 
L 325.956651 157.616491 
L 325.344119 151.177921 
L 324.731588 154.98158 
L 324.119057 156.267355 
L 323.506525 138.364672 
L 322.893994 154.044876 
L 322.281463 152.000957 
L 321.668931 153.091237 
L 321.0564 145.917784 
L 320.443869 135.277901 
L 319.831337 141.206474 
L 319.218806 156.985458 
L 318.606275 148.939803 
L 317.993743 135.403346 
L 317.381212 131.968729 
L 316.76868 137.385393 
L 316.156149 147.195481 
L 315.543618 155.572593 
L 314.931086 151.583181 
L 314.318555 129.757627 
L 313.706024 138.708366 
L 313.093492 136.560198 
L 312.480961 142.580635 
L 311.86843 147.863633 
L 311.255898 134.358903 
L 310.643367 131.298308 
L 310.030836 144.521948 
L 309.418304 131.124802 
L 308.805773 132.880385 
L 308.193242 136.421493 
L 307.58071 150.138782 
L 306.968179 134.002616 
L 306.355648 137.777156 
L 305.743116 120.740305 
L 305.130585 132.805772 
L 304.518054 135.660128 
L 303.905522 132.14747 
L 303.292991 131.621443 
L 302.680459 126.025924 
L 302.067928 133.074656 
L 301.455397 131.684765 
L 300.842865 130.306551 
L 300.230334 125.134901 
L 299.617803 135.171008 
L 299.005271 129.959135 
L 298.39274 118.180638 
L 297.780209 129.381142 
L 297.167677 137.531725 
L 296.555146 126.705571 
L 295.942615 121.035689 
L 295.330083 119.068646 
L 294.717552 128.135441 
L 294.105021 120.335568 
L 293.492489 125.852513 
L 292.879958 131.789176 
L 292.267427 129.930666 
L 291.654895 125.618878 
L 291.042364 122.011165 
L 290.429833 118.969015 
L 289.817301 127.669732 
L 289.20477 119.106845 
L 288.592238 124.87748 
L 287.979707 114.213237 
L 287.367176 121.36831 
L 286.754644 118.729882 
L 286.142113 119.225398 
L 285.529582 111.860283 
L 284.91705 119.2402 
L 284.304519 130.73121 
L 283.691988 119.804703 
L 283.079456 125.556522 
L 282.466925 111.311272 
L 281.854394 115.792566 
L 281.241862 118.778463 
L 280.629331 124.680102 
L 280.0168 118.198182 
L 279.404268 111.683895 
L 278.791737 107.260853 
L 278.179206 111.2835 
L 277.566674 116.775068 
L 276.954143 114.886291 
L 276.341612 117.670845 
L 275.72908 114.204064 
L 275.116549 113.486858 
L 274.504017 112.881648 
L 273.891486 106.419692 
L 273.278955 109.346437 
L 272.666423 120.350355 
L 272.053892 111.225675 
L 271.441361 112.142173 
L 270.828829 104.979141 
L 270.216298 112.242867 
L 269.603767 115.670667 
L 268.991235 114.092762 
L 268.378704 109.426728 
L 267.766173 112.824621 
L 267.153641 107.322337 
L 266.54111 110.807275 
L 265.928579 113.226916 
L 265.316047 110.36361 
L 264.703516 104.905697 
L 264.090985 103.29452 
L 263.478453 103.248572 
L 262.865922 108.737968 
L 262.253391 97.831921 
L 261.640859 101.631379 
L 261.028328 102.95311 
L 260.415796 109.834206 
L 259.803265 108.987747 
L 259.190734 105.212728 
L 258.578202 102.400642 
L 257.965671 105.428668 
L 257.35314 101.316677 
L 256.740608 98.608162 
L 256.128077 96.865849 
L 255.515546 97.179546 
L 254.903014 102.388685 
L 254.290483 102.475872 
L 253.677952 103.062358 
L 253.06542 106.230182 
L 252.452889 105.315049 
L 251.840358 101.255858 
L 251.227826 99.834586 
L 250.615295 99.915128 
L 250.002764 97.609824 
L 249.390232 100.092803 
L 248.777701 93.319256 
L 248.16517 97.664001 
L 247.552638 95.957544 
L 246.940107 100.204733 
L 246.327576 95.3879 
L 245.715044 98.460807 
L 245.102513 102.117792 
L 244.489981 98.107931 
L 243.87745 102.816685 
L 243.264919 95.048956 
L 242.652387 95.39188 
L 242.039856 96.695036 
L 241.427325 97.978279 
L 240.814793 93.657092 
L 240.202262 94.989448 
L 239.589731 94.049828 
L 238.977199 92.163783 
L 238.364668 92.373421 
L 237.752137 98.236445 
L 237.139605 92.013761 
L 236.527074 99.603387 
L 235.914543 95.330352 
L 235.302011 94.924086 
L 234.68948 99.102719 
L 234.076949 91.645217 
L 233.464417 92.619782 
L 232.851886 91.311103 
L 232.239355 87.226811 
L 231.626823 91.549773 
L 231.014292 89.140023 
L 230.40176 90.223889 
L 229.789229 91.865245 
L 229.176698 93.08456 
L 228.564166 95.792705 
L 227.951635 98.072688 
L 227.339104 94.84638 
L 226.726572 96.830682 
L 226.114041 91.5488 
L 225.50151 90.498693 
L 224.888978 86.574967 
L 224.276447 85.02556 
L 223.663916 86.715492 
L 223.051384 84.157708 
L 222.438853 87.972662 
L 221.826322 87.703106 
L 221.21379 88.773065 
L 220.601259 87.975598 
L 219.988728 89.607047 
L 219.376196 93.541811 
L 218.763665 86.842355 
L 218.151134 92.619496 
L 217.538602 90.018644 
L 216.926071 90.141493 
L 216.313539 88.786827 
L 215.701008 87.039855 
L 215.088477 83.14081 
L 214.475945 83.138371 
L 213.863414 82.117478 
L 213.250883 80.270388 
L 212.638351 82.25508 
L 212.02582 87.720501 
L 211.413289 90.360603 
L 210.800757 91.570816 
L 210.188226 89.496655 
L 209.575695 87.153383 
L 208.963163 86.162301 
L 208.350632 86.39867 
L 207.738101 87.048733 
L 207.125569 81.557856 
L 206.513038 82.702838 
L 205.900507 79.121943 
L 205.287975 79.005237 
L 204.675444 82.385375 
L 204.062913 82.685785 
L 203.450381 88.680828 
L 202.83785 88.548282 
L 202.225318 87.803073 
L 201.612787 87.655143 
L 201.000256 85.163807 
L 200.387724 86.415829 
L 199.775193 81.112544 
L 199.162662 78.972101 
L 198.55013 80.263791 
L 197.937599 76.788416 
L 197.325068 76.942047 
L 196.712536 78.645606 
L 196.100005 74.310687 
L 195.487474 79.745786 
L 194.874942 84.559128 
L 194.262411 88.694576 
L 193.64988 82.045624 
L 193.037348 88.484516 
L 192.424817 87.170068 
L 191.812286 87.225083 
L 191.199754 84.239295 
L 190.587223 81.011281 
L 189.974692 76.92097 
L 189.36216 78.220263 
L 188.749629 75.126499 
L 188.137097 75.156465 
L 187.524566 77.123096 
L 186.912035 79.66409 
L 186.299503 85.069687 
L 185.686972 85.534104 
L 185.074441 85.453472 
L 184.461909 86.269163 
L 183.849378 88.612604 
L 183.236847 84.827197 
L 182.624315 80.940376 
L 182.011784 78.09338 
L 181.399253 76.417231 
L 180.786721 74.008392 
L 180.17419 74.705449 
L 179.561659 77.706068 
L 178.949127 75.890543 
L 178.336596 76.0045 
L 177.724065 79.277853 
L 177.111533 81.269671 
L 176.499002 85.127739 
L 175.886471 84.630462 
L 175.273939 87.582144 
L 174.661408 87.345043 
L 174.048876 83.324471 
L 173.436345 81.346057 
L 172.823814 77.886493 
L 172.211282 75.225526 
L 171.598751 76.978096 
L 170.98622 74.864815 
L 170.373688 74.412785 
L 169.761157 74.043366 
L 169.148626 77.648116 
L 168.536094 79.194814 
L 167.923563 81.337496 
L 167.311032 89.367152 
L 166.6985 85.685569 
L 166.085969 88.63797 
L 165.473438 85.370488 
L 164.860906 80.785533 
L 164.248375 80.050676 
L 163.635844 74.869628 
L 163.023312 75.46044 
L 162.410781 75.903705 
L 161.79825 73.467571 
L 161.185718 74.856255 
L 160.573187 75.609406 
L 159.960656 82.346407 
L 159.348124 85.946201 
L 158.735593 84.10518 
L 158.123061 85.011071 
L 157.51053 89.442159 
L 156.897999 85.972962 
L 156.285467 82.762343 
L 155.672936 80.835127 
L 155.060405 76.296537 
L 154.447873 75.379352 
L 153.835342 74.227877 
L 153.222811 72.302853 
L 152.610279 74.754666 
L 151.997748 78.382228 
L 151.385217 77.324768 
L 150.772685 81.330233 
L 150.160154 81.878245 
L 149.547623 87.953356 
L 148.935091 86.068502 
L 148.32256 84.823465 
L 147.710029 82.661815 
L 147.097497 79.405532 
L 146.484966 77.332885 
L 145.872435 74.975432 
L 145.259903 72.939048 
L 144.647372 73.345843 
L 144.03484 74.153388 
L 143.422309 76.738511 
L 142.809778 78.571803 
L 142.197246 84.311679 
L 141.584715 84.679549 
L 140.972184 86.666594 
L 140.359652 90.905235 
L 139.747121 91.221738 
L 139.13459 83.99117 
L 138.522058 77.488186 
L 137.909527 73.248772 
L 137.296996 73.470182 
L 136.684464 73.34485 
L 136.071933 74.556037 
L 135.459402 75.999692 
L 134.84687 75.607822 
L 134.234339 80.546058 
L 133.621808 88.350931 
L 133.009276 85.935457 
L 132.396745 90.898092 
L 131.784214 87.926528 
L 131.171682 81.501694 
L 130.559151 79.100309 
L 129.946619 75.925381 
L 129.334088 76.701994 
L 128.721557 73.332161 
L 128.109025 75.249443 
L 127.496494 71.984753 
L 126.883963 76.141838 
L 126.271431 81.592116 
L 125.6589 84.278312 
L 125.046369 86.530066 
L 124.433837 92.141135 
L 123.821306 90.477838 
L 123.208775 84.943964 
L 122.596243 80.874863 
L 121.983712 77.246752 
L 121.371181 75.485484 
L 120.758649 73.417541 
L 120.146118 72.959746 
L 119.533587 74.322572 
L 118.921055 73.441307 
L 118.308524 77.010892 
L 117.695993 80.336336 
L 117.083461 85.68883 
L 116.47093 87.300883 
L 115.858398 89.760205 
L 115.245867 85.876179 
L 114.633336 83.738877 
L 114.020804 78.939869 
L 113.408273 74.831126 
L 112.795742 73.840666 
L 112.18321 72.51529 
L 111.570679 73.451236 
L 110.958148 73.734115 
L 110.345616 75.513019 
L 109.733085 78.060646 
L 109.120554 80.22061 
L 108.508022 83.560719 
L 107.895491 89.662219 
L 107.28296 86.938567 
L 106.670428 87.671066 
L 106.057897 80.009763 
L 105.445366 79.353525 
L 104.832834 73.776977 
L 104.220303 71.482804 
L 103.607772 73.264091 
L 102.99524 71.699256 
L 102.382709 70.670122 
L 101.770177 75.46701 
L 101.157646 77.890589 
L 100.545115 79.389889 
L 99.932583 83.489946 
L 99.320052 82.195424 
L 98.707521 82.811937 
L 98.094989 81.782817 
L 97.482458 74.711851 
L 96.869927 77.177981 
L 96.257395 73.982952 
L 95.644864 72.593023 
L 95.032333 69.331771 
L 94.419801 71.120802 
L 93.80727 70.320443 
L 93.194739 74.807421 
L 92.582207 73.491827 
L 91.969676 78.856022 
L 91.357145 77.074133 
L 90.744613 75.799551 
L 90.132082 71.52767 
L 89.519551 69.544177 
L 88.907019 66.096671 
L 88.294488 65.619389 
L 87.681957 61.137519 
L 87.069425 64.549563 
L 86.456894 70.146924 
L 85.844362 74.074727 
L 85.231831 74.607432 
L 84.6193 75.070836 
L 84.006768 70.171832 
L 83.394237 65.622055 
L 82.781706 62.930837 
L 82.169174 61.44896 
L 81.556643 60.535969 
L 80.944112 65.167975 
L 80.33158 71.050281 
L 79.719049 70.82917 
L 79.106518 69.615662 
L 78.493986 64.457537 
L 77.881455 60.616608 
L 77.268924 61.624451 
L 76.656392 63.714022 
L 76.043861 66.392267 
L 75.43133 72.676327 
L 74.818798 74.606903 
L 74.206267 75.165563 
L 73.593736 73.796869 
L 72.981204 77.702372 
L 72.368673 88.691374 
L 71.756141 98.252284 
L 71.14361 103.475224 
L 70.531079 122.803897 
L 69.918547 130.295016 
L 69.306016 131.65009 
L 68.693485 142.847301 
L 68.080953 155.490064 
L 67.468422 148.53691 
L 66.855891 235.342869 
z
" clip-path="url(#p2194fe7ae9)" style="fill: #4c72b0; fill-opacity: 0.25; stroke: #4c72b0; stroke-width: 0.3"/>
   </g>
   <g id="patch_3">
    <path d="M 52.282462 171.508862 
L 52.282462 5.188862 
" style="fill: none"/>
   </g>
   <g id="patch_4">
    <path d="M 387.082462 171.508862 
L 387.082462 5.188862 
" style="fill: none"/>
   </g>
   <g id="patch_5">
    <path d="M 52.282462 171.508862 
L 387.082462 171.508862 
" style="fill: none"/>
   </g>
   <g id="patch_6">
    <path d="M 52.282462 5.188862 
L 387.082462 5.188862 
" style="fill: none"/>
   </g>
   <g id="text_14">
    <!-- 0 -->
    <g transform="translate(76.660051 60.254342) scale(0.1 -0.1)">
     <use xlink:href="#CMR17-30" transform="scale(0.996264)"/>
    </g>
   </g>
   <g id="text_15">
    <!-- 1 -->
    <g transform="translate(82.287725 59.949887) scale(0.1 -0.1)">
     <use xlink:href="#CMR17-31" transform="scale(0.996264)"/>
    </g>
   </g>
   <g id="text_16">
    <!-- 2 -->
    <g transform="translate(88.080297 60.117673) scale(0.1 -0.1)">
     <use xlink:href="#CMR17-32" transform="scale(0.996264)"/>
    </g>
   </g>
   <g id="text_17">
    <!-- 3 -->
    <g transform="translate(94.927543 64.728921) scale(0.1 -0.1)">
     <defs>
      <path id="CMR17-33" d="M 1414 2157 
C 1984 2157 2234 1662 2234 1090 
C 2234 320 1824 25 1453 25 
C 1114 25 563 194 390 693 
C 422 680 454 680 486 680 
C 640 680 755 782 755 948 
C 755 1133 614 1216 486 1216 
C 378 1216 211 1165 211 926 
C 211 335 787 -128 1466 -128 
C 2176 -128 2720 430 2720 1085 
C 2720 1707 2208 2157 1600 2227 
C 2086 2328 2554 2756 2554 3329 
C 2554 3820 2048 4179 1472 4179 
C 890 4179 378 3829 378 3329 
C 378 3110 544 3072 627 3072 
C 762 3072 877 3155 877 3321 
C 877 3486 762 3569 627 3569 
C 602 3569 570 3569 544 3557 
C 730 3959 1235 4032 1459 4032 
C 1683 4032 2106 3925 2106 3320 
C 2106 3143 2080 2828 1862 2550 
C 1670 2304 1453 2304 1242 2284 
C 1210 2284 1062 2269 1037 2269 
C 992 2263 966 2257 966 2208 
C 966 2163 973 2157 1101 2157 
L 1414 2157 
z
" transform="scale(0.015625)"/>
     </defs>
     <use xlink:href="#CMR17-33" transform="scale(0.996264)"/>
    </g>
   </g>
   <g id="text_18">
    <!-- 4 -->
    <g transform="translate(103.184385 65.539235) scale(0.1 -0.1)">
     <use xlink:href="#CMR17-34" transform="scale(0.996264)"/>
    </g>
   </g>
   <g id="text_19">
    <!-- 5 -->
    <g transform="translate(111.784709 66.29417) scale(0.1 -0.1)">
     <defs>
      <path id="CMR17-35" d="M 730 3692 
C 794 3666 1056 3584 1325 3584 
C 1920 3584 2246 3911 2432 4100 
C 2432 4157 2432 4192 2394 4192 
C 2387 4192 2374 4192 2323 4163 
C 2099 4058 1837 3973 1517 3973 
C 1325 3973 1037 3999 723 4139 
C 653 4171 640 4171 634 4171 
C 602 4171 595 4164 595 4037 
L 595 2203 
C 595 2089 595 2057 659 2057 
C 691 2057 704 2070 736 2114 
C 941 2401 1222 2522 1542 2522 
C 1766 2522 2246 2382 2246 1289 
C 2246 1085 2246 715 2054 421 
C 1894 159 1645 25 1370 25 
C 947 25 518 320 403 814 
C 429 807 480 795 506 795 
C 589 795 749 840 749 1038 
C 749 1210 627 1280 506 1280 
C 358 1280 262 1190 262 1011 
C 262 454 704 -128 1382 -128 
C 2042 -128 2669 440 2669 1264 
C 2669 2030 2170 2624 1549 2624 
C 1222 2624 947 2503 730 2274 
L 730 3692 
z
" transform="scale(0.015625)"/>
     </defs>
     <use xlink:href="#CMR17-35" transform="scale(0.996264)"/>
    </g>
   </g>
   <g id="text_20">
    <!-- 6 -->
    <g transform="translate(120.108825 66.539132) scale(0.1 -0.1)">
     <use xlink:href="#CMR17-36" transform="scale(0.996264)"/>
    </g>
   </g>
   <g id="text_21">
    <!-- 7 -->
    <g transform="translate(128.466486 66.956686) scale(0.1 -0.1)">
     <defs>
      <path id="CMR17-37" d="M 2886 3941 
L 2886 4081 
L 1382 4081 
C 634 4081 621 4165 595 4288 
L 480 4288 
L 294 3094 
L 410 3094 
C 429 3215 474 3540 550 3661 
C 589 3712 1062 3712 1171 3712 
L 2579 3712 
L 1869 2661 
C 1395 1954 1069 999 1069 165 
C 1069 89 1069 -128 1299 -128 
C 1530 -128 1530 89 1530 171 
L 1530 465 
C 1530 1508 1709 2196 2003 2636 
L 2886 3941 
z
" transform="scale(0.015625)"/>
     </defs>
     <use xlink:href="#CMR17-37" transform="scale(0.996264)"/>
    </g>
   </g>
   <g id="text_22">
    <!-- 8 -->
    <g transform="translate(136.545093 66.622549) scale(0.1 -0.1)">
     <use xlink:href="#CMR17-38" transform="scale(0.996264)"/>
    </g>
   </g>
   <g id="text_23">
    <!-- 9 -->
    <g transform="translate(144.893429 66.822527) scale(0.1 -0.1)">
     <defs>
      <path id="CMR17-39" d="M 2253 1864 
C 2253 464 1670 31 1190 31 
C 1043 31 685 31 538 294 
C 704 268 826 357 826 518 
C 826 692 685 749 595 749 
C 538 749 365 723 365 506 
C 365 71 742 -128 1203 -128 
C 1939 -128 2688 674 2688 2073 
C 2688 3817 1971 4179 1485 4179 
C 851 4179 243 3628 243 2778 
C 243 1991 762 1408 1414 1408 
C 1952 1408 2189 1903 2253 2112 
L 2253 1864 
z
M 1427 1510 
C 1254 1510 1011 1542 813 1922 
C 678 2169 678 2461 678 2771 
C 678 3146 678 3405 858 3684 
C 947 3817 1114 4032 1485 4032 
C 2240 4032 2240 2885 2240 2632 
C 2240 2182 2035 1510 1427 1510 
z
" transform="scale(0.015625)"/>
     </defs>
     <use xlink:href="#CMR17-39" transform="scale(0.996264)"/>
    </g>
   </g>
   <g id="text_24">
    <!-- 10 -->
    <g transform="translate(153.360784 67.092759) scale(0.1 -0.1)">
     <use xlink:href="#CMR17-31" transform="scale(0.996264)"/>
     <use xlink:href="#CMR17-30" transform="translate(45.690477 0) scale(0.996264)"/>
    </g>
   </g>
   <g id="text_25">
    <!-- 11 -->
    <g transform="translate(162.111115 67.553027) scale(0.1 -0.1)">
     <use xlink:href="#CMR17-31" transform="scale(0.996264)"/>
     <use xlink:href="#CMR17-31" transform="translate(45.690477 0) scale(0.996264)"/>
    </g>
   </g>
   <g id="text_26">
    <!-- 12 -->
    <g transform="translate(170.881027 67.565526) scale(0.1 -0.1)">
     <use xlink:href="#CMR17-31" transform="scale(0.996264)"/>
     <use xlink:href="#CMR17-32" transform="translate(45.690477 0) scale(0.996264)"/>
    </g>
   </g>
   <g id="text_27">
    <!-- 13 -->
    <g transform="translate(179.908427 67.728678) scale(0.1 -0.1)">
     <use xlink:href="#CMR17-31" transform="scale(0.996264)"/>
     <use xlink:href="#CMR17-33" transform="translate(45.690477 0) scale(0.996264)"/>
    </g>
   </g>
   <g id="text_28">
    <!-- 14 -->
    <g transform="translate(188.656076 68.979847) scale(0.1 -0.1)">
     <use xlink:href="#CMR17-31" transform="scale(0.996264)"/>
     <use xlink:href="#CMR17-34" transform="translate(45.690477 0) scale(0.996264)"/>
    </g>
   </g>
   <g id="text_29">
    <!-- 15 -->
    <g transform="translate(197.290933 69.158856) scale(0.1 -0.1)">
     <use xlink:href="#CMR17-31" transform="scale(0.996264)"/>
     <use xlink:href="#CMR17-35" transform="translate(45.690477 0) scale(0.996264)"/>
    </g>
   </g>
   <g id="text_30">
    <!-- 16 -->
    <g transform="translate(205.823996 71.929701) scale(0.1 -0.1)">
     <use xlink:href="#CMR17-31" transform="scale(0.996264)"/>
     <use xlink:href="#CMR17-36" transform="translate(45.690477 0) scale(0.996264)"/>
    </g>
   </g>
   <g id="text_31">
    <!-- 17 -->
    <g transform="translate(214.031265 73.043156) scale(0.1 -0.1)">
     <use xlink:href="#CMR17-31" transform="scale(0.996264)"/>
     <use xlink:href="#CMR17-37" transform="translate(45.690477 0) scale(0.996264)"/>
    </g>
   </g>
   <g id="text_32">
    <!-- 18 -->
    <g transform="translate(222.715956 74.709012) scale(0.1 -0.1)">
     <use xlink:href="#CMR17-31" transform="scale(0.996264)"/>
     <use xlink:href="#CMR17-38" transform="translate(45.690477 0) scale(0.996264)"/>
    </g>
   </g>
   <g id="text_33">
    <!-- 19 -->
    <g transform="translate(232.393941 77.416048) scale(0.1 -0.1)">
     <use xlink:href="#CMR17-31" transform="scale(0.996264)"/>
     <use xlink:href="#CMR17-39" transform="translate(45.690477 0) scale(0.996264)"/>
    </g>
   </g>
   <g id="text_34">
    <!-- 20 -->
    <g transform="translate(243.369566 79.176172) scale(0.1 -0.1)">
     <use xlink:href="#CMR17-32" transform="scale(0.996264)"/>
     <use xlink:href="#CMR17-30" transform="translate(45.690477 0) scale(0.996264)"/>
    </g>
   </g>
   <g id="text_35">
    <!-- 21 -->
    <g transform="translate(255.761121 81.340371) scale(0.1 -0.1)">
     <use xlink:href="#CMR17-32" transform="scale(0.996264)"/>
     <use xlink:href="#CMR17-31" transform="translate(45.690477 0) scale(0.996264)"/>
    </g>
   </g>
   <g id="text_36">
    <!-- 22 -->
    <g transform="translate(267.696151 83.768486) scale(0.1 -0.1)">
     <use xlink:href="#CMR17-32" transform="scale(0.996264)"/>
     <use xlink:href="#CMR17-32" transform="translate(45.690477 0) scale(0.996264)"/>
    </g>
   </g>
   <g id="text_37">
    <!-- 23 -->
    <g transform="translate(280.755952 85.020488) scale(0.1 -0.1)">
     <use xlink:href="#CMR17-32" transform="scale(0.996264)"/>
     <use xlink:href="#CMR17-33" transform="translate(45.690477 0) scale(0.996264)"/>
    </g>
   </g>
   <g id="text_38">
    <!-- 24 -->
    <g transform="translate(296.534082 86.595852) scale(0.1 -0.1)">
     <use xlink:href="#CMR17-32" transform="scale(0.996264)"/>
     <use xlink:href="#CMR17-34" transform="translate(45.690477 0) scale(0.996264)"/>
    </g>
   </g>
   <g id="text_39">
    <!-- 25+ -->
    <g transform="translate(313.301438 87.624855) scale(0.1 -0.1)">
     <defs>
      <path id="CMR17-2b" d="M 2413 1472 
L 4109 1472 
C 4198 1472 4307 1472 4307 1580 
C 4307 1695 4205 1695 4109 1695 
L 2413 1695 
L 2413 3386 
C 2413 3475 2413 3584 2304 3584 
C 2189 3584 2189 3482 2189 3386 
L 2189 1695 
L 493 1695 
C 403 1695 294 1695 294 1587 
C 294 1472 397 1472 493 1472 
L 2189 1472 
L 2189 -218 
C 2189 -307 2189 -416 2298 -416 
C 2413 -416 2413 -314 2413 -218 
L 2413 1472 
z
" transform="scale(0.015625)"/>
     </defs>
     <use xlink:href="#CMR17-32" transform="scale(0.996264)"/>
     <use xlink:href="#CMR17-35" transform="translate(45.690477 0) scale(0.996264)"/>
     <use xlink:href="#CMR17-2b" transform="translate(91.380954 0) scale(0.996264)"/>
    </g>
   </g>
   <g id="text_40">
    <!-- NMF 1D -->
    <g style="fill: #262626" transform="translate(297.829279 22.007411) scale(0.15 -0.15)">
     <defs>
      <path id="CMR17-4e" d="M 1312 4250 
C 1267 4320 1261 4320 1139 4320 
L 326 4320 
L 326 4160 
L 448 4160 
C 704 4160 819 4129 838 4122 
L 838 610 
C 838 451 838 153 326 153 
L 326 -13 
C 474 0 742 0 902 0 
C 1062 0 1331 0 1478 -13 
L 1478 153 
C 966 153 966 451 966 610 
L 966 4033 
C 1011 3995 1011 3982 1056 3919 
L 3430 76 
C 3475 0 3494 0 3526 0 
C 3590 0 3590 19 3590 139 
L 3590 3705 
C 3590 3863 3590 4160 4102 4160 
L 4102 4326 
C 3955 4320 3686 4320 3526 4320 
C 3366 4320 3098 4320 2950 4326 
L 2950 4160 
C 3462 4160 3462 3862 3462 3703 
L 3462 763 
L 1312 4250 
z
" transform="scale(0.015625)"/>
      <path id="CMR17-4d" d="M 1338 4224 
C 1299 4320 1293 4320 1158 4320 
L 339 4320 
L 339 4160 
C 781 4160 851 4160 851 3875 
L 851 610 
C 851 451 851 153 339 153 
L 339 -13 
C 486 0 755 0 915 0 
C 1075 0 1344 0 1491 -13 
L 1491 153 
C 979 153 979 451 979 610 
L 979 4135 
L 986 4135 
L 2490 89 
C 2515 25 2528 -13 2579 -13 
C 2630 -13 2643 25 2669 89 
L 4186 4166 
L 4192 4166 
L 4192 438 
C 4192 153 4122 153 3680 153 
L 3680 -13 
C 3853 0 4198 0 4384 0 
C 4570 0 4922 0 5094 -13 
L 5094 153 
C 4653 153 4582 153 4582 438 
L 4582 3875 
C 4582 4160 4653 4160 5094 4160 
L 5094 4320 
L 4282 4320 
C 4147 4320 4141 4314 4102 4218 
L 2720 502 
L 1338 4224 
z
" transform="scale(0.015625)"/>
      <path id="CMR17-46" d="M 3482 4325 
L 326 4325 
L 326 4160 
C 768 4160 838 4160 838 3874 
L 838 446 
C 838 160 768 160 326 160 
L 326 0 
C 512 0 870 0 1069 0 
C 1331 0 1638 0 1901 0 
L 1901 160 
L 1760 160 
C 1274 160 1261 223 1261 452 
L 1261 2075 
L 1837 2075 
C 2432 2075 2490 1865 2490 1332 
L 2605 1332 
L 2605 2987 
L 2490 2987 
C 2490 2450 2432 2240 1837 2240 
L 1261 2240 
L 1261 3911 
C 1261 4128 1274 4160 1530 4160 
L 2355 4160 
C 3322 4160 3430 3765 3520 2916 
L 3635 2916 
L 3482 4325 
z
" transform="scale(0.015625)"/>
     </defs>
     <use xlink:href="#CMR17-4e" transform="scale(0.996264)"/>
     <use xlink:href="#CMR17-4d" transform="translate(69.07243 0) scale(0.996264)"/>
     <use xlink:href="#CMR17-46" transform="translate(153.75937 0) scale(0.996264)"/>
     <use xlink:href="#CMR17-31" transform="translate(243.819183 0) scale(0.996264)"/>
     <use xlink:href="#CMR17-44" transform="translate(289.50966 0) scale(0.996264)"/>
    </g>
   </g>
  </g>
 </g>
 <defs>
  <clipPath id="p2194fe7ae9">
   <rect x="52.282462" y="5.188862" width="334.8" height="166.32"/>
  </clipPath>
 </defs>
</svg>
