<?xml version="1.0" encoding="utf-8" standalone="no"?>
<!DOCTYPE svg PUBLIC "-//W3C//DTD SVG 1.1//EN"
  "http://www.w3.org/Graphics/SVG/1.1/DTD/svg11.dtd">
<svg xmlns:xlink="http://www.w3.org/1999/xlink" width="387.082462pt" height="209.075801pt" viewBox="0 0 387.082462 209.075801" xmlns="http://www.w3.org/2000/svg" version="1.1">
 <metadata>
  <rdf:RDF xmlns:dc="http://purl.org/dc/elements/1.1/" xmlns:cc="http://creativecommons.org/ns#" xmlns:rdf="http://www.w3.org/1999/02/22-rdf-syntax-ns#">
   <cc:Work>
    <dc:type rdf:resource="http://purl.org/dc/dcmitype/StillImage"/>
    <dc:date>2024-10-10T14:45:30.145255</dc:date>
    <dc:format>image/svg+xml</dc:format>
    <dc:creator>
     <cc:Agent>
      <dc:title>Matplotlib v3.9.2, https://matplotlib.org/</dc:title>
     </cc:Agent>
    </dc:creator>
   </cc:Work>
  </rdf:RDF>
 </metadata>
 <defs>
  <style type="text/css">*{stroke-linejoin: round; stroke-linecap: butt}</style>
 </defs>
 <g id="figure_1">
  <g id="patch_1">
   <path d="M 0 209.075801 
L 387.082462 209.075801 
L 387.082462 0 
L 0 0 
z
" style="fill: #ffffff"/>
  </g>
  <g id="axes_1">
   <g id="patch_2">
    <path d="M 52.282462 171.508862 
L 387.082462 171.508862 
L 387.082462 5.188862 
L 52.282462 5.188862 
z
" style="fill: #eaeaf2"/>
   </g>
   <g id="matplotlib.axis_1">
    <g id="xtick_1">
     <g id="line2d_1">
      <path d="M 67.500644 171.508862 
L 67.500644 5.188862 
" clip-path="url(#p3917df8121)" style="fill: none; stroke: #ffffff; stroke-linecap: round"/>
     </g>
     <g id="line2d_2"/>
     <g id="text_1">
      <!-- $\mathdefault{0.0}$ -->
      <g style="fill: #262626" transform="translate(58.152118 188.886587) scale(0.15 -0.15)">
       <defs>
        <path id="CMR17-30" d="M 2688 2025 
C 2688 2416 2682 3080 2413 3591 
C 2176 4039 1798 4198 1466 4198 
C 1158 4198 768 4058 525 3597 
C 269 3118 243 2524 243 2025 
C 243 1661 250 1106 448 619 
C 723 -39 1216 -128 1466 -128 
C 1760 -128 2208 -7 2470 600 
C 2662 1042 2688 1559 2688 2025 
z
M 1466 -26 
C 1056 -26 813 325 723 812 
C 653 1188 653 1738 653 2096 
C 653 2588 653 2997 736 3387 
C 858 3929 1216 4096 1466 4096 
C 1728 4096 2067 3923 2189 3400 
C 2272 3036 2278 2607 2278 2096 
C 2278 1680 2278 1169 2202 792 
C 2067 95 1690 -26 1466 -26 
z
" transform="scale(0.015625)"/>
        <path id="CMMI12-3a" d="M 1178 307 
C 1178 492 1024 619 870 619 
C 685 619 557 466 557 313 
C 557 128 710 0 864 0 
C 1050 0 1178 153 1178 307 
z
" transform="scale(0.015625)"/>
       </defs>
       <use xlink:href="#CMR17-30" transform="scale(0.996264)"/>
       <use xlink:href="#CMMI12-3a" transform="translate(45.690477 0) scale(0.996264)"/>
       <use xlink:href="#CMR17-30" transform="translate(72.787654 0) scale(0.996264)"/>
      </g>
     </g>
    </g>
    <g id="xtick_2">
     <g id="line2d_3">
      <path d="M 128.373371 171.508862 
L 128.373371 5.188862 
" clip-path="url(#p3917df8121)" style="fill: none; stroke: #ffffff; stroke-linecap: round"/>
     </g>
     <g id="line2d_4"/>
     <g id="text_2">
      <!-- $\mathdefault{0.2}$ -->
      <g style="fill: #262626" transform="translate(119.024845 188.886587) scale(0.15 -0.15)">
       <defs>
        <path id="CMR17-32" d="M 2669 989 
L 2554 989 
C 2490 536 2438 459 2413 420 
C 2381 369 1920 369 1830 369 
L 602 369 
C 832 619 1280 1072 1824 1597 
C 2214 1967 2669 2402 2669 3035 
C 2669 3790 2067 4224 1395 4224 
C 691 4224 262 3604 262 3030 
C 262 2780 448 2748 525 2748 
C 589 2748 781 2787 781 3010 
C 781 3207 614 3264 525 3264 
C 486 3264 448 3258 422 3245 
C 544 3790 915 4058 1306 4058 
C 1862 4058 2227 3617 2227 3035 
C 2227 2479 1901 2000 1536 1584 
L 262 146 
L 262 0 
L 2515 0 
L 2669 989 
z
" transform="scale(0.015625)"/>
       </defs>
       <use xlink:href="#CMR17-30" transform="scale(0.996264)"/>
       <use xlink:href="#CMMI12-3a" transform="translate(45.690477 0) scale(0.996264)"/>
       <use xlink:href="#CMR17-32" transform="translate(72.787654 0) scale(0.996264)"/>
      </g>
     </g>
    </g>
    <g id="xtick_3">
     <g id="line2d_5">
      <path d="M 189.246098 171.508862 
L 189.246098 5.188862 
" clip-path="url(#p3917df8121)" style="fill: none; stroke: #ffffff; stroke-linecap: round"/>
     </g>
     <g id="line2d_6"/>
     <g id="text_3">
      <!-- $\mathdefault{0.4}$ -->
      <g style="fill: #262626" transform="translate(179.897572 188.886587) scale(0.15 -0.15)">
       <defs>
        <path id="CMR17-34" d="M 2150 4122 
C 2150 4256 2144 4256 2029 4256 
L 128 1254 
L 128 1088 
L 1779 1088 
L 1779 457 
C 1779 224 1766 160 1318 160 
L 1197 160 
L 1197 0 
C 1402 0 1747 0 1965 0 
C 2182 0 2528 0 2733 0 
L 2733 160 
L 2611 160 
C 2163 160 2150 224 2150 457 
L 2150 1088 
L 2803 1088 
L 2803 1254 
L 2150 1254 
L 2150 4122 
z
M 1798 3703 
L 1798 1254 
L 256 1254 
L 1798 3703 
z
" transform="scale(0.015625)"/>
       </defs>
       <use xlink:href="#CMR17-30" transform="scale(0.996264)"/>
       <use xlink:href="#CMMI12-3a" transform="translate(45.690477 0) scale(0.996264)"/>
       <use xlink:href="#CMR17-34" transform="translate(72.787654 0) scale(0.996264)"/>
      </g>
     </g>
    </g>
    <g id="xtick_4">
     <g id="line2d_7">
      <path d="M 250.118826 171.508862 
L 250.118826 5.188862 
" clip-path="url(#p3917df8121)" style="fill: none; stroke: #ffffff; stroke-linecap: round"/>
     </g>
     <g id="line2d_8"/>
     <g id="text_4">
      <!-- $\mathdefault{0.6}$ -->
      <g style="fill: #262626" transform="translate(240.770299 188.886587) scale(0.15 -0.15)">
       <defs>
        <path id="CMR17-36" d="M 678 2176 
C 678 3690 1395 4032 1811 4032 
C 1946 4032 2272 4009 2400 3776 
C 2298 3776 2106 3776 2106 3553 
C 2106 3381 2246 3323 2336 3323 
C 2394 3323 2566 3348 2566 3560 
C 2566 3954 2246 4179 1805 4179 
C 1043 4179 243 3390 243 1984 
C 243 253 966 -128 1478 -128 
C 2099 -128 2688 427 2688 1283 
C 2688 2081 2170 2662 1517 2662 
C 1126 2662 838 2407 678 1960 
L 678 2176 
z
M 1478 25 
C 691 25 691 1200 691 1436 
C 691 1896 909 2560 1504 2560 
C 1613 2560 1926 2560 2138 2120 
C 2253 1870 2253 1609 2253 1289 
C 2253 944 2253 690 2118 434 
C 1978 171 1773 25 1478 25 
z
" transform="scale(0.015625)"/>
       </defs>
       <use xlink:href="#CMR17-30" transform="scale(0.996264)"/>
       <use xlink:href="#CMMI12-3a" transform="translate(45.690477 0) scale(0.996264)"/>
       <use xlink:href="#CMR17-36" transform="translate(72.787654 0) scale(0.996264)"/>
      </g>
     </g>
    </g>
    <g id="xtick_5">
     <g id="line2d_9">
      <path d="M 310.991553 171.508862 
L 310.991553 5.188862 
" clip-path="url(#p3917df8121)" style="fill: none; stroke: #ffffff; stroke-linecap: round"/>
     </g>
     <g id="line2d_10"/>
     <g id="text_5">
      <!-- $\mathdefault{0.8}$ -->
      <g style="fill: #262626" transform="translate(301.643027 188.886587) scale(0.15 -0.15)">
       <defs>
        <path id="CMR17-38" d="M 1741 2264 
C 2144 2467 2554 2773 2554 3263 
C 2554 3841 1990 4179 1472 4179 
C 890 4179 378 3759 378 3180 
C 378 3021 416 2747 666 2505 
C 730 2442 998 2251 1171 2130 
C 883 1983 211 1634 211 934 
C 211 279 838 -128 1459 -128 
C 2144 -128 2720 362 2720 1010 
C 2720 1590 2330 1857 2074 2029 
L 1741 2264 
z
M 902 2822 
C 851 2854 595 3051 595 3351 
C 595 3739 998 4032 1459 4032 
C 1965 4032 2336 3676 2336 3262 
C 2336 2669 1670 2331 1638 2331 
C 1632 2331 1626 2331 1574 2370 
L 902 2822 
z
M 2080 1519 
C 2176 1449 2483 1240 2483 851 
C 2483 381 2010 25 1472 25 
C 890 25 448 438 448 940 
C 448 1443 838 1862 1280 2060 
L 2080 1519 
z
" transform="scale(0.015625)"/>
       </defs>
       <use xlink:href="#CMR17-30" transform="scale(0.996264)"/>
       <use xlink:href="#CMMI12-3a" transform="translate(45.690477 0) scale(0.996264)"/>
       <use xlink:href="#CMR17-38" transform="translate(72.787654 0) scale(0.996264)"/>
      </g>
     </g>
    </g>
    <g id="xtick_6">
     <g id="line2d_11">
      <path d="M 371.86428 171.508862 
L 371.86428 5.188862 
" clip-path="url(#p3917df8121)" style="fill: none; stroke: #ffffff; stroke-linecap: round"/>
     </g>
     <g id="line2d_12"/>
     <g id="text_6">
      <!-- $\mathdefault{1.0}$ -->
      <g style="fill: #262626" transform="translate(362.515754 188.886587) scale(0.15 -0.15)">
       <defs>
        <path id="CMR17-31" d="M 1702 4058 
C 1702 4192 1696 4192 1606 4192 
C 1357 3916 979 3827 621 3827 
C 602 3827 570 3827 563 3808 
C 557 3795 557 3782 557 3648 
C 755 3648 1088 3686 1344 3839 
L 1344 461 
C 1344 236 1331 160 781 160 
L 589 160 
L 589 0 
C 896 0 1216 0 1523 0 
C 1830 0 2150 0 2458 0 
L 2458 160 
L 2266 160 
C 1715 160 1702 230 1702 458 
L 1702 4058 
z
" transform="scale(0.015625)"/>
       </defs>
       <use xlink:href="#CMR17-31" transform="scale(0.996264)"/>
       <use xlink:href="#CMMI12-3a" transform="translate(45.690477 0) scale(0.996264)"/>
       <use xlink:href="#CMR17-30" transform="translate(72.787654 0) scale(0.996264)"/>
      </g>
     </g>
    </g>
    <g id="text_7">
     <!-- $s_1$ -->
     <g style="fill: #262626" transform="translate(213.621025 206.170057) scale(0.15 -0.15)">
      <defs>
       <path id="CMMI12-73" d="M 1459 1280 
C 1568 1261 1741 1223 1779 1216 
C 1862 1192 2150 1090 2150 783 
C 2150 586 1971 70 1229 70 
C 1094 70 614 70 486 436 
C 742 404 870 603 870 745 
C 870 880 781 950 653 950 
C 512 950 326 841 326 552 
C 326 173 710 -64 1222 -64 
C 2195 -64 2483 651 2483 984 
C 2483 1079 2483 1258 2278 1462 
C 2118 1616 1965 1648 1619 1718 
C 1446 1756 1171 1814 1171 2101 
C 1171 2229 1286 2689 1894 2689 
C 2163 2689 2426 2589 2490 2368 
C 2208 2368 2195 2125 2195 2119 
C 2195 1984 2317 1946 2374 1946 
C 2464 1946 2643 2015 2643 2281 
C 2643 2545 2400 2816 1901 2816 
C 1062 2816 838 2160 838 1899 
C 838 1414 1312 1312 1459 1280 
z
" transform="scale(0.015625)"/>
      </defs>
      <use xlink:href="#CMMI12-73" transform="scale(0.996264)"/>
      <use xlink:href="#CMR17-31" transform="translate(45.950048 -14.943915) scale(0.697382)"/>
     </g>
    </g>
   </g>
   <g id="matplotlib.axis_2">
    <g id="ytick_1">
     <g id="line2d_13">
      <path d="M 52.282462 171.508862 
L 387.082462 171.508862 
" clip-path="url(#p3917df8121)" style="fill: none; stroke: #ffffff; stroke-linecap: round"/>
     </g>
     <g id="line2d_14"/>
     <g id="text_8">
      <!-- $\mathdefault{10^{-2}}$ -->
      <g style="fill: #262626" transform="translate(17.283469 176.697725) scale(0.15 -0.15)">
       <defs>
        <path id="CMSY10-0" d="M 4218 1472 
C 4326 1472 4442 1472 4442 1600 
C 4442 1728 4326 1728 4218 1728 
L 755 1728 
C 646 1728 531 1728 531 1600 
C 531 1472 646 1472 755 1472 
L 4218 1472 
z
" transform="scale(0.015625)"/>
       </defs>
       <use xlink:href="#CMR17-31" transform="scale(0.996264)"/>
       <use xlink:href="#CMR17-30" transform="translate(45.690477 0) scale(0.996264)"/>
       <use xlink:href="#CMSY10-0" transform="translate(91.380954 36.153639) scale(0.697382)"/>
       <use xlink:href="#CMR17-32" transform="translate(145.621947 36.153639) scale(0.697382)"/>
      </g>
     </g>
    </g>
    <g id="ytick_2">
     <g id="line2d_15">
      <path d="M 52.282462 129.928862 
L 387.082462 129.928862 
" clip-path="url(#p3917df8121)" style="fill: none; stroke: #ffffff; stroke-linecap: round"/>
     </g>
     <g id="line2d_16"/>
     <g id="text_9">
      <!-- $\mathdefault{10^{-1}}$ -->
      <g style="fill: #262626" transform="translate(17.283469 135.117725) scale(0.15 -0.15)">
       <use xlink:href="#CMR17-31" transform="scale(0.996264)"/>
       <use xlink:href="#CMR17-30" transform="translate(45.690477 0) scale(0.996264)"/>
       <use xlink:href="#CMSY10-0" transform="translate(91.380954 36.153639) scale(0.697382)"/>
       <use xlink:href="#CMR17-31" transform="translate(145.621947 36.153639) scale(0.697382)"/>
      </g>
     </g>
    </g>
    <g id="ytick_3">
     <g id="line2d_17">
      <path d="M 52.282462 88.348862 
L 387.082462 88.348862 
" clip-path="url(#p3917df8121)" style="fill: none; stroke: #ffffff; stroke-linecap: round"/>
     </g>
     <g id="line2d_18"/>
     <g id="text_10">
      <!-- $\mathdefault{10^{0}}$ -->
      <g style="fill: #262626" transform="translate(25.419615 93.537725) scale(0.15 -0.15)">
       <use xlink:href="#CMR17-31" transform="scale(0.996264)"/>
       <use xlink:href="#CMR17-30" transform="translate(45.690477 0) scale(0.996264)"/>
       <use xlink:href="#CMR17-30" transform="translate(91.380954 36.153639) scale(0.697382)"/>
      </g>
     </g>
    </g>
    <g id="ytick_4">
     <g id="line2d_19">
      <path d="M 52.282462 46.768862 
L 387.082462 46.768862 
" clip-path="url(#p3917df8121)" style="fill: none; stroke: #ffffff; stroke-linecap: round"/>
     </g>
     <g id="line2d_20"/>
     <g id="text_11">
      <!-- $\mathdefault{10^{1}}$ -->
      <g style="fill: #262626" transform="translate(25.419615 51.957725) scale(0.15 -0.15)">
       <use xlink:href="#CMR17-31" transform="scale(0.996264)"/>
       <use xlink:href="#CMR17-30" transform="translate(45.690477 0) scale(0.996264)"/>
       <use xlink:href="#CMR17-31" transform="translate(91.380954 36.153639) scale(0.697382)"/>
      </g>
     </g>
    </g>
    <g id="ytick_5">
     <g id="line2d_21">
      <path d="M 52.282462 5.188862 
L 387.082462 5.188862 
" clip-path="url(#p3917df8121)" style="fill: none; stroke: #ffffff; stroke-linecap: round"/>
     </g>
     <g id="line2d_22"/>
     <g id="text_12">
      <!-- $\mathdefault{10^{2}}$ -->
      <g style="fill: #262626" transform="translate(25.419615 10.377725) scale(0.15 -0.15)">
       <use xlink:href="#CMR17-31" transform="scale(0.996264)"/>
       <use xlink:href="#CMR17-30" transform="translate(45.690477 0) scale(0.996264)"/>
       <use xlink:href="#CMR17-32" transform="translate(91.380954 36.153639) scale(0.697382)"/>
      </g>
     </g>
    </g>
    <g id="ytick_6">
     <g id="line2d_23"/>
    </g>
    <g id="ytick_7">
     <g id="line2d_24"/>
    </g>
    <g id="ytick_8">
     <g id="line2d_25"/>
    </g>
    <g id="ytick_9">
     <g id="line2d_26"/>
    </g>
    <g id="ytick_10">
     <g id="line2d_27"/>
    </g>
    <g id="ytick_11">
     <g id="line2d_28"/>
    </g>
    <g id="ytick_12">
     <g id="line2d_29"/>
    </g>
    <g id="ytick_13">
     <g id="line2d_30"/>
    </g>
    <g id="ytick_14">
     <g id="line2d_31"/>
    </g>
    <g id="ytick_15">
     <g id="line2d_32"/>
    </g>
    <g id="ytick_16">
     <g id="line2d_33"/>
    </g>
    <g id="ytick_17">
     <g id="line2d_34"/>
    </g>
    <g id="ytick_18">
     <g id="line2d_35"/>
    </g>
    <g id="ytick_19">
     <g id="line2d_36"/>
    </g>
    <g id="ytick_20">
     <g id="line2d_37"/>
    </g>
    <g id="ytick_21">
     <g id="line2d_38"/>
    </g>
    <g id="ytick_22">
     <g id="line2d_39"/>
    </g>
    <g id="ytick_23">
     <g id="line2d_40"/>
    </g>
    <g id="ytick_24">
     <g id="line2d_41"/>
    </g>
    <g id="ytick_25">
     <g id="line2d_42"/>
    </g>
    <g id="ytick_26">
     <g id="line2d_43"/>
    </g>
    <g id="ytick_27">
     <g id="line2d_44"/>
    </g>
    <g id="ytick_28">
     <g id="line2d_45"/>
    </g>
    <g id="ytick_29">
     <g id="line2d_46"/>
    </g>
    <g id="ytick_30">
     <g id="line2d_47"/>
    </g>
    <g id="ytick_31">
     <g id="line2d_48"/>
    </g>
    <g id="ytick_32">
     <g id="line2d_49"/>
    </g>
    <g id="ytick_33">
     <g id="line2d_50"/>
    </g>
    <g id="ytick_34">
     <g id="line2d_51"/>
    </g>
    <g id="ytick_35">
     <g id="line2d_52"/>
    </g>
    <g id="ytick_36">
     <g id="line2d_53"/>
    </g>
    <g id="ytick_37">
     <g id="line2d_54"/>
    </g>
    <g id="text_13">
     <!-- Density -->
     <g style="fill: #262626" transform="translate(10.377725 112.674048) rotate(-90) scale(0.15 -0.15)">
      <defs>
       <path id="CMR17-44" d="M 333 4352 
L 333 4186 
C 774 4186 845 4186 845 3900 
L 845 452 
C 845 166 774 166 333 166 
L 333 0 
L 2368 0 
C 3398 0 4224 943 4224 2141 
C 4224 3346 3411 4352 2368 4352 
L 333 4352 
z
M 1523 166 
C 1267 166 1254 197 1254 414 
L 1254 3938 
C 1254 4155 1267 4186 1523 4186 
L 2240 4186 
C 2771 4186 3750 3874 3750 2141 
C 3750 1242 3488 879 3366 707 
C 3213 510 2848 166 2240 166 
L 1523 166 
z
" transform="scale(0.015625)"/>
       <path id="CMR17-65" d="M 2438 1472 
C 2464 1498 2464 1511 2464 1576 
C 2464 2238 2118 2816 1389 2816 
C 710 2816 173 2169 173 1383 
C 173 551 781 -64 1459 -64 
C 2176 -64 2458 607 2458 740 
C 2458 784 2419 784 2406 784 
C 2362 784 2355 771 2330 696 
C 2189 265 1837 51 1504 51 
C 1229 51 954 203 781 480 
C 582 803 582 1176 582 1472 
L 2438 1472 
z
M 589 1568 
C 634 2505 1126 2714 1382 2714 
C 1818 2714 2112 2297 2118 1568 
L 589 1568 
z
" transform="scale(0.015625)"/>
       <path id="CMR17-6e" d="M 2656 1933 
C 2656 2259 2592 2790 1837 2790 
C 1331 2790 1069 2400 973 2144 
L 966 2144 
L 966 2790 
L 211 2720 
L 211 2554 
C 589 2554 646 2515 646 2208 
L 646 428 
C 646 184 621 153 211 153 
L 211 -13 
C 365 0 646 0 813 0 
C 979 0 1267 0 1421 -13 
L 1421 153 
C 1011 153 986 178 986 428 
L 986 1658 
C 986 2247 1344 2688 1792 2688 
C 2266 2688 2317 2266 2317 1958 
L 2317 428 
C 2317 184 2291 153 1882 153 
L 1882 -13 
C 2035 0 2317 0 2483 0 
C 2650 0 2938 0 3091 -13 
L 3091 153 
C 2682 153 2656 178 2656 428 
L 2656 1933 
z
" transform="scale(0.015625)"/>
       <path id="CMR17-73" d="M 1978 2697 
C 1978 2813 1971 2819 1933 2819 
C 1907 2819 1901 2813 1824 2717 
C 1805 2691 1747 2626 1728 2601 
C 1523 2819 1235 2819 1126 2819 
C 416 2819 160 2447 160 2076 
C 160 1498 813 1365 998 1325 
C 1402 1243 1542 1217 1677 1101 
C 1760 1025 1901 884 1901 654 
C 1901 384 1747 38 1158 38 
C 602 38 403 460 288 1021 
C 269 1110 269 1117 218 1117 
C 166 1117 160 1110 160 983 
L 160 63 
C 160 -51 166 -58 205 -58 
C 237 -58 243 -51 275 0 
C 314 57 410 211 448 276 
C 576 103 800 -64 1158 -64 
C 1792 -64 2131 283 2131 784 
C 2131 1112 1958 1285 1875 1362 
C 1683 1561 1459 1606 1190 1657 
C 838 1735 390 1825 390 2217 
C 390 2383 480 2737 1126 2737 
C 1811 2737 1850 2094 1862 1888 
C 1869 1856 1901 1849 1920 1849 
C 1978 1849 1978 1869 1978 1978 
L 1978 2697 
z
" transform="scale(0.015625)"/>
       <path id="CMR17-69" d="M 992 3909 
C 992 4049 877 4170 730 4170 
C 589 4170 467 4056 467 3909 
C 467 3769 582 3648 730 3648 
C 870 3648 992 3763 992 3909 
z
M 243 2706 
L 243 2541 
C 602 2541 653 2502 653 2197 
L 653 427 
C 653 184 627 153 218 153 
L 218 -13 
C 371 0 646 0 806 0 
C 960 0 1222 0 1370 -13 
L 1370 153 
C 992 153 979 191 979 420 
L 979 2776 
L 243 2706 
z
" transform="scale(0.015625)"/>
       <path id="CMR17-74" d="M 966 2560 
L 1862 2560 
L 1862 2725 
L 966 2725 
L 966 3904 
L 851 3904 
C 838 3245 614 2668 70 2668 
L 70 2560 
L 627 2560 
L 627 771 
C 627 650 627 -64 1370 -64 
C 1747 -64 1965 306 1965 777 
L 1965 1140 
L 1850 1140 
L 1850 783 
C 1850 344 1677 51 1408 51 
C 1222 51 966 178 966 758 
L 966 2560 
z
" transform="scale(0.015625)"/>
       <path id="CMR17-79" d="M 2496 2197 
C 2656 2586 2944 2586 3034 2586 
L 3034 2752 
C 2912 2752 2752 2752 2630 2752 
C 2496 2752 2285 2752 2157 2758 
L 2157 2592 
C 2400 2573 2406 2394 2406 2343 
C 2406 2280 2394 2248 2362 2171 
L 1664 449 
L 902 2306 
C 870 2382 870 2426 870 2433 
C 870 2573 1018 2586 1171 2586 
L 1171 2758 
C 1018 2752 742 2752 582 2752 
C 410 2752 205 2752 64 2758 
L 64 2586 
C 410 2586 448 2554 531 2350 
L 1485 15 
C 1197 -738 1030 -1178 627 -1178 
C 557 -1178 397 -1159 282 -1044 
C 429 -1031 493 -942 493 -833 
C 493 -725 416 -629 288 -629 
C 147 -629 77 -725 77 -840 
C 77 -1095 339 -1280 627 -1280 
C 998 -1280 1229 -922 1357 -604 
L 2496 2197 
z
" transform="scale(0.015625)"/>
      </defs>
      <use xlink:href="#CMR17-44" transform="scale(0.996264)"/>
      <use xlink:href="#CMR17-65" transform="translate(70.393556 0) scale(0.996264)"/>
      <use xlink:href="#CMR17-6e" transform="translate(110.879216 0) scale(0.996264)"/>
      <use xlink:href="#CMR17-73" transform="translate(161.774586 0) scale(0.996264)"/>
      <use xlink:href="#CMR17-69" transform="translate(197.575924 0) scale(0.996264)"/>
      <use xlink:href="#CMR17-74" transform="translate(222.446982 0) scale(0.996264)"/>
      <use xlink:href="#CMR17-79" transform="translate(255.125296 0) scale(0.996264)"/>
     </g>
    </g>
   </g>
   <g id="PolyCollection_1">
    <path d="M 66.589481 241.730242 
L 66.589481 41668.348862 
L 67.20308 41668.348862 
L 67.816679 41668.348862 
L 68.430278 41668.348862 
L 69.043877 41668.348862 
L 69.657476 41668.348862 
L 70.271076 41668.348862 
L 70.884675 41668.348862 
L 71.498274 41668.348862 
L 72.111873 41668.348862 
L 72.725472 41668.348862 
L 73.339071 41668.348862 
L 73.95267 41668.348862 
L 74.566269 41668.348862 
L 75.179869 41668.348862 
L 75.793468 41668.348862 
L 76.407067 41668.348862 
L 77.020666 41668.348862 
L 77.634265 41668.348862 
L 78.247864 41668.348862 
L 78.861463 41668.348862 
L 79.475062 41668.348862 
L 80.088662 41668.348862 
L 80.702261 41668.348862 
L 81.31586 41668.348862 
L 81.929459 41668.348862 
L 82.543058 41668.348862 
L 83.156657 41668.348862 
L 83.770256 41668.348862 
L 84.383855 41668.348862 
L 84.997455 41668.348862 
L 85.611054 41668.348862 
L 86.224653 41668.348862 
L 86.838252 41668.348862 
L 87.451851 41668.348862 
L 88.06545 41668.348862 
L 88.679049 41668.348862 
L 89.292648 41668.348862 
L 89.906248 41668.348862 
L 90.519847 41668.348862 
L 91.133446 41668.348862 
L 91.747045 41668.348862 
L 92.360644 41668.348862 
L 92.974243 41668.348862 
L 93.587842 41668.348862 
L 94.201441 41668.348862 
L 94.815041 41668.348862 
L 95.42864 41668.348862 
L 96.042239 41668.348862 
L 96.655838 41668.348862 
L 97.269437 41668.348862 
L 97.883036 41668.348862 
L 98.496635 41668.348862 
L 99.110234 41668.348862 
L 99.723833 41668.348862 
L 100.337433 41668.348862 
L 100.951032 41668.348862 
L 101.564631 41668.348862 
L 102.17823 41668.348862 
L 102.791829 41668.348862 
L 103.405428 41668.348862 
L 104.019027 41668.348862 
L 104.632626 41668.348862 
L 105.246226 41668.348862 
L 105.859825 41668.348862 
L 106.473424 41668.348862 
L 107.087023 41668.348862 
L 107.700622 41668.348862 
L 108.314221 41668.348862 
L 108.92782 41668.348862 
L 109.541419 41668.348862 
L 110.155019 41668.348862 
L 110.768618 41668.348862 
L 111.382217 41668.348862 
L 111.995816 41668.348862 
L 112.609415 41668.348862 
L 113.223014 41668.348862 
L 113.836613 41668.348862 
L 114.450212 41668.348862 
L 115.063812 41668.348862 
L 115.677411 41668.348862 
L 116.29101 41668.348862 
L 116.904609 41668.348862 
L 117.518208 41668.348862 
L 118.131807 41668.348862 
L 118.745406 41668.348862 
L 119.359005 41668.348862 
L 119.972605 41668.348862 
L 120.586204 41668.348862 
L 121.199803 41668.348862 
L 121.813402 41668.348862 
L 122.427001 41668.348862 
L 123.0406 41668.348862 
L 123.654199 41668.348862 
L 124.267798 41668.348862 
L 124.881397 41668.348862 
L 125.494997 41668.348862 
L 126.108596 41668.348862 
L 126.722195 41668.348862 
L 127.335794 41668.348862 
L 127.949393 41668.348862 
L 128.562992 41668.348862 
L 129.176591 41668.348862 
L 129.79019 41668.348862 
L 130.40379 41668.348862 
L 131.017389 41668.348862 
L 131.630988 41668.348862 
L 132.244587 41668.348862 
L 132.858186 41668.348862 
L 133.471785 41668.348862 
L 134.085384 41668.348862 
L 134.698983 41668.348862 
L 135.312583 41668.348862 
L 135.926182 41668.348862 
L 136.539781 41668.348862 
L 137.15338 41668.348862 
L 137.766979 41668.348862 
L 138.380578 41668.348862 
L 138.994177 41668.348862 
L 139.607776 41668.348862 
L 140.221376 41668.348862 
L 140.834975 41668.348862 
L 141.448574 41668.348862 
L 142.062173 41668.348862 
L 142.675772 41668.348862 
L 143.289371 41668.348862 
L 143.90297 41668.348862 
L 144.516569 41668.348862 
L 145.130169 41668.348862 
L 145.743768 41668.348862 
L 146.357367 41668.348862 
L 146.970966 41668.348862 
L 147.584565 41668.348862 
L 148.198164 41668.348862 
L 148.811763 41668.348862 
L 149.425362 41668.348862 
L 150.038962 41668.348862 
L 150.652561 41668.348862 
L 151.26616 41668.348862 
L 151.879759 41668.348862 
L 152.493358 41668.348862 
L 153.106957 41668.348862 
L 153.720556 41668.348862 
L 154.334155 41668.348862 
L 154.947754 41668.348862 
L 155.561354 41668.348862 
L 156.174953 41668.348862 
L 156.788552 41668.348862 
L 157.402151 41668.348862 
L 158.01575 41668.348862 
L 158.629349 41668.348862 
L 159.242948 41668.348862 
L 159.856547 41668.348862 
L 160.470147 41668.348862 
L 161.083746 41668.348862 
L 161.697345 41668.348862 
L 162.310944 41668.348862 
L 162.924543 41668.348862 
L 163.538142 41668.348862 
L 164.151741 41668.348862 
L 164.76534 41668.348862 
L 165.37894 41668.348862 
L 165.992539 41668.348862 
L 166.606138 41668.348862 
L 167.219737 41668.348862 
L 167.833336 41668.348862 
L 168.446935 41668.348862 
L 169.060534 41668.348862 
L 169.674133 41668.348862 
L 170.287733 41668.348862 
L 170.901332 41668.348862 
L 171.514931 41668.348862 
L 172.12853 41668.348862 
L 172.742129 41668.348862 
L 173.355728 41668.348862 
L 173.969327 41668.348862 
L 174.582926 41668.348862 
L 175.196526 41668.348862 
L 175.810125 41668.348862 
L 176.423724 41668.348862 
L 177.037323 41668.348862 
L 177.650922 41668.348862 
L 178.264521 41668.348862 
L 178.87812 41668.348862 
L 179.491719 41668.348862 
L 180.105318 41668.348862 
L 180.718918 41668.348862 
L 181.332517 41668.348862 
L 181.946116 41668.348862 
L 182.559715 41668.348862 
L 183.173314 41668.348862 
L 183.786913 41668.348862 
L 184.400512 41668.348862 
L 185.014111 41668.348862 
L 185.627711 41668.348862 
L 186.24131 41668.348862 
L 186.854909 41668.348862 
L 187.468508 41668.348862 
L 188.082107 41668.348862 
L 188.695706 41668.348862 
L 189.309305 41668.348862 
L 189.922904 41668.348862 
L 190.536504 41668.348862 
L 191.150103 41668.348862 
L 191.763702 41668.348862 
L 192.377301 41668.348862 
L 192.9909 41668.348862 
L 193.604499 41668.348862 
L 194.218098 41668.348862 
L 194.831697 41668.348862 
L 195.445297 41668.348862 
L 196.058896 41668.348862 
L 196.672495 41668.348862 
L 197.286094 41668.348862 
L 197.899693 41668.348862 
L 198.513292 41668.348862 
L 199.126891 41668.348862 
L 199.74049 41668.348862 
L 200.35409 41668.348862 
L 200.967689 41668.348862 
L 201.581288 41668.348862 
L 202.194887 41668.348862 
L 202.808486 41668.348862 
L 203.422085 41668.348862 
L 204.035684 41668.348862 
L 204.649283 41668.348862 
L 205.262883 41668.348862 
L 205.876482 41668.348862 
L 206.490081 41668.348862 
L 207.10368 41668.348862 
L 207.717279 41668.348862 
L 208.330878 41668.348862 
L 208.944477 41668.348862 
L 209.558076 41668.348862 
L 210.171675 41668.348862 
L 210.785275 41668.348862 
L 211.398874 41668.348862 
L 212.012473 41668.348862 
L 212.626072 41668.348862 
L 213.239671 41668.348862 
L 213.85327 41668.348862 
L 214.466869 41668.348862 
L 215.080468 41668.348862 
L 215.694068 41668.348862 
L 216.307667 41668.348862 
L 216.921266 41668.348862 
L 217.534865 41668.348862 
L 218.148464 41668.348862 
L 218.762063 41668.348862 
L 219.375662 41668.348862 
L 219.989261 41668.348862 
L 220.602861 41668.348862 
L 221.21646 41668.348862 
L 221.830059 41668.348862 
L 222.443658 41668.348862 
L 223.057257 41668.348862 
L 223.670856 41668.348862 
L 224.284455 41668.348862 
L 224.898054 41668.348862 
L 225.511654 41668.348862 
L 226.125253 41668.348862 
L 226.738852 41668.348862 
L 227.352451 41668.348862 
L 227.96605 41668.348862 
L 228.579649 41668.348862 
L 229.193248 41668.348862 
L 229.806847 41668.348862 
L 230.420447 41668.348862 
L 231.034046 41668.348862 
L 231.647645 41668.348862 
L 232.261244 41668.348862 
L 232.874843 41668.348862 
L 233.488442 41668.348862 
L 234.102041 41668.348862 
L 234.71564 41668.348862 
L 235.32924 41668.348862 
L 235.942839 41668.348862 
L 236.556438 41668.348862 
L 237.170037 41668.348862 
L 237.783636 41668.348862 
L 238.397235 41668.348862 
L 239.010834 41668.348862 
L 239.624433 41668.348862 
L 240.238032 41668.348862 
L 240.851632 41668.348862 
L 241.465231 41668.348862 
L 242.07883 41668.348862 
L 242.692429 41668.348862 
L 243.306028 41668.348862 
L 243.919627 41668.348862 
L 244.533226 41668.348862 
L 245.146825 41668.348862 
L 245.760425 41668.348862 
L 246.374024 41668.348862 
L 246.987623 41668.348862 
L 247.601222 41668.348862 
L 248.214821 41668.348862 
L 248.82842 41668.348862 
L 249.442019 41668.348862 
L 250.055618 41668.348862 
L 250.669218 41668.348862 
L 251.282817 41668.348862 
L 251.896416 41668.348862 
L 252.510015 41668.348862 
L 253.123614 41668.348862 
L 253.737213 41668.348862 
L 254.350812 41668.348862 
L 254.964411 41668.348862 
L 255.578011 41668.348862 
L 256.19161 41668.348862 
L 256.805209 41668.348862 
L 257.418808 41668.348862 
L 258.032407 41668.348862 
L 258.646006 41668.348862 
L 259.259605 41668.348862 
L 259.873204 41668.348862 
L 260.486804 41668.348862 
L 261.100403 41668.348862 
L 261.714002 41668.348862 
L 262.327601 41668.348862 
L 262.9412 41668.348862 
L 263.554799 41668.348862 
L 264.168398 41668.348862 
L 264.781997 41668.348862 
L 265.395596 41668.348862 
L 266.009196 41668.348862 
L 266.622795 41668.348862 
L 267.236394 41668.348862 
L 267.849993 41668.348862 
L 268.463592 41668.348862 
L 269.077191 41668.348862 
L 269.69079 41668.348862 
L 270.304389 41668.348862 
L 270.917989 41668.348862 
L 271.531588 41668.348862 
L 272.145187 41668.348862 
L 272.758786 41668.348862 
L 273.372385 41668.348862 
L 273.985984 41668.348862 
L 274.599583 41668.348862 
L 275.213182 41668.348862 
L 275.826782 41668.348862 
L 276.440381 41668.348862 
L 277.05398 41668.348862 
L 277.667579 41668.348862 
L 278.281178 41668.348862 
L 278.894777 41668.348862 
L 279.508376 41668.348862 
L 280.121975 41668.348862 
L 280.735575 41668.348862 
L 281.349174 41668.348862 
L 281.962773 41668.348862 
L 282.576372 41668.348862 
L 283.189971 41668.348862 
L 283.80357 41668.348862 
L 284.417169 41668.348862 
L 285.030768 41668.348862 
L 285.644368 41668.348862 
L 286.257967 41668.348862 
L 286.871566 41668.348862 
L 287.485165 41668.348862 
L 288.098764 41668.348862 
L 288.712363 41668.348862 
L 289.325962 41668.348862 
L 289.939561 41668.348862 
L 290.553161 41668.348862 
L 291.16676 41668.348862 
L 291.780359 41668.348862 
L 292.393958 41668.348862 
L 293.007557 41668.348862 
L 293.621156 41668.348862 
L 294.234755 41668.348862 
L 294.848354 41668.348862 
L 295.461953 41668.348862 
L 296.075553 41668.348862 
L 296.689152 41668.348862 
L 297.302751 41668.348862 
L 297.91635 41668.348862 
L 298.529949 41668.348862 
L 299.143548 41668.348862 
L 299.757147 41668.348862 
L 300.370746 41668.348862 
L 300.984346 41668.348862 
L 301.597945 41668.348862 
L 302.211544 41668.348862 
L 302.825143 41668.348862 
L 303.438742 41668.348862 
L 304.052341 41668.348862 
L 304.66594 41668.348862 
L 305.279539 41668.348862 
L 305.893139 41668.348862 
L 306.506738 41668.348862 
L 307.120337 41668.348862 
L 307.733936 41668.348862 
L 308.347535 41668.348862 
L 308.961134 41668.348862 
L 309.574733 41668.348862 
L 310.188332 41668.348862 
L 310.801932 41668.348862 
L 311.415531 41668.348862 
L 312.02913 41668.348862 
L 312.642729 41668.348862 
L 313.256328 41668.348862 
L 313.869927 41668.348862 
L 314.483526 41668.348862 
L 315.097125 41668.348862 
L 315.710725 41668.348862 
L 316.324324 41668.348862 
L 316.937923 41668.348862 
L 317.551522 41668.348862 
L 318.165121 41668.348862 
L 318.77872 41668.348862 
L 319.392319 41668.348862 
L 320.005918 41668.348862 
L 320.619518 41668.348862 
L 321.233117 41668.348862 
L 321.846716 41668.348862 
L 322.460315 41668.348862 
L 323.073914 41668.348862 
L 323.687513 41668.348862 
L 324.301112 41668.348862 
L 324.914711 41668.348862 
L 325.52831 41668.348862 
L 326.14191 41668.348862 
L 326.755509 41668.348862 
L 327.369108 41668.348862 
L 327.982707 41668.348862 
L 328.596306 41668.348862 
L 329.209905 41668.348862 
L 329.823504 41668.348862 
L 330.437103 41668.348862 
L 331.050703 41668.348862 
L 331.664302 41668.348862 
L 332.277901 41668.348862 
L 332.8915 41668.348862 
L 333.505099 41668.348862 
L 334.118698 41668.348862 
L 334.732297 41668.348862 
L 335.345896 41668.348862 
L 335.959496 41668.348862 
L 336.573095 41668.348862 
L 337.186694 41668.348862 
L 337.800293 41668.348862 
L 338.413892 41668.348862 
L 339.027491 41668.348862 
L 339.64109 41668.348862 
L 340.254689 41668.348862 
L 340.868289 41668.348862 
L 341.481888 41668.348862 
L 342.095487 41668.348862 
L 342.709086 41668.348862 
L 343.322685 41668.348862 
L 343.936284 41668.348862 
L 344.549883 41668.348862 
L 345.163482 41668.348862 
L 345.777082 41668.348862 
L 346.390681 41668.348862 
L 347.00428 41668.348862 
L 347.617879 41668.348862 
L 348.231478 41668.348862 
L 348.845077 41668.348862 
L 349.458676 41668.348862 
L 350.072275 41668.348862 
L 350.685874 41668.348862 
L 351.299474 41668.348862 
L 351.913073 41668.348862 
L 352.526672 41668.348862 
L 353.140271 41668.348862 
L 353.75387 41668.348862 
L 354.367469 41668.348862 
L 354.981068 41668.348862 
L 355.594667 41668.348862 
L 356.208267 41668.348862 
L 356.821866 41668.348862 
L 357.435465 41668.348862 
L 358.049064 41668.348862 
L 358.662663 41668.348862 
L 359.276262 41668.348862 
L 359.889861 41668.348862 
L 360.50346 41668.348862 
L 361.11706 41668.348862 
L 361.730659 41668.348862 
L 362.344258 41668.348862 
L 362.957857 41668.348862 
L 363.571456 41668.348862 
L 364.185055 41668.348862 
L 364.798654 41668.348862 
L 365.412253 41668.348862 
L 366.025853 41668.348862 
L 366.639452 41668.348862 
L 367.253051 41668.348862 
L 367.86665 41668.348862 
L 368.480249 41668.348862 
L 369.093848 41668.348862 
L 369.707447 41668.348862 
L 370.321046 41668.348862 
L 370.934646 41668.348862 
L 371.548245 41668.348862 
L 372.161844 41668.348862 
L 372.775443 41668.348862 
L 372.775443 246.891682 
L 372.775443 246.891682 
L 372.161844 168.71408 
L 371.548245 149.563385 
L 370.934646 185.887642 
L 370.321046 166.685434 
L 369.707447 161.203945 
L 369.093848 160.935653 
L 368.480249 164.863493 
L 367.86665 161.273108 
L 367.253051 163.224725 
L 366.639452 156.747449 
L 366.025853 154.073633 
L 365.412253 161.957464 
L 364.798654 153.599715 
L 364.185055 151.975943 
L 363.571456 149.763659 
L 362.957857 136.5144 
L 362.344258 144.592053 
L 361.730659 135.501568 
L 361.11706 128.897444 
L 360.50346 139.634381 
L 359.889861 132.778082 
L 359.276262 127.282532 
L 358.662663 123.483213 
L 358.049064 126.316534 
L 357.435465 143.616802 
L 356.821866 130.060651 
L 356.208267 120.955776 
L 355.594667 118.353277 
L 354.981068 120.152566 
L 354.367469 122.804878 
L 353.75387 113.783825 
L 353.140271 120.560816 
L 352.526672 120.579412 
L 351.913073 116.012694 
L 351.299474 113.43003 
L 350.685874 112.729217 
L 350.072275 113.905959 
L 349.458676 114.668352 
L 348.845077 116.779356 
L 348.231478 118.919385 
L 347.617879 110.607817 
L 347.00428 114.831478 
L 346.390681 112.664694 
L 345.777082 113.93958 
L 345.163482 114.169972 
L 344.549883 111.625088 
L 343.936284 113.649356 
L 343.322685 107.796341 
L 342.709086 106.26696 
L 342.095487 108.28411 
L 341.481888 116.737706 
L 340.868289 111.310174 
L 340.254689 107.698161 
L 339.64109 105.926734 
L 339.027491 105.741199 
L 338.413892 104.215361 
L 337.800293 104.746056 
L 337.186694 104.799105 
L 336.573095 103.930429 
L 335.959496 102.174444 
L 335.345896 102.745172 
L 334.732297 102.784446 
L 334.118698 107.42473 
L 333.505099 106.845348 
L 332.8915 103.554771 
L 332.277901 105.113997 
L 331.664302 109.308386 
L 331.050703 104.435296 
L 330.437103 100.007896 
L 329.823504 97.087928 
L 329.209905 99.631335 
L 328.596306 103.400581 
L 327.982707 102.06191 
L 327.369108 96.772737 
L 326.755509 101.083844 
L 326.14191 102.097385 
L 325.52831 99.482444 
L 324.914711 103.376963 
L 324.301112 100.089967 
L 323.687513 96.011821 
L 323.073914 95.762119 
L 322.460315 97.352834 
L 321.846716 95.160722 
L 321.233117 95.779371 
L 320.619518 97.541594 
L 320.005918 100.737559 
L 319.392319 98.929912 
L 318.77872 99.15612 
L 318.165121 97.400726 
L 317.551522 97.821218 
L 316.937923 94.148841 
L 316.324324 94.163101 
L 315.710725 99.990072 
L 315.097125 94.986109 
L 314.483526 96.409094 
L 313.869927 94.053205 
L 313.256328 94.973596 
L 312.642729 96.617803 
L 312.02913 99.20722 
L 311.415531 95.842577 
L 310.801932 97.611592 
L 310.188332 93.08897 
L 309.574733 94.740633 
L 308.961134 94.272344 
L 308.347535 94.820174 
L 307.733936 93.179924 
L 307.120337 94.636344 
L 306.506738 94.380941 
L 305.893139 93.699906 
L 305.279539 94.487657 
L 304.66594 94.276831 
L 304.052341 96.898501 
L 303.438742 94.174343 
L 302.825143 95.221255 
L 302.211544 90.271423 
L 301.597945 94.132363 
L 300.984346 92.480765 
L 300.370746 91.045829 
L 299.757147 91.426355 
L 299.143548 90.334791 
L 298.529949 93.725229 
L 297.91635 91.267872 
L 297.302751 92.752548 
L 296.689152 95.952395 
L 296.075553 95.241097 
L 295.461953 96.149486 
L 294.848354 95.056458 
L 294.234755 98.863932 
L 293.621156 92.093369 
L 293.007557 88.067353 
L 292.393958 87.928593 
L 291.780359 89.38983 
L 291.16676 88.937399 
L 290.553161 85.94002 
L 289.939561 87.256647 
L 289.325962 89.061715 
L 288.712363 90.887282 
L 288.098764 90.012181 
L 287.485165 94.151943 
L 286.871566 88.976493 
L 286.257967 91.709498 
L 285.644368 96.546679 
L 285.030768 94.483223 
L 284.417169 96.05645 
L 283.80357 93.295942 
L 283.189971 90.949388 
L 282.576372 86.848459 
L 281.962773 87.228058 
L 281.349174 88.577389 
L 280.735575 85.996495 
L 280.121975 85.036225 
L 279.508376 85.140969 
L 278.894777 83.516389 
L 278.281178 84.898149 
L 277.667579 89.329453 
L 277.05398 96.107125 
L 276.440381 100.970431 
L 275.826782 96.432 
L 275.213182 92.586452 
L 274.599583 94.10602 
L 273.985984 93.338136 
L 273.372385 88.857502 
L 272.758786 88.918763 
L 272.145187 86.85783 
L 271.531588 86.101205 
L 270.917989 85.651636 
L 270.304389 85.61729 
L 269.69079 83.675087 
L 269.077191 82.838113 
L 268.463592 86.218654 
L 267.849993 83.999123 
L 267.236394 88.975011 
L 266.622795 91.3975 
L 266.009196 98.395389 
L 265.395596 98.194526 
L 264.781997 93.3111 
L 264.168398 92.14936 
L 263.554799 92.668493 
L 262.9412 88.682303 
L 262.327601 86.059377 
L 261.714002 86.318725 
L 261.100403 84.866443 
L 260.486804 83.089909 
L 259.873204 81.369635 
L 259.259605 79.565734 
L 258.646006 77.840247 
L 258.032407 79.823829 
L 257.418808 82.70382 
L 256.805209 86.369672 
L 256.19161 86.470624 
L 255.578011 89.449859 
L 254.964411 93.425019 
L 254.350812 94.474102 
L 253.737213 98.986393 
L 253.123614 96.478752 
L 252.510015 95.354749 
L 251.896416 95.588569 
L 251.282817 90.019946 
L 250.669218 88.485451 
L 250.055618 84.743042 
L 249.442019 81.880913 
L 248.82842 81.360355 
L 248.214821 80.982744 
L 247.601222 79.989211 
L 246.987623 81.602455 
L 246.374024 80.814689 
L 245.760425 83.403648 
L 245.146825 85.411497 
L 244.533226 90.304076 
L 243.919627 89.647209 
L 243.306028 90.22491 
L 242.692429 93.933225 
L 242.07883 99.44085 
L 241.465231 99.558993 
L 240.851632 98.04621 
L 240.238032 96.461536 
L 239.624433 91.234725 
L 239.010834 86.863625 
L 238.397235 84.972041 
L 237.783636 84.906962 
L 237.170037 82.058411 
L 236.556438 81.356921 
L 235.942839 81.831046 
L 235.32924 80.512307 
L 234.71564 80.199423 
L 234.102041 80.873502 
L 233.488442 83.130319 
L 232.874843 79.881946 
L 232.261244 81.201138 
L 231.647645 86.274805 
L 231.034046 89.127913 
L 230.420447 93.772606 
L 229.806847 98.867451 
L 229.193248 99.413258 
L 228.579649 96.82904 
L 227.96605 98.543704 
L 227.352451 96.393424 
L 226.738852 96.759915 
L 226.125253 92.249611 
L 225.511654 92.26967 
L 224.898054 87.111112 
L 224.284455 83.748167 
L 223.670856 83.26754 
L 223.057257 79.923695 
L 222.443658 79.831189 
L 221.830059 77.152679 
L 221.21646 77.112922 
L 220.602861 79.881045 
L 219.989261 80.757569 
L 219.375662 82.41243 
L 218.762063 85.503082 
L 218.148464 87.936046 
L 217.534865 93.660695 
L 216.921266 92.873556 
L 216.307667 97.983696 
L 215.694068 102.346048 
L 215.080468 99.417833 
L 214.466869 97.823631 
L 213.85327 100.011951 
L 213.239671 99.109607 
L 212.626072 93.54083 
L 212.012473 87.996162 
L 211.398874 85.684367 
L 210.785275 83.332443 
L 210.171675 81.077709 
L 209.558076 79.225127 
L 208.944477 79.448931 
L 208.330878 80.70581 
L 207.717279 80.086346 
L 207.10368 78.623232 
L 206.490081 82.056748 
L 205.876482 83.000034 
L 205.262883 86.348222 
L 204.649283 91.730722 
L 204.035684 94.690482 
L 203.422085 98.226613 
L 202.808486 102.871929 
L 202.194887 106.944789 
L 201.581288 104.889875 
L 200.967689 102.46747 
L 200.35409 98.391035 
L 199.74049 94.349894 
L 199.126891 92.097561 
L 198.513292 88.669269 
L 197.899693 85.668184 
L 197.286094 86.098373 
L 196.672495 82.327297 
L 196.058896 79.668305 
L 195.445297 77.612141 
L 194.831697 80.168818 
L 194.218098 79.86286 
L 193.604499 77.463397 
L 192.9909 78.187682 
L 192.377301 82.046859 
L 191.763702 84.352276 
L 191.150103 88.735393 
L 190.536504 89.616363 
L 189.922904 98.215084 
L 189.309305 100.362292 
L 188.695706 102.795193 
L 188.082107 104.489417 
L 187.468508 103.604728 
L 186.854909 102.81374 
L 186.24131 98.534719 
L 185.627711 93.966702 
L 185.014111 91.367887 
L 184.400512 85.781152 
L 183.786913 83.339005 
L 183.173314 79.250928 
L 182.559715 79.617291 
L 181.946116 79.069916 
L 181.332517 77.845565 
L 180.718918 75.915735 
L 180.105318 79.279551 
L 179.491719 83.270338 
L 178.87812 84.655767 
L 178.264521 88.769317 
L 177.650922 92.904241 
L 177.037323 98.677955 
L 176.423724 99.501375 
L 175.810125 103.280176 
L 175.196526 109.862264 
L 174.582926 107.820285 
L 173.969327 105.497911 
L 173.355728 100.842382 
L 172.742129 93.560554 
L 172.12853 91.537997 
L 171.514931 87.317156 
L 170.901332 85.514089 
L 170.287733 82.357379 
L 169.674133 78.454072 
L 169.060534 78.179608 
L 168.446935 78.702481 
L 167.833336 78.426846 
L 167.219737 79.197127 
L 166.606138 79.052155 
L 165.992539 81.619987 
L 165.37894 86.269 
L 164.76534 88.77795 
L 164.151741 92.127127 
L 163.538142 98.329109 
L 162.924543 102.899646 
L 162.310944 106.743651 
L 161.697345 110.455179 
L 161.083746 108.501946 
L 160.470147 106.95092 
L 159.856547 100.043249 
L 159.242948 95.485805 
L 158.629349 91.929004 
L 158.01575 86.30488 
L 157.402151 81.042969 
L 156.788552 78.105515 
L 156.174953 76.511414 
L 155.561354 78.27089 
L 154.947754 77.285649 
L 154.334155 79.410644 
L 153.720556 80.450677 
L 153.106957 84.557348 
L 152.493358 85.763367 
L 151.879759 89.3298 
L 151.26616 92.573305 
L 150.652561 96.95759 
L 150.038962 105.612434 
L 149.425362 109.91575 
L 148.811763 112.577212 
L 148.198164 107.69934 
L 147.584565 105.427514 
L 146.970966 99.899899 
L 146.357367 97.233421 
L 145.743768 93.802301 
L 145.130169 88.958569 
L 144.516569 84.433283 
L 143.90297 79.36856 
L 143.289371 78.367425 
L 142.675772 77.226467 
L 142.062173 76.773025 
L 141.448574 76.987125 
L 140.834975 77.180087 
L 140.221376 78.289828 
L 139.607776 79.639243 
L 138.994177 86.030221 
L 138.380578 93.556915 
L 137.766979 100.072606 
L 137.15338 105.472959 
L 136.539781 111.524726 
L 135.926182 113.418934 
L 135.312583 112.342927 
L 134.698983 109.687984 
L 134.085384 106.281429 
L 133.471785 97.002461 
L 132.858186 87.203686 
L 132.244587 86.167042 
L 131.630988 82.855662 
L 131.017389 78.182622 
L 130.40379 76.67183 
L 129.79019 74.643405 
L 129.176591 75.159682 
L 128.562992 74.579328 
L 127.949393 76.78656 
L 127.335794 81.251286 
L 126.722195 83.376174 
L 126.108596 88.732412 
L 125.494997 93.937609 
L 124.881397 97.356475 
L 124.267798 104.035864 
L 123.654199 108.873676 
L 123.0406 112.657667 
L 122.427001 111.921824 
L 121.813402 103.593028 
L 121.199803 101.168499 
L 120.586204 95.181092 
L 119.972605 87.447408 
L 119.359005 82.647139 
L 118.745406 79.638527 
L 118.131807 76.356356 
L 117.518208 72.842952 
L 116.904609 72.337169 
L 116.29101 74.399397 
L 115.677411 73.837907 
L 115.063812 76.145131 
L 114.450212 80.314463 
L 113.836613 84.658524 
L 113.223014 92.650403 
L 112.609415 100.58182 
L 111.995816 103.254627 
L 111.382217 112.253239 
L 110.768618 112.329148 
L 110.155019 107.009322 
L 109.541419 102.235888 
L 108.92782 95.508664 
L 108.314221 87.610791 
L 107.700622 83.120803 
L 107.087023 78.200128 
L 106.473424 74.611065 
L 105.859825 73.358193 
L 105.246226 72.711143 
L 104.632626 73.498672 
L 104.019027 76.4124 
L 103.405428 80.334638 
L 102.791829 84.925061 
L 102.17823 91.683657 
L 101.564631 103.887373 
L 100.951032 104.404941 
L 100.337433 105.566664 
L 99.723833 96.65244 
L 99.110234 89.841872 
L 98.496635 83.675535 
L 97.883036 79.800624 
L 97.269437 74.529997 
L 96.655838 71.771303 
L 96.042239 71.021662 
L 95.42864 71.190223 
L 94.815041 72.500493 
L 94.201441 76.635227 
L 93.587842 83.504301 
L 92.974243 90.57185 
L 92.360644 98.636597 
L 91.747045 95.164116 
L 91.133446 88.072265 
L 90.519847 79.166995 
L 89.906248 73.925822 
L 89.292648 69.68858 
L 88.679049 67.204213 
L 88.06545 68.844688 
L 87.451851 71.606226 
L 86.838252 74.952652 
L 86.224653 82.659831 
L 85.611054 84.656242 
L 84.997455 92.126648 
L 84.383855 101.247632 
L 83.770256 90.142727 
L 83.156657 81.739659 
L 82.543058 72.376375 
L 81.929459 64.829266 
L 81.31586 62.150948 
L 80.702261 61.681615 
L 80.088662 65.37317 
L 79.475062 70.972057 
L 78.861463 81.700008 
L 78.247864 91.993237 
L 77.634265 99.027247 
L 77.020666 92.66742 
L 76.407067 75.051839 
L 75.793468 62.707063 
L 75.179869 57.80953 
L 74.566269 58.935952 
L 73.95267 67.570149 
L 73.339071 78.498536 
L 72.725472 94.657728 
L 72.111873 99.79859 
L 71.498274 82.577267 
L 70.884675 72.363409 
L 70.271076 70.151659 
L 69.657476 74.834842 
L 69.043877 85.291501 
L 68.430278 107.711714 
L 67.816679 123.649257 
L 67.20308 155.819051 
L 66.589481 241.730242 
z
" clip-path="url(#p3917df8121)" style="fill: #4c72b0; fill-opacity: 0.25; stroke: #4c72b0; stroke-width: 0.3"/>
   </g>
   <g id="patch_3">
    <path d="M 52.282462 171.508862 
L 52.282462 5.188862 
" style="fill: none"/>
   </g>
   <g id="patch_4">
    <path d="M 387.082462 171.508862 
L 387.082462 5.188862 
" style="fill: none"/>
   </g>
   <g id="patch_5">
    <path d="M 52.282462 171.508862 
L 387.082462 171.508862 
" style="fill: none"/>
   </g>
   <g id="patch_6">
    <path d="M 52.282462 5.188862 
L 387.082462 5.188862 
" style="fill: none"/>
   </g>
   <g id="text_14">
    <!-- 0 -->
    <g transform="translate(70.316055 64.475275) scale(0.1 -0.1)">
     <use xlink:href="#CMR17-30" transform="scale(0.996264)"/>
    </g>
   </g>
   <g id="text_15">
    <!-- 1 -->
    <g transform="translate(74.965184 54.686409) scale(0.1 -0.1)">
     <use xlink:href="#CMR17-31" transform="scale(0.996264)"/>
    </g>
   </g>
   <g id="text_16">
    <!-- 2 -->
    <g transform="translate(80.989469 57.967) scale(0.1 -0.1)">
     <use xlink:href="#CMR17-32" transform="scale(0.996264)"/>
    </g>
   </g>
   <g id="text_17">
    <!-- 3 -->
    <g transform="translate(88.344683 62.960424) scale(0.1 -0.1)">
     <defs>
      <path id="CMR17-33" d="M 1414 2157 
C 1984 2157 2234 1662 2234 1090 
C 2234 320 1824 25 1453 25 
C 1114 25 563 194 390 693 
C 422 680 454 680 486 680 
C 640 680 755 782 755 948 
C 755 1133 614 1216 486 1216 
C 378 1216 211 1165 211 926 
C 211 335 787 -128 1466 -128 
C 2176 -128 2720 430 2720 1085 
C 2720 1707 2208 2157 1600 2227 
C 2086 2328 2554 2756 2554 3329 
C 2554 3820 2048 4179 1472 4179 
C 890 4179 378 3829 378 3329 
C 378 3110 544 3072 627 3072 
C 762 3072 877 3155 877 3321 
C 877 3486 762 3569 627 3569 
C 602 3569 570 3569 544 3557 
C 730 3959 1235 4032 1459 4032 
C 1683 4032 2106 3925 2106 3320 
C 2106 3143 2080 2828 1862 2550 
C 1670 2304 1453 2304 1242 2284 
C 1210 2284 1062 2269 1037 2269 
C 992 2263 966 2257 966 2208 
C 966 2163 973 2157 1101 2157 
L 1414 2157 
z
" transform="scale(0.015625)"/>
     </defs>
     <use xlink:href="#CMR17-33" transform="scale(0.996264)"/>
    </g>
   </g>
   <g id="text_18">
    <!-- 4 -->
    <g transform="translate(96.05561 64.713232) scale(0.1 -0.1)">
     <use xlink:href="#CMR17-34" transform="scale(0.996264)"/>
    </g>
   </g>
   <g id="text_19">
    <!-- 5 -->
    <g transform="translate(105.449682 66.411901) scale(0.1 -0.1)">
     <defs>
      <path id="CMR17-35" d="M 730 3692 
C 794 3666 1056 3584 1325 3584 
C 1920 3584 2246 3911 2432 4100 
C 2432 4157 2432 4192 2394 4192 
C 2387 4192 2374 4192 2323 4163 
C 2099 4058 1837 3973 1517 3973 
C 1325 3973 1037 3999 723 4139 
C 653 4171 640 4171 634 4171 
C 602 4171 595 4164 595 4037 
L 595 2203 
C 595 2089 595 2057 659 2057 
C 691 2057 704 2070 736 2114 
C 941 2401 1222 2522 1542 2522 
C 1766 2522 2246 2382 2246 1289 
C 2246 1085 2246 715 2054 421 
C 1894 159 1645 25 1370 25 
C 947 25 518 320 403 814 
C 429 807 480 795 506 795 
C 589 795 749 840 749 1038 
C 749 1210 627 1280 506 1280 
C 358 1280 262 1190 262 1011 
C 262 454 704 -128 1382 -128 
C 2042 -128 2669 440 2669 1264 
C 2669 2030 2170 2624 1549 2624 
C 1222 2624 947 2503 730 2274 
L 730 3692 
z
" transform="scale(0.015625)"/>
     </defs>
     <use xlink:href="#CMR17-35" transform="scale(0.996264)"/>
    </g>
   </g>
   <g id="text_20">
    <!-- 6 -->
    <g transform="translate(116.777676 66.518701) scale(0.1 -0.1)">
     <use xlink:href="#CMR17-36" transform="scale(0.996264)"/>
    </g>
   </g>
   <g id="text_21">
    <!-- 7 -->
    <g transform="translate(129.27023 67.854213) scale(0.1 -0.1)">
     <defs>
      <path id="CMR17-37" d="M 2886 3941 
L 2886 4081 
L 1382 4081 
C 634 4081 621 4165 595 4288 
L 480 4288 
L 294 3094 
L 410 3094 
C 429 3215 474 3540 550 3661 
C 589 3712 1062 3712 1171 3712 
L 2579 3712 
L 1869 2661 
C 1395 1954 1069 999 1069 165 
C 1069 89 1069 -128 1299 -128 
C 1530 -128 1530 89 1530 171 
L 1530 465 
C 1530 1508 1709 2196 2003 2636 
L 2886 3941 
z
" transform="scale(0.015625)"/>
     </defs>
     <use xlink:href="#CMR17-37" transform="scale(0.996264)"/>
    </g>
   </g>
   <g id="text_22">
    <!-- 8 -->
    <g transform="translate(142.065087 68.657847) scale(0.1 -0.1)">
     <use xlink:href="#CMR17-38" transform="scale(0.996264)"/>
    </g>
   </g>
   <g id="text_23">
    <!-- 9 -->
    <g transform="translate(155.172096 69.540319) scale(0.1 -0.1)">
     <defs>
      <path id="CMR17-39" d="M 2253 1864 
C 2253 464 1670 31 1190 31 
C 1043 31 685 31 538 294 
C 704 268 826 357 826 518 
C 826 692 685 749 595 749 
C 538 749 365 723 365 506 
C 365 71 742 -128 1203 -128 
C 1939 -128 2688 674 2688 2073 
C 2688 3817 1971 4179 1485 4179 
C 851 4179 243 3628 243 2778 
C 243 1991 762 1408 1414 1408 
C 1952 1408 2189 1903 2253 2112 
L 2253 1864 
z
M 1427 1510 
C 1254 1510 1011 1542 813 1922 
C 678 2169 678 2461 678 2771 
C 678 3146 678 3405 858 3684 
C 947 3817 1114 4032 1485 4032 
C 2240 4032 2240 2885 2240 2632 
C 2240 2182 2035 1510 1427 1510 
z
" transform="scale(0.015625)"/>
     </defs>
     <use xlink:href="#CMR17-39" transform="scale(0.996264)"/>
    </g>
   </g>
   <g id="text_24">
    <!-- 10 -->
    <g transform="translate(168.265976 69.710945) scale(0.1 -0.1)">
     <use xlink:href="#CMR17-31" transform="scale(0.996264)"/>
     <use xlink:href="#CMR17-30" transform="translate(45.690477 0) scale(0.996264)"/>
    </g>
   </g>
   <g id="text_25">
    <!-- 11 -->
    <g transform="translate(181.469847 69.77593) scale(0.1 -0.1)">
     <use xlink:href="#CMR17-31" transform="scale(0.996264)"/>
     <use xlink:href="#CMR17-31" transform="translate(45.690477 0) scale(0.996264)"/>
    </g>
   </g>
   <g id="text_26">
    <!-- 12 -->
    <g transform="translate(194.709173 70.019364) scale(0.1 -0.1)">
     <use xlink:href="#CMR17-31" transform="scale(0.996264)"/>
     <use xlink:href="#CMR17-32" transform="translate(45.690477 0) scale(0.996264)"/>
    </g>
   </g>
   <g id="text_27">
    <!-- 13 -->
    <g transform="translate(208.446338 70.50089) scale(0.1 -0.1)">
     <use xlink:href="#CMR17-31" transform="scale(0.996264)"/>
     <use xlink:href="#CMR17-33" transform="translate(45.690477 0) scale(0.996264)"/>
    </g>
   </g>
   <g id="text_28">
    <!-- 14 -->
    <g transform="translate(221.617757 70.367772) scale(0.1 -0.1)">
     <use xlink:href="#CMR17-31" transform="scale(0.996264)"/>
     <use xlink:href="#CMR17-34" transform="translate(45.690477 0) scale(0.996264)"/>
    </g>
   </g>
   <g id="text_29">
    <!-- 15 -->
    <g transform="translate(234.982463 70.832232) scale(0.1 -0.1)">
     <use xlink:href="#CMR17-31" transform="scale(0.996264)"/>
     <use xlink:href="#CMR17-35" transform="translate(45.690477 0) scale(0.996264)"/>
    </g>
   </g>
   <g id="text_30">
    <!-- 16 -->
    <g transform="translate(247.564256 71.5119) scale(0.1 -0.1)">
     <use xlink:href="#CMR17-31" transform="scale(0.996264)"/>
     <use xlink:href="#CMR17-36" transform="translate(45.690477 0) scale(0.996264)"/>
    </g>
   </g>
   <g id="text_31">
    <!-- 17 -->
    <g transform="translate(259.229576 71.225288) scale(0.1 -0.1)">
     <use xlink:href="#CMR17-31" transform="scale(0.996264)"/>
     <use xlink:href="#CMR17-37" transform="translate(45.690477 0) scale(0.996264)"/>
    </g>
   </g>
   <g id="text_32">
    <!-- 18 -->
    <g transform="translate(270.087346 73.365095) scale(0.1 -0.1)">
     <use xlink:href="#CMR17-31" transform="scale(0.996264)"/>
     <use xlink:href="#CMR17-38" transform="translate(45.690477 0) scale(0.996264)"/>
    </g>
   </g>
   <g id="text_33">
    <!-- 19 -->
    <g transform="translate(280.311551 74.19654) scale(0.1 -0.1)">
     <use xlink:href="#CMR17-31" transform="scale(0.996264)"/>
     <use xlink:href="#CMR17-39" transform="translate(45.690477 0) scale(0.996264)"/>
    </g>
   </g>
   <g id="text_34">
    <!-- 20 -->
    <g transform="translate(290.280221 75.387938) scale(0.1 -0.1)">
     <use xlink:href="#CMR17-32" transform="scale(0.996264)"/>
     <use xlink:href="#CMR17-30" transform="translate(45.690477 0) scale(0.996264)"/>
    </g>
   </g>
   <g id="text_35">
    <!-- 21 -->
    <g transform="translate(300.288602 77.523709) scale(0.1 -0.1)">
     <use xlink:href="#CMR17-32" transform="scale(0.996264)"/>
     <use xlink:href="#CMR17-31" transform="translate(45.690477 0) scale(0.996264)"/>
    </g>
   </g>
   <g id="text_36">
    <!-- 22 -->
    <g transform="translate(310.364895 78.778801) scale(0.1 -0.1)">
     <use xlink:href="#CMR17-32" transform="scale(0.996264)"/>
     <use xlink:href="#CMR17-32" transform="translate(45.690477 0) scale(0.996264)"/>
    </g>
   </g>
   <g id="text_37">
    <!-- 23 -->
    <g transform="translate(321.579775 79.820853) scale(0.1 -0.1)">
     <use xlink:href="#CMR17-32" transform="scale(0.996264)"/>
     <use xlink:href="#CMR17-33" transform="translate(45.690477 0) scale(0.996264)"/>
    </g>
   </g>
   <g id="text_38">
    <!-- 24 -->
    <g transform="translate(334.070964 82.245887) scale(0.1 -0.1)">
     <use xlink:href="#CMR17-32" transform="scale(0.996264)"/>
     <use xlink:href="#CMR17-34" transform="translate(45.690477 0) scale(0.996264)"/>
    </g>
   </g>
   <g id="text_39">
    <!-- 25+ -->
    <g transform="translate(349.230601 84.0094) scale(0.1 -0.1)">
     <defs>
      <path id="CMR17-2b" d="M 2413 1472 
L 4109 1472 
C 4198 1472 4307 1472 4307 1580 
C 4307 1695 4205 1695 4109 1695 
L 2413 1695 
L 2413 3386 
C 2413 3475 2413 3584 2304 3584 
C 2189 3584 2189 3482 2189 3386 
L 2189 1695 
L 493 1695 
C 403 1695 294 1695 294 1587 
C 294 1472 397 1472 493 1472 
L 2189 1472 
L 2189 -218 
C 2189 -307 2189 -416 2298 -416 
C 2413 -416 2413 -314 2413 -218 
L 2413 1472 
z
" transform="scale(0.015625)"/>
     </defs>
     <use xlink:href="#CMR17-32" transform="scale(0.996264)"/>
     <use xlink:href="#CMR17-35" transform="translate(45.690477 0) scale(0.996264)"/>
     <use xlink:href="#CMR17-2b" transform="translate(91.380954 0) scale(0.996264)"/>
    </g>
   </g>
   <g id="text_40">
    <!-- PCA 1D -->
    <g style="fill: #262626" transform="translate(300.262841 22.007411) scale(0.15 -0.15)">
     <defs>
      <path id="CMR17-50" d="M 1267 2042 
L 2291 2042 
C 3117 2042 3718 2578 3718 3184 
C 3718 3791 3130 4352 2291 4352 
L 333 4352 
L 333 4186 
C 774 4186 845 4186 845 3899 
L 845 446 
C 845 160 774 160 333 160 
L 333 0 
C 518 0 858 0 1056 0 
C 1254 0 1594 0 1779 0 
L 1779 160 
C 1338 160 1267 160 1267 446 
L 1267 2042 
z
M 1254 2176 
L 1254 3938 
C 1254 4155 1267 4186 1523 4186 
L 2170 4186 
C 2995 4186 3232 3714 3232 3184 
C 3232 2604 2950 2176 2170 2176 
L 1254 2176 
z
" transform="scale(0.015625)"/>
      <path id="CMR17-43" d="M 3974 4289 
C 3974 4403 3968 4410 3930 4410 
C 3904 4410 3898 4403 3853 4327 
L 3571 3792 
C 3258 4187 2874 4416 2381 4416 
C 1286 4416 294 3456 294 2148 
C 294 826 1286 -128 2387 -128 
C 3366 -128 3974 730 3974 1461 
C 3974 1524 3974 1550 3917 1550 
C 3866 1550 3866 1531 3859 1474 
C 3808 585 3168 38 2477 38 
C 1824 38 781 495 781 2147 
C 781 3805 1843 4250 2464 4250 
C 3187 4250 3712 3628 3834 2745 
C 3846 2668 3846 2655 3904 2655 
C 3974 2655 3974 2668 3974 2783 
L 3974 4289 
z
" transform="scale(0.015625)"/>
      <path id="CMR17-41" d="M 2323 4378 
C 2291 4461 2278 4480 2214 4480 
C 2150 4480 2138 4461 2106 4378 
L 749 566 
C 627 223 371 153 147 153 
L 147 -13 
C 262 0 518 0 640 0 
C 800 0 1056 0 1210 -13 
L 1210 153 
C 909 153 864 361 864 439 
C 864 497 877 530 890 569 
L 1229 1536 
L 2906 1536 
L 3290 442 
C 3322 365 3322 352 3322 327 
C 3322 153 3046 153 2925 153 
L 2925 0 
C 3110 0 3443 0 3642 0 
C 3808 0 4128 0 4282 -13 
L 4282 153 
C 3942 153 3827 153 3744 387 
L 2323 4378 
z
M 2067 3893 
L 2848 1702 
L 1286 1702 
L 2067 3893 
z
" transform="scale(0.015625)"/>
     </defs>
     <use xlink:href="#CMR17-50" transform="scale(0.996264)"/>
     <use xlink:href="#CMR17-43" transform="translate(62.586301 0) scale(0.996264)"/>
     <use xlink:href="#CMR17-41" transform="translate(129.096181 0) scale(0.996264)"/>
     <use xlink:href="#CMR17-31" transform="translate(228.244577 0) scale(0.996264)"/>
     <use xlink:href="#CMR17-44" transform="translate(273.935054 0) scale(0.996264)"/>
    </g>
   </g>
  </g>
 </g>
 <defs>
  <clipPath id="p3917df8121">
   <rect x="52.282462" y="5.188862" width="334.8" height="166.32"/>
  </clipPath>
 </defs>
</svg>
