<?xml version="1.0" encoding="utf-8" standalone="no"?>
<!DOCTYPE svg PUBLIC "-//W3C//DTD SVG 1.1//EN"
  "http://www.w3.org/Graphics/SVG/1.1/DTD/svg11.dtd">
<svg xmlns:xlink="http://www.w3.org/1999/xlink" width="395.417187pt" height="212.053203pt" viewBox="0 0 395.417187 212.053203" xmlns="http://www.w3.org/2000/svg" version="1.1">
 <metadata>
  <rdf:RDF xmlns:dc="http://purl.org/dc/elements/1.1/" xmlns:cc="http://creativecommons.org/ns#" xmlns:rdf="http://www.w3.org/1999/02/22-rdf-syntax-ns#">
   <cc:Work>
    <dc:type rdf:resource="http://purl.org/dc/dcmitype/StillImage"/>
    <dc:date>2024-10-14T14:59:54.694233</dc:date>
    <dc:format>image/svg+xml</dc:format>
    <dc:creator>
     <cc:Agent>
      <dc:title>Matplotlib v3.9.2, https://matplotlib.org/</dc:title>
     </cc:Agent>
    </dc:creator>
   </cc:Work>
  </rdf:RDF>
 </metadata>
 <defs>
  <style type="text/css">*{stroke-linejoin: round; stroke-linecap: butt}</style>
 </defs>
 <g id="figure_1">
  <g id="patch_1">
   <path d="M 0 212.053203 
L 395.417187 212.053203 
L 395.417187 0 
L 0 0 
z
" style="fill: #ffffff"/>
  </g>
  <g id="axes_1">
   <g id="patch_2">
    <path d="M 60.617188 172.018828 
L 395.417188 172.018828 
L 395.417188 5.698828 
L 60.617188 5.698828 
z
" style="fill: #eaeaf2"/>
   </g>
   <g id="matplotlib.axis_1">
    <g id="xtick_1">
     <g id="line2d_1">
      <path d="M 75.835369 172.018828 
L 75.835369 5.698828 
" clip-path="url(#pdb0ceae158)" style="fill: none; stroke: #ffffff; stroke-linecap: round"/>
     </g>
     <g id="line2d_2"/>
     <g id="text_1">
      <!-- 0.0 -->
      <g style="fill: #262626" transform="translate(63.908026 190.416484) scale(0.15 -0.15)">
       <defs>
        <path id="DejaVuSerif-30" d="M 2034 219 
Q 2513 219 2750 744 
Q 2988 1269 2988 2328 
Q 2988 3391 2750 3916 
Q 2513 4441 2034 4441 
Q 1556 4441 1318 3916 
Q 1081 3391 1081 2328 
Q 1081 1269 1318 744 
Q 1556 219 2034 219 
z
M 2034 -91 
Q 1275 -91 848 546 
Q 422 1184 422 2328 
Q 422 3475 848 4112 
Q 1275 4750 2034 4750 
Q 2797 4750 3222 4112 
Q 3647 3475 3647 2328 
Q 3647 1184 3222 546 
Q 2797 -91 2034 -91 
z
" transform="scale(0.015625)"/>
        <path id="DejaVuSerif-2e" d="M 603 325 
Q 603 500 722 622 
Q 841 744 1019 744 
Q 1191 744 1312 622 
Q 1434 500 1434 325 
Q 1434 153 1312 31 
Q 1191 -91 1019 -91 
Q 841 -91 722 29 
Q 603 150 603 325 
z
" transform="scale(0.015625)"/>
       </defs>
       <use xlink:href="#DejaVuSerif-30"/>
       <use xlink:href="#DejaVuSerif-2e" x="63.623047"/>
       <use xlink:href="#DejaVuSerif-30" x="95.410156"/>
      </g>
     </g>
    </g>
    <g id="xtick_2">
     <g id="line2d_3">
      <path d="M 136.708097 172.018828 
L 136.708097 5.698828 
" clip-path="url(#pdb0ceae158)" style="fill: none; stroke: #ffffff; stroke-linecap: round"/>
     </g>
     <g id="line2d_4"/>
     <g id="text_2">
      <!-- 0.2 -->
      <g style="fill: #262626" transform="translate(124.780753 190.416484) scale(0.15 -0.15)">
       <defs>
        <path id="DejaVuSerif-32" d="M 819 3553 
L 469 3553 
L 469 4384 
Q 803 4563 1142 4656 
Q 1481 4750 1806 4750 
Q 2534 4750 2956 4397 
Q 3378 4044 3378 3438 
Q 3378 2753 2422 1800 
Q 2347 1728 2309 1691 
L 1131 513 
L 3078 513 
L 3078 1088 
L 3444 1088 
L 3444 0 
L 434 0 
L 434 341 
L 1850 1753 
Q 2319 2222 2519 2614 
Q 2719 3006 2719 3438 
Q 2719 3909 2473 4175 
Q 2228 4441 1797 4441 
Q 1350 4441 1106 4219 
Q 863 3997 819 3553 
z
" transform="scale(0.015625)"/>
       </defs>
       <use xlink:href="#DejaVuSerif-30"/>
       <use xlink:href="#DejaVuSerif-2e" x="63.623047"/>
       <use xlink:href="#DejaVuSerif-32" x="95.410156"/>
      </g>
     </g>
    </g>
    <g id="xtick_3">
     <g id="line2d_5">
      <path d="M 197.580824 172.018828 
L 197.580824 5.698828 
" clip-path="url(#pdb0ceae158)" style="fill: none; stroke: #ffffff; stroke-linecap: round"/>
     </g>
     <g id="line2d_6"/>
     <g id="text_3">
      <!-- 0.4 -->
      <g style="fill: #262626" transform="translate(185.65348 190.416484) scale(0.15 -0.15)">
       <defs>
        <path id="DejaVuSerif-34" d="M 2234 1581 
L 2234 4063 
L 641 1581 
L 2234 1581 
z
M 3609 0 
L 1484 0 
L 1484 331 
L 2234 331 
L 2234 1247 
L 197 1247 
L 197 1588 
L 2241 4750 
L 2859 4750 
L 2859 1581 
L 3750 1581 
L 3750 1247 
L 2859 1247 
L 2859 331 
L 3609 331 
L 3609 0 
z
" transform="scale(0.015625)"/>
       </defs>
       <use xlink:href="#DejaVuSerif-30"/>
       <use xlink:href="#DejaVuSerif-2e" x="63.623047"/>
       <use xlink:href="#DejaVuSerif-34" x="95.410156"/>
      </g>
     </g>
    </g>
    <g id="xtick_4">
     <g id="line2d_7">
      <path d="M 258.453551 172.018828 
L 258.453551 5.698828 
" clip-path="url(#pdb0ceae158)" style="fill: none; stroke: #ffffff; stroke-linecap: round"/>
     </g>
     <g id="line2d_8"/>
     <g id="text_4">
      <!-- 0.6 -->
      <g style="fill: #262626" transform="translate(246.526207 190.416484) scale(0.15 -0.15)">
       <defs>
        <path id="DejaVuSerif-36" d="M 2094 219 
Q 2534 219 2771 542 
Q 3009 866 3009 1472 
Q 3009 2078 2771 2401 
Q 2534 2725 2094 2725 
Q 1647 2725 1412 2412 
Q 1178 2100 1178 1509 
Q 1178 888 1415 553 
Q 1653 219 2094 219 
z
M 1075 2569 
Q 1288 2803 1556 2918 
Q 1825 3034 2163 3034 
Q 2859 3034 3264 2615 
Q 3669 2197 3669 1472 
Q 3669 763 3233 336 
Q 2797 -91 2069 -91 
Q 1278 -91 853 498 
Q 428 1088 428 2181 
Q 428 3406 931 4078 
Q 1434 4750 2350 4750 
Q 2597 4750 2869 4703 
Q 3141 4656 3425 4563 
L 3425 3794 
L 3072 3794 
Q 3034 4109 2831 4275 
Q 2628 4441 2284 4441 
Q 1678 4441 1381 3981 
Q 1084 3522 1075 2569 
z
" transform="scale(0.015625)"/>
       </defs>
       <use xlink:href="#DejaVuSerif-30"/>
       <use xlink:href="#DejaVuSerif-2e" x="63.623047"/>
       <use xlink:href="#DejaVuSerif-36" x="95.410156"/>
      </g>
     </g>
    </g>
    <g id="xtick_5">
     <g id="line2d_9">
      <path d="M 319.326278 172.018828 
L 319.326278 5.698828 
" clip-path="url(#pdb0ceae158)" style="fill: none; stroke: #ffffff; stroke-linecap: round"/>
     </g>
     <g id="line2d_10"/>
     <g id="text_5">
      <!-- 0.8 -->
      <g style="fill: #262626" transform="translate(307.398935 190.416484) scale(0.15 -0.15)">
       <defs>
        <path id="DejaVuSerif-38" d="M 2981 1275 
Q 2981 1775 2732 2051 
Q 2484 2328 2034 2328 
Q 1584 2328 1336 2051 
Q 1088 1775 1088 1275 
Q 1088 772 1336 495 
Q 1584 219 2034 219 
Q 2484 219 2732 495 
Q 2981 772 2981 1275 
z
M 2853 3541 
Q 2853 3966 2637 4203 
Q 2422 4441 2034 4441 
Q 1650 4441 1433 4203 
Q 1216 3966 1216 3541 
Q 1216 3113 1433 2875 
Q 1650 2638 2034 2638 
Q 2422 2638 2637 2875 
Q 2853 3113 2853 3541 
z
M 2516 2484 
Q 3047 2413 3344 2092 
Q 3641 1772 3641 1275 
Q 3641 619 3225 264 
Q 2809 -91 2034 -91 
Q 1263 -91 845 264 
Q 428 619 428 1275 
Q 428 1772 725 2092 
Q 1022 2413 1556 2484 
Q 1084 2569 832 2842 
Q 581 3116 581 3541 
Q 581 4103 968 4426 
Q 1356 4750 2034 4750 
Q 2713 4750 3100 4426 
Q 3488 4103 3488 3541 
Q 3488 3116 3236 2842 
Q 2984 2569 2516 2484 
z
" transform="scale(0.015625)"/>
       </defs>
       <use xlink:href="#DejaVuSerif-30"/>
       <use xlink:href="#DejaVuSerif-2e" x="63.623047"/>
       <use xlink:href="#DejaVuSerif-38" x="95.410156"/>
      </g>
     </g>
    </g>
    <g id="xtick_6">
     <g id="line2d_11">
      <path d="M 380.199006 172.018828 
L 380.199006 5.698828 
" clip-path="url(#pdb0ceae158)" style="fill: none; stroke: #ffffff; stroke-linecap: round"/>
     </g>
     <g id="line2d_12"/>
     <g id="text_6">
      <!-- 1.0 -->
      <g style="fill: #262626" transform="translate(368.271662 190.416484) scale(0.15 -0.15)">
       <defs>
        <path id="DejaVuSerif-31" d="M 909 0 
L 909 331 
L 1722 331 
L 1722 4213 
L 781 3603 
L 781 4013 
L 1919 4750 
L 2350 4750 
L 2350 331 
L 3163 331 
L 3163 0 
L 909 0 
z
" transform="scale(0.015625)"/>
       </defs>
       <use xlink:href="#DejaVuSerif-31"/>
       <use xlink:href="#DejaVuSerif-2e" x="63.623047"/>
       <use xlink:href="#DejaVuSerif-30" x="95.410156"/>
      </g>
     </g>
    </g>
    <g id="text_7">
     <!-- $s_1$ -->
     <g style="fill: #262626" transform="translate(220.517188 208.933672) scale(0.15 -0.15)">
      <defs>
       <path id="DejaVuSans-Oblique-73" d="M 3200 3397 
L 3091 2853 
Q 2863 2978 2609 3040 
Q 2356 3103 2088 3103 
Q 1634 3103 1373 2948 
Q 1113 2794 1113 2528 
Q 1113 2219 1719 2053 
Q 1766 2041 1788 2034 
L 1972 1978 
Q 2547 1819 2739 1644 
Q 2931 1469 2931 1166 
Q 2931 609 2489 259 
Q 2047 -91 1331 -91 
Q 1053 -91 747 -37 
Q 441 16 72 128 
L 184 722 
Q 500 559 806 475 
Q 1113 391 1394 391 
Q 1816 391 2080 572 
Q 2344 753 2344 1031 
Q 2344 1331 1650 1516 
L 1591 1531 
L 1394 1581 
Q 956 1697 753 1886 
Q 550 2075 550 2369 
Q 550 2928 970 3256 
Q 1391 3584 2113 3584 
Q 2397 3584 2667 3537 
Q 2938 3491 3200 3397 
z
" transform="scale(0.015625)"/>
       <path id="DejaVuSans-31" d="M 794 531 
L 1825 531 
L 1825 4091 
L 703 3866 
L 703 4441 
L 1819 4666 
L 2450 4666 
L 2450 531 
L 3481 531 
L 3481 0 
L 794 0 
L 794 531 
z
" transform="scale(0.015625)"/>
      </defs>
      <use xlink:href="#DejaVuSans-Oblique-73"/>
      <use xlink:href="#DejaVuSans-31" transform="translate(52.099609 -16.40625) scale(0.7)"/>
     </g>
    </g>
   </g>
   <g id="matplotlib.axis_2">
    <g id="ytick_1">
     <g id="line2d_13">
      <path d="M 60.617188 172.018828 
L 395.417188 172.018828 
" clip-path="url(#pdb0ceae158)" style="fill: none; stroke: #ffffff; stroke-linecap: round"/>
     </g>
     <g id="line2d_14"/>
     <g id="text_8">
      <!-- $\mathdefault{10^{-2}}$ -->
      <g style="fill: #262626" transform="translate(18.517187 177.717656) scale(0.15 -0.15)">
       <defs>
        <path id="DejaVuSerif-2212" d="M 678 2259 
L 4684 2259 
L 4684 1753 
L 678 1753 
L 678 2259 
z
" transform="scale(0.015625)"/>
       </defs>
       <use xlink:href="#DejaVuSerif-31" transform="translate(0 0.7125)"/>
       <use xlink:href="#DejaVuSerif-30" transform="translate(63.623047 0.7125)"/>
       <use xlink:href="#DejaVuSerif-2212" transform="translate(128.154453 37.046875) scale(0.7)"/>
       <use xlink:href="#DejaVuSerif-32" transform="translate(186.806797 37.046875) scale(0.7)"/>
      </g>
     </g>
    </g>
    <g id="ytick_2">
     <g id="line2d_15">
      <path d="M 60.617188 130.438828 
L 395.417188 130.438828 
" clip-path="url(#pdb0ceae158)" style="fill: none; stroke: #ffffff; stroke-linecap: round"/>
     </g>
     <g id="line2d_16"/>
     <g id="text_9">
      <!-- $\mathdefault{10^{-1}}$ -->
      <g style="fill: #262626" transform="translate(18.517187 136.137656) scale(0.15 -0.15)">
       <use xlink:href="#DejaVuSerif-31" transform="translate(0 0.7125)"/>
       <use xlink:href="#DejaVuSerif-30" transform="translate(63.623047 0.7125)"/>
       <use xlink:href="#DejaVuSerif-2212" transform="translate(128.154453 37.046875) scale(0.7)"/>
       <use xlink:href="#DejaVuSerif-31" transform="translate(186.806797 37.046875) scale(0.7)"/>
      </g>
     </g>
    </g>
    <g id="ytick_3">
     <g id="line2d_17">
      <path d="M 60.617188 88.858828 
L 395.417188 88.858828 
" clip-path="url(#pdb0ceae158)" style="fill: none; stroke: #ffffff; stroke-linecap: round"/>
     </g>
     <g id="line2d_18"/>
     <g id="text_10">
      <!-- $\mathdefault{10^{0}}$ -->
      <g style="fill: #262626" transform="translate(27.217188 94.557656) scale(0.15 -0.15)">
       <use xlink:href="#DejaVuSerif-31" transform="translate(0 0.7125)"/>
       <use xlink:href="#DejaVuSerif-30" transform="translate(63.623047 0.7125)"/>
       <use xlink:href="#DejaVuSerif-30" transform="translate(128.154453 37.046875) scale(0.7)"/>
      </g>
     </g>
    </g>
    <g id="ytick_4">
     <g id="line2d_19">
      <path d="M 60.617188 47.278828 
L 395.417188 47.278828 
" clip-path="url(#pdb0ceae158)" style="fill: none; stroke: #ffffff; stroke-linecap: round"/>
     </g>
     <g id="line2d_20"/>
     <g id="text_11">
      <!-- $\mathdefault{10^{1}}$ -->
      <g style="fill: #262626" transform="translate(27.217188 52.977656) scale(0.15 -0.15)">
       <use xlink:href="#DejaVuSerif-31" transform="translate(0 0.7125)"/>
       <use xlink:href="#DejaVuSerif-30" transform="translate(63.623047 0.7125)"/>
       <use xlink:href="#DejaVuSerif-31" transform="translate(128.154453 37.046875) scale(0.7)"/>
      </g>
     </g>
    </g>
    <g id="ytick_5">
     <g id="line2d_21">
      <path d="M 60.617188 5.698828 
L 395.417188 5.698828 
" clip-path="url(#pdb0ceae158)" style="fill: none; stroke: #ffffff; stroke-linecap: round"/>
     </g>
     <g id="line2d_22"/>
     <g id="text_12">
      <!-- $\mathdefault{10^{2}}$ -->
      <g style="fill: #262626" transform="translate(27.217188 11.397656) scale(0.15 -0.15)">
       <use xlink:href="#DejaVuSerif-31" transform="translate(0 0.7125)"/>
       <use xlink:href="#DejaVuSerif-30" transform="translate(63.623047 0.7125)"/>
       <use xlink:href="#DejaVuSerif-32" transform="translate(128.154453 37.046875) scale(0.7)"/>
      </g>
     </g>
    </g>
    <g id="ytick_6">
     <g id="line2d_23"/>
    </g>
    <g id="ytick_7">
     <g id="line2d_24"/>
    </g>
    <g id="ytick_8">
     <g id="line2d_25"/>
    </g>
    <g id="ytick_9">
     <g id="line2d_26"/>
    </g>
    <g id="ytick_10">
     <g id="line2d_27"/>
    </g>
    <g id="ytick_11">
     <g id="line2d_28"/>
    </g>
    <g id="ytick_12">
     <g id="line2d_29"/>
    </g>
    <g id="ytick_13">
     <g id="line2d_30"/>
    </g>
    <g id="ytick_14">
     <g id="line2d_31"/>
    </g>
    <g id="ytick_15">
     <g id="line2d_32"/>
    </g>
    <g id="ytick_16">
     <g id="line2d_33"/>
    </g>
    <g id="ytick_17">
     <g id="line2d_34"/>
    </g>
    <g id="ytick_18">
     <g id="line2d_35"/>
    </g>
    <g id="ytick_19">
     <g id="line2d_36"/>
    </g>
    <g id="ytick_20">
     <g id="line2d_37"/>
    </g>
    <g id="ytick_21">
     <g id="line2d_38"/>
    </g>
    <g id="ytick_22">
     <g id="line2d_39"/>
    </g>
    <g id="ytick_23">
     <g id="line2d_40"/>
    </g>
    <g id="ytick_24">
     <g id="line2d_41"/>
    </g>
    <g id="ytick_25">
     <g id="line2d_42"/>
    </g>
    <g id="ytick_26">
     <g id="line2d_43"/>
    </g>
    <g id="ytick_27">
     <g id="line2d_44"/>
    </g>
    <g id="ytick_28">
     <g id="line2d_45"/>
    </g>
    <g id="ytick_29">
     <g id="line2d_46"/>
    </g>
    <g id="ytick_30">
     <g id="line2d_47"/>
    </g>
    <g id="ytick_31">
     <g id="line2d_48"/>
    </g>
    <g id="ytick_32">
     <g id="line2d_49"/>
    </g>
    <g id="ytick_33">
     <g id="line2d_50"/>
    </g>
    <g id="ytick_34">
     <g id="line2d_51"/>
    </g>
    <g id="ytick_35">
     <g id="line2d_52"/>
    </g>
    <g id="ytick_36">
     <g id="line2d_53"/>
    </g>
    <g id="ytick_37">
     <g id="line2d_54"/>
    </g>
    <g id="text_13">
     <!-- Density -->
     <g style="fill: #262626" transform="translate(11.184375 117.640078) rotate(-90) scale(0.15 -0.15)">
      <defs>
       <path id="DejaVuSerif-44" d="M 1581 331 
L 2163 331 
Q 3072 331 3558 850 
Q 4044 1369 4044 2338 
Q 4044 3306 3559 3818 
Q 3075 4331 2163 4331 
L 1581 4331 
L 1581 331 
z
M 353 0 
L 353 331 
L 947 331 
L 947 4331 
L 353 4331 
L 353 4666 
L 2209 4666 
Q 3416 4666 4089 4050 
Q 4763 3434 4763 2338 
Q 4763 1238 4088 619 
Q 3413 0 2209 0 
L 353 0 
z
" transform="scale(0.015625)"/>
       <path id="DejaVuSerif-65" d="M 3469 1600 
L 991 1600 
L 991 1575 
Q 991 903 1244 561 
Q 1497 219 1991 219 
Q 2369 219 2611 417 
Q 2853 616 2950 1006 
L 3413 1006 
Q 3275 459 2904 184 
Q 2534 -91 1931 -91 
Q 1203 -91 761 389 
Q 319 869 319 1663 
Q 319 2450 753 2931 
Q 1188 3413 1894 3413 
Q 2647 3413 3050 2948 
Q 3453 2484 3469 1600 
z
M 2791 1931 
Q 2772 2513 2545 2808 
Q 2319 3103 1894 3103 
Q 1497 3103 1269 2806 
Q 1041 2509 991 1931 
L 2791 1931 
z
" transform="scale(0.015625)"/>
       <path id="DejaVuSerif-6e" d="M 263 0 
L 263 331 
L 781 331 
L 781 2988 
L 231 2988 
L 231 3322 
L 1356 3322 
L 1356 2731 
Q 1516 3069 1770 3241 
Q 2025 3413 2363 3413 
Q 2913 3413 3172 3097 
Q 3431 2781 3431 2113 
L 3431 331 
L 3944 331 
L 3944 0 
L 2356 0 
L 2356 331 
L 2853 331 
L 2853 1931 
Q 2853 2541 2703 2767 
Q 2553 2994 2175 2994 
Q 1775 2994 1565 2701 
Q 1356 2409 1356 1850 
L 1356 331 
L 1856 331 
L 1856 0 
L 263 0 
z
" transform="scale(0.015625)"/>
       <path id="DejaVuSerif-73" d="M 359 184 
L 359 959 
L 691 959 
Q 703 588 923 403 
Q 1144 219 1575 219 
Q 1963 219 2166 364 
Q 2369 509 2369 788 
Q 2369 1006 2220 1140 
Q 2072 1275 1594 1428 
L 1178 1569 
Q 750 1706 558 1912 
Q 366 2119 366 2438 
Q 366 2894 700 3153 
Q 1034 3413 1625 3413 
Q 1888 3413 2178 3344 
Q 2469 3275 2778 3144 
L 2778 2419 
L 2447 2419 
Q 2434 2741 2221 2922 
Q 2009 3103 1644 3103 
Q 1281 3103 1095 2975 
Q 909 2847 909 2591 
Q 909 2381 1050 2254 
Q 1191 2128 1613 1997 
L 2069 1856 
Q 2541 1709 2748 1489 
Q 2956 1269 2956 922 
Q 2956 450 2595 179 
Q 2234 -91 1600 -91 
Q 1278 -91 972 -22 
Q 666 47 359 184 
z
" transform="scale(0.015625)"/>
       <path id="DejaVuSerif-69" d="M 622 4353 
Q 622 4497 726 4603 
Q 831 4709 978 4709 
Q 1122 4709 1226 4603 
Q 1331 4497 1331 4353 
Q 1331 4206 1228 4103 
Q 1125 4000 978 4000 
Q 831 4000 726 4103 
Q 622 4206 622 4353 
z
M 1356 331 
L 1900 331 
L 1900 0 
L 231 0 
L 231 331 
L 781 331 
L 781 2988 
L 231 2988 
L 231 3322 
L 1356 3322 
L 1356 331 
z
" transform="scale(0.015625)"/>
       <path id="DejaVuSerif-74" d="M 691 2988 
L 184 2988 
L 184 3322 
L 691 3322 
L 691 4353 
L 1269 4353 
L 1269 3322 
L 2350 3322 
L 2350 2988 
L 1269 2988 
L 1269 878 
Q 1269 456 1350 337 
Q 1431 219 1650 219 
Q 1875 219 1978 351 
Q 2081 484 2088 781 
L 2522 781 
Q 2497 328 2275 118 
Q 2053 -91 1600 -91 
Q 1103 -91 897 129 
Q 691 350 691 878 
L 691 2988 
z
" transform="scale(0.015625)"/>
       <path id="DejaVuSerif-79" d="M 1381 -609 
L 1600 -56 
L 359 2988 
L -19 2988 
L -19 3322 
L 1509 3322 
L 1509 2988 
L 978 2988 
L 1913 703 
L 2847 2988 
L 2350 2988 
L 2350 3322 
L 3597 3322 
L 3597 2988 
L 3225 2988 
L 1703 -750 
Q 1547 -1138 1356 -1280 
Q 1166 -1422 819 -1422 
Q 672 -1422 517 -1397 
Q 363 -1372 206 -1325 
L 206 -691 
L 500 -691 
Q 519 -903 608 -995 
Q 697 -1088 884 -1088 
Q 1056 -1088 1161 -992 
Q 1266 -897 1381 -609 
z
" transform="scale(0.015625)"/>
      </defs>
      <use xlink:href="#DejaVuSerif-44"/>
      <use xlink:href="#DejaVuSerif-65" x="80.175781"/>
      <use xlink:href="#DejaVuSerif-6e" x="139.355469"/>
      <use xlink:href="#DejaVuSerif-73" x="203.759766"/>
      <use xlink:href="#DejaVuSerif-69" x="255.078125"/>
      <use xlink:href="#DejaVuSerif-74" x="287.060547"/>
      <use xlink:href="#DejaVuSerif-79" x="327.246094"/>
     </g>
    </g>
   </g>
   <g id="PolyCollection_1">
    <path d="M 74.803527 216.929108 
L 74.803527 41668.858828 
L 75.41761 41668.858828 
L 76.031693 41668.858828 
L 76.645776 41668.858828 
L 77.259858 41668.858828 
L 77.873941 41668.858828 
L 78.488024 41668.858828 
L 79.102107 41668.858828 
L 79.71619 41668.858828 
L 80.330272 41668.858828 
L 80.944355 41668.858828 
L 81.558438 41668.858828 
L 82.172521 41668.858828 
L 82.786604 41668.858828 
L 83.400686 41668.858828 
L 84.014769 41668.858828 
L 84.628852 41668.858828 
L 85.242935 41668.858828 
L 85.857018 41668.858828 
L 86.4711 41668.858828 
L 87.085183 41668.858828 
L 87.699266 41668.858828 
L 88.313349 41668.858828 
L 88.927432 41668.858828 
L 89.541515 41668.858828 
L 90.155597 41668.858828 
L 90.76968 41668.858828 
L 91.383763 41668.858828 
L 91.997846 41668.858828 
L 92.611929 41668.858828 
L 93.226011 41668.858828 
L 93.840094 41668.858828 
L 94.454177 41668.858828 
L 95.06826 41668.858828 
L 95.682343 41668.858828 
L 96.296425 41668.858828 
L 96.910508 41668.858828 
L 97.524591 41668.858828 
L 98.138674 41668.858828 
L 98.752757 41668.858828 
L 99.366839 41668.858828 
L 99.980922 41668.858828 
L 100.595005 41668.858828 
L 101.209088 41668.858828 
L 101.823171 41668.858828 
L 102.437253 41668.858828 
L 103.051336 41668.858828 
L 103.665419 41668.858828 
L 104.279502 41668.858828 
L 104.893585 41668.858828 
L 105.507668 41668.858828 
L 106.12175 41668.858828 
L 106.735833 41668.858828 
L 107.349916 41668.858828 
L 107.963999 41668.858828 
L 108.578082 41668.858828 
L 109.192164 41668.858828 
L 109.806247 41668.858828 
L 110.42033 41668.858828 
L 111.034413 41668.858828 
L 111.648496 41668.858828 
L 112.262578 41668.858828 
L 112.876661 41668.858828 
L 113.490744 41668.858828 
L 114.104827 41668.858828 
L 114.71891 41668.858828 
L 115.332992 41668.858828 
L 115.947075 41668.858828 
L 116.561158 41668.858828 
L 117.175241 41668.858828 
L 117.789324 41668.858828 
L 118.403406 41668.858828 
L 119.017489 41668.858828 
L 119.631572 41668.858828 
L 120.245655 41668.858828 
L 120.859738 41668.858828 
L 121.47382 41668.858828 
L 122.087903 41668.858828 
L 122.701986 41668.858828 
L 123.316069 41668.858828 
L 123.930152 41668.858828 
L 124.544235 41668.858828 
L 125.158317 41668.858828 
L 125.7724 41668.858828 
L 126.386483 41668.858828 
L 127.000566 41668.858828 
L 127.614649 41668.858828 
L 128.228731 41668.858828 
L 128.842814 41668.858828 
L 129.456897 41668.858828 
L 130.07098 41668.858828 
L 130.685063 41668.858828 
L 131.299145 41668.858828 
L 131.913228 41668.858828 
L 132.527311 41668.858828 
L 133.141394 41668.858828 
L 133.755477 41668.858828 
L 134.369559 41668.858828 
L 134.983642 41668.858828 
L 135.597725 41668.858828 
L 136.211808 41668.858828 
L 136.825891 41668.858828 
L 137.439973 41668.858828 
L 138.054056 41668.858828 
L 138.668139 41668.858828 
L 139.282222 41668.858828 
L 139.896305 41668.858828 
L 140.510388 41668.858828 
L 141.12447 41668.858828 
L 141.738553 41668.858828 
L 142.352636 41668.858828 
L 142.966719 41668.858828 
L 143.580802 41668.858828 
L 144.194884 41668.858828 
L 144.808967 41668.858828 
L 145.42305 41668.858828 
L 146.037133 41668.858828 
L 146.651216 41668.858828 
L 147.265298 41668.858828 
L 147.879381 41668.858828 
L 148.493464 41668.858828 
L 149.107547 41668.858828 
L 149.72163 41668.858828 
L 150.335712 41668.858828 
L 150.949795 41668.858828 
L 151.563878 41668.858828 
L 152.177961 41668.858828 
L 152.792044 41668.858828 
L 153.406126 41668.858828 
L 154.020209 41668.858828 
L 154.634292 41668.858828 
L 155.248375 41668.858828 
L 155.862458 41668.858828 
L 156.47654 41668.858828 
L 157.090623 41668.858828 
L 157.704706 41668.858828 
L 158.318789 41668.858828 
L 158.932872 41668.858828 
L 159.546955 41668.858828 
L 160.161037 41668.858828 
L 160.77512 41668.858828 
L 161.389203 41668.858828 
L 162.003286 41668.858828 
L 162.617369 41668.858828 
L 163.231451 41668.858828 
L 163.845534 41668.858828 
L 164.459617 41668.858828 
L 165.0737 41668.858828 
L 165.687783 41668.858828 
L 166.301865 41668.858828 
L 166.915948 41668.858828 
L 167.530031 41668.858828 
L 168.144114 41668.858828 
L 168.758197 41668.858828 
L 169.372279 41668.858828 
L 169.986362 41668.858828 
L 170.600445 41668.858828 
L 171.214528 41668.858828 
L 171.828611 41668.858828 
L 172.442693 41668.858828 
L 173.056776 41668.858828 
L 173.670859 41668.858828 
L 174.284942 41668.858828 
L 174.899025 41668.858828 
L 175.513108 41668.858828 
L 176.12719 41668.858828 
L 176.741273 41668.858828 
L 177.355356 41668.858828 
L 177.969439 41668.858828 
L 178.583522 41668.858828 
L 179.197604 41668.858828 
L 179.811687 41668.858828 
L 180.42577 41668.858828 
L 181.039853 41668.858828 
L 181.653936 41668.858828 
L 182.268018 41668.858828 
L 182.882101 41668.858828 
L 183.496184 41668.858828 
L 184.110267 41668.858828 
L 184.72435 41668.858828 
L 185.338432 41668.858828 
L 185.952515 41668.858828 
L 186.566598 41668.858828 
L 187.180681 41668.858828 
L 187.794764 41668.858828 
L 188.408846 41668.858828 
L 189.022929 41668.858828 
L 189.637012 41668.858828 
L 190.251095 41668.858828 
L 190.865178 41668.858828 
L 191.47926 41668.858828 
L 192.093343 41668.858828 
L 192.707426 41668.858828 
L 193.321509 41668.858828 
L 193.935592 41668.858828 
L 194.549675 41668.858828 
L 195.163757 41668.858828 
L 195.77784 41668.858828 
L 196.391923 41668.858828 
L 197.006006 41668.858828 
L 197.620089 41668.858828 
L 198.234171 41668.858828 
L 198.848254 41668.858828 
L 199.462337 41668.858828 
L 200.07642 41668.858828 
L 200.690503 41668.858828 
L 201.304585 41668.858828 
L 201.918668 41668.858828 
L 202.532751 41668.858828 
L 203.146834 41668.858828 
L 203.760917 41668.858828 
L 204.374999 41668.858828 
L 204.989082 41668.858828 
L 205.603165 41668.858828 
L 206.217248 41668.858828 
L 206.831331 41668.858828 
L 207.445413 41668.858828 
L 208.059496 41668.858828 
L 208.673579 41668.858828 
L 209.287662 41668.858828 
L 209.901745 41668.858828 
L 210.515828 41668.858828 
L 211.12991 41668.858828 
L 211.743993 41668.858828 
L 212.358076 41668.858828 
L 212.972159 41668.858828 
L 213.586242 41668.858828 
L 214.200324 41668.858828 
L 214.814407 41668.858828 
L 215.42849 41668.858828 
L 216.042573 41668.858828 
L 216.656656 41668.858828 
L 217.270738 41668.858828 
L 217.884821 41668.858828 
L 218.498904 41668.858828 
L 219.112987 41668.858828 
L 219.72707 41668.858828 
L 220.341152 41668.858828 
L 220.955235 41668.858828 
L 221.569318 41668.858828 
L 222.183401 41668.858828 
L 222.797484 41668.858828 
L 223.411566 41668.858828 
L 224.025649 41668.858828 
L 224.639732 41668.858828 
L 225.253815 41668.858828 
L 225.867898 41668.858828 
L 226.48198 41668.858828 
L 227.096063 41668.858828 
L 227.710146 41668.858828 
L 228.324229 41668.858828 
L 228.938312 41668.858828 
L 229.552395 41668.858828 
L 230.166477 41668.858828 
L 230.78056 41668.858828 
L 231.394643 41668.858828 
L 232.008726 41668.858828 
L 232.622809 41668.858828 
L 233.236891 41668.858828 
L 233.850974 41668.858828 
L 234.465057 41668.858828 
L 235.07914 41668.858828 
L 235.693223 41668.858828 
L 236.307305 41668.858828 
L 236.921388 41668.858828 
L 237.535471 41668.858828 
L 238.149554 41668.858828 
L 238.763637 41668.858828 
L 239.377719 41668.858828 
L 239.991802 41668.858828 
L 240.605885 41668.858828 
L 241.219968 41668.858828 
L 241.834051 41668.858828 
L 242.448133 41668.858828 
L 243.062216 41668.858828 
L 243.676299 41668.858828 
L 244.290382 41668.858828 
L 244.904465 41668.858828 
L 245.518547 41668.858828 
L 246.13263 41668.858828 
L 246.746713 41668.858828 
L 247.360796 41668.858828 
L 247.974879 41668.858828 
L 248.588962 41668.858828 
L 249.203044 41668.858828 
L 249.817127 41668.858828 
L 250.43121 41668.858828 
L 251.045293 41668.858828 
L 251.659376 41668.858828 
L 252.273458 41668.858828 
L 252.887541 41668.858828 
L 253.501624 41668.858828 
L 254.115707 41668.858828 
L 254.72979 41668.858828 
L 255.343872 41668.858828 
L 255.957955 41668.858828 
L 256.572038 41668.858828 
L 257.186121 41668.858828 
L 257.800204 41668.858828 
L 258.414286 41668.858828 
L 259.028369 41668.858828 
L 259.642452 41668.858828 
L 260.256535 41668.858828 
L 260.870618 41668.858828 
L 261.4847 41668.858828 
L 262.098783 41668.858828 
L 262.712866 41668.858828 
L 263.326949 41668.858828 
L 263.941032 41668.858828 
L 264.555115 41668.858828 
L 265.169197 41668.858828 
L 265.78328 41668.858828 
L 266.397363 41668.858828 
L 267.011446 41668.858828 
L 267.625529 41668.858828 
L 268.239611 41668.858828 
L 268.853694 41668.858828 
L 269.467777 41668.858828 
L 270.08186 41668.858828 
L 270.695943 41668.858828 
L 271.310025 41668.858828 
L 271.924108 41668.858828 
L 272.538191 41668.858828 
L 273.152274 41668.858828 
L 273.766357 41668.858828 
L 274.380439 41668.858828 
L 274.994522 41668.858828 
L 275.608605 41668.858828 
L 276.222688 41668.858828 
L 276.836771 41668.858828 
L 277.450853 41668.858828 
L 278.064936 41668.858828 
L 278.679019 41668.858828 
L 279.293102 41668.858828 
L 279.907185 41668.858828 
L 280.521267 41668.858828 
L 281.13535 41668.858828 
L 281.749433 41668.858828 
L 282.363516 41668.858828 
L 282.977599 41668.858828 
L 283.591682 41668.858828 
L 284.205764 41668.858828 
L 284.819847 41668.858828 
L 285.43393 41668.858828 
L 286.048013 41668.858828 
L 286.662096 41668.858828 
L 287.276178 41668.858828 
L 287.890261 41668.858828 
L 288.504344 41668.858828 
L 289.118427 41668.858828 
L 289.73251 41668.858828 
L 290.346592 41668.858828 
L 290.960675 41668.858828 
L 291.574758 41668.858828 
L 292.188841 41668.858828 
L 292.802924 41668.858828 
L 293.417006 41668.858828 
L 294.031089 41668.858828 
L 294.645172 41668.858828 
L 295.259255 41668.858828 
L 295.873338 41668.858828 
L 296.48742 41668.858828 
L 297.101503 41668.858828 
L 297.715586 41668.858828 
L 298.329669 41668.858828 
L 298.943752 41668.858828 
L 299.557835 41668.858828 
L 300.171917 41668.858828 
L 300.786 41668.858828 
L 301.400083 41668.858828 
L 302.014166 41668.858828 
L 302.628249 41668.858828 
L 303.242331 41668.858828 
L 303.856414 41668.858828 
L 304.470497 41668.858828 
L 305.08458 41668.858828 
L 305.698663 41668.858828 
L 306.312745 41668.858828 
L 306.926828 41668.858828 
L 307.540911 41668.858828 
L 308.154994 41668.858828 
L 308.769077 41668.858828 
L 309.383159 41668.858828 
L 309.997242 41668.858828 
L 310.611325 41668.858828 
L 311.225408 41668.858828 
L 311.839491 41668.858828 
L 312.453573 41668.858828 
L 313.067656 41668.858828 
L 313.681739 41668.858828 
L 314.295822 41668.858828 
L 314.909905 41668.858828 
L 315.523987 41668.858828 
L 316.13807 41668.858828 
L 316.752153 41668.858828 
L 317.366236 41668.858828 
L 317.980319 41668.858828 
L 318.594402 41668.858828 
L 319.208484 41668.858828 
L 319.822567 41668.858828 
L 320.43665 41668.858828 
L 321.050733 41668.858828 
L 321.664816 41668.858828 
L 322.278898 41668.858828 
L 322.892981 41668.858828 
L 323.507064 41668.858828 
L 324.121147 41668.858828 
L 324.73523 41668.858828 
L 325.349312 41668.858828 
L 325.963395 41668.858828 
L 326.577478 41668.858828 
L 327.191561 41668.858828 
L 327.805644 41668.858828 
L 328.419726 41668.858828 
L 329.033809 41668.858828 
L 329.647892 41668.858828 
L 330.261975 41668.858828 
L 330.876058 41668.858828 
L 331.49014 41668.858828 
L 332.104223 41668.858828 
L 332.718306 41668.858828 
L 333.332389 41668.858828 
L 333.946472 41668.858828 
L 334.560555 41668.858828 
L 335.174637 41668.858828 
L 335.78872 41668.858828 
L 336.402803 41668.858828 
L 337.016886 41668.858828 
L 337.630969 41668.858828 
L 338.245051 41668.858828 
L 338.859134 41668.858828 
L 339.473217 41668.858828 
L 340.0873 41668.858828 
L 340.701383 41668.858828 
L 341.315465 41668.858828 
L 341.929548 41668.858828 
L 342.543631 41668.858828 
L 343.157714 41668.858828 
L 343.771797 41668.858828 
L 344.385879 41668.858828 
L 344.999962 41668.858828 
L 345.614045 41668.858828 
L 346.228128 41668.858828 
L 346.842211 41668.858828 
L 347.456293 41668.858828 
L 348.070376 41668.858828 
L 348.684459 41668.858828 
L 349.298542 41668.858828 
L 349.912625 41668.858828 
L 350.526707 41668.858828 
L 351.14079 41668.858828 
L 351.754873 41668.858828 
L 352.368956 41668.858828 
L 352.983039 41668.858828 
L 353.597122 41668.858828 
L 354.211204 41668.858828 
L 354.825287 41668.858828 
L 355.43937 41668.858828 
L 356.053453 41668.858828 
L 356.667536 41668.858828 
L 357.281618 41668.858828 
L 357.895701 41668.858828 
L 358.509784 41668.858828 
L 359.123867 41668.858828 
L 359.73795 41668.858828 
L 360.352032 41668.858828 
L 360.966115 41668.858828 
L 361.580198 41668.858828 
L 362.194281 41668.858828 
L 362.808364 41668.858828 
L 363.422446 41668.858828 
L 364.036529 41668.858828 
L 364.650612 41668.858828 
L 365.264695 41668.858828 
L 365.878778 41668.858828 
L 366.49286 41668.858828 
L 367.106943 41668.858828 
L 367.721026 41668.858828 
L 368.335109 41668.858828 
L 368.949192 41668.858828 
L 369.563275 41668.858828 
L 370.177357 41668.858828 
L 370.79144 41668.858828 
L 371.405523 41668.858828 
L 372.019606 41668.858828 
L 372.633689 41668.858828 
L 373.247771 41668.858828 
L 373.861854 41668.858828 
L 374.475937 41668.858828 
L 375.09002 41668.858828 
L 375.704103 41668.858828 
L 376.318185 41668.858828 
L 376.932268 41668.858828 
L 377.546351 41668.858828 
L 378.160434 41668.858828 
L 378.774517 41668.858828 
L 379.388599 41668.858828 
L 380.002682 41668.858828 
L 380.616765 41668.858828 
L 381.230848 41668.858828 
L 381.230848 245.164214 
L 381.230848 245.164214 
L 380.616765 166.104416 
L 380.002682 123.388015 
L 379.388599 98.804227 
L 378.774517 76.521742 
L 378.160434 67.020484 
L 377.546351 71.772676 
L 376.932268 82.665331 
L 376.318185 99.654311 
L 375.704103 120.171772 
L 375.09002 122.850537 
L 374.475937 126.206286 
L 373.861854 122.407597 
L 373.247771 112.951782 
L 372.633689 96.639074 
L 372.019606 85.289048 
L 371.405523 77.808909 
L 370.79144 74.501835 
L 370.177357 70.943566 
L 369.563275 68.510057 
L 368.949192 69.049719 
L 368.335109 69.524967 
L 367.721026 73.515437 
L 367.106943 80.453778 
L 366.49286 90.29343 
L 365.878778 105.464383 
L 365.264695 127.599529 
L 364.650612 143.966285 
L 364.036529 158.587494 
L 363.422446 195.145188 
L 362.808364 176.666875 
L 362.194281 175.156072 
L 361.580198 172.574564 
L 360.966115 181.032924 
L 360.352032 187.254158 
L 359.73795 150.310539 
L 359.123867 164.204534 
L 358.509784 168.759633 
L 357.895701 169.243477 
L 357.281618 183.855942 
L 356.667536 173.701317 
L 356.053453 174.651636 
L 355.43937 165.709241 
L 354.825287 158.383677 
L 354.211204 158.915692 
L 353.597122 145.322196 
L 352.983039 117.545763 
L 352.368956 100.319658 
L 351.754873 84.654559 
L 351.14079 74.972114 
L 350.526707 73.958191 
L 349.912625 74.565832 
L 349.298542 73.738019 
L 348.684459 71.45274 
L 348.070376 72.024069 
L 347.456293 72.328325 
L 346.842211 71.793757 
L 346.228128 73.619862 
L 345.614045 82.230497 
L 344.999962 96.275146 
L 344.385879 114.44379 
L 343.771797 136.219595 
L 343.157714 159.598473 
L 342.543631 165.730603 
L 341.929548 193.674132 
L 341.315465 169.09633 
L 340.701383 166.727746 
L 340.0873 179.349267 
L 339.473217 162.086621 
L 338.859134 147.736205 
L 338.245051 164.056208 
L 337.630969 149.619034 
L 337.016886 148.02993 
L 336.402803 136.586907 
L 335.78872 130.266195 
L 335.174637 108.777876 
L 334.560555 85.667016 
L 333.946472 76.385455 
L 333.332389 77.404492 
L 332.718306 77.875007 
L 332.104223 76.905183 
L 331.49014 74.595245 
L 330.876058 74.218453 
L 330.261975 74.949398 
L 329.647892 75.091684 
L 329.033809 77.643724 
L 328.419726 80.450463 
L 327.805644 91.918354 
L 327.191561 120.59599 
L 326.577478 148.602176 
L 325.963395 154.400182 
L 325.349312 178.964437 
L 324.73523 176.99836 
L 324.121147 174.652355 
L 323.507064 161.186968 
L 322.892981 149.652148 
L 322.278898 160.589465 
L 321.664816 143.573062 
L 321.050733 148.893028 
L 320.43665 141.989042 
L 319.822567 141.434483 
L 319.208484 122.179011 
L 318.594402 93.852208 
L 317.980319 76.893315 
L 317.366236 76.737935 
L 316.752153 78.346939 
L 316.13807 75.109537 
L 315.523987 74.478767 
L 314.909905 75.313453 
L 314.295822 73.149953 
L 313.681739 73.855527 
L 313.067656 78.536531 
L 312.453573 87.294851 
L 311.839491 105.121456 
L 311.225408 136.243972 
L 310.611325 145.936944 
L 309.997242 166.1206 
L 309.383159 170.089721 
L 308.769077 200.381346 
L 308.154994 171.602685 
L 307.540911 184.460954 
L 306.926828 243.718383 
L 306.312745 185.161261 
L 305.698663 163.300322 
L 305.08458 164.623932 
L 304.470497 169.674391 
L 303.856414 212.237661 
L 303.242331 247.210074 
L 302.628249 181.556685 
L 302.014166 172.841532 
L 301.400083 186.313847 
L 300.786 150.460606 
L 300.171917 106.03372 
L 299.557835 81.654439 
L 298.943752 78.328149 
L 298.329669 78.696574 
L 297.715586 78.533287 
L 297.101503 75.829794 
L 296.48742 74.12381 
L 295.873338 75.126355 
L 295.259255 77.984882 
L 294.645172 75.463627 
L 294.031089 74.911584 
L 293.417006 87.11831 
L 292.802924 116.074171 
L 292.188841 147.510792 
L 291.574758 168.321334 
L 290.960675 170.435692 
L 290.346592 166.502143 
L 289.73251 177.394871 
L 289.118427 237.326865 
L 288.504344 248.754164 
L 287.890261 181.667123 
L 287.276178 165.123647 
L 286.662096 170.383223 
L 286.048013 184.822326 
L 285.43393 170.016187 
L 284.819847 175.091244 
L 284.205764 175.413119 
L 283.591682 230.526842 
L 282.977599 338.840279 
L 282.363516 244.720765 
L 281.749433 178.988521 
L 281.13535 140.954608 
L 280.521267 100.889066 
L 279.907185 81.1958 
L 279.293102 76.541731 
L 278.679019 75.310476 
L 278.064936 76.761641 
L 277.450853 76.706194 
L 276.836771 75.792543 
L 276.222688 75.350104 
L 275.608605 74.958998 
L 274.994522 75.403003 
L 274.380439 76.107007 
L 273.766357 77.535644 
L 273.152274 86.505023 
L 272.538191 114.765206 
L 271.924108 136.966101 
L 271.310025 152.733705 
L 270.695943 154.021804 
L 270.08186 167.482851 
L 269.467777 154.546542 
L 268.853694 163.847739 
L 268.239611 167.937391 
L 267.625529 191.260787 
L 267.011446 170.116964 
L 266.397363 189.726636 
L 265.78328 266.873365 
L 265.169197 401.582438 
L 264.555115 593.853877 
L 263.941032 672.527903 
L 263.326949 460.640605 
L 262.712866 306.306158 
L 262.098783 209.389508 
L 261.4847 167.650562 
L 260.870618 163.706848 
L 260.256535 151.902973 
L 259.642452 109.553587 
L 259.028369 87.439516 
L 258.414286 79.695144 
L 257.800204 78.257084 
L 257.186121 77.09458 
L 256.572038 76.481343 
L 255.957955 74.810746 
L 255.343872 77.135299 
L 254.72979 78.128999 
L 254.115707 76.994644 
L 253.501624 79.439869 
L 252.887541 79.507268 
L 252.273458 79.488308 
L 251.659376 88.201011 
L 251.045293 111.391802 
L 250.43121 137.995352 
L 249.817127 148.051932 
L 249.203044 171.79518 
L 248.588962 241.851548 
L 247.974879 193.750377 
L 247.360796 156.67454 
L 246.746713 153.421136 
L 246.13263 169.616978 
L 245.518547 156.917789 
L 244.904465 151.912658 
L 244.290382 153.229575 
L 243.676299 154.060079 
L 243.062216 175.540407 
L 242.448133 150.475808 
L 241.834051 148.132473 
L 241.219968 136.70665 
L 240.605885 116.656994 
L 239.991802 93.503698 
L 239.377719 82.875304 
L 238.763637 79.519468 
L 238.149554 76.59733 
L 237.535471 78.218063 
L 236.921388 78.504496 
L 236.307305 76.145391 
L 235.693223 76.449462 
L 235.07914 77.081568 
L 234.465057 76.879055 
L 233.850974 79.242327 
L 233.236891 82.377992 
L 232.622809 92.205158 
L 232.008726 110.682368 
L 231.394643 131.511217 
L 230.78056 139.578655 
L 230.166477 156.687875 
L 229.552395 166.834939 
L 228.938312 153.482289 
L 228.324229 154.116983 
L 227.710146 157.984098 
L 227.096063 173.733452 
L 226.48198 153.286988 
L 225.867898 160.469887 
L 225.253815 160.973666 
L 224.639732 128.516524 
L 224.025649 117.822002 
L 223.411566 95.488108 
L 222.797484 81.761484 
L 222.183401 76.513904 
L 221.569318 76.892786 
L 220.955235 79.177306 
L 220.341152 78.119908 
L 219.72707 77.477067 
L 219.112987 78.374839 
L 218.498904 78.805269 
L 217.884821 78.358967 
L 217.270738 78.28628 
L 216.656656 82.250387 
L 216.042573 93.119473 
L 215.42849 110.989005 
L 214.814407 138.196243 
L 214.200324 144.521471 
L 213.586242 161.913578 
L 212.972159 158.480361 
L 212.358076 156.304511 
L 211.743993 148.001251 
L 211.12991 136.467162 
L 210.515828 140.301621 
L 209.901745 140.04222 
L 209.287662 140.993842 
L 208.673579 119.005524 
L 208.059496 94.334197 
L 207.445413 81.524898 
L 206.831331 74.811681 
L 206.217248 75.132572 
L 205.603165 77.778724 
L 204.989082 77.430697 
L 204.374999 76.288176 
L 203.760917 76.930491 
L 203.146834 79.660343 
L 202.532751 79.10746 
L 201.918668 78.88484 
L 201.304585 83.162185 
L 200.690503 91.861947 
L 200.07642 112.30421 
L 199.462337 130.966726 
L 198.848254 134.851687 
L 198.234171 141.862355 
L 197.620089 150.924032 
L 197.006006 136.861335 
L 196.391923 115.589089 
L 195.77784 95.152388 
L 195.163757 84.97603 
L 194.549675 79.298276 
L 193.935592 76.667219 
L 193.321509 78.653497 
L 192.707426 78.621001 
L 192.093343 79.36941 
L 191.47926 77.856752 
L 190.865178 78.179768 
L 190.251095 78.279311 
L 189.637012 78.108782 
L 189.022929 82.987509 
L 188.408846 89.787606 
L 187.794764 95.379311 
L 187.180681 112.26921 
L 186.566598 128.705877 
L 185.952515 140.06214 
L 185.338432 133.991996 
L 184.72435 132.777347 
L 184.110267 121.105979 
L 183.496184 107.829394 
L 182.882101 89.788257 
L 182.268018 78.923208 
L 181.653936 75.162396 
L 181.039853 74.90654 
L 180.42577 74.03431 
L 179.811687 76.415581 
L 179.197604 76.998057 
L 178.583522 76.990209 
L 177.969439 76.54707 
L 177.355356 77.441873 
L 176.741273 79.285104 
L 176.12719 83.797844 
L 175.513108 92.744665 
L 174.899025 104.530734 
L 174.284942 115.143276 
L 173.670859 125.99643 
L 173.056776 129.318725 
L 172.442693 115.065255 
L 171.828611 93.293826 
L 171.214528 80.429341 
L 170.600445 76.378397 
L 169.986362 76.936105 
L 169.372279 78.667591 
L 168.758197 80.15391 
L 168.144114 78.356673 
L 167.530031 77.06862 
L 166.915948 77.570983 
L 166.301865 79.752089 
L 165.687783 81.178606 
L 165.0737 82.078061 
L 164.459617 87.779306 
L 163.845534 95.359616 
L 163.231451 106.100565 
L 162.617369 114.926687 
L 162.003286 116.447661 
L 161.389203 108.030564 
L 160.77512 98.470971 
L 160.161037 88.635704 
L 159.546955 81.015739 
L 158.932872 81.08059 
L 158.318789 79.882169 
L 157.704706 79.228187 
L 157.090623 79.723363 
L 156.47654 79.413009 
L 155.862458 75.844088 
L 155.248375 78.014604 
L 154.634292 82.443675 
L 154.020209 82.925142 
L 153.406126 82.134504 
L 152.792044 83.257712 
L 152.177961 90.882397 
L 151.563878 102.23138 
L 150.949795 109.003468 
L 150.335712 107.03067 
L 149.72163 105.67834 
L 149.107547 99.884294 
L 148.493464 89.533076 
L 147.879381 80.843512 
L 147.265298 76.221962 
L 146.651216 76.874907 
L 146.037133 77.68334 
L 145.42305 79.410444 
L 144.808967 81.405841 
L 144.194884 79.818789 
L 143.580802 80.066975 
L 142.966719 77.046259 
L 142.352636 78.002141 
L 141.738553 83.856107 
L 141.12447 87.786813 
L 140.510388 92.347018 
L 139.896305 96.038696 
L 139.282222 96.508281 
L 138.668139 93.003327 
L 138.054056 86.279965 
L 137.439973 83.852671 
L 136.825891 82.091344 
L 136.211808 80.513723 
L 135.597725 79.644545 
L 134.983642 78.437105 
L 134.369559 75.399425 
L 133.755477 75.542135 
L 133.141394 77.739932 
L 132.527311 82.12303 
L 131.913228 86.855425 
L 131.299145 91.252053 
L 130.685063 91.622702 
L 130.07098 94.404014 
L 129.456897 92.884655 
L 128.842814 86.060246 
L 128.228731 81.136622 
L 127.614649 81.090549 
L 127.000566 79.385987 
L 126.386483 77.20729 
L 125.7724 76.633465 
L 125.158317 77.540633 
L 124.544235 78.98657 
L 123.930152 79.962319 
L 123.316069 82.157454 
L 122.701986 87.467798 
L 122.087903 87.46496 
L 121.47382 88.197777 
L 120.859738 86.646595 
L 120.245655 85.640679 
L 119.631572 82.106844 
L 119.017489 80.226931 
L 118.403406 80.098077 
L 117.789324 80.023916 
L 117.175241 78.677155 
L 116.561158 78.195907 
L 115.947075 82.23905 
L 115.332992 86.268014 
L 114.71891 86.507303 
L 114.104827 90.639104 
L 113.490744 91.802702 
L 112.876661 90.233935 
L 112.262578 83.886707 
L 111.648496 79.618166 
L 111.034413 77.099126 
L 110.42033 75.031573 
L 109.806247 79.528666 
L 109.192164 80.847783 
L 108.578082 83.909362 
L 107.963999 86.304612 
L 107.349916 88.068864 
L 106.735833 92.819456 
L 106.12175 87.565455 
L 105.507668 84.77393 
L 104.893585 82.679362 
L 104.279502 79.938998 
L 103.665419 78.925242 
L 103.051336 79.625284 
L 102.437253 81.358547 
L 101.823171 88.546623 
L 101.209088 91.410265 
L 100.595005 89.472652 
L 99.980922 89.199479 
L 99.366839 84.299246 
L 98.752757 81.81799 
L 98.138674 81.13839 
L 97.524591 81.901466 
L 96.910508 85.316089 
L 96.296425 85.611601 
L 95.682343 87.457392 
L 95.06826 86.423655 
L 94.454177 85.153203 
L 93.840094 83.149088 
L 93.226011 81.587609 
L 92.611929 83.195205 
L 91.997846 86.295445 
L 91.383763 87.41027 
L 90.76968 85.850014 
L 90.155597 83.901677 
L 89.541515 81.867395 
L 88.927432 83.134726 
L 88.313349 85.279173 
L 87.699266 88.119964 
L 87.085183 89.787846 
L 86.4711 87.37771 
L 85.857018 85.776977 
L 85.242935 81.781582 
L 84.628852 82.039575 
L 84.014769 85.78744 
L 83.400686 85.158331 
L 82.786604 83.604313 
L 82.172521 85.879125 
L 81.558438 87.227136 
L 80.944355 84.342499 
L 80.330272 85.724355 
L 79.71619 85.18203 
L 79.102107 82.818269 
L 78.488024 81.098895 
L 77.873941 80.420646 
L 77.259858 80.691024 
L 76.645776 79.296901 
L 76.031693 87.929064 
L 75.41761 129.002998 
L 74.803527 216.929108 
z
" clip-path="url(#pdb0ceae158)" style="fill: #4c72b0; fill-opacity: 0.25; stroke: #4c72b0; stroke-width: 0.3"/>
   </g>
   <g id="patch_3">
    <path d="M 60.617188 172.018828 
L 60.617188 5.698828 
" style="fill: none"/>
   </g>
   <g id="patch_4">
    <path d="M 395.417188 172.018828 
L 395.417188 5.698828 
" style="fill: none"/>
   </g>
   <g id="patch_5">
    <path d="M 60.617188 172.018828 
L 395.417188 172.018828 
" style="fill: none"/>
   </g>
   <g id="patch_6">
    <path d="M 60.617188 5.698828 
L 395.417188 5.698828 
" style="fill: none"/>
   </g>
   <g id="text_14">
    <!-- 0 -->
    <g transform="translate(377.914585 63.278529) scale(0.1 -0.1)">
     <use xlink:href="#DejaVuSerif-30"/>
    </g>
   </g>
   <g id="text_15">
    <!-- 1 -->
    <g transform="translate(369.41317 63.180986) scale(0.1 -0.1)">
     <use xlink:href="#DejaVuSerif-31"/>
    </g>
   </g>
   <g id="text_16">
    <!-- 2 -->
    <g transform="translate(348.601499 63.674097) scale(0.1 -0.1)">
     <use xlink:href="#DejaVuSerif-32"/>
    </g>
   </g>
   <g id="text_17">
    <!-- 3 -->
    <g transform="translate(331.332692 65.602977) scale(0.1 -0.1)">
     <defs>
      <path id="DejaVuSerif-33" d="M 622 4469 
Q 988 4606 1323 4678 
Q 1659 4750 1953 4750 
Q 2638 4750 3022 4454 
Q 3406 4159 3406 3634 
Q 3406 3213 3140 2930 
Q 2875 2647 2388 2547 
Q 2963 2466 3280 2130 
Q 3597 1794 3597 1259 
Q 3597 606 3158 257 
Q 2719 -91 1894 -91 
Q 1528 -91 1179 -12 
Q 831 66 488 225 
L 488 1131 
L 838 1131 
Q 869 681 1141 450 
Q 1413 219 1906 219 
Q 2384 219 2661 495 
Q 2938 772 2938 1253 
Q 2938 1803 2653 2086 
Q 2369 2369 1819 2369 
L 1522 2369 
L 1522 2688 
L 1678 2688 
Q 2225 2688 2498 2914 
Q 2772 3141 2772 3597 
Q 2772 4006 2547 4223 
Q 2322 4441 1900 4441 
Q 1478 4441 1245 4241 
Q 1013 4041 972 3647 
L 622 3647 
L 622 4469 
z
" transform="scale(0.015625)"/>
     </defs>
     <use xlink:href="#DejaVuSerif-33"/>
    </g>
   </g>
   <g id="text_18">
    <!-- 4 -->
    <g transform="translate(315.411262 65.236078) scale(0.1 -0.1)">
     <use xlink:href="#DejaVuSerif-34"/>
    </g>
   </g>
   <g id="text_19">
    <!-- 5 -->
    <g transform="translate(296.495883 65.654714) scale(0.1 -0.1)">
     <defs>
      <path id="DejaVuSerif-35" d="M 3219 4666 
L 3219 4153 
L 1081 4153 
L 1081 2816 
Q 1244 2928 1461 2984 
Q 1678 3041 1947 3041 
Q 2703 3041 3140 2622 
Q 3578 2203 3578 1478 
Q 3578 738 3136 323 
Q 2694 -91 1894 -91 
Q 1572 -91 1234 -12 
Q 897 66 544 225 
L 544 1131 
L 897 1131 
Q 925 688 1179 453 
Q 1434 219 1894 219 
Q 2388 219 2653 544 
Q 2919 869 2919 1478 
Q 2919 2084 2655 2407 
Q 2391 2731 1894 2731 
Q 1613 2731 1398 2631 
Q 1184 2531 1019 2322 
L 750 2322 
L 750 4666 
L 3219 4666 
z
" transform="scale(0.015625)"/>
     </defs>
     <use xlink:href="#DejaVuSerif-35"/>
    </g>
   </g>
   <g id="text_20">
    <!-- 6 -->
    <g transform="translate(276.608119 65.360373) scale(0.1 -0.1)">
     <use xlink:href="#DejaVuSerif-36"/>
    </g>
   </g>
   <g id="text_21">
    <!-- 7 -->
    <g transform="translate(255.362061 66.31116) scale(0.1 -0.1)">
     <defs>
      <path id="DejaVuSerif-37" d="M 3609 4347 
L 1784 0 
L 1319 0 
L 3059 4153 
L 903 4153 
L 903 3578 
L 538 3578 
L 538 4666 
L 3609 4666 
L 3609 4347 
z
" transform="scale(0.015625)"/>
     </defs>
     <use xlink:href="#DejaVuSerif-37"/>
    </g>
   </g>
   <g id="text_22">
    <!-- 8 -->
    <g transform="translate(236.273926 66.996863) scale(0.1 -0.1)">
     <use xlink:href="#DejaVuSerif-38"/>
    </g>
   </g>
   <g id="text_23">
    <!-- 9 -->
    <g transform="translate(219.738034 67.04268) scale(0.1 -0.1)">
     <defs>
      <path id="DejaVuSerif-39" d="M 2994 2091 
Q 2784 1856 2512 1740 
Q 2241 1625 1900 1625 
Q 1206 1625 804 2044 
Q 403 2463 403 3188 
Q 403 3897 839 4323 
Q 1275 4750 2003 4750 
Q 2794 4750 3217 4161 
Q 3641 3572 3641 2478 
Q 3641 1253 3137 581 
Q 2634 -91 1722 -91 
Q 1475 -91 1203 -44 
Q 931 3 647 97 
L 647 872 
L 997 872 
Q 1038 556 1241 387 
Q 1444 219 1784 219 
Q 2391 219 2687 676 
Q 2984 1134 2994 2091 
z
M 1978 4441 
Q 1534 4441 1298 4117 
Q 1063 3794 1063 3188 
Q 1063 2581 1298 2256 
Q 1534 1931 1978 1931 
Q 2422 1931 2658 2245 
Q 2894 2559 2894 3150 
Q 2894 3772 2656 4106 
Q 2419 4441 1978 4441 
z
" transform="scale(0.015625)"/>
     </defs>
     <use xlink:href="#DejaVuSerif-39"/>
    </g>
   </g>
   <g id="text_24">
    <!-- 10 -->
    <g transform="translate(204.479935 66.645021) scale(0.1 -0.1)">
     <use xlink:href="#DejaVuSerif-31"/>
     <use xlink:href="#DejaVuSerif-30" x="63.623047"/>
    </g>
   </g>
   <g id="text_25">
    <!-- 11 -->
    <g transform="translate(191.861225 67.409834) scale(0.1 -0.1)">
     <use xlink:href="#DejaVuSerif-31"/>
     <use xlink:href="#DejaVuSerif-31" x="63.623047"/>
    </g>
   </g>
   <g id="text_26">
    <!-- 12 -->
    <g transform="translate(179.369826 65.941643) scale(0.1 -0.1)">
     <use xlink:href="#DejaVuSerif-31"/>
     <use xlink:href="#DejaVuSerif-32" x="63.623047"/>
    </g>
   </g>
   <g id="text_27">
    <!-- 13 -->
    <g transform="translate(168.039267 67.678289) scale(0.1 -0.1)">
     <use xlink:href="#DejaVuSerif-31"/>
     <use xlink:href="#DejaVuSerif-33" x="63.623047"/>
    </g>
   </g>
   <g id="text_28">
    <!-- 14 -->
    <g transform="translate(156.367152 68.764844) scale(0.1 -0.1)">
     <use xlink:href="#DejaVuSerif-31"/>
     <use xlink:href="#DejaVuSerif-34" x="63.623047"/>
    </g>
   </g>
   <g id="text_29">
    <!-- 15 -->
    <g transform="translate(144.780118 68.658489) scale(0.1 -0.1)">
     <use xlink:href="#DejaVuSerif-31"/>
     <use xlink:href="#DejaVuSerif-35" x="63.623047"/>
    </g>
   </g>
   <g id="text_30">
    <!-- 16 -->
    <g transform="translate(134.738307 69.120587) scale(0.1 -0.1)">
     <use xlink:href="#DejaVuSerif-31"/>
     <use xlink:href="#DejaVuSerif-36" x="63.623047"/>
    </g>
   </g>
   <g id="text_31">
    <!-- 17 -->
    <g transform="translate(125.743702 69.179449) scale(0.1 -0.1)">
     <use xlink:href="#DejaVuSerif-31"/>
     <use xlink:href="#DejaVuSerif-37" x="63.623047"/>
    </g>
   </g>
   <g id="text_32">
    <!-- 18 -->
    <g transform="translate(117.743478 70.378825) scale(0.1 -0.1)">
     <use xlink:href="#DejaVuSerif-31"/>
     <use xlink:href="#DejaVuSerif-38" x="63.623047"/>
    </g>
   </g>
   <g id="text_33">
    <!-- 19 -->
    <g transform="translate(110.317937 69.712675) scale(0.1 -0.1)">
     <use xlink:href="#DejaVuSerif-31"/>
     <use xlink:href="#DejaVuSerif-39" x="63.623047"/>
    </g>
   </g>
   <g id="text_34">
    <!-- 20 -->
    <g transform="translate(103.860892 71.099695) scale(0.1 -0.1)">
     <use xlink:href="#DejaVuSerif-32"/>
     <use xlink:href="#DejaVuSerif-30" x="63.623047"/>
    </g>
   </g>
   <g id="text_35">
    <!-- 21 -->
    <g transform="translate(97.914498 73.028641) scale(0.1 -0.1)">
     <use xlink:href="#DejaVuSerif-32"/>
     <use xlink:href="#DejaVuSerif-31" x="63.623047"/>
    </g>
   </g>
   <g id="text_36">
    <!-- 22 -->
    <g transform="translate(92.050845 73.479621) scale(0.1 -0.1)">
     <use xlink:href="#DejaVuSerif-32"/>
     <use xlink:href="#DejaVuSerif-32" x="63.623047"/>
    </g>
   </g>
   <g id="text_37">
    <!-- 23 -->
    <g transform="translate(86.430551 75.315419) scale(0.1 -0.1)">
     <use xlink:href="#DejaVuSerif-32"/>
     <use xlink:href="#DejaVuSerif-33" x="63.623047"/>
    </g>
   </g>
   <g id="text_38">
    <!-- 24 -->
    <g transform="translate(82.047084 75.090631) scale(0.1 -0.1)">
     <use xlink:href="#DejaVuSerif-32"/>
     <use xlink:href="#DejaVuSerif-34" x="63.623047"/>
    </g>
   </g>
   <g id="text_39">
    <!-- 25+ -->
    <g transform="translate(77.855344 71.649732) scale(0.1 -0.1)">
     <defs>
      <path id="DejaVuSerif-2b" d="M 2931 4013 
L 2931 2259 
L 4684 2259 
L 4684 1753 
L 2931 1753 
L 2931 0 
L 2431 0 
L 2431 1753 
L 678 1753 
L 678 2259 
L 2431 2259 
L 2431 4013 
L 2931 4013 
z
" transform="scale(0.015625)"/>
     </defs>
     <use xlink:href="#DejaVuSerif-32"/>
     <use xlink:href="#DejaVuSerif-35" x="63.623047"/>
     <use xlink:href="#DejaVuSerif-2b" x="127.246094"/>
    </g>
   </g>
   <g id="text_40">
    <!-- PTSNE 1D -->
    <g style="fill: #262626" transform="translate(282.674631 23.537308) scale(0.15 -0.15)">
     <defs>
      <path id="DejaVuSerif-50" d="M 1581 2375 
L 2406 2375 
Q 2872 2375 3115 2626 
Q 3359 2878 3359 3353 
Q 3359 3831 3115 4081 
Q 2872 4331 2406 4331 
L 1581 4331 
L 1581 2375 
z
M 353 0 
L 353 331 
L 947 331 
L 947 4331 
L 353 4331 
L 353 4666 
L 2559 4666 
Q 3259 4666 3668 4311 
Q 4078 3956 4078 3353 
Q 4078 2753 3668 2397 
Q 3259 2041 2559 2041 
L 1581 2041 
L 1581 331 
L 2303 331 
L 2303 0 
L 353 0 
z
" transform="scale(0.015625)"/>
      <path id="DejaVuSerif-54" d="M 1222 0 
L 1222 331 
L 1819 331 
L 1819 4294 
L 447 4294 
L 447 3566 
L 63 3566 
L 63 4666 
L 4206 4666 
L 4206 3566 
L 3822 3566 
L 3822 4294 
L 2450 4294 
L 2450 331 
L 3047 331 
L 3047 0 
L 1222 0 
z
" transform="scale(0.015625)"/>
      <path id="DejaVuSerif-53" d="M 594 225 
L 594 1288 
L 953 1284 
Q 969 753 1261 498 
Q 1553 244 2150 244 
Q 2706 244 2998 464 
Q 3291 684 3291 1106 
Q 3291 1444 3114 1625 
Q 2938 1806 2369 1978 
L 1753 2163 
Q 1084 2366 811 2669 
Q 538 2972 538 3500 
Q 538 4094 959 4422 
Q 1381 4750 2144 4750 
Q 2469 4750 2856 4679 
Q 3244 4609 3681 4475 
L 3681 3481 
L 3328 3481 
Q 3275 3975 2998 4195 
Q 2722 4416 2156 4416 
Q 1663 4416 1405 4214 
Q 1147 4013 1147 3628 
Q 1147 3294 1340 3103 
Q 1534 2913 2163 2725 
L 2741 2553 
Q 3375 2363 3645 2067 
Q 3916 1772 3916 1275 
Q 3916 597 3481 253 
Q 3047 -91 2188 -91 
Q 1803 -91 1404 -12 
Q 1006 66 594 225 
z
" transform="scale(0.015625)"/>
      <path id="DejaVuSerif-4e" d="M 313 0 
L 313 331 
L 941 331 
L 941 4331 
L 313 4331 
L 313 4666 
L 1509 4666 
L 4306 984 
L 4306 4331 
L 3681 4331 
L 3681 4666 
L 5319 4666 
L 5319 4331 
L 4691 4331 
L 4691 -91 
L 4313 -91 
L 1325 3841 
L 1325 331 
L 1953 331 
L 1953 0 
L 313 0 
z
" transform="scale(0.015625)"/>
      <path id="DejaVuSerif-45" d="M 353 0 
L 353 331 
L 947 331 
L 947 4331 
L 353 4331 
L 353 4666 
L 4109 4666 
L 4109 3628 
L 3725 3628 
L 3725 4281 
L 1581 4281 
L 1581 2719 
L 3109 2719 
L 3109 3303 
L 3494 3303 
L 3494 1753 
L 3109 1753 
L 3109 2338 
L 1581 2338 
L 1581 384 
L 3775 384 
L 3775 1038 
L 4159 1038 
L 4159 0 
L 353 0 
z
" transform="scale(0.015625)"/>
      <path id="DejaVuSerif-20" transform="scale(0.015625)"/>
     </defs>
     <use xlink:href="#DejaVuSerif-50"/>
     <use xlink:href="#DejaVuSerif-54" x="67.285156"/>
     <use xlink:href="#DejaVuSerif-53" x="133.984375"/>
     <use xlink:href="#DejaVuSerif-4e" x="202.490234"/>
     <use xlink:href="#DejaVuSerif-45" x="289.990234"/>
     <use xlink:href="#DejaVuSerif-20" x="362.988281"/>
     <use xlink:href="#DejaVuSerif-31" x="394.775391"/>
     <use xlink:href="#DejaVuSerif-44" x="458.398438"/>
    </g>
   </g>
  </g>
 </g>
 <defs>
  <clipPath id="pdb0ceae158">
   <rect x="60.617188" y="5.698828" width="334.8" height="166.32"/>
  </clipPath>
 </defs>
</svg>
