<?xml version="1.0" encoding="utf-8" standalone="no"?>
<!DOCTYPE svg PUBLIC "-//W3C//DTD SVG 1.1//EN"
  "http://www.w3.org/Graphics/SVG/1.1/DTD/svg11.dtd">
<svg xmlns:xlink="http://www.w3.org/1999/xlink" width="395.417187pt" height="212.053203pt" viewBox="0 0 395.417187 212.053203" xmlns="http://www.w3.org/2000/svg" version="1.1">
 <metadata>
  <rdf:RDF xmlns:dc="http://purl.org/dc/elements/1.1/" xmlns:cc="http://creativecommons.org/ns#" xmlns:rdf="http://www.w3.org/1999/02/22-rdf-syntax-ns#">
   <cc:Work>
    <dc:type rdf:resource="http://purl.org/dc/dcmitype/StillImage"/>
    <dc:date>2024-10-14T15:00:02.829519</dc:date>
    <dc:format>image/svg+xml</dc:format>
    <dc:creator>
     <cc:Agent>
      <dc:title>Matplotlib v3.9.2, https://matplotlib.org/</dc:title>
     </cc:Agent>
    </dc:creator>
   </cc:Work>
  </rdf:RDF>
 </metadata>
 <defs>
  <style type="text/css">*{stroke-linejoin: round; stroke-linecap: butt}</style>
 </defs>
 <g id="figure_1">
  <g id="patch_1">
   <path d="M 0 212.053203 
L 395.417187 212.053203 
L 395.417187 0 
L 0 0 
z
" style="fill: #ffffff"/>
  </g>
  <g id="axes_1">
   <g id="patch_2">
    <path d="M 60.617188 172.018828 
L 395.417188 172.018828 
L 395.417188 5.698828 
L 60.617188 5.698828 
z
" style="fill: #eaeaf2"/>
   </g>
   <g id="matplotlib.axis_1">
    <g id="xtick_1">
     <g id="line2d_1">
      <path d="M 75.835369 172.018828 
L 75.835369 5.698828 
" clip-path="url(#pe8697911fd)" style="fill: none; stroke: #ffffff; stroke-linecap: round"/>
     </g>
     <g id="line2d_2"/>
     <g id="text_1">
      <!-- 0.0 -->
      <g style="fill: #262626" transform="translate(63.908026 190.416484) scale(0.15 -0.15)">
       <defs>
        <path id="DejaVuSerif-30" d="M 2034 219 
Q 2513 219 2750 744 
Q 2988 1269 2988 2328 
Q 2988 3391 2750 3916 
Q 2513 4441 2034 4441 
Q 1556 4441 1318 3916 
Q 1081 3391 1081 2328 
Q 1081 1269 1318 744 
Q 1556 219 2034 219 
z
M 2034 -91 
Q 1275 -91 848 546 
Q 422 1184 422 2328 
Q 422 3475 848 4112 
Q 1275 4750 2034 4750 
Q 2797 4750 3222 4112 
Q 3647 3475 3647 2328 
Q 3647 1184 3222 546 
Q 2797 -91 2034 -91 
z
" transform="scale(0.015625)"/>
        <path id="DejaVuSerif-2e" d="M 603 325 
Q 603 500 722 622 
Q 841 744 1019 744 
Q 1191 744 1312 622 
Q 1434 500 1434 325 
Q 1434 153 1312 31 
Q 1191 -91 1019 -91 
Q 841 -91 722 29 
Q 603 150 603 325 
z
" transform="scale(0.015625)"/>
       </defs>
       <use xlink:href="#DejaVuSerif-30"/>
       <use xlink:href="#DejaVuSerif-2e" x="63.623047"/>
       <use xlink:href="#DejaVuSerif-30" x="95.410156"/>
      </g>
     </g>
    </g>
    <g id="xtick_2">
     <g id="line2d_3">
      <path d="M 136.708097 172.018828 
L 136.708097 5.698828 
" clip-path="url(#pe8697911fd)" style="fill: none; stroke: #ffffff; stroke-linecap: round"/>
     </g>
     <g id="line2d_4"/>
     <g id="text_2">
      <!-- 0.2 -->
      <g style="fill: #262626" transform="translate(124.780753 190.416484) scale(0.15 -0.15)">
       <defs>
        <path id="DejaVuSerif-32" d="M 819 3553 
L 469 3553 
L 469 4384 
Q 803 4563 1142 4656 
Q 1481 4750 1806 4750 
Q 2534 4750 2956 4397 
Q 3378 4044 3378 3438 
Q 3378 2753 2422 1800 
Q 2347 1728 2309 1691 
L 1131 513 
L 3078 513 
L 3078 1088 
L 3444 1088 
L 3444 0 
L 434 0 
L 434 341 
L 1850 1753 
Q 2319 2222 2519 2614 
Q 2719 3006 2719 3438 
Q 2719 3909 2473 4175 
Q 2228 4441 1797 4441 
Q 1350 4441 1106 4219 
Q 863 3997 819 3553 
z
" transform="scale(0.015625)"/>
       </defs>
       <use xlink:href="#DejaVuSerif-30"/>
       <use xlink:href="#DejaVuSerif-2e" x="63.623047"/>
       <use xlink:href="#DejaVuSerif-32" x="95.410156"/>
      </g>
     </g>
    </g>
    <g id="xtick_3">
     <g id="line2d_5">
      <path d="M 197.580824 172.018828 
L 197.580824 5.698828 
" clip-path="url(#pe8697911fd)" style="fill: none; stroke: #ffffff; stroke-linecap: round"/>
     </g>
     <g id="line2d_6"/>
     <g id="text_3">
      <!-- 0.4 -->
      <g style="fill: #262626" transform="translate(185.65348 190.416484) scale(0.15 -0.15)">
       <defs>
        <path id="DejaVuSerif-34" d="M 2234 1581 
L 2234 4063 
L 641 1581 
L 2234 1581 
z
M 3609 0 
L 1484 0 
L 1484 331 
L 2234 331 
L 2234 1247 
L 197 1247 
L 197 1588 
L 2241 4750 
L 2859 4750 
L 2859 1581 
L 3750 1581 
L 3750 1247 
L 2859 1247 
L 2859 331 
L 3609 331 
L 3609 0 
z
" transform="scale(0.015625)"/>
       </defs>
       <use xlink:href="#DejaVuSerif-30"/>
       <use xlink:href="#DejaVuSerif-2e" x="63.623047"/>
       <use xlink:href="#DejaVuSerif-34" x="95.410156"/>
      </g>
     </g>
    </g>
    <g id="xtick_4">
     <g id="line2d_7">
      <path d="M 258.453551 172.018828 
L 258.453551 5.698828 
" clip-path="url(#pe8697911fd)" style="fill: none; stroke: #ffffff; stroke-linecap: round"/>
     </g>
     <g id="line2d_8"/>
     <g id="text_4">
      <!-- 0.6 -->
      <g style="fill: #262626" transform="translate(246.526207 190.416484) scale(0.15 -0.15)">
       <defs>
        <path id="DejaVuSerif-36" d="M 2094 219 
Q 2534 219 2771 542 
Q 3009 866 3009 1472 
Q 3009 2078 2771 2401 
Q 2534 2725 2094 2725 
Q 1647 2725 1412 2412 
Q 1178 2100 1178 1509 
Q 1178 888 1415 553 
Q 1653 219 2094 219 
z
M 1075 2569 
Q 1288 2803 1556 2918 
Q 1825 3034 2163 3034 
Q 2859 3034 3264 2615 
Q 3669 2197 3669 1472 
Q 3669 763 3233 336 
Q 2797 -91 2069 -91 
Q 1278 -91 853 498 
Q 428 1088 428 2181 
Q 428 3406 931 4078 
Q 1434 4750 2350 4750 
Q 2597 4750 2869 4703 
Q 3141 4656 3425 4563 
L 3425 3794 
L 3072 3794 
Q 3034 4109 2831 4275 
Q 2628 4441 2284 4441 
Q 1678 4441 1381 3981 
Q 1084 3522 1075 2569 
z
" transform="scale(0.015625)"/>
       </defs>
       <use xlink:href="#DejaVuSerif-30"/>
       <use xlink:href="#DejaVuSerif-2e" x="63.623047"/>
       <use xlink:href="#DejaVuSerif-36" x="95.410156"/>
      </g>
     </g>
    </g>
    <g id="xtick_5">
     <g id="line2d_9">
      <path d="M 319.326278 172.018828 
L 319.326278 5.698828 
" clip-path="url(#pe8697911fd)" style="fill: none; stroke: #ffffff; stroke-linecap: round"/>
     </g>
     <g id="line2d_10"/>
     <g id="text_5">
      <!-- 0.8 -->
      <g style="fill: #262626" transform="translate(307.398935 190.416484) scale(0.15 -0.15)">
       <defs>
        <path id="DejaVuSerif-38" d="M 2981 1275 
Q 2981 1775 2732 2051 
Q 2484 2328 2034 2328 
Q 1584 2328 1336 2051 
Q 1088 1775 1088 1275 
Q 1088 772 1336 495 
Q 1584 219 2034 219 
Q 2484 219 2732 495 
Q 2981 772 2981 1275 
z
M 2853 3541 
Q 2853 3966 2637 4203 
Q 2422 4441 2034 4441 
Q 1650 4441 1433 4203 
Q 1216 3966 1216 3541 
Q 1216 3113 1433 2875 
Q 1650 2638 2034 2638 
Q 2422 2638 2637 2875 
Q 2853 3113 2853 3541 
z
M 2516 2484 
Q 3047 2413 3344 2092 
Q 3641 1772 3641 1275 
Q 3641 619 3225 264 
Q 2809 -91 2034 -91 
Q 1263 -91 845 264 
Q 428 619 428 1275 
Q 428 1772 725 2092 
Q 1022 2413 1556 2484 
Q 1084 2569 832 2842 
Q 581 3116 581 3541 
Q 581 4103 968 4426 
Q 1356 4750 2034 4750 
Q 2713 4750 3100 4426 
Q 3488 4103 3488 3541 
Q 3488 3116 3236 2842 
Q 2984 2569 2516 2484 
z
" transform="scale(0.015625)"/>
       </defs>
       <use xlink:href="#DejaVuSerif-30"/>
       <use xlink:href="#DejaVuSerif-2e" x="63.623047"/>
       <use xlink:href="#DejaVuSerif-38" x="95.410156"/>
      </g>
     </g>
    </g>
    <g id="xtick_6">
     <g id="line2d_11">
      <path d="M 380.199006 172.018828 
L 380.199006 5.698828 
" clip-path="url(#pe8697911fd)" style="fill: none; stroke: #ffffff; stroke-linecap: round"/>
     </g>
     <g id="line2d_12"/>
     <g id="text_6">
      <!-- 1.0 -->
      <g style="fill: #262626" transform="translate(368.271662 190.416484) scale(0.15 -0.15)">
       <defs>
        <path id="DejaVuSerif-31" d="M 909 0 
L 909 331 
L 1722 331 
L 1722 4213 
L 781 3603 
L 781 4013 
L 1919 4750 
L 2350 4750 
L 2350 331 
L 3163 331 
L 3163 0 
L 909 0 
z
" transform="scale(0.015625)"/>
       </defs>
       <use xlink:href="#DejaVuSerif-31"/>
       <use xlink:href="#DejaVuSerif-2e" x="63.623047"/>
       <use xlink:href="#DejaVuSerif-30" x="95.410156"/>
      </g>
     </g>
    </g>
    <g id="text_7">
     <!-- $s_1$ -->
     <g style="fill: #262626" transform="translate(220.517188 208.933672) scale(0.15 -0.15)">
      <defs>
       <path id="DejaVuSans-Oblique-73" d="M 3200 3397 
L 3091 2853 
Q 2863 2978 2609 3040 
Q 2356 3103 2088 3103 
Q 1634 3103 1373 2948 
Q 1113 2794 1113 2528 
Q 1113 2219 1719 2053 
Q 1766 2041 1788 2034 
L 1972 1978 
Q 2547 1819 2739 1644 
Q 2931 1469 2931 1166 
Q 2931 609 2489 259 
Q 2047 -91 1331 -91 
Q 1053 -91 747 -37 
Q 441 16 72 128 
L 184 722 
Q 500 559 806 475 
Q 1113 391 1394 391 
Q 1816 391 2080 572 
Q 2344 753 2344 1031 
Q 2344 1331 1650 1516 
L 1591 1531 
L 1394 1581 
Q 956 1697 753 1886 
Q 550 2075 550 2369 
Q 550 2928 970 3256 
Q 1391 3584 2113 3584 
Q 2397 3584 2667 3537 
Q 2938 3491 3200 3397 
z
" transform="scale(0.015625)"/>
       <path id="DejaVuSans-31" d="M 794 531 
L 1825 531 
L 1825 4091 
L 703 3866 
L 703 4441 
L 1819 4666 
L 2450 4666 
L 2450 531 
L 3481 531 
L 3481 0 
L 794 0 
L 794 531 
z
" transform="scale(0.015625)"/>
      </defs>
      <use xlink:href="#DejaVuSans-Oblique-73"/>
      <use xlink:href="#DejaVuSans-31" transform="translate(52.099609 -16.40625) scale(0.7)"/>
     </g>
    </g>
   </g>
   <g id="matplotlib.axis_2">
    <g id="ytick_1">
     <g id="line2d_13">
      <path d="M 60.617188 172.018828 
L 395.417188 172.018828 
" clip-path="url(#pe8697911fd)" style="fill: none; stroke: #ffffff; stroke-linecap: round"/>
     </g>
     <g id="line2d_14"/>
     <g id="text_8">
      <!-- $\mathdefault{10^{-2}}$ -->
      <g style="fill: #262626" transform="translate(18.517187 177.717656) scale(0.15 -0.15)">
       <defs>
        <path id="DejaVuSerif-2212" d="M 678 2259 
L 4684 2259 
L 4684 1753 
L 678 1753 
L 678 2259 
z
" transform="scale(0.015625)"/>
       </defs>
       <use xlink:href="#DejaVuSerif-31" transform="translate(0 0.7125)"/>
       <use xlink:href="#DejaVuSerif-30" transform="translate(63.623047 0.7125)"/>
       <use xlink:href="#DejaVuSerif-2212" transform="translate(128.154453 37.046875) scale(0.7)"/>
       <use xlink:href="#DejaVuSerif-32" transform="translate(186.806797 37.046875) scale(0.7)"/>
      </g>
     </g>
    </g>
    <g id="ytick_2">
     <g id="line2d_15">
      <path d="M 60.617188 130.438828 
L 395.417188 130.438828 
" clip-path="url(#pe8697911fd)" style="fill: none; stroke: #ffffff; stroke-linecap: round"/>
     </g>
     <g id="line2d_16"/>
     <g id="text_9">
      <!-- $\mathdefault{10^{-1}}$ -->
      <g style="fill: #262626" transform="translate(18.517187 136.137656) scale(0.15 -0.15)">
       <use xlink:href="#DejaVuSerif-31" transform="translate(0 0.7125)"/>
       <use xlink:href="#DejaVuSerif-30" transform="translate(63.623047 0.7125)"/>
       <use xlink:href="#DejaVuSerif-2212" transform="translate(128.154453 37.046875) scale(0.7)"/>
       <use xlink:href="#DejaVuSerif-31" transform="translate(186.806797 37.046875) scale(0.7)"/>
      </g>
     </g>
    </g>
    <g id="ytick_3">
     <g id="line2d_17">
      <path d="M 60.617188 88.858828 
L 395.417188 88.858828 
" clip-path="url(#pe8697911fd)" style="fill: none; stroke: #ffffff; stroke-linecap: round"/>
     </g>
     <g id="line2d_18"/>
     <g id="text_10">
      <!-- $\mathdefault{10^{0}}$ -->
      <g style="fill: #262626" transform="translate(27.217188 94.557656) scale(0.15 -0.15)">
       <use xlink:href="#DejaVuSerif-31" transform="translate(0 0.7125)"/>
       <use xlink:href="#DejaVuSerif-30" transform="translate(63.623047 0.7125)"/>
       <use xlink:href="#DejaVuSerif-30" transform="translate(128.154453 37.046875) scale(0.7)"/>
      </g>
     </g>
    </g>
    <g id="ytick_4">
     <g id="line2d_19">
      <path d="M 60.617188 47.278828 
L 395.417188 47.278828 
" clip-path="url(#pe8697911fd)" style="fill: none; stroke: #ffffff; stroke-linecap: round"/>
     </g>
     <g id="line2d_20"/>
     <g id="text_11">
      <!-- $\mathdefault{10^{1}}$ -->
      <g style="fill: #262626" transform="translate(27.217188 52.977656) scale(0.15 -0.15)">
       <use xlink:href="#DejaVuSerif-31" transform="translate(0 0.7125)"/>
       <use xlink:href="#DejaVuSerif-30" transform="translate(63.623047 0.7125)"/>
       <use xlink:href="#DejaVuSerif-31" transform="translate(128.154453 37.046875) scale(0.7)"/>
      </g>
     </g>
    </g>
    <g id="ytick_5">
     <g id="line2d_21">
      <path d="M 60.617188 5.698828 
L 395.417188 5.698828 
" clip-path="url(#pe8697911fd)" style="fill: none; stroke: #ffffff; stroke-linecap: round"/>
     </g>
     <g id="line2d_22"/>
     <g id="text_12">
      <!-- $\mathdefault{10^{2}}$ -->
      <g style="fill: #262626" transform="translate(27.217188 11.397656) scale(0.15 -0.15)">
       <use xlink:href="#DejaVuSerif-31" transform="translate(0 0.7125)"/>
       <use xlink:href="#DejaVuSerif-30" transform="translate(63.623047 0.7125)"/>
       <use xlink:href="#DejaVuSerif-32" transform="translate(128.154453 37.046875) scale(0.7)"/>
      </g>
     </g>
    </g>
    <g id="ytick_6">
     <g id="line2d_23"/>
    </g>
    <g id="ytick_7">
     <g id="line2d_24"/>
    </g>
    <g id="ytick_8">
     <g id="line2d_25"/>
    </g>
    <g id="ytick_9">
     <g id="line2d_26"/>
    </g>
    <g id="ytick_10">
     <g id="line2d_27"/>
    </g>
    <g id="ytick_11">
     <g id="line2d_28"/>
    </g>
    <g id="ytick_12">
     <g id="line2d_29"/>
    </g>
    <g id="ytick_13">
     <g id="line2d_30"/>
    </g>
    <g id="ytick_14">
     <g id="line2d_31"/>
    </g>
    <g id="ytick_15">
     <g id="line2d_32"/>
    </g>
    <g id="ytick_16">
     <g id="line2d_33"/>
    </g>
    <g id="ytick_17">
     <g id="line2d_34"/>
    </g>
    <g id="ytick_18">
     <g id="line2d_35"/>
    </g>
    <g id="ytick_19">
     <g id="line2d_36"/>
    </g>
    <g id="ytick_20">
     <g id="line2d_37"/>
    </g>
    <g id="ytick_21">
     <g id="line2d_38"/>
    </g>
    <g id="ytick_22">
     <g id="line2d_39"/>
    </g>
    <g id="ytick_23">
     <g id="line2d_40"/>
    </g>
    <g id="ytick_24">
     <g id="line2d_41"/>
    </g>
    <g id="ytick_25">
     <g id="line2d_42"/>
    </g>
    <g id="ytick_26">
     <g id="line2d_43"/>
    </g>
    <g id="ytick_27">
     <g id="line2d_44"/>
    </g>
    <g id="ytick_28">
     <g id="line2d_45"/>
    </g>
    <g id="ytick_29">
     <g id="line2d_46"/>
    </g>
    <g id="ytick_30">
     <g id="line2d_47"/>
    </g>
    <g id="ytick_31">
     <g id="line2d_48"/>
    </g>
    <g id="ytick_32">
     <g id="line2d_49"/>
    </g>
    <g id="ytick_33">
     <g id="line2d_50"/>
    </g>
    <g id="ytick_34">
     <g id="line2d_51"/>
    </g>
    <g id="ytick_35">
     <g id="line2d_52"/>
    </g>
    <g id="ytick_36">
     <g id="line2d_53"/>
    </g>
    <g id="ytick_37">
     <g id="line2d_54"/>
    </g>
    <g id="text_13">
     <!-- Density -->
     <g style="fill: #262626" transform="translate(11.184375 117.640078) rotate(-90) scale(0.15 -0.15)">
      <defs>
       <path id="DejaVuSerif-44" d="M 1581 331 
L 2163 331 
Q 3072 331 3558 850 
Q 4044 1369 4044 2338 
Q 4044 3306 3559 3818 
Q 3075 4331 2163 4331 
L 1581 4331 
L 1581 331 
z
M 353 0 
L 353 331 
L 947 331 
L 947 4331 
L 353 4331 
L 353 4666 
L 2209 4666 
Q 3416 4666 4089 4050 
Q 4763 3434 4763 2338 
Q 4763 1238 4088 619 
Q 3413 0 2209 0 
L 353 0 
z
" transform="scale(0.015625)"/>
       <path id="DejaVuSerif-65" d="M 3469 1600 
L 991 1600 
L 991 1575 
Q 991 903 1244 561 
Q 1497 219 1991 219 
Q 2369 219 2611 417 
Q 2853 616 2950 1006 
L 3413 1006 
Q 3275 459 2904 184 
Q 2534 -91 1931 -91 
Q 1203 -91 761 389 
Q 319 869 319 1663 
Q 319 2450 753 2931 
Q 1188 3413 1894 3413 
Q 2647 3413 3050 2948 
Q 3453 2484 3469 1600 
z
M 2791 1931 
Q 2772 2513 2545 2808 
Q 2319 3103 1894 3103 
Q 1497 3103 1269 2806 
Q 1041 2509 991 1931 
L 2791 1931 
z
" transform="scale(0.015625)"/>
       <path id="DejaVuSerif-6e" d="M 263 0 
L 263 331 
L 781 331 
L 781 2988 
L 231 2988 
L 231 3322 
L 1356 3322 
L 1356 2731 
Q 1516 3069 1770 3241 
Q 2025 3413 2363 3413 
Q 2913 3413 3172 3097 
Q 3431 2781 3431 2113 
L 3431 331 
L 3944 331 
L 3944 0 
L 2356 0 
L 2356 331 
L 2853 331 
L 2853 1931 
Q 2853 2541 2703 2767 
Q 2553 2994 2175 2994 
Q 1775 2994 1565 2701 
Q 1356 2409 1356 1850 
L 1356 331 
L 1856 331 
L 1856 0 
L 263 0 
z
" transform="scale(0.015625)"/>
       <path id="DejaVuSerif-73" d="M 359 184 
L 359 959 
L 691 959 
Q 703 588 923 403 
Q 1144 219 1575 219 
Q 1963 219 2166 364 
Q 2369 509 2369 788 
Q 2369 1006 2220 1140 
Q 2072 1275 1594 1428 
L 1178 1569 
Q 750 1706 558 1912 
Q 366 2119 366 2438 
Q 366 2894 700 3153 
Q 1034 3413 1625 3413 
Q 1888 3413 2178 3344 
Q 2469 3275 2778 3144 
L 2778 2419 
L 2447 2419 
Q 2434 2741 2221 2922 
Q 2009 3103 1644 3103 
Q 1281 3103 1095 2975 
Q 909 2847 909 2591 
Q 909 2381 1050 2254 
Q 1191 2128 1613 1997 
L 2069 1856 
Q 2541 1709 2748 1489 
Q 2956 1269 2956 922 
Q 2956 450 2595 179 
Q 2234 -91 1600 -91 
Q 1278 -91 972 -22 
Q 666 47 359 184 
z
" transform="scale(0.015625)"/>
       <path id="DejaVuSerif-69" d="M 622 4353 
Q 622 4497 726 4603 
Q 831 4709 978 4709 
Q 1122 4709 1226 4603 
Q 1331 4497 1331 4353 
Q 1331 4206 1228 4103 
Q 1125 4000 978 4000 
Q 831 4000 726 4103 
Q 622 4206 622 4353 
z
M 1356 331 
L 1900 331 
L 1900 0 
L 231 0 
L 231 331 
L 781 331 
L 781 2988 
L 231 2988 
L 231 3322 
L 1356 3322 
L 1356 331 
z
" transform="scale(0.015625)"/>
       <path id="DejaVuSerif-74" d="M 691 2988 
L 184 2988 
L 184 3322 
L 691 3322 
L 691 4353 
L 1269 4353 
L 1269 3322 
L 2350 3322 
L 2350 2988 
L 1269 2988 
L 1269 878 
Q 1269 456 1350 337 
Q 1431 219 1650 219 
Q 1875 219 1978 351 
Q 2081 484 2088 781 
L 2522 781 
Q 2497 328 2275 118 
Q 2053 -91 1600 -91 
Q 1103 -91 897 129 
Q 691 350 691 878 
L 691 2988 
z
" transform="scale(0.015625)"/>
       <path id="DejaVuSerif-79" d="M 1381 -609 
L 1600 -56 
L 359 2988 
L -19 2988 
L -19 3322 
L 1509 3322 
L 1509 2988 
L 978 2988 
L 1913 703 
L 2847 2988 
L 2350 2988 
L 2350 3322 
L 3597 3322 
L 3597 2988 
L 3225 2988 
L 1703 -750 
Q 1547 -1138 1356 -1280 
Q 1166 -1422 819 -1422 
Q 672 -1422 517 -1397 
Q 363 -1372 206 -1325 
L 206 -691 
L 500 -691 
Q 519 -903 608 -995 
Q 697 -1088 884 -1088 
Q 1056 -1088 1161 -992 
Q 1266 -897 1381 -609 
z
" transform="scale(0.015625)"/>
      </defs>
      <use xlink:href="#DejaVuSerif-44"/>
      <use xlink:href="#DejaVuSerif-65" x="80.175781"/>
      <use xlink:href="#DejaVuSerif-6e" x="139.355469"/>
      <use xlink:href="#DejaVuSerif-73" x="203.759766"/>
      <use xlink:href="#DejaVuSerif-69" x="255.078125"/>
      <use xlink:href="#DejaVuSerif-74" x="287.060547"/>
      <use xlink:href="#DejaVuSerif-79" x="327.246094"/>
     </g>
    </g>
   </g>
   <g id="PolyCollection_1">
    <path d="M 74.865384 231.737167 
L 74.865384 41668.858828 
L 75.479219 41668.858828 
L 76.093054 41668.858828 
L 76.706889 41668.858828 
L 77.320724 41668.858828 
L 77.934559 41668.858828 
L 78.548394 41668.858828 
L 79.162228 41668.858828 
L 79.776063 41668.858828 
L 80.389898 41668.858828 
L 81.003733 41668.858828 
L 81.617568 41668.858828 
L 82.231403 41668.858828 
L 82.845238 41668.858828 
L 83.459073 41668.858828 
L 84.072907 41668.858828 
L 84.686742 41668.858828 
L 85.300577 41668.858828 
L 85.914412 41668.858828 
L 86.528247 41668.858828 
L 87.142082 41668.858828 
L 87.755917 41668.858828 
L 88.369752 41668.858828 
L 88.983587 41668.858828 
L 89.597421 41668.858828 
L 90.211256 41668.858828 
L 90.825091 41668.858828 
L 91.438926 41668.858828 
L 92.052761 41668.858828 
L 92.666596 41668.858828 
L 93.280431 41668.858828 
L 93.894266 41668.858828 
L 94.5081 41668.858828 
L 95.121935 41668.858828 
L 95.73577 41668.858828 
L 96.349605 41668.858828 
L 96.96344 41668.858828 
L 97.577275 41668.858828 
L 98.19111 41668.858828 
L 98.804945 41668.858828 
L 99.41878 41668.858828 
L 100.032614 41668.858828 
L 100.646449 41668.858828 
L 101.260284 41668.858828 
L 101.874119 41668.858828 
L 102.487954 41668.858828 
L 103.101789 41668.858828 
L 103.715624 41668.858828 
L 104.329459 41668.858828 
L 104.943293 41668.858828 
L 105.557128 41668.858828 
L 106.170963 41668.858828 
L 106.784798 41668.858828 
L 107.398633 41668.858828 
L 108.012468 41668.858828 
L 108.626303 41668.858828 
L 109.240138 41668.858828 
L 109.853973 41668.858828 
L 110.467807 41668.858828 
L 111.081642 41668.858828 
L 111.695477 41668.858828 
L 112.309312 41668.858828 
L 112.923147 41668.858828 
L 113.536982 41668.858828 
L 114.150817 41668.858828 
L 114.764652 41668.858828 
L 115.378487 41668.858828 
L 115.992321 41668.858828 
L 116.606156 41668.858828 
L 117.219991 41668.858828 
L 117.833826 41668.858828 
L 118.447661 41668.858828 
L 119.061496 41668.858828 
L 119.675331 41668.858828 
L 120.289166 41668.858828 
L 120.903 41668.858828 
L 121.516835 41668.858828 
L 122.13067 41668.858828 
L 122.744505 41668.858828 
L 123.35834 41668.858828 
L 123.972175 41668.858828 
L 124.58601 41668.858828 
L 125.199845 41668.858828 
L 125.81368 41668.858828 
L 126.427514 41668.858828 
L 127.041349 41668.858828 
L 127.655184 41668.858828 
L 128.269019 41668.858828 
L 128.882854 41668.858828 
L 129.496689 41668.858828 
L 130.110524 41668.858828 
L 130.724359 41668.858828 
L 131.338193 41668.858828 
L 131.952028 41668.858828 
L 132.565863 41668.858828 
L 133.179698 41668.858828 
L 133.793533 41668.858828 
L 134.407368 41668.858828 
L 135.021203 41668.858828 
L 135.635038 41668.858828 
L 136.248873 41668.858828 
L 136.862707 41668.858828 
L 137.476542 41668.858828 
L 138.090377 41668.858828 
L 138.704212 41668.858828 
L 139.318047 41668.858828 
L 139.931882 41668.858828 
L 140.545717 41668.858828 
L 141.159552 41668.858828 
L 141.773386 41668.858828 
L 142.387221 41668.858828 
L 143.001056 41668.858828 
L 143.614891 41668.858828 
L 144.228726 41668.858828 
L 144.842561 41668.858828 
L 145.456396 41668.858828 
L 146.070231 41668.858828 
L 146.684066 41668.858828 
L 147.2979 41668.858828 
L 147.911735 41668.858828 
L 148.52557 41668.858828 
L 149.139405 41668.858828 
L 149.75324 41668.858828 
L 150.367075 41668.858828 
L 150.98091 41668.858828 
L 151.594745 41668.858828 
L 152.208579 41668.858828 
L 152.822414 41668.858828 
L 153.436249 41668.858828 
L 154.050084 41668.858828 
L 154.663919 41668.858828 
L 155.277754 41668.858828 
L 155.891589 41668.858828 
L 156.505424 41668.858828 
L 157.119259 41668.858828 
L 157.733093 41668.858828 
L 158.346928 41668.858828 
L 158.960763 41668.858828 
L 159.574598 41668.858828 
L 160.188433 41668.858828 
L 160.802268 41668.858828 
L 161.416103 41668.858828 
L 162.029938 41668.858828 
L 162.643772 41668.858828 
L 163.257607 41668.858828 
L 163.871442 41668.858828 
L 164.485277 41668.858828 
L 165.099112 41668.858828 
L 165.712947 41668.858828 
L 166.326782 41668.858828 
L 166.940617 41668.858828 
L 167.554452 41668.858828 
L 168.168286 41668.858828 
L 168.782121 41668.858828 
L 169.395956 41668.858828 
L 170.009791 41668.858828 
L 170.623626 41668.858828 
L 171.237461 41668.858828 
L 171.851296 41668.858828 
L 172.465131 41668.858828 
L 173.078965 41668.858828 
L 173.6928 41668.858828 
L 174.306635 41668.858828 
L 174.92047 41668.858828 
L 175.534305 41668.858828 
L 176.14814 41668.858828 
L 176.761975 41668.858828 
L 177.37581 41668.858828 
L 177.989645 41668.858828 
L 178.603479 41668.858828 
L 179.217314 41668.858828 
L 179.831149 41668.858828 
L 180.444984 41668.858828 
L 181.058819 41668.858828 
L 181.672654 41668.858828 
L 182.286489 41668.858828 
L 182.900324 41668.858828 
L 183.514158 41668.858828 
L 184.127993 41668.858828 
L 184.741828 41668.858828 
L 185.355663 41668.858828 
L 185.969498 41668.858828 
L 186.583333 41668.858828 
L 187.197168 41668.858828 
L 187.811003 41668.858828 
L 188.424838 41668.858828 
L 189.038672 41668.858828 
L 189.652507 41668.858828 
L 190.266342 41668.858828 
L 190.880177 41668.858828 
L 191.494012 41668.858828 
L 192.107847 41668.858828 
L 192.721682 41668.858828 
L 193.335517 41668.858828 
L 193.949352 41668.858828 
L 194.563186 41668.858828 
L 195.177021 41668.858828 
L 195.790856 41668.858828 
L 196.404691 41668.858828 
L 197.018526 41668.858828 
L 197.632361 41668.858828 
L 198.246196 41668.858828 
L 198.860031 41668.858828 
L 199.473865 41668.858828 
L 200.0877 41668.858828 
L 200.701535 41668.858828 
L 201.31537 41668.858828 
L 201.929205 41668.858828 
L 202.54304 41668.858828 
L 203.156875 41668.858828 
L 203.77071 41668.858828 
L 204.384545 41668.858828 
L 204.998379 41668.858828 
L 205.612214 41668.858828 
L 206.226049 41668.858828 
L 206.839884 41668.858828 
L 207.453719 41668.858828 
L 208.067554 41668.858828 
L 208.681389 41668.858828 
L 209.295224 41668.858828 
L 209.909058 41668.858828 
L 210.522893 41668.858828 
L 211.136728 41668.858828 
L 211.750563 41668.858828 
L 212.364398 41668.858828 
L 212.978233 41668.858828 
L 213.592068 41668.858828 
L 214.205903 41668.858828 
L 214.819738 41668.858828 
L 215.433572 41668.858828 
L 216.047407 41668.858828 
L 216.661242 41668.858828 
L 217.275077 41668.858828 
L 217.888912 41668.858828 
L 218.502747 41668.858828 
L 219.116582 41668.858828 
L 219.730417 41668.858828 
L 220.344251 41668.858828 
L 220.958086 41668.858828 
L 221.571921 41668.858828 
L 222.185756 41668.858828 
L 222.799591 41668.858828 
L 223.413426 41668.858828 
L 224.027261 41668.858828 
L 224.641096 41668.858828 
L 225.254931 41668.858828 
L 225.868765 41668.858828 
L 226.4826 41668.858828 
L 227.096435 41668.858828 
L 227.71027 41668.858828 
L 228.324105 41668.858828 
L 228.93794 41668.858828 
L 229.551775 41668.858828 
L 230.16561 41668.858828 
L 230.779444 41668.858828 
L 231.393279 41668.858828 
L 232.007114 41668.858828 
L 232.620949 41668.858828 
L 233.234784 41668.858828 
L 233.848619 41668.858828 
L 234.462454 41668.858828 
L 235.076289 41668.858828 
L 235.690124 41668.858828 
L 236.303958 41668.858828 
L 236.917793 41668.858828 
L 237.531628 41668.858828 
L 238.145463 41668.858828 
L 238.759298 41668.858828 
L 239.373133 41668.858828 
L 239.986968 41668.858828 
L 240.600803 41668.858828 
L 241.214637 41668.858828 
L 241.828472 41668.858828 
L 242.442307 41668.858828 
L 243.056142 41668.858828 
L 243.669977 41668.858828 
L 244.283812 41668.858828 
L 244.897647 41668.858828 
L 245.511482 41668.858828 
L 246.125317 41668.858828 
L 246.739151 41668.858828 
L 247.352986 41668.858828 
L 247.966821 41668.858828 
L 248.580656 41668.858828 
L 249.194491 41668.858828 
L 249.808326 41668.858828 
L 250.422161 41668.858828 
L 251.035996 41668.858828 
L 251.64983 41668.858828 
L 252.263665 41668.858828 
L 252.8775 41668.858828 
L 253.491335 41668.858828 
L 254.10517 41668.858828 
L 254.719005 41668.858828 
L 255.33284 41668.858828 
L 255.946675 41668.858828 
L 256.56051 41668.858828 
L 257.174344 41668.858828 
L 257.788179 41668.858828 
L 258.402014 41668.858828 
L 259.015849 41668.858828 
L 259.629684 41668.858828 
L 260.243519 41668.858828 
L 260.857354 41668.858828 
L 261.471189 41668.858828 
L 262.085023 41668.858828 
L 262.698858 41668.858828 
L 263.312693 41668.858828 
L 263.926528 41668.858828 
L 264.540363 41668.858828 
L 265.154198 41668.858828 
L 265.768033 41668.858828 
L 266.381868 41668.858828 
L 266.995703 41668.858828 
L 267.609537 41668.858828 
L 268.223372 41668.858828 
L 268.837207 41668.858828 
L 269.451042 41668.858828 
L 270.064877 41668.858828 
L 270.678712 41668.858828 
L 271.292547 41668.858828 
L 271.906382 41668.858828 
L 272.520217 41668.858828 
L 273.134051 41668.858828 
L 273.747886 41668.858828 
L 274.361721 41668.858828 
L 274.975556 41668.858828 
L 275.589391 41668.858828 
L 276.203226 41668.858828 
L 276.817061 41668.858828 
L 277.430896 41668.858828 
L 278.04473 41668.858828 
L 278.658565 41668.858828 
L 279.2724 41668.858828 
L 279.886235 41668.858828 
L 280.50007 41668.858828 
L 281.113905 41668.858828 
L 281.72774 41668.858828 
L 282.341575 41668.858828 
L 282.95541 41668.858828 
L 283.569244 41668.858828 
L 284.183079 41668.858828 
L 284.796914 41668.858828 
L 285.410749 41668.858828 
L 286.024584 41668.858828 
L 286.638419 41668.858828 
L 287.252254 41668.858828 
L 287.866089 41668.858828 
L 288.479923 41668.858828 
L 289.093758 41668.858828 
L 289.707593 41668.858828 
L 290.321428 41668.858828 
L 290.935263 41668.858828 
L 291.549098 41668.858828 
L 292.162933 41668.858828 
L 292.776768 41668.858828 
L 293.390603 41668.858828 
L 294.004437 41668.858828 
L 294.618272 41668.858828 
L 295.232107 41668.858828 
L 295.845942 41668.858828 
L 296.459777 41668.858828 
L 297.073612 41668.858828 
L 297.687447 41668.858828 
L 298.301282 41668.858828 
L 298.915116 41668.858828 
L 299.528951 41668.858828 
L 300.142786 41668.858828 
L 300.756621 41668.858828 
L 301.370456 41668.858828 
L 301.984291 41668.858828 
L 302.598126 41668.858828 
L 303.211961 41668.858828 
L 303.825796 41668.858828 
L 304.43963 41668.858828 
L 305.053465 41668.858828 
L 305.6673 41668.858828 
L 306.281135 41668.858828 
L 306.89497 41668.858828 
L 307.508805 41668.858828 
L 308.12264 41668.858828 
L 308.736475 41668.858828 
L 309.350309 41668.858828 
L 309.964144 41668.858828 
L 310.577979 41668.858828 
L 311.191814 41668.858828 
L 311.805649 41668.858828 
L 312.419484 41668.858828 
L 313.033319 41668.858828 
L 313.647154 41668.858828 
L 314.260989 41668.858828 
L 314.874823 41668.858828 
L 315.488658 41668.858828 
L 316.102493 41668.858828 
L 316.716328 41668.858828 
L 317.330163 41668.858828 
L 317.943998 41668.858828 
L 318.557833 41668.858828 
L 319.171668 41668.858828 
L 319.785502 41668.858828 
L 320.399337 41668.858828 
L 321.013172 41668.858828 
L 321.627007 41668.858828 
L 322.240842 41668.858828 
L 322.854677 41668.858828 
L 323.468512 41668.858828 
L 324.082347 41668.858828 
L 324.696182 41668.858828 
L 325.310016 41668.858828 
L 325.923851 41668.858828 
L 326.537686 41668.858828 
L 327.151521 41668.858828 
L 327.765356 41668.858828 
L 328.379191 41668.858828 
L 328.993026 41668.858828 
L 329.606861 41668.858828 
L 330.220695 41668.858828 
L 330.83453 41668.858828 
L 331.448365 41668.858828 
L 332.0622 41668.858828 
L 332.676035 41668.858828 
L 333.28987 41668.858828 
L 333.903705 41668.858828 
L 334.51754 41668.858828 
L 335.131375 41668.858828 
L 335.745209 41668.858828 
L 336.359044 41668.858828 
L 336.972879 41668.858828 
L 337.586714 41668.858828 
L 338.200549 41668.858828 
L 338.814384 41668.858828 
L 339.428219 41668.858828 
L 340.042054 41668.858828 
L 340.655888 41668.858828 
L 341.269723 41668.858828 
L 341.883558 41668.858828 
L 342.497393 41668.858828 
L 343.111228 41668.858828 
L 343.725063 41668.858828 
L 344.338898 41668.858828 
L 344.952733 41668.858828 
L 345.566568 41668.858828 
L 346.180402 41668.858828 
L 346.794237 41668.858828 
L 347.408072 41668.858828 
L 348.021907 41668.858828 
L 348.635742 41668.858828 
L 349.249577 41668.858828 
L 349.863412 41668.858828 
L 350.477247 41668.858828 
L 351.091082 41668.858828 
L 351.704916 41668.858828 
L 352.318751 41668.858828 
L 352.932586 41668.858828 
L 353.546421 41668.858828 
L 354.160256 41668.858828 
L 354.774091 41668.858828 
L 355.387926 41668.858828 
L 356.001761 41668.858828 
L 356.615595 41668.858828 
L 357.22943 41668.858828 
L 357.843265 41668.858828 
L 358.4571 41668.858828 
L 359.070935 41668.858828 
L 359.68477 41668.858828 
L 360.298605 41668.858828 
L 360.91244 41668.858828 
L 361.526275 41668.858828 
L 362.140109 41668.858828 
L 362.753944 41668.858828 
L 363.367779 41668.858828 
L 363.981614 41668.858828 
L 364.595449 41668.858828 
L 365.209284 41668.858828 
L 365.823119 41668.858828 
L 366.436954 41668.858828 
L 367.050788 41668.858828 
L 367.664623 41668.858828 
L 368.278458 41668.858828 
L 368.892293 41668.858828 
L 369.506128 41668.858828 
L 370.119963 41668.858828 
L 370.733798 41668.858828 
L 371.347633 41668.858828 
L 371.961468 41668.858828 
L 372.575302 41668.858828 
L 373.189137 41668.858828 
L 373.802972 41668.858828 
L 374.416807 41668.858828 
L 375.030642 41668.858828 
L 375.644477 41668.858828 
L 376.258312 41668.858828 
L 376.872147 41668.858828 
L 377.485981 41668.858828 
L 378.099816 41668.858828 
L 378.713651 41668.858828 
L 379.327486 41668.858828 
L 379.941321 41668.858828 
L 380.555156 41668.858828 
L 381.168991 41668.858828 
L 381.168991 237.583861 
L 381.168991 237.583861 
L 380.555156 166.204714 
L 379.941321 143.511333 
L 379.327486 128.921995 
L 378.713651 122.424183 
L 378.099816 123.484226 
L 377.485981 125.870541 
L 376.872147 116.985743 
L 376.258312 116.272733 
L 375.644477 121.050932 
L 375.030642 116.506586 
L 374.416807 111.619602 
L 373.802972 112.325402 
L 373.189137 114.587255 
L 372.575302 112.241449 
L 371.961468 111.866683 
L 371.347633 111.614099 
L 370.733798 111.815456 
L 370.119963 112.215214 
L 369.506128 107.535715 
L 368.892293 101.522372 
L 368.278458 103.225122 
L 367.664623 106.728742 
L 367.050788 101.78664 
L 366.436954 102.228348 
L 365.823119 97.948975 
L 365.209284 101.104876 
L 364.595449 99.689304 
L 363.981614 98.684609 
L 363.367779 98.925455 
L 362.753944 101.09521 
L 362.140109 100.045987 
L 361.526275 99.330859 
L 360.91244 98.496854 
L 360.298605 95.600345 
L 359.68477 93.619732 
L 359.070935 99.196202 
L 358.4571 95.890172 
L 357.843265 95.067433 
L 357.22943 95.543141 
L 356.615595 91.522648 
L 356.001761 92.081374 
L 355.387926 95.775086 
L 354.774091 94.787346 
L 354.160256 91.090185 
L 353.546421 90.082591 
L 352.932586 89.171569 
L 352.318751 91.382935 
L 351.704916 94.918815 
L 351.091082 91.720588 
L 350.477247 94.930097 
L 349.863412 96.722408 
L 349.249577 92.930574 
L 348.635742 91.435143 
L 348.021907 91.787152 
L 347.408072 88.400982 
L 346.794237 87.906674 
L 346.180402 89.301569 
L 345.566568 93.296761 
L 344.952733 92.037827 
L 344.338898 97.018767 
L 343.725063 96.152377 
L 343.111228 95.673393 
L 342.497393 92.804922 
L 341.883558 92.243391 
L 341.269723 91.069794 
L 340.655888 90.544617 
L 340.042054 91.671078 
L 339.428219 92.984999 
L 338.814384 93.234815 
L 338.200549 94.289243 
L 337.586714 94.802857 
L 336.972879 93.805076 
L 336.359044 91.007526 
L 335.745209 92.228669 
L 335.131375 94.872097 
L 334.51754 91.169008 
L 333.903705 88.069601 
L 333.28987 87.215301 
L 332.676035 89.238814 
L 332.0622 89.923195 
L 331.448365 89.863308 
L 330.83453 93.504847 
L 330.220695 94.660413 
L 329.606861 96.034117 
L 328.993026 93.688052 
L 328.379191 91.812736 
L 327.765356 85.772813 
L 327.151521 83.624322 
L 326.537686 85.593497 
L 325.923851 82.787898 
L 325.310016 83.690437 
L 324.696182 86.02955 
L 324.082347 87.507704 
L 323.468512 88.622145 
L 322.854677 92.662758 
L 322.240842 94.881894 
L 321.627007 92.042696 
L 321.013172 91.243898 
L 320.399337 92.163357 
L 319.785502 87.97147 
L 319.171668 86.069919 
L 318.557833 88.4735 
L 317.943998 85.435791 
L 317.330163 80.031722 
L 316.716328 82.192454 
L 316.102493 85.419109 
L 315.488658 87.539812 
L 314.874823 90.12546 
L 314.260989 91.785932 
L 313.647154 95.231526 
L 313.033319 96.587955 
L 312.419484 95.746893 
L 311.805649 92.006146 
L 311.191814 93.296372 
L 310.577979 89.894604 
L 309.964144 87.756183 
L 309.350309 83.754471 
L 308.736475 83.869885 
L 308.12264 83.74923 
L 307.508805 86.789327 
L 306.89497 86.304543 
L 306.281135 85.269265 
L 305.6673 85.128177 
L 305.053465 85.993734 
L 304.43963 88.256288 
L 303.825796 89.896806 
L 303.211961 90.632222 
L 302.598126 93.364387 
L 301.984291 92.898235 
L 301.370456 94.794362 
L 300.756621 88.805397 
L 300.142786 84.085485 
L 299.528951 84.575971 
L 298.915116 84.277526 
L 298.301282 81.639583 
L 297.687447 79.595503 
L 297.073612 80.299763 
L 296.459777 81.088359 
L 295.845942 83.062164 
L 295.232107 87.252048 
L 294.618272 87.893375 
L 294.004437 87.041494 
L 293.390603 91.428136 
L 292.776768 93.211514 
L 292.162933 99.344935 
L 291.549098 96.819175 
L 290.935263 91.748922 
L 290.321428 92.547023 
L 289.707593 94.215758 
L 289.093758 90.239616 
L 288.479923 87.252711 
L 287.866089 83.445747 
L 287.252254 82.994673 
L 286.638419 82.410888 
L 286.024584 81.813529 
L 285.410749 82.854411 
L 284.796914 82.990694 
L 284.183079 85.160023 
L 283.569244 86.767377 
L 282.95541 89.637239 
L 282.341575 87.879491 
L 281.72774 89.319104 
L 281.113905 90.174527 
L 280.50007 94.066695 
L 279.886235 94.04591 
L 279.2724 95.41968 
L 278.658565 89.358609 
L 278.04473 85.947496 
L 277.430896 84.271752 
L 276.817061 80.353101 
L 276.203226 80.79731 
L 275.589391 79.898907 
L 274.975556 76.878943 
L 274.361721 76.569302 
L 273.747886 79.152029 
L 273.134051 81.614401 
L 272.520217 82.419727 
L 271.906382 82.874359 
L 271.292547 88.334741 
L 270.678712 92.719624 
L 270.064877 92.328202 
L 269.451042 97.034102 
L 268.837207 108.409702 
L 268.223372 100.916648 
L 267.609537 101.018336 
L 266.995703 106.277441 
L 266.381868 100.04534 
L 265.768033 95.838261 
L 265.154198 92.527868 
L 264.540363 86.466007 
L 263.926528 83.837796 
L 263.312693 79.748009 
L 262.698858 76.96905 
L 262.085023 75.592517 
L 261.471189 75.64621 
L 260.857354 75.18995 
L 260.243519 77.3652 
L 259.629684 81.530366 
L 259.015849 86.633008 
L 258.402014 88.460388 
L 257.788179 90.495983 
L 257.174344 95.387106 
L 256.56051 100.255329 
L 255.946675 100.274383 
L 255.33284 103.239501 
L 254.719005 102.84961 
L 254.10517 103.42008 
L 253.491335 105.718704 
L 252.8775 105.355955 
L 252.263665 96.262368 
L 251.64983 93.218415 
L 251.035996 87.924388 
L 250.422161 84.037602 
L 249.808326 82.09778 
L 249.194491 79.083169 
L 248.580656 75.223213 
L 247.966821 75.303551 
L 247.352986 77.837548 
L 246.739151 79.032929 
L 246.125317 81.375547 
L 245.511482 85.507676 
L 244.897647 89.990165 
L 244.283812 94.639194 
L 243.669977 97.184909 
L 243.056142 98.14387 
L 242.442307 104.553575 
L 241.828472 111.008544 
L 241.214637 113.467279 
L 240.600803 106.257932 
L 239.986968 102.56856 
L 239.373133 101.535287 
L 238.759298 99.522412 
L 238.145463 95.478989 
L 237.531628 91.640498 
L 236.917793 88.457208 
L 236.303958 84.662291 
L 235.690124 79.817985 
L 235.076289 79.20356 
L 234.462454 78.524923 
L 233.848619 74.891223 
L 233.234784 74.251267 
L 232.620949 75.660884 
L 232.007114 80.70329 
L 231.393279 83.15319 
L 230.779444 86.97231 
L 230.16561 94.60175 
L 229.551775 99.752818 
L 228.93794 102.111847 
L 228.324105 103.388591 
L 227.71027 105.10297 
L 227.096435 111.141823 
L 226.4826 107.876008 
L 225.868765 101.68906 
L 225.254931 100.072003 
L 224.641096 94.94998 
L 224.027261 92.232308 
L 223.413426 85.374889 
L 222.799591 82.910024 
L 222.185756 81.242931 
L 221.571921 80.186421 
L 220.958086 79.210944 
L 220.344251 80.091769 
L 219.730417 80.496356 
L 219.116582 79.474655 
L 218.502747 82.367238 
L 217.888912 84.499222 
L 217.275077 90.285732 
L 216.661242 94.173419 
L 216.047407 96.035557 
L 215.433572 100.251216 
L 214.819738 104.203655 
L 214.205903 106.30855 
L 213.592068 108.8397 
L 212.978233 107.512685 
L 212.364398 105.183173 
L 211.750563 103.246035 
L 211.136728 94.203659 
L 210.522893 91.708082 
L 209.909058 89.566397 
L 209.295224 88.605701 
L 208.681389 86.061216 
L 208.067554 82.406797 
L 207.453719 80.389101 
L 206.839884 81.144521 
L 206.226049 81.741205 
L 205.612214 80.924353 
L 204.998379 80.282855 
L 204.384545 79.574407 
L 203.77071 84.547625 
L 203.156875 88.931004 
L 202.54304 91.720481 
L 201.929205 94.292612 
L 201.31537 98.9929 
L 200.701535 103.985547 
L 200.0877 108.623447 
L 199.473865 109.836017 
L 198.860031 110.755987 
L 198.246196 114.061147 
L 197.632361 113.869045 
L 197.018526 103.991856 
L 196.404691 98.188088 
L 195.790856 100.590678 
L 195.177021 92.247154 
L 194.563186 88.411879 
L 193.949352 85.710907 
L 193.335517 80.711296 
L 192.721682 78.80164 
L 192.107847 78.16093 
L 191.494012 79.188373 
L 190.880177 81.541835 
L 190.266342 84.557874 
L 189.652507 84.671204 
L 189.038672 86.563757 
L 188.424838 88.189284 
L 187.811003 90.318198 
L 187.197168 92.831634 
L 186.583333 100.221107 
L 185.969498 104.980726 
L 185.355663 107.348665 
L 184.741828 110.835201 
L 184.127993 106.815597 
L 183.514158 103.37629 
L 182.900324 101.291063 
L 182.286489 98.700016 
L 181.672654 96.683824 
L 181.058819 94.449709 
L 180.444984 88.205592 
L 179.831149 86.464726 
L 179.217314 82.183905 
L 178.603479 79.387201 
L 177.989645 77.446409 
L 177.37581 79.39076 
L 176.761975 78.649848 
L 176.14814 78.576924 
L 175.534305 79.531242 
L 174.92047 81.485891 
L 174.306635 86.544452 
L 173.6928 90.345905 
L 173.078965 98.260072 
L 172.465131 108.240803 
L 171.851296 109.165177 
L 171.237461 113.065905 
L 170.623626 112.449473 
L 170.009791 103.034334 
L 169.395956 99.162919 
L 168.782121 93.46891 
L 168.168286 89.895648 
L 167.554452 86.112125 
L 166.940617 82.083531 
L 166.326782 76.574238 
L 165.712947 73.516565 
L 165.099112 71.996722 
L 164.485277 75.37018 
L 163.871442 76.337672 
L 163.257607 82.796121 
L 162.643772 83.981725 
L 162.029938 87.533297 
L 161.416103 93.777393 
L 160.802268 99.418396 
L 160.188433 106.015777 
L 159.574598 113.650671 
L 158.960763 117.288182 
L 158.346928 123.128029 
L 157.733093 127.964565 
L 157.119259 130.003326 
L 156.505424 134.644797 
L 155.891589 134.839325 
L 155.277754 121.632 
L 154.663919 123.802612 
L 154.050084 117.338576 
L 153.436249 103.765349 
L 152.822414 99.760567 
L 152.208579 88.78792 
L 151.594745 83.924932 
L 150.98091 83.498098 
L 150.367075 79.792249 
L 149.75324 77.340391 
L 149.139405 75.515323 
L 148.52557 74.265906 
L 147.911735 76.058738 
L 147.2979 75.802842 
L 146.684066 76.882586 
L 146.070231 80.249863 
L 145.456396 87.015622 
L 144.842561 94.079692 
L 144.228726 104.430872 
L 143.614891 108.902951 
L 143.001056 115.658371 
L 142.387221 126.113942 
L 141.773386 145.168943 
L 141.159552 136.984838 
L 140.545717 146.660431 
L 139.931882 132.326689 
L 139.318047 123.755315 
L 138.704212 122.305973 
L 138.090377 114.164681 
L 137.476542 106.828488 
L 136.862707 100.072949 
L 136.248873 92.879635 
L 135.635038 85.575831 
L 135.021203 77.242699 
L 134.407368 74.083638 
L 133.793533 71.399227 
L 133.179698 71.923839 
L 132.565863 73.849372 
L 131.952028 76.769497 
L 131.338193 82.773956 
L 130.724359 87.595965 
L 130.110524 95.015589 
L 129.496689 106.494405 
L 128.882854 118.445186 
L 128.269019 123.871011 
L 127.655184 129.697226 
L 127.041349 132.051193 
L 126.427514 144.532447 
L 125.81368 139.577969 
L 125.199845 125.208135 
L 124.58601 114.813423 
L 123.972175 101.84885 
L 123.35834 88.890061 
L 122.744505 80.804997 
L 122.13067 74.81634 
L 121.516835 70.330161 
L 120.903 68.754264 
L 120.289166 68.058516 
L 119.675331 69.985384 
L 119.061496 78.038799 
L 118.447661 85.217814 
L 117.833826 98.822534 
L 117.219991 113.854094 
L 116.606156 129.316197 
L 115.992321 135.979276 
L 115.378487 130.998967 
L 114.764652 123.994962 
L 114.150817 107.395101 
L 113.536982 94.560885 
L 112.923147 85.931999 
L 112.309312 77.752212 
L 111.695477 73.352528 
L 111.081642 70.354437 
L 110.467807 69.086865 
L 109.853973 70.152328 
L 109.240138 73.15311 
L 108.626303 78.482843 
L 108.012468 83.417421 
L 107.398633 89.431343 
L 106.784798 101.287724 
L 106.170963 108.347123 
L 105.557128 123.255008 
L 104.943293 147.287387 
L 104.329459 148.951105 
L 103.715624 142.048682 
L 103.101789 131.572667 
L 102.487954 128.515303 
L 101.874119 109.384421 
L 101.260284 93.256329 
L 100.646449 85.489417 
L 100.032614 78.93946 
L 99.41878 73.787186 
L 98.804945 66.906063 
L 98.19111 65.168079 
L 97.577275 64.939967 
L 96.96344 68.48986 
L 96.349605 74.321593 
L 95.73577 81.705663 
L 95.121935 90.881412 
L 94.5081 102.983119 
L 93.894266 115.207109 
L 93.280431 125.06535 
L 92.666596 143.00387 
L 92.052761 145.533642 
L 91.438926 149.609424 
L 90.825091 141.398878 
L 90.211256 142.963811 
L 89.597421 118.356698 
L 88.983587 98.334982 
L 88.369752 79.423182 
L 87.755917 66.752187 
L 87.142082 59.2006 
L 86.528247 57.840609 
L 85.914412 64.772524 
L 85.300577 77.515867 
L 84.686742 94.571658 
L 84.072907 113.238431 
L 83.459073 130.332216 
L 82.845238 150.893336 
L 82.231403 139.382435 
L 81.617568 144.76236 
L 81.003733 119.211919 
L 80.389898 98.805036 
L 79.776063 82.062407 
L 79.162228 72.603267 
L 78.548394 71.788359 
L 77.934559 75.357988 
L 77.320724 88.803265 
L 76.706889 107.395068 
L 76.093054 124.949734 
L 75.479219 154.613883 
L 74.865384 231.737167 
z
" clip-path="url(#pe8697911fd)" style="fill: #4c72b0; fill-opacity: 0.25; stroke: #4c72b0; stroke-width: 0.3"/>
   </g>
   <g id="patch_3">
    <path d="M 60.617188 172.018828 
L 60.617188 5.698828 
" style="fill: none"/>
   </g>
   <g id="patch_4">
    <path d="M 395.417188 172.018828 
L 395.417188 5.698828 
" style="fill: none"/>
   </g>
   <g id="patch_5">
    <path d="M 60.617188 172.018828 
L 395.417188 172.018828 
" style="fill: none"/>
   </g>
   <g id="patch_6">
    <path d="M 60.617188 5.698828 
L 395.417188 5.698828 
" style="fill: none"/>
   </g>
   <g id="text_14">
    <!-- 0 -->
    <g transform="translate(78.6929 65.713484) scale(0.1 -0.1)">
     <use xlink:href="#DejaVuSerif-30"/>
    </g>
   </g>
   <g id="text_15">
    <!-- 1 -->
    <g transform="translate(86.777762 55.659477) scale(0.1 -0.1)">
     <use xlink:href="#DejaVuSerif-31"/>
    </g>
   </g>
   <g id="text_16">
    <!-- 2 -->
    <g transform="translate(98.003184 61.467933) scale(0.1 -0.1)">
     <use xlink:href="#DejaVuSerif-32"/>
    </g>
   </g>
   <g id="text_17">
    <!-- 3 -->
    <g transform="translate(110.337502 64.059439) scale(0.1 -0.1)">
     <defs>
      <path id="DejaVuSerif-33" d="M 622 4469 
Q 988 4606 1323 4678 
Q 1659 4750 1953 4750 
Q 2638 4750 3022 4454 
Q 3406 4159 3406 3634 
Q 3406 3213 3140 2930 
Q 2875 2647 2388 2547 
Q 2963 2466 3280 2130 
Q 3597 1794 3597 1259 
Q 3597 606 3158 257 
Q 2719 -91 1894 -91 
Q 1528 -91 1179 -12 
Q 831 66 488 225 
L 488 1131 
L 838 1131 
Q 869 681 1141 450 
Q 1413 219 1906 219 
Q 2384 219 2661 495 
Q 2938 772 2938 1253 
Q 2938 1803 2653 2086 
Q 2369 2369 1819 2369 
L 1522 2369 
L 1522 2688 
L 1678 2688 
Q 2225 2688 2498 2914 
Q 2772 3141 2772 3597 
Q 2772 4006 2547 4223 
Q 2322 4441 1900 4441 
Q 1478 4441 1245 4241 
Q 1013 4041 972 3647 
L 622 3647 
L 622 4469 
z
" transform="scale(0.015625)"/>
     </defs>
     <use xlink:href="#DejaVuSerif-33"/>
    </g>
   </g>
   <g id="text_18">
    <!-- 4 -->
    <g transform="translate(120.80398 62.98057) scale(0.1 -0.1)">
     <use xlink:href="#DejaVuSerif-34"/>
    </g>
   </g>
   <g id="text_19">
    <!-- 5 -->
    <g transform="translate(133.409009 66.790651) scale(0.1 -0.1)">
     <defs>
      <path id="DejaVuSerif-35" d="M 3219 4666 
L 3219 4153 
L 1081 4153 
L 1081 2816 
Q 1244 2928 1461 2984 
Q 1678 3041 1947 3041 
Q 2703 3041 3140 2622 
Q 3578 2203 3578 1478 
Q 3578 738 3136 323 
Q 2694 -91 1894 -91 
Q 1572 -91 1234 -12 
Q 897 66 544 225 
L 544 1131 
L 897 1131 
Q 925 688 1179 453 
Q 1434 219 1894 219 
Q 2388 219 2653 544 
Q 2919 869 2919 1478 
Q 2919 2084 2655 2407 
Q 2391 2731 1894 2731 
Q 1613 2731 1398 2631 
Q 1184 2531 1019 2322 
L 750 2322 
L 750 4666 
L 3219 4666 
z
" transform="scale(0.015625)"/>
     </defs>
     <use xlink:href="#DejaVuSerif-35"/>
    </g>
   </g>
   <g id="text_20">
    <!-- 6 -->
    <g transform="translate(148.628057 67.912156) scale(0.1 -0.1)">
     <use xlink:href="#DejaVuSerif-36"/>
    </g>
   </g>
   <g id="text_21">
    <!-- 7 -->
    <g transform="translate(164.931488 68.329846) scale(0.1 -0.1)">
     <defs>
      <path id="DejaVuSerif-37" d="M 3609 4347 
L 1784 0 
L 1319 0 
L 3059 4153 
L 903 4153 
L 903 3578 
L 538 3578 
L 538 4666 
L 3609 4666 
L 3609 4347 
z
" transform="scale(0.015625)"/>
     </defs>
     <use xlink:href="#DejaVuSerif-37"/>
    </g>
   </g>
   <g id="text_22">
    <!-- 8 -->
    <g transform="translate(177.457743 70.093146) scale(0.1 -0.1)">
     <use xlink:href="#DejaVuSerif-38"/>
    </g>
   </g>
   <g id="text_23">
    <!-- 9 -->
    <g transform="translate(191.424425 71.405679) scale(0.1 -0.1)">
     <defs>
      <path id="DejaVuSerif-39" d="M 2994 2091 
Q 2784 1856 2512 1740 
Q 2241 1625 1900 1625 
Q 1206 1625 804 2044 
Q 403 2463 403 3188 
Q 403 3897 839 4323 
Q 1275 4750 2003 4750 
Q 2794 4750 3217 4161 
Q 3641 3572 3641 2478 
Q 3641 1253 3137 581 
Q 2634 -91 1722 -91 
Q 1475 -91 1203 -44 
Q 931 3 647 97 
L 647 872 
L 997 872 
Q 1038 556 1241 387 
Q 1444 219 1784 219 
Q 2391 219 2687 676 
Q 2984 1134 2994 2091 
z
M 1978 4441 
Q 1534 4441 1298 4117 
Q 1063 3794 1063 3188 
Q 1063 2581 1298 2256 
Q 1534 1931 1978 1931 
Q 2422 1931 2658 2245 
Q 2894 2559 2894 3150 
Q 2894 3772 2656 4106 
Q 2419 4441 1978 4441 
z
" transform="scale(0.015625)"/>
     </defs>
     <use xlink:href="#DejaVuSerif-39"/>
    </g>
   </g>
   <g id="text_24">
    <!-- 10 -->
    <g transform="translate(206.328857 71.403423) scale(0.1 -0.1)">
     <use xlink:href="#DejaVuSerif-31"/>
     <use xlink:href="#DejaVuSerif-30" x="63.623047"/>
    </g>
   </g>
   <g id="text_25">
    <!-- 11 -->
    <g transform="translate(220.488237 70.826476) scale(0.1 -0.1)">
     <use xlink:href="#DejaVuSerif-31"/>
     <use xlink:href="#DejaVuSerif-31" x="63.623047"/>
    </g>
   </g>
   <g id="text_26">
    <!-- 12 -->
    <g transform="translate(233.977342 69.339173) scale(0.1 -0.1)">
     <use xlink:href="#DejaVuSerif-31"/>
     <use xlink:href="#DejaVuSerif-32" x="63.623047"/>
    </g>
   </g>
   <g id="text_27">
    <!-- 13 -->
    <g transform="translate(247.987535 70.022186) scale(0.1 -0.1)">
     <use xlink:href="#DejaVuSerif-31"/>
     <use xlink:href="#DejaVuSerif-33" x="63.623047"/>
    </g>
   </g>
   <g id="text_28">
    <!-- 14 -->
    <g transform="translate(261.418171 69.358912) scale(0.1 -0.1)">
     <use xlink:href="#DejaVuSerif-31"/>
     <use xlink:href="#DejaVuSerif-34" x="63.623047"/>
    </g>
   </g>
   <g id="text_29">
    <!-- 15 -->
    <g transform="translate(274.588341 70.160005) scale(0.1 -0.1)">
     <use xlink:href="#DejaVuSerif-31"/>
     <use xlink:href="#DejaVuSerif-35" x="63.623047"/>
    </g>
   </g>
   <g id="text_30">
    <!-- 16 -->
    <g transform="translate(285.872388 72.713545) scale(0.1 -0.1)">
     <use xlink:href="#DejaVuSerif-31"/>
     <use xlink:href="#DejaVuSerif-36" x="63.623047"/>
    </g>
   </g>
   <g id="text_31">
    <!-- 17 -->
    <g transform="translate(297.318208 72.010599) scale(0.1 -0.1)">
     <use xlink:href="#DejaVuSerif-31"/>
     <use xlink:href="#DejaVuSerif-37" x="63.623047"/>
    </g>
   </g>
   <g id="text_32">
    <!-- 18 -->
    <g transform="translate(307.490373 73.468214) scale(0.1 -0.1)">
     <use xlink:href="#DejaVuSerif-31"/>
     <use xlink:href="#DejaVuSerif-38" x="63.623047"/>
    </g>
   </g>
   <g id="text_33">
    <!-- 19 -->
    <g transform="translate(317.382422 73.48133) scale(0.1 -0.1)">
     <use xlink:href="#DejaVuSerif-31"/>
     <use xlink:href="#DejaVuSerif-39" x="63.623047"/>
    </g>
   </g>
   <g id="text_34">
    <!-- 20 -->
    <g transform="translate(325.788911 73.606636) scale(0.1 -0.1)">
     <use xlink:href="#DejaVuSerif-32"/>
     <use xlink:href="#DejaVuSerif-30" x="63.623047"/>
    </g>
   </g>
   <g id="text_35">
    <!-- 21 -->
    <g transform="translate(333.427322 76.181984) scale(0.1 -0.1)">
     <use xlink:href="#DejaVuSerif-32"/>
     <use xlink:href="#DejaVuSerif-31" x="63.623047"/>
    </g>
   </g>
   <g id="text_36">
    <!-- 22 -->
    <g transform="translate(340.403246 77.422915) scale(0.1 -0.1)">
     <use xlink:href="#DejaVuSerif-32"/>
     <use xlink:href="#DejaVuSerif-32" x="63.623047"/>
    </g>
   </g>
   <g id="text_37">
    <!-- 23 -->
    <g transform="translate(347.006752 76.608369) scale(0.1 -0.1)">
     <use xlink:href="#DejaVuSerif-32"/>
     <use xlink:href="#DejaVuSerif-33" x="63.623047"/>
    </g>
   </g>
   <g id="text_38">
    <!-- 24 -->
    <g transform="translate(353.303165 77.382764) scale(0.1 -0.1)">
     <use xlink:href="#DejaVuSerif-32"/>
     <use xlink:href="#DejaVuSerif-34" x="63.623047"/>
    </g>
   </g>
   <g id="text_39">
    <!-- 25 -->
    <g transform="translate(359.222915 79.607966) scale(0.1 -0.1)">
     <use xlink:href="#DejaVuSerif-32"/>
     <use xlink:href="#DejaVuSerif-35" x="63.623047"/>
    </g>
   </g>
   <g id="text_40">
    <!-- 26 -->
    <g transform="translate(365.960293 81.040682) scale(0.1 -0.1)">
     <use xlink:href="#DejaVuSerif-32"/>
     <use xlink:href="#DejaVuSerif-36" x="63.623047"/>
    </g>
   </g>
   <g id="text_41">
    <!-- 27+ -->
    <g transform="translate(373.990447 81.906957) scale(0.1 -0.1)">
     <defs>
      <path id="DejaVuSerif-2b" d="M 2931 4013 
L 2931 2259 
L 4684 2259 
L 4684 1753 
L 2931 1753 
L 2931 0 
L 2431 0 
L 2431 1753 
L 678 1753 
L 678 2259 
L 2431 2259 
L 2431 4013 
L 2931 4013 
z
" transform="scale(0.015625)"/>
     </defs>
     <use xlink:href="#DejaVuSerif-32"/>
     <use xlink:href="#DejaVuSerif-37" x="63.623047"/>
     <use xlink:href="#DejaVuSerif-2b" x="127.246094"/>
    </g>
   </g>
   <g id="text_42">
    <!-- PUMAP 1D -->
    <g style="fill: #262626" transform="translate(278.366818 23.537308) scale(0.15 -0.15)">
     <defs>
      <path id="DejaVuSerif-50" d="M 1581 2375 
L 2406 2375 
Q 2872 2375 3115 2626 
Q 3359 2878 3359 3353 
Q 3359 3831 3115 4081 
Q 2872 4331 2406 4331 
L 1581 4331 
L 1581 2375 
z
M 353 0 
L 353 331 
L 947 331 
L 947 4331 
L 353 4331 
L 353 4666 
L 2559 4666 
Q 3259 4666 3668 4311 
Q 4078 3956 4078 3353 
Q 4078 2753 3668 2397 
Q 3259 2041 2559 2041 
L 1581 2041 
L 1581 331 
L 2303 331 
L 2303 0 
L 353 0 
z
" transform="scale(0.015625)"/>
      <path id="DejaVuSerif-55" d="M 897 4331 
L 300 4331 
L 300 4666 
L 2125 4666 
L 2125 4331 
L 1528 4331 
L 1528 1919 
Q 1528 1025 1820 672 
Q 2113 319 2828 319 
Q 3544 319 3836 672 
Q 4128 1025 4128 1919 
L 4128 4331 
L 3531 4331 
L 3531 4666 
L 5106 4666 
L 5106 4331 
L 4513 4331 
L 4513 1856 
Q 4513 791 4103 350 
Q 3694 -91 2713 -91 
Q 1731 -91 1314 353 
Q 897 797 897 1856 
L 897 4331 
z
" transform="scale(0.015625)"/>
      <path id="DejaVuSerif-4d" d="M 353 0 
L 353 331 
L 947 331 
L 947 4331 
L 319 4331 
L 319 4666 
L 1678 4666 
L 3316 1344 
L 4953 4666 
L 6228 4666 
L 6228 4331 
L 5606 4331 
L 5606 331 
L 6203 331 
L 6203 0 
L 4378 0 
L 4378 331 
L 4972 331 
L 4972 3938 
L 3372 684 
L 2931 684 
L 1331 3938 
L 1331 331 
L 1925 331 
L 1925 0 
L 353 0 
z
" transform="scale(0.015625)"/>
      <path id="DejaVuSerif-41" d="M 1281 1691 
L 2994 1691 
L 2138 3909 
L 1281 1691 
z
M -38 0 
L -38 331 
L 372 331 
L 2034 4666 
L 2559 4666 
L 4225 331 
L 4684 331 
L 4684 0 
L 2988 0 
L 2988 331 
L 3506 331 
L 3116 1356 
L 1153 1356 
L 763 331 
L 1275 331 
L 1275 0 
L -38 0 
z
" transform="scale(0.015625)"/>
      <path id="DejaVuSerif-20" transform="scale(0.015625)"/>
     </defs>
     <use xlink:href="#DejaVuSerif-50"/>
     <use xlink:href="#DejaVuSerif-55" x="65.535156"/>
     <use xlink:href="#DejaVuSerif-4d" x="149.8125"/>
     <use xlink:href="#DejaVuSerif-41" x="252.205078"/>
     <use xlink:href="#DejaVuSerif-50" x="324.421875"/>
     <use xlink:href="#DejaVuSerif-20" x="391.707031"/>
     <use xlink:href="#DejaVuSerif-31" x="423.494141"/>
     <use xlink:href="#DejaVuSerif-44" x="487.117188"/>
    </g>
   </g>
  </g>
 </g>
 <defs>
  <clipPath id="pe8697911fd">
   <rect x="60.617188" y="5.698828" width="334.8" height="166.32"/>
  </clipPath>
 </defs>
</svg>
