<?xml version="1.0" encoding="utf-8" standalone="no"?>
<!DOCTYPE svg PUBLIC "-//W3C//DTD SVG 1.1//EN"
  "http://www.w3.org/Graphics/SVG/1.1/DTD/svg11.dtd">
<svg xmlns:xlink="http://www.w3.org/1999/xlink" width="387.174387pt" height="209.075801pt" viewBox="0 0 387.174387 209.075801" xmlns="http://www.w3.org/2000/svg" version="1.1">
 <metadata>
  <rdf:RDF xmlns:dc="http://purl.org/dc/elements/1.1/" xmlns:cc="http://creativecommons.org/ns#" xmlns:rdf="http://www.w3.org/1999/02/22-rdf-syntax-ns#">
   <cc:Work>
    <dc:type rdf:resource="http://purl.org/dc/dcmitype/StillImage"/>
    <dc:date>2024-10-10T14:58:57.111585</dc:date>
    <dc:format>image/svg+xml</dc:format>
    <dc:creator>
     <cc:Agent>
      <dc:title>Matplotlib v3.9.2, https://matplotlib.org/</dc:title>
     </cc:Agent>
    </dc:creator>
   </cc:Work>
  </rdf:RDF>
 </metadata>
 <defs>
  <style type="text/css">*{stroke-linejoin: round; stroke-linecap: butt}</style>
 </defs>
 <g id="figure_1">
  <g id="patch_1">
   <path d="M 0 209.075801 
L 387.174387 209.075801 
L 387.174387 0 
L 0 0 
z
" style="fill: #ffffff"/>
  </g>
  <g id="axes_1">
   <g id="patch_2">
    <path d="M 52.282462 171.508862 
L 387.082462 171.508862 
L 387.082462 5.188862 
L 52.282462 5.188862 
z
" style="fill: #eaeaf2"/>
   </g>
   <g id="matplotlib.axis_1">
    <g id="xtick_1">
     <g id="line2d_1">
      <path d="M 67.500644 171.508862 
L 67.500644 5.188862 
" clip-path="url(#pa60fc8c28c)" style="fill: none; stroke: #ffffff; stroke-linecap: round"/>
     </g>
     <g id="line2d_2"/>
     <g id="text_1">
      <!-- $\mathdefault{0.0}$ -->
      <g style="fill: #262626" transform="translate(58.152118 188.886587) scale(0.15 -0.15)">
       <defs>
        <path id="CMR17-30" d="M 2688 2025 
C 2688 2416 2682 3080 2413 3591 
C 2176 4039 1798 4198 1466 4198 
C 1158 4198 768 4058 525 3597 
C 269 3118 243 2524 243 2025 
C 243 1661 250 1106 448 619 
C 723 -39 1216 -128 1466 -128 
C 1760 -128 2208 -7 2470 600 
C 2662 1042 2688 1559 2688 2025 
z
M 1466 -26 
C 1056 -26 813 325 723 812 
C 653 1188 653 1738 653 2096 
C 653 2588 653 2997 736 3387 
C 858 3929 1216 4096 1466 4096 
C 1728 4096 2067 3923 2189 3400 
C 2272 3036 2278 2607 2278 2096 
C 2278 1680 2278 1169 2202 792 
C 2067 95 1690 -26 1466 -26 
z
" transform="scale(0.015625)"/>
        <path id="CMMI12-3a" d="M 1178 307 
C 1178 492 1024 619 870 619 
C 685 619 557 466 557 313 
C 557 128 710 0 864 0 
C 1050 0 1178 153 1178 307 
z
" transform="scale(0.015625)"/>
       </defs>
       <use xlink:href="#CMR17-30" transform="scale(0.996264)"/>
       <use xlink:href="#CMMI12-3a" transform="translate(45.690477 0) scale(0.996264)"/>
       <use xlink:href="#CMR17-30" transform="translate(72.787654 0) scale(0.996264)"/>
      </g>
     </g>
    </g>
    <g id="xtick_2">
     <g id="line2d_3">
      <path d="M 128.373371 171.508862 
L 128.373371 5.188862 
" clip-path="url(#pa60fc8c28c)" style="fill: none; stroke: #ffffff; stroke-linecap: round"/>
     </g>
     <g id="line2d_4"/>
     <g id="text_2">
      <!-- $\mathdefault{0.2}$ -->
      <g style="fill: #262626" transform="translate(119.024845 188.886587) scale(0.15 -0.15)">
       <defs>
        <path id="CMR17-32" d="M 2669 989 
L 2554 989 
C 2490 536 2438 459 2413 420 
C 2381 369 1920 369 1830 369 
L 602 369 
C 832 619 1280 1072 1824 1597 
C 2214 1967 2669 2402 2669 3035 
C 2669 3790 2067 4224 1395 4224 
C 691 4224 262 3604 262 3030 
C 262 2780 448 2748 525 2748 
C 589 2748 781 2787 781 3010 
C 781 3207 614 3264 525 3264 
C 486 3264 448 3258 422 3245 
C 544 3790 915 4058 1306 4058 
C 1862 4058 2227 3617 2227 3035 
C 2227 2479 1901 2000 1536 1584 
L 262 146 
L 262 0 
L 2515 0 
L 2669 989 
z
" transform="scale(0.015625)"/>
       </defs>
       <use xlink:href="#CMR17-30" transform="scale(0.996264)"/>
       <use xlink:href="#CMMI12-3a" transform="translate(45.690477 0) scale(0.996264)"/>
       <use xlink:href="#CMR17-32" transform="translate(72.787654 0) scale(0.996264)"/>
      </g>
     </g>
    </g>
    <g id="xtick_3">
     <g id="line2d_5">
      <path d="M 189.246098 171.508862 
L 189.246098 5.188862 
" clip-path="url(#pa60fc8c28c)" style="fill: none; stroke: #ffffff; stroke-linecap: round"/>
     </g>
     <g id="line2d_6"/>
     <g id="text_3">
      <!-- $\mathdefault{0.4}$ -->
      <g style="fill: #262626" transform="translate(179.897572 188.886587) scale(0.15 -0.15)">
       <defs>
        <path id="CMR17-34" d="M 2150 4122 
C 2150 4256 2144 4256 2029 4256 
L 128 1254 
L 128 1088 
L 1779 1088 
L 1779 457 
C 1779 224 1766 160 1318 160 
L 1197 160 
L 1197 0 
C 1402 0 1747 0 1965 0 
C 2182 0 2528 0 2733 0 
L 2733 160 
L 2611 160 
C 2163 160 2150 224 2150 457 
L 2150 1088 
L 2803 1088 
L 2803 1254 
L 2150 1254 
L 2150 4122 
z
M 1798 3703 
L 1798 1254 
L 256 1254 
L 1798 3703 
z
" transform="scale(0.015625)"/>
       </defs>
       <use xlink:href="#CMR17-30" transform="scale(0.996264)"/>
       <use xlink:href="#CMMI12-3a" transform="translate(45.690477 0) scale(0.996264)"/>
       <use xlink:href="#CMR17-34" transform="translate(72.787654 0) scale(0.996264)"/>
      </g>
     </g>
    </g>
    <g id="xtick_4">
     <g id="line2d_7">
      <path d="M 250.118826 171.508862 
L 250.118826 5.188862 
" clip-path="url(#pa60fc8c28c)" style="fill: none; stroke: #ffffff; stroke-linecap: round"/>
     </g>
     <g id="line2d_8"/>
     <g id="text_4">
      <!-- $\mathdefault{0.6}$ -->
      <g style="fill: #262626" transform="translate(240.770299 188.886587) scale(0.15 -0.15)">
       <defs>
        <path id="CMR17-36" d="M 678 2176 
C 678 3690 1395 4032 1811 4032 
C 1946 4032 2272 4009 2400 3776 
C 2298 3776 2106 3776 2106 3553 
C 2106 3381 2246 3323 2336 3323 
C 2394 3323 2566 3348 2566 3560 
C 2566 3954 2246 4179 1805 4179 
C 1043 4179 243 3390 243 1984 
C 243 253 966 -128 1478 -128 
C 2099 -128 2688 427 2688 1283 
C 2688 2081 2170 2662 1517 2662 
C 1126 2662 838 2407 678 1960 
L 678 2176 
z
M 1478 25 
C 691 25 691 1200 691 1436 
C 691 1896 909 2560 1504 2560 
C 1613 2560 1926 2560 2138 2120 
C 2253 1870 2253 1609 2253 1289 
C 2253 944 2253 690 2118 434 
C 1978 171 1773 25 1478 25 
z
" transform="scale(0.015625)"/>
       </defs>
       <use xlink:href="#CMR17-30" transform="scale(0.996264)"/>
       <use xlink:href="#CMMI12-3a" transform="translate(45.690477 0) scale(0.996264)"/>
       <use xlink:href="#CMR17-36" transform="translate(72.787654 0) scale(0.996264)"/>
      </g>
     </g>
    </g>
    <g id="xtick_5">
     <g id="line2d_9">
      <path d="M 310.991553 171.508862 
L 310.991553 5.188862 
" clip-path="url(#pa60fc8c28c)" style="fill: none; stroke: #ffffff; stroke-linecap: round"/>
     </g>
     <g id="line2d_10"/>
     <g id="text_5">
      <!-- $\mathdefault{0.8}$ -->
      <g style="fill: #262626" transform="translate(301.643027 188.886587) scale(0.15 -0.15)">
       <defs>
        <path id="CMR17-38" d="M 1741 2264 
C 2144 2467 2554 2773 2554 3263 
C 2554 3841 1990 4179 1472 4179 
C 890 4179 378 3759 378 3180 
C 378 3021 416 2747 666 2505 
C 730 2442 998 2251 1171 2130 
C 883 1983 211 1634 211 934 
C 211 279 838 -128 1459 -128 
C 2144 -128 2720 362 2720 1010 
C 2720 1590 2330 1857 2074 2029 
L 1741 2264 
z
M 902 2822 
C 851 2854 595 3051 595 3351 
C 595 3739 998 4032 1459 4032 
C 1965 4032 2336 3676 2336 3262 
C 2336 2669 1670 2331 1638 2331 
C 1632 2331 1626 2331 1574 2370 
L 902 2822 
z
M 2080 1519 
C 2176 1449 2483 1240 2483 851 
C 2483 381 2010 25 1472 25 
C 890 25 448 438 448 940 
C 448 1443 838 1862 1280 2060 
L 2080 1519 
z
" transform="scale(0.015625)"/>
       </defs>
       <use xlink:href="#CMR17-30" transform="scale(0.996264)"/>
       <use xlink:href="#CMMI12-3a" transform="translate(45.690477 0) scale(0.996264)"/>
       <use xlink:href="#CMR17-38" transform="translate(72.787654 0) scale(0.996264)"/>
      </g>
     </g>
    </g>
    <g id="xtick_6">
     <g id="line2d_11">
      <path d="M 371.86428 171.508862 
L 371.86428 5.188862 
" clip-path="url(#pa60fc8c28c)" style="fill: none; stroke: #ffffff; stroke-linecap: round"/>
     </g>
     <g id="line2d_12"/>
     <g id="text_6">
      <!-- $\mathdefault{1.0}$ -->
      <g style="fill: #262626" transform="translate(362.515754 188.886587) scale(0.15 -0.15)">
       <defs>
        <path id="CMR17-31" d="M 1702 4058 
C 1702 4192 1696 4192 1606 4192 
C 1357 3916 979 3827 621 3827 
C 602 3827 570 3827 563 3808 
C 557 3795 557 3782 557 3648 
C 755 3648 1088 3686 1344 3839 
L 1344 461 
C 1344 236 1331 160 781 160 
L 589 160 
L 589 0 
C 896 0 1216 0 1523 0 
C 1830 0 2150 0 2458 0 
L 2458 160 
L 2266 160 
C 1715 160 1702 230 1702 458 
L 1702 4058 
z
" transform="scale(0.015625)"/>
       </defs>
       <use xlink:href="#CMR17-31" transform="scale(0.996264)"/>
       <use xlink:href="#CMMI12-3a" transform="translate(45.690477 0) scale(0.996264)"/>
       <use xlink:href="#CMR17-30" transform="translate(72.787654 0) scale(0.996264)"/>
      </g>
     </g>
    </g>
    <g id="text_7">
     <!-- $s_1$ -->
     <g style="fill: #262626" transform="translate(213.621025 206.170057) scale(0.15 -0.15)">
      <defs>
       <path id="CMMI12-73" d="M 1459 1280 
C 1568 1261 1741 1223 1779 1216 
C 1862 1192 2150 1090 2150 783 
C 2150 586 1971 70 1229 70 
C 1094 70 614 70 486 436 
C 742 404 870 603 870 745 
C 870 880 781 950 653 950 
C 512 950 326 841 326 552 
C 326 173 710 -64 1222 -64 
C 2195 -64 2483 651 2483 984 
C 2483 1079 2483 1258 2278 1462 
C 2118 1616 1965 1648 1619 1718 
C 1446 1756 1171 1814 1171 2101 
C 1171 2229 1286 2689 1894 2689 
C 2163 2689 2426 2589 2490 2368 
C 2208 2368 2195 2125 2195 2119 
C 2195 1984 2317 1946 2374 1946 
C 2464 1946 2643 2015 2643 2281 
C 2643 2545 2400 2816 1901 2816 
C 1062 2816 838 2160 838 1899 
C 838 1414 1312 1312 1459 1280 
z
" transform="scale(0.015625)"/>
      </defs>
      <use xlink:href="#CMMI12-73" transform="scale(0.996264)"/>
      <use xlink:href="#CMR17-31" transform="translate(45.950048 -14.943915) scale(0.697382)"/>
     </g>
    </g>
   </g>
   <g id="matplotlib.axis_2">
    <g id="ytick_1">
     <g id="line2d_13">
      <path d="M 52.282462 171.508862 
L 387.082462 171.508862 
" clip-path="url(#pa60fc8c28c)" style="fill: none; stroke: #ffffff; stroke-linecap: round"/>
     </g>
     <g id="line2d_14"/>
     <g id="text_8">
      <!-- $\mathdefault{10^{-2}}$ -->
      <g style="fill: #262626" transform="translate(17.283469 176.697725) scale(0.15 -0.15)">
       <defs>
        <path id="CMSY10-0" d="M 4218 1472 
C 4326 1472 4442 1472 4442 1600 
C 4442 1728 4326 1728 4218 1728 
L 755 1728 
C 646 1728 531 1728 531 1600 
C 531 1472 646 1472 755 1472 
L 4218 1472 
z
" transform="scale(0.015625)"/>
       </defs>
       <use xlink:href="#CMR17-31" transform="scale(0.996264)"/>
       <use xlink:href="#CMR17-30" transform="translate(45.690477 0) scale(0.996264)"/>
       <use xlink:href="#CMSY10-0" transform="translate(91.380954 36.153639) scale(0.697382)"/>
       <use xlink:href="#CMR17-32" transform="translate(145.621947 36.153639) scale(0.697382)"/>
      </g>
     </g>
    </g>
    <g id="ytick_2">
     <g id="line2d_15">
      <path d="M 52.282462 129.928862 
L 387.082462 129.928862 
" clip-path="url(#pa60fc8c28c)" style="fill: none; stroke: #ffffff; stroke-linecap: round"/>
     </g>
     <g id="line2d_16"/>
     <g id="text_9">
      <!-- $\mathdefault{10^{-1}}$ -->
      <g style="fill: #262626" transform="translate(17.283469 135.117725) scale(0.15 -0.15)">
       <use xlink:href="#CMR17-31" transform="scale(0.996264)"/>
       <use xlink:href="#CMR17-30" transform="translate(45.690477 0) scale(0.996264)"/>
       <use xlink:href="#CMSY10-0" transform="translate(91.380954 36.153639) scale(0.697382)"/>
       <use xlink:href="#CMR17-31" transform="translate(145.621947 36.153639) scale(0.697382)"/>
      </g>
     </g>
    </g>
    <g id="ytick_3">
     <g id="line2d_17">
      <path d="M 52.282462 88.348862 
L 387.082462 88.348862 
" clip-path="url(#pa60fc8c28c)" style="fill: none; stroke: #ffffff; stroke-linecap: round"/>
     </g>
     <g id="line2d_18"/>
     <g id="text_10">
      <!-- $\mathdefault{10^{0}}$ -->
      <g style="fill: #262626" transform="translate(25.419615 93.537725) scale(0.15 -0.15)">
       <use xlink:href="#CMR17-31" transform="scale(0.996264)"/>
       <use xlink:href="#CMR17-30" transform="translate(45.690477 0) scale(0.996264)"/>
       <use xlink:href="#CMR17-30" transform="translate(91.380954 36.153639) scale(0.697382)"/>
      </g>
     </g>
    </g>
    <g id="ytick_4">
     <g id="line2d_19">
      <path d="M 52.282462 46.768862 
L 387.082462 46.768862 
" clip-path="url(#pa60fc8c28c)" style="fill: none; stroke: #ffffff; stroke-linecap: round"/>
     </g>
     <g id="line2d_20"/>
     <g id="text_11">
      <!-- $\mathdefault{10^{1}}$ -->
      <g style="fill: #262626" transform="translate(25.419615 51.957725) scale(0.15 -0.15)">
       <use xlink:href="#CMR17-31" transform="scale(0.996264)"/>
       <use xlink:href="#CMR17-30" transform="translate(45.690477 0) scale(0.996264)"/>
       <use xlink:href="#CMR17-31" transform="translate(91.380954 36.153639) scale(0.697382)"/>
      </g>
     </g>
    </g>
    <g id="ytick_5">
     <g id="line2d_21">
      <path d="M 52.282462 5.188862 
L 387.082462 5.188862 
" clip-path="url(#pa60fc8c28c)" style="fill: none; stroke: #ffffff; stroke-linecap: round"/>
     </g>
     <g id="line2d_22"/>
     <g id="text_12">
      <!-- $\mathdefault{10^{2}}$ -->
      <g style="fill: #262626" transform="translate(25.419615 10.377725) scale(0.15 -0.15)">
       <use xlink:href="#CMR17-31" transform="scale(0.996264)"/>
       <use xlink:href="#CMR17-30" transform="translate(45.690477 0) scale(0.996264)"/>
       <use xlink:href="#CMR17-32" transform="translate(91.380954 36.153639) scale(0.697382)"/>
      </g>
     </g>
    </g>
    <g id="ytick_6">
     <g id="line2d_23"/>
    </g>
    <g id="ytick_7">
     <g id="line2d_24"/>
    </g>
    <g id="ytick_8">
     <g id="line2d_25"/>
    </g>
    <g id="ytick_9">
     <g id="line2d_26"/>
    </g>
    <g id="ytick_10">
     <g id="line2d_27"/>
    </g>
    <g id="ytick_11">
     <g id="line2d_28"/>
    </g>
    <g id="ytick_12">
     <g id="line2d_29"/>
    </g>
    <g id="ytick_13">
     <g id="line2d_30"/>
    </g>
    <g id="ytick_14">
     <g id="line2d_31"/>
    </g>
    <g id="ytick_15">
     <g id="line2d_32"/>
    </g>
    <g id="ytick_16">
     <g id="line2d_33"/>
    </g>
    <g id="ytick_17">
     <g id="line2d_34"/>
    </g>
    <g id="ytick_18">
     <g id="line2d_35"/>
    </g>
    <g id="ytick_19">
     <g id="line2d_36"/>
    </g>
    <g id="ytick_20">
     <g id="line2d_37"/>
    </g>
    <g id="ytick_21">
     <g id="line2d_38"/>
    </g>
    <g id="ytick_22">
     <g id="line2d_39"/>
    </g>
    <g id="ytick_23">
     <g id="line2d_40"/>
    </g>
    <g id="ytick_24">
     <g id="line2d_41"/>
    </g>
    <g id="ytick_25">
     <g id="line2d_42"/>
    </g>
    <g id="ytick_26">
     <g id="line2d_43"/>
    </g>
    <g id="ytick_27">
     <g id="line2d_44"/>
    </g>
    <g id="ytick_28">
     <g id="line2d_45"/>
    </g>
    <g id="ytick_29">
     <g id="line2d_46"/>
    </g>
    <g id="ytick_30">
     <g id="line2d_47"/>
    </g>
    <g id="ytick_31">
     <g id="line2d_48"/>
    </g>
    <g id="ytick_32">
     <g id="line2d_49"/>
    </g>
    <g id="ytick_33">
     <g id="line2d_50"/>
    </g>
    <g id="ytick_34">
     <g id="line2d_51"/>
    </g>
    <g id="ytick_35">
     <g id="line2d_52"/>
    </g>
    <g id="ytick_36">
     <g id="line2d_53"/>
    </g>
    <g id="ytick_37">
     <g id="line2d_54"/>
    </g>
    <g id="text_13">
     <!-- Density -->
     <g style="fill: #262626" transform="translate(10.377725 112.674048) rotate(-90) scale(0.15 -0.15)">
      <defs>
       <path id="CMR17-44" d="M 333 4352 
L 333 4186 
C 774 4186 845 4186 845 3900 
L 845 452 
C 845 166 774 166 333 166 
L 333 0 
L 2368 0 
C 3398 0 4224 943 4224 2141 
C 4224 3346 3411 4352 2368 4352 
L 333 4352 
z
M 1523 166 
C 1267 166 1254 197 1254 414 
L 1254 3938 
C 1254 4155 1267 4186 1523 4186 
L 2240 4186 
C 2771 4186 3750 3874 3750 2141 
C 3750 1242 3488 879 3366 707 
C 3213 510 2848 166 2240 166 
L 1523 166 
z
" transform="scale(0.015625)"/>
       <path id="CMR17-65" d="M 2438 1472 
C 2464 1498 2464 1511 2464 1576 
C 2464 2238 2118 2816 1389 2816 
C 710 2816 173 2169 173 1383 
C 173 551 781 -64 1459 -64 
C 2176 -64 2458 607 2458 740 
C 2458 784 2419 784 2406 784 
C 2362 784 2355 771 2330 696 
C 2189 265 1837 51 1504 51 
C 1229 51 954 203 781 480 
C 582 803 582 1176 582 1472 
L 2438 1472 
z
M 589 1568 
C 634 2505 1126 2714 1382 2714 
C 1818 2714 2112 2297 2118 1568 
L 589 1568 
z
" transform="scale(0.015625)"/>
       <path id="CMR17-6e" d="M 2656 1933 
C 2656 2259 2592 2790 1837 2790 
C 1331 2790 1069 2400 973 2144 
L 966 2144 
L 966 2790 
L 211 2720 
L 211 2554 
C 589 2554 646 2515 646 2208 
L 646 428 
C 646 184 621 153 211 153 
L 211 -13 
C 365 0 646 0 813 0 
C 979 0 1267 0 1421 -13 
L 1421 153 
C 1011 153 986 178 986 428 
L 986 1658 
C 986 2247 1344 2688 1792 2688 
C 2266 2688 2317 2266 2317 1958 
L 2317 428 
C 2317 184 2291 153 1882 153 
L 1882 -13 
C 2035 0 2317 0 2483 0 
C 2650 0 2938 0 3091 -13 
L 3091 153 
C 2682 153 2656 178 2656 428 
L 2656 1933 
z
" transform="scale(0.015625)"/>
       <path id="CMR17-73" d="M 1978 2697 
C 1978 2813 1971 2819 1933 2819 
C 1907 2819 1901 2813 1824 2717 
C 1805 2691 1747 2626 1728 2601 
C 1523 2819 1235 2819 1126 2819 
C 416 2819 160 2447 160 2076 
C 160 1498 813 1365 998 1325 
C 1402 1243 1542 1217 1677 1101 
C 1760 1025 1901 884 1901 654 
C 1901 384 1747 38 1158 38 
C 602 38 403 460 288 1021 
C 269 1110 269 1117 218 1117 
C 166 1117 160 1110 160 983 
L 160 63 
C 160 -51 166 -58 205 -58 
C 237 -58 243 -51 275 0 
C 314 57 410 211 448 276 
C 576 103 800 -64 1158 -64 
C 1792 -64 2131 283 2131 784 
C 2131 1112 1958 1285 1875 1362 
C 1683 1561 1459 1606 1190 1657 
C 838 1735 390 1825 390 2217 
C 390 2383 480 2737 1126 2737 
C 1811 2737 1850 2094 1862 1888 
C 1869 1856 1901 1849 1920 1849 
C 1978 1849 1978 1869 1978 1978 
L 1978 2697 
z
" transform="scale(0.015625)"/>
       <path id="CMR17-69" d="M 992 3909 
C 992 4049 877 4170 730 4170 
C 589 4170 467 4056 467 3909 
C 467 3769 582 3648 730 3648 
C 870 3648 992 3763 992 3909 
z
M 243 2706 
L 243 2541 
C 602 2541 653 2502 653 2197 
L 653 427 
C 653 184 627 153 218 153 
L 218 -13 
C 371 0 646 0 806 0 
C 960 0 1222 0 1370 -13 
L 1370 153 
C 992 153 979 191 979 420 
L 979 2776 
L 243 2706 
z
" transform="scale(0.015625)"/>
       <path id="CMR17-74" d="M 966 2560 
L 1862 2560 
L 1862 2725 
L 966 2725 
L 966 3904 
L 851 3904 
C 838 3245 614 2668 70 2668 
L 70 2560 
L 627 2560 
L 627 771 
C 627 650 627 -64 1370 -64 
C 1747 -64 1965 306 1965 777 
L 1965 1140 
L 1850 1140 
L 1850 783 
C 1850 344 1677 51 1408 51 
C 1222 51 966 178 966 758 
L 966 2560 
z
" transform="scale(0.015625)"/>
       <path id="CMR17-79" d="M 2496 2197 
C 2656 2586 2944 2586 3034 2586 
L 3034 2752 
C 2912 2752 2752 2752 2630 2752 
C 2496 2752 2285 2752 2157 2758 
L 2157 2592 
C 2400 2573 2406 2394 2406 2343 
C 2406 2280 2394 2248 2362 2171 
L 1664 449 
L 902 2306 
C 870 2382 870 2426 870 2433 
C 870 2573 1018 2586 1171 2586 
L 1171 2758 
C 1018 2752 742 2752 582 2752 
C 410 2752 205 2752 64 2758 
L 64 2586 
C 410 2586 448 2554 531 2350 
L 1485 15 
C 1197 -738 1030 -1178 627 -1178 
C 557 -1178 397 -1159 282 -1044 
C 429 -1031 493 -942 493 -833 
C 493 -725 416 -629 288 -629 
C 147 -629 77 -725 77 -840 
C 77 -1095 339 -1280 627 -1280 
C 998 -1280 1229 -922 1357 -604 
L 2496 2197 
z
" transform="scale(0.015625)"/>
      </defs>
      <use xlink:href="#CMR17-44" transform="scale(0.996264)"/>
      <use xlink:href="#CMR17-65" transform="translate(70.393556 0) scale(0.996264)"/>
      <use xlink:href="#CMR17-6e" transform="translate(110.879216 0) scale(0.996264)"/>
      <use xlink:href="#CMR17-73" transform="translate(161.774586 0) scale(0.996264)"/>
      <use xlink:href="#CMR17-69" transform="translate(197.575924 0) scale(0.996264)"/>
      <use xlink:href="#CMR17-74" transform="translate(222.446982 0) scale(0.996264)"/>
      <use xlink:href="#CMR17-79" transform="translate(255.125296 0) scale(0.996264)"/>
     </g>
    </g>
   </g>
   <g id="PolyCollection_1">
    <path d="M 66.550761 233.691384 
L 66.550761 41668.348862 
L 67.164516 41668.348862 
L 67.77827 41668.348862 
L 68.392024 41668.348862 
L 69.005779 41668.348862 
L 69.619533 41668.348862 
L 70.233287 41668.348862 
L 70.847041 41668.348862 
L 71.460796 41668.348862 
L 72.07455 41668.348862 
L 72.688304 41668.348862 
L 73.302059 41668.348862 
L 73.915813 41668.348862 
L 74.529567 41668.348862 
L 75.143322 41668.348862 
L 75.757076 41668.348862 
L 76.37083 41668.348862 
L 76.984585 41668.348862 
L 77.598339 41668.348862 
L 78.212093 41668.348862 
L 78.825847 41668.348862 
L 79.439602 41668.348862 
L 80.053356 41668.348862 
L 80.66711 41668.348862 
L 81.280865 41668.348862 
L 81.894619 41668.348862 
L 82.508373 41668.348862 
L 83.122128 41668.348862 
L 83.735882 41668.348862 
L 84.349636 41668.348862 
L 84.963391 41668.348862 
L 85.577145 41668.348862 
L 86.190899 41668.348862 
L 86.804654 41668.348862 
L 87.418408 41668.348862 
L 88.032162 41668.348862 
L 88.645916 41668.348862 
L 89.259671 41668.348862 
L 89.873425 41668.348862 
L 90.487179 41668.348862 
L 91.100934 41668.348862 
L 91.714688 41668.348862 
L 92.328442 41668.348862 
L 92.942197 41668.348862 
L 93.555951 41668.348862 
L 94.169705 41668.348862 
L 94.78346 41668.348862 
L 95.397214 41668.348862 
L 96.010968 41668.348862 
L 96.624723 41668.348862 
L 97.238477 41668.348862 
L 97.852231 41668.348862 
L 98.465985 41668.348862 
L 99.07974 41668.348862 
L 99.693494 41668.348862 
L 100.307248 41668.348862 
L 100.921003 41668.348862 
L 101.534757 41668.348862 
L 102.148511 41668.348862 
L 102.762266 41668.348862 
L 103.37602 41668.348862 
L 103.989774 41668.348862 
L 104.603529 41668.348862 
L 105.217283 41668.348862 
L 105.831037 41668.348862 
L 106.444791 41668.348862 
L 107.058546 41668.348862 
L 107.6723 41668.348862 
L 108.286054 41668.348862 
L 108.899809 41668.348862 
L 109.513563 41668.348862 
L 110.127317 41668.348862 
L 110.741072 41668.348862 
L 111.354826 41668.348862 
L 111.96858 41668.348862 
L 112.582335 41668.348862 
L 113.196089 41668.348862 
L 113.809843 41668.348862 
L 114.423598 41668.348862 
L 115.037352 41668.348862 
L 115.651106 41668.348862 
L 116.26486 41668.348862 
L 116.878615 41668.348862 
L 117.492369 41668.348862 
L 118.106123 41668.348862 
L 118.719878 41668.348862 
L 119.333632 41668.348862 
L 119.947386 41668.348862 
L 120.561141 41668.348862 
L 121.174895 41668.348862 
L 121.788649 41668.348862 
L 122.402404 41668.348862 
L 123.016158 41668.348862 
L 123.629912 41668.348862 
L 124.243667 41668.348862 
L 124.857421 41668.348862 
L 125.471175 41668.348862 
L 126.084929 41668.348862 
L 126.698684 41668.348862 
L 127.312438 41668.348862 
L 127.926192 41668.348862 
L 128.539947 41668.348862 
L 129.153701 41668.348862 
L 129.767455 41668.348862 
L 130.38121 41668.348862 
L 130.994964 41668.348862 
L 131.608718 41668.348862 
L 132.222473 41668.348862 
L 132.836227 41668.348862 
L 133.449981 41668.348862 
L 134.063735 41668.348862 
L 134.67749 41668.348862 
L 135.291244 41668.348862 
L 135.904998 41668.348862 
L 136.518753 41668.348862 
L 137.132507 41668.348862 
L 137.746261 41668.348862 
L 138.360016 41668.348862 
L 138.97377 41668.348862 
L 139.587524 41668.348862 
L 140.201279 41668.348862 
L 140.815033 41668.348862 
L 141.428787 41668.348862 
L 142.042542 41668.348862 
L 142.656296 41668.348862 
L 143.27005 41668.348862 
L 143.883804 41668.348862 
L 144.497559 41668.348862 
L 145.111313 41668.348862 
L 145.725067 41668.348862 
L 146.338822 41668.348862 
L 146.952576 41668.348862 
L 147.56633 41668.348862 
L 148.180085 41668.348862 
L 148.793839 41668.348862 
L 149.407593 41668.348862 
L 150.021348 41668.348862 
L 150.635102 41668.348862 
L 151.248856 41668.348862 
L 151.862611 41668.348862 
L 152.476365 41668.348862 
L 153.090119 41668.348862 
L 153.703873 41668.348862 
L 154.317628 41668.348862 
L 154.931382 41668.348862 
L 155.545136 41668.348862 
L 156.158891 41668.348862 
L 156.772645 41668.348862 
L 157.386399 41668.348862 
L 158.000154 41668.348862 
L 158.613908 41668.348862 
L 159.227662 41668.348862 
L 159.841417 41668.348862 
L 160.455171 41668.348862 
L 161.068925 41668.348862 
L 161.682679 41668.348862 
L 162.296434 41668.348862 
L 162.910188 41668.348862 
L 163.523942 41668.348862 
L 164.137697 41668.348862 
L 164.751451 41668.348862 
L 165.365205 41668.348862 
L 165.97896 41668.348862 
L 166.592714 41668.348862 
L 167.206468 41668.348862 
L 167.820223 41668.348862 
L 168.433977 41668.348862 
L 169.047731 41668.348862 
L 169.661486 41668.348862 
L 170.27524 41668.348862 
L 170.888994 41668.348862 
L 171.502748 41668.348862 
L 172.116503 41668.348862 
L 172.730257 41668.348862 
L 173.344011 41668.348862 
L 173.957766 41668.348862 
L 174.57152 41668.348862 
L 175.185274 41668.348862 
L 175.799029 41668.348862 
L 176.412783 41668.348862 
L 177.026537 41668.348862 
L 177.640292 41668.348862 
L 178.254046 41668.348862 
L 178.8678 41668.348862 
L 179.481555 41668.348862 
L 180.095309 41668.348862 
L 180.709063 41668.348862 
L 181.322817 41668.348862 
L 181.936572 41668.348862 
L 182.550326 41668.348862 
L 183.16408 41668.348862 
L 183.777835 41668.348862 
L 184.391589 41668.348862 
L 185.005343 41668.348862 
L 185.619098 41668.348862 
L 186.232852 41668.348862 
L 186.846606 41668.348862 
L 187.460361 41668.348862 
L 188.074115 41668.348862 
L 188.687869 41668.348862 
L 189.301623 41668.348862 
L 189.915378 41668.348862 
L 190.529132 41668.348862 
L 191.142886 41668.348862 
L 191.756641 41668.348862 
L 192.370395 41668.348862 
L 192.984149 41668.348862 
L 193.597904 41668.348862 
L 194.211658 41668.348862 
L 194.825412 41668.348862 
L 195.439167 41668.348862 
L 196.052921 41668.348862 
L 196.666675 41668.348862 
L 197.28043 41668.348862 
L 197.894184 41668.348862 
L 198.507938 41668.348862 
L 199.121692 41668.348862 
L 199.735447 41668.348862 
L 200.349201 41668.348862 
L 200.962955 41668.348862 
L 201.57671 41668.348862 
L 202.190464 41668.348862 
L 202.804218 41668.348862 
L 203.417973 41668.348862 
L 204.031727 41668.348862 
L 204.645481 41668.348862 
L 205.259236 41668.348862 
L 205.87299 41668.348862 
L 206.486744 41668.348862 
L 207.100499 41668.348862 
L 207.714253 41668.348862 
L 208.328007 41668.348862 
L 208.941761 41668.348862 
L 209.555516 41668.348862 
L 210.16927 41668.348862 
L 210.783024 41668.348862 
L 211.396779 41668.348862 
L 212.010533 41668.348862 
L 212.624287 41668.348862 
L 213.238042 41668.348862 
L 213.851796 41668.348862 
L 214.46555 41668.348862 
L 215.079305 41668.348862 
L 215.693059 41668.348862 
L 216.306813 41668.348862 
L 216.920567 41668.348862 
L 217.534322 41668.348862 
L 218.148076 41668.348862 
L 218.76183 41668.348862 
L 219.375585 41668.348862 
L 219.989339 41668.348862 
L 220.603093 41668.348862 
L 221.216848 41668.348862 
L 221.830602 41668.348862 
L 222.444356 41668.348862 
L 223.058111 41668.348862 
L 223.671865 41668.348862 
L 224.285619 41668.348862 
L 224.899374 41668.348862 
L 225.513128 41668.348862 
L 226.126882 41668.348862 
L 226.740636 41668.348862 
L 227.354391 41668.348862 
L 227.968145 41668.348862 
L 228.581899 41668.348862 
L 229.195654 41668.348862 
L 229.809408 41668.348862 
L 230.423162 41668.348862 
L 231.036917 41668.348862 
L 231.650671 41668.348862 
L 232.264425 41668.348862 
L 232.87818 41668.348862 
L 233.491934 41668.348862 
L 234.105688 41668.348862 
L 234.719443 41668.348862 
L 235.333197 41668.348862 
L 235.946951 41668.348862 
L 236.560705 41668.348862 
L 237.17446 41668.348862 
L 237.788214 41668.348862 
L 238.401968 41668.348862 
L 239.015723 41668.348862 
L 239.629477 41668.348862 
L 240.243231 41668.348862 
L 240.856986 41668.348862 
L 241.47074 41668.348862 
L 242.084494 41668.348862 
L 242.698249 41668.348862 
L 243.312003 41668.348862 
L 243.925757 41668.348862 
L 244.539511 41668.348862 
L 245.153266 41668.348862 
L 245.76702 41668.348862 
L 246.380774 41668.348862 
L 246.994529 41668.348862 
L 247.608283 41668.348862 
L 248.222037 41668.348862 
L 248.835792 41668.348862 
L 249.449546 41668.348862 
L 250.0633 41668.348862 
L 250.677055 41668.348862 
L 251.290809 41668.348862 
L 251.904563 41668.348862 
L 252.518318 41668.348862 
L 253.132072 41668.348862 
L 253.745826 41668.348862 
L 254.35958 41668.348862 
L 254.973335 41668.348862 
L 255.587089 41668.348862 
L 256.200843 41668.348862 
L 256.814598 41668.348862 
L 257.428352 41668.348862 
L 258.042106 41668.348862 
L 258.655861 41668.348862 
L 259.269615 41668.348862 
L 259.883369 41668.348862 
L 260.497124 41668.348862 
L 261.110878 41668.348862 
L 261.724632 41668.348862 
L 262.338387 41668.348862 
L 262.952141 41668.348862 
L 263.565895 41668.348862 
L 264.179649 41668.348862 
L 264.793404 41668.348862 
L 265.407158 41668.348862 
L 266.020912 41668.348862 
L 266.634667 41668.348862 
L 267.248421 41668.348862 
L 267.862175 41668.348862 
L 268.47593 41668.348862 
L 269.089684 41668.348862 
L 269.703438 41668.348862 
L 270.317193 41668.348862 
L 270.930947 41668.348862 
L 271.544701 41668.348862 
L 272.158455 41668.348862 
L 272.77221 41668.348862 
L 273.385964 41668.348862 
L 273.999718 41668.348862 
L 274.613473 41668.348862 
L 275.227227 41668.348862 
L 275.840981 41668.348862 
L 276.454736 41668.348862 
L 277.06849 41668.348862 
L 277.682244 41668.348862 
L 278.295999 41668.348862 
L 278.909753 41668.348862 
L 279.523507 41668.348862 
L 280.137262 41668.348862 
L 280.751016 41668.348862 
L 281.36477 41668.348862 
L 281.978524 41668.348862 
L 282.592279 41668.348862 
L 283.206033 41668.348862 
L 283.819787 41668.348862 
L 284.433542 41668.348862 
L 285.047296 41668.348862 
L 285.66105 41668.348862 
L 286.274805 41668.348862 
L 286.888559 41668.348862 
L 287.502313 41668.348862 
L 288.116068 41668.348862 
L 288.729822 41668.348862 
L 289.343576 41668.348862 
L 289.957331 41668.348862 
L 290.571085 41668.348862 
L 291.184839 41668.348862 
L 291.798593 41668.348862 
L 292.412348 41668.348862 
L 293.026102 41668.348862 
L 293.639856 41668.348862 
L 294.253611 41668.348862 
L 294.867365 41668.348862 
L 295.481119 41668.348862 
L 296.094874 41668.348862 
L 296.708628 41668.348862 
L 297.322382 41668.348862 
L 297.936137 41668.348862 
L 298.549891 41668.348862 
L 299.163645 41668.348862 
L 299.777399 41668.348862 
L 300.391154 41668.348862 
L 301.004908 41668.348862 
L 301.618662 41668.348862 
L 302.232417 41668.348862 
L 302.846171 41668.348862 
L 303.459925 41668.348862 
L 304.07368 41668.348862 
L 304.687434 41668.348862 
L 305.301188 41668.348862 
L 305.914943 41668.348862 
L 306.528697 41668.348862 
L 307.142451 41668.348862 
L 307.756206 41668.348862 
L 308.36996 41668.348862 
L 308.983714 41668.348862 
L 309.597468 41668.348862 
L 310.211223 41668.348862 
L 310.824977 41668.348862 
L 311.438731 41668.348862 
L 312.052486 41668.348862 
L 312.66624 41668.348862 
L 313.279994 41668.348862 
L 313.893749 41668.348862 
L 314.507503 41668.348862 
L 315.121257 41668.348862 
L 315.735012 41668.348862 
L 316.348766 41668.348862 
L 316.96252 41668.348862 
L 317.576275 41668.348862 
L 318.190029 41668.348862 
L 318.803783 41668.348862 
L 319.417537 41668.348862 
L 320.031292 41668.348862 
L 320.645046 41668.348862 
L 321.2588 41668.348862 
L 321.872555 41668.348862 
L 322.486309 41668.348862 
L 323.100063 41668.348862 
L 323.713818 41668.348862 
L 324.327572 41668.348862 
L 324.941326 41668.348862 
L 325.555081 41668.348862 
L 326.168835 41668.348862 
L 326.782589 41668.348862 
L 327.396343 41668.348862 
L 328.010098 41668.348862 
L 328.623852 41668.348862 
L 329.237606 41668.348862 
L 329.851361 41668.348862 
L 330.465115 41668.348862 
L 331.078869 41668.348862 
L 331.692624 41668.348862 
L 332.306378 41668.348862 
L 332.920132 41668.348862 
L 333.533887 41668.348862 
L 334.147641 41668.348862 
L 334.761395 41668.348862 
L 335.37515 41668.348862 
L 335.988904 41668.348862 
L 336.602658 41668.348862 
L 337.216412 41668.348862 
L 337.830167 41668.348862 
L 338.443921 41668.348862 
L 339.057675 41668.348862 
L 339.67143 41668.348862 
L 340.285184 41668.348862 
L 340.898938 41668.348862 
L 341.512693 41668.348862 
L 342.126447 41668.348862 
L 342.740201 41668.348862 
L 343.353956 41668.348862 
L 343.96771 41668.348862 
L 344.581464 41668.348862 
L 345.195219 41668.348862 
L 345.808973 41668.348862 
L 346.422727 41668.348862 
L 347.036481 41668.348862 
L 347.650236 41668.348862 
L 348.26399 41668.348862 
L 348.877744 41668.348862 
L 349.491499 41668.348862 
L 350.105253 41668.348862 
L 350.719007 41668.348862 
L 351.332762 41668.348862 
L 351.946516 41668.348862 
L 352.56027 41668.348862 
L 353.174025 41668.348862 
L 353.787779 41668.348862 
L 354.401533 41668.348862 
L 355.015287 41668.348862 
L 355.629042 41668.348862 
L 356.242796 41668.348862 
L 356.85655 41668.348862 
L 357.470305 41668.348862 
L 358.084059 41668.348862 
L 358.697813 41668.348862 
L 359.311568 41668.348862 
L 359.925322 41668.348862 
L 360.539076 41668.348862 
L 361.152831 41668.348862 
L 361.766585 41668.348862 
L 362.380339 41668.348862 
L 362.994094 41668.348862 
L 363.607848 41668.348862 
L 364.221602 41668.348862 
L 364.835356 41668.348862 
L 365.449111 41668.348862 
L 366.062865 41668.348862 
L 366.676619 41668.348862 
L 367.290374 41668.348862 
L 367.904128 41668.348862 
L 368.517882 41668.348862 
L 369.131637 41668.348862 
L 369.745391 41668.348862 
L 370.359145 41668.348862 
L 370.9729 41668.348862 
L 371.586654 41668.348862 
L 372.200408 41668.348862 
L 372.814163 41668.348862 
L 372.814163 218.874239 
L 372.814163 218.874239 
L 372.200408 130.07964 
L 371.586654 90.420399 
L 370.9729 81.682429 
L 370.359145 87.581119 
L 369.745391 87.275044 
L 369.131637 88.036206 
L 368.517882 86.748694 
L 367.904128 88.954453 
L 367.290374 89.584268 
L 366.676619 90.927432 
L 366.062865 92.986615 
L 365.449111 92.973488 
L 364.835356 90.157929 
L 364.221602 89.298584 
L 363.607848 95.318345 
L 362.994094 93.745035 
L 362.380339 92.221771 
L 361.766585 87.746548 
L 361.152831 89.245155 
L 360.539076 93.440657 
L 359.925322 93.912002 
L 359.311568 87.861644 
L 358.697813 85.345107 
L 358.084059 86.479526 
L 357.470305 90.998867 
L 356.85655 89.910142 
L 356.242796 95.858533 
L 355.629042 97.429847 
L 355.015287 95.04998 
L 354.401533 88.525175 
L 353.787779 88.769042 
L 353.174025 83.802244 
L 352.56027 84.621218 
L 351.946516 87.30707 
L 351.332762 90.723607 
L 350.719007 92.624019 
L 350.105253 94.678657 
L 349.491499 92.737208 
L 348.877744 89.180298 
L 348.26399 85.214153 
L 347.650236 84.071006 
L 347.036481 84.794081 
L 346.422727 88.799097 
L 345.808973 90.523398 
L 345.195219 94.049114 
L 344.581464 94.665345 
L 343.96771 91.133804 
L 343.353956 86.962856 
L 342.740201 89.131914 
L 342.126447 84.522543 
L 341.512693 82.376687 
L 340.898938 83.351819 
L 340.285184 86.252638 
L 339.67143 91.093749 
L 339.057675 95.190774 
L 338.443921 97.115762 
L 337.830167 96.618074 
L 337.216412 95.30811 
L 336.602658 88.041068 
L 335.988904 83.737526 
L 335.37515 83.148512 
L 334.761395 83.021027 
L 334.147641 82.605359 
L 333.533887 81.089004 
L 332.920132 84.730112 
L 332.306378 87.686041 
L 331.692624 91.479002 
L 331.078869 98.320067 
L 330.465115 96.524718 
L 329.851361 92.589095 
L 329.237606 91.212739 
L 328.623852 91.200061 
L 328.010098 87.08571 
L 327.396343 83.195333 
L 326.782589 81.868284 
L 326.168835 83.154762 
L 325.555081 83.509061 
L 324.941326 83.971583 
L 324.327572 82.652137 
L 323.713818 83.035297 
L 323.100063 88.780597 
L 322.486309 98.146823 
L 321.872555 100.976126 
L 321.2588 97.581014 
L 320.645046 96.804063 
L 320.031292 91.848583 
L 319.417537 90.318145 
L 318.803783 83.945337 
L 318.190029 82.579899 
L 317.576275 83.377303 
L 316.96252 82.016121 
L 316.348766 82.958539 
L 315.735012 84.048239 
L 315.121257 84.376255 
L 314.507503 83.227395 
L 313.893749 83.431911 
L 313.279994 86.628432 
L 312.66624 93.777018 
L 312.052486 97.130622 
L 311.438731 98.08391 
L 310.824977 101.423451 
L 310.211223 94.578565 
L 309.597468 88.66986 
L 308.983714 86.658074 
L 308.36996 84.790283 
L 307.756206 82.122525 
L 307.142451 83.66994 
L 306.528697 83.153307 
L 305.914943 79.788594 
L 305.301188 81.895779 
L 304.687434 83.975082 
L 304.07368 81.605005 
L 303.459925 82.882304 
L 302.846171 82.198854 
L 302.232417 83.800233 
L 301.618662 92.519218 
L 301.004908 96.438644 
L 300.391154 99.077304 
L 299.777399 100.473482 
L 299.163645 100.243831 
L 298.549891 94.881155 
L 297.936137 86.804935 
L 297.322382 83.565373 
L 296.708628 82.00789 
L 296.094874 81.829143 
L 295.481119 83.353069 
L 294.867365 81.630768 
L 294.253611 84.717622 
L 293.639856 83.655372 
L 293.026102 81.95913 
L 292.412348 83.286258 
L 291.798593 83.270064 
L 291.184839 82.807294 
L 290.571085 84.913559 
L 289.957331 90.195927 
L 289.343576 98.922527 
L 288.729822 99.951356 
L 288.116068 99.147741 
L 287.502313 97.694177 
L 286.888559 92.049978 
L 286.274805 85.005833 
L 285.66105 83.000136 
L 285.047296 79.839145 
L 284.433542 81.593166 
L 283.819787 83.314346 
L 283.206033 81.38574 
L 282.592279 82.835445 
L 281.978524 80.768556 
L 281.36477 83.380906 
L 280.751016 83.097395 
L 280.137262 81.868258 
L 279.523507 80.28019 
L 278.909753 79.973977 
L 278.295999 85.27245 
L 277.682244 93.82113 
L 277.06849 96.697467 
L 276.454736 98.937857 
L 275.840981 101.738803 
L 275.227227 102.052354 
L 274.613473 98.027439 
L 273.999718 90.670345 
L 273.385964 82.974661 
L 272.77221 83.464287 
L 272.158455 85.312819 
L 271.544701 83.713861 
L 270.930947 81.392623 
L 270.317193 79.848466 
L 269.703438 79.3892 
L 269.089684 81.12629 
L 268.47593 82.080504 
L 267.862175 82.033665 
L 267.248421 81.690368 
L 266.634667 81.219032 
L 266.020912 80.504233 
L 265.407158 88.545923 
L 264.793404 95.906978 
L 264.179649 98.929054 
L 263.565895 102.897799 
L 262.952141 101.667229 
L 262.338387 100.497317 
L 261.724632 94.24032 
L 261.110878 86.926203 
L 260.497124 82.14723 
L 259.883369 82.454553 
L 259.269615 82.139813 
L 258.655861 81.880606 
L 258.042106 81.755664 
L 257.428352 80.746791 
L 256.814598 80.497104 
L 256.200843 83.369923 
L 255.587089 84.003323 
L 254.973335 79.963649 
L 254.35958 79.949978 
L 253.745826 80.353897 
L 253.132072 85.487377 
L 252.518318 99.753252 
L 251.904563 105.148077 
L 251.290809 113.088099 
L 250.677055 108.799157 
L 250.0633 102.483024 
L 249.449546 90.657182 
L 248.835792 85.298542 
L 248.222037 83.161149 
L 247.608283 81.265511 
L 246.994529 80.98391 
L 246.380774 81.388316 
L 245.76702 81.108883 
L 245.153266 83.054899 
L 244.539511 81.896307 
L 243.925757 80.248819 
L 243.312003 79.406209 
L 242.698249 81.018592 
L 242.084494 79.943267 
L 241.47074 80.009906 
L 240.856986 81.565186 
L 240.243231 88.649474 
L 239.629477 100.792652 
L 239.015723 107.132511 
L 238.401968 114.789209 
L 237.788214 117.511835 
L 237.17446 102.273651 
L 236.560705 89.150531 
L 235.946951 84.366312 
L 235.333197 81.450765 
L 234.719443 80.975177 
L 234.105688 80.919547 
L 233.491934 81.964931 
L 232.87818 81.844395 
L 232.264425 82.672038 
L 231.650671 81.847432 
L 231.036917 80.338189 
L 230.423162 81.097498 
L 229.809408 79.786941 
L 229.195654 82.171252 
L 228.581899 83.649968 
L 227.968145 88.547992 
L 227.354391 104.801074 
L 226.740636 118.275802 
L 226.126882 118.28346 
L 225.513128 115.482378 
L 224.899374 100.036449 
L 224.285619 83.874056 
L 223.671865 81.016197 
L 223.058111 81.021629 
L 222.444356 83.106899 
L 221.830602 82.532758 
L 221.216848 79.86655 
L 220.603093 80.533898 
L 219.989339 80.193115 
L 219.375585 82.725147 
L 218.76183 82.689033 
L 218.148076 80.47307 
L 217.534322 78.641483 
L 216.920567 79.183047 
L 216.306813 83.87265 
L 215.693059 102.064066 
L 215.079305 116.977514 
L 214.46555 124.505682 
L 213.851796 117.916167 
L 213.238042 114.007135 
L 212.624287 95.81747 
L 212.010533 85.552235 
L 211.396779 81.327307 
L 210.783024 81.737977 
L 210.16927 81.891496 
L 209.555516 82.76507 
L 208.941761 81.41596 
L 208.328007 81.893233 
L 207.714253 81.847673 
L 207.100499 81.741696 
L 206.486744 81.590006 
L 205.87299 79.194929 
L 205.259236 78.72341 
L 204.645481 79.785157 
L 204.031727 88.955835 
L 203.417973 109.676967 
L 202.804218 118.587211 
L 202.190464 125.110484 
L 201.57671 124.602198 
L 200.962955 122.184283 
L 200.349201 97.924401 
L 199.735447 84.540982 
L 199.121692 84.299017 
L 198.507938 82.298152 
L 197.894184 79.72202 
L 197.28043 80.620752 
L 196.666675 81.574659 
L 196.052921 79.433146 
L 195.439167 81.095894 
L 194.825412 83.805272 
L 194.211658 82.698019 
L 193.597904 80.835099 
L 192.984149 79.105263 
L 192.370395 79.108684 
L 191.756641 82.039023 
L 191.142886 95.224825 
L 190.529132 131.636378 
L 189.915378 144.994579 
L 189.301623 133.863553 
L 188.687869 136.867885 
L 188.074115 130.817147 
L 187.460361 105.800338 
L 186.846606 84.979354 
L 186.232852 81.849338 
L 185.619098 83.304763 
L 185.005343 82.722274 
L 184.391589 79.790942 
L 183.777835 80.886862 
L 183.16408 81.573641 
L 182.550326 80.935918 
L 181.936572 79.465671 
L 181.322817 79.939676 
L 180.709063 81.463943 
L 180.095309 79.827777 
L 179.481555 81.15692 
L 178.8678 81.491049 
L 178.254046 85.41127 
L 177.640292 103.319842 
L 177.026537 130.310564 
L 176.412783 136.56999 
L 175.799029 145.918398 
L 175.185274 135.497607 
L 174.57152 137.178313 
L 173.957766 123.091127 
L 173.344011 96.021995 
L 172.730257 81.394146 
L 172.116503 83.231318 
L 171.502748 82.149382 
L 170.888994 79.297142 
L 170.27524 79.471455 
L 169.661486 79.891119 
L 169.047731 81.556648 
L 168.433977 81.796718 
L 167.820223 81.436285 
L 167.206468 81.428675 
L 166.592714 81.00002 
L 165.97896 79.463524 
L 165.365205 79.206575 
L 164.751451 80.96865 
L 164.137697 84.9467 
L 163.523942 102.231853 
L 162.910188 128.680175 
L 162.296434 138.846137 
L 161.682679 142.842886 
L 161.068925 152.962561 
L 160.455171 192.684887 
L 159.841417 157.775969 
L 159.227662 117.850174 
L 158.613908 91.82357 
L 158.000154 81.985331 
L 157.386399 81.744712 
L 156.772645 81.093205 
L 156.158891 80.517181 
L 155.545136 80.203699 
L 154.931382 78.976363 
L 154.317628 79.709553 
L 153.703873 79.852173 
L 153.090119 80.961763 
L 152.476365 80.930289 
L 151.862611 79.712588 
L 151.248856 80.150818 
L 150.635102 85.974113 
L 150.021348 106.574823 
L 149.407593 138.788987 
L 148.793839 157.61124 
L 148.180085 183.757783 
L 147.56633 228.621063 
L 146.952576 171.538551 
L 146.338822 159.624156 
L 145.725067 138.919333 
L 145.111313 117.991124 
L 144.497559 92.15531 
L 143.883804 84.32736 
L 143.27005 81.483813 
L 142.656296 78.666157 
L 142.042542 76.525139 
L 141.428787 78.42626 
L 140.815033 80.50068 
L 140.201279 80.415419 
L 139.587524 78.104236 
L 138.97377 80.317197 
L 138.360016 81.958098 
L 137.746261 80.061886 
L 137.132507 79.698928 
L 136.518753 87.728374 
L 135.904998 115.585432 
L 135.291244 137.174088 
L 134.67749 150.82367 
L 134.063735 164.962616 
L 133.449981 170.481768 
L 132.836227 226.184195 
L 132.222473 193.501314 
L 131.608718 153.092083 
L 130.994964 141.097582 
L 130.38121 113.093322 
L 129.767455 87.644326 
L 129.153701 80.786603 
L 128.539947 81.26878 
L 127.926192 79.035449 
L 127.312438 77.464868 
L 126.698684 80.142967 
L 126.084929 79.389988 
L 125.471175 78.558825 
L 124.857421 79.884488 
L 124.243667 79.237719 
L 123.629912 77.941527 
L 123.016158 78.477555 
L 122.402404 80.016254 
L 121.788649 85.902141 
L 121.174895 104.097666 
L 120.561141 143.968527 
L 119.947386 168.384223 
L 119.333632 185.928166 
L 118.719878 168.821576 
L 118.106123 191.965863 
L 117.492369 161.352526 
L 116.878615 153.743832 
L 116.26486 167.151208 
L 115.651106 181.444389 
L 115.037352 241.358609 
L 114.423598 169.366185 
L 113.809843 127.158807 
L 113.196089 104.494232 
L 112.582335 94.623271 
L 111.96858 81.876704 
L 111.354826 78.919501 
L 110.741072 77.810807 
L 110.127317 76.952845 
L 109.513563 75.712121 
L 108.899809 77.160161 
L 108.286054 76.809448 
L 107.6723 77.199269 
L 107.058546 79.357969 
L 106.444791 77.85316 
L 105.831037 77.334361 
L 105.217283 76.91773 
L 104.603529 80.866795 
L 103.989774 88.756797 
L 103.37602 101.309145 
L 102.762266 118.277812 
L 102.148511 159.221612 
L 101.534757 176.415058 
L 100.921003 175.099144 
L 100.307248 241.341966 
L 99.693494 375.436424 
L 99.07974 577.382576 
L 98.465985 847.180422 
L 97.852231 1184.829961 
L 97.238477 1367.762859 
L 96.624723 997.349875 
L 96.010968 694.46894 
L 95.397214 458.966855 
L 94.78346 290.607582 
L 94.169705 188.733885 
L 93.555951 148.371212 
L 92.942197 128.689461 
L 92.328442 104.323246 
L 91.714688 96.324492 
L 91.100934 97.580884 
L 90.487179 82.571459 
L 89.873425 75.198859 
L 89.259671 74.247272 
L 88.645916 74.110728 
L 88.032162 74.836867 
L 87.418408 75.69129 
L 86.804654 73.324127 
L 86.190899 73.625084 
L 85.577145 75.821269 
L 84.963391 82.700883 
L 84.349636 94.916669 
L 83.735882 97.257848 
L 83.122128 105.082917 
L 82.508373 122.990716 
L 81.894619 174.582412 
L 81.280865 281.469844 
L 80.66711 220.106164 
L 80.053356 169.462637 
L 79.439602 186.670759 
L 78.825847 271.730576 
L 78.212093 424.642085 
L 77.598339 645.405289 
L 76.984585 934.020186 
L 76.37083 1068.521063 
L 75.757076 752.742512 
L 75.143322 504.765021 
L 74.529567 324.351817 
L 73.915813 210.05937 
L 73.302059 154.644216 
L 72.688304 143.381995 
L 72.07455 129.743448 
L 71.460796 99.462537 
L 70.847041 95.803287 
L 70.233287 77.446374 
L 69.619533 63.40331 
L 69.005779 71.838948 
L 68.392024 90.406332 
L 67.77827 105.301243 
L 67.164516 144.800429 
L 66.550761 233.691384 
z
" clip-path="url(#pa60fc8c28c)" style="fill: #4c72b0; fill-opacity: 0.25; stroke: #4c72b0; stroke-width: 0.3"/>
   </g>
   <g id="patch_3">
    <path d="M 52.282462 171.508862 
L 52.282462 5.188862 
" style="fill: none"/>
   </g>
   <g id="patch_4">
    <path d="M 387.082462 171.508862 
L 387.082462 5.188862 
" style="fill: none"/>
   </g>
   <g id="patch_5">
    <path d="M 52.282462 171.508862 
L 387.082462 171.508862 
" style="fill: none"/>
   </g>
   <g id="patch_6">
    <path d="M 52.282462 5.188862 
L 387.082462 5.188862 
" style="fill: none"/>
   </g>
   <g id="text_14">
    <!-- 0 -->
    <g transform="translate(69.616853 63.204567) scale(0.1 -0.1)">
     <use xlink:href="#CMR17-30" transform="scale(0.996264)"/>
    </g>
   </g>
   <g id="text_15">
    <!-- 1 -->
    <g transform="translate(87.714245 65.191636) scale(0.1 -0.1)">
     <use xlink:href="#CMR17-31" transform="scale(0.996264)"/>
    </g>
   </g>
   <g id="text_16">
    <!-- 2 -->
    <g transform="translate(108.202239 66.153377) scale(0.1 -0.1)">
     <use xlink:href="#CMR17-32" transform="scale(0.996264)"/>
    </g>
   </g>
   <g id="text_17">
    <!-- 3 -->
    <g transform="translate(125.681701 67.142114) scale(0.1 -0.1)">
     <defs>
      <path id="CMR17-33" d="M 1414 2157 
C 1984 2157 2234 1662 2234 1090 
C 2234 320 1824 25 1453 25 
C 1114 25 563 194 390 693 
C 422 680 454 680 486 680 
C 640 680 755 782 755 948 
C 755 1133 614 1216 486 1216 
C 378 1216 211 1165 211 926 
C 211 335 787 -128 1466 -128 
C 2176 -128 2720 430 2720 1085 
C 2720 1707 2208 2157 1600 2227 
C 2086 2328 2554 2756 2554 3329 
C 2554 3820 2048 4179 1472 4179 
C 890 4179 378 3829 378 3329 
C 378 3110 544 3072 627 3072 
C 762 3072 877 3155 877 3321 
C 877 3486 762 3569 627 3569 
C 602 3569 570 3569 544 3557 
C 730 3959 1235 4032 1459 4032 
C 1683 4032 2106 3925 2106 3320 
C 2106 3143 2080 2828 1862 2550 
C 1670 2304 1453 2304 1242 2284 
C 1210 2284 1062 2269 1037 2269 
C 992 2263 966 2257 966 2208 
C 966 2163 973 2157 1101 2157 
L 1414 2157 
z
" transform="scale(0.015625)"/>
     </defs>
     <use xlink:href="#CMR17-33" transform="scale(0.996264)"/>
    </g>
   </g>
   <g id="text_18">
    <!-- 4 -->
    <g transform="translate(140.432462 67.43613) scale(0.1 -0.1)">
     <use xlink:href="#CMR17-34" transform="scale(0.996264)"/>
    </g>
   </g>
   <g id="text_19">
    <!-- 5 -->
    <g transform="translate(154.470131 67.879735) scale(0.1 -0.1)">
     <defs>
      <path id="CMR17-35" d="M 730 3692 
C 794 3666 1056 3584 1325 3584 
C 1920 3584 2246 3911 2432 4100 
C 2432 4157 2432 4192 2394 4192 
C 2387 4192 2374 4192 2323 4163 
C 2099 4058 1837 3973 1517 3973 
C 1325 3973 1037 3999 723 4139 
C 653 4171 640 4171 634 4171 
C 602 4171 595 4164 595 4037 
L 595 2203 
C 595 2089 595 2057 659 2057 
C 691 2057 704 2070 736 2114 
C 941 2401 1222 2522 1542 2522 
C 1766 2522 2246 2382 2246 1289 
C 2246 1085 2246 715 2054 421 
C 1894 159 1645 25 1370 25 
C 947 25 518 320 403 814 
C 429 807 480 795 506 795 
C 589 795 749 840 749 1038 
C 749 1210 627 1280 506 1280 
C 358 1280 262 1190 262 1011 
C 262 454 704 -128 1382 -128 
C 2042 -128 2669 440 2669 1264 
C 2669 2030 2170 2624 1549 2624 
C 1222 2624 947 2503 730 2274 
L 730 3692 
z
" transform="scale(0.015625)"/>
     </defs>
     <use xlink:href="#CMR17-35" transform="scale(0.996264)"/>
    </g>
   </g>
   <g id="text_20">
    <!-- 6 -->
    <g transform="translate(168.495681 68.358724) scale(0.1 -0.1)">
     <use xlink:href="#CMR17-36" transform="scale(0.996264)"/>
    </g>
   </g>
   <g id="text_21">
    <!-- 7 -->
    <g transform="translate(182.485444 68.524529) scale(0.1 -0.1)">
     <defs>
      <path id="CMR17-37" d="M 2886 3941 
L 2886 4081 
L 1382 4081 
C 634 4081 621 4165 595 4288 
L 480 4288 
L 294 3094 
L 410 3094 
C 429 3215 474 3540 550 3661 
C 589 3712 1062 3712 1171 3712 
L 2579 3712 
L 1869 2661 
C 1395 1954 1069 999 1069 165 
C 1069 89 1069 -128 1299 -128 
C 1530 -128 1530 89 1530 171 
L 1530 465 
C 1530 1508 1709 2196 2003 2636 
L 2886 3941 
z
" transform="scale(0.015625)"/>
     </defs>
     <use xlink:href="#CMR17-37" transform="scale(0.996264)"/>
    </g>
   </g>
   <g id="text_22">
    <!-- 8 -->
    <g transform="translate(195.639502 68.837705) scale(0.1 -0.1)">
     <use xlink:href="#CMR17-38" transform="scale(0.996264)"/>
    </g>
   </g>
   <g id="text_23">
    <!-- 9 -->
    <g transform="translate(208.049849 69.24989) scale(0.1 -0.1)">
     <defs>
      <path id="CMR17-39" d="M 2253 1864 
C 2253 464 1670 31 1190 31 
C 1043 31 685 31 538 294 
C 704 268 826 357 826 518 
C 826 692 685 749 595 749 
C 538 749 365 723 365 506 
C 365 71 742 -128 1203 -128 
C 1939 -128 2688 674 2688 2073 
C 2688 3817 1971 4179 1485 4179 
C 851 4179 243 3628 243 2778 
C 243 1991 762 1408 1414 1408 
C 1952 1408 2189 1903 2253 2112 
L 2253 1864 
z
M 1427 1510 
C 1254 1510 1011 1542 813 1922 
C 678 2169 678 2461 678 2771 
C 678 3146 678 3405 858 3684 
C 947 3817 1114 4032 1485 4032 
C 2240 4032 2240 2885 2240 2632 
C 2240 2182 2035 1510 1427 1510 
z
" transform="scale(0.015625)"/>
     </defs>
     <use xlink:href="#CMR17-39" transform="scale(0.996264)"/>
    </g>
   </g>
   <g id="text_24">
    <!-- 10 -->
    <g transform="translate(220.221009 69.208429) scale(0.1 -0.1)">
     <use xlink:href="#CMR17-31" transform="scale(0.996264)"/>
     <use xlink:href="#CMR17-30" transform="translate(45.690477 0) scale(0.996264)"/>
    </g>
   </g>
   <g id="text_25">
    <!-- 11 -->
    <g transform="translate(232.224011 69.647995) scale(0.1 -0.1)">
     <use xlink:href="#CMR17-31" transform="scale(0.996264)"/>
     <use xlink:href="#CMR17-31" transform="translate(45.690477 0) scale(0.996264)"/>
    </g>
   </g>
   <g id="text_26">
    <!-- 12 -->
    <g transform="translate(244.61621 69.5447) scale(0.1 -0.1)">
     <use xlink:href="#CMR17-31" transform="scale(0.996264)"/>
     <use xlink:href="#CMR17-32" transform="translate(45.690477 0) scale(0.996264)"/>
    </g>
   </g>
   <g id="text_27">
    <!-- 13 -->
    <g transform="translate(257.129507 70.191309) scale(0.1 -0.1)">
     <use xlink:href="#CMR17-31" transform="scale(0.996264)"/>
     <use xlink:href="#CMR17-33" transform="translate(45.690477 0) scale(0.996264)"/>
    </g>
   </g>
   <g id="text_28">
    <!-- 14 -->
    <g transform="translate(269.438436 70.353312) scale(0.1 -0.1)">
     <use xlink:href="#CMR17-31" transform="scale(0.996264)"/>
     <use xlink:href="#CMR17-34" transform="translate(45.690477 0) scale(0.996264)"/>
    </g>
   </g>
   <g id="text_29">
    <!-- 15 -->
    <g transform="translate(282.21016 70.599048) scale(0.1 -0.1)">
     <use xlink:href="#CMR17-31" transform="scale(0.996264)"/>
     <use xlink:href="#CMR17-35" transform="translate(45.690477 0) scale(0.996264)"/>
    </g>
   </g>
   <g id="text_30">
    <!-- 16 -->
    <g transform="translate(294.186731 71.372369) scale(0.1 -0.1)">
     <use xlink:href="#CMR17-31" transform="scale(0.996264)"/>
     <use xlink:href="#CMR17-36" transform="translate(45.690477 0) scale(0.996264)"/>
    </g>
   </g>
   <g id="text_31">
    <!-- 17 -->
    <g transform="translate(305.603573 71.071875) scale(0.1 -0.1)">
     <use xlink:href="#CMR17-31" transform="scale(0.996264)"/>
     <use xlink:href="#CMR17-37" transform="translate(45.690477 0) scale(0.996264)"/>
    </g>
   </g>
   <g id="text_32">
    <!-- 18 -->
    <g transform="translate(316.326458 71.831681) scale(0.1 -0.1)">
     <use xlink:href="#CMR17-31" transform="scale(0.996264)"/>
     <use xlink:href="#CMR17-38" transform="translate(45.690477 0) scale(0.996264)"/>
    </g>
   </g>
   <g id="text_33">
    <!-- 19 -->
    <g transform="translate(325.974802 72.015985) scale(0.1 -0.1)">
     <use xlink:href="#CMR17-31" transform="scale(0.996264)"/>
     <use xlink:href="#CMR17-39" transform="translate(45.690477 0) scale(0.996264)"/>
    </g>
   </g>
   <g id="text_34">
    <!-- 20 -->
    <g transform="translate(334.343915 72.030047) scale(0.1 -0.1)">
     <use xlink:href="#CMR17-32" transform="scale(0.996264)"/>
     <use xlink:href="#CMR17-30" transform="translate(45.690477 0) scale(0.996264)"/>
    </g>
   </g>
   <g id="text_35">
    <!-- 21 -->
    <g transform="translate(341.58487 73.181394) scale(0.1 -0.1)">
     <use xlink:href="#CMR17-32" transform="scale(0.996264)"/>
     <use xlink:href="#CMR17-31" transform="translate(45.690477 0) scale(0.996264)"/>
    </g>
   </g>
   <g id="text_36">
    <!-- 22 -->
    <g transform="translate(347.478504 74.090557) scale(0.1 -0.1)">
     <use xlink:href="#CMR17-32" transform="scale(0.996264)"/>
     <use xlink:href="#CMR17-32" transform="translate(45.690477 0) scale(0.996264)"/>
    </g>
   </g>
   <g id="text_37">
    <!-- 23 -->
    <g transform="translate(352.886402 74.214997) scale(0.1 -0.1)">
     <use xlink:href="#CMR17-32" transform="scale(0.996264)"/>
     <use xlink:href="#CMR17-33" transform="translate(45.690477 0) scale(0.996264)"/>
    </g>
   </g>
   <g id="text_38">
    <!-- 24 -->
    <g transform="translate(358.783211 75.241154) scale(0.1 -0.1)">
     <use xlink:href="#CMR17-32" transform="scale(0.996264)"/>
     <use xlink:href="#CMR17-34" transform="translate(45.690477 0) scale(0.996264)"/>
    </g>
   </g>
   <g id="text_39">
    <!-- 25 -->
    <g transform="translate(364.305409 76.971053) scale(0.1 -0.1)">
     <use xlink:href="#CMR17-32" transform="scale(0.996264)"/>
     <use xlink:href="#CMR17-35" transform="translate(45.690477 0) scale(0.996264)"/>
    </g>
   </g>
   <g id="text_40">
    <!-- 26+ -->
    <g transform="translate(369.462973 74.471007) scale(0.1 -0.1)">
     <defs>
      <path id="CMR17-2b" d="M 2413 1472 
L 4109 1472 
C 4198 1472 4307 1472 4307 1580 
C 4307 1695 4205 1695 4109 1695 
L 2413 1695 
L 2413 3386 
C 2413 3475 2413 3584 2304 3584 
C 2189 3584 2189 3482 2189 3386 
L 2189 1695 
L 493 1695 
C 403 1695 294 1695 294 1587 
C 294 1472 397 1472 493 1472 
L 2189 1472 
L 2189 -218 
C 2189 -307 2189 -416 2298 -416 
C 2413 -416 2413 -314 2413 -218 
L 2413 1472 
z
" transform="scale(0.015625)"/>
     </defs>
     <use xlink:href="#CMR17-32" transform="scale(0.996264)"/>
     <use xlink:href="#CMR17-36" transform="translate(45.690477 0) scale(0.996264)"/>
     <use xlink:href="#CMR17-2b" transform="translate(91.380954 0) scale(0.996264)"/>
    </g>
   </g>
   <g id="text_41">
    <!-- tSNE 1D -->
    <g style="fill: #262626" transform="translate(297.01118 22.007411) scale(0.15 -0.15)">
     <defs>
      <path id="CMR17-53" d="M 2803 4290 
C 2803 4404 2797 4411 2758 4411 
C 2720 4411 2707 4385 2682 4328 
L 2490 3907 
C 2246 4257 1875 4416 1472 4416 
C 819 4416 294 3901 294 3253 
C 294 3056 339 2776 557 2510 
C 794 2218 1018 2167 1530 2033 
C 1722 1982 2042 1899 2106 1874 
C 2470 1722 2662 1341 2662 985 
C 2662 527 2336 38 1779 38 
C 1094 38 454 419 410 1311 
C 403 1413 397 1419 352 1419 
C 301 1419 294 1413 294 1285 
L 294 -1 
C 294 -115 301 -122 339 -122 
C 384 -122 397 -90 486 108 
C 493 127 493 140 614 381 
C 934 -39 1472 -128 1779 -128 
C 2477 -128 2970 451 2970 1124 
C 2970 1454 2848 1708 2778 1823 
C 2509 2230 2221 2306 1914 2382 
C 1869 2402 1856 2402 1498 2490 
C 1152 2579 1005 2624 845 2796 
C 666 2992 602 3196 602 3399 
C 602 3812 934 4263 1478 4263 
C 2157 4263 2579 3786 2675 2993 
C 2694 2878 2701 2872 2746 2872 
C 2803 2872 2803 2891 2803 2999 
L 2803 4290 
z
" transform="scale(0.015625)"/>
      <path id="CMR17-4e" d="M 1312 4250 
C 1267 4320 1261 4320 1139 4320 
L 326 4320 
L 326 4160 
L 448 4160 
C 704 4160 819 4129 838 4122 
L 838 610 
C 838 451 838 153 326 153 
L 326 -13 
C 474 0 742 0 902 0 
C 1062 0 1331 0 1478 -13 
L 1478 153 
C 966 153 966 451 966 610 
L 966 4033 
C 1011 3995 1011 3982 1056 3919 
L 3430 76 
C 3475 0 3494 0 3526 0 
C 3590 0 3590 19 3590 139 
L 3590 3705 
C 3590 3863 3590 4160 4102 4160 
L 4102 4326 
C 3955 4320 3686 4320 3526 4320 
C 3366 4320 3098 4320 2950 4326 
L 2950 4160 
C 3462 4160 3462 3862 3462 3703 
L 3462 763 
L 1312 4250 
z
" transform="scale(0.015625)"/>
      <path id="CMR17-45" d="M 3885 1615 
L 3770 1615 
C 3629 676 3546 166 2419 166 
L 1530 166 
C 1274 166 1261 197 1261 414 
L 1261 2176 
L 1862 2176 
C 2464 2176 2522 1960 2522 1430 
L 2637 1430 
L 2637 3081 
L 2522 3081 
C 2522 2557 2464 2342 1862 2342 
L 1261 2342 
L 1261 3913 
C 1261 4128 1274 4160 1530 4160 
L 2406 4160 
C 3398 4160 3514 3769 3603 2929 
L 3718 2929 
L 3565 4325 
L 326 4325 
L 326 4160 
C 768 4160 838 4160 838 3874 
L 838 451 
C 838 166 768 166 326 166 
L 326 0 
L 3654 0 
L 3885 1615 
z
" transform="scale(0.015625)"/>
     </defs>
     <use xlink:href="#CMR17-74" transform="scale(0.996264)"/>
     <use xlink:href="#CMR17-53" transform="translate(35.280768 0) scale(0.996264)"/>
     <use xlink:href="#CMR17-4e" transform="translate(86.176138 0) scale(0.996264)"/>
     <use xlink:href="#CMR17-45" transform="translate(155.248567 0) scale(0.996264)"/>
     <use xlink:href="#CMR17-31" transform="translate(247.910834 0) scale(0.996264)"/>
     <use xlink:href="#CMR17-44" transform="translate(293.601311 0) scale(0.996264)"/>
    </g>
   </g>
  </g>
 </g>
 <defs>
  <clipPath id="pa60fc8c28c">
   <rect x="52.282462" y="5.188862" width="334.8" height="166.32"/>
  </clipPath>
 </defs>
</svg>
