<?xml version="1.0" encoding="utf-8" standalone="no"?>
<!DOCTYPE svg PUBLIC "-//W3C//DTD SVG 1.1//EN"
  "http://www.w3.org/Graphics/SVG/1.1/DTD/svg11.dtd">
<svg xmlns:xlink="http://www.w3.org/1999/xlink" width="387.082462pt" height="209.075801pt" viewBox="0 0 387.082462 209.075801" xmlns="http://www.w3.org/2000/svg" version="1.1">
 <metadata>
  <rdf:RDF xmlns:dc="http://purl.org/dc/elements/1.1/" xmlns:cc="http://creativecommons.org/ns#" xmlns:rdf="http://www.w3.org/1999/02/22-rdf-syntax-ns#">
   <cc:Work>
    <dc:type rdf:resource="http://purl.org/dc/dcmitype/StillImage"/>
    <dc:date>2024-10-10T14:59:03.539543</dc:date>
    <dc:format>image/svg+xml</dc:format>
    <dc:creator>
     <cc:Agent>
      <dc:title>Matplotlib v3.9.2, https://matplotlib.org/</dc:title>
     </cc:Agent>
    </dc:creator>
   </cc:Work>
  </rdf:RDF>
 </metadata>
 <defs>
  <style type="text/css">*{stroke-linejoin: round; stroke-linecap: butt}</style>
 </defs>
 <g id="figure_1">
  <g id="patch_1">
   <path d="M 0 209.075801 
L 387.082462 209.075801 
L 387.082462 0 
L 0 0 
z
" style="fill: #ffffff"/>
  </g>
  <g id="axes_1">
   <g id="patch_2">
    <path d="M 52.282462 171.508862 
L 387.082462 171.508862 
L 387.082462 5.188862 
L 52.282462 5.188862 
z
" style="fill: #eaeaf2"/>
   </g>
   <g id="matplotlib.axis_1">
    <g id="xtick_1">
     <g id="line2d_1">
      <path d="M 67.500644 171.508862 
L 67.500644 5.188862 
" clip-path="url(#pc0367d129e)" style="fill: none; stroke: #ffffff; stroke-linecap: round"/>
     </g>
     <g id="line2d_2"/>
     <g id="text_1">
      <!-- $\mathdefault{0.0}$ -->
      <g style="fill: #262626" transform="translate(58.152118 188.886587) scale(0.15 -0.15)">
       <defs>
        <path id="CMR17-30" d="M 2688 2025 
C 2688 2416 2682 3080 2413 3591 
C 2176 4039 1798 4198 1466 4198 
C 1158 4198 768 4058 525 3597 
C 269 3118 243 2524 243 2025 
C 243 1661 250 1106 448 619 
C 723 -39 1216 -128 1466 -128 
C 1760 -128 2208 -7 2470 600 
C 2662 1042 2688 1559 2688 2025 
z
M 1466 -26 
C 1056 -26 813 325 723 812 
C 653 1188 653 1738 653 2096 
C 653 2588 653 2997 736 3387 
C 858 3929 1216 4096 1466 4096 
C 1728 4096 2067 3923 2189 3400 
C 2272 3036 2278 2607 2278 2096 
C 2278 1680 2278 1169 2202 792 
C 2067 95 1690 -26 1466 -26 
z
" transform="scale(0.015625)"/>
        <path id="CMMI12-3a" d="M 1178 307 
C 1178 492 1024 619 870 619 
C 685 619 557 466 557 313 
C 557 128 710 0 864 0 
C 1050 0 1178 153 1178 307 
z
" transform="scale(0.015625)"/>
       </defs>
       <use xlink:href="#CMR17-30" transform="scale(0.996264)"/>
       <use xlink:href="#CMMI12-3a" transform="translate(45.690477 0) scale(0.996264)"/>
       <use xlink:href="#CMR17-30" transform="translate(72.787654 0) scale(0.996264)"/>
      </g>
     </g>
    </g>
    <g id="xtick_2">
     <g id="line2d_3">
      <path d="M 128.373371 171.508862 
L 128.373371 5.188862 
" clip-path="url(#pc0367d129e)" style="fill: none; stroke: #ffffff; stroke-linecap: round"/>
     </g>
     <g id="line2d_4"/>
     <g id="text_2">
      <!-- $\mathdefault{0.2}$ -->
      <g style="fill: #262626" transform="translate(119.024845 188.886587) scale(0.15 -0.15)">
       <defs>
        <path id="CMR17-32" d="M 2669 989 
L 2554 989 
C 2490 536 2438 459 2413 420 
C 2381 369 1920 369 1830 369 
L 602 369 
C 832 619 1280 1072 1824 1597 
C 2214 1967 2669 2402 2669 3035 
C 2669 3790 2067 4224 1395 4224 
C 691 4224 262 3604 262 3030 
C 262 2780 448 2748 525 2748 
C 589 2748 781 2787 781 3010 
C 781 3207 614 3264 525 3264 
C 486 3264 448 3258 422 3245 
C 544 3790 915 4058 1306 4058 
C 1862 4058 2227 3617 2227 3035 
C 2227 2479 1901 2000 1536 1584 
L 262 146 
L 262 0 
L 2515 0 
L 2669 989 
z
" transform="scale(0.015625)"/>
       </defs>
       <use xlink:href="#CMR17-30" transform="scale(0.996264)"/>
       <use xlink:href="#CMMI12-3a" transform="translate(45.690477 0) scale(0.996264)"/>
       <use xlink:href="#CMR17-32" transform="translate(72.787654 0) scale(0.996264)"/>
      </g>
     </g>
    </g>
    <g id="xtick_3">
     <g id="line2d_5">
      <path d="M 189.246098 171.508862 
L 189.246098 5.188862 
" clip-path="url(#pc0367d129e)" style="fill: none; stroke: #ffffff; stroke-linecap: round"/>
     </g>
     <g id="line2d_6"/>
     <g id="text_3">
      <!-- $\mathdefault{0.4}$ -->
      <g style="fill: #262626" transform="translate(179.897572 188.886587) scale(0.15 -0.15)">
       <defs>
        <path id="CMR17-34" d="M 2150 4122 
C 2150 4256 2144 4256 2029 4256 
L 128 1254 
L 128 1088 
L 1779 1088 
L 1779 457 
C 1779 224 1766 160 1318 160 
L 1197 160 
L 1197 0 
C 1402 0 1747 0 1965 0 
C 2182 0 2528 0 2733 0 
L 2733 160 
L 2611 160 
C 2163 160 2150 224 2150 457 
L 2150 1088 
L 2803 1088 
L 2803 1254 
L 2150 1254 
L 2150 4122 
z
M 1798 3703 
L 1798 1254 
L 256 1254 
L 1798 3703 
z
" transform="scale(0.015625)"/>
       </defs>
       <use xlink:href="#CMR17-30" transform="scale(0.996264)"/>
       <use xlink:href="#CMMI12-3a" transform="translate(45.690477 0) scale(0.996264)"/>
       <use xlink:href="#CMR17-34" transform="translate(72.787654 0) scale(0.996264)"/>
      </g>
     </g>
    </g>
    <g id="xtick_4">
     <g id="line2d_7">
      <path d="M 250.118826 171.508862 
L 250.118826 5.188862 
" clip-path="url(#pc0367d129e)" style="fill: none; stroke: #ffffff; stroke-linecap: round"/>
     </g>
     <g id="line2d_8"/>
     <g id="text_4">
      <!-- $\mathdefault{0.6}$ -->
      <g style="fill: #262626" transform="translate(240.770299 188.886587) scale(0.15 -0.15)">
       <defs>
        <path id="CMR17-36" d="M 678 2176 
C 678 3690 1395 4032 1811 4032 
C 1946 4032 2272 4009 2400 3776 
C 2298 3776 2106 3776 2106 3553 
C 2106 3381 2246 3323 2336 3323 
C 2394 3323 2566 3348 2566 3560 
C 2566 3954 2246 4179 1805 4179 
C 1043 4179 243 3390 243 1984 
C 243 253 966 -128 1478 -128 
C 2099 -128 2688 427 2688 1283 
C 2688 2081 2170 2662 1517 2662 
C 1126 2662 838 2407 678 1960 
L 678 2176 
z
M 1478 25 
C 691 25 691 1200 691 1436 
C 691 1896 909 2560 1504 2560 
C 1613 2560 1926 2560 2138 2120 
C 2253 1870 2253 1609 2253 1289 
C 2253 944 2253 690 2118 434 
C 1978 171 1773 25 1478 25 
z
" transform="scale(0.015625)"/>
       </defs>
       <use xlink:href="#CMR17-30" transform="scale(0.996264)"/>
       <use xlink:href="#CMMI12-3a" transform="translate(45.690477 0) scale(0.996264)"/>
       <use xlink:href="#CMR17-36" transform="translate(72.787654 0) scale(0.996264)"/>
      </g>
     </g>
    </g>
    <g id="xtick_5">
     <g id="line2d_9">
      <path d="M 310.991553 171.508862 
L 310.991553 5.188862 
" clip-path="url(#pc0367d129e)" style="fill: none; stroke: #ffffff; stroke-linecap: round"/>
     </g>
     <g id="line2d_10"/>
     <g id="text_5">
      <!-- $\mathdefault{0.8}$ -->
      <g style="fill: #262626" transform="translate(301.643027 188.886587) scale(0.15 -0.15)">
       <defs>
        <path id="CMR17-38" d="M 1741 2264 
C 2144 2467 2554 2773 2554 3263 
C 2554 3841 1990 4179 1472 4179 
C 890 4179 378 3759 378 3180 
C 378 3021 416 2747 666 2505 
C 730 2442 998 2251 1171 2130 
C 883 1983 211 1634 211 934 
C 211 279 838 -128 1459 -128 
C 2144 -128 2720 362 2720 1010 
C 2720 1590 2330 1857 2074 2029 
L 1741 2264 
z
M 902 2822 
C 851 2854 595 3051 595 3351 
C 595 3739 998 4032 1459 4032 
C 1965 4032 2336 3676 2336 3262 
C 2336 2669 1670 2331 1638 2331 
C 1632 2331 1626 2331 1574 2370 
L 902 2822 
z
M 2080 1519 
C 2176 1449 2483 1240 2483 851 
C 2483 381 2010 25 1472 25 
C 890 25 448 438 448 940 
C 448 1443 838 1862 1280 2060 
L 2080 1519 
z
" transform="scale(0.015625)"/>
       </defs>
       <use xlink:href="#CMR17-30" transform="scale(0.996264)"/>
       <use xlink:href="#CMMI12-3a" transform="translate(45.690477 0) scale(0.996264)"/>
       <use xlink:href="#CMR17-38" transform="translate(72.787654 0) scale(0.996264)"/>
      </g>
     </g>
    </g>
    <g id="xtick_6">
     <g id="line2d_11">
      <path d="M 371.86428 171.508862 
L 371.86428 5.188862 
" clip-path="url(#pc0367d129e)" style="fill: none; stroke: #ffffff; stroke-linecap: round"/>
     </g>
     <g id="line2d_12"/>
     <g id="text_6">
      <!-- $\mathdefault{1.0}$ -->
      <g style="fill: #262626" transform="translate(362.515754 188.886587) scale(0.15 -0.15)">
       <defs>
        <path id="CMR17-31" d="M 1702 4058 
C 1702 4192 1696 4192 1606 4192 
C 1357 3916 979 3827 621 3827 
C 602 3827 570 3827 563 3808 
C 557 3795 557 3782 557 3648 
C 755 3648 1088 3686 1344 3839 
L 1344 461 
C 1344 236 1331 160 781 160 
L 589 160 
L 589 0 
C 896 0 1216 0 1523 0 
C 1830 0 2150 0 2458 0 
L 2458 160 
L 2266 160 
C 1715 160 1702 230 1702 458 
L 1702 4058 
z
" transform="scale(0.015625)"/>
       </defs>
       <use xlink:href="#CMR17-31" transform="scale(0.996264)"/>
       <use xlink:href="#CMMI12-3a" transform="translate(45.690477 0) scale(0.996264)"/>
       <use xlink:href="#CMR17-30" transform="translate(72.787654 0) scale(0.996264)"/>
      </g>
     </g>
    </g>
    <g id="text_7">
     <!-- $s_1$ -->
     <g style="fill: #262626" transform="translate(213.621025 206.170057) scale(0.15 -0.15)">
      <defs>
       <path id="CMMI12-73" d="M 1459 1280 
C 1568 1261 1741 1223 1779 1216 
C 1862 1192 2150 1090 2150 783 
C 2150 586 1971 70 1229 70 
C 1094 70 614 70 486 436 
C 742 404 870 603 870 745 
C 870 880 781 950 653 950 
C 512 950 326 841 326 552 
C 326 173 710 -64 1222 -64 
C 2195 -64 2483 651 2483 984 
C 2483 1079 2483 1258 2278 1462 
C 2118 1616 1965 1648 1619 1718 
C 1446 1756 1171 1814 1171 2101 
C 1171 2229 1286 2689 1894 2689 
C 2163 2689 2426 2589 2490 2368 
C 2208 2368 2195 2125 2195 2119 
C 2195 1984 2317 1946 2374 1946 
C 2464 1946 2643 2015 2643 2281 
C 2643 2545 2400 2816 1901 2816 
C 1062 2816 838 2160 838 1899 
C 838 1414 1312 1312 1459 1280 
z
" transform="scale(0.015625)"/>
      </defs>
      <use xlink:href="#CMMI12-73" transform="scale(0.996264)"/>
      <use xlink:href="#CMR17-31" transform="translate(45.950048 -14.943915) scale(0.697382)"/>
     </g>
    </g>
   </g>
   <g id="matplotlib.axis_2">
    <g id="ytick_1">
     <g id="line2d_13">
      <path d="M 52.282462 171.508862 
L 387.082462 171.508862 
" clip-path="url(#pc0367d129e)" style="fill: none; stroke: #ffffff; stroke-linecap: round"/>
     </g>
     <g id="line2d_14"/>
     <g id="text_8">
      <!-- $\mathdefault{10^{-2}}$ -->
      <g style="fill: #262626" transform="translate(17.283469 176.697725) scale(0.15 -0.15)">
       <defs>
        <path id="CMSY10-0" d="M 4218 1472 
C 4326 1472 4442 1472 4442 1600 
C 4442 1728 4326 1728 4218 1728 
L 755 1728 
C 646 1728 531 1728 531 1600 
C 531 1472 646 1472 755 1472 
L 4218 1472 
z
" transform="scale(0.015625)"/>
       </defs>
       <use xlink:href="#CMR17-31" transform="scale(0.996264)"/>
       <use xlink:href="#CMR17-30" transform="translate(45.690477 0) scale(0.996264)"/>
       <use xlink:href="#CMSY10-0" transform="translate(91.380954 36.153639) scale(0.697382)"/>
       <use xlink:href="#CMR17-32" transform="translate(145.621947 36.153639) scale(0.697382)"/>
      </g>
     </g>
    </g>
    <g id="ytick_2">
     <g id="line2d_15">
      <path d="M 52.282462 129.928862 
L 387.082462 129.928862 
" clip-path="url(#pc0367d129e)" style="fill: none; stroke: #ffffff; stroke-linecap: round"/>
     </g>
     <g id="line2d_16"/>
     <g id="text_9">
      <!-- $\mathdefault{10^{-1}}$ -->
      <g style="fill: #262626" transform="translate(17.283469 135.117725) scale(0.15 -0.15)">
       <use xlink:href="#CMR17-31" transform="scale(0.996264)"/>
       <use xlink:href="#CMR17-30" transform="translate(45.690477 0) scale(0.996264)"/>
       <use xlink:href="#CMSY10-0" transform="translate(91.380954 36.153639) scale(0.697382)"/>
       <use xlink:href="#CMR17-31" transform="translate(145.621947 36.153639) scale(0.697382)"/>
      </g>
     </g>
    </g>
    <g id="ytick_3">
     <g id="line2d_17">
      <path d="M 52.282462 88.348862 
L 387.082462 88.348862 
" clip-path="url(#pc0367d129e)" style="fill: none; stroke: #ffffff; stroke-linecap: round"/>
     </g>
     <g id="line2d_18"/>
     <g id="text_10">
      <!-- $\mathdefault{10^{0}}$ -->
      <g style="fill: #262626" transform="translate(25.419615 93.537725) scale(0.15 -0.15)">
       <use xlink:href="#CMR17-31" transform="scale(0.996264)"/>
       <use xlink:href="#CMR17-30" transform="translate(45.690477 0) scale(0.996264)"/>
       <use xlink:href="#CMR17-30" transform="translate(91.380954 36.153639) scale(0.697382)"/>
      </g>
     </g>
    </g>
    <g id="ytick_4">
     <g id="line2d_19">
      <path d="M 52.282462 46.768862 
L 387.082462 46.768862 
" clip-path="url(#pc0367d129e)" style="fill: none; stroke: #ffffff; stroke-linecap: round"/>
     </g>
     <g id="line2d_20"/>
     <g id="text_11">
      <!-- $\mathdefault{10^{1}}$ -->
      <g style="fill: #262626" transform="translate(25.419615 51.957725) scale(0.15 -0.15)">
       <use xlink:href="#CMR17-31" transform="scale(0.996264)"/>
       <use xlink:href="#CMR17-30" transform="translate(45.690477 0) scale(0.996264)"/>
       <use xlink:href="#CMR17-31" transform="translate(91.380954 36.153639) scale(0.697382)"/>
      </g>
     </g>
    </g>
    <g id="ytick_5">
     <g id="line2d_21">
      <path d="M 52.282462 5.188862 
L 387.082462 5.188862 
" clip-path="url(#pc0367d129e)" style="fill: none; stroke: #ffffff; stroke-linecap: round"/>
     </g>
     <g id="line2d_22"/>
     <g id="text_12">
      <!-- $\mathdefault{10^{2}}$ -->
      <g style="fill: #262626" transform="translate(25.419615 10.377725) scale(0.15 -0.15)">
       <use xlink:href="#CMR17-31" transform="scale(0.996264)"/>
       <use xlink:href="#CMR17-30" transform="translate(45.690477 0) scale(0.996264)"/>
       <use xlink:href="#CMR17-32" transform="translate(91.380954 36.153639) scale(0.697382)"/>
      </g>
     </g>
    </g>
    <g id="ytick_6">
     <g id="line2d_23"/>
    </g>
    <g id="ytick_7">
     <g id="line2d_24"/>
    </g>
    <g id="ytick_8">
     <g id="line2d_25"/>
    </g>
    <g id="ytick_9">
     <g id="line2d_26"/>
    </g>
    <g id="ytick_10">
     <g id="line2d_27"/>
    </g>
    <g id="ytick_11">
     <g id="line2d_28"/>
    </g>
    <g id="ytick_12">
     <g id="line2d_29"/>
    </g>
    <g id="ytick_13">
     <g id="line2d_30"/>
    </g>
    <g id="ytick_14">
     <g id="line2d_31"/>
    </g>
    <g id="ytick_15">
     <g id="line2d_32"/>
    </g>
    <g id="ytick_16">
     <g id="line2d_33"/>
    </g>
    <g id="ytick_17">
     <g id="line2d_34"/>
    </g>
    <g id="ytick_18">
     <g id="line2d_35"/>
    </g>
    <g id="ytick_19">
     <g id="line2d_36"/>
    </g>
    <g id="ytick_20">
     <g id="line2d_37"/>
    </g>
    <g id="ytick_21">
     <g id="line2d_38"/>
    </g>
    <g id="ytick_22">
     <g id="line2d_39"/>
    </g>
    <g id="ytick_23">
     <g id="line2d_40"/>
    </g>
    <g id="ytick_24">
     <g id="line2d_41"/>
    </g>
    <g id="ytick_25">
     <g id="line2d_42"/>
    </g>
    <g id="ytick_26">
     <g id="line2d_43"/>
    </g>
    <g id="ytick_27">
     <g id="line2d_44"/>
    </g>
    <g id="ytick_28">
     <g id="line2d_45"/>
    </g>
    <g id="ytick_29">
     <g id="line2d_46"/>
    </g>
    <g id="ytick_30">
     <g id="line2d_47"/>
    </g>
    <g id="ytick_31">
     <g id="line2d_48"/>
    </g>
    <g id="ytick_32">
     <g id="line2d_49"/>
    </g>
    <g id="ytick_33">
     <g id="line2d_50"/>
    </g>
    <g id="ytick_34">
     <g id="line2d_51"/>
    </g>
    <g id="ytick_35">
     <g id="line2d_52"/>
    </g>
    <g id="ytick_36">
     <g id="line2d_53"/>
    </g>
    <g id="ytick_37">
     <g id="line2d_54"/>
    </g>
    <g id="text_13">
     <!-- Density -->
     <g style="fill: #262626" transform="translate(10.377725 112.674048) rotate(-90) scale(0.15 -0.15)">
      <defs>
       <path id="CMR17-44" d="M 333 4352 
L 333 4186 
C 774 4186 845 4186 845 3900 
L 845 452 
C 845 166 774 166 333 166 
L 333 0 
L 2368 0 
C 3398 0 4224 943 4224 2141 
C 4224 3346 3411 4352 2368 4352 
L 333 4352 
z
M 1523 166 
C 1267 166 1254 197 1254 414 
L 1254 3938 
C 1254 4155 1267 4186 1523 4186 
L 2240 4186 
C 2771 4186 3750 3874 3750 2141 
C 3750 1242 3488 879 3366 707 
C 3213 510 2848 166 2240 166 
L 1523 166 
z
" transform="scale(0.015625)"/>
       <path id="CMR17-65" d="M 2438 1472 
C 2464 1498 2464 1511 2464 1576 
C 2464 2238 2118 2816 1389 2816 
C 710 2816 173 2169 173 1383 
C 173 551 781 -64 1459 -64 
C 2176 -64 2458 607 2458 740 
C 2458 784 2419 784 2406 784 
C 2362 784 2355 771 2330 696 
C 2189 265 1837 51 1504 51 
C 1229 51 954 203 781 480 
C 582 803 582 1176 582 1472 
L 2438 1472 
z
M 589 1568 
C 634 2505 1126 2714 1382 2714 
C 1818 2714 2112 2297 2118 1568 
L 589 1568 
z
" transform="scale(0.015625)"/>
       <path id="CMR17-6e" d="M 2656 1933 
C 2656 2259 2592 2790 1837 2790 
C 1331 2790 1069 2400 973 2144 
L 966 2144 
L 966 2790 
L 211 2720 
L 211 2554 
C 589 2554 646 2515 646 2208 
L 646 428 
C 646 184 621 153 211 153 
L 211 -13 
C 365 0 646 0 813 0 
C 979 0 1267 0 1421 -13 
L 1421 153 
C 1011 153 986 178 986 428 
L 986 1658 
C 986 2247 1344 2688 1792 2688 
C 2266 2688 2317 2266 2317 1958 
L 2317 428 
C 2317 184 2291 153 1882 153 
L 1882 -13 
C 2035 0 2317 0 2483 0 
C 2650 0 2938 0 3091 -13 
L 3091 153 
C 2682 153 2656 178 2656 428 
L 2656 1933 
z
" transform="scale(0.015625)"/>
       <path id="CMR17-73" d="M 1978 2697 
C 1978 2813 1971 2819 1933 2819 
C 1907 2819 1901 2813 1824 2717 
C 1805 2691 1747 2626 1728 2601 
C 1523 2819 1235 2819 1126 2819 
C 416 2819 160 2447 160 2076 
C 160 1498 813 1365 998 1325 
C 1402 1243 1542 1217 1677 1101 
C 1760 1025 1901 884 1901 654 
C 1901 384 1747 38 1158 38 
C 602 38 403 460 288 1021 
C 269 1110 269 1117 218 1117 
C 166 1117 160 1110 160 983 
L 160 63 
C 160 -51 166 -58 205 -58 
C 237 -58 243 -51 275 0 
C 314 57 410 211 448 276 
C 576 103 800 -64 1158 -64 
C 1792 -64 2131 283 2131 784 
C 2131 1112 1958 1285 1875 1362 
C 1683 1561 1459 1606 1190 1657 
C 838 1735 390 1825 390 2217 
C 390 2383 480 2737 1126 2737 
C 1811 2737 1850 2094 1862 1888 
C 1869 1856 1901 1849 1920 1849 
C 1978 1849 1978 1869 1978 1978 
L 1978 2697 
z
" transform="scale(0.015625)"/>
       <path id="CMR17-69" d="M 992 3909 
C 992 4049 877 4170 730 4170 
C 589 4170 467 4056 467 3909 
C 467 3769 582 3648 730 3648 
C 870 3648 992 3763 992 3909 
z
M 243 2706 
L 243 2541 
C 602 2541 653 2502 653 2197 
L 653 427 
C 653 184 627 153 218 153 
L 218 -13 
C 371 0 646 0 806 0 
C 960 0 1222 0 1370 -13 
L 1370 153 
C 992 153 979 191 979 420 
L 979 2776 
L 243 2706 
z
" transform="scale(0.015625)"/>
       <path id="CMR17-74" d="M 966 2560 
L 1862 2560 
L 1862 2725 
L 966 2725 
L 966 3904 
L 851 3904 
C 838 3245 614 2668 70 2668 
L 70 2560 
L 627 2560 
L 627 771 
C 627 650 627 -64 1370 -64 
C 1747 -64 1965 306 1965 777 
L 1965 1140 
L 1850 1140 
L 1850 783 
C 1850 344 1677 51 1408 51 
C 1222 51 966 178 966 758 
L 966 2560 
z
" transform="scale(0.015625)"/>
       <path id="CMR17-79" d="M 2496 2197 
C 2656 2586 2944 2586 3034 2586 
L 3034 2752 
C 2912 2752 2752 2752 2630 2752 
C 2496 2752 2285 2752 2157 2758 
L 2157 2592 
C 2400 2573 2406 2394 2406 2343 
C 2406 2280 2394 2248 2362 2171 
L 1664 449 
L 902 2306 
C 870 2382 870 2426 870 2433 
C 870 2573 1018 2586 1171 2586 
L 1171 2758 
C 1018 2752 742 2752 582 2752 
C 410 2752 205 2752 64 2758 
L 64 2586 
C 410 2586 448 2554 531 2350 
L 1485 15 
C 1197 -738 1030 -1178 627 -1178 
C 557 -1178 397 -1159 282 -1044 
C 429 -1031 493 -942 493 -833 
C 493 -725 416 -629 288 -629 
C 147 -629 77 -725 77 -840 
C 77 -1095 339 -1280 627 -1280 
C 998 -1280 1229 -922 1357 -604 
L 2496 2197 
z
" transform="scale(0.015625)"/>
      </defs>
      <use xlink:href="#CMR17-44" transform="scale(0.996264)"/>
      <use xlink:href="#CMR17-65" transform="translate(70.393556 0) scale(0.996264)"/>
      <use xlink:href="#CMR17-6e" transform="translate(110.879216 0) scale(0.996264)"/>
      <use xlink:href="#CMR17-73" transform="translate(161.774586 0) scale(0.996264)"/>
      <use xlink:href="#CMR17-69" transform="translate(197.575924 0) scale(0.996264)"/>
      <use xlink:href="#CMR17-74" transform="translate(222.446982 0) scale(0.996264)"/>
      <use xlink:href="#CMR17-79" transform="translate(255.125296 0) scale(0.996264)"/>
     </g>
    </g>
   </g>
   <g id="PolyCollection_1">
    <path d="M 66.575937 245.571698 
L 66.575937 41668.348862 
L 67.189591 41668.348862 
L 67.803244 41668.348862 
L 68.416898 41668.348862 
L 69.030551 41668.348862 
L 69.644204 41668.348862 
L 70.257858 41668.348862 
L 70.871511 41668.348862 
L 71.485165 41668.348862 
L 72.098818 41668.348862 
L 72.712472 41668.348862 
L 73.326125 41668.348862 
L 73.939778 41668.348862 
L 74.553432 41668.348862 
L 75.167085 41668.348862 
L 75.780739 41668.348862 
L 76.394392 41668.348862 
L 77.008045 41668.348862 
L 77.621699 41668.348862 
L 78.235352 41668.348862 
L 78.849006 41668.348862 
L 79.462659 41668.348862 
L 80.076312 41668.348862 
L 80.689966 41668.348862 
L 81.303619 41668.348862 
L 81.917273 41668.348862 
L 82.530926 41668.348862 
L 83.144579 41668.348862 
L 83.758233 41668.348862 
L 84.371886 41668.348862 
L 84.98554 41668.348862 
L 85.599193 41668.348862 
L 86.212846 41668.348862 
L 86.8265 41668.348862 
L 87.440153 41668.348862 
L 88.053807 41668.348862 
L 88.66746 41668.348862 
L 89.281113 41668.348862 
L 89.894767 41668.348862 
L 90.50842 41668.348862 
L 91.122074 41668.348862 
L 91.735727 41668.348862 
L 92.34938 41668.348862 
L 92.963034 41668.348862 
L 93.576687 41668.348862 
L 94.190341 41668.348862 
L 94.803994 41668.348862 
L 95.417647 41668.348862 
L 96.031301 41668.348862 
L 96.644954 41668.348862 
L 97.258608 41668.348862 
L 97.872261 41668.348862 
L 98.485915 41668.348862 
L 99.099568 41668.348862 
L 99.713221 41668.348862 
L 100.326875 41668.348862 
L 100.940528 41668.348862 
L 101.554182 41668.348862 
L 102.167835 41668.348862 
L 102.781488 41668.348862 
L 103.395142 41668.348862 
L 104.008795 41668.348862 
L 104.622449 41668.348862 
L 105.236102 41668.348862 
L 105.849755 41668.348862 
L 106.463409 41668.348862 
L 107.077062 41668.348862 
L 107.690716 41668.348862 
L 108.304369 41668.348862 
L 108.918022 41668.348862 
L 109.531676 41668.348862 
L 110.145329 41668.348862 
L 110.758983 41668.348862 
L 111.372636 41668.348862 
L 111.986289 41668.348862 
L 112.599943 41668.348862 
L 113.213596 41668.348862 
L 113.82725 41668.348862 
L 114.440903 41668.348862 
L 115.054556 41668.348862 
L 115.66821 41668.348862 
L 116.281863 41668.348862 
L 116.895517 41668.348862 
L 117.50917 41668.348862 
L 118.122823 41668.348862 
L 118.736477 41668.348862 
L 119.35013 41668.348862 
L 119.963784 41668.348862 
L 120.577437 41668.348862 
L 121.19109 41668.348862 
L 121.804744 41668.348862 
L 122.418397 41668.348862 
L 123.032051 41668.348862 
L 123.645704 41668.348862 
L 124.259357 41668.348862 
L 124.873011 41668.348862 
L 125.486664 41668.348862 
L 126.100318 41668.348862 
L 126.713971 41668.348862 
L 127.327625 41668.348862 
L 127.941278 41668.348862 
L 128.554931 41668.348862 
L 129.168585 41668.348862 
L 129.782238 41668.348862 
L 130.395892 41668.348862 
L 131.009545 41668.348862 
L 131.623198 41668.348862 
L 132.236852 41668.348862 
L 132.850505 41668.348862 
L 133.464159 41668.348862 
L 134.077812 41668.348862 
L 134.691465 41668.348862 
L 135.305119 41668.348862 
L 135.918772 41668.348862 
L 136.532426 41668.348862 
L 137.146079 41668.348862 
L 137.759732 41668.348862 
L 138.373386 41668.348862 
L 138.987039 41668.348862 
L 139.600693 41668.348862 
L 140.214346 41668.348862 
L 140.827999 41668.348862 
L 141.441653 41668.348862 
L 142.055306 41668.348862 
L 142.66896 41668.348862 
L 143.282613 41668.348862 
L 143.896266 41668.348862 
L 144.50992 41668.348862 
L 145.123573 41668.348862 
L 145.737227 41668.348862 
L 146.35088 41668.348862 
L 146.964533 41668.348862 
L 147.578187 41668.348862 
L 148.19184 41668.348862 
L 148.805494 41668.348862 
L 149.419147 41668.348862 
L 150.0328 41668.348862 
L 150.646454 41668.348862 
L 151.260107 41668.348862 
L 151.873761 41668.348862 
L 152.487414 41668.348862 
L 153.101068 41668.348862 
L 153.714721 41668.348862 
L 154.328374 41668.348862 
L 154.942028 41668.348862 
L 155.555681 41668.348862 
L 156.169335 41668.348862 
L 156.782988 41668.348862 
L 157.396641 41668.348862 
L 158.010295 41668.348862 
L 158.623948 41668.348862 
L 159.237602 41668.348862 
L 159.851255 41668.348862 
L 160.464908 41668.348862 
L 161.078562 41668.348862 
L 161.692215 41668.348862 
L 162.305869 41668.348862 
L 162.919522 41668.348862 
L 163.533175 41668.348862 
L 164.146829 41668.348862 
L 164.760482 41668.348862 
L 165.374136 41668.348862 
L 165.987789 41668.348862 
L 166.601442 41668.348862 
L 167.215096 41668.348862 
L 167.828749 41668.348862 
L 168.442403 41668.348862 
L 169.056056 41668.348862 
L 169.669709 41668.348862 
L 170.283363 41668.348862 
L 170.897016 41668.348862 
L 171.51067 41668.348862 
L 172.124323 41668.348862 
L 172.737976 41668.348862 
L 173.35163 41668.348862 
L 173.965283 41668.348862 
L 174.578937 41668.348862 
L 175.19259 41668.348862 
L 175.806243 41668.348862 
L 176.419897 41668.348862 
L 177.03355 41668.348862 
L 177.647204 41668.348862 
L 178.260857 41668.348862 
L 178.87451 41668.348862 
L 179.488164 41668.348862 
L 180.101817 41668.348862 
L 180.715471 41668.348862 
L 181.329124 41668.348862 
L 181.942778 41668.348862 
L 182.556431 41668.348862 
L 183.170084 41668.348862 
L 183.783738 41668.348862 
L 184.397391 41668.348862 
L 185.011045 41668.348862 
L 185.624698 41668.348862 
L 186.238351 41668.348862 
L 186.852005 41668.348862 
L 187.465658 41668.348862 
L 188.079312 41668.348862 
L 188.692965 41668.348862 
L 189.306618 41668.348862 
L 189.920272 41668.348862 
L 190.533925 41668.348862 
L 191.147579 41668.348862 
L 191.761232 41668.348862 
L 192.374885 41668.348862 
L 192.988539 41668.348862 
L 193.602192 41668.348862 
L 194.215846 41668.348862 
L 194.829499 41668.348862 
L 195.443152 41668.348862 
L 196.056806 41668.348862 
L 196.670459 41668.348862 
L 197.284113 41668.348862 
L 197.897766 41668.348862 
L 198.511419 41668.348862 
L 199.125073 41668.348862 
L 199.738726 41668.348862 
L 200.35238 41668.348862 
L 200.966033 41668.348862 
L 201.579686 41668.348862 
L 202.19334 41668.348862 
L 202.806993 41668.348862 
L 203.420647 41668.348862 
L 204.0343 41668.348862 
L 204.647953 41668.348862 
L 205.261607 41668.348862 
L 205.87526 41668.348862 
L 206.488914 41668.348862 
L 207.102567 41668.348862 
L 207.71622 41668.348862 
L 208.329874 41668.348862 
L 208.943527 41668.348862 
L 209.557181 41668.348862 
L 210.170834 41668.348862 
L 210.784488 41668.348862 
L 211.398141 41668.348862 
L 212.011794 41668.348862 
L 212.625448 41668.348862 
L 213.239101 41668.348862 
L 213.852755 41668.348862 
L 214.466408 41668.348862 
L 215.080061 41668.348862 
L 215.693715 41668.348862 
L 216.307368 41668.348862 
L 216.921022 41668.348862 
L 217.534675 41668.348862 
L 218.148328 41668.348862 
L 218.761982 41668.348862 
L 219.375635 41668.348862 
L 219.989289 41668.348862 
L 220.602942 41668.348862 
L 221.216595 41668.348862 
L 221.830249 41668.348862 
L 222.443902 41668.348862 
L 223.057556 41668.348862 
L 223.671209 41668.348862 
L 224.284862 41668.348862 
L 224.898516 41668.348862 
L 225.512169 41668.348862 
L 226.125823 41668.348862 
L 226.739476 41668.348862 
L 227.353129 41668.348862 
L 227.966783 41668.348862 
L 228.580436 41668.348862 
L 229.19409 41668.348862 
L 229.807743 41668.348862 
L 230.421396 41668.348862 
L 231.03505 41668.348862 
L 231.648703 41668.348862 
L 232.262357 41668.348862 
L 232.87601 41668.348862 
L 233.489663 41668.348862 
L 234.103317 41668.348862 
L 234.71697 41668.348862 
L 235.330624 41668.348862 
L 235.944277 41668.348862 
L 236.557931 41668.348862 
L 237.171584 41668.348862 
L 237.785237 41668.348862 
L 238.398891 41668.348862 
L 239.012544 41668.348862 
L 239.626198 41668.348862 
L 240.239851 41668.348862 
L 240.853504 41668.348862 
L 241.467158 41668.348862 
L 242.080811 41668.348862 
L 242.694465 41668.348862 
L 243.308118 41668.348862 
L 243.921771 41668.348862 
L 244.535425 41668.348862 
L 245.149078 41668.348862 
L 245.762732 41668.348862 
L 246.376385 41668.348862 
L 246.990038 41668.348862 
L 247.603692 41668.348862 
L 248.217345 41668.348862 
L 248.830999 41668.348862 
L 249.444652 41668.348862 
L 250.058305 41668.348862 
L 250.671959 41668.348862 
L 251.285612 41668.348862 
L 251.899266 41668.348862 
L 252.512919 41668.348862 
L 253.126572 41668.348862 
L 253.740226 41668.348862 
L 254.353879 41668.348862 
L 254.967533 41668.348862 
L 255.581186 41668.348862 
L 256.194839 41668.348862 
L 256.808493 41668.348862 
L 257.422146 41668.348862 
L 258.0358 41668.348862 
L 258.649453 41668.348862 
L 259.263106 41668.348862 
L 259.87676 41668.348862 
L 260.490413 41668.348862 
L 261.104067 41668.348862 
L 261.71772 41668.348862 
L 262.331373 41668.348862 
L 262.945027 41668.348862 
L 263.55868 41668.348862 
L 264.172334 41668.348862 
L 264.785987 41668.348862 
L 265.399641 41668.348862 
L 266.013294 41668.348862 
L 266.626947 41668.348862 
L 267.240601 41668.348862 
L 267.854254 41668.348862 
L 268.467908 41668.348862 
L 269.081561 41668.348862 
L 269.695214 41668.348862 
L 270.308868 41668.348862 
L 270.922521 41668.348862 
L 271.536175 41668.348862 
L 272.149828 41668.348862 
L 272.763481 41668.348862 
L 273.377135 41668.348862 
L 273.990788 41668.348862 
L 274.604442 41668.348862 
L 275.218095 41668.348862 
L 275.831748 41668.348862 
L 276.445402 41668.348862 
L 277.059055 41668.348862 
L 277.672709 41668.348862 
L 278.286362 41668.348862 
L 278.900015 41668.348862 
L 279.513669 41668.348862 
L 280.127322 41668.348862 
L 280.740976 41668.348862 
L 281.354629 41668.348862 
L 281.968282 41668.348862 
L 282.581936 41668.348862 
L 283.195589 41668.348862 
L 283.809243 41668.348862 
L 284.422896 41668.348862 
L 285.036549 41668.348862 
L 285.650203 41668.348862 
L 286.263856 41668.348862 
L 286.87751 41668.348862 
L 287.491163 41668.348862 
L 288.104816 41668.348862 
L 288.71847 41668.348862 
L 289.332123 41668.348862 
L 289.945777 41668.348862 
L 290.55943 41668.348862 
L 291.173084 41668.348862 
L 291.786737 41668.348862 
L 292.40039 41668.348862 
L 293.014044 41668.348862 
L 293.627697 41668.348862 
L 294.241351 41668.348862 
L 294.855004 41668.348862 
L 295.468657 41668.348862 
L 296.082311 41668.348862 
L 296.695964 41668.348862 
L 297.309618 41668.348862 
L 297.923271 41668.348862 
L 298.536924 41668.348862 
L 299.150578 41668.348862 
L 299.764231 41668.348862 
L 300.377885 41668.348862 
L 300.991538 41668.348862 
L 301.605191 41668.348862 
L 302.218845 41668.348862 
L 302.832498 41668.348862 
L 303.446152 41668.348862 
L 304.059805 41668.348862 
L 304.673458 41668.348862 
L 305.287112 41668.348862 
L 305.900765 41668.348862 
L 306.514419 41668.348862 
L 307.128072 41668.348862 
L 307.741725 41668.348862 
L 308.355379 41668.348862 
L 308.969032 41668.348862 
L 309.582686 41668.348862 
L 310.196339 41668.348862 
L 310.809992 41668.348862 
L 311.423646 41668.348862 
L 312.037299 41668.348862 
L 312.650953 41668.348862 
L 313.264606 41668.348862 
L 313.878259 41668.348862 
L 314.491913 41668.348862 
L 315.105566 41668.348862 
L 315.71922 41668.348862 
L 316.332873 41668.348862 
L 316.946526 41668.348862 
L 317.56018 41668.348862 
L 318.173833 41668.348862 
L 318.787487 41668.348862 
L 319.40114 41668.348862 
L 320.014794 41668.348862 
L 320.628447 41668.348862 
L 321.2421 41668.348862 
L 321.855754 41668.348862 
L 322.469407 41668.348862 
L 323.083061 41668.348862 
L 323.696714 41668.348862 
L 324.310367 41668.348862 
L 324.924021 41668.348862 
L 325.537674 41668.348862 
L 326.151328 41668.348862 
L 326.764981 41668.348862 
L 327.378634 41668.348862 
L 327.992288 41668.348862 
L 328.605941 41668.348862 
L 329.219595 41668.348862 
L 329.833248 41668.348862 
L 330.446901 41668.348862 
L 331.060555 41668.348862 
L 331.674208 41668.348862 
L 332.287862 41668.348862 
L 332.901515 41668.348862 
L 333.515168 41668.348862 
L 334.128822 41668.348862 
L 334.742475 41668.348862 
L 335.356129 41668.348862 
L 335.969782 41668.348862 
L 336.583435 41668.348862 
L 337.197089 41668.348862 
L 337.810742 41668.348862 
L 338.424396 41668.348862 
L 339.038049 41668.348862 
L 339.651702 41668.348862 
L 340.265356 41668.348862 
L 340.879009 41668.348862 
L 341.492663 41668.348862 
L 342.106316 41668.348862 
L 342.719969 41668.348862 
L 343.333623 41668.348862 
L 343.947276 41668.348862 
L 344.56093 41668.348862 
L 345.174583 41668.348862 
L 345.788237 41668.348862 
L 346.40189 41668.348862 
L 347.015543 41668.348862 
L 347.629197 41668.348862 
L 348.24285 41668.348862 
L 348.856504 41668.348862 
L 349.470157 41668.348862 
L 350.08381 41668.348862 
L 350.697464 41668.348862 
L 351.311117 41668.348862 
L 351.924771 41668.348862 
L 352.538424 41668.348862 
L 353.152077 41668.348862 
L 353.765731 41668.348862 
L 354.379384 41668.348862 
L 354.993038 41668.348862 
L 355.606691 41668.348862 
L 356.220344 41668.348862 
L 356.833998 41668.348862 
L 357.447651 41668.348862 
L 358.061305 41668.348862 
L 358.674958 41668.348862 
L 359.288611 41668.348862 
L 359.902265 41668.348862 
L 360.515918 41668.348862 
L 361.129572 41668.348862 
L 361.743225 41668.348862 
L 362.356878 41668.348862 
L 362.970532 41668.348862 
L 363.584185 41668.348862 
L 364.197839 41668.348862 
L 364.811492 41668.348862 
L 365.425145 41668.348862 
L 366.038799 41668.348862 
L 366.652452 41668.348862 
L 367.266106 41668.348862 
L 367.879759 41668.348862 
L 368.493412 41668.348862 
L 369.107066 41668.348862 
L 369.720719 41668.348862 
L 370.334373 41668.348862 
L 370.948026 41668.348862 
L 371.561679 41668.348862 
L 372.175333 41668.348862 
L 372.788986 41668.348862 
L 372.788986 231.391261 
L 372.788986 231.391261 
L 372.175333 143.227659 
L 371.561679 109.130264 
L 370.948026 109.243994 
L 370.334373 102.553568 
L 369.720719 105.669108 
L 369.107066 106.725063 
L 368.493412 104.80238 
L 367.879759 104.687306 
L 367.266106 102.018065 
L 366.652452 104.889349 
L 366.038799 103.043943 
L 365.425145 100.575777 
L 364.811492 102.055567 
L 364.197839 101.978286 
L 363.584185 99.800627 
L 362.970532 96.862663 
L 362.356878 95.492373 
L 361.743225 95.062425 
L 361.129572 96.44372 
L 360.515918 98.118395 
L 359.902265 104.526111 
L 359.288611 104.319523 
L 358.674958 97.040333 
L 358.061305 96.289282 
L 357.447651 96.14563 
L 356.833998 93.337719 
L 356.220344 100.964997 
L 355.606691 100.096184 
L 354.993038 101.588941 
L 354.379384 96.272878 
L 353.765731 92.083461 
L 353.152077 91.096474 
L 352.538424 92.893332 
L 351.924771 97.818388 
L 351.311117 97.735798 
L 350.697464 94.991301 
L 350.08381 89.226807 
L 349.470157 84.778095 
L 348.856504 86.319425 
L 348.24285 90.653014 
L 347.629197 95.12214 
L 347.015543 98.869745 
L 346.40189 103.10102 
L 345.788237 100.97339 
L 345.174583 96.011723 
L 344.56093 87.320427 
L 343.947276 83.722288 
L 343.333623 83.412789 
L 342.719969 86.584429 
L 342.106316 91.677623 
L 341.492663 95.230149 
L 340.879009 97.315251 
L 340.265356 99.236021 
L 339.651702 95.47731 
L 339.038049 90.10513 
L 338.424396 88.126123 
L 337.810742 84.615049 
L 337.197089 83.970069 
L 336.583435 87.821847 
L 335.969782 94.062689 
L 335.356129 94.172045 
L 334.742475 101.369012 
L 334.128822 100.325889 
L 333.515168 94.975891 
L 332.901515 88.990795 
L 332.287862 88.965852 
L 331.674208 84.092952 
L 331.060555 81.25604 
L 330.446901 83.418757 
L 329.833248 84.087268 
L 329.219595 91.469196 
L 328.605941 95.941098 
L 327.992288 99.125785 
L 327.378634 101.397037 
L 326.764981 101.681934 
L 326.151328 96.598791 
L 325.537674 87.820022 
L 324.924021 81.16885 
L 324.310367 79.960032 
L 323.696714 80.541756 
L 323.083061 81.459613 
L 322.469407 82.275525 
L 321.855754 85.537037 
L 321.2421 89.907157 
L 320.628447 98.21598 
L 320.014794 100.951247 
L 319.40114 100.283143 
L 318.787487 95.358681 
L 318.173833 92.312626 
L 317.56018 87.117841 
L 316.946526 84.631663 
L 316.332873 81.220523 
L 315.71922 78.904531 
L 315.105566 78.924261 
L 314.491913 79.766665 
L 313.878259 81.749323 
L 313.264606 83.275703 
L 312.650953 89.731263 
L 312.037299 102.995478 
L 311.423646 106.083225 
L 310.809992 104.24741 
L 310.196339 100.687802 
L 309.582686 95.472299 
L 308.969032 91.395118 
L 308.355379 83.280364 
L 307.741725 81.499073 
L 307.128072 80.012428 
L 306.514419 80.695068 
L 305.900765 81.685442 
L 305.287112 81.474112 
L 304.673458 80.050603 
L 304.059805 81.353611 
L 303.446152 81.649979 
L 302.832498 89.006126 
L 302.218845 97.9984 
L 301.605191 99.282336 
L 300.991538 106.384182 
L 300.377885 103.442245 
L 299.764231 95.835638 
L 299.150578 89.200561 
L 298.536924 83.767587 
L 297.923271 81.399523 
L 297.309618 78.872008 
L 296.695964 78.406335 
L 296.082311 80.422749 
L 295.468657 79.341689 
L 294.855004 76.20438 
L 294.241351 76.710706 
L 293.627697 79.56772 
L 293.014044 84.010448 
L 292.40039 93.878466 
L 291.786737 104.169338 
L 291.173084 105.899433 
L 290.55943 102.536848 
L 289.945777 101.885516 
L 289.332123 98.996651 
L 288.71847 89.434703 
L 288.104816 81.877791 
L 287.491163 80.323674 
L 286.87751 79.27542 
L 286.263856 76.748381 
L 285.650203 78.627428 
L 285.036549 78.489548 
L 284.422896 79.255969 
L 283.809243 81.992387 
L 283.195589 81.88986 
L 282.581936 79.934532 
L 281.968282 84.446887 
L 281.354629 93.086367 
L 280.740976 101.426833 
L 280.127322 107.715332 
L 279.513669 105.261669 
L 278.900015 103.777896 
L 278.286362 94.815483 
L 277.672709 83.937462 
L 277.059055 77.867178 
L 276.445402 76.168009 
L 275.831748 75.422024 
L 275.218095 77.744821 
L 274.604442 78.512732 
L 273.990788 77.692208 
L 273.377135 77.609526 
L 272.763481 77.941311 
L 272.149828 77.057473 
L 271.536175 76.841566 
L 270.922521 87.35988 
L 270.308868 98.743761 
L 269.695214 108.695774 
L 269.081561 118.955935 
L 268.467908 124.437358 
L 267.854254 122.421726 
L 267.240601 120.477151 
L 266.626947 112.766262 
L 266.013294 101.182528 
L 265.399641 85.459017 
L 264.785987 79.574902 
L 264.172334 79.290636 
L 263.55868 80.139162 
L 262.945027 76.314702 
L 262.331373 73.647544 
L 261.71772 76.44262 
L 261.104067 77.84807 
L 260.490413 79.309525 
L 259.87676 78.723532 
L 259.263106 76.020087 
L 258.649453 81.955881 
L 258.0358 93.052758 
L 257.422146 105.904716 
L 256.808493 107.506829 
L 256.194839 109.18935 
L 255.581186 113.54637 
L 254.967533 107.833652 
L 254.353879 96.16377 
L 253.740226 86.086451 
L 253.126572 80.452016 
L 252.512919 78.139672 
L 251.899266 77.414157 
L 251.285612 77.883103 
L 250.671959 77.012576 
L 250.058305 77.172393 
L 249.444652 76.515954 
L 248.830999 76.52776 
L 248.217345 77.112901 
L 247.603692 78.928041 
L 246.990038 83.739191 
L 246.376385 101.402071 
L 245.762732 118.4151 
L 245.149078 126.264388 
L 244.535425 127.480473 
L 243.921771 114.321063 
L 243.308118 111.486282 
L 242.694465 95.207488 
L 242.080811 83.066634 
L 241.467158 80.237814 
L 240.853504 79.633637 
L 240.239851 79.96968 
L 239.626198 77.637337 
L 239.012544 76.095837 
L 238.398891 75.64991 
L 237.785237 74.666243 
L 237.171584 75.497583 
L 236.557931 76.615529 
L 235.944277 77.667419 
L 235.330624 80.986127 
L 234.71697 91.936253 
L 234.103317 107.529339 
L 233.489663 117.641215 
L 232.87601 133.076787 
L 232.262357 129.548013 
L 231.648703 134.036246 
L 231.03505 111.825174 
L 230.421396 95.479758 
L 229.807743 84.602981 
L 229.19409 79.942103 
L 228.580436 77.302276 
L 227.966783 77.382813 
L 227.353129 77.309805 
L 226.739476 77.393697 
L 226.125823 77.742189 
L 225.512169 78.661224 
L 224.898516 77.714494 
L 224.284862 77.889596 
L 223.671209 77.881064 
L 223.057556 82.183693 
L 222.443902 103.161571 
L 221.830249 125.769501 
L 221.216595 140.080464 
L 220.602942 138.896343 
L 219.989289 133.005264 
L 219.375635 146.081555 
L 218.761982 128.908773 
L 218.148328 99.054226 
L 217.534675 83.324969 
L 216.921022 78.616055 
L 216.307368 77.743463 
L 215.693715 79.626716 
L 215.080061 79.803393 
L 214.466408 76.111617 
L 213.852755 76.053485 
L 213.239101 77.646848 
L 212.625448 78.2781 
L 212.011794 75.419617 
L 211.398141 76.762751 
L 210.784488 82.725547 
L 210.170834 100.623008 
L 209.557181 126.031999 
L 208.943527 141.951415 
L 208.329874 151.970686 
L 207.71622 147.916738 
L 207.102567 144.627951 
L 206.488914 127.291767 
L 205.87526 100.655198 
L 205.261607 86.774903 
L 204.647953 79.435868 
L 204.0343 77.811052 
L 203.420647 78.462023 
L 202.806993 78.900154 
L 202.19334 78.440401 
L 201.579686 80.423153 
L 200.966033 78.319405 
L 200.35238 77.858897 
L 199.738726 74.797954 
L 199.125073 75.104183 
L 198.511419 81.276527 
L 197.897766 102.505907 
L 197.284113 129.419464 
L 196.670459 157.846845 
L 196.056806 149.893771 
L 195.443152 193.092719 
L 194.829499 279.376878 
L 194.215846 191.263505 
L 193.602192 168.015601 
L 192.988539 205.827944 
L 192.374885 156.440121 
L 191.761232 110.35204 
L 191.147579 83.549672 
L 190.533925 78.594845 
L 189.920272 78.915743 
L 189.306618 77.631497 
L 188.692965 75.068514 
L 188.079312 75.402683 
L 187.465658 74.093977 
L 186.852005 74.482075 
L 186.238351 74.292699 
L 185.624698 74.657857 
L 185.011045 75.954997 
L 184.397391 86.593567 
L 183.783738 117.008892 
L 183.170084 152.423628 
L 182.556431 171.135996 
L 181.942778 151.317353 
L 181.329124 144.338208 
L 180.715471 142.187848 
L 180.101817 121.984093 
L 179.488164 90.787739 
L 178.87451 77.10568 
L 178.260857 75.263503 
L 177.647204 74.522309 
L 177.03355 75.359465 
L 176.419897 77.167431 
L 175.806243 78.25762 
L 175.19259 80.327876 
L 174.578937 76.81667 
L 173.965283 74.877515 
L 173.35163 75.211532 
L 172.737976 81.447719 
L 172.124323 104.89082 
L 171.51067 150.603325 
L 170.897016 161.638203 
L 170.283363 153.913047 
L 169.669709 172.555172 
L 169.056056 153.662091 
L 168.442403 153.789439 
L 167.828749 148.54543 
L 167.215096 175.154916 
L 166.601442 146.888724 
L 165.987789 130.817674 
L 165.374136 90.767735 
L 164.760482 73.90904 
L 164.146829 74.922212 
L 163.533175 74.924515 
L 162.919522 72.354766 
L 162.305869 75.02384 
L 161.692215 74.019624 
L 161.078562 73.31279 
L 160.464908 73.050102 
L 159.851255 75.731688 
L 159.237602 99.703595 
L 158.623948 142.747985 
L 158.010295 177.685614 
L 157.396641 158.353546 
L 156.782988 167.572377 
L 156.169335 149.586518 
L 155.555681 147.010565 
L 154.942028 196.109315 
L 154.328374 158.398121 
L 153.714721 106.830755 
L 153.101068 80.137179 
L 152.487414 71.334621 
L 151.873761 71.467608 
L 151.260107 73.99761 
L 150.646454 73.94121 
L 150.0328 75.342609 
L 149.419147 74.250218 
L 148.805494 74.238205 
L 148.19184 75.730632 
L 147.578187 77.551811 
L 146.964533 80.760499 
L 146.35088 105.642254 
L 145.737227 150.433988 
L 145.123573 229.049057 
L 144.50992 352.335419 
L 143.896266 231.89278 
L 143.282613 171.238227 
L 142.66896 182.15366 
L 142.055306 216.254045 
L 141.441653 168.180422 
L 140.827999 174.954975 
L 140.214346 147.520469 
L 139.600693 135.718015 
L 138.987039 92.010585 
L 138.373386 77.525444 
L 137.759732 73.561754 
L 137.146079 72.542624 
L 136.532426 73.894343 
L 135.918772 73.268841 
L 135.305119 72.253618 
L 134.691465 71.52561 
L 134.077812 72.602425 
L 133.464159 77.927511 
L 132.850505 105.659523 
L 132.236852 158.70974 
L 131.623198 171.154266 
L 131.009545 160.912999 
L 130.395892 175.832577 
L 129.782238 249.462063 
L 129.168585 393.990198 
L 128.554931 417.816188 
L 127.941278 264.087306 
L 127.327625 181.767031 
L 126.713971 161.757876 
L 126.100318 133.903968 
L 125.486664 95.584212 
L 124.873011 74.128501 
L 124.259357 72.300716 
L 123.645704 72.881681 
L 123.032051 73.579898 
L 122.418397 72.312041 
L 121.804744 73.313845 
L 121.19109 71.242952 
L 120.577437 71.458192 
L 119.963784 75.510151 
L 119.35013 92.690079 
L 118.736477 125.46025 
L 118.122823 151.441655 
L 117.50917 163.00134 
L 116.895517 163.099581 
L 116.281863 214.27028 
L 115.66821 333.123641 
L 115.054556 523.200763 
L 114.440903 784.823455 
L 113.82725 1118.01713 
L 113.213596 1141.813985 
L 112.599943 804.032876 
L 111.986289 537.823344 
L 111.372636 343.16612 
L 110.758983 219.805556 
L 110.145329 164.674256 
L 109.531676 150.705376 
L 108.918022 105.771745 
L 108.304369 77.911422 
L 107.690716 68.929278 
L 107.077062 68.387528 
L 106.463409 69.434972 
L 105.849755 70.146963 
L 105.236102 70.134785 
L 104.622449 71.571943 
L 104.008795 68.162267 
L 103.395142 70.584191 
L 102.781488 85.953198 
L 102.167835 125.338133 
L 101.554182 189.606507 
L 100.940528 302.684476 
L 100.326875 238.137751 
L 99.713221 172.947291 
L 99.099568 175.316178 
L 98.485915 166.816535 
L 97.872261 201.065561 
L 97.258608 306.767402 
L 96.644954 413.910015 
L 96.031301 261.89729 
L 95.417647 181.082299 
L 94.803994 171.840441 
L 94.190341 234.171717 
L 93.576687 368.076126 
L 92.963034 573.553669 
L 92.34938 733.80693 
L 91.735727 484.749577 
L 91.122074 307.237301 
L 90.50842 201.298159 
L 89.894767 166.932147 
L 89.281113 203.859889 
L 88.66746 171.597744 
L 88.053807 113.694554 
L 87.440153 80.201159 
L 86.8265 64.311031 
L 86.212846 65.13831 
L 85.599193 69.854857 
L 84.98554 69.086824 
L 84.371886 63.272867 
L 83.758233 66.055622 
L 83.144579 87.222814 
L 82.530926 126.563348 
L 81.917273 195.390115 
L 81.303619 310.330767 
L 80.689966 491.01022 
L 80.076312 433.282387 
L 79.462659 273.802316 
L 78.849006 185.895341 
L 78.235352 169.477387 
L 77.621699 177.889894 
L 77.008045 156.321275 
L 76.394392 194.398877 
L 75.780739 298.127818 
L 75.167085 279.639329 
L 74.553432 180.300799 
L 73.939778 148.450997 
L 73.326125 164.286388 
L 72.712472 174.524499 
L 72.098818 166.599227 
L 71.485165 150.157892 
L 70.871511 141.289255 
L 70.257858 111.258322 
L 69.644204 75.498471 
L 69.030551 59.021605 
L 68.416898 69.170521 
L 67.803244 102.639787 
L 67.189591 157.204282 
L 66.575937 245.571698 
z
" clip-path="url(#pc0367d129e)" style="fill: #4c72b0; fill-opacity: 0.25; stroke: #4c72b0; stroke-width: 0.3"/>
   </g>
   <g id="patch_3">
    <path d="M 52.282462 171.508862 
L 52.282462 5.188862 
" style="fill: none"/>
   </g>
   <g id="patch_4">
    <path d="M 387.082462 171.508862 
L 387.082462 5.188862 
" style="fill: none"/>
   </g>
   <g id="patch_5">
    <path d="M 52.282462 171.508862 
L 387.082462 171.508862 
" style="fill: none"/>
   </g>
   <g id="patch_6">
    <path d="M 52.282462 5.188862 
L 387.082462 5.188862 
" style="fill: none"/>
   </g>
   <g id="text_14">
    <!-- 0 -->
    <g transform="translate(69.007739 59.36594) scale(0.1 -0.1)">
     <use xlink:href="#CMR17-30" transform="scale(0.996264)"/>
    </g>
   </g>
   <g id="text_15">
    <!-- 1 -->
    <g transform="translate(85.347735 58.15109) scale(0.1 -0.1)">
     <use xlink:href="#CMR17-31" transform="scale(0.996264)"/>
    </g>
   </g>
   <g id="text_16">
    <!-- 2 -->
    <g transform="translate(105.665645 60.33791) scale(0.1 -0.1)">
     <use xlink:href="#CMR17-32" transform="scale(0.996264)"/>
    </g>
   </g>
   <g id="text_17">
    <!-- 3 -->
    <g transform="translate(122.381473 62.404611) scale(0.1 -0.1)">
     <defs>
      <path id="CMR17-33" d="M 1414 2157 
C 1984 2157 2234 1662 2234 1090 
C 2234 320 1824 25 1453 25 
C 1114 25 563 194 390 693 
C 422 680 454 680 486 680 
C 640 680 755 782 755 948 
C 755 1133 614 1216 486 1216 
C 378 1216 211 1165 211 926 
C 211 335 787 -128 1466 -128 
C 2176 -128 2720 430 2720 1085 
C 2720 1707 2208 2157 1600 2227 
C 2086 2328 2554 2756 2554 3329 
C 2554 3820 2048 4179 1472 4179 
C 890 4179 378 3829 378 3329 
C 378 3110 544 3072 627 3072 
C 762 3072 877 3155 877 3321 
C 877 3486 762 3569 627 3569 
C 602 3569 570 3569 544 3557 
C 730 3959 1235 4032 1459 4032 
C 1683 4032 2106 3925 2106 3320 
C 2106 3143 2080 2828 1862 2550 
C 1670 2304 1453 2304 1242 2284 
C 1210 2284 1062 2269 1037 2269 
C 992 2263 966 2257 966 2208 
C 966 2163 973 2157 1101 2157 
L 1414 2157 
z
" transform="scale(0.015625)"/>
     </defs>
     <use xlink:href="#CMR17-33" transform="scale(0.996264)"/>
    </g>
   </g>
   <g id="text_18">
    <!-- 4 -->
    <g transform="translate(135.97346 62.741096) scale(0.1 -0.1)">
     <use xlink:href="#CMR17-34" transform="scale(0.996264)"/>
    </g>
   </g>
   <g id="text_19">
    <!-- 5 -->
    <g transform="translate(162.377041 63.490481) scale(0.1 -0.1)">
     <defs>
      <path id="CMR17-35" d="M 730 3692 
C 794 3666 1056 3584 1325 3584 
C 1920 3584 2246 3911 2432 4100 
C 2432 4157 2432 4192 2394 4192 
C 2387 4192 2374 4192 2323 4163 
C 2099 4058 1837 3973 1517 3973 
C 1325 3973 1037 3999 723 4139 
C 653 4171 640 4171 634 4171 
C 602 4171 595 4164 595 4037 
L 595 2203 
C 595 2089 595 2057 659 2057 
C 691 2057 704 2070 736 2114 
C 941 2401 1222 2522 1542 2522 
C 1766 2522 2246 2382 2246 1289 
C 2246 1085 2246 715 2054 421 
C 1894 159 1645 25 1370 25 
C 947 25 518 320 403 814 
C 429 807 480 795 506 795 
C 589 795 749 840 749 1038 
C 749 1210 627 1280 506 1280 
C 358 1280 262 1190 262 1011 
C 262 454 704 -128 1382 -128 
C 2042 -128 2669 440 2669 1264 
C 2669 2030 2170 2624 1549 2624 
C 1222 2624 947 2503 730 2274 
L 730 3692 
z
" transform="scale(0.015625)"/>
     </defs>
     <use xlink:href="#CMR17-35" transform="scale(0.996264)"/>
    </g>
   </g>
   <g id="text_20">
    <!-- 6 -->
    <g transform="translate(150.16868 63.587779) scale(0.1 -0.1)">
     <use xlink:href="#CMR17-36" transform="scale(0.996264)"/>
    </g>
   </g>
   <g id="text_21">
    <!-- 7 -->
    <g transform="translate(187.709786 64.534035) scale(0.1 -0.1)">
     <defs>
      <path id="CMR17-37" d="M 2886 3941 
L 2886 4081 
L 1382 4081 
C 634 4081 621 4165 595 4288 
L 480 4288 
L 294 3094 
L 410 3094 
C 429 3215 474 3540 550 3661 
C 589 3712 1062 3712 1171 3712 
L 2579 3712 
L 1869 2661 
C 1395 1954 1069 999 1069 165 
C 1069 89 1069 -128 1299 -128 
C 1530 -128 1530 89 1530 171 
L 1530 465 
C 1530 1508 1709 2196 2003 2636 
L 2886 3941 
z
" transform="scale(0.015625)"/>
     </defs>
     <use xlink:href="#CMR17-37" transform="scale(0.996264)"/>
    </g>
   </g>
   <g id="text_22">
    <!-- 8 -->
    <g transform="translate(175.983637 65.449198) scale(0.1 -0.1)">
     <use xlink:href="#CMR17-38" transform="scale(0.996264)"/>
    </g>
   </g>
   <g id="text_23">
    <!-- 9 -->
    <g transform="translate(201.748669 66.505919) scale(0.1 -0.1)">
     <defs>
      <path id="CMR17-39" d="M 2253 1864 
C 2253 464 1670 31 1190 31 
C 1043 31 685 31 538 294 
C 704 268 826 357 826 518 
C 826 692 685 749 595 749 
C 538 749 365 723 365 506 
C 365 71 742 -128 1203 -128 
C 1939 -128 2688 674 2688 2073 
C 2688 3817 1971 4179 1485 4179 
C 851 4179 243 3628 243 2778 
C 243 1991 762 1408 1414 1408 
C 1952 1408 2189 1903 2253 2112 
L 2253 1864 
z
M 1427 1510 
C 1254 1510 1011 1542 813 1922 
C 678 2169 678 2461 678 2771 
C 678 3146 678 3405 858 3684 
C 947 3817 1114 4032 1485 4032 
C 2240 4032 2240 2885 2240 2632 
C 2240 2182 2035 1510 1427 1510 
z
" transform="scale(0.015625)"/>
     </defs>
     <use xlink:href="#CMR17-39" transform="scale(0.996264)"/>
    </g>
   </g>
   <g id="text_24">
    <!-- 10 -->
    <g transform="translate(214.098737 66.252983) scale(0.1 -0.1)">
     <use xlink:href="#CMR17-31" transform="scale(0.996264)"/>
     <use xlink:href="#CMR17-30" transform="translate(45.690477 0) scale(0.996264)"/>
    </g>
   </g>
   <g id="text_25">
    <!-- 11 -->
    <g transform="translate(226.471874 66.614062) scale(0.1 -0.1)">
     <use xlink:href="#CMR17-31" transform="scale(0.996264)"/>
     <use xlink:href="#CMR17-31" transform="translate(45.690477 0) scale(0.996264)"/>
    </g>
   </g>
   <g id="text_26">
    <!-- 12 -->
    <g transform="translate(238.536664 66.279118) scale(0.1 -0.1)">
     <use xlink:href="#CMR17-31" transform="scale(0.996264)"/>
     <use xlink:href="#CMR17-32" transform="translate(45.690477 0) scale(0.996264)"/>
    </g>
   </g>
   <g id="text_27">
    <!-- 13 -->
    <g transform="translate(250.387215 66.821536) scale(0.1 -0.1)">
     <use xlink:href="#CMR17-31" transform="scale(0.996264)"/>
     <use xlink:href="#CMR17-33" transform="translate(45.690477 0) scale(0.996264)"/>
    </g>
   </g>
   <g id="text_28">
    <!-- 14 -->
    <g transform="translate(261.795116 66.933804) scale(0.1 -0.1)">
     <use xlink:href="#CMR17-31" transform="scale(0.996264)"/>
     <use xlink:href="#CMR17-34" transform="translate(45.690477 0) scale(0.996264)"/>
    </g>
   </g>
   <g id="text_29">
    <!-- 15 -->
    <g transform="translate(274.413624 66.970299) scale(0.1 -0.1)">
     <use xlink:href="#CMR17-31" transform="scale(0.996264)"/>
     <use xlink:href="#CMR17-35" transform="translate(45.690477 0) scale(0.996264)"/>
    </g>
   </g>
   <g id="text_30">
    <!-- 16 -->
    <g transform="translate(285.267953 68.724471) scale(0.1 -0.1)">
     <use xlink:href="#CMR17-31" transform="scale(0.996264)"/>
     <use xlink:href="#CMR17-36" transform="translate(45.690477 0) scale(0.996264)"/>
    </g>
   </g>
   <g id="text_31">
    <!-- 17 -->
    <g transform="translate(295.829825 68.54406) scale(0.1 -0.1)">
     <use xlink:href="#CMR17-31" transform="scale(0.996264)"/>
     <use xlink:href="#CMR17-37" transform="translate(45.690477 0) scale(0.996264)"/>
    </g>
   </g>
   <g id="text_32">
    <!-- 18 -->
    <g transform="translate(305.876795 70.069045) scale(0.1 -0.1)">
     <use xlink:href="#CMR17-31" transform="scale(0.996264)"/>
     <use xlink:href="#CMR17-38" transform="translate(45.690477 0) scale(0.996264)"/>
    </g>
   </g>
   <g id="text_33">
    <!-- 19 -->
    <g transform="translate(315.378062 70.201507) scale(0.1 -0.1)">
     <use xlink:href="#CMR17-31" transform="scale(0.996264)"/>
     <use xlink:href="#CMR17-39" transform="translate(45.690477 0) scale(0.996264)"/>
    </g>
   </g>
   <g id="text_34">
    <!-- 20 -->
    <g transform="translate(323.537196 70.927765) scale(0.1 -0.1)">
     <use xlink:href="#CMR17-32" transform="scale(0.996264)"/>
     <use xlink:href="#CMR17-30" transform="translate(45.690477 0) scale(0.996264)"/>
    </g>
   </g>
   <g id="text_35">
    <!-- 21 -->
    <g transform="translate(330.996124 72.657384) scale(0.1 -0.1)">
     <use xlink:href="#CMR17-32" transform="scale(0.996264)"/>
     <use xlink:href="#CMR17-31" transform="translate(45.690477 0) scale(0.996264)"/>
    </g>
   </g>
   <g id="text_36">
    <!-- 22 -->
    <g transform="translate(337.567876 74.095899) scale(0.1 -0.1)">
     <use xlink:href="#CMR17-32" transform="scale(0.996264)"/>
     <use xlink:href="#CMR17-32" transform="translate(45.690477 0) scale(0.996264)"/>
    </g>
   </g>
   <g id="text_37">
    <!-- 23 -->
    <g transform="translate(343.400709 73.757509) scale(0.1 -0.1)">
     <use xlink:href="#CMR17-32" transform="scale(0.996264)"/>
     <use xlink:href="#CMR17-33" transform="translate(45.690477 0) scale(0.996264)"/>
    </g>
   </g>
   <g id="text_38">
    <!-- 24 -->
    <g transform="translate(349.245828 75.661372) scale(0.1 -0.1)">
     <use xlink:href="#CMR17-32" transform="scale(0.996264)"/>
     <use xlink:href="#CMR17-34" transform="translate(45.690477 0) scale(0.996264)"/>
    </g>
   </g>
   <g id="text_39">
    <!-- 25 -->
    <g transform="translate(355.006343 78.582785) scale(0.1 -0.1)">
     <use xlink:href="#CMR17-32" transform="scale(0.996264)"/>
     <use xlink:href="#CMR17-35" transform="translate(45.690477 0) scale(0.996264)"/>
    </g>
   </g>
   <g id="text_40">
    <!-- 26 -->
    <g transform="translate(361.805538 79.451082) scale(0.1 -0.1)">
     <use xlink:href="#CMR17-32" transform="scale(0.996264)"/>
     <use xlink:href="#CMR17-36" transform="translate(45.690477 0) scale(0.996264)"/>
    </g>
   </g>
   <g id="text_41">
    <!-- 27+ -->
    <g transform="translate(368.150271 79.265684) scale(0.1 -0.1)">
     <defs>
      <path id="CMR17-2b" d="M 2413 1472 
L 4109 1472 
C 4198 1472 4307 1472 4307 1580 
C 4307 1695 4205 1695 4109 1695 
L 2413 1695 
L 2413 3386 
C 2413 3475 2413 3584 2304 3584 
C 2189 3584 2189 3482 2189 3386 
L 2189 1695 
L 493 1695 
C 403 1695 294 1695 294 1587 
C 294 1472 397 1472 493 1472 
L 2189 1472 
L 2189 -218 
C 2189 -307 2189 -416 2298 -416 
C 2413 -416 2413 -314 2413 -218 
L 2413 1472 
z
" transform="scale(0.015625)"/>
     </defs>
     <use xlink:href="#CMR17-32" transform="scale(0.996264)"/>
     <use xlink:href="#CMR17-37" transform="translate(45.690477 0) scale(0.996264)"/>
     <use xlink:href="#CMR17-2b" transform="translate(91.380954 0) scale(0.996264)"/>
    </g>
   </g>
   <g id="text_42">
    <!-- UMAP 1D -->
    <g style="fill: #262626" transform="translate(286.453633 22.007411) scale(0.15 -0.15)">
     <defs>
      <path id="CMR17-55" d="M 3456 1433 
C 3456 579 2899 38 2291 38 
C 1965 38 1670 210 1491 477 
C 1286 783 1261 1178 1261 1401 
L 1261 3874 
C 1261 4160 1331 4160 1773 4160 
L 1773 4320 
C 1587 4320 1248 4320 1050 4320 
C 851 4320 512 4320 326 4320 
L 326 4160 
C 768 4160 838 4160 838 3874 
L 838 1433 
C 838 516 1536 -128 2278 -128 
C 3110 -128 3590 719 3590 1344 
L 3590 3766 
C 3590 4122 3917 4160 4102 4160 
L 4102 4326 
C 3955 4320 3686 4320 3526 4320 
C 3366 4320 3091 4320 2944 4326 
L 2944 4160 
C 3456 4160 3456 3861 3456 3702 
L 3456 1433 
z
" transform="scale(0.015625)"/>
      <path id="CMR17-4d" d="M 1338 4224 
C 1299 4320 1293 4320 1158 4320 
L 339 4320 
L 339 4160 
C 781 4160 851 4160 851 3875 
L 851 610 
C 851 451 851 153 339 153 
L 339 -13 
C 486 0 755 0 915 0 
C 1075 0 1344 0 1491 -13 
L 1491 153 
C 979 153 979 451 979 610 
L 979 4135 
L 986 4135 
L 2490 89 
C 2515 25 2528 -13 2579 -13 
C 2630 -13 2643 25 2669 89 
L 4186 4166 
L 4192 4166 
L 4192 438 
C 4192 153 4122 153 3680 153 
L 3680 -13 
C 3853 0 4198 0 4384 0 
C 4570 0 4922 0 5094 -13 
L 5094 153 
C 4653 153 4582 153 4582 438 
L 4582 3875 
C 4582 4160 4653 4160 5094 4160 
L 5094 4320 
L 4282 4320 
C 4147 4320 4141 4314 4102 4218 
L 2720 502 
L 1338 4224 
z
" transform="scale(0.015625)"/>
      <path id="CMR17-41" d="M 2323 4378 
C 2291 4461 2278 4480 2214 4480 
C 2150 4480 2138 4461 2106 4378 
L 749 566 
C 627 223 371 153 147 153 
L 147 -13 
C 262 0 518 0 640 0 
C 800 0 1056 0 1210 -13 
L 1210 153 
C 909 153 864 361 864 439 
C 864 497 877 530 890 569 
L 1229 1536 
L 2906 1536 
L 3290 442 
C 3322 365 3322 352 3322 327 
C 3322 153 3046 153 2925 153 
L 2925 0 
C 3110 0 3443 0 3642 0 
C 3808 0 4128 0 4282 -13 
L 4282 153 
C 3942 153 3827 153 3744 387 
L 2323 4378 
z
M 2067 3893 
L 2848 1702 
L 1286 1702 
L 2067 3893 
z
" transform="scale(0.015625)"/>
      <path id="CMR17-50" d="M 1267 2042 
L 2291 2042 
C 3117 2042 3718 2578 3718 3184 
C 3718 3791 3130 4352 2291 4352 
L 333 4352 
L 333 4186 
C 774 4186 845 4186 845 3899 
L 845 446 
C 845 160 774 160 333 160 
L 333 0 
C 518 0 858 0 1056 0 
C 1254 0 1594 0 1779 0 
L 1779 160 
C 1338 160 1267 160 1267 446 
L 1267 2042 
z
M 1254 2176 
L 1254 3938 
C 1254 4155 1267 4186 1523 4186 
L 2170 4186 
C 2995 4186 3232 3714 3232 3184 
C 3232 2604 2950 2176 2170 2176 
L 1254 2176 
z
" transform="scale(0.015625)"/>
     </defs>
     <use xlink:href="#CMR17-55" transform="scale(0.996264)"/>
     <use xlink:href="#CMR17-4d" transform="translate(69.07243 0) scale(0.996264)"/>
     <use xlink:href="#CMR17-41" transform="translate(153.75937 0) scale(0.996264)"/>
     <use xlink:href="#CMR17-50" transform="translate(222.8318 0) scale(0.996264)"/>
     <use xlink:href="#CMR17-31" transform="translate(315.494067 0) scale(0.996264)"/>
     <use xlink:href="#CMR17-44" transform="translate(361.184544 0) scale(0.996264)"/>
    </g>
   </g>
  </g>
 </g>
 <defs>
  <clipPath id="pc0367d129e">
   <rect x="52.282462" y="5.188862" width="334.8" height="166.32"/>
  </clipPath>
 </defs>
</svg>
