<?xml version="1.0" encoding="utf-8" standalone="no"?>
<!DOCTYPE svg PUBLIC "-//W3C//DTD SVG 1.1//EN"
  "http://www.w3.org/Graphics/SVG/1.1/DTD/svg11.dtd">
<svg xmlns:xlink="http://www.w3.org/1999/xlink" width="401.482462pt" height="195.755801pt" viewBox="0 0 401.482462 195.755801" xmlns="http://www.w3.org/2000/svg" version="1.1">
 <metadata>
  <rdf:RDF xmlns:dc="http://purl.org/dc/elements/1.1/" xmlns:cc="http://creativecommons.org/ns#" xmlns:rdf="http://www.w3.org/1999/02/22-rdf-syntax-ns#">
   <cc:Work>
    <dc:type rdf:resource="http://purl.org/dc/dcmitype/StillImage"/>
    <dc:date>2024-10-09T15:13:58.687825</dc:date>
    <dc:format>image/svg+xml</dc:format>
    <dc:creator>
     <cc:Agent>
      <dc:title>Matplotlib v3.9.2, https://matplotlib.org/</dc:title>
     </cc:Agent>
    </dc:creator>
   </cc:Work>
  </rdf:RDF>
 </metadata>
 <defs>
  <style type="text/css">*{stroke-linejoin: round; stroke-linecap: butt}</style>
 </defs>
 <g id="figure_1">
  <g id="patch_1">
   <path d="M 0 195.755801 
L 401.482462 195.755801 
L 401.482462 0 
L 0 0 
z
" style="fill: #ffffff"/>
  </g>
  <g id="axes_1">
   <g id="patch_2">
    <path d="M 59.482462 150.988862 
L 394.282462 150.988862 
L 394.282462 12.388862 
L 59.482462 12.388862 
z
" style="fill: #eaeaf2"/>
   </g>
   <g id="matplotlib.axis_1">
    <g id="xtick_1">
     <g id="line2d_1">
      <path d="M 74.700644 150.988862 
L 74.700644 12.388862 
" clip-path="url(#p5a503f3109)" style="fill: none; stroke: #ffffff; stroke-linecap: round"/>
     </g>
     <g id="line2d_2"/>
     <g id="text_1">
      <!-- $\mathdefault{0.0}$ -->
      <g style="fill: #262626" transform="translate(65.352118 168.366587) scale(0.15 -0.15)">
       <defs>
        <path id="CMR17-30" d="M 2688 2025 
C 2688 2416 2682 3080 2413 3591 
C 2176 4039 1798 4198 1466 4198 
C 1158 4198 768 4058 525 3597 
C 269 3118 243 2524 243 2025 
C 243 1661 250 1106 448 619 
C 723 -39 1216 -128 1466 -128 
C 1760 -128 2208 -7 2470 600 
C 2662 1042 2688 1559 2688 2025 
z
M 1466 -26 
C 1056 -26 813 325 723 812 
C 653 1188 653 1738 653 2096 
C 653 2588 653 2997 736 3387 
C 858 3929 1216 4096 1466 4096 
C 1728 4096 2067 3923 2189 3400 
C 2272 3036 2278 2607 2278 2096 
C 2278 1680 2278 1169 2202 792 
C 2067 95 1690 -26 1466 -26 
z
" transform="scale(0.015625)"/>
        <path id="CMMI12-3a" d="M 1178 307 
C 1178 492 1024 619 870 619 
C 685 619 557 466 557 313 
C 557 128 710 0 864 0 
C 1050 0 1178 153 1178 307 
z
" transform="scale(0.015625)"/>
       </defs>
       <use xlink:href="#CMR17-30" transform="scale(0.996264)"/>
       <use xlink:href="#CMMI12-3a" transform="translate(45.690477 0) scale(0.996264)"/>
       <use xlink:href="#CMR17-30" transform="translate(72.787654 0) scale(0.996264)"/>
      </g>
     </g>
    </g>
    <g id="xtick_2">
     <g id="line2d_3">
      <path d="M 135.573371 150.988862 
L 135.573371 12.388862 
" clip-path="url(#p5a503f3109)" style="fill: none; stroke: #ffffff; stroke-linecap: round"/>
     </g>
     <g id="line2d_4"/>
     <g id="text_2">
      <!-- $\mathdefault{0.2}$ -->
      <g style="fill: #262626" transform="translate(126.224845 168.366587) scale(0.15 -0.15)">
       <defs>
        <path id="CMR17-32" d="M 2669 989 
L 2554 989 
C 2490 536 2438 459 2413 420 
C 2381 369 1920 369 1830 369 
L 602 369 
C 832 619 1280 1072 1824 1597 
C 2214 1967 2669 2402 2669 3035 
C 2669 3790 2067 4224 1395 4224 
C 691 4224 262 3604 262 3030 
C 262 2780 448 2748 525 2748 
C 589 2748 781 2787 781 3010 
C 781 3207 614 3264 525 3264 
C 486 3264 448 3258 422 3245 
C 544 3790 915 4058 1306 4058 
C 1862 4058 2227 3617 2227 3035 
C 2227 2479 1901 2000 1536 1584 
L 262 146 
L 262 0 
L 2515 0 
L 2669 989 
z
" transform="scale(0.015625)"/>
       </defs>
       <use xlink:href="#CMR17-30" transform="scale(0.996264)"/>
       <use xlink:href="#CMMI12-3a" transform="translate(45.690477 0) scale(0.996264)"/>
       <use xlink:href="#CMR17-32" transform="translate(72.787654 0) scale(0.996264)"/>
      </g>
     </g>
    </g>
    <g id="xtick_3">
     <g id="line2d_5">
      <path d="M 196.446098 150.988862 
L 196.446098 12.388862 
" clip-path="url(#p5a503f3109)" style="fill: none; stroke: #ffffff; stroke-linecap: round"/>
     </g>
     <g id="line2d_6"/>
     <g id="text_3">
      <!-- $\mathdefault{0.4}$ -->
      <g style="fill: #262626" transform="translate(187.097572 168.366587) scale(0.15 -0.15)">
       <defs>
        <path id="CMR17-34" d="M 2150 4122 
C 2150 4256 2144 4256 2029 4256 
L 128 1254 
L 128 1088 
L 1779 1088 
L 1779 457 
C 1779 224 1766 160 1318 160 
L 1197 160 
L 1197 0 
C 1402 0 1747 0 1965 0 
C 2182 0 2528 0 2733 0 
L 2733 160 
L 2611 160 
C 2163 160 2150 224 2150 457 
L 2150 1088 
L 2803 1088 
L 2803 1254 
L 2150 1254 
L 2150 4122 
z
M 1798 3703 
L 1798 1254 
L 256 1254 
L 1798 3703 
z
" transform="scale(0.015625)"/>
       </defs>
       <use xlink:href="#CMR17-30" transform="scale(0.996264)"/>
       <use xlink:href="#CMMI12-3a" transform="translate(45.690477 0) scale(0.996264)"/>
       <use xlink:href="#CMR17-34" transform="translate(72.787654 0) scale(0.996264)"/>
      </g>
     </g>
    </g>
    <g id="xtick_4">
     <g id="line2d_7">
      <path d="M 257.318826 150.988862 
L 257.318826 12.388862 
" clip-path="url(#p5a503f3109)" style="fill: none; stroke: #ffffff; stroke-linecap: round"/>
     </g>
     <g id="line2d_8"/>
     <g id="text_4">
      <!-- $\mathdefault{0.6}$ -->
      <g style="fill: #262626" transform="translate(247.970299 168.366587) scale(0.15 -0.15)">
       <defs>
        <path id="CMR17-36" d="M 678 2176 
C 678 3690 1395 4032 1811 4032 
C 1946 4032 2272 4009 2400 3776 
C 2298 3776 2106 3776 2106 3553 
C 2106 3381 2246 3323 2336 3323 
C 2394 3323 2566 3348 2566 3560 
C 2566 3954 2246 4179 1805 4179 
C 1043 4179 243 3390 243 1984 
C 243 253 966 -128 1478 -128 
C 2099 -128 2688 427 2688 1283 
C 2688 2081 2170 2662 1517 2662 
C 1126 2662 838 2407 678 1960 
L 678 2176 
z
M 1478 25 
C 691 25 691 1200 691 1436 
C 691 1896 909 2560 1504 2560 
C 1613 2560 1926 2560 2138 2120 
C 2253 1870 2253 1609 2253 1289 
C 2253 944 2253 690 2118 434 
C 1978 171 1773 25 1478 25 
z
" transform="scale(0.015625)"/>
       </defs>
       <use xlink:href="#CMR17-30" transform="scale(0.996264)"/>
       <use xlink:href="#CMMI12-3a" transform="translate(45.690477 0) scale(0.996264)"/>
       <use xlink:href="#CMR17-36" transform="translate(72.787654 0) scale(0.996264)"/>
      </g>
     </g>
    </g>
    <g id="xtick_5">
     <g id="line2d_9">
      <path d="M 318.191553 150.988862 
L 318.191553 12.388862 
" clip-path="url(#p5a503f3109)" style="fill: none; stroke: #ffffff; stroke-linecap: round"/>
     </g>
     <g id="line2d_10"/>
     <g id="text_5">
      <!-- $\mathdefault{0.8}$ -->
      <g style="fill: #262626" transform="translate(308.843027 168.366587) scale(0.15 -0.15)">
       <defs>
        <path id="CMR17-38" d="M 1741 2264 
C 2144 2467 2554 2773 2554 3263 
C 2554 3841 1990 4179 1472 4179 
C 890 4179 378 3759 378 3180 
C 378 3021 416 2747 666 2505 
C 730 2442 998 2251 1171 2130 
C 883 1983 211 1634 211 934 
C 211 279 838 -128 1459 -128 
C 2144 -128 2720 362 2720 1010 
C 2720 1590 2330 1857 2074 2029 
L 1741 2264 
z
M 902 2822 
C 851 2854 595 3051 595 3351 
C 595 3739 998 4032 1459 4032 
C 1965 4032 2336 3676 2336 3262 
C 2336 2669 1670 2331 1638 2331 
C 1632 2331 1626 2331 1574 2370 
L 902 2822 
z
M 2080 1519 
C 2176 1449 2483 1240 2483 851 
C 2483 381 2010 25 1472 25 
C 890 25 448 438 448 940 
C 448 1443 838 1862 1280 2060 
L 2080 1519 
z
" transform="scale(0.015625)"/>
       </defs>
       <use xlink:href="#CMR17-30" transform="scale(0.996264)"/>
       <use xlink:href="#CMMI12-3a" transform="translate(45.690477 0) scale(0.996264)"/>
       <use xlink:href="#CMR17-38" transform="translate(72.787654 0) scale(0.996264)"/>
      </g>
     </g>
    </g>
    <g id="xtick_6">
     <g id="line2d_11">
      <path d="M 379.06428 150.988862 
L 379.06428 12.388862 
" clip-path="url(#p5a503f3109)" style="fill: none; stroke: #ffffff; stroke-linecap: round"/>
     </g>
     <g id="line2d_12"/>
     <g id="text_6">
      <!-- $\mathdefault{1.0}$ -->
      <g style="fill: #262626" transform="translate(369.715754 168.366587) scale(0.15 -0.15)">
       <defs>
        <path id="CMR17-31" d="M 1702 4058 
C 1702 4192 1696 4192 1606 4192 
C 1357 3916 979 3827 621 3827 
C 602 3827 570 3827 563 3808 
C 557 3795 557 3782 557 3648 
C 755 3648 1088 3686 1344 3839 
L 1344 461 
C 1344 236 1331 160 781 160 
L 589 160 
L 589 0 
C 896 0 1216 0 1523 0 
C 1830 0 2150 0 2458 0 
L 2458 160 
L 2266 160 
C 1715 160 1702 230 1702 458 
L 1702 4058 
z
" transform="scale(0.015625)"/>
       </defs>
       <use xlink:href="#CMR17-31" transform="scale(0.996264)"/>
       <use xlink:href="#CMMI12-3a" transform="translate(45.690477 0) scale(0.996264)"/>
       <use xlink:href="#CMR17-30" transform="translate(72.787654 0) scale(0.996264)"/>
      </g>
     </g>
    </g>
    <g id="text_7">
     <!-- $s_1$ -->
     <g style="fill: #262626" transform="translate(220.821025 185.650057) scale(0.15 -0.15)">
      <defs>
       <path id="CMMI12-73" d="M 1459 1280 
C 1568 1261 1741 1223 1779 1216 
C 1862 1192 2150 1090 2150 783 
C 2150 586 1971 70 1229 70 
C 1094 70 614 70 486 436 
C 742 404 870 603 870 745 
C 870 880 781 950 653 950 
C 512 950 326 841 326 552 
C 326 173 710 -64 1222 -64 
C 2195 -64 2483 651 2483 984 
C 2483 1079 2483 1258 2278 1462 
C 2118 1616 1965 1648 1619 1718 
C 1446 1756 1171 1814 1171 2101 
C 1171 2229 1286 2689 1894 2689 
C 2163 2689 2426 2589 2490 2368 
C 2208 2368 2195 2125 2195 2119 
C 2195 1984 2317 1946 2374 1946 
C 2464 1946 2643 2015 2643 2281 
C 2643 2545 2400 2816 1901 2816 
C 1062 2816 838 2160 838 1899 
C 838 1414 1312 1312 1459 1280 
z
" transform="scale(0.015625)"/>
      </defs>
      <use xlink:href="#CMMI12-73" transform="scale(0.996264)"/>
      <use xlink:href="#CMR17-31" transform="translate(45.950048 -14.943915) scale(0.697382)"/>
     </g>
    </g>
   </g>
   <g id="matplotlib.axis_2">
    <g id="ytick_1">
     <g id="line2d_13">
      <path d="M 59.482462 150.988862 
L 394.282462 150.988862 
" clip-path="url(#p5a503f3109)" style="fill: none; stroke: #ffffff; stroke-linecap: round"/>
     </g>
     <g id="line2d_14"/>
     <g id="text_8">
      <!-- $\mathdefault{10^{-2}}$ -->
      <g style="fill: #262626" transform="translate(24.483469 156.177725) scale(0.15 -0.15)">
       <defs>
        <path id="CMSY10-0" d="M 4218 1472 
C 4326 1472 4442 1472 4442 1600 
C 4442 1728 4326 1728 4218 1728 
L 755 1728 
C 646 1728 531 1728 531 1600 
C 531 1472 646 1472 755 1472 
L 4218 1472 
z
" transform="scale(0.015625)"/>
       </defs>
       <use xlink:href="#CMR17-31" transform="scale(0.996264)"/>
       <use xlink:href="#CMR17-30" transform="translate(45.690477 0) scale(0.996264)"/>
       <use xlink:href="#CMSY10-0" transform="translate(91.380954 36.153639) scale(0.697382)"/>
       <use xlink:href="#CMR17-32" transform="translate(145.621947 36.153639) scale(0.697382)"/>
      </g>
     </g>
    </g>
    <g id="ytick_2">
     <g id="line2d_15">
      <path d="M 59.482462 116.338862 
L 394.282462 116.338862 
" clip-path="url(#p5a503f3109)" style="fill: none; stroke: #ffffff; stroke-linecap: round"/>
     </g>
     <g id="line2d_16"/>
     <g id="text_9">
      <!-- $\mathdefault{10^{-1}}$ -->
      <g style="fill: #262626" transform="translate(24.483469 121.527725) scale(0.15 -0.15)">
       <use xlink:href="#CMR17-31" transform="scale(0.996264)"/>
       <use xlink:href="#CMR17-30" transform="translate(45.690477 0) scale(0.996264)"/>
       <use xlink:href="#CMSY10-0" transform="translate(91.380954 36.153639) scale(0.697382)"/>
       <use xlink:href="#CMR17-31" transform="translate(145.621947 36.153639) scale(0.697382)"/>
      </g>
     </g>
    </g>
    <g id="ytick_3">
     <g id="line2d_17">
      <path d="M 59.482462 81.688862 
L 394.282462 81.688862 
" clip-path="url(#p5a503f3109)" style="fill: none; stroke: #ffffff; stroke-linecap: round"/>
     </g>
     <g id="line2d_18"/>
     <g id="text_10">
      <!-- $\mathdefault{10^{0}}$ -->
      <g style="fill: #262626" transform="translate(32.619615 86.877725) scale(0.15 -0.15)">
       <use xlink:href="#CMR17-31" transform="scale(0.996264)"/>
       <use xlink:href="#CMR17-30" transform="translate(45.690477 0) scale(0.996264)"/>
       <use xlink:href="#CMR17-30" transform="translate(91.380954 36.153639) scale(0.697382)"/>
      </g>
     </g>
    </g>
    <g id="ytick_4">
     <g id="line2d_19">
      <path d="M 59.482462 47.038862 
L 394.282462 47.038862 
" clip-path="url(#p5a503f3109)" style="fill: none; stroke: #ffffff; stroke-linecap: round"/>
     </g>
     <g id="line2d_20"/>
     <g id="text_11">
      <!-- $\mathdefault{10^{1}}$ -->
      <g style="fill: #262626" transform="translate(32.619615 52.227725) scale(0.15 -0.15)">
       <use xlink:href="#CMR17-31" transform="scale(0.996264)"/>
       <use xlink:href="#CMR17-30" transform="translate(45.690477 0) scale(0.996264)"/>
       <use xlink:href="#CMR17-31" transform="translate(91.380954 36.153639) scale(0.697382)"/>
      </g>
     </g>
    </g>
    <g id="ytick_5">
     <g id="line2d_21">
      <path d="M 59.482462 12.388862 
L 394.282462 12.388862 
" clip-path="url(#p5a503f3109)" style="fill: none; stroke: #ffffff; stroke-linecap: round"/>
     </g>
     <g id="line2d_22"/>
     <g id="text_12">
      <!-- $\mathdefault{10^{2}}$ -->
      <g style="fill: #262626" transform="translate(32.619615 17.577725) scale(0.15 -0.15)">
       <use xlink:href="#CMR17-31" transform="scale(0.996264)"/>
       <use xlink:href="#CMR17-30" transform="translate(45.690477 0) scale(0.996264)"/>
       <use xlink:href="#CMR17-32" transform="translate(91.380954 36.153639) scale(0.697382)"/>
      </g>
     </g>
    </g>
    <g id="ytick_6">
     <g id="line2d_23"/>
    </g>
    <g id="ytick_7">
     <g id="line2d_24"/>
    </g>
    <g id="ytick_8">
     <g id="line2d_25"/>
    </g>
    <g id="ytick_9">
     <g id="line2d_26"/>
    </g>
    <g id="ytick_10">
     <g id="line2d_27"/>
    </g>
    <g id="ytick_11">
     <g id="line2d_28"/>
    </g>
    <g id="ytick_12">
     <g id="line2d_29"/>
    </g>
    <g id="ytick_13">
     <g id="line2d_30"/>
    </g>
    <g id="ytick_14">
     <g id="line2d_31"/>
    </g>
    <g id="ytick_15">
     <g id="line2d_32"/>
    </g>
    <g id="ytick_16">
     <g id="line2d_33"/>
    </g>
    <g id="ytick_17">
     <g id="line2d_34"/>
    </g>
    <g id="ytick_18">
     <g id="line2d_35"/>
    </g>
    <g id="ytick_19">
     <g id="line2d_36"/>
    </g>
    <g id="ytick_20">
     <g id="line2d_37"/>
    </g>
    <g id="ytick_21">
     <g id="line2d_38"/>
    </g>
    <g id="ytick_22">
     <g id="line2d_39"/>
    </g>
    <g id="ytick_23">
     <g id="line2d_40"/>
    </g>
    <g id="ytick_24">
     <g id="line2d_41"/>
    </g>
    <g id="ytick_25">
     <g id="line2d_42"/>
    </g>
    <g id="ytick_26">
     <g id="line2d_43"/>
    </g>
    <g id="ytick_27">
     <g id="line2d_44"/>
    </g>
    <g id="ytick_28">
     <g id="line2d_45"/>
    </g>
    <g id="ytick_29">
     <g id="line2d_46"/>
    </g>
    <g id="ytick_30">
     <g id="line2d_47"/>
    </g>
    <g id="ytick_31">
     <g id="line2d_48"/>
    </g>
    <g id="ytick_32">
     <g id="line2d_49"/>
    </g>
    <g id="ytick_33">
     <g id="line2d_50"/>
    </g>
    <g id="ytick_34">
     <g id="line2d_51"/>
    </g>
    <g id="ytick_35">
     <g id="line2d_52"/>
    </g>
    <g id="ytick_36">
     <g id="line2d_53"/>
    </g>
    <g id="ytick_37">
     <g id="line2d_54"/>
    </g>
    <g id="text_13">
     <!-- Density -->
     <g style="fill: #262626" transform="translate(17.577725 106.014048) rotate(-90) scale(0.15 -0.15)">
      <defs>
       <path id="CMR17-44" d="M 333 4352 
L 333 4186 
C 774 4186 845 4186 845 3900 
L 845 452 
C 845 166 774 166 333 166 
L 333 0 
L 2368 0 
C 3398 0 4224 943 4224 2141 
C 4224 3346 3411 4352 2368 4352 
L 333 4352 
z
M 1523 166 
C 1267 166 1254 197 1254 414 
L 1254 3938 
C 1254 4155 1267 4186 1523 4186 
L 2240 4186 
C 2771 4186 3750 3874 3750 2141 
C 3750 1242 3488 879 3366 707 
C 3213 510 2848 166 2240 166 
L 1523 166 
z
" transform="scale(0.015625)"/>
       <path id="CMR17-65" d="M 2438 1472 
C 2464 1498 2464 1511 2464 1576 
C 2464 2238 2118 2816 1389 2816 
C 710 2816 173 2169 173 1383 
C 173 551 781 -64 1459 -64 
C 2176 -64 2458 607 2458 740 
C 2458 784 2419 784 2406 784 
C 2362 784 2355 771 2330 696 
C 2189 265 1837 51 1504 51 
C 1229 51 954 203 781 480 
C 582 803 582 1176 582 1472 
L 2438 1472 
z
M 589 1568 
C 634 2505 1126 2714 1382 2714 
C 1818 2714 2112 2297 2118 1568 
L 589 1568 
z
" transform="scale(0.015625)"/>
       <path id="CMR17-6e" d="M 2656 1933 
C 2656 2259 2592 2790 1837 2790 
C 1331 2790 1069 2400 973 2144 
L 966 2144 
L 966 2790 
L 211 2720 
L 211 2554 
C 589 2554 646 2515 646 2208 
L 646 428 
C 646 184 621 153 211 153 
L 211 -13 
C 365 0 646 0 813 0 
C 979 0 1267 0 1421 -13 
L 1421 153 
C 1011 153 986 178 986 428 
L 986 1658 
C 986 2247 1344 2688 1792 2688 
C 2266 2688 2317 2266 2317 1958 
L 2317 428 
C 2317 184 2291 153 1882 153 
L 1882 -13 
C 2035 0 2317 0 2483 0 
C 2650 0 2938 0 3091 -13 
L 3091 153 
C 2682 153 2656 178 2656 428 
L 2656 1933 
z
" transform="scale(0.015625)"/>
       <path id="CMR17-73" d="M 1978 2697 
C 1978 2813 1971 2819 1933 2819 
C 1907 2819 1901 2813 1824 2717 
C 1805 2691 1747 2626 1728 2601 
C 1523 2819 1235 2819 1126 2819 
C 416 2819 160 2447 160 2076 
C 160 1498 813 1365 998 1325 
C 1402 1243 1542 1217 1677 1101 
C 1760 1025 1901 884 1901 654 
C 1901 384 1747 38 1158 38 
C 602 38 403 460 288 1021 
C 269 1110 269 1117 218 1117 
C 166 1117 160 1110 160 983 
L 160 63 
C 160 -51 166 -58 205 -58 
C 237 -58 243 -51 275 0 
C 314 57 410 211 448 276 
C 576 103 800 -64 1158 -64 
C 1792 -64 2131 283 2131 784 
C 2131 1112 1958 1285 1875 1362 
C 1683 1561 1459 1606 1190 1657 
C 838 1735 390 1825 390 2217 
C 390 2383 480 2737 1126 2737 
C 1811 2737 1850 2094 1862 1888 
C 1869 1856 1901 1849 1920 1849 
C 1978 1849 1978 1869 1978 1978 
L 1978 2697 
z
" transform="scale(0.015625)"/>
       <path id="CMR17-69" d="M 992 3909 
C 992 4049 877 4170 730 4170 
C 589 4170 467 4056 467 3909 
C 467 3769 582 3648 730 3648 
C 870 3648 992 3763 992 3909 
z
M 243 2706 
L 243 2541 
C 602 2541 653 2502 653 2197 
L 653 427 
C 653 184 627 153 218 153 
L 218 -13 
C 371 0 646 0 806 0 
C 960 0 1222 0 1370 -13 
L 1370 153 
C 992 153 979 191 979 420 
L 979 2776 
L 243 2706 
z
" transform="scale(0.015625)"/>
       <path id="CMR17-74" d="M 966 2560 
L 1862 2560 
L 1862 2725 
L 966 2725 
L 966 3904 
L 851 3904 
C 838 3245 614 2668 70 2668 
L 70 2560 
L 627 2560 
L 627 771 
C 627 650 627 -64 1370 -64 
C 1747 -64 1965 306 1965 777 
L 1965 1140 
L 1850 1140 
L 1850 783 
C 1850 344 1677 51 1408 51 
C 1222 51 966 178 966 758 
L 966 2560 
z
" transform="scale(0.015625)"/>
       <path id="CMR17-79" d="M 2496 2197 
C 2656 2586 2944 2586 3034 2586 
L 3034 2752 
C 2912 2752 2752 2752 2630 2752 
C 2496 2752 2285 2752 2157 2758 
L 2157 2592 
C 2400 2573 2406 2394 2406 2343 
C 2406 2280 2394 2248 2362 2171 
L 1664 449 
L 902 2306 
C 870 2382 870 2426 870 2433 
C 870 2573 1018 2586 1171 2586 
L 1171 2758 
C 1018 2752 742 2752 582 2752 
C 410 2752 205 2752 64 2758 
L 64 2586 
C 410 2586 448 2554 531 2350 
L 1485 15 
C 1197 -738 1030 -1178 627 -1178 
C 557 -1178 397 -1159 282 -1044 
C 429 -1031 493 -942 493 -833 
C 493 -725 416 -629 288 -629 
C 147 -629 77 -725 77 -840 
C 77 -1095 339 -1280 627 -1280 
C 998 -1280 1229 -922 1357 -604 
L 2496 2197 
z
" transform="scale(0.015625)"/>
      </defs>
      <use xlink:href="#CMR17-44" transform="scale(0.996264)"/>
      <use xlink:href="#CMR17-65" transform="translate(70.393556 0) scale(0.996264)"/>
      <use xlink:href="#CMR17-6e" transform="translate(110.879216 0) scale(0.996264)"/>
      <use xlink:href="#CMR17-73" transform="translate(161.774586 0) scale(0.996264)"/>
      <use xlink:href="#CMR17-69" transform="translate(197.575924 0) scale(0.996264)"/>
      <use xlink:href="#CMR17-74" transform="translate(222.446982 0) scale(0.996264)"/>
      <use xlink:href="#CMR17-79" transform="translate(255.125296 0) scale(0.996264)"/>
     </g>
    </g>
   </g>
   <g id="PolyCollection_1">
    <path d="M 73.11163 197.017319 
L 73.11163 34731.688862 
L 73.727946 34731.688862 
L 74.344262 34731.688862 
L 74.960578 34731.688862 
L 75.576894 34731.688862 
L 76.19321 34731.688862 
L 76.809526 34731.688862 
L 77.425842 34731.688862 
L 78.042158 34731.688862 
L 78.658474 34731.688862 
L 79.27479 34731.688862 
L 79.891106 34731.688862 
L 80.507422 34731.688862 
L 81.123738 34731.688862 
L 81.740053 34731.688862 
L 82.356369 34731.688862 
L 82.972685 34731.688862 
L 83.589001 34731.688862 
L 84.205317 34731.688862 
L 84.821633 34731.688862 
L 85.437949 34731.688862 
L 86.054265 34731.688862 
L 86.670581 34731.688862 
L 87.286897 34731.688862 
L 87.903213 34731.688862 
L 88.519529 34731.688862 
L 89.135845 34731.688862 
L 89.752161 34731.688862 
L 90.368477 34731.688862 
L 90.984793 34731.688862 
L 91.601109 34731.688862 
L 92.217425 34731.688862 
L 92.833741 34731.688862 
L 93.450057 34731.688862 
L 94.066373 34731.688862 
L 94.682689 34731.688862 
L 95.299005 34731.688862 
L 95.915321 34731.688862 
L 96.531637 34731.688862 
L 97.147952 34731.688862 
L 97.764268 34731.688862 
L 98.380584 34731.688862 
L 98.9969 34731.688862 
L 99.613216 34731.688862 
L 100.229532 34731.688862 
L 100.845848 34731.688862 
L 101.462164 34731.688862 
L 102.07848 34731.688862 
L 102.694796 34731.688862 
L 103.311112 34731.688862 
L 103.927428 34731.688862 
L 104.543744 34731.688862 
L 105.16006 34731.688862 
L 105.776376 34731.688862 
L 106.392692 34731.688862 
L 107.009008 34731.688862 
L 107.625324 34731.688862 
L 108.24164 34731.688862 
L 108.857956 34731.688862 
L 109.474272 34731.688862 
L 110.090588 34731.688862 
L 110.706904 34731.688862 
L 111.32322 34731.688862 
L 111.939535 34731.688862 
L 112.555851 34731.688862 
L 113.172167 34731.688862 
L 113.788483 34731.688862 
L 114.404799 34731.688862 
L 115.021115 34731.688862 
L 115.637431 34731.688862 
L 116.253747 34731.688862 
L 116.870063 34731.688862 
L 117.486379 34731.688862 
L 118.102695 34731.688862 
L 118.719011 34731.688862 
L 119.335327 34731.688862 
L 119.951643 34731.688862 
L 120.567959 34731.688862 
L 121.184275 34731.688862 
L 121.800591 34731.688862 
L 122.416907 34731.688862 
L 123.033223 34731.688862 
L 123.649539 34731.688862 
L 124.265855 34731.688862 
L 124.882171 34731.688862 
L 125.498487 34731.688862 
L 126.114803 34731.688862 
L 126.731119 34731.688862 
L 127.347434 34731.688862 
L 127.96375 34731.688862 
L 128.580066 34731.688862 
L 129.196382 34731.688862 
L 129.812698 34731.688862 
L 130.429014 34731.688862 
L 131.04533 34731.688862 
L 131.661646 34731.688862 
L 132.277962 34731.688862 
L 132.894278 34731.688862 
L 133.510594 34731.688862 
L 134.12691 34731.688862 
L 134.743226 34731.688862 
L 135.359542 34731.688862 
L 135.975858 34731.688862 
L 136.592174 34731.688862 
L 137.20849 34731.688862 
L 137.824806 34731.688862 
L 138.441122 34731.688862 
L 139.057438 34731.688862 
L 139.673754 34731.688862 
L 140.29007 34731.688862 
L 140.906386 34731.688862 
L 141.522702 34731.688862 
L 142.139017 34731.688862 
L 142.755333 34731.688862 
L 143.371649 34731.688862 
L 143.987965 34731.688862 
L 144.604281 34731.688862 
L 145.220597 34731.688862 
L 145.836913 34731.688862 
L 146.453229 34731.688862 
L 147.069545 34731.688862 
L 147.685861 34731.688862 
L 148.302177 34731.688862 
L 148.918493 34731.688862 
L 149.534809 34731.688862 
L 150.151125 34731.688862 
L 150.767441 34731.688862 
L 151.383757 34731.688862 
L 152.000073 34731.688862 
L 152.616389 34731.688862 
L 153.232705 34731.688862 
L 153.849021 34731.688862 
L 154.465337 34731.688862 
L 155.081653 34731.688862 
L 155.697969 34731.688862 
L 156.314285 34731.688862 
L 156.930601 34731.688862 
L 157.546916 34731.688862 
L 158.163232 34731.688862 
L 158.779548 34731.688862 
L 159.395864 34731.688862 
L 160.01218 34731.688862 
L 160.628496 34731.688862 
L 161.244812 34731.688862 
L 161.861128 34731.688862 
L 162.477444 34731.688862 
L 163.09376 34731.688862 
L 163.710076 34731.688862 
L 164.326392 34731.688862 
L 164.942708 34731.688862 
L 165.559024 34731.688862 
L 166.17534 34731.688862 
L 166.791656 34731.688862 
L 167.407972 34731.688862 
L 168.024288 34731.688862 
L 168.640604 34731.688862 
L 169.25692 34731.688862 
L 169.873236 34731.688862 
L 170.489552 34731.688862 
L 171.105868 34731.688862 
L 171.722184 34731.688862 
L 172.338499 34731.688862 
L 172.954815 34731.688862 
L 173.571131 34731.688862 
L 174.187447 34731.688862 
L 174.803763 34731.688862 
L 175.420079 34731.688862 
L 176.036395 34731.688862 
L 176.652711 34731.688862 
L 177.269027 34731.688862 
L 177.885343 34731.688862 
L 178.501659 34731.688862 
L 179.117975 34731.688862 
L 179.734291 34731.688862 
L 180.350607 34731.688862 
L 180.966923 34731.688862 
L 181.583239 34731.688862 
L 182.199555 34731.688862 
L 182.815871 34731.688862 
L 183.432187 34731.688862 
L 184.048503 34731.688862 
L 184.664819 34731.688862 
L 185.281135 34731.688862 
L 185.897451 34731.688862 
L 186.513767 34731.688862 
L 187.130083 34731.688862 
L 187.746398 34731.688862 
L 188.362714 34731.688862 
L 188.97903 34731.688862 
L 189.595346 34731.688862 
L 190.211662 34731.688862 
L 190.827978 34731.688862 
L 191.444294 34731.688862 
L 192.06061 34731.688862 
L 192.676926 34731.688862 
L 193.293242 34731.688862 
L 193.909558 34731.688862 
L 194.525874 34731.688862 
L 195.14219 34731.688862 
L 195.758506 34731.688862 
L 196.374822 34731.688862 
L 196.991138 34731.688862 
L 197.607454 34731.688862 
L 198.22377 34731.688862 
L 198.840086 34731.688862 
L 199.456402 34731.688862 
L 200.072718 34731.688862 
L 200.689034 34731.688862 
L 201.30535 34731.688862 
L 201.921666 34731.688862 
L 202.537981 34731.688862 
L 203.154297 34731.688862 
L 203.770613 34731.688862 
L 204.386929 34731.688862 
L 205.003245 34731.688862 
L 205.619561 34731.688862 
L 206.235877 34731.688862 
L 206.852193 34731.688862 
L 207.468509 34731.688862 
L 208.084825 34731.688862 
L 208.701141 34731.688862 
L 209.317457 34731.688862 
L 209.933773 34731.688862 
L 210.550089 34731.688862 
L 211.166405 34731.688862 
L 211.782721 34731.688862 
L 212.399037 34731.688862 
L 213.015353 34731.688862 
L 213.631669 34731.688862 
L 214.247985 34731.688862 
L 214.864301 34731.688862 
L 215.480617 34731.688862 
L 216.096933 34731.688862 
L 216.713249 34731.688862 
L 217.329565 34731.688862 
L 217.94588 34731.688862 
L 218.562196 34731.688862 
L 219.178512 34731.688862 
L 219.794828 34731.688862 
L 220.411144 34731.688862 
L 221.02746 34731.688862 
L 221.643776 34731.688862 
L 222.260092 34731.688862 
L 222.876408 34731.688862 
L 223.492724 34731.688862 
L 224.10904 34731.688862 
L 224.725356 34731.688862 
L 225.341672 34731.688862 
L 225.957988 34731.688862 
L 226.574304 34731.688862 
L 227.19062 34731.688862 
L 227.806936 34731.688862 
L 228.423252 34731.688862 
L 229.039568 34731.688862 
L 229.655884 34731.688862 
L 230.2722 34731.688862 
L 230.888516 34731.688862 
L 231.504832 34731.688862 
L 232.121148 34731.688862 
L 232.737463 34731.688862 
L 233.353779 34731.688862 
L 233.970095 34731.688862 
L 234.586411 34731.688862 
L 235.202727 34731.688862 
L 235.819043 34731.688862 
L 236.435359 34731.688862 
L 237.051675 34731.688862 
L 237.667991 34731.688862 
L 238.284307 34731.688862 
L 238.900623 34731.688862 
L 239.516939 34731.688862 
L 240.133255 34731.688862 
L 240.749571 34731.688862 
L 241.365887 34731.688862 
L 241.982203 34731.688862 
L 242.598519 34731.688862 
L 243.214835 34731.688862 
L 243.831151 34731.688862 
L 244.447467 34731.688862 
L 245.063783 34731.688862 
L 245.680099 34731.688862 
L 246.296415 34731.688862 
L 246.912731 34731.688862 
L 247.529047 34731.688862 
L 248.145362 34731.688862 
L 248.761678 34731.688862 
L 249.377994 34731.688862 
L 249.99431 34731.688862 
L 250.610626 34731.688862 
L 251.226942 34731.688862 
L 251.843258 34731.688862 
L 252.459574 34731.688862 
L 253.07589 34731.688862 
L 253.692206 34731.688862 
L 254.308522 34731.688862 
L 254.924838 34731.688862 
L 255.541154 34731.688862 
L 256.15747 34731.688862 
L 256.773786 34731.688862 
L 257.390102 34731.688862 
L 258.006418 34731.688862 
L 258.622734 34731.688862 
L 259.23905 34731.688862 
L 259.855366 34731.688862 
L 260.471682 34731.688862 
L 261.087998 34731.688862 
L 261.704314 34731.688862 
L 262.32063 34731.688862 
L 262.936946 34731.688862 
L 263.553261 34731.688862 
L 264.169577 34731.688862 
L 264.785893 34731.688862 
L 265.402209 34731.688862 
L 266.018525 34731.688862 
L 266.634841 34731.688862 
L 267.251157 34731.688862 
L 267.867473 34731.688862 
L 268.483789 34731.688862 
L 269.100105 34731.688862 
L 269.716421 34731.688862 
L 270.332737 34731.688862 
L 270.949053 34731.688862 
L 271.565369 34731.688862 
L 272.181685 34731.688862 
L 272.798001 34731.688862 
L 273.414317 34731.688862 
L 274.030633 34731.688862 
L 274.646949 34731.688862 
L 275.263265 34731.688862 
L 275.879581 34731.688862 
L 276.495897 34731.688862 
L 277.112213 34731.688862 
L 277.728529 34731.688862 
L 278.344844 34731.688862 
L 278.96116 34731.688862 
L 279.577476 34731.688862 
L 280.193792 34731.688862 
L 280.810108 34731.688862 
L 281.426424 34731.688862 
L 282.04274 34731.688862 
L 282.659056 34731.688862 
L 283.275372 34731.688862 
L 283.891688 34731.688862 
L 284.508004 34731.688862 
L 285.12432 34731.688862 
L 285.740636 34731.688862 
L 286.356952 34731.688862 
L 286.973268 34731.688862 
L 287.589584 34731.688862 
L 288.2059 34731.688862 
L 288.822216 34731.688862 
L 289.438532 34731.688862 
L 290.054848 34731.688862 
L 290.671164 34731.688862 
L 291.28748 34731.688862 
L 291.903796 34731.688862 
L 292.520112 34731.688862 
L 293.136428 34731.688862 
L 293.752743 34731.688862 
L 294.369059 34731.688862 
L 294.985375 34731.688862 
L 295.601691 34731.688862 
L 296.218007 34731.688862 
L 296.834323 34731.688862 
L 297.450639 34731.688862 
L 298.066955 34731.688862 
L 298.683271 34731.688862 
L 299.299587 34731.688862 
L 299.915903 34731.688862 
L 300.532219 34731.688862 
L 301.148535 34731.688862 
L 301.764851 34731.688862 
L 302.381167 34731.688862 
L 302.997483 34731.688862 
L 303.613799 34731.688862 
L 304.230115 34731.688862 
L 304.846431 34731.688862 
L 305.462747 34731.688862 
L 306.079063 34731.688862 
L 306.695379 34731.688862 
L 307.311695 34731.688862 
L 307.928011 34731.688862 
L 308.544326 34731.688862 
L 309.160642 34731.688862 
L 309.776958 34731.688862 
L 310.393274 34731.688862 
L 311.00959 34731.688862 
L 311.625906 34731.688862 
L 312.242222 34731.688862 
L 312.858538 34731.688862 
L 313.474854 34731.688862 
L 314.09117 34731.688862 
L 314.707486 34731.688862 
L 315.323802 34731.688862 
L 315.940118 34731.688862 
L 316.556434 34731.688862 
L 317.17275 34731.688862 
L 317.789066 34731.688862 
L 318.405382 34731.688862 
L 319.021698 34731.688862 
L 319.638014 34731.688862 
L 320.25433 34731.688862 
L 320.870646 34731.688862 
L 321.486962 34731.688862 
L 322.103278 34731.688862 
L 322.719594 34731.688862 
L 323.33591 34731.688862 
L 323.952225 34731.688862 
L 324.568541 34731.688862 
L 325.184857 34731.688862 
L 325.801173 34731.688862 
L 326.417489 34731.688862 
L 327.033805 34731.688862 
L 327.650121 34731.688862 
L 328.266437 34731.688862 
L 328.882753 34731.688862 
L 329.499069 34731.688862 
L 330.115385 34731.688862 
L 330.731701 34731.688862 
L 331.348017 34731.688862 
L 331.964333 34731.688862 
L 332.580649 34731.688862 
L 333.196965 34731.688862 
L 333.813281 34731.688862 
L 334.429597 34731.688862 
L 335.045913 34731.688862 
L 335.662229 34731.688862 
L 336.278545 34731.688862 
L 336.894861 34731.688862 
L 337.511177 34731.688862 
L 338.127493 34731.688862 
L 338.743808 34731.688862 
L 339.360124 34731.688862 
L 339.97644 34731.688862 
L 340.592756 34731.688862 
L 341.209072 34731.688862 
L 341.825388 34731.688862 
L 342.441704 34731.688862 
L 343.05802 34731.688862 
L 343.674336 34731.688862 
L 344.290652 34731.688862 
L 344.906968 34731.688862 
L 345.523284 34731.688862 
L 346.1396 34731.688862 
L 346.755916 34731.688862 
L 347.372232 34731.688862 
L 347.988548 34731.688862 
L 348.604864 34731.688862 
L 349.22118 34731.688862 
L 349.837496 34731.688862 
L 350.453812 34731.688862 
L 351.070128 34731.688862 
L 351.686444 34731.688862 
L 352.30276 34731.688862 
L 352.919076 34731.688862 
L 353.535392 34731.688862 
L 354.151707 34731.688862 
L 354.768023 34731.688862 
L 355.384339 34731.688862 
L 356.000655 34731.688862 
L 356.616971 34731.688862 
L 357.233287 34731.688862 
L 357.849603 34731.688862 
L 358.465919 34731.688862 
L 359.082235 34731.688862 
L 359.698551 34731.688862 
L 360.314867 34731.688862 
L 360.931183 34731.688862 
L 361.547499 34731.688862 
L 362.163815 34731.688862 
L 362.780131 34731.688862 
L 363.396447 34731.688862 
L 364.012763 34731.688862 
L 364.629079 34731.688862 
L 365.245395 34731.688862 
L 365.861711 34731.688862 
L 366.478027 34731.688862 
L 367.094343 34731.688862 
L 367.710659 34731.688862 
L 368.326975 34731.688862 
L 368.94329 34731.688862 
L 369.559606 34731.688862 
L 370.175922 34731.688862 
L 370.792238 34731.688862 
L 371.408554 34731.688862 
L 372.02487 34731.688862 
L 372.641186 34731.688862 
L 373.257502 34731.688862 
L 373.873818 34731.688862 
L 374.490134 34731.688862 
L 375.10645 34731.688862 
L 375.722766 34731.688862 
L 376.339082 34731.688862 
L 376.955398 34731.688862 
L 377.571714 34731.688862 
L 378.18803 34731.688862 
L 378.804346 34731.688862 
L 379.420662 34731.688862 
L 380.036978 34731.688862 
L 380.653294 34731.688862 
L 380.653294 206.578851 
L 380.653294 206.578851 
L 380.036978 164.236164 
L 379.420662 142.267727 
L 378.804346 140.67354 
L 378.18803 159.453603 
L 377.571714 198.607916 
L 376.955398 258.136479 
L 376.339082 338.039292 
L 375.722766 438.316355 
L 375.10645 558.967668 
L 374.490134 699.993231 
L 373.873818 861.393044 
L 373.257502 1043.167107 
L 372.641186 1245.315419 
L 372.02487 1467.837982 
L 371.408554 1710.734795 
L 370.792238 1974.005857 
L 370.175922 2257.65117 
L 369.559606 2561.670733 
L 368.94329 2886.064545 
L 368.326975 3230.832608 
L 367.710659 3595.97492 
L 367.094343 3981.491483 
L 366.478027 4387.382295 
L 365.861711 4813.647357 
L 365.245395 5260.28667 
L 364.629079 5727.29994 
L 364.012763 5416.647974 
L 363.396447 4963.08745 
L 362.780131 4529.901175 
L 362.163815 4117.08915 
L 361.547499 3724.651376 
L 360.931183 3352.587851 
L 360.314867 3000.898576 
L 359.698551 2669.583552 
L 359.082235 2358.642777 
L 358.465919 2068.076252 
L 357.849603 1797.883977 
L 357.233287 1548.065952 
L 356.616971 1318.622177 
L 356.000655 1109.552652 
L 355.384339 920.857377 
L 354.768023 752.536352 
L 354.151707 604.589577 
L 353.535392 477.017052 
L 352.919076 369.818777 
L 352.30276 282.994752 
L 351.686444 216.544977 
L 351.070128 170.469451 
L 350.453812 144.768176 
L 349.837496 139.441151 
L 349.22118 154.488376 
L 348.604864 189.90985 
L 347.988548 245.705575 
L 347.372232 321.875549 
L 346.755916 418.419774 
L 346.1396 535.336918 
L 345.523284 538.064534 
L 344.906968 420.711455 
L 344.290652 323.730658 
L 343.674336 247.124111 
L 343.05802 190.891813 
L 342.441704 155.033766 
L 341.825388 139.549969 
L 341.209072 144.440422 
L 340.592756 169.705124 
L 339.97644 215.344077 
L 339.360124 281.357279 
L 338.743808 367.744732 
L 338.127493 474.506434 
L 337.511177 601.642387 
L 336.894861 749.152589 
L 336.278545 917.037042 
L 335.662229 1105.295744 
L 335.045913 1313.928697 
L 334.429597 1542.935899 
L 333.813281 1792.317351 
L 333.196965 2062.073053 
L 332.580649 2352.203006 
L 331.964333 2662.707208 
L 331.348017 2993.58566 
L 330.731701 3344.838362 
L 330.115385 3716.465314 
L 329.499069 4108.466516 
L 328.882753 4520.841968 
L 328.266437 4953.59167 
L 327.650121 5406.715622 
L 327.033805 5774.253185 
L 326.417489 5305.251755 
L 325.801173 4856.611403 
L 325.184857 4428.345301 
L 324.568541 4020.453449 
L 323.952225 3632.935847 
L 323.33591 3265.792495 
L 322.719594 2919.023393 
L 322.103278 2592.628541 
L 321.486962 2286.607938 
L 320.870646 2000.961586 
L 320.25433 1735.689484 
L 319.638014 1490.791631 
L 319.021698 1266.268029 
L 318.405382 1062.118677 
L 317.789066 878.343574 
L 317.17275 714.942722 
L 316.556434 571.916119 
L 315.940118 449.263767 
L 315.323802 346.985664 
L 314.707486 265.081811 
L 314.09117 203.552202 
L 313.474854 162.396579 
L 312.858538 141.603947 
L 312.242222 140.713861 
L 311.625906 147.845865 
L 311.00959 139.479714 
L 310.393274 143.973166 
L 309.776958 168.606549 
L 309.160642 213.608041 
L 308.544326 269.092963 
L 307.928011 214.320859 
L 307.311695 168.569361 
L 306.695379 141.401131 
L 306.079063 128.285422 
L 305.462747 124.549785 
L 304.846431 128.810552 
L 304.230115 134.272164 
L 303.613799 135.912956 
L 302.997483 138.131718 
L 302.381167 130.749131 
L 301.764851 129.089333 
L 301.148535 133.976065 
L 300.532219 141.343852 
L 299.915903 163.702352 
L 299.299587 182.79919 
L 298.683271 150.761231 
L 298.066955 133.065731 
L 297.450639 131.485896 
L 296.834323 145.457765 
L 296.218007 157.273695 
L 295.601691 139.432933 
L 294.985375 132.477047 
L 294.369059 136.306092 
L 293.752743 153.915274 
L 293.136428 189.900222 
L 292.520112 245.842006 
L 291.903796 322.078953 
L 291.28748 418.654231 
L 290.671164 403.421386 
L 290.054848 309.781561 
L 289.438532 236.513688 
L 288.822216 183.620064 
L 288.2059 151.100691 
L 287.589584 138.955567 
L 286.973268 147.184683 
L 286.356952 175.768607 
L 285.740636 206.164343 
L 285.12432 167.17194 
L 284.508004 143.395554 
L 283.891688 139.989721 
L 283.275372 156.816732 
L 282.659056 173.0708 
L 282.04274 147.885217 
L 281.426424 138.895774 
L 280.810108 150.265643 
L 280.193792 181.803637 
L 279.577476 189.47758 
L 278.96116 153.690742 
L 278.344844 133.354874 
L 277.728529 121.591709 
L 277.112213 117.358744 
L 276.495897 123.235891 
L 275.879581 138.287569 
L 275.263265 134.910264 
L 274.646949 126.70232 
L 274.030633 126.872821 
L 273.414317 127.468664 
L 272.798001 131.003 
L 272.181685 125.764819 
L 271.565369 122.354488 
L 270.949053 130.06518 
L 270.332737 151.577556 
L 269.716421 145.223498 
L 269.100105 128.944182 
L 268.483789 121.381464 
L 267.867473 126.65982 
L 267.251157 149.603423 
L 266.634841 191.561856 
L 266.018525 204.410589 
L 265.402209 163.278469 
L 264.785893 141.902689 
L 264.169577 140.108263 
L 263.553261 141.403509 
L 262.936946 127.464605 
L 262.32063 124.911165 
L 261.704314 131.027875 
L 261.087998 136.58199 
L 260.471682 151.298029 
L 259.855366 159.027258 
L 259.23905 135.637385 
L 258.622734 125.159213 
L 258.006418 128.976184 
L 257.390102 148.12155 
L 256.773786 166.78868 
L 256.15747 145.43931 
L 255.541154 139.248102 
L 254.924838 153.394425 
L 254.308522 182.845784 
L 253.692206 161.175481 
L 253.07589 141.191251 
L 252.459574 140.444687 
L 251.843258 143.884868 
L 251.226942 138.657023 
L 250.610626 148.975908 
L 249.99431 179.477816 
L 249.377994 230.347631 
L 248.761678 301.50948 
L 248.145362 288.574169 
L 247.529047 217.174952 
L 246.912731 165.705098 
L 246.296415 134.160589 
L 245.680099 122.538101 
L 245.063783 130.355213 
L 244.447467 143.202387 
L 243.831151 138.457307 
L 243.214835 142.391311 
L 242.598519 134.269402 
L 241.982203 125.230571 
L 241.365887 128.505039 
L 240.749571 137.94831 
L 240.133255 132.138603 
L 239.516939 124.286309 
L 238.900623 121.85118 
L 238.284307 118.061603 
L 237.667991 111.031749 
L 237.051675 112.659703 
L 236.435359 113.513149 
L 235.819043 112.703509 
L 235.202727 112.526875 
L 234.586411 106.697892 
L 233.970095 102.932026 
L 233.353779 102.013019 
L 232.737463 103.175507 
L 232.121148 107.007802 
L 231.504832 106.862527 
L 230.888516 100.407404 
L 230.2722 96.248459 
L 229.655884 97.377355 
L 229.039568 97.88834 
L 228.423252 98.136679 
L 227.806936 100.310698 
L 227.19062 101.104301 
L 226.574304 105.36399 
L 225.957988 112.447154 
L 225.341672 114.875069 
L 224.725356 115.751029 
L 224.10904 112.435063 
L 223.492724 109.022085 
L 222.876408 114.089906 
L 222.260092 122.665373 
L 221.643776 130.943058 
L 221.02746 128.970273 
L 220.411144 121.117357 
L 219.794828 117.67713 
L 219.178512 118.055864 
L 218.562196 125.105974 
L 217.94588 135.916685 
L 217.329565 156.379771 
L 216.713249 192.161556 
L 216.096933 171.33655 
L 215.480617 140.683255 
L 214.864301 128.915306 
L 214.247985 133.212777 
L 213.631669 135.251401 
L 213.015353 130.151994 
L 212.399037 124.675707 
L 211.782721 122.318086 
L 211.166405 128.256096 
L 210.550089 133.194568 
L 209.933773 128.476441 
L 209.317457 120.917867 
L 208.701141 118.717323 
L 208.084825 112.525858 
L 207.468509 104.77679 
L 206.852193 103.154449 
L 206.235877 103.182449 
L 205.619561 102.474673 
L 205.003245 102.447789 
L 204.386929 101.252132 
L 203.770613 97.862047 
L 203.154297 95.998171 
L 202.537981 93.202218 
L 201.921666 90.038622 
L 201.30535 87.702849 
L 200.689034 86.770238 
L 200.072718 90.460565 
L 199.456402 92.880372 
L 198.840086 90.27831 
L 198.22377 87.392447 
L 197.607454 87.301798 
L 196.991138 87.06935 
L 196.374822 86.184203 
L 195.758506 86.307736 
L 195.14219 86.591155 
L 194.525874 87.099623 
L 193.909558 88.79148 
L 193.293242 88.978312 
L 192.676926 87.533824 
L 192.06061 88.903186 
L 191.444294 93.095913 
L 190.827978 96.402051 
L 190.211662 96.601786 
L 189.595346 100.322611 
L 188.97903 105.358855 
L 188.362714 106.300305 
L 187.746398 106.676751 
L 187.130083 112.237247 
L 186.513767 116.733312 
L 185.897451 114.999807 
L 185.281135 115.930609 
L 184.664819 114.732728 
L 184.048503 110.484299 
L 183.432187 112.654565 
L 182.815871 109.612955 
L 182.199555 103.065478 
L 181.583239 102.381464 
L 180.966923 103.650519 
L 180.350607 101.976472 
L 179.734291 101.541624 
L 179.117975 101.346865 
L 178.501659 99.391406 
L 177.885343 101.660195 
L 177.269027 108.356339 
L 176.652711 107.326106 
L 176.036395 102.040442 
L 175.420079 96.865335 
L 174.803763 89.114343 
L 174.187447 82.985751 
L 173.571131 80.768214 
L 172.954815 80.869076 
L 172.338499 80.673491 
L 171.722184 78.794296 
L 171.105868 75.771511 
L 170.489552 72.275452 
L 169.873236 69.777268 
L 169.25692 69.439124 
L 168.640604 69.656934 
L 168.024288 70.166288 
L 167.407972 69.806798 
L 166.791656 68.69892 
L 166.17534 68.512054 
L 165.559024 70.862046 
L 164.942708 71.966263 
L 164.326392 71.355865 
L 163.710076 71.213642 
L 163.09376 72.363903 
L 162.477444 73.989868 
L 161.861128 75.516548 
L 161.244812 79.030844 
L 160.628496 83.743027 
L 160.01218 87.388991 
L 159.395864 89.388477 
L 158.779548 92.101597 
L 158.163232 95.218124 
L 157.546916 97.552782 
L 156.930601 97.905608 
L 156.314285 95.571108 
L 155.697969 93.854268 
L 155.081653 97.281502 
L 154.465337 97.047432 
L 153.849021 94.78194 
L 153.232705 92.470528 
L 152.616389 90.131085 
L 152.000073 89.151867 
L 151.383757 86.521085 
L 150.767441 85.955008 
L 150.151125 84.515667 
L 149.534809 81.122198 
L 148.918493 77.957689 
L 148.302177 73.936846 
L 147.685861 71.393747 
L 147.069545 69.204042 
L 146.453229 67.012574 
L 145.836913 64.668873 
L 145.220597 61.820058 
L 144.604281 59.678009 
L 143.987965 58.373372 
L 143.371649 57.474377 
L 142.755333 57.809805 
L 142.139017 58.708458 
L 141.522702 59.085976 
L 140.906386 60.019002 
L 140.29007 61.212001 
L 139.673754 61.758534 
L 139.057438 61.826613 
L 138.441122 62.190855 
L 137.824806 63.952026 
L 137.20849 66.92297 
L 136.592174 68.394493 
L 135.975858 69.204752 
L 135.359542 72.908733 
L 134.743226 77.05753 
L 134.12691 80.74637 
L 133.510594 84.500624 
L 132.894278 87.482616 
L 132.277962 89.214189 
L 131.661646 91.985954 
L 131.04533 93.192942 
L 130.429014 91.507403 
L 129.812698 88.78558 
L 129.196382 87.369689 
L 128.580066 86.464204 
L 127.96375 84.310705 
L 127.347434 81.037827 
L 126.731119 78.544047 
L 126.114803 77.096778 
L 125.498487 74.721334 
L 124.882171 70.994014 
L 124.265855 67.512645 
L 123.649539 66.182948 
L 123.033223 64.369239 
L 122.416907 60.443067 
L 121.800591 57.24719 
L 121.184275 55.557339 
L 120.567959 54.291782 
L 119.951643 52.499707 
L 119.335327 51.138749 
L 118.719011 50.183889 
L 118.102695 49.714823 
L 117.486379 49.798908 
L 116.870063 50.931719 
L 116.253747 52.122967 
L 115.637431 52.871855 
L 115.021115 54.306587 
L 114.404799 56.107721 
L 113.788483 58.11507 
L 113.172167 60.584077 
L 112.555851 64.125498 
L 111.939535 67.971771 
L 111.32322 70.100625 
L 110.706904 71.796522 
L 110.090588 75.1722 
L 109.474272 80.207826 
L 108.857956 85.220551 
L 108.24164 87.64108 
L 107.625324 85.816978 
L 107.009008 84.006368 
L 106.392692 83.689353 
L 105.776376 80.702689 
L 105.16006 76.342166 
L 104.543744 73.078923 
L 103.927428 69.940365 
L 103.311112 67.235958 
L 102.694796 65.032543 
L 102.07848 61.839834 
L 101.462164 57.908479 
L 100.845848 55.048196 
L 100.229532 53.492163 
L 99.613216 51.819973 
L 98.9969 50.57837 
L 98.380584 49.131093 
L 97.764268 47.642325 
L 97.147952 47.188494 
L 96.531637 47.905461 
L 95.915321 49.490021 
L 95.299005 51.57252 
L 94.682689 54.008487 
L 94.066373 56.720762 
L 93.450057 59.159081 
L 92.833741 62.045928 
L 92.217425 66.44455 
L 91.601109 70.291336 
L 90.984793 74.000072 
L 90.368477 77.409961 
L 89.752161 81.989338 
L 89.135845 85.397559 
L 88.519529 81.934378 
L 87.903213 76.450895 
L 87.286897 73.260239 
L 86.670581 71.329046 
L 86.054265 68.486574 
L 85.437949 63.723935 
L 84.821633 60.730406 
L 84.205317 59.922953 
L 83.589001 59.008721 
L 82.972685 58.010458 
L 82.356369 57.160953 
L 81.740053 57.533486 
L 81.123738 58.215994 
L 80.507422 59.229541 
L 79.891106 61.308526 
L 79.27479 63.946546 
L 78.658474 67.326859 
L 78.042158 71.589498 
L 77.425842 77.731877 
L 76.809526 86.554578 
L 76.19321 94.871737 
L 75.576894 100.763153 
L 74.960578 108.372835 
L 74.344262 123.335862 
L 73.727946 151.517862 
L 73.11163 197.017319 
z
" clip-path="url(#p5a503f3109)" style="fill: #4c72b0; fill-opacity: 0.25; stroke: #4c72b0; stroke-width: 0.3"/>
   </g>
   <g id="patch_3">
    <path d="M 59.482462 150.988862 
L 59.482462 12.388862 
" style="fill: none"/>
   </g>
   <g id="patch_4">
    <path d="M 394.282462 150.988862 
L 394.282462 12.388862 
" style="fill: none"/>
   </g>
   <g id="patch_5">
    <path d="M 59.482462 150.988862 
L 394.282462 150.988862 
" style="fill: none"/>
   </g>
   <g id="patch_6">
    <path d="M 59.482462 12.388862 
L 394.282462 12.388862 
" style="fill: none"/>
   </g>
   <g id="text_14">
    <!-- 0 -->
    <g transform="translate(82.453478 53.803481) scale(0.1 -0.1)">
     <use xlink:href="#CMR17-30" transform="scale(0.996264)"/>
    </g>
   </g>
   <g id="text_15">
    <!-- 1 -->
    <g transform="translate(97.656334 46.953938) scale(0.1 -0.1)">
     <use xlink:href="#CMR17-31" transform="scale(0.996264)"/>
    </g>
   </g>
   <g id="text_16">
    <!-- 2 -->
    <g transform="translate(118.00485 49.207841) scale(0.1 -0.1)">
     <use xlink:href="#CMR17-32" transform="scale(0.996264)"/>
    </g>
   </g>
   <g id="text_17">
    <!-- 3 -->
    <g transform="translate(141.901159 55.933902) scale(0.1 -0.1)">
     <defs>
      <path id="CMR17-33" d="M 1414 2157 
C 1984 2157 2234 1662 2234 1090 
C 2234 320 1824 25 1453 25 
C 1114 25 563 194 390 693 
C 422 680 454 680 486 680 
C 640 680 755 782 755 948 
C 755 1133 614 1216 486 1216 
C 378 1216 211 1165 211 926 
C 211 335 787 -128 1466 -128 
C 2176 -128 2720 430 2720 1085 
C 2720 1707 2208 2157 1600 2227 
C 2086 2328 2554 2756 2554 3329 
C 2554 3820 2048 4179 1472 4179 
C 890 4179 378 3829 378 3329 
C 378 3110 544 3072 627 3072 
C 762 3072 877 3155 877 3321 
C 877 3486 762 3569 627 3569 
C 602 3569 570 3569 544 3557 
C 730 3959 1235 4032 1459 4032 
C 1683 4032 2106 3925 2106 3320 
C 2106 3143 2080 2828 1862 2550 
C 1670 2304 1453 2304 1242 2284 
C 1210 2284 1062 2269 1037 2269 
C 992 2263 966 2257 966 2208 
C 966 2163 973 2157 1101 2157 
L 1414 2157 
z
" transform="scale(0.015625)"/>
     </defs>
     <use xlink:href="#CMR17-33" transform="scale(0.996264)"/>
    </g>
   </g>
   <g id="text_18">
    <!-- 4 -->
    <g transform="translate(166.984554 64.252235) scale(0.1 -0.1)">
     <use xlink:href="#CMR17-34" transform="scale(0.996264)"/>
    </g>
   </g>
   <g id="text_19">
    <!-- 5 -->
    <g transform="translate(196.639895 73.941206) scale(0.1 -0.1)">
     <defs>
      <path id="CMR17-35" d="M 730 3692 
C 794 3666 1056 3584 1325 3584 
C 1920 3584 2246 3911 2432 4100 
C 2432 4157 2432 4192 2394 4192 
C 2387 4192 2374 4192 2323 4163 
C 2099 4058 1837 3973 1517 3973 
C 1325 3973 1037 3999 723 4139 
C 653 4171 640 4171 634 4171 
C 602 4171 595 4164 595 4037 
L 595 2203 
C 595 2089 595 2057 659 2057 
C 691 2057 704 2070 736 2114 
C 941 2401 1222 2522 1542 2522 
C 1766 2522 2246 2382 2246 1289 
C 2246 1085 2246 715 2054 421 
C 1894 159 1645 25 1370 25 
C 947 25 518 320 403 814 
C 429 807 480 795 506 795 
C 589 795 749 840 749 1038 
C 749 1210 627 1280 506 1280 
C 358 1280 262 1190 262 1011 
C 262 454 704 -128 1382 -128 
C 2042 -128 2669 440 2669 1264 
C 2669 2030 2170 2624 1549 2624 
C 1222 2624 947 2503 730 2274 
L 730 3692 
z
" transform="scale(0.015625)"/>
     </defs>
     <use xlink:href="#CMR17-35" transform="scale(0.996264)"/>
    </g>
   </g>
   <g id="text_20">
    <!-- 6 -->
    <g transform="translate(230.012364 78.072084) scale(0.1 -0.1)">
     <use xlink:href="#CMR17-36" transform="scale(0.996264)"/>
    </g>
   </g>
   <g id="text_21">
    <!-- 7+ -->
    <g transform="translate(265.252327 103.364072) scale(0.1 -0.1)">
     <defs>
      <path id="CMR17-37" d="M 2886 3941 
L 2886 4081 
L 1382 4081 
C 634 4081 621 4165 595 4288 
L 480 4288 
L 294 3094 
L 410 3094 
C 429 3215 474 3540 550 3661 
C 589 3712 1062 3712 1171 3712 
L 2579 3712 
L 1869 2661 
C 1395 1954 1069 999 1069 165 
C 1069 89 1069 -128 1299 -128 
C 1530 -128 1530 89 1530 171 
L 1530 465 
C 1530 1508 1709 2196 2003 2636 
L 2886 3941 
z
" transform="scale(0.015625)"/>
      <path id="CMR17-2b" d="M 2413 1472 
L 4109 1472 
C 4198 1472 4307 1472 4307 1580 
C 4307 1695 4205 1695 4109 1695 
L 2413 1695 
L 2413 3386 
C 2413 3475 2413 3584 2304 3584 
C 2189 3584 2189 3482 2189 3386 
L 2189 1695 
L 493 1695 
C 403 1695 294 1695 294 1587 
C 294 1472 397 1472 493 1472 
L 2189 1472 
L 2189 -218 
C 2189 -307 2189 -416 2298 -416 
C 2413 -416 2413 -314 2413 -218 
L 2413 1472 
z
" transform="scale(0.015625)"/>
     </defs>
     <use xlink:href="#CMR17-37" transform="scale(0.996264)"/>
     <use xlink:href="#CMR17-2b" transform="translate(45.690477 0) scale(0.996264)"/>
    </g>
   </g>
   <g id="text_22">
    <!-- Area -->
    <g style="fill: #262626" transform="translate(331.845132 28.13394) scale(0.15 -0.15)">
     <defs>
      <path id="CMR17-41" d="M 2323 4378 
C 2291 4461 2278 4480 2214 4480 
C 2150 4480 2138 4461 2106 4378 
L 749 566 
C 627 223 371 153 147 153 
L 147 -13 
C 262 0 518 0 640 0 
C 800 0 1056 0 1210 -13 
L 1210 153 
C 909 153 864 361 864 439 
C 864 497 877 530 890 569 
L 1229 1536 
L 2906 1536 
L 3290 442 
C 3322 365 3322 352 3322 327 
C 3322 153 3046 153 2925 153 
L 2925 0 
C 3110 0 3443 0 3642 0 
C 3808 0 4128 0 4282 -13 
L 4282 153 
C 3942 153 3827 153 3744 387 
L 2323 4378 
z
M 2067 3893 
L 2848 1702 
L 1286 1702 
L 2067 3893 
z
" transform="scale(0.015625)"/>
      <path id="CMR17-72" d="M 960 1497 
C 960 2112 1222 2688 1702 2688 
C 1747 2688 1792 2682 1837 2662 
C 1837 2662 1696 2617 1696 2452 
C 1696 2298 1818 2234 1914 2234 
C 1990 2234 2131 2279 2131 2458 
C 2131 2663 1926 2790 1709 2790 
C 1222 2790 1011 2317 947 2093 
L 941 2093 
L 941 2790 
L 198 2720 
L 198 2554 
C 576 2554 634 2515 634 2208 
L 634 428 
C 634 184 608 153 198 153 
L 198 -13 
C 352 0 646 0 813 0 
C 998 0 1325 0 1498 -13 
L 1498 153 
C 1037 153 960 153 960 440 
L 960 1497 
z
" transform="scale(0.015625)"/>
      <path id="CMR17-61" d="M 2304 1653 
C 2304 2072 2304 2294 2035 2543 
C 1798 2752 1523 2816 1306 2816 
C 800 2816 435 2407 435 1971 
C 435 1728 627 1728 666 1728 
C 749 1728 896 1778 896 1954 
C 896 2112 774 2181 666 2181 
C 640 2181 608 2174 589 2168 
C 723 2592 1069 2714 1293 2714 
C 1613 2714 1965 2429 1965 1885 
L 1965 1600 
C 1587 1600 1133 1549 774 1357 
C 371 1133 256 813 256 570 
C 256 77 832 -64 1171 -64 
C 1523 -64 1850 139 1990 511 
C 2003 233 2182 -18 2464 -18 
C 2598 -18 2938 70 2938 567 
L 2938 920 
L 2822 920 
L 2822 562 
C 2822 178 2650 128 2566 128 
C 2304 128 2304 458 2304 738 
L 2304 1653 
z
M 1965 870 
C 1965 317 1568 38 1216 38 
C 896 38 646 275 646 570 
C 646 761 730 1100 1101 1305 
C 1408 1478 1760 1504 1965 1504 
L 1965 870 
z
" transform="scale(0.015625)"/>
     </defs>
     <use xlink:href="#CMR17-41" transform="scale(0.996264)"/>
     <use xlink:href="#CMR17-72" transform="translate(69.07243 0) scale(0.996264)"/>
     <use xlink:href="#CMR17-65" transform="translate(104.353198 0) scale(0.996264)"/>
     <use xlink:href="#CMR17-61" transform="translate(144.838858 0) scale(0.996264)"/>
    </g>
   </g>
  </g>
 </g>
 <defs>
  <clipPath id="p5a503f3109">
   <rect x="59.482462" y="12.388862" width="334.8" height="138.6"/>
  </clipPath>
 </defs>
</svg>
