<?xml version="1.0" encoding="utf-8" standalone="no"?>
<!DOCTYPE svg PUBLIC "-//W3C//DTD SVG 1.1//EN"
  "http://www.w3.org/Graphics/SVG/1.1/DTD/svg11.dtd">
<svg xmlns:xlink="http://www.w3.org/1999/xlink" width="387.082462pt" height="181.355801pt" viewBox="0 0 387.082462 181.355801" xmlns="http://www.w3.org/2000/svg" version="1.1">
 <metadata>
  <rdf:RDF xmlns:dc="http://purl.org/dc/elements/1.1/" xmlns:cc="http://creativecommons.org/ns#" xmlns:rdf="http://www.w3.org/1999/02/22-rdf-syntax-ns#">
   <cc:Work>
    <dc:type rdf:resource="http://purl.org/dc/dcmitype/StillImage"/>
    <dc:date>2024-10-11T08:48:13.067186</dc:date>
    <dc:format>image/svg+xml</dc:format>
    <dc:creator>
     <cc:Agent>
      <dc:title>Matplotlib v3.9.2, https://matplotlib.org/</dc:title>
     </cc:Agent>
    </dc:creator>
   </cc:Work>
  </rdf:RDF>
 </metadata>
 <defs>
  <style type="text/css">*{stroke-linejoin: round; stroke-linecap: butt}</style>
 </defs>
 <g id="figure_1">
  <g id="patch_1">
   <path d="M 0 181.355801 
L 387.082462 181.355801 
L 387.082462 0 
L 0 0 
z
" style="fill: #ffffff"/>
  </g>
  <g id="axes_1">
   <g id="patch_2">
    <path d="M 52.282462 143.788862 
L 387.082462 143.788862 
L 387.082462 5.188862 
L 52.282462 5.188862 
z
" style="fill: #eaeaf2"/>
   </g>
   <g id="matplotlib.axis_1">
    <g id="xtick_1">
     <g id="line2d_1">
      <path d="M 67.500644 143.788862 
L 67.500644 5.188862 
" clip-path="url(#p461af8cc69)" style="fill: none; stroke: #ffffff; stroke-linecap: round"/>
     </g>
     <g id="line2d_2"/>
     <g id="text_1">
      <!-- $\mathdefault{0.0}$ -->
      <g style="fill: #262626" transform="translate(58.152118 161.166587) scale(0.15 -0.15)">
       <defs>
        <path id="CMR17-30" d="M 2688 2025 
C 2688 2416 2682 3080 2413 3591 
C 2176 4039 1798 4198 1466 4198 
C 1158 4198 768 4058 525 3597 
C 269 3118 243 2524 243 2025 
C 243 1661 250 1106 448 619 
C 723 -39 1216 -128 1466 -128 
C 1760 -128 2208 -7 2470 600 
C 2662 1042 2688 1559 2688 2025 
z
M 1466 -26 
C 1056 -26 813 325 723 812 
C 653 1188 653 1738 653 2096 
C 653 2588 653 2997 736 3387 
C 858 3929 1216 4096 1466 4096 
C 1728 4096 2067 3923 2189 3400 
C 2272 3036 2278 2607 2278 2096 
C 2278 1680 2278 1169 2202 792 
C 2067 95 1690 -26 1466 -26 
z
" transform="scale(0.015625)"/>
        <path id="CMMI12-3a" d="M 1178 307 
C 1178 492 1024 619 870 619 
C 685 619 557 466 557 313 
C 557 128 710 0 864 0 
C 1050 0 1178 153 1178 307 
z
" transform="scale(0.015625)"/>
       </defs>
       <use xlink:href="#CMR17-30" transform="scale(0.996264)"/>
       <use xlink:href="#CMMI12-3a" transform="translate(45.690477 0) scale(0.996264)"/>
       <use xlink:href="#CMR17-30" transform="translate(72.787654 0) scale(0.996264)"/>
      </g>
     </g>
    </g>
    <g id="xtick_2">
     <g id="line2d_3">
      <path d="M 128.373371 143.788862 
L 128.373371 5.188862 
" clip-path="url(#p461af8cc69)" style="fill: none; stroke: #ffffff; stroke-linecap: round"/>
     </g>
     <g id="line2d_4"/>
     <g id="text_2">
      <!-- $\mathdefault{0.2}$ -->
      <g style="fill: #262626" transform="translate(119.024845 161.166587) scale(0.15 -0.15)">
       <defs>
        <path id="CMR17-32" d="M 2669 989 
L 2554 989 
C 2490 536 2438 459 2413 420 
C 2381 369 1920 369 1830 369 
L 602 369 
C 832 619 1280 1072 1824 1597 
C 2214 1967 2669 2402 2669 3035 
C 2669 3790 2067 4224 1395 4224 
C 691 4224 262 3604 262 3030 
C 262 2780 448 2748 525 2748 
C 589 2748 781 2787 781 3010 
C 781 3207 614 3264 525 3264 
C 486 3264 448 3258 422 3245 
C 544 3790 915 4058 1306 4058 
C 1862 4058 2227 3617 2227 3035 
C 2227 2479 1901 2000 1536 1584 
L 262 146 
L 262 0 
L 2515 0 
L 2669 989 
z
" transform="scale(0.015625)"/>
       </defs>
       <use xlink:href="#CMR17-30" transform="scale(0.996264)"/>
       <use xlink:href="#CMMI12-3a" transform="translate(45.690477 0) scale(0.996264)"/>
       <use xlink:href="#CMR17-32" transform="translate(72.787654 0) scale(0.996264)"/>
      </g>
     </g>
    </g>
    <g id="xtick_3">
     <g id="line2d_5">
      <path d="M 189.246098 143.788862 
L 189.246098 5.188862 
" clip-path="url(#p461af8cc69)" style="fill: none; stroke: #ffffff; stroke-linecap: round"/>
     </g>
     <g id="line2d_6"/>
     <g id="text_3">
      <!-- $\mathdefault{0.4}$ -->
      <g style="fill: #262626" transform="translate(179.897572 161.166587) scale(0.15 -0.15)">
       <defs>
        <path id="CMR17-34" d="M 2150 4122 
C 2150 4256 2144 4256 2029 4256 
L 128 1254 
L 128 1088 
L 1779 1088 
L 1779 457 
C 1779 224 1766 160 1318 160 
L 1197 160 
L 1197 0 
C 1402 0 1747 0 1965 0 
C 2182 0 2528 0 2733 0 
L 2733 160 
L 2611 160 
C 2163 160 2150 224 2150 457 
L 2150 1088 
L 2803 1088 
L 2803 1254 
L 2150 1254 
L 2150 4122 
z
M 1798 3703 
L 1798 1254 
L 256 1254 
L 1798 3703 
z
" transform="scale(0.015625)"/>
       </defs>
       <use xlink:href="#CMR17-30" transform="scale(0.996264)"/>
       <use xlink:href="#CMMI12-3a" transform="translate(45.690477 0) scale(0.996264)"/>
       <use xlink:href="#CMR17-34" transform="translate(72.787654 0) scale(0.996264)"/>
      </g>
     </g>
    </g>
    <g id="xtick_4">
     <g id="line2d_7">
      <path d="M 250.118826 143.788862 
L 250.118826 5.188862 
" clip-path="url(#p461af8cc69)" style="fill: none; stroke: #ffffff; stroke-linecap: round"/>
     </g>
     <g id="line2d_8"/>
     <g id="text_4">
      <!-- $\mathdefault{0.6}$ -->
      <g style="fill: #262626" transform="translate(240.770299 161.166587) scale(0.15 -0.15)">
       <defs>
        <path id="CMR17-36" d="M 678 2176 
C 678 3690 1395 4032 1811 4032 
C 1946 4032 2272 4009 2400 3776 
C 2298 3776 2106 3776 2106 3553 
C 2106 3381 2246 3323 2336 3323 
C 2394 3323 2566 3348 2566 3560 
C 2566 3954 2246 4179 1805 4179 
C 1043 4179 243 3390 243 1984 
C 243 253 966 -128 1478 -128 
C 2099 -128 2688 427 2688 1283 
C 2688 2081 2170 2662 1517 2662 
C 1126 2662 838 2407 678 1960 
L 678 2176 
z
M 1478 25 
C 691 25 691 1200 691 1436 
C 691 1896 909 2560 1504 2560 
C 1613 2560 1926 2560 2138 2120 
C 2253 1870 2253 1609 2253 1289 
C 2253 944 2253 690 2118 434 
C 1978 171 1773 25 1478 25 
z
" transform="scale(0.015625)"/>
       </defs>
       <use xlink:href="#CMR17-30" transform="scale(0.996264)"/>
       <use xlink:href="#CMMI12-3a" transform="translate(45.690477 0) scale(0.996264)"/>
       <use xlink:href="#CMR17-36" transform="translate(72.787654 0) scale(0.996264)"/>
      </g>
     </g>
    </g>
    <g id="xtick_5">
     <g id="line2d_9">
      <path d="M 310.991553 143.788862 
L 310.991553 5.188862 
" clip-path="url(#p461af8cc69)" style="fill: none; stroke: #ffffff; stroke-linecap: round"/>
     </g>
     <g id="line2d_10"/>
     <g id="text_5">
      <!-- $\mathdefault{0.8}$ -->
      <g style="fill: #262626" transform="translate(301.643027 161.166587) scale(0.15 -0.15)">
       <defs>
        <path id="CMR17-38" d="M 1741 2264 
C 2144 2467 2554 2773 2554 3263 
C 2554 3841 1990 4179 1472 4179 
C 890 4179 378 3759 378 3180 
C 378 3021 416 2747 666 2505 
C 730 2442 998 2251 1171 2130 
C 883 1983 211 1634 211 934 
C 211 279 838 -128 1459 -128 
C 2144 -128 2720 362 2720 1010 
C 2720 1590 2330 1857 2074 2029 
L 1741 2264 
z
M 902 2822 
C 851 2854 595 3051 595 3351 
C 595 3739 998 4032 1459 4032 
C 1965 4032 2336 3676 2336 3262 
C 2336 2669 1670 2331 1638 2331 
C 1632 2331 1626 2331 1574 2370 
L 902 2822 
z
M 2080 1519 
C 2176 1449 2483 1240 2483 851 
C 2483 381 2010 25 1472 25 
C 890 25 448 438 448 940 
C 448 1443 838 1862 1280 2060 
L 2080 1519 
z
" transform="scale(0.015625)"/>
       </defs>
       <use xlink:href="#CMR17-30" transform="scale(0.996264)"/>
       <use xlink:href="#CMMI12-3a" transform="translate(45.690477 0) scale(0.996264)"/>
       <use xlink:href="#CMR17-38" transform="translate(72.787654 0) scale(0.996264)"/>
      </g>
     </g>
    </g>
    <g id="xtick_6">
     <g id="line2d_11">
      <path d="M 371.86428 143.788862 
L 371.86428 5.188862 
" clip-path="url(#p461af8cc69)" style="fill: none; stroke: #ffffff; stroke-linecap: round"/>
     </g>
     <g id="line2d_12"/>
     <g id="text_6">
      <!-- $\mathdefault{1.0}$ -->
      <g style="fill: #262626" transform="translate(362.515754 161.166587) scale(0.15 -0.15)">
       <defs>
        <path id="CMR17-31" d="M 1702 4058 
C 1702 4192 1696 4192 1606 4192 
C 1357 3916 979 3827 621 3827 
C 602 3827 570 3827 563 3808 
C 557 3795 557 3782 557 3648 
C 755 3648 1088 3686 1344 3839 
L 1344 461 
C 1344 236 1331 160 781 160 
L 589 160 
L 589 0 
C 896 0 1216 0 1523 0 
C 1830 0 2150 0 2458 0 
L 2458 160 
L 2266 160 
C 1715 160 1702 230 1702 458 
L 1702 4058 
z
" transform="scale(0.015625)"/>
       </defs>
       <use xlink:href="#CMR17-31" transform="scale(0.996264)"/>
       <use xlink:href="#CMMI12-3a" transform="translate(45.690477 0) scale(0.996264)"/>
       <use xlink:href="#CMR17-30" transform="translate(72.787654 0) scale(0.996264)"/>
      </g>
     </g>
    </g>
    <g id="text_7">
     <!-- $s_1$ -->
     <g style="fill: #262626" transform="translate(213.621025 178.450057) scale(0.15 -0.15)">
      <defs>
       <path id="CMMI12-73" d="M 1459 1280 
C 1568 1261 1741 1223 1779 1216 
C 1862 1192 2150 1090 2150 783 
C 2150 586 1971 70 1229 70 
C 1094 70 614 70 486 436 
C 742 404 870 603 870 745 
C 870 880 781 950 653 950 
C 512 950 326 841 326 552 
C 326 173 710 -64 1222 -64 
C 2195 -64 2483 651 2483 984 
C 2483 1079 2483 1258 2278 1462 
C 2118 1616 1965 1648 1619 1718 
C 1446 1756 1171 1814 1171 2101 
C 1171 2229 1286 2689 1894 2689 
C 2163 2689 2426 2589 2490 2368 
C 2208 2368 2195 2125 2195 2119 
C 2195 1984 2317 1946 2374 1946 
C 2464 1946 2643 2015 2643 2281 
C 2643 2545 2400 2816 1901 2816 
C 1062 2816 838 2160 838 1899 
C 838 1414 1312 1312 1459 1280 
z
" transform="scale(0.015625)"/>
      </defs>
      <use xlink:href="#CMMI12-73" transform="scale(0.996264)"/>
      <use xlink:href="#CMR17-31" transform="translate(45.950048 -14.943915) scale(0.697382)"/>
     </g>
    </g>
   </g>
   <g id="matplotlib.axis_2">
    <g id="ytick_1">
     <g id="line2d_13">
      <path d="M 52.282462 143.788862 
L 387.082462 143.788862 
" clip-path="url(#p461af8cc69)" style="fill: none; stroke: #ffffff; stroke-linecap: round"/>
     </g>
     <g id="line2d_14"/>
     <g id="text_8">
      <!-- $\mathdefault{10^{-2}}$ -->
      <g style="fill: #262626" transform="translate(17.283469 148.977725) scale(0.15 -0.15)">
       <defs>
        <path id="CMSY10-0" d="M 4218 1472 
C 4326 1472 4442 1472 4442 1600 
C 4442 1728 4326 1728 4218 1728 
L 755 1728 
C 646 1728 531 1728 531 1600 
C 531 1472 646 1472 755 1472 
L 4218 1472 
z
" transform="scale(0.015625)"/>
       </defs>
       <use xlink:href="#CMR17-31" transform="scale(0.996264)"/>
       <use xlink:href="#CMR17-30" transform="translate(45.690477 0) scale(0.996264)"/>
       <use xlink:href="#CMSY10-0" transform="translate(91.380954 36.153639) scale(0.697382)"/>
       <use xlink:href="#CMR17-32" transform="translate(145.621947 36.153639) scale(0.697382)"/>
      </g>
     </g>
    </g>
    <g id="ytick_2">
     <g id="line2d_15">
      <path d="M 52.282462 109.138862 
L 387.082462 109.138862 
" clip-path="url(#p461af8cc69)" style="fill: none; stroke: #ffffff; stroke-linecap: round"/>
     </g>
     <g id="line2d_16"/>
     <g id="text_9">
      <!-- $\mathdefault{10^{-1}}$ -->
      <g style="fill: #262626" transform="translate(17.283469 114.327725) scale(0.15 -0.15)">
       <use xlink:href="#CMR17-31" transform="scale(0.996264)"/>
       <use xlink:href="#CMR17-30" transform="translate(45.690477 0) scale(0.996264)"/>
       <use xlink:href="#CMSY10-0" transform="translate(91.380954 36.153639) scale(0.697382)"/>
       <use xlink:href="#CMR17-31" transform="translate(145.621947 36.153639) scale(0.697382)"/>
      </g>
     </g>
    </g>
    <g id="ytick_3">
     <g id="line2d_17">
      <path d="M 52.282462 74.488862 
L 387.082462 74.488862 
" clip-path="url(#p461af8cc69)" style="fill: none; stroke: #ffffff; stroke-linecap: round"/>
     </g>
     <g id="line2d_18"/>
     <g id="text_10">
      <!-- $\mathdefault{10^{0}}$ -->
      <g style="fill: #262626" transform="translate(25.419615 79.677725) scale(0.15 -0.15)">
       <use xlink:href="#CMR17-31" transform="scale(0.996264)"/>
       <use xlink:href="#CMR17-30" transform="translate(45.690477 0) scale(0.996264)"/>
       <use xlink:href="#CMR17-30" transform="translate(91.380954 36.153639) scale(0.697382)"/>
      </g>
     </g>
    </g>
    <g id="ytick_4">
     <g id="line2d_19">
      <path d="M 52.282462 39.838862 
L 387.082462 39.838862 
" clip-path="url(#p461af8cc69)" style="fill: none; stroke: #ffffff; stroke-linecap: round"/>
     </g>
     <g id="line2d_20"/>
     <g id="text_11">
      <!-- $\mathdefault{10^{1}}$ -->
      <g style="fill: #262626" transform="translate(25.419615 45.027725) scale(0.15 -0.15)">
       <use xlink:href="#CMR17-31" transform="scale(0.996264)"/>
       <use xlink:href="#CMR17-30" transform="translate(45.690477 0) scale(0.996264)"/>
       <use xlink:href="#CMR17-31" transform="translate(91.380954 36.153639) scale(0.697382)"/>
      </g>
     </g>
    </g>
    <g id="ytick_5">
     <g id="line2d_21">
      <path d="M 52.282462 5.188862 
L 387.082462 5.188862 
" clip-path="url(#p461af8cc69)" style="fill: none; stroke: #ffffff; stroke-linecap: round"/>
     </g>
     <g id="line2d_22"/>
     <g id="text_12">
      <!-- $\mathdefault{10^{2}}$ -->
      <g style="fill: #262626" transform="translate(25.419615 10.377725) scale(0.15 -0.15)">
       <use xlink:href="#CMR17-31" transform="scale(0.996264)"/>
       <use xlink:href="#CMR17-30" transform="translate(45.690477 0) scale(0.996264)"/>
       <use xlink:href="#CMR17-32" transform="translate(91.380954 36.153639) scale(0.697382)"/>
      </g>
     </g>
    </g>
    <g id="ytick_6">
     <g id="line2d_23"/>
    </g>
    <g id="ytick_7">
     <g id="line2d_24"/>
    </g>
    <g id="ytick_8">
     <g id="line2d_25"/>
    </g>
    <g id="ytick_9">
     <g id="line2d_26"/>
    </g>
    <g id="ytick_10">
     <g id="line2d_27"/>
    </g>
    <g id="ytick_11">
     <g id="line2d_28"/>
    </g>
    <g id="ytick_12">
     <g id="line2d_29"/>
    </g>
    <g id="ytick_13">
     <g id="line2d_30"/>
    </g>
    <g id="ytick_14">
     <g id="line2d_31"/>
    </g>
    <g id="ytick_15">
     <g id="line2d_32"/>
    </g>
    <g id="ytick_16">
     <g id="line2d_33"/>
    </g>
    <g id="ytick_17">
     <g id="line2d_34"/>
    </g>
    <g id="ytick_18">
     <g id="line2d_35"/>
    </g>
    <g id="ytick_19">
     <g id="line2d_36"/>
    </g>
    <g id="ytick_20">
     <g id="line2d_37"/>
    </g>
    <g id="ytick_21">
     <g id="line2d_38"/>
    </g>
    <g id="ytick_22">
     <g id="line2d_39"/>
    </g>
    <g id="ytick_23">
     <g id="line2d_40"/>
    </g>
    <g id="ytick_24">
     <g id="line2d_41"/>
    </g>
    <g id="ytick_25">
     <g id="line2d_42"/>
    </g>
    <g id="ytick_26">
     <g id="line2d_43"/>
    </g>
    <g id="ytick_27">
     <g id="line2d_44"/>
    </g>
    <g id="ytick_28">
     <g id="line2d_45"/>
    </g>
    <g id="ytick_29">
     <g id="line2d_46"/>
    </g>
    <g id="ytick_30">
     <g id="line2d_47"/>
    </g>
    <g id="ytick_31">
     <g id="line2d_48"/>
    </g>
    <g id="ytick_32">
     <g id="line2d_49"/>
    </g>
    <g id="ytick_33">
     <g id="line2d_50"/>
    </g>
    <g id="ytick_34">
     <g id="line2d_51"/>
    </g>
    <g id="ytick_35">
     <g id="line2d_52"/>
    </g>
    <g id="ytick_36">
     <g id="line2d_53"/>
    </g>
    <g id="ytick_37">
     <g id="line2d_54"/>
    </g>
    <g id="text_13">
     <!-- Density -->
     <g style="fill: #262626" transform="translate(10.377725 98.814048) rotate(-90) scale(0.15 -0.15)">
      <defs>
       <path id="CMR17-44" d="M 333 4352 
L 333 4186 
C 774 4186 845 4186 845 3900 
L 845 452 
C 845 166 774 166 333 166 
L 333 0 
L 2368 0 
C 3398 0 4224 943 4224 2141 
C 4224 3346 3411 4352 2368 4352 
L 333 4352 
z
M 1523 166 
C 1267 166 1254 197 1254 414 
L 1254 3938 
C 1254 4155 1267 4186 1523 4186 
L 2240 4186 
C 2771 4186 3750 3874 3750 2141 
C 3750 1242 3488 879 3366 707 
C 3213 510 2848 166 2240 166 
L 1523 166 
z
" transform="scale(0.015625)"/>
       <path id="CMR17-65" d="M 2438 1472 
C 2464 1498 2464 1511 2464 1576 
C 2464 2238 2118 2816 1389 2816 
C 710 2816 173 2169 173 1383 
C 173 551 781 -64 1459 -64 
C 2176 -64 2458 607 2458 740 
C 2458 784 2419 784 2406 784 
C 2362 784 2355 771 2330 696 
C 2189 265 1837 51 1504 51 
C 1229 51 954 203 781 480 
C 582 803 582 1176 582 1472 
L 2438 1472 
z
M 589 1568 
C 634 2505 1126 2714 1382 2714 
C 1818 2714 2112 2297 2118 1568 
L 589 1568 
z
" transform="scale(0.015625)"/>
       <path id="CMR17-6e" d="M 2656 1933 
C 2656 2259 2592 2790 1837 2790 
C 1331 2790 1069 2400 973 2144 
L 966 2144 
L 966 2790 
L 211 2720 
L 211 2554 
C 589 2554 646 2515 646 2208 
L 646 428 
C 646 184 621 153 211 153 
L 211 -13 
C 365 0 646 0 813 0 
C 979 0 1267 0 1421 -13 
L 1421 153 
C 1011 153 986 178 986 428 
L 986 1658 
C 986 2247 1344 2688 1792 2688 
C 2266 2688 2317 2266 2317 1958 
L 2317 428 
C 2317 184 2291 153 1882 153 
L 1882 -13 
C 2035 0 2317 0 2483 0 
C 2650 0 2938 0 3091 -13 
L 3091 153 
C 2682 153 2656 178 2656 428 
L 2656 1933 
z
" transform="scale(0.015625)"/>
       <path id="CMR17-73" d="M 1978 2697 
C 1978 2813 1971 2819 1933 2819 
C 1907 2819 1901 2813 1824 2717 
C 1805 2691 1747 2626 1728 2601 
C 1523 2819 1235 2819 1126 2819 
C 416 2819 160 2447 160 2076 
C 160 1498 813 1365 998 1325 
C 1402 1243 1542 1217 1677 1101 
C 1760 1025 1901 884 1901 654 
C 1901 384 1747 38 1158 38 
C 602 38 403 460 288 1021 
C 269 1110 269 1117 218 1117 
C 166 1117 160 1110 160 983 
L 160 63 
C 160 -51 166 -58 205 -58 
C 237 -58 243 -51 275 0 
C 314 57 410 211 448 276 
C 576 103 800 -64 1158 -64 
C 1792 -64 2131 283 2131 784 
C 2131 1112 1958 1285 1875 1362 
C 1683 1561 1459 1606 1190 1657 
C 838 1735 390 1825 390 2217 
C 390 2383 480 2737 1126 2737 
C 1811 2737 1850 2094 1862 1888 
C 1869 1856 1901 1849 1920 1849 
C 1978 1849 1978 1869 1978 1978 
L 1978 2697 
z
" transform="scale(0.015625)"/>
       <path id="CMR17-69" d="M 992 3909 
C 992 4049 877 4170 730 4170 
C 589 4170 467 4056 467 3909 
C 467 3769 582 3648 730 3648 
C 870 3648 992 3763 992 3909 
z
M 243 2706 
L 243 2541 
C 602 2541 653 2502 653 2197 
L 653 427 
C 653 184 627 153 218 153 
L 218 -13 
C 371 0 646 0 806 0 
C 960 0 1222 0 1370 -13 
L 1370 153 
C 992 153 979 191 979 420 
L 979 2776 
L 243 2706 
z
" transform="scale(0.015625)"/>
       <path id="CMR17-74" d="M 966 2560 
L 1862 2560 
L 1862 2725 
L 966 2725 
L 966 3904 
L 851 3904 
C 838 3245 614 2668 70 2668 
L 70 2560 
L 627 2560 
L 627 771 
C 627 650 627 -64 1370 -64 
C 1747 -64 1965 306 1965 777 
L 1965 1140 
L 1850 1140 
L 1850 783 
C 1850 344 1677 51 1408 51 
C 1222 51 966 178 966 758 
L 966 2560 
z
" transform="scale(0.015625)"/>
       <path id="CMR17-79" d="M 2496 2197 
C 2656 2586 2944 2586 3034 2586 
L 3034 2752 
C 2912 2752 2752 2752 2630 2752 
C 2496 2752 2285 2752 2157 2758 
L 2157 2592 
C 2400 2573 2406 2394 2406 2343 
C 2406 2280 2394 2248 2362 2171 
L 1664 449 
L 902 2306 
C 870 2382 870 2426 870 2433 
C 870 2573 1018 2586 1171 2586 
L 1171 2758 
C 1018 2752 742 2752 582 2752 
C 410 2752 205 2752 64 2758 
L 64 2586 
C 410 2586 448 2554 531 2350 
L 1485 15 
C 1197 -738 1030 -1178 627 -1178 
C 557 -1178 397 -1159 282 -1044 
C 429 -1031 493 -942 493 -833 
C 493 -725 416 -629 288 -629 
C 147 -629 77 -725 77 -840 
C 77 -1095 339 -1280 627 -1280 
C 998 -1280 1229 -922 1357 -604 
L 2496 2197 
z
" transform="scale(0.015625)"/>
      </defs>
      <use xlink:href="#CMR17-44" transform="scale(0.996264)"/>
      <use xlink:href="#CMR17-65" transform="translate(70.393556 0) scale(0.996264)"/>
      <use xlink:href="#CMR17-6e" transform="translate(110.879216 0) scale(0.996264)"/>
      <use xlink:href="#CMR17-73" transform="translate(161.774586 0) scale(0.996264)"/>
      <use xlink:href="#CMR17-69" transform="translate(197.575924 0) scale(0.996264)"/>
      <use xlink:href="#CMR17-74" transform="translate(222.446982 0) scale(0.996264)"/>
      <use xlink:href="#CMR17-79" transform="translate(255.125296 0) scale(0.996264)"/>
     </g>
    </g>
   </g>
   <g id="PolyCollection_1">
    <path d="M 65.91163 189.817319 
L 65.91163 34724.488862 
L 66.527946 34724.488862 
L 67.144262 34724.488862 
L 67.760578 34724.488862 
L 68.376894 34724.488862 
L 68.99321 34724.488862 
L 69.609526 34724.488862 
L 70.225842 34724.488862 
L 70.842158 34724.488862 
L 71.458474 34724.488862 
L 72.07479 34724.488862 
L 72.691106 34724.488862 
L 73.307422 34724.488862 
L 73.923738 34724.488862 
L 74.540053 34724.488862 
L 75.156369 34724.488862 
L 75.772685 34724.488862 
L 76.389001 34724.488862 
L 77.005317 34724.488862 
L 77.621633 34724.488862 
L 78.237949 34724.488862 
L 78.854265 34724.488862 
L 79.470581 34724.488862 
L 80.086897 34724.488862 
L 80.703213 34724.488862 
L 81.319529 34724.488862 
L 81.935845 34724.488862 
L 82.552161 34724.488862 
L 83.168477 34724.488862 
L 83.784793 34724.488862 
L 84.401109 34724.488862 
L 85.017425 34724.488862 
L 85.633741 34724.488862 
L 86.250057 34724.488862 
L 86.866373 34724.488862 
L 87.482689 34724.488862 
L 88.099005 34724.488862 
L 88.715321 34724.488862 
L 89.331637 34724.488862 
L 89.947952 34724.488862 
L 90.564268 34724.488862 
L 91.180584 34724.488862 
L 91.7969 34724.488862 
L 92.413216 34724.488862 
L 93.029532 34724.488862 
L 93.645848 34724.488862 
L 94.262164 34724.488862 
L 94.87848 34724.488862 
L 95.494796 34724.488862 
L 96.111112 34724.488862 
L 96.727428 34724.488862 
L 97.343744 34724.488862 
L 97.96006 34724.488862 
L 98.576376 34724.488862 
L 99.192692 34724.488862 
L 99.809008 34724.488862 
L 100.425324 34724.488862 
L 101.04164 34724.488862 
L 101.657956 34724.488862 
L 102.274272 34724.488862 
L 102.890588 34724.488862 
L 103.506904 34724.488862 
L 104.12322 34724.488862 
L 104.739535 34724.488862 
L 105.355851 34724.488862 
L 105.972167 34724.488862 
L 106.588483 34724.488862 
L 107.204799 34724.488862 
L 107.821115 34724.488862 
L 108.437431 34724.488862 
L 109.053747 34724.488862 
L 109.670063 34724.488862 
L 110.286379 34724.488862 
L 110.902695 34724.488862 
L 111.519011 34724.488862 
L 112.135327 34724.488862 
L 112.751643 34724.488862 
L 113.367959 34724.488862 
L 113.984275 34724.488862 
L 114.600591 34724.488862 
L 115.216907 34724.488862 
L 115.833223 34724.488862 
L 116.449539 34724.488862 
L 117.065855 34724.488862 
L 117.682171 34724.488862 
L 118.298487 34724.488862 
L 118.914803 34724.488862 
L 119.531119 34724.488862 
L 120.147434 34724.488862 
L 120.76375 34724.488862 
L 121.380066 34724.488862 
L 121.996382 34724.488862 
L 122.612698 34724.488862 
L 123.229014 34724.488862 
L 123.84533 34724.488862 
L 124.461646 34724.488862 
L 125.077962 34724.488862 
L 125.694278 34724.488862 
L 126.310594 34724.488862 
L 126.92691 34724.488862 
L 127.543226 34724.488862 
L 128.159542 34724.488862 
L 128.775858 34724.488862 
L 129.392174 34724.488862 
L 130.00849 34724.488862 
L 130.624806 34724.488862 
L 131.241122 34724.488862 
L 131.857438 34724.488862 
L 132.473754 34724.488862 
L 133.09007 34724.488862 
L 133.706386 34724.488862 
L 134.322702 34724.488862 
L 134.939017 34724.488862 
L 135.555333 34724.488862 
L 136.171649 34724.488862 
L 136.787965 34724.488862 
L 137.404281 34724.488862 
L 138.020597 34724.488862 
L 138.636913 34724.488862 
L 139.253229 34724.488862 
L 139.869545 34724.488862 
L 140.485861 34724.488862 
L 141.102177 34724.488862 
L 141.718493 34724.488862 
L 142.334809 34724.488862 
L 142.951125 34724.488862 
L 143.567441 34724.488862 
L 144.183757 34724.488862 
L 144.800073 34724.488862 
L 145.416389 34724.488862 
L 146.032705 34724.488862 
L 146.649021 34724.488862 
L 147.265337 34724.488862 
L 147.881653 34724.488862 
L 148.497969 34724.488862 
L 149.114285 34724.488862 
L 149.730601 34724.488862 
L 150.346916 34724.488862 
L 150.963232 34724.488862 
L 151.579548 34724.488862 
L 152.195864 34724.488862 
L 152.81218 34724.488862 
L 153.428496 34724.488862 
L 154.044812 34724.488862 
L 154.661128 34724.488862 
L 155.277444 34724.488862 
L 155.89376 34724.488862 
L 156.510076 34724.488862 
L 157.126392 34724.488862 
L 157.742708 34724.488862 
L 158.359024 34724.488862 
L 158.97534 34724.488862 
L 159.591656 34724.488862 
L 160.207972 34724.488862 
L 160.824288 34724.488862 
L 161.440604 34724.488862 
L 162.05692 34724.488862 
L 162.673236 34724.488862 
L 163.289552 34724.488862 
L 163.905868 34724.488862 
L 164.522184 34724.488862 
L 165.138499 34724.488862 
L 165.754815 34724.488862 
L 166.371131 34724.488862 
L 166.987447 34724.488862 
L 167.603763 34724.488862 
L 168.220079 34724.488862 
L 168.836395 34724.488862 
L 169.452711 34724.488862 
L 170.069027 34724.488862 
L 170.685343 34724.488862 
L 171.301659 34724.488862 
L 171.917975 34724.488862 
L 172.534291 34724.488862 
L 173.150607 34724.488862 
L 173.766923 34724.488862 
L 174.383239 34724.488862 
L 174.999555 34724.488862 
L 175.615871 34724.488862 
L 176.232187 34724.488862 
L 176.848503 34724.488862 
L 177.464819 34724.488862 
L 178.081135 34724.488862 
L 178.697451 34724.488862 
L 179.313767 34724.488862 
L 179.930083 34724.488862 
L 180.546398 34724.488862 
L 181.162714 34724.488862 
L 181.77903 34724.488862 
L 182.395346 34724.488862 
L 183.011662 34724.488862 
L 183.627978 34724.488862 
L 184.244294 34724.488862 
L 184.86061 34724.488862 
L 185.476926 34724.488862 
L 186.093242 34724.488862 
L 186.709558 34724.488862 
L 187.325874 34724.488862 
L 187.94219 34724.488862 
L 188.558506 34724.488862 
L 189.174822 34724.488862 
L 189.791138 34724.488862 
L 190.407454 34724.488862 
L 191.02377 34724.488862 
L 191.640086 34724.488862 
L 192.256402 34724.488862 
L 192.872718 34724.488862 
L 193.489034 34724.488862 
L 194.10535 34724.488862 
L 194.721666 34724.488862 
L 195.337981 34724.488862 
L 195.954297 34724.488862 
L 196.570613 34724.488862 
L 197.186929 34724.488862 
L 197.803245 34724.488862 
L 198.419561 34724.488862 
L 199.035877 34724.488862 
L 199.652193 34724.488862 
L 200.268509 34724.488862 
L 200.884825 34724.488862 
L 201.501141 34724.488862 
L 202.117457 34724.488862 
L 202.733773 34724.488862 
L 203.350089 34724.488862 
L 203.966405 34724.488862 
L 204.582721 34724.488862 
L 205.199037 34724.488862 
L 205.815353 34724.488862 
L 206.431669 34724.488862 
L 207.047985 34724.488862 
L 207.664301 34724.488862 
L 208.280617 34724.488862 
L 208.896933 34724.488862 
L 209.513249 34724.488862 
L 210.129565 34724.488862 
L 210.74588 34724.488862 
L 211.362196 34724.488862 
L 211.978512 34724.488862 
L 212.594828 34724.488862 
L 213.211144 34724.488862 
L 213.82746 34724.488862 
L 214.443776 34724.488862 
L 215.060092 34724.488862 
L 215.676408 34724.488862 
L 216.292724 34724.488862 
L 216.90904 34724.488862 
L 217.525356 34724.488862 
L 218.141672 34724.488862 
L 218.757988 34724.488862 
L 219.374304 34724.488862 
L 219.99062 34724.488862 
L 220.606936 34724.488862 
L 221.223252 34724.488862 
L 221.839568 34724.488862 
L 222.455884 34724.488862 
L 223.0722 34724.488862 
L 223.688516 34724.488862 
L 224.304832 34724.488862 
L 224.921148 34724.488862 
L 225.537463 34724.488862 
L 226.153779 34724.488862 
L 226.770095 34724.488862 
L 227.386411 34724.488862 
L 228.002727 34724.488862 
L 228.619043 34724.488862 
L 229.235359 34724.488862 
L 229.851675 34724.488862 
L 230.467991 34724.488862 
L 231.084307 34724.488862 
L 231.700623 34724.488862 
L 232.316939 34724.488862 
L 232.933255 34724.488862 
L 233.549571 34724.488862 
L 234.165887 34724.488862 
L 234.782203 34724.488862 
L 235.398519 34724.488862 
L 236.014835 34724.488862 
L 236.631151 34724.488862 
L 237.247467 34724.488862 
L 237.863783 34724.488862 
L 238.480099 34724.488862 
L 239.096415 34724.488862 
L 239.712731 34724.488862 
L 240.329047 34724.488862 
L 240.945362 34724.488862 
L 241.561678 34724.488862 
L 242.177994 34724.488862 
L 242.79431 34724.488862 
L 243.410626 34724.488862 
L 244.026942 34724.488862 
L 244.643258 34724.488862 
L 245.259574 34724.488862 
L 245.87589 34724.488862 
L 246.492206 34724.488862 
L 247.108522 34724.488862 
L 247.724838 34724.488862 
L 248.341154 34724.488862 
L 248.95747 34724.488862 
L 249.573786 34724.488862 
L 250.190102 34724.488862 
L 250.806418 34724.488862 
L 251.422734 34724.488862 
L 252.03905 34724.488862 
L 252.655366 34724.488862 
L 253.271682 34724.488862 
L 253.887998 34724.488862 
L 254.504314 34724.488862 
L 255.12063 34724.488862 
L 255.736946 34724.488862 
L 256.353261 34724.488862 
L 256.969577 34724.488862 
L 257.585893 34724.488862 
L 258.202209 34724.488862 
L 258.818525 34724.488862 
L 259.434841 34724.488862 
L 260.051157 34724.488862 
L 260.667473 34724.488862 
L 261.283789 34724.488862 
L 261.900105 34724.488862 
L 262.516421 34724.488862 
L 263.132737 34724.488862 
L 263.749053 34724.488862 
L 264.365369 34724.488862 
L 264.981685 34724.488862 
L 265.598001 34724.488862 
L 266.214317 34724.488862 
L 266.830633 34724.488862 
L 267.446949 34724.488862 
L 268.063265 34724.488862 
L 268.679581 34724.488862 
L 269.295897 34724.488862 
L 269.912213 34724.488862 
L 270.528529 34724.488862 
L 271.144844 34724.488862 
L 271.76116 34724.488862 
L 272.377476 34724.488862 
L 272.993792 34724.488862 
L 273.610108 34724.488862 
L 274.226424 34724.488862 
L 274.84274 34724.488862 
L 275.459056 34724.488862 
L 276.075372 34724.488862 
L 276.691688 34724.488862 
L 277.308004 34724.488862 
L 277.92432 34724.488862 
L 278.540636 34724.488862 
L 279.156952 34724.488862 
L 279.773268 34724.488862 
L 280.389584 34724.488862 
L 281.0059 34724.488862 
L 281.622216 34724.488862 
L 282.238532 34724.488862 
L 282.854848 34724.488862 
L 283.471164 34724.488862 
L 284.08748 34724.488862 
L 284.703796 34724.488862 
L 285.320112 34724.488862 
L 285.936428 34724.488862 
L 286.552743 34724.488862 
L 287.169059 34724.488862 
L 287.785375 34724.488862 
L 288.401691 34724.488862 
L 289.018007 34724.488862 
L 289.634323 34724.488862 
L 290.250639 34724.488862 
L 290.866955 34724.488862 
L 291.483271 34724.488862 
L 292.099587 34724.488862 
L 292.715903 34724.488862 
L 293.332219 34724.488862 
L 293.948535 34724.488862 
L 294.564851 34724.488862 
L 295.181167 34724.488862 
L 295.797483 34724.488862 
L 296.413799 34724.488862 
L 297.030115 34724.488862 
L 297.646431 34724.488862 
L 298.262747 34724.488862 
L 298.879063 34724.488862 
L 299.495379 34724.488862 
L 300.111695 34724.488862 
L 300.728011 34724.488862 
L 301.344326 34724.488862 
L 301.960642 34724.488862 
L 302.576958 34724.488862 
L 303.193274 34724.488862 
L 303.80959 34724.488862 
L 304.425906 34724.488862 
L 305.042222 34724.488862 
L 305.658538 34724.488862 
L 306.274854 34724.488862 
L 306.89117 34724.488862 
L 307.507486 34724.488862 
L 308.123802 34724.488862 
L 308.740118 34724.488862 
L 309.356434 34724.488862 
L 309.97275 34724.488862 
L 310.589066 34724.488862 
L 311.205382 34724.488862 
L 311.821698 34724.488862 
L 312.438014 34724.488862 
L 313.05433 34724.488862 
L 313.670646 34724.488862 
L 314.286962 34724.488862 
L 314.903278 34724.488862 
L 315.519594 34724.488862 
L 316.13591 34724.488862 
L 316.752225 34724.488862 
L 317.368541 34724.488862 
L 317.984857 34724.488862 
L 318.601173 34724.488862 
L 319.217489 34724.488862 
L 319.833805 34724.488862 
L 320.450121 34724.488862 
L 321.066437 34724.488862 
L 321.682753 34724.488862 
L 322.299069 34724.488862 
L 322.915385 34724.488862 
L 323.531701 34724.488862 
L 324.148017 34724.488862 
L 324.764333 34724.488862 
L 325.380649 34724.488862 
L 325.996965 34724.488862 
L 326.613281 34724.488862 
L 327.229597 34724.488862 
L 327.845913 34724.488862 
L 328.462229 34724.488862 
L 329.078545 34724.488862 
L 329.694861 34724.488862 
L 330.311177 34724.488862 
L 330.927493 34724.488862 
L 331.543808 34724.488862 
L 332.160124 34724.488862 
L 332.77644 34724.488862 
L 333.392756 34724.488862 
L 334.009072 34724.488862 
L 334.625388 34724.488862 
L 335.241704 34724.488862 
L 335.85802 34724.488862 
L 336.474336 34724.488862 
L 337.090652 34724.488862 
L 337.706968 34724.488862 
L 338.323284 34724.488862 
L 338.9396 34724.488862 
L 339.555916 34724.488862 
L 340.172232 34724.488862 
L 340.788548 34724.488862 
L 341.404864 34724.488862 
L 342.02118 34724.488862 
L 342.637496 34724.488862 
L 343.253812 34724.488862 
L 343.870128 34724.488862 
L 344.486444 34724.488862 
L 345.10276 34724.488862 
L 345.719076 34724.488862 
L 346.335392 34724.488862 
L 346.951707 34724.488862 
L 347.568023 34724.488862 
L 348.184339 34724.488862 
L 348.800655 34724.488862 
L 349.416971 34724.488862 
L 350.033287 34724.488862 
L 350.649603 34724.488862 
L 351.265919 34724.488862 
L 351.882235 34724.488862 
L 352.498551 34724.488862 
L 353.114867 34724.488862 
L 353.731183 34724.488862 
L 354.347499 34724.488862 
L 354.963815 34724.488862 
L 355.580131 34724.488862 
L 356.196447 34724.488862 
L 356.812763 34724.488862 
L 357.429079 34724.488862 
L 358.045395 34724.488862 
L 358.661711 34724.488862 
L 359.278027 34724.488862 
L 359.894343 34724.488862 
L 360.510659 34724.488862 
L 361.126975 34724.488862 
L 361.74329 34724.488862 
L 362.359606 34724.488862 
L 362.975922 34724.488862 
L 363.592238 34724.488862 
L 364.208554 34724.488862 
L 364.82487 34724.488862 
L 365.441186 34724.488862 
L 366.057502 34724.488862 
L 366.673818 34724.488862 
L 367.290134 34724.488862 
L 367.90645 34724.488862 
L 368.522766 34724.488862 
L 369.139082 34724.488862 
L 369.755398 34724.488862 
L 370.371714 34724.488862 
L 370.98803 34724.488862 
L 371.604346 34724.488862 
L 372.220662 34724.488862 
L 372.836978 34724.488862 
L 373.453294 34724.488862 
L 373.453294 199.378851 
L 373.453294 199.378851 
L 372.836978 157.036164 
L 372.220662 135.067727 
L 371.604346 133.47354 
L 370.98803 152.253603 
L 370.371714 191.407916 
L 369.755398 250.936479 
L 369.139082 330.839292 
L 368.522766 431.116355 
L 367.90645 551.767668 
L 367.290134 692.793231 
L 366.673818 854.193044 
L 366.057502 1035.967107 
L 365.441186 1238.115419 
L 364.82487 1460.637982 
L 364.208554 1703.534795 
L 363.592238 1966.805857 
L 362.975922 2250.45117 
L 362.359606 2554.470733 
L 361.74329 2878.864545 
L 361.126975 3223.632608 
L 360.510659 3588.77492 
L 359.894343 3974.291483 
L 359.278027 4380.182295 
L 358.661711 4806.447357 
L 358.045395 5253.08667 
L 357.429079 5720.09994 
L 356.812763 5409.447974 
L 356.196447 4955.88745 
L 355.580131 4522.701175 
L 354.963815 4109.88915 
L 354.347499 3717.451376 
L 353.731183 3345.387851 
L 353.114867 2993.698576 
L 352.498551 2662.383552 
L 351.882235 2351.442777 
L 351.265919 2060.876252 
L 350.649603 1790.683977 
L 350.033287 1540.865952 
L 349.416971 1311.422177 
L 348.800655 1102.352652 
L 348.184339 913.657377 
L 347.568023 745.336352 
L 346.951707 597.389577 
L 346.335392 469.817052 
L 345.719076 362.618777 
L 345.10276 275.794752 
L 344.486444 209.344977 
L 343.870128 163.269451 
L 343.253812 137.568176 
L 342.637496 132.241151 
L 342.02118 147.288376 
L 341.404864 182.70985 
L 340.788548 238.505575 
L 340.172232 314.675549 
L 339.555916 411.219774 
L 338.9396 528.136918 
L 338.323284 530.864534 
L 337.706968 413.511455 
L 337.090652 316.530658 
L 336.474336 239.924111 
L 335.85802 183.691813 
L 335.241704 147.833766 
L 334.625388 132.349969 
L 334.009072 137.240422 
L 333.392756 162.505124 
L 332.77644 208.144077 
L 332.160124 274.157279 
L 331.543808 360.544732 
L 330.927493 467.306434 
L 330.311177 594.442387 
L 329.694861 741.952589 
L 329.078545 909.837042 
L 328.462229 1098.095744 
L 327.845913 1306.728697 
L 327.229597 1535.735899 
L 326.613281 1785.117351 
L 325.996965 2054.873053 
L 325.380649 2345.003006 
L 324.764333 2655.507208 
L 324.148017 2986.38566 
L 323.531701 3337.638362 
L 322.915385 3709.265314 
L 322.299069 4101.266516 
L 321.682753 4513.641968 
L 321.066437 4946.39167 
L 320.450121 5399.515622 
L 319.833805 5767.053185 
L 319.217489 5298.051755 
L 318.601173 4849.411403 
L 317.984857 4421.145301 
L 317.368541 4013.253449 
L 316.752225 3625.735847 
L 316.13591 3258.592495 
L 315.519594 2911.823393 
L 314.903278 2585.428541 
L 314.286962 2279.407938 
L 313.670646 1993.761586 
L 313.05433 1728.489484 
L 312.438014 1483.591631 
L 311.821698 1259.068029 
L 311.205382 1054.918677 
L 310.589066 871.143574 
L 309.97275 707.742722 
L 309.356434 564.716119 
L 308.740118 442.063767 
L 308.123802 339.785664 
L 307.507486 257.881811 
L 306.89117 196.352202 
L 306.274854 155.196579 
L 305.658538 134.403947 
L 305.042222 133.513861 
L 304.425906 140.645865 
L 303.80959 132.279714 
L 303.193274 136.773166 
L 302.576958 161.406549 
L 301.960642 206.408041 
L 301.344326 261.892963 
L 300.728011 207.120859 
L 300.111695 161.369361 
L 299.495379 134.201131 
L 298.879063 121.085422 
L 298.262747 117.349785 
L 297.646431 121.610552 
L 297.030115 127.072164 
L 296.413799 128.712956 
L 295.797483 130.931718 
L 295.181167 123.549131 
L 294.564851 121.889333 
L 293.948535 126.776065 
L 293.332219 134.143852 
L 292.715903 156.502352 
L 292.099587 175.59919 
L 291.483271 143.561231 
L 290.866955 125.865731 
L 290.250639 124.285896 
L 289.634323 138.257765 
L 289.018007 150.073695 
L 288.401691 132.232933 
L 287.785375 125.277047 
L 287.169059 129.106092 
L 286.552743 146.715274 
L 285.936428 182.700222 
L 285.320112 238.642006 
L 284.703796 314.878953 
L 284.08748 411.454231 
L 283.471164 396.221386 
L 282.854848 302.581561 
L 282.238532 229.313688 
L 281.622216 176.420064 
L 281.0059 143.900691 
L 280.389584 131.755567 
L 279.773268 139.984683 
L 279.156952 168.568607 
L 278.540636 198.964343 
L 277.92432 159.97194 
L 277.308004 136.195554 
L 276.691688 132.789721 
L 276.075372 149.616732 
L 275.459056 165.8708 
L 274.84274 140.685217 
L 274.226424 131.695774 
L 273.610108 143.065643 
L 272.993792 174.603637 
L 272.377476 182.27758 
L 271.76116 146.490742 
L 271.144844 126.154874 
L 270.528529 114.391709 
L 269.912213 110.158744 
L 269.295897 116.035891 
L 268.679581 131.087569 
L 268.063265 127.710264 
L 267.446949 119.50232 
L 266.830633 119.672821 
L 266.214317 120.268664 
L 265.598001 123.803 
L 264.981685 118.564819 
L 264.365369 115.154488 
L 263.749053 122.86518 
L 263.132737 144.377556 
L 262.516421 138.023498 
L 261.900105 121.744182 
L 261.283789 114.181464 
L 260.667473 119.45982 
L 260.051157 142.403423 
L 259.434841 184.361856 
L 258.818525 197.210589 
L 258.202209 156.078469 
L 257.585893 134.702689 
L 256.969577 132.908263 
L 256.353261 134.203509 
L 255.736946 120.264605 
L 255.12063 117.711165 
L 254.504314 123.827875 
L 253.887998 129.38199 
L 253.271682 144.098029 
L 252.655366 151.827258 
L 252.03905 128.437385 
L 251.422734 117.959213 
L 250.806418 121.776184 
L 250.190102 140.92155 
L 249.573786 159.58868 
L 248.95747 138.23931 
L 248.341154 132.048102 
L 247.724838 146.194425 
L 247.108522 175.645784 
L 246.492206 153.975481 
L 245.87589 133.991251 
L 245.259574 133.244687 
L 244.643258 136.684868 
L 244.026942 131.457023 
L 243.410626 141.775908 
L 242.79431 172.277816 
L 242.177994 223.147631 
L 241.561678 294.30948 
L 240.945362 281.374169 
L 240.329047 209.974952 
L 239.712731 158.505098 
L 239.096415 126.960589 
L 238.480099 115.338101 
L 237.863783 123.155213 
L 237.247467 136.002387 
L 236.631151 131.257307 
L 236.014835 135.191311 
L 235.398519 127.069402 
L 234.782203 118.030571 
L 234.165887 121.305039 
L 233.549571 130.74831 
L 232.933255 124.938603 
L 232.316939 117.086309 
L 231.700623 114.65118 
L 231.084307 110.861603 
L 230.467991 103.831749 
L 229.851675 105.459703 
L 229.235359 106.313149 
L 228.619043 105.503509 
L 228.002727 105.326875 
L 227.386411 99.497892 
L 226.770095 95.732026 
L 226.153779 94.813019 
L 225.537463 95.975507 
L 224.921148 99.807802 
L 224.304832 99.662527 
L 223.688516 93.207404 
L 223.0722 89.048459 
L 222.455884 90.177355 
L 221.839568 90.68834 
L 221.223252 90.936679 
L 220.606936 93.110698 
L 219.99062 93.904301 
L 219.374304 98.16399 
L 218.757988 105.247154 
L 218.141672 107.675069 
L 217.525356 108.551029 
L 216.90904 105.235063 
L 216.292724 101.822085 
L 215.676408 106.889906 
L 215.060092 115.465373 
L 214.443776 123.743058 
L 213.82746 121.770273 
L 213.211144 113.917357 
L 212.594828 110.47713 
L 211.978512 110.855864 
L 211.362196 117.905974 
L 210.74588 128.716685 
L 210.129565 149.179771 
L 209.513249 184.961556 
L 208.896933 164.13655 
L 208.280617 133.483255 
L 207.664301 121.715306 
L 207.047985 126.012777 
L 206.431669 128.051401 
L 205.815353 122.951994 
L 205.199037 117.475707 
L 204.582721 115.118086 
L 203.966405 121.056096 
L 203.350089 125.994568 
L 202.733773 121.276441 
L 202.117457 113.717867 
L 201.501141 111.517323 
L 200.884825 105.325858 
L 200.268509 97.57679 
L 199.652193 95.954449 
L 199.035877 95.982449 
L 198.419561 95.274673 
L 197.803245 95.247789 
L 197.186929 94.052132 
L 196.570613 90.662047 
L 195.954297 88.798171 
L 195.337981 86.002218 
L 194.721666 82.838622 
L 194.10535 80.502849 
L 193.489034 79.570238 
L 192.872718 83.260565 
L 192.256402 85.680372 
L 191.640086 83.07831 
L 191.02377 80.192447 
L 190.407454 80.101798 
L 189.791138 79.86935 
L 189.174822 78.984203 
L 188.558506 79.107736 
L 187.94219 79.391155 
L 187.325874 79.899623 
L 186.709558 81.59148 
L 186.093242 81.778312 
L 185.476926 80.333824 
L 184.86061 81.703186 
L 184.244294 85.895913 
L 183.627978 89.202051 
L 183.011662 89.401786 
L 182.395346 93.122611 
L 181.77903 98.158855 
L 181.162714 99.100305 
L 180.546398 99.476751 
L 179.930083 105.037247 
L 179.313767 109.533312 
L 178.697451 107.799807 
L 178.081135 108.730609 
L 177.464819 107.532728 
L 176.848503 103.284299 
L 176.232187 105.454565 
L 175.615871 102.412955 
L 174.999555 95.865478 
L 174.383239 95.181464 
L 173.766923 96.450519 
L 173.150607 94.776472 
L 172.534291 94.341624 
L 171.917975 94.146865 
L 171.301659 92.191406 
L 170.685343 94.460195 
L 170.069027 101.156339 
L 169.452711 100.126106 
L 168.836395 94.840442 
L 168.220079 89.665335 
L 167.603763 81.914343 
L 166.987447 75.785751 
L 166.371131 73.568214 
L 165.754815 73.669076 
L 165.138499 73.473491 
L 164.522184 71.594296 
L 163.905868 68.571511 
L 163.289552 65.075452 
L 162.673236 62.577268 
L 162.05692 62.239124 
L 161.440604 62.456934 
L 160.824288 62.966288 
L 160.207972 62.606798 
L 159.591656 61.49892 
L 158.97534 61.312054 
L 158.359024 63.662046 
L 157.742708 64.766263 
L 157.126392 64.155865 
L 156.510076 64.013642 
L 155.89376 65.163903 
L 155.277444 66.789868 
L 154.661128 68.316548 
L 154.044812 71.830844 
L 153.428496 76.543027 
L 152.81218 80.188991 
L 152.195864 82.188477 
L 151.579548 84.901597 
L 150.963232 88.018124 
L 150.346916 90.352782 
L 149.730601 90.705608 
L 149.114285 88.371108 
L 148.497969 86.654268 
L 147.881653 90.081502 
L 147.265337 89.847432 
L 146.649021 87.58194 
L 146.032705 85.270528 
L 145.416389 82.931085 
L 144.800073 81.951867 
L 144.183757 79.321085 
L 143.567441 78.755008 
L 142.951125 77.315667 
L 142.334809 73.922198 
L 141.718493 70.757689 
L 141.102177 66.736846 
L 140.485861 64.193747 
L 139.869545 62.004042 
L 139.253229 59.812574 
L 138.636913 57.468873 
L 138.020597 54.620058 
L 137.404281 52.478009 
L 136.787965 51.173372 
L 136.171649 50.274377 
L 135.555333 50.609805 
L 134.939017 51.508458 
L 134.322702 51.885976 
L 133.706386 52.819002 
L 133.09007 54.012001 
L 132.473754 54.558534 
L 131.857438 54.626613 
L 131.241122 54.990855 
L 130.624806 56.752026 
L 130.00849 59.72297 
L 129.392174 61.194493 
L 128.775858 62.004752 
L 128.159542 65.708733 
L 127.543226 69.85753 
L 126.92691 73.54637 
L 126.310594 77.300624 
L 125.694278 80.282616 
L 125.077962 82.014189 
L 124.461646 84.785954 
L 123.84533 85.992942 
L 123.229014 84.307403 
L 122.612698 81.58558 
L 121.996382 80.169689 
L 121.380066 79.264204 
L 120.76375 77.110705 
L 120.147434 73.837827 
L 119.531119 71.344047 
L 118.914803 69.896778 
L 118.298487 67.521334 
L 117.682171 63.794014 
L 117.065855 60.312645 
L 116.449539 58.982948 
L 115.833223 57.169239 
L 115.216907 53.243067 
L 114.600591 50.04719 
L 113.984275 48.357339 
L 113.367959 47.091782 
L 112.751643 45.299707 
L 112.135327 43.938749 
L 111.519011 42.983889 
L 110.902695 42.514823 
L 110.286379 42.598908 
L 109.670063 43.731719 
L 109.053747 44.922967 
L 108.437431 45.671855 
L 107.821115 47.106587 
L 107.204799 48.907721 
L 106.588483 50.91507 
L 105.972167 53.384077 
L 105.355851 56.925498 
L 104.739535 60.771771 
L 104.12322 62.900625 
L 103.506904 64.596522 
L 102.890588 67.9722 
L 102.274272 73.007826 
L 101.657956 78.020551 
L 101.04164 80.44108 
L 100.425324 78.616978 
L 99.809008 76.806368 
L 99.192692 76.489353 
L 98.576376 73.502689 
L 97.96006 69.142166 
L 97.343744 65.878923 
L 96.727428 62.740365 
L 96.111112 60.035958 
L 95.494796 57.832543 
L 94.87848 54.639834 
L 94.262164 50.708479 
L 93.645848 47.848196 
L 93.029532 46.292163 
L 92.413216 44.619973 
L 91.7969 43.37837 
L 91.180584 41.931093 
L 90.564268 40.442325 
L 89.947952 39.988494 
L 89.331637 40.705461 
L 88.715321 42.290021 
L 88.099005 44.37252 
L 87.482689 46.808487 
L 86.866373 49.520762 
L 86.250057 51.959081 
L 85.633741 54.845928 
L 85.017425 59.24455 
L 84.401109 63.091336 
L 83.784793 66.800072 
L 83.168477 70.209961 
L 82.552161 74.789338 
L 81.935845 78.197559 
L 81.319529 74.734378 
L 80.703213 69.250895 
L 80.086897 66.060239 
L 79.470581 64.129046 
L 78.854265 61.286574 
L 78.237949 56.523935 
L 77.621633 53.530406 
L 77.005317 52.722953 
L 76.389001 51.808721 
L 75.772685 50.810458 
L 75.156369 49.960953 
L 74.540053 50.333486 
L 73.923738 51.015994 
L 73.307422 52.029541 
L 72.691106 54.108526 
L 72.07479 56.746546 
L 71.458474 60.126859 
L 70.842158 64.389498 
L 70.225842 70.531877 
L 69.609526 79.354578 
L 68.99321 87.671737 
L 68.376894 93.563153 
L 67.760578 101.172835 
L 67.144262 116.135862 
L 66.527946 144.317862 
L 65.91163 189.817319 
z
" clip-path="url(#p461af8cc69)" style="fill: #4c72b0; fill-opacity: 0.25; stroke: #4c72b0; stroke-width: 0.3"/>
   </g>
   <g id="line2d_55">
    <path d="M 67.500644 103.31638 
L 68.720538 87.617065 
L 69.940432 74.59895 
L 71.160327 64.262034 
L 72.380221 56.606318 
L 72.990168 53.78391 
L 73.600115 51.631802 
L 74.210063 50.149994 
L 74.82001 49.338485 
L 75.429957 49.197277 
L 76.039904 49.726368 
L 76.649851 50.92576 
L 77.259798 52.795451 
L 77.869746 55.335442 
L 78.479693 58.545733 
L 79.699587 66.977215 
L 80.919481 78.089897 
L 82.139376 91.883778 
L 83.35927 108.358859 
L 84.579164 127.51514 
L 85.799059 149.35262 
L 87.409091 182.355801 
L 87.409091 182.355801 
" clip-path="url(#p461af8cc69)" style="fill: none; stroke: #4c72b0; stroke-linecap: round"/>
   </g>
   <g id="line2d_56">
    <path d="M 74.907987 182.355801 
L 76.649851 152.506695 
L 78.479693 124.989983 
L 80.309534 101.379022 
L 81.529429 87.808242 
L 82.749323 75.97335 
L 83.969217 65.874348 
L 85.189112 57.511235 
L 86.409006 50.884011 
L 87.6289 45.992675 
L 88.238847 44.197966 
L 88.848795 42.837229 
L 89.458742 41.910464 
L 90.068689 41.417671 
L 90.678636 41.358851 
L 91.288583 41.734003 
L 91.89853 42.543127 
L 92.508478 43.786223 
L 93.118425 45.463292 
L 93.728372 47.574333 
L 94.948266 53.098331 
L 96.168161 60.358218 
L 97.388055 69.353994 
L 98.607949 80.08566 
L 99.827844 92.553214 
L 101.047738 106.756657 
L 102.877579 131.316613 
L 104.707421 159.782319 
L 106.004832 182.355801 
L 106.004832 182.355801 
" clip-path="url(#p461af8cc69)" style="fill: none; stroke: #55a868; stroke-linecap: round"/>
   </g>
   <g id="line2d_57">
    <path d="M 92.048506 182.355801 
L 93.728372 158.635275 
L 95.558213 135.35447 
L 97.388055 114.709562 
L 99.217896 96.700549 
L 101.047738 81.327432 
L 102.267632 72.543074 
L 103.487527 64.930226 
L 104.707421 58.488886 
L 105.927315 53.219056 
L 107.14721 49.120736 
L 108.367104 46.193924 
L 108.977051 45.169834 
L 109.586998 44.438622 
L 110.196945 44.000287 
L 110.806893 43.854829 
L 111.41684 44.002249 
L 112.026787 44.442545 
L 112.636734 45.17572 
L 113.246681 46.201771 
L 113.856628 47.5207 
L 115.076523 51.037189 
L 116.296417 55.725188 
L 117.516311 61.584697 
L 118.736206 68.615714 
L 119.9561 76.818241 
L 121.175994 86.192277 
L 123.005836 102.449911 
L 124.835677 121.343441 
L 126.665519 142.872866 
L 128.49536 167.038188 
L 129.56116 182.355801 
L 129.56116 182.355801 
" clip-path="url(#p461af8cc69)" style="fill: none; stroke: #c44e52; stroke-linecap: round"/>
   </g>
   <g id="line2d_58">
    <path d="M 114.729113 182.355801 
L 116.296417 162.63337 
L 118.126259 141.677324 
L 119.9561 122.913766 
L 121.785942 106.342698 
L 123.615783 91.964119 
L 125.445625 79.778029 
L 126.665519 72.872019 
L 127.885413 66.940448 
L 129.105308 61.983317 
L 130.325202 58.000626 
L 131.545096 54.992374 
L 132.155043 53.853663 
L 132.764991 52.958562 
L 133.374938 52.30707 
L 133.984885 51.899189 
L 134.594832 51.734918 
L 135.204779 51.814256 
L 135.814726 52.137204 
L 136.424674 52.703763 
L 137.034621 53.513931 
L 137.644568 54.567709 
L 138.864462 57.406095 
L 140.084357 61.21892 
L 141.304251 66.006185 
L 142.524145 71.76789 
L 143.74404 78.504035 
L 144.963934 86.214619 
L 146.793775 99.607569 
L 148.623617 115.193008 
L 150.453458 132.970937 
L 152.2833 152.941355 
L 154.113141 175.104262 
L 154.67481 182.355801 
L 154.67481 182.355801 
" clip-path="url(#p461af8cc69)" style="fill: none; stroke: #8172b2; stroke-linecap: round"/>
   </g>
   <g id="line2d_59">
    <path d="M 138.669196 182.355801 
L 140.694304 160.490898 
L 142.524145 142.646301 
L 144.353987 126.598247 
L 146.183828 112.346738 
L 148.01367 99.891774 
L 149.843511 89.233353 
L 151.063406 83.12582 
L 152.2833 77.816751 
L 153.503194 73.306145 
L 154.723089 69.594004 
L 155.942983 66.680328 
L 157.162877 64.565115 
L 157.772824 63.806933 
L 158.382772 63.248366 
L 158.992719 62.889416 
L 159.602666 62.730082 
L 160.212613 62.770364 
L 160.82256 63.010262 
L 161.432507 63.449776 
L 162.042455 64.088906 
L 162.652402 64.927652 
L 163.872296 67.203992 
L 165.09219 70.278796 
L 166.312085 74.152065 
L 167.531979 78.823797 
L 168.751873 84.293994 
L 169.971768 90.562655 
L 171.801609 101.462766 
L 173.631451 114.159422 
L 175.461292 128.652623 
L 177.291134 144.942367 
L 179.120975 163.028656 
L 180.901171 182.355801 
L 180.901171 182.355801 
" clip-path="url(#p461af8cc69)" style="fill: none; stroke: #ccb974; stroke-linecap: round"/>
   </g>
   <g id="line2d_60">
    <path d="M 165.69948 182.355801 
L 167.531979 167.22913 
L 169.971768 148.974735 
L 171.801609 136.696705 
L 173.631451 125.629615 
L 175.461292 115.773468 
L 177.291134 107.128262 
L 179.120975 99.693998 
L 180.950817 93.470675 
L 182.170711 89.994539 
L 183.390605 87.056599 
L 184.6105 84.656855 
L 185.830394 82.795308 
L 187.050288 81.471956 
L 188.270183 80.686801 
L 188.88013 80.496048 
L 189.490077 80.439843 
L 190.100024 80.518187 
L 190.709971 80.731081 
L 191.319919 81.078523 
L 192.539813 82.177055 
L 193.759707 83.813783 
L 194.979602 85.988708 
L 196.199496 88.701829 
L 197.41939 91.953146 
L 198.639285 95.74266 
L 199.859179 100.07037 
L 201.68902 107.571052 
L 203.518862 116.282677 
L 205.348703 126.205243 
L 207.178545 137.33875 
L 209.008386 149.6832 
L 210.838228 163.238591 
L 213.179281 182.355801 
L 213.179281 182.355801 
" clip-path="url(#p461af8cc69)" style="fill: none; stroke: #64b5cd; stroke-linecap: round"/>
   </g>
   <g id="line2d_61">
    <path d="M 205.854044 182.355801 
L 207.178545 169.093998 
L 209.008386 152.565834 
L 210.838228 138.092439 
L 212.668069 125.673811 
L 213.887964 118.536263 
L 215.107858 112.311946 
L 216.327752 107.000859 
L 217.547647 102.603002 
L 218.767541 99.118375 
L 219.987435 96.546978 
L 220.597383 95.603741 
L 221.20733 94.888811 
L 221.817277 94.402189 
L 222.427224 94.143875 
L 223.037171 94.113868 
L 223.647118 94.312169 
L 224.257066 94.738777 
L 224.867013 95.393693 
L 225.47696 96.276916 
L 226.696854 98.728285 
L 227.916749 102.092884 
L 229.136643 106.370714 
L 230.356537 111.561774 
L 231.576432 117.666063 
L 232.796326 124.683583 
L 234.626167 136.92217 
L 236.456009 151.215524 
L 238.28585 167.563647 
L 239.769551 182.355801 
L 239.769551 182.355801 
" clip-path="url(#p461af8cc69)" style="fill: none; stroke: #4c72b0; stroke-linecap: round"/>
   </g>
   <g id="line2d_62">
    <path d="M 162.67793 182.355801 
L 168.141926 176.644509 
L 173.631451 171.245825 
L 179.120975 166.18714 
L 184.000553 161.975962 
L 188.88013 158.033425 
L 193.759707 154.359529 
L 198.639285 150.954274 
L 203.518862 147.81766 
L 208.398439 144.949687 
L 213.278017 142.350355 
L 218.157594 140.019664 
L 223.037171 137.957614 
L 227.916749 136.164205 
L 232.186379 134.815341 
L 236.456009 133.672156 
L 240.725639 132.734649 
L 244.995269 132.00282 
L 249.264899 131.47667 
L 253.53453 131.156198 
L 257.80416 131.041404 
L 262.07379 131.132288 
L 266.34342 131.428851 
L 270.61305 131.931092 
L 274.882681 132.639011 
L 279.152311 133.552608 
L 283.421941 134.671883 
L 287.691571 135.996837 
L 291.961201 137.527469 
L 296.840779 139.528614 
L 301.720356 141.7984 
L 306.599933 144.336826 
L 311.479511 147.143894 
L 316.359088 150.219602 
L 321.238665 153.563952 
L 326.118243 157.176943 
L 330.99782 161.058574 
L 335.877397 165.208847 
L 340.756975 169.62776 
L 346.246499 174.920148 
L 351.736024 180.552534 
L 353.426459 182.355801 
L 353.426459 182.355801 
" clip-path="url(#p461af8cc69)" style="fill: none; stroke: #55a868; stroke-linecap: round"/>
   </g>
   <g id="patch_3">
    <path d="M 52.282462 143.788862 
L 52.282462 5.188862 
" style="fill: none"/>
   </g>
   <g id="patch_4">
    <path d="M 387.082462 143.788862 
L 387.082462 5.188862 
" style="fill: none"/>
   </g>
   <g id="patch_5">
    <path d="M 52.282462 143.788862 
L 387.082462 143.788862 
" style="fill: none"/>
   </g>
   <g id="patch_6">
    <path d="M 52.282462 5.188862 
L 387.082462 5.188862 
" style="fill: none"/>
   </g>
   <g id="text_14">
    <!-- 0 -->
    <g transform="translate(75.253478 46.603481) scale(0.1 -0.1)">
     <use xlink:href="#CMR17-30" transform="scale(0.996264)"/>
    </g>
   </g>
   <g id="text_15">
    <!-- 1 -->
    <g transform="translate(90.456334 39.753938) scale(0.1 -0.1)">
     <use xlink:href="#CMR17-31" transform="scale(0.996264)"/>
    </g>
   </g>
   <g id="text_16">
    <!-- 2 -->
    <g transform="translate(110.80485 42.007841) scale(0.1 -0.1)">
     <use xlink:href="#CMR17-32" transform="scale(0.996264)"/>
    </g>
   </g>
   <g id="text_17">
    <!-- 3 -->
    <g transform="translate(134.701159 48.733902) scale(0.1 -0.1)">
     <defs>
      <path id="CMR17-33" d="M 1414 2157 
C 1984 2157 2234 1662 2234 1090 
C 2234 320 1824 25 1453 25 
C 1114 25 563 194 390 693 
C 422 680 454 680 486 680 
C 640 680 755 782 755 948 
C 755 1133 614 1216 486 1216 
C 378 1216 211 1165 211 926 
C 211 335 787 -128 1466 -128 
C 2176 -128 2720 430 2720 1085 
C 2720 1707 2208 2157 1600 2227 
C 2086 2328 2554 2756 2554 3329 
C 2554 3820 2048 4179 1472 4179 
C 890 4179 378 3829 378 3329 
C 378 3110 544 3072 627 3072 
C 762 3072 877 3155 877 3321 
C 877 3486 762 3569 627 3569 
C 602 3569 570 3569 544 3557 
C 730 3959 1235 4032 1459 4032 
C 1683 4032 2106 3925 2106 3320 
C 2106 3143 2080 2828 1862 2550 
C 1670 2304 1453 2304 1242 2284 
C 1210 2284 1062 2269 1037 2269 
C 992 2263 966 2257 966 2208 
C 966 2163 973 2157 1101 2157 
L 1414 2157 
z
" transform="scale(0.015625)"/>
     </defs>
     <use xlink:href="#CMR17-33" transform="scale(0.996264)"/>
    </g>
   </g>
   <g id="text_18">
    <!-- 4 -->
    <g transform="translate(159.784554 57.052235) scale(0.1 -0.1)">
     <use xlink:href="#CMR17-34" transform="scale(0.996264)"/>
    </g>
   </g>
   <g id="text_19">
    <!-- 5 -->
    <g transform="translate(189.439895 66.741206) scale(0.1 -0.1)">
     <defs>
      <path id="CMR17-35" d="M 730 3692 
C 794 3666 1056 3584 1325 3584 
C 1920 3584 2246 3911 2432 4100 
C 2432 4157 2432 4192 2394 4192 
C 2387 4192 2374 4192 2323 4163 
C 2099 4058 1837 3973 1517 3973 
C 1325 3973 1037 3999 723 4139 
C 653 4171 640 4171 634 4171 
C 602 4171 595 4164 595 4037 
L 595 2203 
C 595 2089 595 2057 659 2057 
C 691 2057 704 2070 736 2114 
C 941 2401 1222 2522 1542 2522 
C 1766 2522 2246 2382 2246 1289 
C 2246 1085 2246 715 2054 421 
C 1894 159 1645 25 1370 25 
C 947 25 518 320 403 814 
C 429 807 480 795 506 795 
C 589 795 749 840 749 1038 
C 749 1210 627 1280 506 1280 
C 358 1280 262 1190 262 1011 
C 262 454 704 -128 1382 -128 
C 2042 -128 2669 440 2669 1264 
C 2669 2030 2170 2624 1549 2624 
C 1222 2624 947 2503 730 2274 
L 730 3692 
z
" transform="scale(0.015625)"/>
     </defs>
     <use xlink:href="#CMR17-35" transform="scale(0.996264)"/>
    </g>
   </g>
   <g id="text_20">
    <!-- 6 -->
    <g transform="translate(222.812364 70.872084) scale(0.1 -0.1)">
     <use xlink:href="#CMR17-36" transform="scale(0.996264)"/>
    </g>
   </g>
   <g id="text_21">
    <!-- 7+ -->
    <g transform="translate(258.052327 73.944468) scale(0.1 -0.1)">
     <defs>
      <path id="CMR17-37" d="M 2886 3941 
L 2886 4081 
L 1382 4081 
C 634 4081 621 4165 595 4288 
L 480 4288 
L 294 3094 
L 410 3094 
C 429 3215 474 3540 550 3661 
C 589 3712 1062 3712 1171 3712 
L 2579 3712 
L 1869 2661 
C 1395 1954 1069 999 1069 165 
C 1069 89 1069 -128 1299 -128 
C 1530 -128 1530 89 1530 171 
L 1530 465 
C 1530 1508 1709 2196 2003 2636 
L 2886 3941 
z
" transform="scale(0.015625)"/>
      <path id="CMR17-2b" d="M 2413 1472 
L 4109 1472 
C 4198 1472 4307 1472 4307 1580 
C 4307 1695 4205 1695 4109 1695 
L 2413 1695 
L 2413 3386 
C 2413 3475 2413 3584 2304 3584 
C 2189 3584 2189 3482 2189 3386 
L 2189 1695 
L 493 1695 
C 403 1695 294 1695 294 1587 
C 294 1472 397 1472 493 1472 
L 2189 1472 
L 2189 -218 
C 2189 -307 2189 -416 2298 -416 
C 2413 -416 2413 -314 2413 -218 
L 2413 1472 
z
" transform="scale(0.015625)"/>
     </defs>
     <use xlink:href="#CMR17-37" transform="scale(0.996264)"/>
     <use xlink:href="#CMR17-2b" transform="translate(45.690477 0) scale(0.996264)"/>
    </g>
   </g>
   <g id="text_22">
    <!-- Area -->
    <g style="fill: #262626" transform="translate(324.645132 20.93394) scale(0.15 -0.15)">
     <defs>
      <path id="CMR17-41" d="M 2323 4378 
C 2291 4461 2278 4480 2214 4480 
C 2150 4480 2138 4461 2106 4378 
L 749 566 
C 627 223 371 153 147 153 
L 147 -13 
C 262 0 518 0 640 0 
C 800 0 1056 0 1210 -13 
L 1210 153 
C 909 153 864 361 864 439 
C 864 497 877 530 890 569 
L 1229 1536 
L 2906 1536 
L 3290 442 
C 3322 365 3322 352 3322 327 
C 3322 153 3046 153 2925 153 
L 2925 0 
C 3110 0 3443 0 3642 0 
C 3808 0 4128 0 4282 -13 
L 4282 153 
C 3942 153 3827 153 3744 387 
L 2323 4378 
z
M 2067 3893 
L 2848 1702 
L 1286 1702 
L 2067 3893 
z
" transform="scale(0.015625)"/>
      <path id="CMR17-72" d="M 960 1497 
C 960 2112 1222 2688 1702 2688 
C 1747 2688 1792 2682 1837 2662 
C 1837 2662 1696 2617 1696 2452 
C 1696 2298 1818 2234 1914 2234 
C 1990 2234 2131 2279 2131 2458 
C 2131 2663 1926 2790 1709 2790 
C 1222 2790 1011 2317 947 2093 
L 941 2093 
L 941 2790 
L 198 2720 
L 198 2554 
C 576 2554 634 2515 634 2208 
L 634 428 
C 634 184 608 153 198 153 
L 198 -13 
C 352 0 646 0 813 0 
C 998 0 1325 0 1498 -13 
L 1498 153 
C 1037 153 960 153 960 440 
L 960 1497 
z
" transform="scale(0.015625)"/>
      <path id="CMR17-61" d="M 2304 1653 
C 2304 2072 2304 2294 2035 2543 
C 1798 2752 1523 2816 1306 2816 
C 800 2816 435 2407 435 1971 
C 435 1728 627 1728 666 1728 
C 749 1728 896 1778 896 1954 
C 896 2112 774 2181 666 2181 
C 640 2181 608 2174 589 2168 
C 723 2592 1069 2714 1293 2714 
C 1613 2714 1965 2429 1965 1885 
L 1965 1600 
C 1587 1600 1133 1549 774 1357 
C 371 1133 256 813 256 570 
C 256 77 832 -64 1171 -64 
C 1523 -64 1850 139 1990 511 
C 2003 233 2182 -18 2464 -18 
C 2598 -18 2938 70 2938 567 
L 2938 920 
L 2822 920 
L 2822 562 
C 2822 178 2650 128 2566 128 
C 2304 128 2304 458 2304 738 
L 2304 1653 
z
M 1965 870 
C 1965 317 1568 38 1216 38 
C 896 38 646 275 646 570 
C 646 761 730 1100 1101 1305 
C 1408 1478 1760 1504 1965 1504 
L 1965 870 
z
" transform="scale(0.015625)"/>
     </defs>
     <use xlink:href="#CMR17-41" transform="scale(0.996264)"/>
     <use xlink:href="#CMR17-72" transform="translate(69.07243 0) scale(0.996264)"/>
     <use xlink:href="#CMR17-65" transform="translate(104.353198 0) scale(0.996264)"/>
     <use xlink:href="#CMR17-61" transform="translate(144.838858 0) scale(0.996264)"/>
    </g>
   </g>
  </g>
 </g>
 <defs>
  <clipPath id="p461af8cc69">
   <rect x="52.282462" y="5.188862" width="334.8" height="138.6"/>
  </clipPath>
 </defs>
</svg>
