<?xml version="1.0" encoding="utf-8" standalone="no"?>
<!DOCTYPE svg PUBLIC "-//W3C//DTD SVG 1.1//EN"
  "http://www.w3.org/Graphics/SVG/1.1/DTD/svg11.dtd">
<svg xmlns:xlink="http://www.w3.org/1999/xlink" width="387.082462pt" height="181.355801pt" viewBox="0 0 387.082462 181.355801" xmlns="http://www.w3.org/2000/svg" version="1.1">
 <metadata>
  <rdf:RDF xmlns:dc="http://purl.org/dc/elements/1.1/" xmlns:cc="http://creativecommons.org/ns#" xmlns:rdf="http://www.w3.org/1999/02/22-rdf-syntax-ns#">
   <cc:Work>
    <dc:type rdf:resource="http://purl.org/dc/dcmitype/StillImage"/>
    <dc:date>2024-10-11T08:48:10.543757</dc:date>
    <dc:format>image/svg+xml</dc:format>
    <dc:creator>
     <cc:Agent>
      <dc:title>Matplotlib v3.9.2, https://matplotlib.org/</dc:title>
     </cc:Agent>
    </dc:creator>
   </cc:Work>
  </rdf:RDF>
 </metadata>
 <defs>
  <style type="text/css">*{stroke-linejoin: round; stroke-linecap: butt}</style>
 </defs>
 <g id="figure_1">
  <g id="patch_1">
   <path d="M 0 181.355801 
L 387.082462 181.355801 
L 387.082462 0 
L 0 0 
z
" style="fill: #ffffff"/>
  </g>
  <g id="axes_1">
   <g id="patch_2">
    <path d="M 52.282462 143.788862 
L 387.082462 143.788862 
L 387.082462 5.188862 
L 52.282462 5.188862 
z
" style="fill: #eaeaf2"/>
   </g>
   <g id="matplotlib.axis_1">
    <g id="xtick_1">
     <g id="line2d_1">
      <path d="M 67.500644 143.788862 
L 67.500644 5.188862 
" clip-path="url(#pfec6158daa)" style="fill: none; stroke: #ffffff; stroke-linecap: round"/>
     </g>
     <g id="line2d_2"/>
     <g id="text_1">
      <!-- $\mathdefault{0.0}$ -->
      <g style="fill: #262626" transform="translate(58.152118 161.166587) scale(0.15 -0.15)">
       <defs>
        <path id="CMR17-30" d="M 2688 2025 
C 2688 2416 2682 3080 2413 3591 
C 2176 4039 1798 4198 1466 4198 
C 1158 4198 768 4058 525 3597 
C 269 3118 243 2524 243 2025 
C 243 1661 250 1106 448 619 
C 723 -39 1216 -128 1466 -128 
C 1760 -128 2208 -7 2470 600 
C 2662 1042 2688 1559 2688 2025 
z
M 1466 -26 
C 1056 -26 813 325 723 812 
C 653 1188 653 1738 653 2096 
C 653 2588 653 2997 736 3387 
C 858 3929 1216 4096 1466 4096 
C 1728 4096 2067 3923 2189 3400 
C 2272 3036 2278 2607 2278 2096 
C 2278 1680 2278 1169 2202 792 
C 2067 95 1690 -26 1466 -26 
z
" transform="scale(0.015625)"/>
        <path id="CMMI12-3a" d="M 1178 307 
C 1178 492 1024 619 870 619 
C 685 619 557 466 557 313 
C 557 128 710 0 864 0 
C 1050 0 1178 153 1178 307 
z
" transform="scale(0.015625)"/>
       </defs>
       <use xlink:href="#CMR17-30" transform="scale(0.996264)"/>
       <use xlink:href="#CMMI12-3a" transform="translate(45.690477 0) scale(0.996264)"/>
       <use xlink:href="#CMR17-30" transform="translate(72.787654 0) scale(0.996264)"/>
      </g>
     </g>
    </g>
    <g id="xtick_2">
     <g id="line2d_3">
      <path d="M 128.373371 143.788862 
L 128.373371 5.188862 
" clip-path="url(#pfec6158daa)" style="fill: none; stroke: #ffffff; stroke-linecap: round"/>
     </g>
     <g id="line2d_4"/>
     <g id="text_2">
      <!-- $\mathdefault{0.2}$ -->
      <g style="fill: #262626" transform="translate(119.024845 161.166587) scale(0.15 -0.15)">
       <defs>
        <path id="CMR17-32" d="M 2669 989 
L 2554 989 
C 2490 536 2438 459 2413 420 
C 2381 369 1920 369 1830 369 
L 602 369 
C 832 619 1280 1072 1824 1597 
C 2214 1967 2669 2402 2669 3035 
C 2669 3790 2067 4224 1395 4224 
C 691 4224 262 3604 262 3030 
C 262 2780 448 2748 525 2748 
C 589 2748 781 2787 781 3010 
C 781 3207 614 3264 525 3264 
C 486 3264 448 3258 422 3245 
C 544 3790 915 4058 1306 4058 
C 1862 4058 2227 3617 2227 3035 
C 2227 2479 1901 2000 1536 1584 
L 262 146 
L 262 0 
L 2515 0 
L 2669 989 
z
" transform="scale(0.015625)"/>
       </defs>
       <use xlink:href="#CMR17-30" transform="scale(0.996264)"/>
       <use xlink:href="#CMMI12-3a" transform="translate(45.690477 0) scale(0.996264)"/>
       <use xlink:href="#CMR17-32" transform="translate(72.787654 0) scale(0.996264)"/>
      </g>
     </g>
    </g>
    <g id="xtick_3">
     <g id="line2d_5">
      <path d="M 189.246098 143.788862 
L 189.246098 5.188862 
" clip-path="url(#pfec6158daa)" style="fill: none; stroke: #ffffff; stroke-linecap: round"/>
     </g>
     <g id="line2d_6"/>
     <g id="text_3">
      <!-- $\mathdefault{0.4}$ -->
      <g style="fill: #262626" transform="translate(179.897572 161.166587) scale(0.15 -0.15)">
       <defs>
        <path id="CMR17-34" d="M 2150 4122 
C 2150 4256 2144 4256 2029 4256 
L 128 1254 
L 128 1088 
L 1779 1088 
L 1779 457 
C 1779 224 1766 160 1318 160 
L 1197 160 
L 1197 0 
C 1402 0 1747 0 1965 0 
C 2182 0 2528 0 2733 0 
L 2733 160 
L 2611 160 
C 2163 160 2150 224 2150 457 
L 2150 1088 
L 2803 1088 
L 2803 1254 
L 2150 1254 
L 2150 4122 
z
M 1798 3703 
L 1798 1254 
L 256 1254 
L 1798 3703 
z
" transform="scale(0.015625)"/>
       </defs>
       <use xlink:href="#CMR17-30" transform="scale(0.996264)"/>
       <use xlink:href="#CMMI12-3a" transform="translate(45.690477 0) scale(0.996264)"/>
       <use xlink:href="#CMR17-34" transform="translate(72.787654 0) scale(0.996264)"/>
      </g>
     </g>
    </g>
    <g id="xtick_4">
     <g id="line2d_7">
      <path d="M 250.118826 143.788862 
L 250.118826 5.188862 
" clip-path="url(#pfec6158daa)" style="fill: none; stroke: #ffffff; stroke-linecap: round"/>
     </g>
     <g id="line2d_8"/>
     <g id="text_4">
      <!-- $\mathdefault{0.6}$ -->
      <g style="fill: #262626" transform="translate(240.770299 161.166587) scale(0.15 -0.15)">
       <defs>
        <path id="CMR17-36" d="M 678 2176 
C 678 3690 1395 4032 1811 4032 
C 1946 4032 2272 4009 2400 3776 
C 2298 3776 2106 3776 2106 3553 
C 2106 3381 2246 3323 2336 3323 
C 2394 3323 2566 3348 2566 3560 
C 2566 3954 2246 4179 1805 4179 
C 1043 4179 243 3390 243 1984 
C 243 253 966 -128 1478 -128 
C 2099 -128 2688 427 2688 1283 
C 2688 2081 2170 2662 1517 2662 
C 1126 2662 838 2407 678 1960 
L 678 2176 
z
M 1478 25 
C 691 25 691 1200 691 1436 
C 691 1896 909 2560 1504 2560 
C 1613 2560 1926 2560 2138 2120 
C 2253 1870 2253 1609 2253 1289 
C 2253 944 2253 690 2118 434 
C 1978 171 1773 25 1478 25 
z
" transform="scale(0.015625)"/>
       </defs>
       <use xlink:href="#CMR17-30" transform="scale(0.996264)"/>
       <use xlink:href="#CMMI12-3a" transform="translate(45.690477 0) scale(0.996264)"/>
       <use xlink:href="#CMR17-36" transform="translate(72.787654 0) scale(0.996264)"/>
      </g>
     </g>
    </g>
    <g id="xtick_5">
     <g id="line2d_9">
      <path d="M 310.991553 143.788862 
L 310.991553 5.188862 
" clip-path="url(#pfec6158daa)" style="fill: none; stroke: #ffffff; stroke-linecap: round"/>
     </g>
     <g id="line2d_10"/>
     <g id="text_5">
      <!-- $\mathdefault{0.8}$ -->
      <g style="fill: #262626" transform="translate(301.643027 161.166587) scale(0.15 -0.15)">
       <defs>
        <path id="CMR17-38" d="M 1741 2264 
C 2144 2467 2554 2773 2554 3263 
C 2554 3841 1990 4179 1472 4179 
C 890 4179 378 3759 378 3180 
C 378 3021 416 2747 666 2505 
C 730 2442 998 2251 1171 2130 
C 883 1983 211 1634 211 934 
C 211 279 838 -128 1459 -128 
C 2144 -128 2720 362 2720 1010 
C 2720 1590 2330 1857 2074 2029 
L 1741 2264 
z
M 902 2822 
C 851 2854 595 3051 595 3351 
C 595 3739 998 4032 1459 4032 
C 1965 4032 2336 3676 2336 3262 
C 2336 2669 1670 2331 1638 2331 
C 1632 2331 1626 2331 1574 2370 
L 902 2822 
z
M 2080 1519 
C 2176 1449 2483 1240 2483 851 
C 2483 381 2010 25 1472 25 
C 890 25 448 438 448 940 
C 448 1443 838 1862 1280 2060 
L 2080 1519 
z
" transform="scale(0.015625)"/>
       </defs>
       <use xlink:href="#CMR17-30" transform="scale(0.996264)"/>
       <use xlink:href="#CMMI12-3a" transform="translate(45.690477 0) scale(0.996264)"/>
       <use xlink:href="#CMR17-38" transform="translate(72.787654 0) scale(0.996264)"/>
      </g>
     </g>
    </g>
    <g id="xtick_6">
     <g id="line2d_11">
      <path d="M 371.86428 143.788862 
L 371.86428 5.188862 
" clip-path="url(#pfec6158daa)" style="fill: none; stroke: #ffffff; stroke-linecap: round"/>
     </g>
     <g id="line2d_12"/>
     <g id="text_6">
      <!-- $\mathdefault{1.0}$ -->
      <g style="fill: #262626" transform="translate(362.515754 161.166587) scale(0.15 -0.15)">
       <defs>
        <path id="CMR17-31" d="M 1702 4058 
C 1702 4192 1696 4192 1606 4192 
C 1357 3916 979 3827 621 3827 
C 602 3827 570 3827 563 3808 
C 557 3795 557 3782 557 3648 
C 755 3648 1088 3686 1344 3839 
L 1344 461 
C 1344 236 1331 160 781 160 
L 589 160 
L 589 0 
C 896 0 1216 0 1523 0 
C 1830 0 2150 0 2458 0 
L 2458 160 
L 2266 160 
C 1715 160 1702 230 1702 458 
L 1702 4058 
z
" transform="scale(0.015625)"/>
       </defs>
       <use xlink:href="#CMR17-31" transform="scale(0.996264)"/>
       <use xlink:href="#CMMI12-3a" transform="translate(45.690477 0) scale(0.996264)"/>
       <use xlink:href="#CMR17-30" transform="translate(72.787654 0) scale(0.996264)"/>
      </g>
     </g>
    </g>
    <g id="text_7">
     <!-- $s_1$ -->
     <g style="fill: #262626" transform="translate(213.621025 178.450057) scale(0.15 -0.15)">
      <defs>
       <path id="CMMI12-73" d="M 1459 1280 
C 1568 1261 1741 1223 1779 1216 
C 1862 1192 2150 1090 2150 783 
C 2150 586 1971 70 1229 70 
C 1094 70 614 70 486 436 
C 742 404 870 603 870 745 
C 870 880 781 950 653 950 
C 512 950 326 841 326 552 
C 326 173 710 -64 1222 -64 
C 2195 -64 2483 651 2483 984 
C 2483 1079 2483 1258 2278 1462 
C 2118 1616 1965 1648 1619 1718 
C 1446 1756 1171 1814 1171 2101 
C 1171 2229 1286 2689 1894 2689 
C 2163 2689 2426 2589 2490 2368 
C 2208 2368 2195 2125 2195 2119 
C 2195 1984 2317 1946 2374 1946 
C 2464 1946 2643 2015 2643 2281 
C 2643 2545 2400 2816 1901 2816 
C 1062 2816 838 2160 838 1899 
C 838 1414 1312 1312 1459 1280 
z
" transform="scale(0.015625)"/>
      </defs>
      <use xlink:href="#CMMI12-73" transform="scale(0.996264)"/>
      <use xlink:href="#CMR17-31" transform="translate(45.950048 -14.943915) scale(0.697382)"/>
     </g>
    </g>
   </g>
   <g id="matplotlib.axis_2">
    <g id="ytick_1">
     <g id="line2d_13">
      <path d="M 52.282462 143.788862 
L 387.082462 143.788862 
" clip-path="url(#pfec6158daa)" style="fill: none; stroke: #ffffff; stroke-linecap: round"/>
     </g>
     <g id="line2d_14"/>
     <g id="text_8">
      <!-- $\mathdefault{10^{-2}}$ -->
      <g style="fill: #262626" transform="translate(17.283469 148.977725) scale(0.15 -0.15)">
       <defs>
        <path id="CMSY10-0" d="M 4218 1472 
C 4326 1472 4442 1472 4442 1600 
C 4442 1728 4326 1728 4218 1728 
L 755 1728 
C 646 1728 531 1728 531 1600 
C 531 1472 646 1472 755 1472 
L 4218 1472 
z
" transform="scale(0.015625)"/>
       </defs>
       <use xlink:href="#CMR17-31" transform="scale(0.996264)"/>
       <use xlink:href="#CMR17-30" transform="translate(45.690477 0) scale(0.996264)"/>
       <use xlink:href="#CMSY10-0" transform="translate(91.380954 36.153639) scale(0.697382)"/>
       <use xlink:href="#CMR17-32" transform="translate(145.621947 36.153639) scale(0.697382)"/>
      </g>
     </g>
    </g>
    <g id="ytick_2">
     <g id="line2d_15">
      <path d="M 52.282462 109.138862 
L 387.082462 109.138862 
" clip-path="url(#pfec6158daa)" style="fill: none; stroke: #ffffff; stroke-linecap: round"/>
     </g>
     <g id="line2d_16"/>
     <g id="text_9">
      <!-- $\mathdefault{10^{-1}}$ -->
      <g style="fill: #262626" transform="translate(17.283469 114.327725) scale(0.15 -0.15)">
       <use xlink:href="#CMR17-31" transform="scale(0.996264)"/>
       <use xlink:href="#CMR17-30" transform="translate(45.690477 0) scale(0.996264)"/>
       <use xlink:href="#CMSY10-0" transform="translate(91.380954 36.153639) scale(0.697382)"/>
       <use xlink:href="#CMR17-31" transform="translate(145.621947 36.153639) scale(0.697382)"/>
      </g>
     </g>
    </g>
    <g id="ytick_3">
     <g id="line2d_17">
      <path d="M 52.282462 74.488862 
L 387.082462 74.488862 
" clip-path="url(#pfec6158daa)" style="fill: none; stroke: #ffffff; stroke-linecap: round"/>
     </g>
     <g id="line2d_18"/>
     <g id="text_10">
      <!-- $\mathdefault{10^{0}}$ -->
      <g style="fill: #262626" transform="translate(25.419615 79.677725) scale(0.15 -0.15)">
       <use xlink:href="#CMR17-31" transform="scale(0.996264)"/>
       <use xlink:href="#CMR17-30" transform="translate(45.690477 0) scale(0.996264)"/>
       <use xlink:href="#CMR17-30" transform="translate(91.380954 36.153639) scale(0.697382)"/>
      </g>
     </g>
    </g>
    <g id="ytick_4">
     <g id="line2d_19">
      <path d="M 52.282462 39.838862 
L 387.082462 39.838862 
" clip-path="url(#pfec6158daa)" style="fill: none; stroke: #ffffff; stroke-linecap: round"/>
     </g>
     <g id="line2d_20"/>
     <g id="text_11">
      <!-- $\mathdefault{10^{1}}$ -->
      <g style="fill: #262626" transform="translate(25.419615 45.027725) scale(0.15 -0.15)">
       <use xlink:href="#CMR17-31" transform="scale(0.996264)"/>
       <use xlink:href="#CMR17-30" transform="translate(45.690477 0) scale(0.996264)"/>
       <use xlink:href="#CMR17-31" transform="translate(91.380954 36.153639) scale(0.697382)"/>
      </g>
     </g>
    </g>
    <g id="ytick_5">
     <g id="line2d_21">
      <path d="M 52.282462 5.188862 
L 387.082462 5.188862 
" clip-path="url(#pfec6158daa)" style="fill: none; stroke: #ffffff; stroke-linecap: round"/>
     </g>
     <g id="line2d_22"/>
     <g id="text_12">
      <!-- $\mathdefault{10^{2}}$ -->
      <g style="fill: #262626" transform="translate(25.419615 10.377725) scale(0.15 -0.15)">
       <use xlink:href="#CMR17-31" transform="scale(0.996264)"/>
       <use xlink:href="#CMR17-30" transform="translate(45.690477 0) scale(0.996264)"/>
       <use xlink:href="#CMR17-32" transform="translate(91.380954 36.153639) scale(0.697382)"/>
      </g>
     </g>
    </g>
    <g id="ytick_6">
     <g id="line2d_23"/>
    </g>
    <g id="ytick_7">
     <g id="line2d_24"/>
    </g>
    <g id="ytick_8">
     <g id="line2d_25"/>
    </g>
    <g id="ytick_9">
     <g id="line2d_26"/>
    </g>
    <g id="ytick_10">
     <g id="line2d_27"/>
    </g>
    <g id="ytick_11">
     <g id="line2d_28"/>
    </g>
    <g id="ytick_12">
     <g id="line2d_29"/>
    </g>
    <g id="ytick_13">
     <g id="line2d_30"/>
    </g>
    <g id="ytick_14">
     <g id="line2d_31"/>
    </g>
    <g id="ytick_15">
     <g id="line2d_32"/>
    </g>
    <g id="ytick_16">
     <g id="line2d_33"/>
    </g>
    <g id="ytick_17">
     <g id="line2d_34"/>
    </g>
    <g id="ytick_18">
     <g id="line2d_35"/>
    </g>
    <g id="ytick_19">
     <g id="line2d_36"/>
    </g>
    <g id="ytick_20">
     <g id="line2d_37"/>
    </g>
    <g id="ytick_21">
     <g id="line2d_38"/>
    </g>
    <g id="ytick_22">
     <g id="line2d_39"/>
    </g>
    <g id="ytick_23">
     <g id="line2d_40"/>
    </g>
    <g id="ytick_24">
     <g id="line2d_41"/>
    </g>
    <g id="ytick_25">
     <g id="line2d_42"/>
    </g>
    <g id="ytick_26">
     <g id="line2d_43"/>
    </g>
    <g id="ytick_27">
     <g id="line2d_44"/>
    </g>
    <g id="ytick_28">
     <g id="line2d_45"/>
    </g>
    <g id="ytick_29">
     <g id="line2d_46"/>
    </g>
    <g id="ytick_30">
     <g id="line2d_47"/>
    </g>
    <g id="ytick_31">
     <g id="line2d_48"/>
    </g>
    <g id="ytick_32">
     <g id="line2d_49"/>
    </g>
    <g id="ytick_33">
     <g id="line2d_50"/>
    </g>
    <g id="ytick_34">
     <g id="line2d_51"/>
    </g>
    <g id="ytick_35">
     <g id="line2d_52"/>
    </g>
    <g id="ytick_36">
     <g id="line2d_53"/>
    </g>
    <g id="ytick_37">
     <g id="line2d_54"/>
    </g>
    <g id="text_13">
     <!-- Density -->
     <g style="fill: #262626" transform="translate(10.377725 98.814048) rotate(-90) scale(0.15 -0.15)">
      <defs>
       <path id="CMR17-44" d="M 333 4352 
L 333 4186 
C 774 4186 845 4186 845 3900 
L 845 452 
C 845 166 774 166 333 166 
L 333 0 
L 2368 0 
C 3398 0 4224 943 4224 2141 
C 4224 3346 3411 4352 2368 4352 
L 333 4352 
z
M 1523 166 
C 1267 166 1254 197 1254 414 
L 1254 3938 
C 1254 4155 1267 4186 1523 4186 
L 2240 4186 
C 2771 4186 3750 3874 3750 2141 
C 3750 1242 3488 879 3366 707 
C 3213 510 2848 166 2240 166 
L 1523 166 
z
" transform="scale(0.015625)"/>
       <path id="CMR17-65" d="M 2438 1472 
C 2464 1498 2464 1511 2464 1576 
C 2464 2238 2118 2816 1389 2816 
C 710 2816 173 2169 173 1383 
C 173 551 781 -64 1459 -64 
C 2176 -64 2458 607 2458 740 
C 2458 784 2419 784 2406 784 
C 2362 784 2355 771 2330 696 
C 2189 265 1837 51 1504 51 
C 1229 51 954 203 781 480 
C 582 803 582 1176 582 1472 
L 2438 1472 
z
M 589 1568 
C 634 2505 1126 2714 1382 2714 
C 1818 2714 2112 2297 2118 1568 
L 589 1568 
z
" transform="scale(0.015625)"/>
       <path id="CMR17-6e" d="M 2656 1933 
C 2656 2259 2592 2790 1837 2790 
C 1331 2790 1069 2400 973 2144 
L 966 2144 
L 966 2790 
L 211 2720 
L 211 2554 
C 589 2554 646 2515 646 2208 
L 646 428 
C 646 184 621 153 211 153 
L 211 -13 
C 365 0 646 0 813 0 
C 979 0 1267 0 1421 -13 
L 1421 153 
C 1011 153 986 178 986 428 
L 986 1658 
C 986 2247 1344 2688 1792 2688 
C 2266 2688 2317 2266 2317 1958 
L 2317 428 
C 2317 184 2291 153 1882 153 
L 1882 -13 
C 2035 0 2317 0 2483 0 
C 2650 0 2938 0 3091 -13 
L 3091 153 
C 2682 153 2656 178 2656 428 
L 2656 1933 
z
" transform="scale(0.015625)"/>
       <path id="CMR17-73" d="M 1978 2697 
C 1978 2813 1971 2819 1933 2819 
C 1907 2819 1901 2813 1824 2717 
C 1805 2691 1747 2626 1728 2601 
C 1523 2819 1235 2819 1126 2819 
C 416 2819 160 2447 160 2076 
C 160 1498 813 1365 998 1325 
C 1402 1243 1542 1217 1677 1101 
C 1760 1025 1901 884 1901 654 
C 1901 384 1747 38 1158 38 
C 602 38 403 460 288 1021 
C 269 1110 269 1117 218 1117 
C 166 1117 160 1110 160 983 
L 160 63 
C 160 -51 166 -58 205 -58 
C 237 -58 243 -51 275 0 
C 314 57 410 211 448 276 
C 576 103 800 -64 1158 -64 
C 1792 -64 2131 283 2131 784 
C 2131 1112 1958 1285 1875 1362 
C 1683 1561 1459 1606 1190 1657 
C 838 1735 390 1825 390 2217 
C 390 2383 480 2737 1126 2737 
C 1811 2737 1850 2094 1862 1888 
C 1869 1856 1901 1849 1920 1849 
C 1978 1849 1978 1869 1978 1978 
L 1978 2697 
z
" transform="scale(0.015625)"/>
       <path id="CMR17-69" d="M 992 3909 
C 992 4049 877 4170 730 4170 
C 589 4170 467 4056 467 3909 
C 467 3769 582 3648 730 3648 
C 870 3648 992 3763 992 3909 
z
M 243 2706 
L 243 2541 
C 602 2541 653 2502 653 2197 
L 653 427 
C 653 184 627 153 218 153 
L 218 -13 
C 371 0 646 0 806 0 
C 960 0 1222 0 1370 -13 
L 1370 153 
C 992 153 979 191 979 420 
L 979 2776 
L 243 2706 
z
" transform="scale(0.015625)"/>
       <path id="CMR17-74" d="M 966 2560 
L 1862 2560 
L 1862 2725 
L 966 2725 
L 966 3904 
L 851 3904 
C 838 3245 614 2668 70 2668 
L 70 2560 
L 627 2560 
L 627 771 
C 627 650 627 -64 1370 -64 
C 1747 -64 1965 306 1965 777 
L 1965 1140 
L 1850 1140 
L 1850 783 
C 1850 344 1677 51 1408 51 
C 1222 51 966 178 966 758 
L 966 2560 
z
" transform="scale(0.015625)"/>
       <path id="CMR17-79" d="M 2496 2197 
C 2656 2586 2944 2586 3034 2586 
L 3034 2752 
C 2912 2752 2752 2752 2630 2752 
C 2496 2752 2285 2752 2157 2758 
L 2157 2592 
C 2400 2573 2406 2394 2406 2343 
C 2406 2280 2394 2248 2362 2171 
L 1664 449 
L 902 2306 
C 870 2382 870 2426 870 2433 
C 870 2573 1018 2586 1171 2586 
L 1171 2758 
C 1018 2752 742 2752 582 2752 
C 410 2752 205 2752 64 2758 
L 64 2586 
C 410 2586 448 2554 531 2350 
L 1485 15 
C 1197 -738 1030 -1178 627 -1178 
C 557 -1178 397 -1159 282 -1044 
C 429 -1031 493 -942 493 -833 
C 493 -725 416 -629 288 -629 
C 147 -629 77 -725 77 -840 
C 77 -1095 339 -1280 627 -1280 
C 998 -1280 1229 -922 1357 -604 
L 2496 2197 
z
" transform="scale(0.015625)"/>
      </defs>
      <use xlink:href="#CMR17-44" transform="scale(0.996264)"/>
      <use xlink:href="#CMR17-65" transform="translate(70.393556 0) scale(0.996264)"/>
      <use xlink:href="#CMR17-6e" transform="translate(110.879216 0) scale(0.996264)"/>
      <use xlink:href="#CMR17-73" transform="translate(161.774586 0) scale(0.996264)"/>
      <use xlink:href="#CMR17-69" transform="translate(197.575924 0) scale(0.996264)"/>
      <use xlink:href="#CMR17-74" transform="translate(222.446982 0) scale(0.996264)"/>
      <use xlink:href="#CMR17-79" transform="translate(255.125296 0) scale(0.996264)"/>
     </g>
    </g>
   </g>
   <g id="PolyCollection_1">
    <path d="M 65.137133 205.250988 
L 65.137133 34724.488862 
L 65.756554 34724.488862 
L 66.375974 34724.488862 
L 66.995394 34724.488862 
L 67.614814 34724.488862 
L 68.234234 34724.488862 
L 68.853654 34724.488862 
L 69.473074 34724.488862 
L 70.092495 34724.488862 
L 70.711915 34724.488862 
L 71.331335 34724.488862 
L 71.950755 34724.488862 
L 72.570175 34724.488862 
L 73.189595 34724.488862 
L 73.809016 34724.488862 
L 74.428436 34724.488862 
L 75.047856 34724.488862 
L 75.667276 34724.488862 
L 76.286696 34724.488862 
L 76.906116 34724.488862 
L 77.525536 34724.488862 
L 78.144957 34724.488862 
L 78.764377 34724.488862 
L 79.383797 34724.488862 
L 80.003217 34724.488862 
L 80.622637 34724.488862 
L 81.242057 34724.488862 
L 81.861478 34724.488862 
L 82.480898 34724.488862 
L 83.100318 34724.488862 
L 83.719738 34724.488862 
L 84.339158 34724.488862 
L 84.958578 34724.488862 
L 85.577998 34724.488862 
L 86.197419 34724.488862 
L 86.816839 34724.488862 
L 87.436259 34724.488862 
L 88.055679 34724.488862 
L 88.675099 34724.488862 
L 89.294519 34724.488862 
L 89.91394 34724.488862 
L 90.53336 34724.488862 
L 91.15278 34724.488862 
L 91.7722 34724.488862 
L 92.39162 34724.488862 
L 93.01104 34724.488862 
L 93.63046 34724.488862 
L 94.249881 34724.488862 
L 94.869301 34724.488862 
L 95.488721 34724.488862 
L 96.108141 34724.488862 
L 96.727561 34724.488862 
L 97.346981 34724.488862 
L 97.966402 34724.488862 
L 98.585822 34724.488862 
L 99.205242 34724.488862 
L 99.824662 34724.488862 
L 100.444082 34724.488862 
L 101.063502 34724.488862 
L 101.682922 34724.488862 
L 102.302343 34724.488862 
L 102.921763 34724.488862 
L 103.541183 34724.488862 
L 104.160603 34724.488862 
L 104.780023 34724.488862 
L 105.399443 34724.488862 
L 106.018864 34724.488862 
L 106.638284 34724.488862 
L 107.257704 34724.488862 
L 107.877124 34724.488862 
L 108.496544 34724.488862 
L 109.115964 34724.488862 
L 109.735384 34724.488862 
L 110.354805 34724.488862 
L 110.974225 34724.488862 
L 111.593645 34724.488862 
L 112.213065 34724.488862 
L 112.832485 34724.488862 
L 113.451905 34724.488862 
L 114.071326 34724.488862 
L 114.690746 34724.488862 
L 115.310166 34724.488862 
L 115.929586 34724.488862 
L 116.549006 34724.488862 
L 117.168426 34724.488862 
L 117.787846 34724.488862 
L 118.407267 34724.488862 
L 119.026687 34724.488862 
L 119.646107 34724.488862 
L 120.265527 34724.488862 
L 120.884947 34724.488862 
L 121.504367 34724.488862 
L 122.123788 34724.488862 
L 122.743208 34724.488862 
L 123.362628 34724.488862 
L 123.982048 34724.488862 
L 124.601468 34724.488862 
L 125.220888 34724.488862 
L 125.840308 34724.488862 
L 126.459729 34724.488862 
L 127.079149 34724.488862 
L 127.698569 34724.488862 
L 128.317989 34724.488862 
L 128.937409 34724.488862 
L 129.556829 34724.488862 
L 130.17625 34724.488862 
L 130.79567 34724.488862 
L 131.41509 34724.488862 
L 132.03451 34724.488862 
L 132.65393 34724.488862 
L 133.27335 34724.488862 
L 133.892771 34724.488862 
L 134.512191 34724.488862 
L 135.131611 34724.488862 
L 135.751031 34724.488862 
L 136.370451 34724.488862 
L 136.989871 34724.488862 
L 137.609291 34724.488862 
L 138.228712 34724.488862 
L 138.848132 34724.488862 
L 139.467552 34724.488862 
L 140.086972 34724.488862 
L 140.706392 34724.488862 
L 141.325812 34724.488862 
L 141.945233 34724.488862 
L 142.564653 34724.488862 
L 143.184073 34724.488862 
L 143.803493 34724.488862 
L 144.422913 34724.488862 
L 145.042333 34724.488862 
L 145.661753 34724.488862 
L 146.281174 34724.488862 
L 146.900594 34724.488862 
L 147.520014 34724.488862 
L 148.139434 34724.488862 
L 148.758854 34724.488862 
L 149.378274 34724.488862 
L 149.997695 34724.488862 
L 150.617115 34724.488862 
L 151.236535 34724.488862 
L 151.855955 34724.488862 
L 152.475375 34724.488862 
L 153.094795 34724.488862 
L 153.714215 34724.488862 
L 154.333636 34724.488862 
L 154.953056 34724.488862 
L 155.572476 34724.488862 
L 156.191896 34724.488862 
L 156.811316 34724.488862 
L 157.430736 34724.488862 
L 158.050157 34724.488862 
L 158.669577 34724.488862 
L 159.288997 34724.488862 
L 159.908417 34724.488862 
L 160.527837 34724.488862 
L 161.147257 34724.488862 
L 161.766677 34724.488862 
L 162.386098 34724.488862 
L 163.005518 34724.488862 
L 163.624938 34724.488862 
L 164.244358 34724.488862 
L 164.863778 34724.488862 
L 165.483198 34724.488862 
L 166.102619 34724.488862 
L 166.722039 34724.488862 
L 167.341459 34724.488862 
L 167.960879 34724.488862 
L 168.580299 34724.488862 
L 169.199719 34724.488862 
L 169.819139 34724.488862 
L 170.43856 34724.488862 
L 171.05798 34724.488862 
L 171.6774 34724.488862 
L 172.29682 34724.488862 
L 172.91624 34724.488862 
L 173.53566 34724.488862 
L 174.155081 34724.488862 
L 174.774501 34724.488862 
L 175.393921 34724.488862 
L 176.013341 34724.488862 
L 176.632761 34724.488862 
L 177.252181 34724.488862 
L 177.871601 34724.488862 
L 178.491022 34724.488862 
L 179.110442 34724.488862 
L 179.729862 34724.488862 
L 180.349282 34724.488862 
L 180.968702 34724.488862 
L 181.588122 34724.488862 
L 182.207543 34724.488862 
L 182.826963 34724.488862 
L 183.446383 34724.488862 
L 184.065803 34724.488862 
L 184.685223 34724.488862 
L 185.304643 34724.488862 
L 185.924063 34724.488862 
L 186.543484 34724.488862 
L 187.162904 34724.488862 
L 187.782324 34724.488862 
L 188.401744 34724.488862 
L 189.021164 34724.488862 
L 189.640584 34724.488862 
L 190.260005 34724.488862 
L 190.879425 34724.488862 
L 191.498845 34724.488862 
L 192.118265 34724.488862 
L 192.737685 34724.488862 
L 193.357105 34724.488862 
L 193.976525 34724.488862 
L 194.595946 34724.488862 
L 195.215366 34724.488862 
L 195.834786 34724.488862 
L 196.454206 34724.488862 
L 197.073626 34724.488862 
L 197.693046 34724.488862 
L 198.312467 34724.488862 
L 198.931887 34724.488862 
L 199.551307 34724.488862 
L 200.170727 34724.488862 
L 200.790147 34724.488862 
L 201.409567 34724.488862 
L 202.028987 34724.488862 
L 202.648408 34724.488862 
L 203.267828 34724.488862 
L 203.887248 34724.488862 
L 204.506668 34724.488862 
L 205.126088 34724.488862 
L 205.745508 34724.488862 
L 206.364929 34724.488862 
L 206.984349 34724.488862 
L 207.603769 34724.488862 
L 208.223189 34724.488862 
L 208.842609 34724.488862 
L 209.462029 34724.488862 
L 210.081449 34724.488862 
L 210.70087 34724.488862 
L 211.32029 34724.488862 
L 211.93971 34724.488862 
L 212.55913 34724.488862 
L 213.17855 34724.488862 
L 213.79797 34724.488862 
L 214.417391 34724.488862 
L 215.036811 34724.488862 
L 215.656231 34724.488862 
L 216.275651 34724.488862 
L 216.895071 34724.488862 
L 217.514491 34724.488862 
L 218.133912 34724.488862 
L 218.753332 34724.488862 
L 219.372752 34724.488862 
L 219.992172 34724.488862 
L 220.611592 34724.488862 
L 221.231012 34724.488862 
L 221.850432 34724.488862 
L 222.469853 34724.488862 
L 223.089273 34724.488862 
L 223.708693 34724.488862 
L 224.328113 34724.488862 
L 224.947533 34724.488862 
L 225.566953 34724.488862 
L 226.186374 34724.488862 
L 226.805794 34724.488862 
L 227.425214 34724.488862 
L 228.044634 34724.488862 
L 228.664054 34724.488862 
L 229.283474 34724.488862 
L 229.902894 34724.488862 
L 230.522315 34724.488862 
L 231.141735 34724.488862 
L 231.761155 34724.488862 
L 232.380575 34724.488862 
L 232.999995 34724.488862 
L 233.619415 34724.488862 
L 234.238836 34724.488862 
L 234.858256 34724.488862 
L 235.477676 34724.488862 
L 236.097096 34724.488862 
L 236.716516 34724.488862 
L 237.335936 34724.488862 
L 237.955356 34724.488862 
L 238.574777 34724.488862 
L 239.194197 34724.488862 
L 239.813617 34724.488862 
L 240.433037 34724.488862 
L 241.052457 34724.488862 
L 241.671877 34724.488862 
L 242.291298 34724.488862 
L 242.910718 34724.488862 
L 243.530138 34724.488862 
L 244.149558 34724.488862 
L 244.768978 34724.488862 
L 245.388398 34724.488862 
L 246.007818 34724.488862 
L 246.627239 34724.488862 
L 247.246659 34724.488862 
L 247.866079 34724.488862 
L 248.485499 34724.488862 
L 249.104919 34724.488862 
L 249.724339 34724.488862 
L 250.34376 34724.488862 
L 250.96318 34724.488862 
L 251.5826 34724.488862 
L 252.20202 34724.488862 
L 252.82144 34724.488862 
L 253.44086 34724.488862 
L 254.06028 34724.488862 
L 254.679701 34724.488862 
L 255.299121 34724.488862 
L 255.918541 34724.488862 
L 256.537961 34724.488862 
L 257.157381 34724.488862 
L 257.776801 34724.488862 
L 258.396222 34724.488862 
L 259.015642 34724.488862 
L 259.635062 34724.488862 
L 260.254482 34724.488862 
L 260.873902 34724.488862 
L 261.493322 34724.488862 
L 262.112742 34724.488862 
L 262.732163 34724.488862 
L 263.351583 34724.488862 
L 263.971003 34724.488862 
L 264.590423 34724.488862 
L 265.209843 34724.488862 
L 265.829263 34724.488862 
L 266.448684 34724.488862 
L 267.068104 34724.488862 
L 267.687524 34724.488862 
L 268.306944 34724.488862 
L 268.926364 34724.488862 
L 269.545784 34724.488862 
L 270.165204 34724.488862 
L 270.784625 34724.488862 
L 271.404045 34724.488862 
L 272.023465 34724.488862 
L 272.642885 34724.488862 
L 273.262305 34724.488862 
L 273.881725 34724.488862 
L 274.501146 34724.488862 
L 275.120566 34724.488862 
L 275.739986 34724.488862 
L 276.359406 34724.488862 
L 276.978826 34724.488862 
L 277.598246 34724.488862 
L 278.217666 34724.488862 
L 278.837087 34724.488862 
L 279.456507 34724.488862 
L 280.075927 34724.488862 
L 280.695347 34724.488862 
L 281.314767 34724.488862 
L 281.934187 34724.488862 
L 282.553608 34724.488862 
L 283.173028 34724.488862 
L 283.792448 34724.488862 
L 284.411868 34724.488862 
L 285.031288 34724.488862 
L 285.650708 34724.488862 
L 286.270128 34724.488862 
L 286.889549 34724.488862 
L 287.508969 34724.488862 
L 288.128389 34724.488862 
L 288.747809 34724.488862 
L 289.367229 34724.488862 
L 289.986649 34724.488862 
L 290.60607 34724.488862 
L 291.22549 34724.488862 
L 291.84491 34724.488862 
L 292.46433 34724.488862 
L 293.08375 34724.488862 
L 293.70317 34724.488862 
L 294.32259 34724.488862 
L 294.942011 34724.488862 
L 295.561431 34724.488862 
L 296.180851 34724.488862 
L 296.800271 34724.488862 
L 297.419691 34724.488862 
L 298.039111 34724.488862 
L 298.658532 34724.488862 
L 299.277952 34724.488862 
L 299.897372 34724.488862 
L 300.516792 34724.488862 
L 301.136212 34724.488862 
L 301.755632 34724.488862 
L 302.375052 34724.488862 
L 302.994473 34724.488862 
L 303.613893 34724.488862 
L 304.233313 34724.488862 
L 304.852733 34724.488862 
L 305.472153 34724.488862 
L 306.091573 34724.488862 
L 306.710994 34724.488862 
L 307.330414 34724.488862 
L 307.949834 34724.488862 
L 308.569254 34724.488862 
L 309.188674 34724.488862 
L 309.808094 34724.488862 
L 310.427515 34724.488862 
L 311.046935 34724.488862 
L 311.666355 34724.488862 
L 312.285775 34724.488862 
L 312.905195 34724.488862 
L 313.524615 34724.488862 
L 314.144035 34724.488862 
L 314.763456 34724.488862 
L 315.382876 34724.488862 
L 316.002296 34724.488862 
L 316.621716 34724.488862 
L 317.241136 34724.488862 
L 317.860556 34724.488862 
L 318.479977 34724.488862 
L 319.099397 34724.488862 
L 319.718817 34724.488862 
L 320.338237 34724.488862 
L 320.957657 34724.488862 
L 321.577077 34724.488862 
L 322.196497 34724.488862 
L 322.815918 34724.488862 
L 323.435338 34724.488862 
L 324.054758 34724.488862 
L 324.674178 34724.488862 
L 325.293598 34724.488862 
L 325.913018 34724.488862 
L 326.532439 34724.488862 
L 327.151859 34724.488862 
L 327.771279 34724.488862 
L 328.390699 34724.488862 
L 329.010119 34724.488862 
L 329.629539 34724.488862 
L 330.248959 34724.488862 
L 330.86838 34724.488862 
L 331.4878 34724.488862 
L 332.10722 34724.488862 
L 332.72664 34724.488862 
L 333.34606 34724.488862 
L 333.96548 34724.488862 
L 334.584901 34724.488862 
L 335.204321 34724.488862 
L 335.823741 34724.488862 
L 336.443161 34724.488862 
L 337.062581 34724.488862 
L 337.682001 34724.488862 
L 338.301421 34724.488862 
L 338.920842 34724.488862 
L 339.540262 34724.488862 
L 340.159682 34724.488862 
L 340.779102 34724.488862 
L 341.398522 34724.488862 
L 342.017942 34724.488862 
L 342.637363 34724.488862 
L 343.256783 34724.488862 
L 343.876203 34724.488862 
L 344.495623 34724.488862 
L 345.115043 34724.488862 
L 345.734463 34724.488862 
L 346.353883 34724.488862 
L 346.973304 34724.488862 
L 347.592724 34724.488862 
L 348.212144 34724.488862 
L 348.831564 34724.488862 
L 349.450984 34724.488862 
L 350.070404 34724.488862 
L 350.689825 34724.488862 
L 351.309245 34724.488862 
L 351.928665 34724.488862 
L 352.548085 34724.488862 
L 353.167505 34724.488862 
L 353.786925 34724.488862 
L 354.406345 34724.488862 
L 355.025766 34724.488862 
L 355.645186 34724.488862 
L 356.264606 34724.488862 
L 356.884026 34724.488862 
L 357.503446 34724.488862 
L 358.122866 34724.488862 
L 358.742287 34724.488862 
L 359.361707 34724.488862 
L 359.981127 34724.488862 
L 360.600547 34724.488862 
L 361.219967 34724.488862 
L 361.839387 34724.488862 
L 362.458807 34724.488862 
L 363.078228 34724.488862 
L 363.697648 34724.488862 
L 364.317068 34724.488862 
L 364.936488 34724.488862 
L 365.555908 34724.488862 
L 366.175328 34724.488862 
L 366.794749 34724.488862 
L 367.414169 34724.488862 
L 368.033589 34724.488862 
L 368.653009 34724.488862 
L 369.272429 34724.488862 
L 369.891849 34724.488862 
L 370.511269 34724.488862 
L 371.13069 34724.488862 
L 371.75011 34724.488862 
L 372.36953 34724.488862 
L 372.98895 34724.488862 
L 373.60837 34724.488862 
L 374.22779 34724.488862 
L 374.22779 205.253054 
L 374.22779 205.253054 
L 373.60837 174.323344 
L 372.98895 152.434619 
L 372.36953 138.854569 
L 371.75011 131.419868 
L 371.13069 126.932716 
L 370.511269 125.545636 
L 369.891849 130.350136 
L 369.272429 141.211706 
L 368.653009 143.717884 
L 368.033589 132.50675 
L 367.414169 120.946184 
L 366.794749 110.952103 
L 366.175328 104.004456 
L 365.555908 100.423161 
L 364.936488 99.339709 
L 364.317068 99.686576 
L 363.697648 100.595993 
L 363.078228 102.881506 
L 362.458807 107.566386 
L 361.839387 111.452557 
L 361.219967 109.790884 
L 360.600547 105.982087 
L 359.981127 103.88219 
L 359.361707 103.352563 
L 358.742287 102.532685 
L 358.122866 101.33889 
L 357.503446 100.008785 
L 356.884026 98.028911 
L 356.264606 96.543034 
L 355.645186 96.372013 
L 355.025766 97.559179 
L 354.406345 100.222522 
L 353.786925 102.598477 
L 353.167505 101.811417 
L 352.548085 99.236548 
L 351.928665 97.46914 
L 351.309245 96.935867 
L 350.689825 97.426193 
L 350.070404 99.405317 
L 349.450984 102.999519 
L 348.831564 107.031519 
L 348.212144 110.951934 
L 347.592724 114.917052 
L 346.973304 118.09298 
L 346.353883 119.058058 
L 345.734463 117.605401 
L 345.115043 117.202073 
L 344.495623 119.358372 
L 343.876203 120.50086 
L 343.256783 118.924735 
L 342.637363 118.272484 
L 342.017942 119.705504 
L 341.398522 121.62982 
L 340.779102 124.454044 
L 340.159682 129.236405 
L 339.540262 133.294443 
L 338.920842 138.197206 
L 338.301421 149.330248 
L 337.682001 169.070136 
L 337.062581 197.293613 
L 336.443161 202.409675 
L 335.823741 173.383138 
L 335.204321 151.678591 
L 334.584901 138.373227 
L 333.96548 132.158394 
L 333.34606 131.234439 
L 332.72664 135.143055 
L 332.10722 145.408813 
L 331.4878 163.661262 
L 330.86838 190.735879 
L 330.248959 226.951196 
L 329.629539 272.415845 
L 329.010119 326.884729 
L 328.390699 323.301154 
L 327.771279 269.307061 
L 327.151859 224.44586 
L 326.532439 188.872009 
L 325.913018 162.535305 
L 325.293598 145.209337 
L 324.674178 135.893858 
L 324.054758 131.104385 
L 323.435338 125.839301 
L 322.815918 121.691133 
L 322.196497 122.688807 
L 321.577077 128.046505 
L 320.957657 132.945094 
L 320.338237 137.521288 
L 319.718817 141.600713 
L 319.099397 136.743685 
L 318.479977 129.571008 
L 317.860556 125.428389 
L 317.241136 122.512715 
L 316.621716 119.093996 
L 316.002296 115.744549 
L 315.382876 112.789207 
L 314.763456 110.296271 
L 314.144035 109.597436 
L 313.524615 109.442919 
L 312.905195 107.168427 
L 312.285775 103.673586 
L 311.666355 100.10195 
L 311.046935 97.295606 
L 310.427515 95.850337 
L 309.808094 95.734111 
L 309.188674 96.660453 
L 308.569254 97.427273 
L 307.949834 96.628357 
L 307.330414 94.212633 
L 306.710994 91.637779 
L 306.091573 90.34054 
L 305.472153 90.840854 
L 304.852733 91.894771 
L 304.233313 91.655514 
L 303.613893 90.965698 
L 302.994473 90.363692 
L 302.375052 89.27674 
L 301.755632 88.395271 
L 301.136212 88.420089 
L 300.516792 89.149007 
L 299.897372 89.839094 
L 299.277952 90.160096 
L 298.658532 89.999436 
L 298.039111 88.59004 
L 297.419691 85.890973 
L 296.800271 83.684196 
L 296.180851 83.618215 
L 295.561431 85.051297 
L 294.942011 85.956001 
L 294.32259 86.550819 
L 293.70317 87.787342 
L 293.08375 89.359214 
L 292.46433 91.166925 
L 291.84491 92.684292 
L 291.22549 92.949816 
L 290.60607 92.810865 
L 289.986649 92.877571 
L 289.367229 93.043109 
L 288.747809 94.212229 
L 288.128389 96.195799 
L 287.508969 96.335288 
L 286.889549 94.854321 
L 286.270128 95.704152 
L 285.650708 99.537056 
L 285.031288 101.802585 
L 284.411868 100.755417 
L 283.792448 100.409531 
L 283.173028 102.055602 
L 282.553608 104.238926 
L 281.934187 104.909169 
L 281.314767 104.751731 
L 280.695347 106.264352 
L 280.075927 110.741846 
L 279.456507 115.766365 
L 278.837087 116.393394 
L 278.217666 116.107472 
L 277.598246 119.461525 
L 276.978826 127.941539 
L 276.359406 141.811548 
L 275.739986 147.233198 
L 275.120566 135.101062 
L 274.501146 127.379102 
L 273.881725 126.716422 
L 273.262305 126.68158 
L 272.642885 122.018302 
L 272.023465 119.482138 
L 271.404045 122.417004 
L 270.784625 130.113804 
L 270.165204 141.327798 
L 269.545784 146.988254 
L 268.926364 140.47677 
L 268.306944 137.602385 
L 267.687524 143.525237 
L 267.068104 158.7132 
L 266.448684 183.200491 
L 265.829263 216.906664 
L 265.209843 239.844266 
L 264.590423 202.774767 
L 263.971003 170.274199 
L 263.351583 146.773561 
L 262.732163 132.047095 
L 262.112742 125.313105 
L 261.493322 124.280832 
L 260.873902 124.994205 
L 260.254482 125.146428 
L 259.635062 122.797074 
L 259.015642 117.59058 
L 258.396222 114.569263 
L 257.776801 113.41519 
L 257.157381 109.254329 
L 256.537961 103.839869 
L 255.918541 100.397379 
L 255.299121 99.734648 
L 254.679701 101.647534 
L 254.06028 105.098215 
L 253.44086 105.849113 
L 252.82144 99.546991 
L 252.20202 92.282787 
L 251.5826 87.35763 
L 250.96318 84.07445 
L 250.34376 82.54943 
L 249.724339 82.921527 
L 249.104919 83.911619 
L 248.485499 83.540197 
L 247.866079 81.098819 
L 247.246659 77.794118 
L 246.627239 74.732869 
L 246.007818 71.96955 
L 245.388398 69.351162 
L 244.768978 67.183789 
L 244.149558 65.369364 
L 243.530138 63.807431 
L 242.910718 63.446741 
L 242.291298 64.71832 
L 241.671877 65.999373 
L 241.052457 65.531353 
L 240.433037 64.118203 
L 239.813617 63.212105 
L 239.194197 62.835333 
L 238.574777 62.525863 
L 237.955356 62.882788 
L 237.335936 64.614638 
L 236.716516 67.478346 
L 236.097096 70.878541 
L 235.477676 74.103005 
L 234.858256 76.235921 
L 234.238836 77.462437 
L 233.619415 79.033846 
L 232.999995 81.847355 
L 232.380575 86.099374 
L 231.761155 90.099919 
L 231.141735 91.433241 
L 230.522315 91.522346 
L 229.902894 92.751657 
L 229.283474 95.372698 
L 228.664054 98.924044 
L 228.044634 104.363043 
L 227.425214 112.383886 
L 226.805794 118.32128 
L 226.186374 117.915814 
L 225.566953 117.576215 
L 224.947533 121.153897 
L 224.328113 127.775234 
L 223.708693 131.694156 
L 223.089273 127.93392 
L 222.469853 121.121548 
L 221.850432 114.444464 
L 221.231012 109.438428 
L 220.611592 107.314195 
L 219.992172 108.561297 
L 219.372752 111.96026 
L 218.753332 115.281571 
L 218.133912 117.191218 
L 217.514491 115.801899 
L 216.895071 110.46639 
L 216.275651 105.235794 
L 215.656231 101.649385 
L 215.036811 98.366421 
L 214.417391 94.891236 
L 213.79797 91.142569 
L 213.17855 86.801335 
L 212.55913 82.803635 
L 211.93971 80.075574 
L 211.32029 77.854362 
L 210.70087 75.401444 
L 210.081449 72.947829 
L 209.462029 70.606206 
L 208.842609 68.262245 
L 208.223189 66.039689 
L 207.603769 64.088899 
L 206.984349 62.194764 
L 206.364929 60.440058 
L 205.745508 59.262727 
L 205.126088 58.59494 
L 204.506668 58.013392 
L 203.887248 57.37052 
L 203.267828 56.860671 
L 202.648408 56.617721 
L 202.028987 56.675556 
L 201.409567 56.695419 
L 200.790147 56.301173 
L 200.170727 55.794726 
L 199.551307 55.38706 
L 198.931887 55.052063 
L 198.312467 55.157382 
L 197.693046 56.231266 
L 197.073626 58.213273 
L 196.454206 60.328965 
L 195.834786 62.009554 
L 195.215366 63.337008 
L 194.595946 64.665718 
L 193.976525 66.193186 
L 193.357105 67.507642 
L 192.737685 68.919497 
L 192.118265 71.342518 
L 191.498845 74.268675 
L 190.879425 76.557832 
L 190.260005 77.876913 
L 189.640584 78.987561 
L 189.021164 81.142288 
L 188.401744 84.718048 
L 187.782324 88.551124 
L 187.162904 91.350146 
L 186.543484 93.801625 
L 185.924063 97.031418 
L 185.304643 101.590715 
L 184.685223 107.809802 
L 184.065803 112.732138 
L 183.446383 112.303567 
L 182.826963 110.424833 
L 182.207543 111.46504 
L 181.588122 115.690752 
L 180.968702 121.148046 
L 180.349282 126.529717 
L 179.729862 130.049101 
L 179.110442 126.149529 
L 178.491022 117.277023 
L 177.871601 110.506368 
L 177.252181 109.39006 
L 176.632761 115.375683 
L 176.013341 128.205824 
L 175.393921 138.816564 
L 174.774501 133.284482 
L 174.155081 124.378823 
L 173.53566 117.275595 
L 172.91624 113.347956 
L 172.29682 111.421707 
L 171.6774 109.478552 
L 171.05798 107.656376 
L 170.43856 103.886756 
L 169.819139 98.196676 
L 169.199719 93.398474 
L 168.580299 90.193656 
L 167.960879 88.336808 
L 167.341459 87.106488 
L 166.722039 85.313794 
L 166.102619 82.255469 
L 165.483198 78.662525 
L 164.863778 75.740051 
L 164.244358 73.89646 
L 163.624938 72.743903 
L 163.005518 71.262309 
L 162.386098 68.60197 
L 161.766677 65.442991 
L 161.147257 63.09913 
L 160.527837 61.857461 
L 159.908417 61.060173 
L 159.288997 59.770493 
L 158.669577 57.715576 
L 158.050157 55.672863 
L 157.430736 54.349102 
L 156.811316 53.418591 
L 156.191896 52.060842 
L 155.572476 50.670881 
L 154.953056 50.061216 
L 154.333636 50.026476 
L 153.714215 49.972745 
L 153.094795 49.679969 
L 152.475375 49.344515 
L 151.855955 49.32803 
L 151.236535 49.680094 
L 150.617115 50.241946 
L 149.997695 50.958744 
L 149.378274 51.781885 
L 148.758854 52.8503 
L 148.139434 54.236487 
L 147.520014 55.571657 
L 146.900594 56.475802 
L 146.281174 57.397167 
L 145.661753 59.006728 
L 145.042333 61.060329 
L 144.422913 63.029677 
L 143.803493 64.942909 
L 143.184073 67.272275 
L 142.564653 69.98076 
L 141.945233 72.100357 
L 141.325812 73.591046 
L 140.706392 75.384792 
L 140.086972 77.704504 
L 139.467552 80.194876 
L 138.848132 82.833961 
L 138.228712 85.669206 
L 137.609291 87.963889 
L 136.989871 90.368525 
L 136.370451 94.041466 
L 135.751031 98.487587 
L 135.131611 102.496934 
L 134.512191 105.194718 
L 133.892771 107.88529 
L 133.27335 112.390078 
L 132.65393 117.873686 
L 132.03451 120.203847 
L 131.41509 117.560635 
L 130.79567 115.763199 
L 130.17625 116.177977 
L 129.556829 115.057862 
L 128.937409 113.103577 
L 128.317989 112.578544 
L 127.698569 113.90524 
L 127.079149 118.132059 
L 126.459729 123.165876 
L 125.840308 123.051559 
L 125.220888 120.178185 
L 124.601468 120.172122 
L 123.982048 123.762898 
L 123.362628 126.73698 
L 122.743208 127.743709 
L 122.123788 131.01268 
L 121.504367 133.927064 
L 120.884947 128.376836 
L 120.265527 121.071503 
L 119.646107 116.225997 
L 119.026687 112.872051 
L 118.407267 111.006111 
L 117.787846 110.818961 
L 117.168426 110.570652 
L 116.549006 106.904499 
L 115.929586 100.055893 
L 115.310166 93.195436 
L 114.690746 88.955799 
L 114.071326 87.905226 
L 113.451905 88.802712 
L 112.832485 88.592969 
L 112.213065 83.889565 
L 111.593645 77.639604 
L 110.974225 73.347316 
L 110.354805 70.775021 
L 109.735384 68.393589 
L 109.115964 64.707375 
L 108.496544 59.544415 
L 107.877124 54.721668 
L 107.257704 51.28573 
L 106.638284 48.575744 
L 106.018864 46.163869 
L 105.399443 44.281881 
L 104.780023 42.817525 
L 104.160603 41.609965 
L 103.541183 40.860102 
L 102.921763 40.812025 
L 102.302343 41.53874 
L 101.682922 42.879491 
L 101.063502 44.657883 
L 100.444082 46.773452 
L 99.824662 49.071657 
L 99.205242 51.406267 
L 98.585822 53.823074 
L 97.966402 56.656333 
L 97.346981 60.407737 
L 96.727561 64.989662 
L 96.108141 69.579656 
L 95.488721 73.7916 
L 94.869301 77.199892 
L 94.249881 78.916236 
L 93.63046 79.916425 
L 93.01104 82.250207 
L 92.39162 86.545531 
L 91.7722 91.747317 
L 91.15278 95.837519 
L 90.53336 97.947849 
L 89.91394 99.630007 
L 89.294519 101.945729 
L 88.675099 104.065832 
L 88.055679 104.439639 
L 87.436259 103.669515 
L 86.816839 104.728926 
L 86.197419 108.834332 
L 85.577998 114.912722 
L 84.958578 119.668299 
L 84.339158 117.693302 
L 83.719738 111.730945 
L 83.100318 108.361065 
L 82.480898 107.396963 
L 81.861478 101.804289 
L 81.242057 91.082313 
L 80.622637 82.00613 
L 80.003217 75.872538 
L 79.383797 71.19121 
L 78.764377 66.751581 
L 78.144957 62.215047 
L 77.525536 57.734379 
L 76.906116 53.655998 
L 76.286696 50.184255 
L 75.667276 47.692762 
L 75.047856 46.484362 
L 74.428436 46.377026 
L 73.809016 47.147339 
L 73.189595 48.903448 
L 72.570175 51.795136 
L 71.950755 55.828512 
L 71.331335 61.196729 
L 70.711915 68.008612 
L 70.092495 76.08561 
L 69.473074 85.652355 
L 68.853654 97.353919 
L 68.234234 111.438661 
L 67.614814 125.608286 
L 66.995394 137.572951 
L 66.375974 152.23005 
L 65.756554 174.296758 
L 65.137133 205.250988 
z
" clip-path="url(#pfec6158daa)" style="fill: #4c72b0; fill-opacity: 0.25; stroke: #4c72b0; stroke-width: 0.3"/>
   </g>
   <g id="line2d_55">
    <path d="M 67.500644 116.641229 
L 68.720538 95.270282 
L 69.940432 77.754095 
L 71.160327 64.092667 
L 72.380221 54.285999 
L 72.990168 50.8282 
L 73.600115 48.334091 
L 74.210063 46.803672 
L 74.82001 46.236943 
L 75.429957 46.633904 
L 76.039904 47.994555 
L 76.649851 50.318896 
L 77.259798 53.606927 
L 77.869746 57.858648 
L 78.479693 63.074058 
L 79.699587 76.39595 
L 80.919481 93.572601 
L 82.139376 114.604012 
L 83.35927 139.490183 
L 84.579164 168.231114 
L 85.123886 182.355801 
L 85.123886 182.355801 
" clip-path="url(#pfec6158daa)" style="fill: none; stroke: #4c72b0; stroke-linecap: round"/>
   </g>
   <g id="line2d_56">
    <path d="M 84.715515 182.355801 
L 86.409006 157.871858 
L 88.238847 134.105076 
L 90.068689 113.100908 
L 91.89853 94.859356 
L 93.728372 79.380419 
L 94.948266 70.595913 
L 96.168161 63.039237 
L 97.388055 56.710389 
L 98.607949 51.609371 
L 99.827844 47.736181 
L 100.437791 46.260022 
L 101.047738 45.09082 
L 101.657685 44.228575 
L 102.267632 43.673288 
L 102.877579 43.424958 
L 103.487527 43.483585 
L 104.097474 43.849169 
L 104.707421 44.521711 
L 105.317368 45.50121 
L 105.927315 46.787666 
L 107.14721 50.281449 
L 108.367104 55.003062 
L 109.586998 60.952504 
L 110.806893 68.129774 
L 112.026787 76.534873 
L 113.246681 86.167802 
L 115.076523 102.919373 
L 116.906364 122.43356 
L 118.736206 144.710361 
L 120.566047 169.749778 
L 121.415939 182.355801 
L 121.415939 182.355801 
" clip-path="url(#pfec6158daa)" style="fill: none; stroke: #55a868; stroke-linecap: round"/>
   </g>
   <g id="line2d_57">
    <path d="M 123.983707 182.355801 
L 126.055572 163.944771 
L 128.49536 144.055492 
L 130.935149 126.085201 
L 133.374938 110.033898 
L 135.204779 99.254757 
L 137.034621 89.555047 
L 138.864462 80.934768 
L 140.694304 73.39392 
L 142.524145 66.932503 
L 144.353987 61.550516 
L 145.573881 58.562209 
L 146.793775 56.053649 
L 148.01367 54.024837 
L 149.233564 52.475771 
L 150.453458 51.406452 
L 151.673353 50.81688 
L 152.2833 50.702 
L 152.893247 50.707056 
L 153.503194 50.832049 
L 154.113141 51.076979 
L 155.333036 51.926648 
L 156.55293 53.256065 
L 157.772824 55.065229 
L 158.992719 57.35414 
L 160.212613 60.122797 
L 161.432507 63.371203 
L 162.652402 67.099355 
L 164.482243 73.591109 
L 166.312085 81.162293 
L 168.141926 89.812909 
L 169.971768 99.542956 
L 171.801609 110.352434 
L 173.631451 122.241342 
L 176.071239 139.772335 
L 178.511028 159.222316 
L 181.141573 182.355801 
L 181.141573 182.355801 
" clip-path="url(#pfec6158daa)" style="fill: none; stroke: #c44e52; stroke-linecap: round"/>
   </g>
   <g id="line2d_58">
    <path d="M 174.982621 182.355801 
L 177.291134 160.763913 
L 179.730922 140.148967 
L 182.170711 121.786853 
L 184.000553 109.493687 
L 185.830394 98.467739 
L 187.660236 88.709009 
L 189.490077 80.217495 
L 191.319919 72.9932 
L 192.539813 68.881012 
L 193.759707 65.332033 
L 194.979602 62.346261 
L 196.199496 59.923696 
L 197.41939 58.06434 
L 198.639285 56.768191 
L 199.249232 56.33132 
L 199.859179 56.03525 
L 200.469126 55.879983 
L 201.079073 55.865517 
L 201.68902 55.991853 
L 202.298968 56.258992 
L 202.908915 56.666932 
L 204.128809 57.905218 
L 205.348703 59.706712 
L 206.568598 62.071414 
L 207.788492 64.999323 
L 209.008386 68.49044 
L 210.228281 72.544765 
L 212.058122 79.682267 
L 213.887964 88.086987 
L 215.717805 97.758923 
L 217.547647 108.698078 
L 219.377488 120.904449 
L 221.20733 134.378039 
L 223.647118 154.314051 
L 226.086907 176.502895 
L 226.692066 182.355801 
L 226.692066 182.355801 
" clip-path="url(#pfec6158daa)" style="fill: none; stroke: #8172b2; stroke-linecap: round"/>
   </g>
   <g id="line2d_59">
    <path d="M 218.165329 182.355801 
L 220.597383 158.820039 
L 223.037171 137.84398 
L 224.867013 123.842932 
L 226.696854 111.325595 
L 228.526696 100.291968 
L 230.356537 90.742052 
L 232.186379 82.675847 
L 233.406273 78.122661 
L 234.626167 74.228902 
L 235.846062 70.99457 
L 237.065956 68.419665 
L 238.28585 66.504187 
L 239.505745 65.248136 
L 240.115692 64.867395 
L 240.725639 64.651512 
L 241.335586 64.600485 
L 241.945533 64.714315 
L 242.555481 64.993001 
L 243.165428 65.436545 
L 243.775375 66.044945 
L 244.995269 67.756316 
L 246.215164 70.127113 
L 247.435058 73.157338 
L 248.654952 76.84699 
L 249.874847 81.196069 
L 251.094741 86.204575 
L 252.924582 94.953759 
L 254.754424 105.186654 
L 256.584265 116.90326 
L 258.414107 130.103577 
L 260.243948 144.787605 
L 262.07379 160.955344 
L 264.27165 182.355801 
L 264.27165 182.355801 
" clip-path="url(#pfec6158daa)" style="fill: none; stroke: #ccb974; stroke-linecap: round"/>
   </g>
   <g id="line2d_60">
    <path d="M 261.759498 182.355801 
L 264.513579 168.297512 
L 266.953367 156.789668 
L 269.393156 146.164965 
L 271.832945 136.423403 
L 274.272733 127.564982 
L 276.712522 119.589703 
L 279.152311 112.497565 
L 280.982152 107.758022 
L 282.811994 103.515247 
L 284.641835 99.769238 
L 286.471677 96.519997 
L 288.301518 93.767522 
L 290.13136 91.511815 
L 291.351254 90.283991 
L 292.571148 89.276953 
L 293.791043 88.4907 
L 295.010937 87.925232 
L 296.230831 87.58055 
L 297.450726 87.456653 
L 298.67062 87.553541 
L 299.890514 87.871215 
L 301.110409 88.409674 
L 302.330303 89.168918 
L 303.550197 90.148947 
L 304.770092 91.349762 
L 306.599933 93.564957 
L 308.429775 96.276918 
L 310.259616 99.485647 
L 312.089458 103.191142 
L 313.919299 107.393404 
L 315.749141 112.092433 
L 317.578982 117.28823 
L 320.018771 124.988706 
L 322.45856 133.572324 
L 324.898348 143.039083 
L 327.338137 153.388984 
L 329.777926 164.622025 
L 332.217714 176.738208 
L 333.291535 182.355801 
L 333.291535 182.355801 
" clip-path="url(#pfec6158daa)" style="fill: none; stroke: #64b5cd; stroke-linecap: round"/>
   </g>
   <g id="line2d_61">
    <path d="M 331.131387 182.355801 
L 333.437609 167.378952 
L 335.877397 153.142573 
L 337.707239 143.543877 
L 339.53708 134.869684 
L 341.366922 127.119996 
L 343.196763 120.294811 
L 345.026605 114.394131 
L 346.856446 109.417954 
L 348.076341 106.614116 
L 349.296235 104.221169 
L 350.516129 102.239112 
L 351.736024 100.667946 
L 352.955918 99.507671 
L 354.175812 98.758286 
L 355.395707 98.419792 
L 356.615601 98.492188 
L 357.835495 98.975475 
L 359.05539 99.869653 
L 360.275284 101.174721 
L 361.495178 102.89068 
L 362.715073 105.01753 
L 363.934967 107.55527 
L 365.154861 110.503901 
L 366.984703 115.697267 
L 368.814544 121.815137 
L 370.644386 128.857511 
L 371.86428 134.06604 
L 371.86428 134.06604 
" clip-path="url(#pfec6158daa)" style="fill: none; stroke: #4c72b0; stroke-linecap: round"/>
   </g>
   <g id="patch_3">
    <path d="M 52.282462 143.788862 
L 52.282462 5.188862 
" style="fill: none"/>
   </g>
   <g id="patch_4">
    <path d="M 387.082462 143.788862 
L 387.082462 5.188862 
" style="fill: none"/>
   </g>
   <g id="patch_5">
    <path d="M 52.282462 143.788862 
L 387.082462 143.788862 
" style="fill: none"/>
   </g>
   <g id="patch_6">
    <path d="M 52.282462 5.188862 
L 387.082462 5.188862 
" style="fill: none"/>
   </g>
   <g id="text_14">
    <!-- 0 -->
    <g transform="translate(74.873735 44.091511) scale(0.1 -0.1)">
     <use xlink:href="#CMR17-30" transform="scale(0.996264)"/>
    </g>
   </g>
   <g id="text_15">
    <!-- 1 -->
    <g transform="translate(103.066057 41.613995) scale(0.1 -0.1)">
     <use xlink:href="#CMR17-31" transform="scale(0.996264)"/>
    </g>
   </g>
   <g id="text_16">
    <!-- 2 -->
    <g transform="translate(152.56256 47.875001) scale(0.1 -0.1)">
     <use xlink:href="#CMR17-32" transform="scale(0.996264)"/>
    </g>
   </g>
   <g id="text_17">
    <!-- 3 -->
    <g transform="translate(200.836764 52.023944) scale(0.1 -0.1)">
     <defs>
      <path id="CMR17-33" d="M 1414 2157 
C 1984 2157 2234 1662 2234 1090 
C 2234 320 1824 25 1453 25 
C 1114 25 563 194 390 693 
C 422 680 454 680 486 680 
C 640 680 755 782 755 948 
C 755 1133 614 1216 486 1216 
C 378 1216 211 1165 211 926 
C 211 335 787 -128 1466 -128 
C 2176 -128 2720 430 2720 1085 
C 2720 1707 2208 2157 1600 2227 
C 2086 2328 2554 2756 2554 3329 
C 2554 3820 2048 4179 1472 4179 
C 890 4179 378 3829 378 3329 
C 378 3110 544 3072 627 3072 
C 762 3072 877 3155 877 3321 
C 877 3486 762 3569 627 3569 
C 602 3569 570 3569 544 3557 
C 730 3959 1235 4032 1459 4032 
C 1683 4032 2106 3925 2106 3320 
C 2106 3143 2080 2828 1862 2550 
C 1670 2304 1453 2304 1242 2284 
C 1210 2284 1062 2269 1037 2269 
C 992 2263 966 2257 966 2208 
C 966 2163 973 2157 1101 2157 
L 1414 2157 
z
" transform="scale(0.015625)"/>
     </defs>
     <use xlink:href="#CMR17-33" transform="scale(0.996264)"/>
    </g>
   </g>
   <g id="text_18">
    <!-- 4 -->
    <g transform="translate(241.219405 58.314002) scale(0.1 -0.1)">
     <use xlink:href="#CMR17-34" transform="scale(0.996264)"/>
    </g>
   </g>
   <g id="text_19">
    <!-- 5 -->
    <g transform="translate(297.525341 69.186276) scale(0.1 -0.1)">
     <defs>
      <path id="CMR17-35" d="M 730 3692 
C 794 3666 1056 3584 1325 3584 
C 1920 3584 2246 3911 2432 4100 
C 2432 4157 2432 4192 2394 4192 
C 2387 4192 2374 4192 2323 4163 
C 2099 4058 1837 3973 1517 3973 
C 1325 3973 1037 3999 723 4139 
C 653 4171 640 4171 634 4171 
C 602 4171 595 4164 595 4037 
L 595 2203 
C 595 2089 595 2057 659 2057 
C 691 2057 704 2070 736 2114 
C 941 2401 1222 2522 1542 2522 
C 1766 2522 2246 2382 2246 1289 
C 2246 1085 2246 715 2054 421 
C 1894 159 1645 25 1370 25 
C 947 25 518 320 403 814 
C 429 807 480 795 506 795 
C 589 795 749 840 749 1038 
C 749 1210 627 1280 506 1280 
C 358 1280 262 1190 262 1011 
C 262 454 704 -128 1382 -128 
C 2042 -128 2669 440 2669 1264 
C 2669 2030 2170 2624 1549 2624 
C 1222 2624 947 2503 730 2274 
L 730 3692 
z
" transform="scale(0.015625)"/>
     </defs>
     <use xlink:href="#CMR17-35" transform="scale(0.996264)"/>
    </g>
   </g>
   <g id="text_20">
    <!-- 6+ -->
    <g transform="translate(355.790716 67.640795) scale(0.1 -0.1)">
     <defs>
      <path id="CMR17-2b" d="M 2413 1472 
L 4109 1472 
C 4198 1472 4307 1472 4307 1580 
C 4307 1695 4205 1695 4109 1695 
L 2413 1695 
L 2413 3386 
C 2413 3475 2413 3584 2304 3584 
C 2189 3584 2189 3482 2189 3386 
L 2189 1695 
L 493 1695 
C 403 1695 294 1695 294 1587 
C 294 1472 397 1472 493 1472 
L 2189 1472 
L 2189 -218 
C 2189 -307 2189 -416 2298 -416 
C 2413 -416 2413 -314 2413 -218 
L 2413 1472 
z
" transform="scale(0.015625)"/>
     </defs>
     <use xlink:href="#CMR17-36" transform="scale(0.996264)"/>
     <use xlink:href="#CMR17-2b" transform="translate(45.690477 0) scale(0.996264)"/>
    </g>
   </g>
   <g id="text_21">
    <!-- Maximum-Value -->
    <g style="fill: #262626" transform="translate(249.862122 20.93394) scale(0.15 -0.15)">
     <defs>
      <path id="CMR17-4d" d="M 1338 4224 
C 1299 4320 1293 4320 1158 4320 
L 339 4320 
L 339 4160 
C 781 4160 851 4160 851 3875 
L 851 610 
C 851 451 851 153 339 153 
L 339 -13 
C 486 0 755 0 915 0 
C 1075 0 1344 0 1491 -13 
L 1491 153 
C 979 153 979 451 979 610 
L 979 4135 
L 986 4135 
L 2490 89 
C 2515 25 2528 -13 2579 -13 
C 2630 -13 2643 25 2669 89 
L 4186 4166 
L 4192 4166 
L 4192 438 
C 4192 153 4122 153 3680 153 
L 3680 -13 
C 3853 0 4198 0 4384 0 
C 4570 0 4922 0 5094 -13 
L 5094 153 
C 4653 153 4582 153 4582 438 
L 4582 3875 
C 4582 4160 4653 4160 5094 4160 
L 5094 4320 
L 4282 4320 
C 4147 4320 4141 4314 4102 4218 
L 2720 502 
L 1338 4224 
z
" transform="scale(0.015625)"/>
      <path id="CMR17-61" d="M 2304 1653 
C 2304 2072 2304 2294 2035 2543 
C 1798 2752 1523 2816 1306 2816 
C 800 2816 435 2407 435 1971 
C 435 1728 627 1728 666 1728 
C 749 1728 896 1778 896 1954 
C 896 2112 774 2181 666 2181 
C 640 2181 608 2174 589 2168 
C 723 2592 1069 2714 1293 2714 
C 1613 2714 1965 2429 1965 1885 
L 1965 1600 
C 1587 1600 1133 1549 774 1357 
C 371 1133 256 813 256 570 
C 256 77 832 -64 1171 -64 
C 1523 -64 1850 139 1990 511 
C 2003 233 2182 -18 2464 -18 
C 2598 -18 2938 70 2938 567 
L 2938 920 
L 2822 920 
L 2822 562 
C 2822 178 2650 128 2566 128 
C 2304 128 2304 458 2304 738 
L 2304 1653 
z
M 1965 870 
C 1965 317 1568 38 1216 38 
C 896 38 646 275 646 570 
C 646 761 730 1100 1101 1305 
C 1408 1478 1760 1504 1965 1504 
L 1965 870 
z
" transform="scale(0.015625)"/>
      <path id="CMR17-78" d="M 1664 1477 
C 1856 1726 2074 2006 2253 2216 
C 2464 2458 2707 2560 2989 2560 
L 2989 2726 
C 2880 2726 2656 2726 2541 2726 
C 2368 2726 2170 2726 2022 2732 
L 2022 2566 
C 2112 2553 2163 2489 2163 2400 
C 2163 2285 2099 2215 2067 2171 
L 1594 1573 
L 1030 2306 
C 973 2376 973 2388 973 2420 
C 973 2497 1037 2560 1146 2560 
L 1146 2732 
C 992 2726 717 2726 557 2726 
C 384 2726 179 2726 38 2732 
L 38 2560 
C 384 2560 461 2534 614 2343 
L 1350 1395 
C 1363 1382 1395 1344 1395 1325 
C 1395 1299 838 619 768 530 
C 480 185 179 160 6 160 
L 6 0 
C 115 0 339 0 454 0 
C 582 0 864 0 979 -6 
L 979 160 
C 941 166 838 179 838 325 
C 838 440 890 510 947 586 
L 1478 1236 
L 2035 512 
C 2086 442 2163 346 2163 301 
C 2163 211 2086 160 1984 160 
L 1984 -6 
C 2138 0 2413 0 2573 0 
C 2746 0 2950 0 3091 -6 
L 3091 160 
C 2771 160 2675 172 2522 370 
L 1664 1477 
z
" transform="scale(0.015625)"/>
      <path id="CMR17-6d" d="M 4326 1933 
C 4326 2252 4269 2790 3507 2790 
C 3072 2790 2771 2496 2656 2151 
L 2650 2151 
C 2573 2676 2195 2790 1837 2790 
C 1331 2790 1069 2400 973 2144 
L 966 2144 
L 966 2790 
L 211 2720 
L 211 2554 
C 589 2554 646 2515 646 2208 
L 646 428 
C 646 184 621 153 211 153 
L 211 -13 
C 365 0 646 0 813 0 
C 979 0 1267 0 1421 -13 
L 1421 153 
C 1011 153 986 178 986 428 
L 986 1658 
C 986 2247 1344 2688 1792 2688 
C 2266 2688 2317 2266 2317 1958 
L 2317 428 
C 2317 184 2291 153 1882 153 
L 1882 -13 
C 2035 0 2317 0 2483 0 
C 2650 0 2938 0 3091 -13 
L 3091 153 
C 2682 153 2656 178 2656 428 
L 2656 1658 
C 2656 2247 3014 2688 3462 2688 
C 3936 2688 3987 2266 3987 1958 
L 3987 428 
C 3987 184 3962 153 3552 153 
L 3552 -13 
C 3706 0 3987 0 4154 0 
C 4320 0 4608 0 4762 -13 
L 4762 153 
C 4352 153 4326 178 4326 428 
L 4326 1933 
z
" transform="scale(0.015625)"/>
      <path id="CMR17-75" d="M 1882 2693 
L 1882 2528 
C 2259 2528 2317 2489 2317 2186 
L 2317 1032 
C 2317 500 2029 38 1555 38 
C 1030 38 986 348 986 678 
L 986 2763 
L 211 2693 
L 211 2528 
C 467 2528 640 2528 646 2274 
L 646 1058 
C 646 633 646 361 813 183 
C 896 101 1056 -64 1517 -64 
C 2061 -64 2272 377 2323 506 
L 2330 506 
L 2330 -63 
L 3091 -63 
L 3091 128 
C 2714 128 2656 166 2656 473 
L 2656 2763 
L 1882 2693 
z
" transform="scale(0.015625)"/>
      <path id="CMR17-2d" d="M 1632 1216 
L 1632 1496 
L 26 1496 
L 26 1216 
L 1632 1216 
z
" transform="scale(0.015625)"/>
      <path id="CMR17-56" d="M 3776 3745 
C 3834 3886 3936 4160 4365 4160 
L 4365 4332 
C 4218 4319 4051 4319 3891 4319 
C 3738 4319 3475 4319 3328 4332 
L 3328 4160 
C 3648 4160 3661 3936 3661 3898 
C 3661 3827 3642 3783 3622 3732 
L 2362 446 
L 1043 3886 
C 1024 3931 1011 3963 1011 3994 
C 1011 4160 1267 4160 1402 4160 
L 1402 4319 
C 1197 4319 896 4319 685 4319 
C 518 4319 218 4319 64 4332 
L 64 4160 
C 435 4160 506 4135 582 3931 
L 2106 -26 
C 2138 -115 2144 -128 2214 -128 
C 2285 -128 2291 -115 2323 -26 
L 3776 3745 
z
" transform="scale(0.015625)"/>
      <path id="CMR17-6c" d="M 979 4396 
L 218 4326 
L 218 4160 
C 595 4160 653 4122 653 3817 
L 653 426 
C 653 184 627 153 218 153 
L 218 -13 
C 371 0 653 0 813 0 
C 979 0 1261 0 1414 -13 
L 1414 153 
C 1005 153 979 178 979 426 
L 979 4396 
z
" transform="scale(0.015625)"/>
     </defs>
     <use xlink:href="#CMR17-4d" transform="scale(0.996264)"/>
     <use xlink:href="#CMR17-61" transform="translate(84.686941 0) scale(0.996264)"/>
     <use xlink:href="#CMR17-78" transform="translate(130.377418 0) scale(0.996264)"/>
     <use xlink:href="#CMR17-69" transform="translate(178.670334 0) scale(0.996264)"/>
     <use xlink:href="#CMR17-6d" transform="translate(203.541392 0) scale(0.996264)"/>
     <use xlink:href="#CMR17-75" transform="translate(277.858528 0) scale(0.996264)"/>
     <use xlink:href="#CMR17-6d" transform="translate(328.753898 0) scale(0.996264)"/>
     <use xlink:href="#CMR17-2d" transform="translate(405.673488 0) scale(0.996264)"/>
     <use xlink:href="#CMR17-56" transform="translate(435.749454 0) scale(0.996264)"/>
     <use xlink:href="#CMR17-61" transform="translate(497.014628 0) scale(0.996264)"/>
     <use xlink:href="#CMR17-6c" transform="translate(542.705105 0) scale(0.996264)"/>
     <use xlink:href="#CMR17-75" transform="translate(567.576164 0) scale(0.996264)"/>
     <use xlink:href="#CMR17-65" transform="translate(618.471534 0) scale(0.996264)"/>
    </g>
   </g>
  </g>
 </g>
 <defs>
  <clipPath id="pfec6158daa">
   <rect x="52.282462" y="5.188862" width="334.8" height="138.6"/>
  </clipPath>
 </defs>
</svg>
