<?xml version="1.0" encoding="utf-8" standalone="no"?>
<!DOCTYPE svg PUBLIC "-//W3C//DTD SVG 1.1//EN"
  "http://www.w3.org/Graphics/SVG/1.1/DTD/svg11.dtd">
<svg xmlns:xlink="http://www.w3.org/1999/xlink" width="401.482462pt" height="195.755801pt" viewBox="0 0 401.482462 195.755801" xmlns="http://www.w3.org/2000/svg" version="1.1">
 <metadata>
  <rdf:RDF xmlns:dc="http://purl.org/dc/elements/1.1/" xmlns:cc="http://creativecommons.org/ns#" xmlns:rdf="http://www.w3.org/1999/02/22-rdf-syntax-ns#">
   <cc:Work>
    <dc:type rdf:resource="http://purl.org/dc/dcmitype/StillImage"/>
    <dc:date>2024-10-09T15:13:56.421940</dc:date>
    <dc:format>image/svg+xml</dc:format>
    <dc:creator>
     <cc:Agent>
      <dc:title>Matplotlib v3.9.2, https://matplotlib.org/</dc:title>
     </cc:Agent>
    </dc:creator>
   </cc:Work>
  </rdf:RDF>
 </metadata>
 <defs>
  <style type="text/css">*{stroke-linejoin: round; stroke-linecap: butt}</style>
 </defs>
 <g id="figure_1">
  <g id="patch_1">
   <path d="M 0 195.755801 
L 401.482462 195.755801 
L 401.482462 0 
L 0 0 
z
" style="fill: #ffffff"/>
  </g>
  <g id="axes_1">
   <g id="patch_2">
    <path d="M 59.482462 150.988862 
L 394.282462 150.988862 
L 394.282462 12.388862 
L 59.482462 12.388862 
z
" style="fill: #eaeaf2"/>
   </g>
   <g id="matplotlib.axis_1">
    <g id="xtick_1">
     <g id="line2d_1">
      <path d="M 74.700644 150.988862 
L 74.700644 12.388862 
" clip-path="url(#p579b48d163)" style="fill: none; stroke: #ffffff; stroke-linecap: round"/>
     </g>
     <g id="line2d_2"/>
     <g id="text_1">
      <!-- $\mathdefault{0.0}$ -->
      <g style="fill: #262626" transform="translate(65.352118 168.366587) scale(0.15 -0.15)">
       <defs>
        <path id="CMR17-30" d="M 2688 2025 
C 2688 2416 2682 3080 2413 3591 
C 2176 4039 1798 4198 1466 4198 
C 1158 4198 768 4058 525 3597 
C 269 3118 243 2524 243 2025 
C 243 1661 250 1106 448 619 
C 723 -39 1216 -128 1466 -128 
C 1760 -128 2208 -7 2470 600 
C 2662 1042 2688 1559 2688 2025 
z
M 1466 -26 
C 1056 -26 813 325 723 812 
C 653 1188 653 1738 653 2096 
C 653 2588 653 2997 736 3387 
C 858 3929 1216 4096 1466 4096 
C 1728 4096 2067 3923 2189 3400 
C 2272 3036 2278 2607 2278 2096 
C 2278 1680 2278 1169 2202 792 
C 2067 95 1690 -26 1466 -26 
z
" transform="scale(0.015625)"/>
        <path id="CMMI12-3a" d="M 1178 307 
C 1178 492 1024 619 870 619 
C 685 619 557 466 557 313 
C 557 128 710 0 864 0 
C 1050 0 1178 153 1178 307 
z
" transform="scale(0.015625)"/>
       </defs>
       <use xlink:href="#CMR17-30" transform="scale(0.996264)"/>
       <use xlink:href="#CMMI12-3a" transform="translate(45.690477 0) scale(0.996264)"/>
       <use xlink:href="#CMR17-30" transform="translate(72.787654 0) scale(0.996264)"/>
      </g>
     </g>
    </g>
    <g id="xtick_2">
     <g id="line2d_3">
      <path d="M 135.573371 150.988862 
L 135.573371 12.388862 
" clip-path="url(#p579b48d163)" style="fill: none; stroke: #ffffff; stroke-linecap: round"/>
     </g>
     <g id="line2d_4"/>
     <g id="text_2">
      <!-- $\mathdefault{0.2}$ -->
      <g style="fill: #262626" transform="translate(126.224845 168.366587) scale(0.15 -0.15)">
       <defs>
        <path id="CMR17-32" d="M 2669 989 
L 2554 989 
C 2490 536 2438 459 2413 420 
C 2381 369 1920 369 1830 369 
L 602 369 
C 832 619 1280 1072 1824 1597 
C 2214 1967 2669 2402 2669 3035 
C 2669 3790 2067 4224 1395 4224 
C 691 4224 262 3604 262 3030 
C 262 2780 448 2748 525 2748 
C 589 2748 781 2787 781 3010 
C 781 3207 614 3264 525 3264 
C 486 3264 448 3258 422 3245 
C 544 3790 915 4058 1306 4058 
C 1862 4058 2227 3617 2227 3035 
C 2227 2479 1901 2000 1536 1584 
L 262 146 
L 262 0 
L 2515 0 
L 2669 989 
z
" transform="scale(0.015625)"/>
       </defs>
       <use xlink:href="#CMR17-30" transform="scale(0.996264)"/>
       <use xlink:href="#CMMI12-3a" transform="translate(45.690477 0) scale(0.996264)"/>
       <use xlink:href="#CMR17-32" transform="translate(72.787654 0) scale(0.996264)"/>
      </g>
     </g>
    </g>
    <g id="xtick_3">
     <g id="line2d_5">
      <path d="M 196.446098 150.988862 
L 196.446098 12.388862 
" clip-path="url(#p579b48d163)" style="fill: none; stroke: #ffffff; stroke-linecap: round"/>
     </g>
     <g id="line2d_6"/>
     <g id="text_3">
      <!-- $\mathdefault{0.4}$ -->
      <g style="fill: #262626" transform="translate(187.097572 168.366587) scale(0.15 -0.15)">
       <defs>
        <path id="CMR17-34" d="M 2150 4122 
C 2150 4256 2144 4256 2029 4256 
L 128 1254 
L 128 1088 
L 1779 1088 
L 1779 457 
C 1779 224 1766 160 1318 160 
L 1197 160 
L 1197 0 
C 1402 0 1747 0 1965 0 
C 2182 0 2528 0 2733 0 
L 2733 160 
L 2611 160 
C 2163 160 2150 224 2150 457 
L 2150 1088 
L 2803 1088 
L 2803 1254 
L 2150 1254 
L 2150 4122 
z
M 1798 3703 
L 1798 1254 
L 256 1254 
L 1798 3703 
z
" transform="scale(0.015625)"/>
       </defs>
       <use xlink:href="#CMR17-30" transform="scale(0.996264)"/>
       <use xlink:href="#CMMI12-3a" transform="translate(45.690477 0) scale(0.996264)"/>
       <use xlink:href="#CMR17-34" transform="translate(72.787654 0) scale(0.996264)"/>
      </g>
     </g>
    </g>
    <g id="xtick_4">
     <g id="line2d_7">
      <path d="M 257.318826 150.988862 
L 257.318826 12.388862 
" clip-path="url(#p579b48d163)" style="fill: none; stroke: #ffffff; stroke-linecap: round"/>
     </g>
     <g id="line2d_8"/>
     <g id="text_4">
      <!-- $\mathdefault{0.6}$ -->
      <g style="fill: #262626" transform="translate(247.970299 168.366587) scale(0.15 -0.15)">
       <defs>
        <path id="CMR17-36" d="M 678 2176 
C 678 3690 1395 4032 1811 4032 
C 1946 4032 2272 4009 2400 3776 
C 2298 3776 2106 3776 2106 3553 
C 2106 3381 2246 3323 2336 3323 
C 2394 3323 2566 3348 2566 3560 
C 2566 3954 2246 4179 1805 4179 
C 1043 4179 243 3390 243 1984 
C 243 253 966 -128 1478 -128 
C 2099 -128 2688 427 2688 1283 
C 2688 2081 2170 2662 1517 2662 
C 1126 2662 838 2407 678 1960 
L 678 2176 
z
M 1478 25 
C 691 25 691 1200 691 1436 
C 691 1896 909 2560 1504 2560 
C 1613 2560 1926 2560 2138 2120 
C 2253 1870 2253 1609 2253 1289 
C 2253 944 2253 690 2118 434 
C 1978 171 1773 25 1478 25 
z
" transform="scale(0.015625)"/>
       </defs>
       <use xlink:href="#CMR17-30" transform="scale(0.996264)"/>
       <use xlink:href="#CMMI12-3a" transform="translate(45.690477 0) scale(0.996264)"/>
       <use xlink:href="#CMR17-36" transform="translate(72.787654 0) scale(0.996264)"/>
      </g>
     </g>
    </g>
    <g id="xtick_5">
     <g id="line2d_9">
      <path d="M 318.191553 150.988862 
L 318.191553 12.388862 
" clip-path="url(#p579b48d163)" style="fill: none; stroke: #ffffff; stroke-linecap: round"/>
     </g>
     <g id="line2d_10"/>
     <g id="text_5">
      <!-- $\mathdefault{0.8}$ -->
      <g style="fill: #262626" transform="translate(308.843027 168.366587) scale(0.15 -0.15)">
       <defs>
        <path id="CMR17-38" d="M 1741 2264 
C 2144 2467 2554 2773 2554 3263 
C 2554 3841 1990 4179 1472 4179 
C 890 4179 378 3759 378 3180 
C 378 3021 416 2747 666 2505 
C 730 2442 998 2251 1171 2130 
C 883 1983 211 1634 211 934 
C 211 279 838 -128 1459 -128 
C 2144 -128 2720 362 2720 1010 
C 2720 1590 2330 1857 2074 2029 
L 1741 2264 
z
M 902 2822 
C 851 2854 595 3051 595 3351 
C 595 3739 998 4032 1459 4032 
C 1965 4032 2336 3676 2336 3262 
C 2336 2669 1670 2331 1638 2331 
C 1632 2331 1626 2331 1574 2370 
L 902 2822 
z
M 2080 1519 
C 2176 1449 2483 1240 2483 851 
C 2483 381 2010 25 1472 25 
C 890 25 448 438 448 940 
C 448 1443 838 1862 1280 2060 
L 2080 1519 
z
" transform="scale(0.015625)"/>
       </defs>
       <use xlink:href="#CMR17-30" transform="scale(0.996264)"/>
       <use xlink:href="#CMMI12-3a" transform="translate(45.690477 0) scale(0.996264)"/>
       <use xlink:href="#CMR17-38" transform="translate(72.787654 0) scale(0.996264)"/>
      </g>
     </g>
    </g>
    <g id="xtick_6">
     <g id="line2d_11">
      <path d="M 379.06428 150.988862 
L 379.06428 12.388862 
" clip-path="url(#p579b48d163)" style="fill: none; stroke: #ffffff; stroke-linecap: round"/>
     </g>
     <g id="line2d_12"/>
     <g id="text_6">
      <!-- $\mathdefault{1.0}$ -->
      <g style="fill: #262626" transform="translate(369.715754 168.366587) scale(0.15 -0.15)">
       <defs>
        <path id="CMR17-31" d="M 1702 4058 
C 1702 4192 1696 4192 1606 4192 
C 1357 3916 979 3827 621 3827 
C 602 3827 570 3827 563 3808 
C 557 3795 557 3782 557 3648 
C 755 3648 1088 3686 1344 3839 
L 1344 461 
C 1344 236 1331 160 781 160 
L 589 160 
L 589 0 
C 896 0 1216 0 1523 0 
C 1830 0 2150 0 2458 0 
L 2458 160 
L 2266 160 
C 1715 160 1702 230 1702 458 
L 1702 4058 
z
" transform="scale(0.015625)"/>
       </defs>
       <use xlink:href="#CMR17-31" transform="scale(0.996264)"/>
       <use xlink:href="#CMMI12-3a" transform="translate(45.690477 0) scale(0.996264)"/>
       <use xlink:href="#CMR17-30" transform="translate(72.787654 0) scale(0.996264)"/>
      </g>
     </g>
    </g>
    <g id="text_7">
     <!-- $s_1$ -->
     <g style="fill: #262626" transform="translate(220.821025 185.650057) scale(0.15 -0.15)">
      <defs>
       <path id="CMMI12-73" d="M 1459 1280 
C 1568 1261 1741 1223 1779 1216 
C 1862 1192 2150 1090 2150 783 
C 2150 586 1971 70 1229 70 
C 1094 70 614 70 486 436 
C 742 404 870 603 870 745 
C 870 880 781 950 653 950 
C 512 950 326 841 326 552 
C 326 173 710 -64 1222 -64 
C 2195 -64 2483 651 2483 984 
C 2483 1079 2483 1258 2278 1462 
C 2118 1616 1965 1648 1619 1718 
C 1446 1756 1171 1814 1171 2101 
C 1171 2229 1286 2689 1894 2689 
C 2163 2689 2426 2589 2490 2368 
C 2208 2368 2195 2125 2195 2119 
C 2195 1984 2317 1946 2374 1946 
C 2464 1946 2643 2015 2643 2281 
C 2643 2545 2400 2816 1901 2816 
C 1062 2816 838 2160 838 1899 
C 838 1414 1312 1312 1459 1280 
z
" transform="scale(0.015625)"/>
      </defs>
      <use xlink:href="#CMMI12-73" transform="scale(0.996264)"/>
      <use xlink:href="#CMR17-31" transform="translate(45.950048 -14.943915) scale(0.697382)"/>
     </g>
    </g>
   </g>
   <g id="matplotlib.axis_2">
    <g id="ytick_1">
     <g id="line2d_13">
      <path d="M 59.482462 150.988862 
L 394.282462 150.988862 
" clip-path="url(#p579b48d163)" style="fill: none; stroke: #ffffff; stroke-linecap: round"/>
     </g>
     <g id="line2d_14"/>
     <g id="text_8">
      <!-- $\mathdefault{10^{-2}}$ -->
      <g style="fill: #262626" transform="translate(24.483469 156.177725) scale(0.15 -0.15)">
       <defs>
        <path id="CMSY10-0" d="M 4218 1472 
C 4326 1472 4442 1472 4442 1600 
C 4442 1728 4326 1728 4218 1728 
L 755 1728 
C 646 1728 531 1728 531 1600 
C 531 1472 646 1472 755 1472 
L 4218 1472 
z
" transform="scale(0.015625)"/>
       </defs>
       <use xlink:href="#CMR17-31" transform="scale(0.996264)"/>
       <use xlink:href="#CMR17-30" transform="translate(45.690477 0) scale(0.996264)"/>
       <use xlink:href="#CMSY10-0" transform="translate(91.380954 36.153639) scale(0.697382)"/>
       <use xlink:href="#CMR17-32" transform="translate(145.621947 36.153639) scale(0.697382)"/>
      </g>
     </g>
    </g>
    <g id="ytick_2">
     <g id="line2d_15">
      <path d="M 59.482462 116.338862 
L 394.282462 116.338862 
" clip-path="url(#p579b48d163)" style="fill: none; stroke: #ffffff; stroke-linecap: round"/>
     </g>
     <g id="line2d_16"/>
     <g id="text_9">
      <!-- $\mathdefault{10^{-1}}$ -->
      <g style="fill: #262626" transform="translate(24.483469 121.527725) scale(0.15 -0.15)">
       <use xlink:href="#CMR17-31" transform="scale(0.996264)"/>
       <use xlink:href="#CMR17-30" transform="translate(45.690477 0) scale(0.996264)"/>
       <use xlink:href="#CMSY10-0" transform="translate(91.380954 36.153639) scale(0.697382)"/>
       <use xlink:href="#CMR17-31" transform="translate(145.621947 36.153639) scale(0.697382)"/>
      </g>
     </g>
    </g>
    <g id="ytick_3">
     <g id="line2d_17">
      <path d="M 59.482462 81.688862 
L 394.282462 81.688862 
" clip-path="url(#p579b48d163)" style="fill: none; stroke: #ffffff; stroke-linecap: round"/>
     </g>
     <g id="line2d_18"/>
     <g id="text_10">
      <!-- $\mathdefault{10^{0}}$ -->
      <g style="fill: #262626" transform="translate(32.619615 86.877725) scale(0.15 -0.15)">
       <use xlink:href="#CMR17-31" transform="scale(0.996264)"/>
       <use xlink:href="#CMR17-30" transform="translate(45.690477 0) scale(0.996264)"/>
       <use xlink:href="#CMR17-30" transform="translate(91.380954 36.153639) scale(0.697382)"/>
      </g>
     </g>
    </g>
    <g id="ytick_4">
     <g id="line2d_19">
      <path d="M 59.482462 47.038862 
L 394.282462 47.038862 
" clip-path="url(#p579b48d163)" style="fill: none; stroke: #ffffff; stroke-linecap: round"/>
     </g>
     <g id="line2d_20"/>
     <g id="text_11">
      <!-- $\mathdefault{10^{1}}$ -->
      <g style="fill: #262626" transform="translate(32.619615 52.227725) scale(0.15 -0.15)">
       <use xlink:href="#CMR17-31" transform="scale(0.996264)"/>
       <use xlink:href="#CMR17-30" transform="translate(45.690477 0) scale(0.996264)"/>
       <use xlink:href="#CMR17-31" transform="translate(91.380954 36.153639) scale(0.697382)"/>
      </g>
     </g>
    </g>
    <g id="ytick_5">
     <g id="line2d_21">
      <path d="M 59.482462 12.388862 
L 394.282462 12.388862 
" clip-path="url(#p579b48d163)" style="fill: none; stroke: #ffffff; stroke-linecap: round"/>
     </g>
     <g id="line2d_22"/>
     <g id="text_12">
      <!-- $\mathdefault{10^{2}}$ -->
      <g style="fill: #262626" transform="translate(32.619615 17.577725) scale(0.15 -0.15)">
       <use xlink:href="#CMR17-31" transform="scale(0.996264)"/>
       <use xlink:href="#CMR17-30" transform="translate(45.690477 0) scale(0.996264)"/>
       <use xlink:href="#CMR17-32" transform="translate(91.380954 36.153639) scale(0.697382)"/>
      </g>
     </g>
    </g>
    <g id="ytick_6">
     <g id="line2d_23"/>
    </g>
    <g id="ytick_7">
     <g id="line2d_24"/>
    </g>
    <g id="ytick_8">
     <g id="line2d_25"/>
    </g>
    <g id="ytick_9">
     <g id="line2d_26"/>
    </g>
    <g id="ytick_10">
     <g id="line2d_27"/>
    </g>
    <g id="ytick_11">
     <g id="line2d_28"/>
    </g>
    <g id="ytick_12">
     <g id="line2d_29"/>
    </g>
    <g id="ytick_13">
     <g id="line2d_30"/>
    </g>
    <g id="ytick_14">
     <g id="line2d_31"/>
    </g>
    <g id="ytick_15">
     <g id="line2d_32"/>
    </g>
    <g id="ytick_16">
     <g id="line2d_33"/>
    </g>
    <g id="ytick_17">
     <g id="line2d_34"/>
    </g>
    <g id="ytick_18">
     <g id="line2d_35"/>
    </g>
    <g id="ytick_19">
     <g id="line2d_36"/>
    </g>
    <g id="ytick_20">
     <g id="line2d_37"/>
    </g>
    <g id="ytick_21">
     <g id="line2d_38"/>
    </g>
    <g id="ytick_22">
     <g id="line2d_39"/>
    </g>
    <g id="ytick_23">
     <g id="line2d_40"/>
    </g>
    <g id="ytick_24">
     <g id="line2d_41"/>
    </g>
    <g id="ytick_25">
     <g id="line2d_42"/>
    </g>
    <g id="ytick_26">
     <g id="line2d_43"/>
    </g>
    <g id="ytick_27">
     <g id="line2d_44"/>
    </g>
    <g id="ytick_28">
     <g id="line2d_45"/>
    </g>
    <g id="ytick_29">
     <g id="line2d_46"/>
    </g>
    <g id="ytick_30">
     <g id="line2d_47"/>
    </g>
    <g id="ytick_31">
     <g id="line2d_48"/>
    </g>
    <g id="ytick_32">
     <g id="line2d_49"/>
    </g>
    <g id="ytick_33">
     <g id="line2d_50"/>
    </g>
    <g id="ytick_34">
     <g id="line2d_51"/>
    </g>
    <g id="ytick_35">
     <g id="line2d_52"/>
    </g>
    <g id="ytick_36">
     <g id="line2d_53"/>
    </g>
    <g id="ytick_37">
     <g id="line2d_54"/>
    </g>
    <g id="text_13">
     <!-- Density -->
     <g style="fill: #262626" transform="translate(17.577725 106.014048) rotate(-90) scale(0.15 -0.15)">
      <defs>
       <path id="CMR17-44" d="M 333 4352 
L 333 4186 
C 774 4186 845 4186 845 3900 
L 845 452 
C 845 166 774 166 333 166 
L 333 0 
L 2368 0 
C 3398 0 4224 943 4224 2141 
C 4224 3346 3411 4352 2368 4352 
L 333 4352 
z
M 1523 166 
C 1267 166 1254 197 1254 414 
L 1254 3938 
C 1254 4155 1267 4186 1523 4186 
L 2240 4186 
C 2771 4186 3750 3874 3750 2141 
C 3750 1242 3488 879 3366 707 
C 3213 510 2848 166 2240 166 
L 1523 166 
z
" transform="scale(0.015625)"/>
       <path id="CMR17-65" d="M 2438 1472 
C 2464 1498 2464 1511 2464 1576 
C 2464 2238 2118 2816 1389 2816 
C 710 2816 173 2169 173 1383 
C 173 551 781 -64 1459 -64 
C 2176 -64 2458 607 2458 740 
C 2458 784 2419 784 2406 784 
C 2362 784 2355 771 2330 696 
C 2189 265 1837 51 1504 51 
C 1229 51 954 203 781 480 
C 582 803 582 1176 582 1472 
L 2438 1472 
z
M 589 1568 
C 634 2505 1126 2714 1382 2714 
C 1818 2714 2112 2297 2118 1568 
L 589 1568 
z
" transform="scale(0.015625)"/>
       <path id="CMR17-6e" d="M 2656 1933 
C 2656 2259 2592 2790 1837 2790 
C 1331 2790 1069 2400 973 2144 
L 966 2144 
L 966 2790 
L 211 2720 
L 211 2554 
C 589 2554 646 2515 646 2208 
L 646 428 
C 646 184 621 153 211 153 
L 211 -13 
C 365 0 646 0 813 0 
C 979 0 1267 0 1421 -13 
L 1421 153 
C 1011 153 986 178 986 428 
L 986 1658 
C 986 2247 1344 2688 1792 2688 
C 2266 2688 2317 2266 2317 1958 
L 2317 428 
C 2317 184 2291 153 1882 153 
L 1882 -13 
C 2035 0 2317 0 2483 0 
C 2650 0 2938 0 3091 -13 
L 3091 153 
C 2682 153 2656 178 2656 428 
L 2656 1933 
z
" transform="scale(0.015625)"/>
       <path id="CMR17-73" d="M 1978 2697 
C 1978 2813 1971 2819 1933 2819 
C 1907 2819 1901 2813 1824 2717 
C 1805 2691 1747 2626 1728 2601 
C 1523 2819 1235 2819 1126 2819 
C 416 2819 160 2447 160 2076 
C 160 1498 813 1365 998 1325 
C 1402 1243 1542 1217 1677 1101 
C 1760 1025 1901 884 1901 654 
C 1901 384 1747 38 1158 38 
C 602 38 403 460 288 1021 
C 269 1110 269 1117 218 1117 
C 166 1117 160 1110 160 983 
L 160 63 
C 160 -51 166 -58 205 -58 
C 237 -58 243 -51 275 0 
C 314 57 410 211 448 276 
C 576 103 800 -64 1158 -64 
C 1792 -64 2131 283 2131 784 
C 2131 1112 1958 1285 1875 1362 
C 1683 1561 1459 1606 1190 1657 
C 838 1735 390 1825 390 2217 
C 390 2383 480 2737 1126 2737 
C 1811 2737 1850 2094 1862 1888 
C 1869 1856 1901 1849 1920 1849 
C 1978 1849 1978 1869 1978 1978 
L 1978 2697 
z
" transform="scale(0.015625)"/>
       <path id="CMR17-69" d="M 992 3909 
C 992 4049 877 4170 730 4170 
C 589 4170 467 4056 467 3909 
C 467 3769 582 3648 730 3648 
C 870 3648 992 3763 992 3909 
z
M 243 2706 
L 243 2541 
C 602 2541 653 2502 653 2197 
L 653 427 
C 653 184 627 153 218 153 
L 218 -13 
C 371 0 646 0 806 0 
C 960 0 1222 0 1370 -13 
L 1370 153 
C 992 153 979 191 979 420 
L 979 2776 
L 243 2706 
z
" transform="scale(0.015625)"/>
       <path id="CMR17-74" d="M 966 2560 
L 1862 2560 
L 1862 2725 
L 966 2725 
L 966 3904 
L 851 3904 
C 838 3245 614 2668 70 2668 
L 70 2560 
L 627 2560 
L 627 771 
C 627 650 627 -64 1370 -64 
C 1747 -64 1965 306 1965 777 
L 1965 1140 
L 1850 1140 
L 1850 783 
C 1850 344 1677 51 1408 51 
C 1222 51 966 178 966 758 
L 966 2560 
z
" transform="scale(0.015625)"/>
       <path id="CMR17-79" d="M 2496 2197 
C 2656 2586 2944 2586 3034 2586 
L 3034 2752 
C 2912 2752 2752 2752 2630 2752 
C 2496 2752 2285 2752 2157 2758 
L 2157 2592 
C 2400 2573 2406 2394 2406 2343 
C 2406 2280 2394 2248 2362 2171 
L 1664 449 
L 902 2306 
C 870 2382 870 2426 870 2433 
C 870 2573 1018 2586 1171 2586 
L 1171 2758 
C 1018 2752 742 2752 582 2752 
C 410 2752 205 2752 64 2758 
L 64 2586 
C 410 2586 448 2554 531 2350 
L 1485 15 
C 1197 -738 1030 -1178 627 -1178 
C 557 -1178 397 -1159 282 -1044 
C 429 -1031 493 -942 493 -833 
C 493 -725 416 -629 288 -629 
C 147 -629 77 -725 77 -840 
C 77 -1095 339 -1280 627 -1280 
C 998 -1280 1229 -922 1357 -604 
L 2496 2197 
z
" transform="scale(0.015625)"/>
      </defs>
      <use xlink:href="#CMR17-44" transform="scale(0.996264)"/>
      <use xlink:href="#CMR17-65" transform="translate(70.393556 0) scale(0.996264)"/>
      <use xlink:href="#CMR17-6e" transform="translate(110.879216 0) scale(0.996264)"/>
      <use xlink:href="#CMR17-73" transform="translate(161.774586 0) scale(0.996264)"/>
      <use xlink:href="#CMR17-69" transform="translate(197.575924 0) scale(0.996264)"/>
      <use xlink:href="#CMR17-74" transform="translate(222.446982 0) scale(0.996264)"/>
      <use xlink:href="#CMR17-79" transform="translate(255.125296 0) scale(0.996264)"/>
     </g>
    </g>
   </g>
   <g id="PolyCollection_1">
    <path d="M 72.337133 212.450988 
L 72.337133 34731.688862 
L 72.956554 34731.688862 
L 73.575974 34731.688862 
L 74.195394 34731.688862 
L 74.814814 34731.688862 
L 75.434234 34731.688862 
L 76.053654 34731.688862 
L 76.673074 34731.688862 
L 77.292495 34731.688862 
L 77.911915 34731.688862 
L 78.531335 34731.688862 
L 79.150755 34731.688862 
L 79.770175 34731.688862 
L 80.389595 34731.688862 
L 81.009016 34731.688862 
L 81.628436 34731.688862 
L 82.247856 34731.688862 
L 82.867276 34731.688862 
L 83.486696 34731.688862 
L 84.106116 34731.688862 
L 84.725536 34731.688862 
L 85.344957 34731.688862 
L 85.964377 34731.688862 
L 86.583797 34731.688862 
L 87.203217 34731.688862 
L 87.822637 34731.688862 
L 88.442057 34731.688862 
L 89.061478 34731.688862 
L 89.680898 34731.688862 
L 90.300318 34731.688862 
L 90.919738 34731.688862 
L 91.539158 34731.688862 
L 92.158578 34731.688862 
L 92.777998 34731.688862 
L 93.397419 34731.688862 
L 94.016839 34731.688862 
L 94.636259 34731.688862 
L 95.255679 34731.688862 
L 95.875099 34731.688862 
L 96.494519 34731.688862 
L 97.11394 34731.688862 
L 97.73336 34731.688862 
L 98.35278 34731.688862 
L 98.9722 34731.688862 
L 99.59162 34731.688862 
L 100.21104 34731.688862 
L 100.83046 34731.688862 
L 101.449881 34731.688862 
L 102.069301 34731.688862 
L 102.688721 34731.688862 
L 103.308141 34731.688862 
L 103.927561 34731.688862 
L 104.546981 34731.688862 
L 105.166402 34731.688862 
L 105.785822 34731.688862 
L 106.405242 34731.688862 
L 107.024662 34731.688862 
L 107.644082 34731.688862 
L 108.263502 34731.688862 
L 108.882922 34731.688862 
L 109.502343 34731.688862 
L 110.121763 34731.688862 
L 110.741183 34731.688862 
L 111.360603 34731.688862 
L 111.980023 34731.688862 
L 112.599443 34731.688862 
L 113.218864 34731.688862 
L 113.838284 34731.688862 
L 114.457704 34731.688862 
L 115.077124 34731.688862 
L 115.696544 34731.688862 
L 116.315964 34731.688862 
L 116.935384 34731.688862 
L 117.554805 34731.688862 
L 118.174225 34731.688862 
L 118.793645 34731.688862 
L 119.413065 34731.688862 
L 120.032485 34731.688862 
L 120.651905 34731.688862 
L 121.271326 34731.688862 
L 121.890746 34731.688862 
L 122.510166 34731.688862 
L 123.129586 34731.688862 
L 123.749006 34731.688862 
L 124.368426 34731.688862 
L 124.987846 34731.688862 
L 125.607267 34731.688862 
L 126.226687 34731.688862 
L 126.846107 34731.688862 
L 127.465527 34731.688862 
L 128.084947 34731.688862 
L 128.704367 34731.688862 
L 129.323788 34731.688862 
L 129.943208 34731.688862 
L 130.562628 34731.688862 
L 131.182048 34731.688862 
L 131.801468 34731.688862 
L 132.420888 34731.688862 
L 133.040308 34731.688862 
L 133.659729 34731.688862 
L 134.279149 34731.688862 
L 134.898569 34731.688862 
L 135.517989 34731.688862 
L 136.137409 34731.688862 
L 136.756829 34731.688862 
L 137.37625 34731.688862 
L 137.99567 34731.688862 
L 138.61509 34731.688862 
L 139.23451 34731.688862 
L 139.85393 34731.688862 
L 140.47335 34731.688862 
L 141.092771 34731.688862 
L 141.712191 34731.688862 
L 142.331611 34731.688862 
L 142.951031 34731.688862 
L 143.570451 34731.688862 
L 144.189871 34731.688862 
L 144.809291 34731.688862 
L 145.428712 34731.688862 
L 146.048132 34731.688862 
L 146.667552 34731.688862 
L 147.286972 34731.688862 
L 147.906392 34731.688862 
L 148.525812 34731.688862 
L 149.145233 34731.688862 
L 149.764653 34731.688862 
L 150.384073 34731.688862 
L 151.003493 34731.688862 
L 151.622913 34731.688862 
L 152.242333 34731.688862 
L 152.861753 34731.688862 
L 153.481174 34731.688862 
L 154.100594 34731.688862 
L 154.720014 34731.688862 
L 155.339434 34731.688862 
L 155.958854 34731.688862 
L 156.578274 34731.688862 
L 157.197695 34731.688862 
L 157.817115 34731.688862 
L 158.436535 34731.688862 
L 159.055955 34731.688862 
L 159.675375 34731.688862 
L 160.294795 34731.688862 
L 160.914215 34731.688862 
L 161.533636 34731.688862 
L 162.153056 34731.688862 
L 162.772476 34731.688862 
L 163.391896 34731.688862 
L 164.011316 34731.688862 
L 164.630736 34731.688862 
L 165.250157 34731.688862 
L 165.869577 34731.688862 
L 166.488997 34731.688862 
L 167.108417 34731.688862 
L 167.727837 34731.688862 
L 168.347257 34731.688862 
L 168.966677 34731.688862 
L 169.586098 34731.688862 
L 170.205518 34731.688862 
L 170.824938 34731.688862 
L 171.444358 34731.688862 
L 172.063778 34731.688862 
L 172.683198 34731.688862 
L 173.302619 34731.688862 
L 173.922039 34731.688862 
L 174.541459 34731.688862 
L 175.160879 34731.688862 
L 175.780299 34731.688862 
L 176.399719 34731.688862 
L 177.019139 34731.688862 
L 177.63856 34731.688862 
L 178.25798 34731.688862 
L 178.8774 34731.688862 
L 179.49682 34731.688862 
L 180.11624 34731.688862 
L 180.73566 34731.688862 
L 181.355081 34731.688862 
L 181.974501 34731.688862 
L 182.593921 34731.688862 
L 183.213341 34731.688862 
L 183.832761 34731.688862 
L 184.452181 34731.688862 
L 185.071601 34731.688862 
L 185.691022 34731.688862 
L 186.310442 34731.688862 
L 186.929862 34731.688862 
L 187.549282 34731.688862 
L 188.168702 34731.688862 
L 188.788122 34731.688862 
L 189.407543 34731.688862 
L 190.026963 34731.688862 
L 190.646383 34731.688862 
L 191.265803 34731.688862 
L 191.885223 34731.688862 
L 192.504643 34731.688862 
L 193.124063 34731.688862 
L 193.743484 34731.688862 
L 194.362904 34731.688862 
L 194.982324 34731.688862 
L 195.601744 34731.688862 
L 196.221164 34731.688862 
L 196.840584 34731.688862 
L 197.460005 34731.688862 
L 198.079425 34731.688862 
L 198.698845 34731.688862 
L 199.318265 34731.688862 
L 199.937685 34731.688862 
L 200.557105 34731.688862 
L 201.176525 34731.688862 
L 201.795946 34731.688862 
L 202.415366 34731.688862 
L 203.034786 34731.688862 
L 203.654206 34731.688862 
L 204.273626 34731.688862 
L 204.893046 34731.688862 
L 205.512467 34731.688862 
L 206.131887 34731.688862 
L 206.751307 34731.688862 
L 207.370727 34731.688862 
L 207.990147 34731.688862 
L 208.609567 34731.688862 
L 209.228987 34731.688862 
L 209.848408 34731.688862 
L 210.467828 34731.688862 
L 211.087248 34731.688862 
L 211.706668 34731.688862 
L 212.326088 34731.688862 
L 212.945508 34731.688862 
L 213.564929 34731.688862 
L 214.184349 34731.688862 
L 214.803769 34731.688862 
L 215.423189 34731.688862 
L 216.042609 34731.688862 
L 216.662029 34731.688862 
L 217.281449 34731.688862 
L 217.90087 34731.688862 
L 218.52029 34731.688862 
L 219.13971 34731.688862 
L 219.75913 34731.688862 
L 220.37855 34731.688862 
L 220.99797 34731.688862 
L 221.617391 34731.688862 
L 222.236811 34731.688862 
L 222.856231 34731.688862 
L 223.475651 34731.688862 
L 224.095071 34731.688862 
L 224.714491 34731.688862 
L 225.333912 34731.688862 
L 225.953332 34731.688862 
L 226.572752 34731.688862 
L 227.192172 34731.688862 
L 227.811592 34731.688862 
L 228.431012 34731.688862 
L 229.050432 34731.688862 
L 229.669853 34731.688862 
L 230.289273 34731.688862 
L 230.908693 34731.688862 
L 231.528113 34731.688862 
L 232.147533 34731.688862 
L 232.766953 34731.688862 
L 233.386374 34731.688862 
L 234.005794 34731.688862 
L 234.625214 34731.688862 
L 235.244634 34731.688862 
L 235.864054 34731.688862 
L 236.483474 34731.688862 
L 237.102894 34731.688862 
L 237.722315 34731.688862 
L 238.341735 34731.688862 
L 238.961155 34731.688862 
L 239.580575 34731.688862 
L 240.199995 34731.688862 
L 240.819415 34731.688862 
L 241.438836 34731.688862 
L 242.058256 34731.688862 
L 242.677676 34731.688862 
L 243.297096 34731.688862 
L 243.916516 34731.688862 
L 244.535936 34731.688862 
L 245.155356 34731.688862 
L 245.774777 34731.688862 
L 246.394197 34731.688862 
L 247.013617 34731.688862 
L 247.633037 34731.688862 
L 248.252457 34731.688862 
L 248.871877 34731.688862 
L 249.491298 34731.688862 
L 250.110718 34731.688862 
L 250.730138 34731.688862 
L 251.349558 34731.688862 
L 251.968978 34731.688862 
L 252.588398 34731.688862 
L 253.207818 34731.688862 
L 253.827239 34731.688862 
L 254.446659 34731.688862 
L 255.066079 34731.688862 
L 255.685499 34731.688862 
L 256.304919 34731.688862 
L 256.924339 34731.688862 
L 257.54376 34731.688862 
L 258.16318 34731.688862 
L 258.7826 34731.688862 
L 259.40202 34731.688862 
L 260.02144 34731.688862 
L 260.64086 34731.688862 
L 261.26028 34731.688862 
L 261.879701 34731.688862 
L 262.499121 34731.688862 
L 263.118541 34731.688862 
L 263.737961 34731.688862 
L 264.357381 34731.688862 
L 264.976801 34731.688862 
L 265.596222 34731.688862 
L 266.215642 34731.688862 
L 266.835062 34731.688862 
L 267.454482 34731.688862 
L 268.073902 34731.688862 
L 268.693322 34731.688862 
L 269.312742 34731.688862 
L 269.932163 34731.688862 
L 270.551583 34731.688862 
L 271.171003 34731.688862 
L 271.790423 34731.688862 
L 272.409843 34731.688862 
L 273.029263 34731.688862 
L 273.648684 34731.688862 
L 274.268104 34731.688862 
L 274.887524 34731.688862 
L 275.506944 34731.688862 
L 276.126364 34731.688862 
L 276.745784 34731.688862 
L 277.365204 34731.688862 
L 277.984625 34731.688862 
L 278.604045 34731.688862 
L 279.223465 34731.688862 
L 279.842885 34731.688862 
L 280.462305 34731.688862 
L 281.081725 34731.688862 
L 281.701146 34731.688862 
L 282.320566 34731.688862 
L 282.939986 34731.688862 
L 283.559406 34731.688862 
L 284.178826 34731.688862 
L 284.798246 34731.688862 
L 285.417666 34731.688862 
L 286.037087 34731.688862 
L 286.656507 34731.688862 
L 287.275927 34731.688862 
L 287.895347 34731.688862 
L 288.514767 34731.688862 
L 289.134187 34731.688862 
L 289.753608 34731.688862 
L 290.373028 34731.688862 
L 290.992448 34731.688862 
L 291.611868 34731.688862 
L 292.231288 34731.688862 
L 292.850708 34731.688862 
L 293.470128 34731.688862 
L 294.089549 34731.688862 
L 294.708969 34731.688862 
L 295.328389 34731.688862 
L 295.947809 34731.688862 
L 296.567229 34731.688862 
L 297.186649 34731.688862 
L 297.80607 34731.688862 
L 298.42549 34731.688862 
L 299.04491 34731.688862 
L 299.66433 34731.688862 
L 300.28375 34731.688862 
L 300.90317 34731.688862 
L 301.52259 34731.688862 
L 302.142011 34731.688862 
L 302.761431 34731.688862 
L 303.380851 34731.688862 
L 304.000271 34731.688862 
L 304.619691 34731.688862 
L 305.239111 34731.688862 
L 305.858532 34731.688862 
L 306.477952 34731.688862 
L 307.097372 34731.688862 
L 307.716792 34731.688862 
L 308.336212 34731.688862 
L 308.955632 34731.688862 
L 309.575052 34731.688862 
L 310.194473 34731.688862 
L 310.813893 34731.688862 
L 311.433313 34731.688862 
L 312.052733 34731.688862 
L 312.672153 34731.688862 
L 313.291573 34731.688862 
L 313.910994 34731.688862 
L 314.530414 34731.688862 
L 315.149834 34731.688862 
L 315.769254 34731.688862 
L 316.388674 34731.688862 
L 317.008094 34731.688862 
L 317.627515 34731.688862 
L 318.246935 34731.688862 
L 318.866355 34731.688862 
L 319.485775 34731.688862 
L 320.105195 34731.688862 
L 320.724615 34731.688862 
L 321.344035 34731.688862 
L 321.963456 34731.688862 
L 322.582876 34731.688862 
L 323.202296 34731.688862 
L 323.821716 34731.688862 
L 324.441136 34731.688862 
L 325.060556 34731.688862 
L 325.679977 34731.688862 
L 326.299397 34731.688862 
L 326.918817 34731.688862 
L 327.538237 34731.688862 
L 328.157657 34731.688862 
L 328.777077 34731.688862 
L 329.396497 34731.688862 
L 330.015918 34731.688862 
L 330.635338 34731.688862 
L 331.254758 34731.688862 
L 331.874178 34731.688862 
L 332.493598 34731.688862 
L 333.113018 34731.688862 
L 333.732439 34731.688862 
L 334.351859 34731.688862 
L 334.971279 34731.688862 
L 335.590699 34731.688862 
L 336.210119 34731.688862 
L 336.829539 34731.688862 
L 337.448959 34731.688862 
L 338.06838 34731.688862 
L 338.6878 34731.688862 
L 339.30722 34731.688862 
L 339.92664 34731.688862 
L 340.54606 34731.688862 
L 341.16548 34731.688862 
L 341.784901 34731.688862 
L 342.404321 34731.688862 
L 343.023741 34731.688862 
L 343.643161 34731.688862 
L 344.262581 34731.688862 
L 344.882001 34731.688862 
L 345.501421 34731.688862 
L 346.120842 34731.688862 
L 346.740262 34731.688862 
L 347.359682 34731.688862 
L 347.979102 34731.688862 
L 348.598522 34731.688862 
L 349.217942 34731.688862 
L 349.837363 34731.688862 
L 350.456783 34731.688862 
L 351.076203 34731.688862 
L 351.695623 34731.688862 
L 352.315043 34731.688862 
L 352.934463 34731.688862 
L 353.553883 34731.688862 
L 354.173304 34731.688862 
L 354.792724 34731.688862 
L 355.412144 34731.688862 
L 356.031564 34731.688862 
L 356.650984 34731.688862 
L 357.270404 34731.688862 
L 357.889825 34731.688862 
L 358.509245 34731.688862 
L 359.128665 34731.688862 
L 359.748085 34731.688862 
L 360.367505 34731.688862 
L 360.986925 34731.688862 
L 361.606345 34731.688862 
L 362.225766 34731.688862 
L 362.845186 34731.688862 
L 363.464606 34731.688862 
L 364.084026 34731.688862 
L 364.703446 34731.688862 
L 365.322866 34731.688862 
L 365.942287 34731.688862 
L 366.561707 34731.688862 
L 367.181127 34731.688862 
L 367.800547 34731.688862 
L 368.419967 34731.688862 
L 369.039387 34731.688862 
L 369.658807 34731.688862 
L 370.278228 34731.688862 
L 370.897648 34731.688862 
L 371.517068 34731.688862 
L 372.136488 34731.688862 
L 372.755908 34731.688862 
L 373.375328 34731.688862 
L 373.994749 34731.688862 
L 374.614169 34731.688862 
L 375.233589 34731.688862 
L 375.853009 34731.688862 
L 376.472429 34731.688862 
L 377.091849 34731.688862 
L 377.711269 34731.688862 
L 378.33069 34731.688862 
L 378.95011 34731.688862 
L 379.56953 34731.688862 
L 380.18895 34731.688862 
L 380.80837 34731.688862 
L 381.42779 34731.688862 
L 381.42779 212.453054 
L 381.42779 212.453054 
L 380.80837 181.523344 
L 380.18895 159.634619 
L 379.56953 146.054569 
L 378.95011 138.619868 
L 378.33069 134.132716 
L 377.711269 132.745636 
L 377.091849 137.550136 
L 376.472429 148.411706 
L 375.853009 150.917884 
L 375.233589 139.70675 
L 374.614169 128.146184 
L 373.994749 118.152103 
L 373.375328 111.204456 
L 372.755908 107.623161 
L 372.136488 106.539709 
L 371.517068 106.886576 
L 370.897648 107.795993 
L 370.278228 110.081506 
L 369.658807 114.766386 
L 369.039387 118.652557 
L 368.419967 116.990884 
L 367.800547 113.182087 
L 367.181127 111.08219 
L 366.561707 110.552563 
L 365.942287 109.732685 
L 365.322866 108.53889 
L 364.703446 107.208785 
L 364.084026 105.228911 
L 363.464606 103.743034 
L 362.845186 103.572013 
L 362.225766 104.759179 
L 361.606345 107.422522 
L 360.986925 109.798477 
L 360.367505 109.011417 
L 359.748085 106.436548 
L 359.128665 104.66914 
L 358.509245 104.135867 
L 357.889825 104.626193 
L 357.270404 106.605317 
L 356.650984 110.199519 
L 356.031564 114.231519 
L 355.412144 118.151934 
L 354.792724 122.117052 
L 354.173304 125.29298 
L 353.553883 126.258058 
L 352.934463 124.805401 
L 352.315043 124.402073 
L 351.695623 126.558372 
L 351.076203 127.70086 
L 350.456783 126.124735 
L 349.837363 125.472484 
L 349.217942 126.905504 
L 348.598522 128.82982 
L 347.979102 131.654044 
L 347.359682 136.436405 
L 346.740262 140.494443 
L 346.120842 145.397206 
L 345.501421 156.530248 
L 344.882001 176.270136 
L 344.262581 204.493613 
L 343.643161 209.609675 
L 343.023741 180.583138 
L 342.404321 158.878591 
L 341.784901 145.573227 
L 341.16548 139.358394 
L 340.54606 138.434439 
L 339.92664 142.343055 
L 339.30722 152.608813 
L 338.6878 170.861262 
L 338.06838 197.935879 
L 337.448959 234.151196 
L 336.829539 279.615845 
L 336.210119 334.084729 
L 335.590699 330.501154 
L 334.971279 276.507061 
L 334.351859 231.64586 
L 333.732439 196.072009 
L 333.113018 169.735305 
L 332.493598 152.409337 
L 331.874178 143.093858 
L 331.254758 138.304385 
L 330.635338 133.039301 
L 330.015918 128.891133 
L 329.396497 129.888807 
L 328.777077 135.246505 
L 328.157657 140.145094 
L 327.538237 144.721288 
L 326.918817 148.800713 
L 326.299397 143.943685 
L 325.679977 136.771008 
L 325.060556 132.628389 
L 324.441136 129.712715 
L 323.821716 126.293996 
L 323.202296 122.944549 
L 322.582876 119.989207 
L 321.963456 117.496271 
L 321.344035 116.797436 
L 320.724615 116.642919 
L 320.105195 114.368427 
L 319.485775 110.873586 
L 318.866355 107.30195 
L 318.246935 104.495606 
L 317.627515 103.050337 
L 317.008094 102.934111 
L 316.388674 103.860453 
L 315.769254 104.627273 
L 315.149834 103.828357 
L 314.530414 101.412633 
L 313.910994 98.837779 
L 313.291573 97.54054 
L 312.672153 98.040854 
L 312.052733 99.094771 
L 311.433313 98.855514 
L 310.813893 98.165698 
L 310.194473 97.563692 
L 309.575052 96.47674 
L 308.955632 95.595271 
L 308.336212 95.620089 
L 307.716792 96.349007 
L 307.097372 97.039094 
L 306.477952 97.360096 
L 305.858532 97.199436 
L 305.239111 95.79004 
L 304.619691 93.090973 
L 304.000271 90.884196 
L 303.380851 90.818215 
L 302.761431 92.251297 
L 302.142011 93.156001 
L 301.52259 93.750819 
L 300.90317 94.987342 
L 300.28375 96.559214 
L 299.66433 98.366925 
L 299.04491 99.884292 
L 298.42549 100.149816 
L 297.80607 100.010865 
L 297.186649 100.077571 
L 296.567229 100.243109 
L 295.947809 101.412229 
L 295.328389 103.395799 
L 294.708969 103.535288 
L 294.089549 102.054321 
L 293.470128 102.904152 
L 292.850708 106.737056 
L 292.231288 109.002585 
L 291.611868 107.955417 
L 290.992448 107.609531 
L 290.373028 109.255602 
L 289.753608 111.438926 
L 289.134187 112.109169 
L 288.514767 111.951731 
L 287.895347 113.464352 
L 287.275927 117.941846 
L 286.656507 122.966365 
L 286.037087 123.593394 
L 285.417666 123.307472 
L 284.798246 126.661525 
L 284.178826 135.141539 
L 283.559406 149.011548 
L 282.939986 154.433198 
L 282.320566 142.301062 
L 281.701146 134.579102 
L 281.081725 133.916422 
L 280.462305 133.88158 
L 279.842885 129.218302 
L 279.223465 126.682138 
L 278.604045 129.617004 
L 277.984625 137.313804 
L 277.365204 148.527798 
L 276.745784 154.188254 
L 276.126364 147.67677 
L 275.506944 144.802385 
L 274.887524 150.725237 
L 274.268104 165.9132 
L 273.648684 190.400491 
L 273.029263 224.106664 
L 272.409843 247.044266 
L 271.790423 209.974767 
L 271.171003 177.474199 
L 270.551583 153.973561 
L 269.932163 139.247095 
L 269.312742 132.513105 
L 268.693322 131.480832 
L 268.073902 132.194205 
L 267.454482 132.346428 
L 266.835062 129.997074 
L 266.215642 124.79058 
L 265.596222 121.769263 
L 264.976801 120.61519 
L 264.357381 116.454329 
L 263.737961 111.039869 
L 263.118541 107.597379 
L 262.499121 106.934648 
L 261.879701 108.847534 
L 261.26028 112.298215 
L 260.64086 113.049113 
L 260.02144 106.746991 
L 259.40202 99.482787 
L 258.7826 94.55763 
L 258.16318 91.27445 
L 257.54376 89.74943 
L 256.924339 90.121527 
L 256.304919 91.111619 
L 255.685499 90.740197 
L 255.066079 88.298819 
L 254.446659 84.994118 
L 253.827239 81.932869 
L 253.207818 79.16955 
L 252.588398 76.551162 
L 251.968978 74.383789 
L 251.349558 72.569364 
L 250.730138 71.007431 
L 250.110718 70.646741 
L 249.491298 71.91832 
L 248.871877 73.199373 
L 248.252457 72.731353 
L 247.633037 71.318203 
L 247.013617 70.412105 
L 246.394197 70.035333 
L 245.774777 69.725863 
L 245.155356 70.082788 
L 244.535936 71.814638 
L 243.916516 74.678346 
L 243.297096 78.078541 
L 242.677676 81.303005 
L 242.058256 83.435921 
L 241.438836 84.662437 
L 240.819415 86.233846 
L 240.199995 89.047355 
L 239.580575 93.299374 
L 238.961155 97.299919 
L 238.341735 98.633241 
L 237.722315 98.722346 
L 237.102894 99.951657 
L 236.483474 102.572698 
L 235.864054 106.124044 
L 235.244634 111.563043 
L 234.625214 119.583886 
L 234.005794 125.52128 
L 233.386374 125.115814 
L 232.766953 124.776215 
L 232.147533 128.353897 
L 231.528113 134.975234 
L 230.908693 138.894156 
L 230.289273 135.13392 
L 229.669853 128.321548 
L 229.050432 121.644464 
L 228.431012 116.638428 
L 227.811592 114.514195 
L 227.192172 115.761297 
L 226.572752 119.16026 
L 225.953332 122.481571 
L 225.333912 124.391218 
L 224.714491 123.001899 
L 224.095071 117.66639 
L 223.475651 112.435794 
L 222.856231 108.849385 
L 222.236811 105.566421 
L 221.617391 102.091236 
L 220.99797 98.342569 
L 220.37855 94.001335 
L 219.75913 90.003635 
L 219.13971 87.275574 
L 218.52029 85.054362 
L 217.90087 82.601444 
L 217.281449 80.147829 
L 216.662029 77.806206 
L 216.042609 75.462245 
L 215.423189 73.239689 
L 214.803769 71.288899 
L 214.184349 69.394764 
L 213.564929 67.640058 
L 212.945508 66.462727 
L 212.326088 65.79494 
L 211.706668 65.213392 
L 211.087248 64.57052 
L 210.467828 64.060671 
L 209.848408 63.817721 
L 209.228987 63.875556 
L 208.609567 63.895419 
L 207.990147 63.501173 
L 207.370727 62.994726 
L 206.751307 62.58706 
L 206.131887 62.252063 
L 205.512467 62.357382 
L 204.893046 63.431266 
L 204.273626 65.413273 
L 203.654206 67.528965 
L 203.034786 69.209554 
L 202.415366 70.537008 
L 201.795946 71.865718 
L 201.176525 73.393186 
L 200.557105 74.707642 
L 199.937685 76.119497 
L 199.318265 78.542518 
L 198.698845 81.468675 
L 198.079425 83.757832 
L 197.460005 85.076913 
L 196.840584 86.187561 
L 196.221164 88.342288 
L 195.601744 91.918048 
L 194.982324 95.751124 
L 194.362904 98.550146 
L 193.743484 101.001625 
L 193.124063 104.231418 
L 192.504643 108.790715 
L 191.885223 115.009802 
L 191.265803 119.932138 
L 190.646383 119.503567 
L 190.026963 117.624833 
L 189.407543 118.66504 
L 188.788122 122.890752 
L 188.168702 128.348046 
L 187.549282 133.729717 
L 186.929862 137.249101 
L 186.310442 133.349529 
L 185.691022 124.477023 
L 185.071601 117.706368 
L 184.452181 116.59006 
L 183.832761 122.575683 
L 183.213341 135.405824 
L 182.593921 146.016564 
L 181.974501 140.484482 
L 181.355081 131.578823 
L 180.73566 124.475595 
L 180.11624 120.547956 
L 179.49682 118.621707 
L 178.8774 116.678552 
L 178.25798 114.856376 
L 177.63856 111.086756 
L 177.019139 105.396676 
L 176.399719 100.598474 
L 175.780299 97.393656 
L 175.160879 95.536808 
L 174.541459 94.306488 
L 173.922039 92.513794 
L 173.302619 89.455469 
L 172.683198 85.862525 
L 172.063778 82.940051 
L 171.444358 81.09646 
L 170.824938 79.943903 
L 170.205518 78.462309 
L 169.586098 75.80197 
L 168.966677 72.642991 
L 168.347257 70.29913 
L 167.727837 69.057461 
L 167.108417 68.260173 
L 166.488997 66.970493 
L 165.869577 64.915576 
L 165.250157 62.872863 
L 164.630736 61.549102 
L 164.011316 60.618591 
L 163.391896 59.260842 
L 162.772476 57.870881 
L 162.153056 57.261216 
L 161.533636 57.226476 
L 160.914215 57.172745 
L 160.294795 56.879969 
L 159.675375 56.544515 
L 159.055955 56.52803 
L 158.436535 56.880094 
L 157.817115 57.441946 
L 157.197695 58.158744 
L 156.578274 58.981885 
L 155.958854 60.0503 
L 155.339434 61.436487 
L 154.720014 62.771657 
L 154.100594 63.675802 
L 153.481174 64.597167 
L 152.861753 66.206728 
L 152.242333 68.260329 
L 151.622913 70.229677 
L 151.003493 72.142909 
L 150.384073 74.472275 
L 149.764653 77.18076 
L 149.145233 79.300357 
L 148.525812 80.791046 
L 147.906392 82.584792 
L 147.286972 84.904504 
L 146.667552 87.394876 
L 146.048132 90.033961 
L 145.428712 92.869206 
L 144.809291 95.163889 
L 144.189871 97.568525 
L 143.570451 101.241466 
L 142.951031 105.687587 
L 142.331611 109.696934 
L 141.712191 112.394718 
L 141.092771 115.08529 
L 140.47335 119.590078 
L 139.85393 125.073686 
L 139.23451 127.403847 
L 138.61509 124.760635 
L 137.99567 122.963199 
L 137.37625 123.377977 
L 136.756829 122.257862 
L 136.137409 120.303577 
L 135.517989 119.778544 
L 134.898569 121.10524 
L 134.279149 125.332059 
L 133.659729 130.365876 
L 133.040308 130.251559 
L 132.420888 127.378185 
L 131.801468 127.372122 
L 131.182048 130.962898 
L 130.562628 133.93698 
L 129.943208 134.943709 
L 129.323788 138.21268 
L 128.704367 141.127064 
L 128.084947 135.576836 
L 127.465527 128.271503 
L 126.846107 123.425997 
L 126.226687 120.072051 
L 125.607267 118.206111 
L 124.987846 118.018961 
L 124.368426 117.770652 
L 123.749006 114.104499 
L 123.129586 107.255893 
L 122.510166 100.395436 
L 121.890746 96.155799 
L 121.271326 95.105226 
L 120.651905 96.002712 
L 120.032485 95.792969 
L 119.413065 91.089565 
L 118.793645 84.839604 
L 118.174225 80.547316 
L 117.554805 77.975021 
L 116.935384 75.593589 
L 116.315964 71.907375 
L 115.696544 66.744415 
L 115.077124 61.921668 
L 114.457704 58.48573 
L 113.838284 55.775744 
L 113.218864 53.363869 
L 112.599443 51.481881 
L 111.980023 50.017525 
L 111.360603 48.809965 
L 110.741183 48.060102 
L 110.121763 48.012025 
L 109.502343 48.73874 
L 108.882922 50.079491 
L 108.263502 51.857883 
L 107.644082 53.973452 
L 107.024662 56.271657 
L 106.405242 58.606267 
L 105.785822 61.023074 
L 105.166402 63.856333 
L 104.546981 67.607737 
L 103.927561 72.189662 
L 103.308141 76.779656 
L 102.688721 80.9916 
L 102.069301 84.399892 
L 101.449881 86.116236 
L 100.83046 87.116425 
L 100.21104 89.450207 
L 99.59162 93.745531 
L 98.9722 98.947317 
L 98.35278 103.037519 
L 97.73336 105.147849 
L 97.11394 106.830007 
L 96.494519 109.145729 
L 95.875099 111.265832 
L 95.255679 111.639639 
L 94.636259 110.869515 
L 94.016839 111.928926 
L 93.397419 116.034332 
L 92.777998 122.112722 
L 92.158578 126.868299 
L 91.539158 124.893302 
L 90.919738 118.930945 
L 90.300318 115.561065 
L 89.680898 114.596963 
L 89.061478 109.004289 
L 88.442057 98.282313 
L 87.822637 89.20613 
L 87.203217 83.072538 
L 86.583797 78.39121 
L 85.964377 73.951581 
L 85.344957 69.415047 
L 84.725536 64.934379 
L 84.106116 60.855998 
L 83.486696 57.384255 
L 82.867276 54.892762 
L 82.247856 53.684362 
L 81.628436 53.577026 
L 81.009016 54.347339 
L 80.389595 56.103448 
L 79.770175 58.995136 
L 79.150755 63.028512 
L 78.531335 68.396729 
L 77.911915 75.208612 
L 77.292495 83.28561 
L 76.673074 92.852355 
L 76.053654 104.553919 
L 75.434234 118.638661 
L 74.814814 132.808286 
L 74.195394 144.772951 
L 73.575974 159.43005 
L 72.956554 181.496758 
L 72.337133 212.450988 
z
" clip-path="url(#p579b48d163)" style="fill: #4c72b0; fill-opacity: 0.25; stroke: #4c72b0; stroke-width: 0.3"/>
   </g>
   <g id="patch_3">
    <path d="M 59.482462 150.988862 
L 59.482462 12.388862 
" style="fill: none"/>
   </g>
   <g id="patch_4">
    <path d="M 394.282462 150.988862 
L 394.282462 12.388862 
" style="fill: none"/>
   </g>
   <g id="patch_5">
    <path d="M 59.482462 150.988862 
L 394.282462 150.988862 
" style="fill: none"/>
   </g>
   <g id="patch_6">
    <path d="M 59.482462 12.388862 
L 394.282462 12.388862 
" style="fill: none"/>
   </g>
   <g id="text_14">
    <!-- 0 -->
    <g transform="translate(82.073735 51.291511) scale(0.1 -0.1)">
     <use xlink:href="#CMR17-30" transform="scale(0.996264)"/>
    </g>
   </g>
   <g id="text_15">
    <!-- 1 -->
    <g transform="translate(110.266057 48.813995) scale(0.1 -0.1)">
     <use xlink:href="#CMR17-31" transform="scale(0.996264)"/>
    </g>
   </g>
   <g id="text_16">
    <!-- 2 -->
    <g transform="translate(159.76256 55.075001) scale(0.1 -0.1)">
     <use xlink:href="#CMR17-32" transform="scale(0.996264)"/>
    </g>
   </g>
   <g id="text_17">
    <!-- 3 -->
    <g transform="translate(208.036764 59.223944) scale(0.1 -0.1)">
     <defs>
      <path id="CMR17-33" d="M 1414 2157 
C 1984 2157 2234 1662 2234 1090 
C 2234 320 1824 25 1453 25 
C 1114 25 563 194 390 693 
C 422 680 454 680 486 680 
C 640 680 755 782 755 948 
C 755 1133 614 1216 486 1216 
C 378 1216 211 1165 211 926 
C 211 335 787 -128 1466 -128 
C 2176 -128 2720 430 2720 1085 
C 2720 1707 2208 2157 1600 2227 
C 2086 2328 2554 2756 2554 3329 
C 2554 3820 2048 4179 1472 4179 
C 890 4179 378 3829 378 3329 
C 378 3110 544 3072 627 3072 
C 762 3072 877 3155 877 3321 
C 877 3486 762 3569 627 3569 
C 602 3569 570 3569 544 3557 
C 730 3959 1235 4032 1459 4032 
C 1683 4032 2106 3925 2106 3320 
C 2106 3143 2080 2828 1862 2550 
C 1670 2304 1453 2304 1242 2284 
C 1210 2284 1062 2269 1037 2269 
C 992 2263 966 2257 966 2208 
C 966 2163 973 2157 1101 2157 
L 1414 2157 
z
" transform="scale(0.015625)"/>
     </defs>
     <use xlink:href="#CMR17-33" transform="scale(0.996264)"/>
    </g>
   </g>
   <g id="text_18">
    <!-- 4 -->
    <g transform="translate(248.419405 65.514002) scale(0.1 -0.1)">
     <use xlink:href="#CMR17-34" transform="scale(0.996264)"/>
    </g>
   </g>
   <g id="text_19">
    <!-- 5 -->
    <g transform="translate(304.725341 76.386276) scale(0.1 -0.1)">
     <defs>
      <path id="CMR17-35" d="M 730 3692 
C 794 3666 1056 3584 1325 3584 
C 1920 3584 2246 3911 2432 4100 
C 2432 4157 2432 4192 2394 4192 
C 2387 4192 2374 4192 2323 4163 
C 2099 4058 1837 3973 1517 3973 
C 1325 3973 1037 3999 723 4139 
C 653 4171 640 4171 634 4171 
C 602 4171 595 4164 595 4037 
L 595 2203 
C 595 2089 595 2057 659 2057 
C 691 2057 704 2070 736 2114 
C 941 2401 1222 2522 1542 2522 
C 1766 2522 2246 2382 2246 1289 
C 2246 1085 2246 715 2054 421 
C 1894 159 1645 25 1370 25 
C 947 25 518 320 403 814 
C 429 807 480 795 506 795 
C 589 795 749 840 749 1038 
C 749 1210 627 1280 506 1280 
C 358 1280 262 1190 262 1011 
C 262 454 704 -128 1382 -128 
C 2042 -128 2669 440 2669 1264 
C 2669 2030 2170 2624 1549 2624 
C 1222 2624 947 2503 730 2274 
L 730 3692 
z
" transform="scale(0.015625)"/>
     </defs>
     <use xlink:href="#CMR17-35" transform="scale(0.996264)"/>
    </g>
   </g>
   <g id="text_20">
    <!-- 6+ -->
    <g transform="translate(362.990716 85.499581) scale(0.1 -0.1)">
     <defs>
      <path id="CMR17-2b" d="M 2413 1472 
L 4109 1472 
C 4198 1472 4307 1472 4307 1580 
C 4307 1695 4205 1695 4109 1695 
L 2413 1695 
L 2413 3386 
C 2413 3475 2413 3584 2304 3584 
C 2189 3584 2189 3482 2189 3386 
L 2189 1695 
L 493 1695 
C 403 1695 294 1695 294 1587 
C 294 1472 397 1472 493 1472 
L 2189 1472 
L 2189 -218 
C 2189 -307 2189 -416 2298 -416 
C 2413 -416 2413 -314 2413 -218 
L 2413 1472 
z
" transform="scale(0.015625)"/>
     </defs>
     <use xlink:href="#CMR17-36" transform="scale(0.996264)"/>
     <use xlink:href="#CMR17-2b" transform="translate(45.690477 0) scale(0.996264)"/>
    </g>
   </g>
   <g id="text_21">
    <!-- Maximum-Value -->
    <g style="fill: #262626" transform="translate(257.062122 28.13394) scale(0.15 -0.15)">
     <defs>
      <path id="CMR17-4d" d="M 1338 4224 
C 1299 4320 1293 4320 1158 4320 
L 339 4320 
L 339 4160 
C 781 4160 851 4160 851 3875 
L 851 610 
C 851 451 851 153 339 153 
L 339 -13 
C 486 0 755 0 915 0 
C 1075 0 1344 0 1491 -13 
L 1491 153 
C 979 153 979 451 979 610 
L 979 4135 
L 986 4135 
L 2490 89 
C 2515 25 2528 -13 2579 -13 
C 2630 -13 2643 25 2669 89 
L 4186 4166 
L 4192 4166 
L 4192 438 
C 4192 153 4122 153 3680 153 
L 3680 -13 
C 3853 0 4198 0 4384 0 
C 4570 0 4922 0 5094 -13 
L 5094 153 
C 4653 153 4582 153 4582 438 
L 4582 3875 
C 4582 4160 4653 4160 5094 4160 
L 5094 4320 
L 4282 4320 
C 4147 4320 4141 4314 4102 4218 
L 2720 502 
L 1338 4224 
z
" transform="scale(0.015625)"/>
      <path id="CMR17-61" d="M 2304 1653 
C 2304 2072 2304 2294 2035 2543 
C 1798 2752 1523 2816 1306 2816 
C 800 2816 435 2407 435 1971 
C 435 1728 627 1728 666 1728 
C 749 1728 896 1778 896 1954 
C 896 2112 774 2181 666 2181 
C 640 2181 608 2174 589 2168 
C 723 2592 1069 2714 1293 2714 
C 1613 2714 1965 2429 1965 1885 
L 1965 1600 
C 1587 1600 1133 1549 774 1357 
C 371 1133 256 813 256 570 
C 256 77 832 -64 1171 -64 
C 1523 -64 1850 139 1990 511 
C 2003 233 2182 -18 2464 -18 
C 2598 -18 2938 70 2938 567 
L 2938 920 
L 2822 920 
L 2822 562 
C 2822 178 2650 128 2566 128 
C 2304 128 2304 458 2304 738 
L 2304 1653 
z
M 1965 870 
C 1965 317 1568 38 1216 38 
C 896 38 646 275 646 570 
C 646 761 730 1100 1101 1305 
C 1408 1478 1760 1504 1965 1504 
L 1965 870 
z
" transform="scale(0.015625)"/>
      <path id="CMR17-78" d="M 1664 1477 
C 1856 1726 2074 2006 2253 2216 
C 2464 2458 2707 2560 2989 2560 
L 2989 2726 
C 2880 2726 2656 2726 2541 2726 
C 2368 2726 2170 2726 2022 2732 
L 2022 2566 
C 2112 2553 2163 2489 2163 2400 
C 2163 2285 2099 2215 2067 2171 
L 1594 1573 
L 1030 2306 
C 973 2376 973 2388 973 2420 
C 973 2497 1037 2560 1146 2560 
L 1146 2732 
C 992 2726 717 2726 557 2726 
C 384 2726 179 2726 38 2732 
L 38 2560 
C 384 2560 461 2534 614 2343 
L 1350 1395 
C 1363 1382 1395 1344 1395 1325 
C 1395 1299 838 619 768 530 
C 480 185 179 160 6 160 
L 6 0 
C 115 0 339 0 454 0 
C 582 0 864 0 979 -6 
L 979 160 
C 941 166 838 179 838 325 
C 838 440 890 510 947 586 
L 1478 1236 
L 2035 512 
C 2086 442 2163 346 2163 301 
C 2163 211 2086 160 1984 160 
L 1984 -6 
C 2138 0 2413 0 2573 0 
C 2746 0 2950 0 3091 -6 
L 3091 160 
C 2771 160 2675 172 2522 370 
L 1664 1477 
z
" transform="scale(0.015625)"/>
      <path id="CMR17-6d" d="M 4326 1933 
C 4326 2252 4269 2790 3507 2790 
C 3072 2790 2771 2496 2656 2151 
L 2650 2151 
C 2573 2676 2195 2790 1837 2790 
C 1331 2790 1069 2400 973 2144 
L 966 2144 
L 966 2790 
L 211 2720 
L 211 2554 
C 589 2554 646 2515 646 2208 
L 646 428 
C 646 184 621 153 211 153 
L 211 -13 
C 365 0 646 0 813 0 
C 979 0 1267 0 1421 -13 
L 1421 153 
C 1011 153 986 178 986 428 
L 986 1658 
C 986 2247 1344 2688 1792 2688 
C 2266 2688 2317 2266 2317 1958 
L 2317 428 
C 2317 184 2291 153 1882 153 
L 1882 -13 
C 2035 0 2317 0 2483 0 
C 2650 0 2938 0 3091 -13 
L 3091 153 
C 2682 153 2656 178 2656 428 
L 2656 1658 
C 2656 2247 3014 2688 3462 2688 
C 3936 2688 3987 2266 3987 1958 
L 3987 428 
C 3987 184 3962 153 3552 153 
L 3552 -13 
C 3706 0 3987 0 4154 0 
C 4320 0 4608 0 4762 -13 
L 4762 153 
C 4352 153 4326 178 4326 428 
L 4326 1933 
z
" transform="scale(0.015625)"/>
      <path id="CMR17-75" d="M 1882 2693 
L 1882 2528 
C 2259 2528 2317 2489 2317 2186 
L 2317 1032 
C 2317 500 2029 38 1555 38 
C 1030 38 986 348 986 678 
L 986 2763 
L 211 2693 
L 211 2528 
C 467 2528 640 2528 646 2274 
L 646 1058 
C 646 633 646 361 813 183 
C 896 101 1056 -64 1517 -64 
C 2061 -64 2272 377 2323 506 
L 2330 506 
L 2330 -63 
L 3091 -63 
L 3091 128 
C 2714 128 2656 166 2656 473 
L 2656 2763 
L 1882 2693 
z
" transform="scale(0.015625)"/>
      <path id="CMR17-2d" d="M 1632 1216 
L 1632 1496 
L 26 1496 
L 26 1216 
L 1632 1216 
z
" transform="scale(0.015625)"/>
      <path id="CMR17-56" d="M 3776 3745 
C 3834 3886 3936 4160 4365 4160 
L 4365 4332 
C 4218 4319 4051 4319 3891 4319 
C 3738 4319 3475 4319 3328 4332 
L 3328 4160 
C 3648 4160 3661 3936 3661 3898 
C 3661 3827 3642 3783 3622 3732 
L 2362 446 
L 1043 3886 
C 1024 3931 1011 3963 1011 3994 
C 1011 4160 1267 4160 1402 4160 
L 1402 4319 
C 1197 4319 896 4319 685 4319 
C 518 4319 218 4319 64 4332 
L 64 4160 
C 435 4160 506 4135 582 3931 
L 2106 -26 
C 2138 -115 2144 -128 2214 -128 
C 2285 -128 2291 -115 2323 -26 
L 3776 3745 
z
" transform="scale(0.015625)"/>
      <path id="CMR17-6c" d="M 979 4396 
L 218 4326 
L 218 4160 
C 595 4160 653 4122 653 3817 
L 653 426 
C 653 184 627 153 218 153 
L 218 -13 
C 371 0 653 0 813 0 
C 979 0 1261 0 1414 -13 
L 1414 153 
C 1005 153 979 178 979 426 
L 979 4396 
z
" transform="scale(0.015625)"/>
     </defs>
     <use xlink:href="#CMR17-4d" transform="scale(0.996264)"/>
     <use xlink:href="#CMR17-61" transform="translate(84.686941 0) scale(0.996264)"/>
     <use xlink:href="#CMR17-78" transform="translate(130.377418 0) scale(0.996264)"/>
     <use xlink:href="#CMR17-69" transform="translate(178.670334 0) scale(0.996264)"/>
     <use xlink:href="#CMR17-6d" transform="translate(203.541392 0) scale(0.996264)"/>
     <use xlink:href="#CMR17-75" transform="translate(277.858528 0) scale(0.996264)"/>
     <use xlink:href="#CMR17-6d" transform="translate(328.753898 0) scale(0.996264)"/>
     <use xlink:href="#CMR17-2d" transform="translate(405.673488 0) scale(0.996264)"/>
     <use xlink:href="#CMR17-56" transform="translate(435.749454 0) scale(0.996264)"/>
     <use xlink:href="#CMR17-61" transform="translate(497.014628 0) scale(0.996264)"/>
     <use xlink:href="#CMR17-6c" transform="translate(542.705105 0) scale(0.996264)"/>
     <use xlink:href="#CMR17-75" transform="translate(567.576164 0) scale(0.996264)"/>
     <use xlink:href="#CMR17-65" transform="translate(618.471534 0) scale(0.996264)"/>
    </g>
   </g>
  </g>
 </g>
 <defs>
  <clipPath id="p579b48d163">
   <rect x="59.482462" y="12.388862" width="334.8" height="138.6"/>
  </clipPath>
 </defs>
</svg>
