<?xml version="1.0" encoding="utf-8" standalone="no"?>
<!DOCTYPE svg PUBLIC "-//W3C//DTD SVG 1.1//EN"
  "http://www.w3.org/Graphics/SVG/1.1/DTD/svg11.dtd">
<svg xmlns:xlink="http://www.w3.org/1999/xlink" width="401.482462pt" height="195.755801pt" viewBox="0 0 401.482462 195.755801" xmlns="http://www.w3.org/2000/svg" version="1.1">
 <metadata>
  <rdf:RDF xmlns:dc="http://purl.org/dc/elements/1.1/" xmlns:cc="http://creativecommons.org/ns#" xmlns:rdf="http://www.w3.org/1999/02/22-rdf-syntax-ns#">
   <cc:Work>
    <dc:type rdf:resource="http://purl.org/dc/dcmitype/StillImage"/>
    <dc:date>2024-10-09T15:14:14.744890</dc:date>
    <dc:format>image/svg+xml</dc:format>
    <dc:creator>
     <cc:Agent>
      <dc:title>Matplotlib v3.9.2, https://matplotlib.org/</dc:title>
     </cc:Agent>
    </dc:creator>
   </cc:Work>
  </rdf:RDF>
 </metadata>
 <defs>
  <style type="text/css">*{stroke-linejoin: round; stroke-linecap: butt}</style>
 </defs>
 <g id="figure_1">
  <g id="patch_1">
   <path d="M 0 195.755801 
L 401.482462 195.755801 
L 401.482462 0 
L 0 0 
z
" style="fill: #ffffff"/>
  </g>
  <g id="axes_1">
   <g id="patch_2">
    <path d="M 59.482462 150.988862 
L 394.282462 150.988862 
L 394.282462 12.388862 
L 59.482462 12.388862 
z
" style="fill: #eaeaf2"/>
   </g>
   <g id="matplotlib.axis_1">
    <g id="xtick_1">
     <g id="line2d_1">
      <path d="M 74.700644 150.988862 
L 74.700644 12.388862 
" clip-path="url(#pb1870fb2df)" style="fill: none; stroke: #ffffff; stroke-linecap: round"/>
     </g>
     <g id="line2d_2"/>
     <g id="text_1">
      <!-- $\mathdefault{0.0}$ -->
      <g style="fill: #262626" transform="translate(65.352118 168.366587) scale(0.15 -0.15)">
       <defs>
        <path id="CMR17-30" d="M 2688 2025 
C 2688 2416 2682 3080 2413 3591 
C 2176 4039 1798 4198 1466 4198 
C 1158 4198 768 4058 525 3597 
C 269 3118 243 2524 243 2025 
C 243 1661 250 1106 448 619 
C 723 -39 1216 -128 1466 -128 
C 1760 -128 2208 -7 2470 600 
C 2662 1042 2688 1559 2688 2025 
z
M 1466 -26 
C 1056 -26 813 325 723 812 
C 653 1188 653 1738 653 2096 
C 653 2588 653 2997 736 3387 
C 858 3929 1216 4096 1466 4096 
C 1728 4096 2067 3923 2189 3400 
C 2272 3036 2278 2607 2278 2096 
C 2278 1680 2278 1169 2202 792 
C 2067 95 1690 -26 1466 -26 
z
" transform="scale(0.015625)"/>
        <path id="CMMI12-3a" d="M 1178 307 
C 1178 492 1024 619 870 619 
C 685 619 557 466 557 313 
C 557 128 710 0 864 0 
C 1050 0 1178 153 1178 307 
z
" transform="scale(0.015625)"/>
       </defs>
       <use xlink:href="#CMR17-30" transform="scale(0.996264)"/>
       <use xlink:href="#CMMI12-3a" transform="translate(45.690477 0) scale(0.996264)"/>
       <use xlink:href="#CMR17-30" transform="translate(72.787654 0) scale(0.996264)"/>
      </g>
     </g>
    </g>
    <g id="xtick_2">
     <g id="line2d_3">
      <path d="M 135.573371 150.988862 
L 135.573371 12.388862 
" clip-path="url(#pb1870fb2df)" style="fill: none; stroke: #ffffff; stroke-linecap: round"/>
     </g>
     <g id="line2d_4"/>
     <g id="text_2">
      <!-- $\mathdefault{0.2}$ -->
      <g style="fill: #262626" transform="translate(126.224845 168.366587) scale(0.15 -0.15)">
       <defs>
        <path id="CMR17-32" d="M 2669 989 
L 2554 989 
C 2490 536 2438 459 2413 420 
C 2381 369 1920 369 1830 369 
L 602 369 
C 832 619 1280 1072 1824 1597 
C 2214 1967 2669 2402 2669 3035 
C 2669 3790 2067 4224 1395 4224 
C 691 4224 262 3604 262 3030 
C 262 2780 448 2748 525 2748 
C 589 2748 781 2787 781 3010 
C 781 3207 614 3264 525 3264 
C 486 3264 448 3258 422 3245 
C 544 3790 915 4058 1306 4058 
C 1862 4058 2227 3617 2227 3035 
C 2227 2479 1901 2000 1536 1584 
L 262 146 
L 262 0 
L 2515 0 
L 2669 989 
z
" transform="scale(0.015625)"/>
       </defs>
       <use xlink:href="#CMR17-30" transform="scale(0.996264)"/>
       <use xlink:href="#CMMI12-3a" transform="translate(45.690477 0) scale(0.996264)"/>
       <use xlink:href="#CMR17-32" transform="translate(72.787654 0) scale(0.996264)"/>
      </g>
     </g>
    </g>
    <g id="xtick_3">
     <g id="line2d_5">
      <path d="M 196.446098 150.988862 
L 196.446098 12.388862 
" clip-path="url(#pb1870fb2df)" style="fill: none; stroke: #ffffff; stroke-linecap: round"/>
     </g>
     <g id="line2d_6"/>
     <g id="text_3">
      <!-- $\mathdefault{0.4}$ -->
      <g style="fill: #262626" transform="translate(187.097572 168.366587) scale(0.15 -0.15)">
       <defs>
        <path id="CMR17-34" d="M 2150 4122 
C 2150 4256 2144 4256 2029 4256 
L 128 1254 
L 128 1088 
L 1779 1088 
L 1779 457 
C 1779 224 1766 160 1318 160 
L 1197 160 
L 1197 0 
C 1402 0 1747 0 1965 0 
C 2182 0 2528 0 2733 0 
L 2733 160 
L 2611 160 
C 2163 160 2150 224 2150 457 
L 2150 1088 
L 2803 1088 
L 2803 1254 
L 2150 1254 
L 2150 4122 
z
M 1798 3703 
L 1798 1254 
L 256 1254 
L 1798 3703 
z
" transform="scale(0.015625)"/>
       </defs>
       <use xlink:href="#CMR17-30" transform="scale(0.996264)"/>
       <use xlink:href="#CMMI12-3a" transform="translate(45.690477 0) scale(0.996264)"/>
       <use xlink:href="#CMR17-34" transform="translate(72.787654 0) scale(0.996264)"/>
      </g>
     </g>
    </g>
    <g id="xtick_4">
     <g id="line2d_7">
      <path d="M 257.318826 150.988862 
L 257.318826 12.388862 
" clip-path="url(#pb1870fb2df)" style="fill: none; stroke: #ffffff; stroke-linecap: round"/>
     </g>
     <g id="line2d_8"/>
     <g id="text_4">
      <!-- $\mathdefault{0.6}$ -->
      <g style="fill: #262626" transform="translate(247.970299 168.366587) scale(0.15 -0.15)">
       <defs>
        <path id="CMR17-36" d="M 678 2176 
C 678 3690 1395 4032 1811 4032 
C 1946 4032 2272 4009 2400 3776 
C 2298 3776 2106 3776 2106 3553 
C 2106 3381 2246 3323 2336 3323 
C 2394 3323 2566 3348 2566 3560 
C 2566 3954 2246 4179 1805 4179 
C 1043 4179 243 3390 243 1984 
C 243 253 966 -128 1478 -128 
C 2099 -128 2688 427 2688 1283 
C 2688 2081 2170 2662 1517 2662 
C 1126 2662 838 2407 678 1960 
L 678 2176 
z
M 1478 25 
C 691 25 691 1200 691 1436 
C 691 1896 909 2560 1504 2560 
C 1613 2560 1926 2560 2138 2120 
C 2253 1870 2253 1609 2253 1289 
C 2253 944 2253 690 2118 434 
C 1978 171 1773 25 1478 25 
z
" transform="scale(0.015625)"/>
       </defs>
       <use xlink:href="#CMR17-30" transform="scale(0.996264)"/>
       <use xlink:href="#CMMI12-3a" transform="translate(45.690477 0) scale(0.996264)"/>
       <use xlink:href="#CMR17-36" transform="translate(72.787654 0) scale(0.996264)"/>
      </g>
     </g>
    </g>
    <g id="xtick_5">
     <g id="line2d_9">
      <path d="M 318.191553 150.988862 
L 318.191553 12.388862 
" clip-path="url(#pb1870fb2df)" style="fill: none; stroke: #ffffff; stroke-linecap: round"/>
     </g>
     <g id="line2d_10"/>
     <g id="text_5">
      <!-- $\mathdefault{0.8}$ -->
      <g style="fill: #262626" transform="translate(308.843027 168.366587) scale(0.15 -0.15)">
       <defs>
        <path id="CMR17-38" d="M 1741 2264 
C 2144 2467 2554 2773 2554 3263 
C 2554 3841 1990 4179 1472 4179 
C 890 4179 378 3759 378 3180 
C 378 3021 416 2747 666 2505 
C 730 2442 998 2251 1171 2130 
C 883 1983 211 1634 211 934 
C 211 279 838 -128 1459 -128 
C 2144 -128 2720 362 2720 1010 
C 2720 1590 2330 1857 2074 2029 
L 1741 2264 
z
M 902 2822 
C 851 2854 595 3051 595 3351 
C 595 3739 998 4032 1459 4032 
C 1965 4032 2336 3676 2336 3262 
C 2336 2669 1670 2331 1638 2331 
C 1632 2331 1626 2331 1574 2370 
L 902 2822 
z
M 2080 1519 
C 2176 1449 2483 1240 2483 851 
C 2483 381 2010 25 1472 25 
C 890 25 448 438 448 940 
C 448 1443 838 1862 1280 2060 
L 2080 1519 
z
" transform="scale(0.015625)"/>
       </defs>
       <use xlink:href="#CMR17-30" transform="scale(0.996264)"/>
       <use xlink:href="#CMMI12-3a" transform="translate(45.690477 0) scale(0.996264)"/>
       <use xlink:href="#CMR17-38" transform="translate(72.787654 0) scale(0.996264)"/>
      </g>
     </g>
    </g>
    <g id="xtick_6">
     <g id="line2d_11">
      <path d="M 379.06428 150.988862 
L 379.06428 12.388862 
" clip-path="url(#pb1870fb2df)" style="fill: none; stroke: #ffffff; stroke-linecap: round"/>
     </g>
     <g id="line2d_12"/>
     <g id="text_6">
      <!-- $\mathdefault{1.0}$ -->
      <g style="fill: #262626" transform="translate(369.715754 168.366587) scale(0.15 -0.15)">
       <defs>
        <path id="CMR17-31" d="M 1702 4058 
C 1702 4192 1696 4192 1606 4192 
C 1357 3916 979 3827 621 3827 
C 602 3827 570 3827 563 3808 
C 557 3795 557 3782 557 3648 
C 755 3648 1088 3686 1344 3839 
L 1344 461 
C 1344 236 1331 160 781 160 
L 589 160 
L 589 0 
C 896 0 1216 0 1523 0 
C 1830 0 2150 0 2458 0 
L 2458 160 
L 2266 160 
C 1715 160 1702 230 1702 458 
L 1702 4058 
z
" transform="scale(0.015625)"/>
       </defs>
       <use xlink:href="#CMR17-31" transform="scale(0.996264)"/>
       <use xlink:href="#CMMI12-3a" transform="translate(45.690477 0) scale(0.996264)"/>
       <use xlink:href="#CMR17-30" transform="translate(72.787654 0) scale(0.996264)"/>
      </g>
     </g>
    </g>
    <g id="text_7">
     <!-- $s_1$ -->
     <g style="fill: #262626" transform="translate(220.821025 185.650057) scale(0.15 -0.15)">
      <defs>
       <path id="CMMI12-73" d="M 1459 1280 
C 1568 1261 1741 1223 1779 1216 
C 1862 1192 2150 1090 2150 783 
C 2150 586 1971 70 1229 70 
C 1094 70 614 70 486 436 
C 742 404 870 603 870 745 
C 870 880 781 950 653 950 
C 512 950 326 841 326 552 
C 326 173 710 -64 1222 -64 
C 2195 -64 2483 651 2483 984 
C 2483 1079 2483 1258 2278 1462 
C 2118 1616 1965 1648 1619 1718 
C 1446 1756 1171 1814 1171 2101 
C 1171 2229 1286 2689 1894 2689 
C 2163 2689 2426 2589 2490 2368 
C 2208 2368 2195 2125 2195 2119 
C 2195 1984 2317 1946 2374 1946 
C 2464 1946 2643 2015 2643 2281 
C 2643 2545 2400 2816 1901 2816 
C 1062 2816 838 2160 838 1899 
C 838 1414 1312 1312 1459 1280 
z
" transform="scale(0.015625)"/>
      </defs>
      <use xlink:href="#CMMI12-73" transform="scale(0.996264)"/>
      <use xlink:href="#CMR17-31" transform="translate(45.950048 -14.943915) scale(0.697382)"/>
     </g>
    </g>
   </g>
   <g id="matplotlib.axis_2">
    <g id="ytick_1">
     <g id="line2d_13">
      <path d="M 59.482462 150.988862 
L 394.282462 150.988862 
" clip-path="url(#pb1870fb2df)" style="fill: none; stroke: #ffffff; stroke-linecap: round"/>
     </g>
     <g id="line2d_14"/>
     <g id="text_8">
      <!-- $\mathdefault{10^{-2}}$ -->
      <g style="fill: #262626" transform="translate(24.483469 156.177725) scale(0.15 -0.15)">
       <defs>
        <path id="CMSY10-0" d="M 4218 1472 
C 4326 1472 4442 1472 4442 1600 
C 4442 1728 4326 1728 4218 1728 
L 755 1728 
C 646 1728 531 1728 531 1600 
C 531 1472 646 1472 755 1472 
L 4218 1472 
z
" transform="scale(0.015625)"/>
       </defs>
       <use xlink:href="#CMR17-31" transform="scale(0.996264)"/>
       <use xlink:href="#CMR17-30" transform="translate(45.690477 0) scale(0.996264)"/>
       <use xlink:href="#CMSY10-0" transform="translate(91.380954 36.153639) scale(0.697382)"/>
       <use xlink:href="#CMR17-32" transform="translate(145.621947 36.153639) scale(0.697382)"/>
      </g>
     </g>
    </g>
    <g id="ytick_2">
     <g id="line2d_15">
      <path d="M 59.482462 116.338862 
L 394.282462 116.338862 
" clip-path="url(#pb1870fb2df)" style="fill: none; stroke: #ffffff; stroke-linecap: round"/>
     </g>
     <g id="line2d_16"/>
     <g id="text_9">
      <!-- $\mathdefault{10^{-1}}$ -->
      <g style="fill: #262626" transform="translate(24.483469 121.527725) scale(0.15 -0.15)">
       <use xlink:href="#CMR17-31" transform="scale(0.996264)"/>
       <use xlink:href="#CMR17-30" transform="translate(45.690477 0) scale(0.996264)"/>
       <use xlink:href="#CMSY10-0" transform="translate(91.380954 36.153639) scale(0.697382)"/>
       <use xlink:href="#CMR17-31" transform="translate(145.621947 36.153639) scale(0.697382)"/>
      </g>
     </g>
    </g>
    <g id="ytick_3">
     <g id="line2d_17">
      <path d="M 59.482462 81.688862 
L 394.282462 81.688862 
" clip-path="url(#pb1870fb2df)" style="fill: none; stroke: #ffffff; stroke-linecap: round"/>
     </g>
     <g id="line2d_18"/>
     <g id="text_10">
      <!-- $\mathdefault{10^{0}}$ -->
      <g style="fill: #262626" transform="translate(32.619615 86.877725) scale(0.15 -0.15)">
       <use xlink:href="#CMR17-31" transform="scale(0.996264)"/>
       <use xlink:href="#CMR17-30" transform="translate(45.690477 0) scale(0.996264)"/>
       <use xlink:href="#CMR17-30" transform="translate(91.380954 36.153639) scale(0.697382)"/>
      </g>
     </g>
    </g>
    <g id="ytick_4">
     <g id="line2d_19">
      <path d="M 59.482462 47.038862 
L 394.282462 47.038862 
" clip-path="url(#pb1870fb2df)" style="fill: none; stroke: #ffffff; stroke-linecap: round"/>
     </g>
     <g id="line2d_20"/>
     <g id="text_11">
      <!-- $\mathdefault{10^{1}}$ -->
      <g style="fill: #262626" transform="translate(32.619615 52.227725) scale(0.15 -0.15)">
       <use xlink:href="#CMR17-31" transform="scale(0.996264)"/>
       <use xlink:href="#CMR17-30" transform="translate(45.690477 0) scale(0.996264)"/>
       <use xlink:href="#CMR17-31" transform="translate(91.380954 36.153639) scale(0.697382)"/>
      </g>
     </g>
    </g>
    <g id="ytick_5">
     <g id="line2d_21">
      <path d="M 59.482462 12.388862 
L 394.282462 12.388862 
" clip-path="url(#pb1870fb2df)" style="fill: none; stroke: #ffffff; stroke-linecap: round"/>
     </g>
     <g id="line2d_22"/>
     <g id="text_12">
      <!-- $\mathdefault{10^{2}}$ -->
      <g style="fill: #262626" transform="translate(32.619615 17.577725) scale(0.15 -0.15)">
       <use xlink:href="#CMR17-31" transform="scale(0.996264)"/>
       <use xlink:href="#CMR17-30" transform="translate(45.690477 0) scale(0.996264)"/>
       <use xlink:href="#CMR17-32" transform="translate(91.380954 36.153639) scale(0.697382)"/>
      </g>
     </g>
    </g>
    <g id="ytick_6">
     <g id="line2d_23"/>
    </g>
    <g id="ytick_7">
     <g id="line2d_24"/>
    </g>
    <g id="ytick_8">
     <g id="line2d_25"/>
    </g>
    <g id="ytick_9">
     <g id="line2d_26"/>
    </g>
    <g id="ytick_10">
     <g id="line2d_27"/>
    </g>
    <g id="ytick_11">
     <g id="line2d_28"/>
    </g>
    <g id="ytick_12">
     <g id="line2d_29"/>
    </g>
    <g id="ytick_13">
     <g id="line2d_30"/>
    </g>
    <g id="ytick_14">
     <g id="line2d_31"/>
    </g>
    <g id="ytick_15">
     <g id="line2d_32"/>
    </g>
    <g id="ytick_16">
     <g id="line2d_33"/>
    </g>
    <g id="ytick_17">
     <g id="line2d_34"/>
    </g>
    <g id="ytick_18">
     <g id="line2d_35"/>
    </g>
    <g id="ytick_19">
     <g id="line2d_36"/>
    </g>
    <g id="ytick_20">
     <g id="line2d_37"/>
    </g>
    <g id="ytick_21">
     <g id="line2d_38"/>
    </g>
    <g id="ytick_22">
     <g id="line2d_39"/>
    </g>
    <g id="ytick_23">
     <g id="line2d_40"/>
    </g>
    <g id="ytick_24">
     <g id="line2d_41"/>
    </g>
    <g id="ytick_25">
     <g id="line2d_42"/>
    </g>
    <g id="ytick_26">
     <g id="line2d_43"/>
    </g>
    <g id="ytick_27">
     <g id="line2d_44"/>
    </g>
    <g id="ytick_28">
     <g id="line2d_45"/>
    </g>
    <g id="ytick_29">
     <g id="line2d_46"/>
    </g>
    <g id="ytick_30">
     <g id="line2d_47"/>
    </g>
    <g id="ytick_31">
     <g id="line2d_48"/>
    </g>
    <g id="ytick_32">
     <g id="line2d_49"/>
    </g>
    <g id="ytick_33">
     <g id="line2d_50"/>
    </g>
    <g id="ytick_34">
     <g id="line2d_51"/>
    </g>
    <g id="ytick_35">
     <g id="line2d_52"/>
    </g>
    <g id="ytick_36">
     <g id="line2d_53"/>
    </g>
    <g id="ytick_37">
     <g id="line2d_54"/>
    </g>
    <g id="text_13">
     <!-- Density -->
     <g style="fill: #262626" transform="translate(17.577725 106.014048) rotate(-90) scale(0.15 -0.15)">
      <defs>
       <path id="CMR17-44" d="M 333 4352 
L 333 4186 
C 774 4186 845 4186 845 3900 
L 845 452 
C 845 166 774 166 333 166 
L 333 0 
L 2368 0 
C 3398 0 4224 943 4224 2141 
C 4224 3346 3411 4352 2368 4352 
L 333 4352 
z
M 1523 166 
C 1267 166 1254 197 1254 414 
L 1254 3938 
C 1254 4155 1267 4186 1523 4186 
L 2240 4186 
C 2771 4186 3750 3874 3750 2141 
C 3750 1242 3488 879 3366 707 
C 3213 510 2848 166 2240 166 
L 1523 166 
z
" transform="scale(0.015625)"/>
       <path id="CMR17-65" d="M 2438 1472 
C 2464 1498 2464 1511 2464 1576 
C 2464 2238 2118 2816 1389 2816 
C 710 2816 173 2169 173 1383 
C 173 551 781 -64 1459 -64 
C 2176 -64 2458 607 2458 740 
C 2458 784 2419 784 2406 784 
C 2362 784 2355 771 2330 696 
C 2189 265 1837 51 1504 51 
C 1229 51 954 203 781 480 
C 582 803 582 1176 582 1472 
L 2438 1472 
z
M 589 1568 
C 634 2505 1126 2714 1382 2714 
C 1818 2714 2112 2297 2118 1568 
L 589 1568 
z
" transform="scale(0.015625)"/>
       <path id="CMR17-6e" d="M 2656 1933 
C 2656 2259 2592 2790 1837 2790 
C 1331 2790 1069 2400 973 2144 
L 966 2144 
L 966 2790 
L 211 2720 
L 211 2554 
C 589 2554 646 2515 646 2208 
L 646 428 
C 646 184 621 153 211 153 
L 211 -13 
C 365 0 646 0 813 0 
C 979 0 1267 0 1421 -13 
L 1421 153 
C 1011 153 986 178 986 428 
L 986 1658 
C 986 2247 1344 2688 1792 2688 
C 2266 2688 2317 2266 2317 1958 
L 2317 428 
C 2317 184 2291 153 1882 153 
L 1882 -13 
C 2035 0 2317 0 2483 0 
C 2650 0 2938 0 3091 -13 
L 3091 153 
C 2682 153 2656 178 2656 428 
L 2656 1933 
z
" transform="scale(0.015625)"/>
       <path id="CMR17-73" d="M 1978 2697 
C 1978 2813 1971 2819 1933 2819 
C 1907 2819 1901 2813 1824 2717 
C 1805 2691 1747 2626 1728 2601 
C 1523 2819 1235 2819 1126 2819 
C 416 2819 160 2447 160 2076 
C 160 1498 813 1365 998 1325 
C 1402 1243 1542 1217 1677 1101 
C 1760 1025 1901 884 1901 654 
C 1901 384 1747 38 1158 38 
C 602 38 403 460 288 1021 
C 269 1110 269 1117 218 1117 
C 166 1117 160 1110 160 983 
L 160 63 
C 160 -51 166 -58 205 -58 
C 237 -58 243 -51 275 0 
C 314 57 410 211 448 276 
C 576 103 800 -64 1158 -64 
C 1792 -64 2131 283 2131 784 
C 2131 1112 1958 1285 1875 1362 
C 1683 1561 1459 1606 1190 1657 
C 838 1735 390 1825 390 2217 
C 390 2383 480 2737 1126 2737 
C 1811 2737 1850 2094 1862 1888 
C 1869 1856 1901 1849 1920 1849 
C 1978 1849 1978 1869 1978 1978 
L 1978 2697 
z
" transform="scale(0.015625)"/>
       <path id="CMR17-69" d="M 992 3909 
C 992 4049 877 4170 730 4170 
C 589 4170 467 4056 467 3909 
C 467 3769 582 3648 730 3648 
C 870 3648 992 3763 992 3909 
z
M 243 2706 
L 243 2541 
C 602 2541 653 2502 653 2197 
L 653 427 
C 653 184 627 153 218 153 
L 218 -13 
C 371 0 646 0 806 0 
C 960 0 1222 0 1370 -13 
L 1370 153 
C 992 153 979 191 979 420 
L 979 2776 
L 243 2706 
z
" transform="scale(0.015625)"/>
       <path id="CMR17-74" d="M 966 2560 
L 1862 2560 
L 1862 2725 
L 966 2725 
L 966 3904 
L 851 3904 
C 838 3245 614 2668 70 2668 
L 70 2560 
L 627 2560 
L 627 771 
C 627 650 627 -64 1370 -64 
C 1747 -64 1965 306 1965 777 
L 1965 1140 
L 1850 1140 
L 1850 783 
C 1850 344 1677 51 1408 51 
C 1222 51 966 178 966 758 
L 966 2560 
z
" transform="scale(0.015625)"/>
       <path id="CMR17-79" d="M 2496 2197 
C 2656 2586 2944 2586 3034 2586 
L 3034 2752 
C 2912 2752 2752 2752 2630 2752 
C 2496 2752 2285 2752 2157 2758 
L 2157 2592 
C 2400 2573 2406 2394 2406 2343 
C 2406 2280 2394 2248 2362 2171 
L 1664 449 
L 902 2306 
C 870 2382 870 2426 870 2433 
C 870 2573 1018 2586 1171 2586 
L 1171 2758 
C 1018 2752 742 2752 582 2752 
C 410 2752 205 2752 64 2758 
L 64 2586 
C 410 2586 448 2554 531 2350 
L 1485 15 
C 1197 -738 1030 -1178 627 -1178 
C 557 -1178 397 -1159 282 -1044 
C 429 -1031 493 -942 493 -833 
C 493 -725 416 -629 288 -629 
C 147 -629 77 -725 77 -840 
C 77 -1095 339 -1280 627 -1280 
C 998 -1280 1229 -922 1357 -604 
L 2496 2197 
z
" transform="scale(0.015625)"/>
      </defs>
      <use xlink:href="#CMR17-44" transform="scale(0.996264)"/>
      <use xlink:href="#CMR17-65" transform="translate(70.393556 0) scale(0.996264)"/>
      <use xlink:href="#CMR17-6e" transform="translate(110.879216 0) scale(0.996264)"/>
      <use xlink:href="#CMR17-73" transform="translate(161.774586 0) scale(0.996264)"/>
      <use xlink:href="#CMR17-69" transform="translate(197.575924 0) scale(0.996264)"/>
      <use xlink:href="#CMR17-74" transform="translate(222.446982 0) scale(0.996264)"/>
      <use xlink:href="#CMR17-79" transform="translate(255.125296 0) scale(0.996264)"/>
     </g>
    </g>
   </g>
   <g id="PolyCollection_1">
    <path d="M 72.831738 205.614355 
L 72.831738 34731.688862 
L 73.449176 34731.688862 
L 74.066614 34731.688862 
L 74.684051 34731.688862 
L 75.301489 34731.688862 
L 75.918927 34731.688862 
L 76.536365 34731.688862 
L 77.153802 34731.688862 
L 77.77124 34731.688862 
L 78.388678 34731.688862 
L 79.006116 34731.688862 
L 79.623554 34731.688862 
L 80.240991 34731.688862 
L 80.858429 34731.688862 
L 81.475867 34731.688862 
L 82.093305 34731.688862 
L 82.710742 34731.688862 
L 83.32818 34731.688862 
L 83.945618 34731.688862 
L 84.563056 34731.688862 
L 85.180493 34731.688862 
L 85.797931 34731.688862 
L 86.415369 34731.688862 
L 87.032807 34731.688862 
L 87.650245 34731.688862 
L 88.267682 34731.688862 
L 88.88512 34731.688862 
L 89.502558 34731.688862 
L 90.119996 34731.688862 
L 90.737433 34731.688862 
L 91.354871 34731.688862 
L 91.972309 34731.688862 
L 92.589747 34731.688862 
L 93.207185 34731.688862 
L 93.824622 34731.688862 
L 94.44206 34731.688862 
L 95.059498 34731.688862 
L 95.676936 34731.688862 
L 96.294373 34731.688862 
L 96.911811 34731.688862 
L 97.529249 34731.688862 
L 98.146687 34731.688862 
L 98.764124 34731.688862 
L 99.381562 34731.688862 
L 99.999 34731.688862 
L 100.616438 34731.688862 
L 101.233876 34731.688862 
L 101.851313 34731.688862 
L 102.468751 34731.688862 
L 103.086189 34731.688862 
L 103.703627 34731.688862 
L 104.321064 34731.688862 
L 104.938502 34731.688862 
L 105.55594 34731.688862 
L 106.173378 34731.688862 
L 106.790815 34731.688862 
L 107.408253 34731.688862 
L 108.025691 34731.688862 
L 108.643129 34731.688862 
L 109.260567 34731.688862 
L 109.878004 34731.688862 
L 110.495442 34731.688862 
L 111.11288 34731.688862 
L 111.730318 34731.688862 
L 112.347755 34731.688862 
L 112.965193 34731.688862 
L 113.582631 34731.688862 
L 114.200069 34731.688862 
L 114.817506 34731.688862 
L 115.434944 34731.688862 
L 116.052382 34731.688862 
L 116.66982 34731.688862 
L 117.287258 34731.688862 
L 117.904695 34731.688862 
L 118.522133 34731.688862 
L 119.139571 34731.688862 
L 119.757009 34731.688862 
L 120.374446 34731.688862 
L 120.991884 34731.688862 
L 121.609322 34731.688862 
L 122.22676 34731.688862 
L 122.844198 34731.688862 
L 123.461635 34731.688862 
L 124.079073 34731.688862 
L 124.696511 34731.688862 
L 125.313949 34731.688862 
L 125.931386 34731.688862 
L 126.548824 34731.688862 
L 127.166262 34731.688862 
L 127.7837 34731.688862 
L 128.401137 34731.688862 
L 129.018575 34731.688862 
L 129.636013 34731.688862 
L 130.253451 34731.688862 
L 130.870889 34731.688862 
L 131.488326 34731.688862 
L 132.105764 34731.688862 
L 132.723202 34731.688862 
L 133.34064 34731.688862 
L 133.958077 34731.688862 
L 134.575515 34731.688862 
L 135.192953 34731.688862 
L 135.810391 34731.688862 
L 136.427828 34731.688862 
L 137.045266 34731.688862 
L 137.662704 34731.688862 
L 138.280142 34731.688862 
L 138.89758 34731.688862 
L 139.515017 34731.688862 
L 140.132455 34731.688862 
L 140.749893 34731.688862 
L 141.367331 34731.688862 
L 141.984768 34731.688862 
L 142.602206 34731.688862 
L 143.219644 34731.688862 
L 143.837082 34731.688862 
L 144.454519 34731.688862 
L 145.071957 34731.688862 
L 145.689395 34731.688862 
L 146.306833 34731.688862 
L 146.924271 34731.688862 
L 147.541708 34731.688862 
L 148.159146 34731.688862 
L 148.776584 34731.688862 
L 149.394022 34731.688862 
L 150.011459 34731.688862 
L 150.628897 34731.688862 
L 151.246335 34731.688862 
L 151.863773 34731.688862 
L 152.481211 34731.688862 
L 153.098648 34731.688862 
L 153.716086 34731.688862 
L 154.333524 34731.688862 
L 154.950962 34731.688862 
L 155.568399 34731.688862 
L 156.185837 34731.688862 
L 156.803275 34731.688862 
L 157.420713 34731.688862 
L 158.03815 34731.688862 
L 158.655588 34731.688862 
L 159.273026 34731.688862 
L 159.890464 34731.688862 
L 160.507902 34731.688862 
L 161.125339 34731.688862 
L 161.742777 34731.688862 
L 162.360215 34731.688862 
L 162.977653 34731.688862 
L 163.59509 34731.688862 
L 164.212528 34731.688862 
L 164.829966 34731.688862 
L 165.447404 34731.688862 
L 166.064841 34731.688862 
L 166.682279 34731.688862 
L 167.299717 34731.688862 
L 167.917155 34731.688862 
L 168.534593 34731.688862 
L 169.15203 34731.688862 
L 169.769468 34731.688862 
L 170.386906 34731.688862 
L 171.004344 34731.688862 
L 171.621781 34731.688862 
L 172.239219 34731.688862 
L 172.856657 34731.688862 
L 173.474095 34731.688862 
L 174.091532 34731.688862 
L 174.70897 34731.688862 
L 175.326408 34731.688862 
L 175.943846 34731.688862 
L 176.561284 34731.688862 
L 177.178721 34731.688862 
L 177.796159 34731.688862 
L 178.413597 34731.688862 
L 179.031035 34731.688862 
L 179.648472 34731.688862 
L 180.26591 34731.688862 
L 180.883348 34731.688862 
L 181.500786 34731.688862 
L 182.118224 34731.688862 
L 182.735661 34731.688862 
L 183.353099 34731.688862 
L 183.970537 34731.688862 
L 184.587975 34731.688862 
L 185.205412 34731.688862 
L 185.82285 34731.688862 
L 186.440288 34731.688862 
L 187.057726 34731.688862 
L 187.675163 34731.688862 
L 188.292601 34731.688862 
L 188.910039 34731.688862 
L 189.527477 34731.688862 
L 190.144915 34731.688862 
L 190.762352 34731.688862 
L 191.37979 34731.688862 
L 191.997228 34731.688862 
L 192.614666 34731.688862 
L 193.232103 34731.688862 
L 193.849541 34731.688862 
L 194.466979 34731.688862 
L 195.084417 34731.688862 
L 195.701854 34731.688862 
L 196.319292 34731.688862 
L 196.93673 34731.688862 
L 197.554168 34731.688862 
L 198.171606 34731.688862 
L 198.789043 34731.688862 
L 199.406481 34731.688862 
L 200.023919 34731.688862 
L 200.641357 34731.688862 
L 201.258794 34731.688862 
L 201.876232 34731.688862 
L 202.49367 34731.688862 
L 203.111108 34731.688862 
L 203.728545 34731.688862 
L 204.345983 34731.688862 
L 204.963421 34731.688862 
L 205.580859 34731.688862 
L 206.198297 34731.688862 
L 206.815734 34731.688862 
L 207.433172 34731.688862 
L 208.05061 34731.688862 
L 208.668048 34731.688862 
L 209.285485 34731.688862 
L 209.902923 34731.688862 
L 210.520361 34731.688862 
L 211.137799 34731.688862 
L 211.755237 34731.688862 
L 212.372674 34731.688862 
L 212.990112 34731.688862 
L 213.60755 34731.688862 
L 214.224988 34731.688862 
L 214.842425 34731.688862 
L 215.459863 34731.688862 
L 216.077301 34731.688862 
L 216.694739 34731.688862 
L 217.312176 34731.688862 
L 217.929614 34731.688862 
L 218.547052 34731.688862 
L 219.16449 34731.688862 
L 219.781928 34731.688862 
L 220.399365 34731.688862 
L 221.016803 34731.688862 
L 221.634241 34731.688862 
L 222.251679 34731.688862 
L 222.869116 34731.688862 
L 223.486554 34731.688862 
L 224.103992 34731.688862 
L 224.72143 34731.688862 
L 225.338867 34731.688862 
L 225.956305 34731.688862 
L 226.573743 34731.688862 
L 227.191181 34731.688862 
L 227.808619 34731.688862 
L 228.426056 34731.688862 
L 229.043494 34731.688862 
L 229.660932 34731.688862 
L 230.27837 34731.688862 
L 230.895807 34731.688862 
L 231.513245 34731.688862 
L 232.130683 34731.688862 
L 232.748121 34731.688862 
L 233.365558 34731.688862 
L 233.982996 34731.688862 
L 234.600434 34731.688862 
L 235.217872 34731.688862 
L 235.83531 34731.688862 
L 236.452747 34731.688862 
L 237.070185 34731.688862 
L 237.687623 34731.688862 
L 238.305061 34731.688862 
L 238.922498 34731.688862 
L 239.539936 34731.688862 
L 240.157374 34731.688862 
L 240.774812 34731.688862 
L 241.392249 34731.688862 
L 242.009687 34731.688862 
L 242.627125 34731.688862 
L 243.244563 34731.688862 
L 243.862001 34731.688862 
L 244.479438 34731.688862 
L 245.096876 34731.688862 
L 245.714314 34731.688862 
L 246.331752 34731.688862 
L 246.949189 34731.688862 
L 247.566627 34731.688862 
L 248.184065 34731.688862 
L 248.801503 34731.688862 
L 249.418941 34731.688862 
L 250.036378 34731.688862 
L 250.653816 34731.688862 
L 251.271254 34731.688862 
L 251.888692 34731.688862 
L 252.506129 34731.688862 
L 253.123567 34731.688862 
L 253.741005 34731.688862 
L 254.358443 34731.688862 
L 254.97588 34731.688862 
L 255.593318 34731.688862 
L 256.210756 34731.688862 
L 256.828194 34731.688862 
L 257.445632 34731.688862 
L 258.063069 34731.688862 
L 258.680507 34731.688862 
L 259.297945 34731.688862 
L 259.915383 34731.688862 
L 260.53282 34731.688862 
L 261.150258 34731.688862 
L 261.767696 34731.688862 
L 262.385134 34731.688862 
L 263.002571 34731.688862 
L 263.620009 34731.688862 
L 264.237447 34731.688862 
L 264.854885 34731.688862 
L 265.472323 34731.688862 
L 266.08976 34731.688862 
L 266.707198 34731.688862 
L 267.324636 34731.688862 
L 267.942074 34731.688862 
L 268.559511 34731.688862 
L 269.176949 34731.688862 
L 269.794387 34731.688862 
L 270.411825 34731.688862 
L 271.029262 34731.688862 
L 271.6467 34731.688862 
L 272.264138 34731.688862 
L 272.881576 34731.688862 
L 273.499014 34731.688862 
L 274.116451 34731.688862 
L 274.733889 34731.688862 
L 275.351327 34731.688862 
L 275.968765 34731.688862 
L 276.586202 34731.688862 
L 277.20364 34731.688862 
L 277.821078 34731.688862 
L 278.438516 34731.688862 
L 279.055954 34731.688862 
L 279.673391 34731.688862 
L 280.290829 34731.688862 
L 280.908267 34731.688862 
L 281.525705 34731.688862 
L 282.143142 34731.688862 
L 282.76058 34731.688862 
L 283.378018 34731.688862 
L 283.995456 34731.688862 
L 284.612893 34731.688862 
L 285.230331 34731.688862 
L 285.847769 34731.688862 
L 286.465207 34731.688862 
L 287.082645 34731.688862 
L 287.700082 34731.688862 
L 288.31752 34731.688862 
L 288.934958 34731.688862 
L 289.552396 34731.688862 
L 290.169833 34731.688862 
L 290.787271 34731.688862 
L 291.404709 34731.688862 
L 292.022147 34731.688862 
L 292.639584 34731.688862 
L 293.257022 34731.688862 
L 293.87446 34731.688862 
L 294.491898 34731.688862 
L 295.109336 34731.688862 
L 295.726773 34731.688862 
L 296.344211 34731.688862 
L 296.961649 34731.688862 
L 297.579087 34731.688862 
L 298.196524 34731.688862 
L 298.813962 34731.688862 
L 299.4314 34731.688862 
L 300.048838 34731.688862 
L 300.666275 34731.688862 
L 301.283713 34731.688862 
L 301.901151 34731.688862 
L 302.518589 34731.688862 
L 303.136027 34731.688862 
L 303.753464 34731.688862 
L 304.370902 34731.688862 
L 304.98834 34731.688862 
L 305.605778 34731.688862 
L 306.223215 34731.688862 
L 306.840653 34731.688862 
L 307.458091 34731.688862 
L 308.075529 34731.688862 
L 308.692967 34731.688862 
L 309.310404 34731.688862 
L 309.927842 34731.688862 
L 310.54528 34731.688862 
L 311.162718 34731.688862 
L 311.780155 34731.688862 
L 312.397593 34731.688862 
L 313.015031 34731.688862 
L 313.632469 34731.688862 
L 314.249906 34731.688862 
L 314.867344 34731.688862 
L 315.484782 34731.688862 
L 316.10222 34731.688862 
L 316.719658 34731.688862 
L 317.337095 34731.688862 
L 317.954533 34731.688862 
L 318.571971 34731.688862 
L 319.189409 34731.688862 
L 319.806846 34731.688862 
L 320.424284 34731.688862 
L 321.041722 34731.688862 
L 321.65916 34731.688862 
L 322.276597 34731.688862 
L 322.894035 34731.688862 
L 323.511473 34731.688862 
L 324.128911 34731.688862 
L 324.746349 34731.688862 
L 325.363786 34731.688862 
L 325.981224 34731.688862 
L 326.598662 34731.688862 
L 327.2161 34731.688862 
L 327.833537 34731.688862 
L 328.450975 34731.688862 
L 329.068413 34731.688862 
L 329.685851 34731.688862 
L 330.303288 34731.688862 
L 330.920726 34731.688862 
L 331.538164 34731.688862 
L 332.155602 34731.688862 
L 332.77304 34731.688862 
L 333.390477 34731.688862 
L 334.007915 34731.688862 
L 334.625353 34731.688862 
L 335.242791 34731.688862 
L 335.860228 34731.688862 
L 336.477666 34731.688862 
L 337.095104 34731.688862 
L 337.712542 34731.688862 
L 338.32998 34731.688862 
L 338.947417 34731.688862 
L 339.564855 34731.688862 
L 340.182293 34731.688862 
L 340.799731 34731.688862 
L 341.417168 34731.688862 
L 342.034606 34731.688862 
L 342.652044 34731.688862 
L 343.269482 34731.688862 
L 343.886919 34731.688862 
L 344.504357 34731.688862 
L 345.121795 34731.688862 
L 345.739233 34731.688862 
L 346.356671 34731.688862 
L 346.974108 34731.688862 
L 347.591546 34731.688862 
L 348.208984 34731.688862 
L 348.826422 34731.688862 
L 349.443859 34731.688862 
L 350.061297 34731.688862 
L 350.678735 34731.688862 
L 351.296173 34731.688862 
L 351.91361 34731.688862 
L 352.531048 34731.688862 
L 353.148486 34731.688862 
L 353.765924 34731.688862 
L 354.383362 34731.688862 
L 355.000799 34731.688862 
L 355.618237 34731.688862 
L 356.235675 34731.688862 
L 356.853113 34731.688862 
L 357.47055 34731.688862 
L 358.087988 34731.688862 
L 358.705426 34731.688862 
L 359.322864 34731.688862 
L 359.940301 34731.688862 
L 360.557739 34731.688862 
L 361.175177 34731.688862 
L 361.792615 34731.688862 
L 362.410053 34731.688862 
L 363.02749 34731.688862 
L 363.644928 34731.688862 
L 364.262366 34731.688862 
L 364.879804 34731.688862 
L 365.497241 34731.688862 
L 366.114679 34731.688862 
L 366.732117 34731.688862 
L 367.349555 34731.688862 
L 367.966993 34731.688862 
L 368.58443 34731.688862 
L 369.201868 34731.688862 
L 369.819306 34731.688862 
L 370.436744 34731.688862 
L 371.054181 34731.688862 
L 371.671619 34731.688862 
L 372.289057 34731.688862 
L 372.906495 34731.688862 
L 373.523932 34731.688862 
L 374.14137 34731.688862 
L 374.758808 34731.688862 
L 375.376246 34731.688862 
L 375.993684 34731.688862 
L 376.611121 34731.688862 
L 377.228559 34731.688862 
L 377.845997 34731.688862 
L 378.463435 34731.688862 
L 379.080872 34731.688862 
L 379.69831 34731.688862 
L 380.315748 34731.688862 
L 380.933186 34731.688862 
L 380.933186 209.020281 
L 380.933186 209.020281 
L 380.315748 171.667315 
L 379.69831 149.096638 
L 379.080872 141.308251 
L 378.463435 148.302154 
L 377.845997 170.078346 
L 377.228559 206.636828 
L 376.611121 257.977599 
L 375.993684 324.100659 
L 375.376246 405.00601 
L 374.758808 500.693649 
L 374.14137 611.163579 
L 373.523932 736.415798 
L 372.906495 876.450306 
L 372.289057 1031.267104 
L 371.671619 1200.866191 
L 371.054181 1385.247568 
L 370.436744 1579.650103 
L 369.819306 1399.059832 
L 369.201868 1213.616711 
L 368.58443 1042.95588 
L 367.966993 887.077339 
L 367.349555 745.981087 
L 366.732117 619.667125 
L 366.114679 508.135452 
L 365.497241 411.386069 
L 364.879804 329.418975 
L 364.262366 262.234171 
L 363.644928 209.831656 
L 363.02749 172.211431 
L 362.410053 149.373495 
L 361.792615 141.317849 
L 361.175177 148.044493 
L 360.557739 169.553426 
L 359.940301 205.844648 
L 359.322864 256.91816 
L 358.705426 322.773962 
L 358.087988 403.412053 
L 357.47055 498.832211 
L 356.853113 548.689984 
L 356.235675 446.573207 
L 355.618237 358.963363 
L 355.000799 286.13581 
L 354.383362 228.090546 
L 353.765924 184.827571 
L 353.148486 156.346886 
L 352.531048 142.648491 
L 351.91361 143.732385 
L 351.296173 159.598568 
L 350.678735 190.247041 
L 350.061297 235.677804 
L 349.443859 295.890856 
L 348.826422 370.886198 
L 348.208984 460.663829 
L 347.591546 565.22375 
L 346.974108 684.56596 
L 346.356671 818.69046 
L 345.739233 967.597249 
L 345.121795 1131.286328 
L 344.504357 1309.757697 
L 343.886919 1503.011355 
L 343.269482 1711.047302 
L 342.652044 1933.86554 
L 342.034606 2171.466066 
L 341.417168 2423.848267 
L 340.799731 2315.014921 
L 340.182293 2068.900877 
L 339.564855 1837.569123 
L 338.947417 1621.019659 
L 338.32998 1419.252484 
L 337.712542 1232.267598 
L 337.095104 1060.065002 
L 336.477666 902.644695 
L 335.860228 760.006677 
L 335.242791 632.150941 
L 334.625353 519.077459 
L 334.007915 420.786096 
L 333.390477 337.276182 
L 332.77304 268.54437 
L 332.155602 214.573726 
L 331.538164 175.277212 
L 330.920726 150.208416 
L 330.303288 137.327967 
L 329.685851 131.254054 
L 329.068413 129.778151 
L 328.450975 136.568861 
L 327.833537 142.393915 
L 327.2161 140.561137 
L 326.598662 144.182579 
L 325.981224 139.066762 
L 325.363786 127.901964 
L 324.746349 120.949548 
L 324.128911 120.019407 
L 323.511473 126.908192 
L 322.894035 139.676342 
L 322.276597 141.589441 
L 321.65916 142.853026 
L 321.041722 157.327679 
L 320.424284 186.377866 
L 319.806846 204.786561 
L 319.189409 170.850636 
L 318.571971 148.688493 
L 317.954533 141.301187 
L 317.337095 148.582262 
L 316.719658 164.442698 
L 316.10222 153.344054 
L 315.484782 141.952402 
L 314.867344 144.947111 
L 314.249906 162.713351 
L 313.632469 193.447271 
L 313.015031 183.13161 
L 312.397593 155.525315 
L 311.780155 142.407143 
L 311.162718 143.924965 
L 310.54528 155.477378 
L 309.927842 149.550528 
L 309.310404 141.375587 
L 308.692967 147.092728 
L 308.075529 167.568537 
L 307.458091 202.813335 
L 306.840653 238.752375 
L 306.223215 197.914748 
L 305.605778 164.378955 
L 304.98834 145.462335 
L 304.370902 139.914158 
L 303.753464 140.619392 
L 303.136027 140.083681 
L 302.518589 147.564289 
L 301.901151 164.937742 
L 301.283713 152.95619 
L 300.666275 133.661101 
L 300.048838 126.542909 
L 299.4314 129.686154 
L 298.813962 132.315039 
L 298.196524 125.493851 
L 297.579087 122.65217 
L 296.961649 123.528617 
L 296.344211 119.484304 
L 295.726773 114.463777 
L 295.109336 114.282641 
L 294.491898 120.340623 
L 293.87446 132.37306 
L 293.257022 133.722998 
L 292.639584 126.042941 
L 292.022147 128.986346 
L 291.404709 144.555463 
L 290.787271 162.256443 
L 290.169833 144.613677 
L 289.552396 132.012034 
L 288.934958 133.70546 
L 288.31752 146.514777 
L 287.700082 146.197974 
L 287.082645 139.231968 
L 286.465207 138.29282 
L 285.847769 137.463719 
L 285.230331 137.696703 
L 284.612893 139.418138 
L 283.995456 149.561189 
L 283.378018 172.608098 
L 282.76058 179.721971 
L 282.143142 154.515479 
L 281.525705 142.041039 
L 280.908267 142.634305 
L 280.290829 141.996936 
L 279.673391 132.476442 
L 279.055954 131.393889 
L 278.438516 136.163178 
L 277.821078 140.140649 
L 277.20364 151.975933 
L 276.586202 177.448555 
L 275.968765 217.560188 
L 275.351327 272.436486 
L 274.733889 342.092868 
L 274.116451 426.531259 
L 273.499014 525.751904 
L 272.881576 639.754835 
L 272.264138 768.540053 
L 271.6467 912.107442 
L 271.029262 928.751224 
L 270.411825 783.562934 
L 269.794387 653.154495 
L 269.176949 537.525175 
L 268.559511 436.669864 
L 267.942074 350.575219 
L 267.324636 279.206445 
L 266.707198 222.473054 
L 266.08976 180.14158 
L 265.472323 151.623866 
L 264.854885 135.547296 
L 264.237447 129.386626 
L 263.620009 130.528443 
L 263.002571 134.450263 
L 262.385134 125.20226 
L 261.767696 113.584155 
L 261.150258 108.980737 
L 260.53282 109.780357 
L 259.915383 111.956183 
L 259.297945 111.764142 
L 258.680507 113.151545 
L 258.063069 114.631242 
L 257.445632 110.100653 
L 256.828194 103.48715 
L 256.210756 98.043511 
L 255.593318 94.472099 
L 254.97588 94.830478 
L 254.358443 97.256482 
L 253.741005 99.843955 
L 253.123567 101.680586 
L 252.506129 99.335792 
L 251.888692 97.284484 
L 251.271254 100.482813 
L 250.653816 104.461678 
L 250.036378 105.591822 
L 249.418941 106.075404 
L 248.801503 107.604749 
L 248.184065 112.269488 
L 247.566627 117.175833 
L 246.949189 117.681265 
L 246.331752 117.296097 
L 245.714314 122.264519 
L 245.096876 127.22582 
L 244.479438 131.352702 
L 243.862001 145.20939 
L 243.244563 164.437569 
L 242.627125 151.591202 
L 242.009687 141.250495 
L 241.392249 142.279166 
L 240.774812 141.053833 
L 240.157374 135.562738 
L 239.539936 135.59435 
L 238.922498 143.723415 
L 238.305061 163.127527 
L 237.687623 173.035288 
L 237.070185 147.51063 
L 236.452747 132.984495 
L 235.83531 132.60575 
L 235.217872 142.473319 
L 234.600434 138.952486 
L 233.982996 129.454907 
L 233.365558 128.549162 
L 232.748121 136.189096 
L 232.130683 143.900691 
L 231.513245 137.146125 
L 230.895807 130.335387 
L 230.27837 125.715128 
L 229.660932 119.284332 
L 229.043494 112.612584 
L 228.426056 111.450313 
L 227.808619 111.490484 
L 227.191181 109.116425 
L 226.573743 105.941725 
L 225.956305 104.750594 
L 225.338867 105.267911 
L 224.72143 104.986841 
L 224.103992 101.119539 
L 223.486554 95.598405 
L 222.869116 91.255548 
L 222.251679 88.287397 
L 221.634241 87.466889 
L 221.016803 88.906516 
L 220.399365 89.198421 
L 219.781928 88.420091 
L 219.16449 88.458664 
L 218.547052 88.252982 
L 217.929614 87.338395 
L 217.312176 86.27755 
L 216.694739 85.020416 
L 216.077301 84.084676 
L 215.459863 84.321812 
L 214.842425 86.076064 
L 214.224988 89.920952 
L 213.60755 93.636856 
L 212.990112 94.715858 
L 212.372674 93.762432 
L 211.755237 92.725488 
L 211.137799 93.562882 
L 210.520361 96.655963 
L 209.902923 100.456778 
L 209.285485 101.244312 
L 208.668048 101.973644 
L 208.05061 105.407999 
L 207.433172 111.581269 
L 206.815734 116.307062 
L 206.198297 122.640881 
L 205.580859 136.506722 
L 204.963421 136.424078 
L 204.345983 124.16551 
L 203.728545 116.367101 
L 203.111108 116.197536 
L 202.49367 121.135747 
L 201.876232 123.451812 
L 201.258794 127.100635 
L 200.641357 133.297209 
L 200.023919 139.843243 
L 199.406481 141.838893 
L 198.789043 138.116843 
L 198.171606 136.016104 
L 197.554168 132.317295 
L 196.93673 129.002658 
L 196.319292 123.060235 
L 195.701854 117.885274 
L 195.084417 116.690844 
L 194.466979 114.929004 
L 193.849541 111.088823 
L 193.232103 106.046047 
L 192.614666 99.812229 
L 191.997228 95.808442 
L 191.37979 94.858414 
L 190.762352 93.013858 
L 190.144915 89.008362 
L 189.527477 84.991942 
L 188.910039 81.740369 
L 188.292601 78.768783 
L 187.675163 76.057469 
L 187.057726 73.994498 
L 186.440288 71.415255 
L 185.82285 68.189394 
L 185.205412 65.927956 
L 184.587975 65.373149 
L 183.970537 65.394293 
L 183.353099 65.505953 
L 182.735661 66.097865 
L 182.118224 66.47843 
L 181.500786 68.156373 
L 180.883348 71.209443 
L 180.26591 72.409409 
L 179.648472 72.796105 
L 179.031035 73.587837 
L 178.413597 75.810507 
L 177.796159 81.550806 
L 177.178721 89.590855 
L 176.561284 95.638358 
L 175.943846 98.56725 
L 175.326408 102.85898 
L 174.70897 107.820169 
L 174.091532 111.57403 
L 173.474095 114.875435 
L 172.856657 114.569795 
L 172.239219 114.733646 
L 171.621781 115.812887 
L 171.004344 115.533058 
L 170.386906 115.312021 
L 169.769468 117.166028 
L 169.15203 121.105186 
L 168.534593 121.611013 
L 167.917155 119.030863 
L 167.299717 114.70584 
L 166.682279 107.97139 
L 166.064841 101.422594 
L 165.447404 97.784476 
L 164.829966 95.139874 
L 164.212528 91.720286 
L 163.59509 86.647603 
L 162.977653 81.08818 
L 162.360215 77.950025 
L 161.742777 76.72839 
L 161.125339 73.376582 
L 160.507902 68.332093 
L 159.890464 64.228618 
L 159.273026 61.621688 
L 158.655588 60.45776 
L 158.03815 59.452519 
L 157.420713 57.762267 
L 156.803275 56.327678 
L 156.185837 55.789014 
L 155.568399 55.85888 
L 154.950962 56.636772 
L 154.333524 58.105456 
L 153.716086 59.526649 
L 153.098648 60.540726 
L 152.481211 61.602559 
L 151.863773 62.860521 
L 151.246335 64.930281 
L 150.628897 68.254877 
L 150.011459 72.093467 
L 149.394022 74.768709 
L 148.776584 76.783967 
L 148.159146 79.491745 
L 147.541708 84.324293 
L 146.924271 90.820564 
L 146.306833 97.413523 
L 145.689395 104.780723 
L 145.071957 108.654703 
L 144.454519 108.673361 
L 143.837082 109.814725 
L 143.219644 114.589533 
L 142.602206 123.09165 
L 141.984768 132.042735 
L 141.367331 133.408306 
L 140.749893 123.806367 
L 140.132455 118.189295 
L 139.515017 118.631885 
L 138.89758 118.810713 
L 138.280142 116.508132 
L 137.662704 112.360591 
L 137.045266 105.421476 
L 136.427828 98.571482 
L 135.810391 94.604719 
L 135.192953 91.00624 
L 134.575515 86.213726 
L 133.958077 81.9197 
L 133.34064 77.66799 
L 132.723202 73.30766 
L 132.105764 69.374462 
L 131.488326 65.065376 
L 130.870889 60.795307 
L 130.253451 57.549493 
L 129.636013 55.419947 
L 129.018575 53.80495 
L 128.401137 52.016752 
L 127.7837 50.08222 
L 127.166262 47.900553 
L 126.548824 46.612117 
L 125.931386 47.048801 
L 125.313949 48.702514 
L 124.696511 50.381373 
L 124.079073 51.771898 
L 123.461635 53.625168 
L 122.844198 56.018093 
L 122.22676 59.02464 
L 121.609322 62.438189 
L 120.991884 65.86512 
L 120.374446 68.881017 
L 119.757009 72.52332 
L 119.139571 77.684613 
L 118.522133 82.512322 
L 117.904695 87.735884 
L 117.287258 95.638132 
L 116.66982 104.261666 
L 116.052382 110.222843 
L 115.434944 116.191332 
L 114.817506 123.922252 
L 114.200069 123.3285 
L 113.582631 119.024615 
L 112.965193 116.511198 
L 112.347755 117.926882 
L 111.730318 119.465775 
L 111.11288 116.521158 
L 110.495442 113.15261 
L 109.878004 112.175745 
L 109.260567 111.638883 
L 108.643129 108.66901 
L 108.025691 102.759953 
L 107.408253 95.141544 
L 106.790815 88.324766 
L 106.173378 82.341562 
L 105.55594 75.513345 
L 104.938502 68.643456 
L 104.321064 62.767707 
L 103.703627 56.612535 
L 103.086189 50.848359 
L 102.468751 46.773284 
L 101.851313 43.876155 
L 101.233876 42.065287 
L 100.616438 41.518153 
L 99.999 42.197686 
L 99.381562 44.036718 
L 98.764124 47.191523 
L 98.146687 51.445408 
L 97.529249 56.462357 
L 96.911811 62.531478 
L 96.294373 70.180438 
L 95.676936 78.4063 
L 95.059498 85.968493 
L 94.44206 92.855656 
L 93.824622 98.037187 
L 93.207185 101.761085 
L 92.589747 107.86295 
L 91.972309 114.576422 
L 91.354871 116.01596 
L 90.737433 115.879372 
L 90.119996 120.497277 
L 89.502558 125.542405 
L 88.88512 121.49171 
L 88.267682 112.848487 
L 87.650245 104.540563 
L 87.032807 97.676867 
L 86.415369 90.409499 
L 85.797931 81.751402 
L 85.180493 73.655901 
L 84.563056 66.867212 
L 83.945618 61.732802 
L 83.32818 57.540867 
L 82.710742 54.444982 
L 82.093305 52.471351 
L 81.475867 51.237148 
L 80.858429 51.214441 
L 80.240991 52.996132 
L 79.623554 56.14181 
L 79.006116 59.497623 
L 78.388678 64.068227 
L 77.77124 71.672104 
L 77.153802 81.035021 
L 76.536365 90.370746 
L 75.918927 99.773649 
L 75.301489 108.343221 
L 74.684051 118.577122 
L 74.066614 136.443904 
L 73.449176 164.970626 
L 72.831738 205.614355 
z
" clip-path="url(#pb1870fb2df)" style="fill: #4c72b0; fill-opacity: 0.25; stroke: #4c72b0; stroke-width: 0.3"/>
   </g>
   <g id="patch_3">
    <path d="M 59.482462 150.988862 
L 59.482462 12.388862 
" style="fill: none"/>
   </g>
   <g id="patch_4">
    <path d="M 394.282462 150.988862 
L 394.282462 12.388862 
" style="fill: none"/>
   </g>
   <g id="patch_5">
    <path d="M 59.482462 150.988862 
L 394.282462 150.988862 
" style="fill: none"/>
   </g>
   <g id="patch_6">
    <path d="M 59.482462 12.388862 
L 394.282462 12.388862 
" style="fill: none"/>
   </g>
   <g id="text_14">
    <!-- 0 -->
    <g transform="translate(81.41451 49.214913) scale(0.1 -0.1)">
     <use xlink:href="#CMR17-30" transform="scale(0.996264)"/>
    </g>
   </g>
   <g id="text_15">
    <!-- 1 -->
    <g transform="translate(100.666878 41.43256) scale(0.1 -0.1)">
     <use xlink:href="#CMR17-31" transform="scale(0.996264)"/>
    </g>
   </g>
   <g id="text_16">
    <!-- 2 -->
    <g transform="translate(126.315628 47.201094) scale(0.1 -0.1)">
     <use xlink:href="#CMR17-32" transform="scale(0.996264)"/>
    </g>
   </g>
   <g id="text_17">
    <!-- 3 -->
    <g transform="translate(155.602671 54.185259) scale(0.1 -0.1)">
     <defs>
      <path id="CMR17-33" d="M 1414 2157 
C 1984 2157 2234 1662 2234 1090 
C 2234 320 1824 25 1453 25 
C 1114 25 563 194 390 693 
C 422 680 454 680 486 680 
C 640 680 755 782 755 948 
C 755 1133 614 1216 486 1216 
C 378 1216 211 1165 211 926 
C 211 335 787 -128 1466 -128 
C 2176 -128 2720 430 2720 1085 
C 2720 1707 2208 2157 1600 2227 
C 2086 2328 2554 2756 2554 3329 
C 2554 3820 2048 4179 1472 4179 
C 890 4179 378 3829 378 3329 
C 378 3110 544 3072 627 3072 
C 762 3072 877 3155 877 3321 
C 877 3486 762 3569 627 3569 
C 602 3569 570 3569 544 3557 
C 730 3959 1235 4032 1459 4032 
C 1683 4032 2106 3925 2106 3320 
C 2106 3143 2080 2828 1862 2550 
C 1670 2304 1453 2304 1242 2284 
C 1210 2284 1062 2269 1037 2269 
C 992 2263 966 2257 966 2208 
C 966 2163 973 2157 1101 2157 
L 1414 2157 
z
" transform="scale(0.015625)"/>
     </defs>
     <use xlink:href="#CMR17-33" transform="scale(0.996264)"/>
    </g>
   </g>
   <g id="text_18">
    <!-- 4 -->
    <g transform="translate(183.561095 61.840675) scale(0.1 -0.1)">
     <use xlink:href="#CMR17-34" transform="scale(0.996264)"/>
    </g>
   </g>
   <g id="text_19">
    <!-- 5 -->
    <g transform="translate(217.329645 73.780719) scale(0.1 -0.1)">
     <defs>
      <path id="CMR17-35" d="M 730 3692 
C 794 3666 1056 3584 1325 3584 
C 1920 3584 2246 3911 2432 4100 
C 2432 4157 2432 4192 2394 4192 
C 2387 4192 2374 4192 2323 4163 
C 2099 4058 1837 3973 1517 3973 
C 1325 3973 1037 3999 723 4139 
C 653 4171 640 4171 634 4171 
C 602 4171 595 4164 595 4037 
L 595 2203 
C 595 2089 595 2057 659 2057 
C 691 2057 704 2070 736 2114 
C 941 2401 1222 2522 1542 2522 
C 1766 2522 2246 2382 2246 1289 
C 2246 1085 2246 715 2054 421 
C 1894 159 1645 25 1370 25 
C 947 25 518 320 403 814 
C 429 807 480 795 506 795 
C 589 795 749 840 749 1038 
C 749 1210 627 1280 506 1280 
C 358 1280 262 1190 262 1011 
C 262 454 704 -128 1382 -128 
C 2042 -128 2669 440 2669 1264 
C 2669 2030 2170 2624 1549 2624 
C 1222 2624 947 2503 730 2274 
L 730 3692 
z
" transform="scale(0.015625)"/>
     </defs>
     <use xlink:href="#CMR17-35" transform="scale(0.996264)"/>
    </g>
   </g>
   <g id="text_20">
    <!-- 6 -->
    <g transform="translate(253.817038 77.499171) scale(0.1 -0.1)">
     <use xlink:href="#CMR17-36" transform="scale(0.996264)"/>
    </g>
   </g>
   <g id="text_21">
    <!-- 7+ -->
    <g transform="translate(303.246174 101.972052) scale(0.1 -0.1)">
     <defs>
      <path id="CMR17-37" d="M 2886 3941 
L 2886 4081 
L 1382 4081 
C 634 4081 621 4165 595 4288 
L 480 4288 
L 294 3094 
L 410 3094 
C 429 3215 474 3540 550 3661 
C 589 3712 1062 3712 1171 3712 
L 2579 3712 
L 1869 2661 
C 1395 1954 1069 999 1069 165 
C 1069 89 1069 -128 1299 -128 
C 1530 -128 1530 89 1530 171 
L 1530 465 
C 1530 1508 1709 2196 2003 2636 
L 2886 3941 
z
" transform="scale(0.015625)"/>
      <path id="CMR17-2b" d="M 2413 1472 
L 4109 1472 
C 4198 1472 4307 1472 4307 1580 
C 4307 1695 4205 1695 4109 1695 
L 2413 1695 
L 2413 3386 
C 2413 3475 2413 3584 2304 3584 
C 2189 3584 2189 3482 2189 3386 
L 2189 1695 
L 493 1695 
C 403 1695 294 1695 294 1587 
C 294 1472 397 1472 493 1472 
L 2189 1472 
L 2189 -218 
C 2189 -307 2189 -416 2298 -416 
C 2413 -416 2413 -314 2413 -218 
L 2413 1472 
z
" transform="scale(0.015625)"/>
     </defs>
     <use xlink:href="#CMR17-37" transform="scale(0.996264)"/>
     <use xlink:href="#CMR17-2b" transform="translate(45.690477 0) scale(0.996264)"/>
    </g>
   </g>
   <g id="text_22">
    <!-- PCA -->
    <g style="fill: #262626" transform="translate(330.831568 28.13394) scale(0.15 -0.15)">
     <defs>
      <path id="CMR17-50" d="M 1267 2042 
L 2291 2042 
C 3117 2042 3718 2578 3718 3184 
C 3718 3791 3130 4352 2291 4352 
L 333 4352 
L 333 4186 
C 774 4186 845 4186 845 3899 
L 845 446 
C 845 160 774 160 333 160 
L 333 0 
C 518 0 858 0 1056 0 
C 1254 0 1594 0 1779 0 
L 1779 160 
C 1338 160 1267 160 1267 446 
L 1267 2042 
z
M 1254 2176 
L 1254 3938 
C 1254 4155 1267 4186 1523 4186 
L 2170 4186 
C 2995 4186 3232 3714 3232 3184 
C 3232 2604 2950 2176 2170 2176 
L 1254 2176 
z
" transform="scale(0.015625)"/>
      <path id="CMR17-43" d="M 3974 4289 
C 3974 4403 3968 4410 3930 4410 
C 3904 4410 3898 4403 3853 4327 
L 3571 3792 
C 3258 4187 2874 4416 2381 4416 
C 1286 4416 294 3456 294 2148 
C 294 826 1286 -128 2387 -128 
C 3366 -128 3974 730 3974 1461 
C 3974 1524 3974 1550 3917 1550 
C 3866 1550 3866 1531 3859 1474 
C 3808 585 3168 38 2477 38 
C 1824 38 781 495 781 2147 
C 781 3805 1843 4250 2464 4250 
C 3187 4250 3712 3628 3834 2745 
C 3846 2668 3846 2655 3904 2655 
C 3974 2655 3974 2668 3974 2783 
L 3974 4289 
z
" transform="scale(0.015625)"/>
      <path id="CMR17-41" d="M 2323 4378 
C 2291 4461 2278 4480 2214 4480 
C 2150 4480 2138 4461 2106 4378 
L 749 566 
C 627 223 371 153 147 153 
L 147 -13 
C 262 0 518 0 640 0 
C 800 0 1056 0 1210 -13 
L 1210 153 
C 909 153 864 361 864 439 
C 864 497 877 530 890 569 
L 1229 1536 
L 2906 1536 
L 3290 442 
C 3322 365 3322 352 3322 327 
C 3322 153 3046 153 2925 153 
L 2925 0 
C 3110 0 3443 0 3642 0 
C 3808 0 4128 0 4282 -13 
L 4282 153 
C 3942 153 3827 153 3744 387 
L 2323 4378 
z
M 2067 3893 
L 2848 1702 
L 1286 1702 
L 2067 3893 
z
" transform="scale(0.015625)"/>
     </defs>
     <use xlink:href="#CMR17-50" transform="scale(0.996264)"/>
     <use xlink:href="#CMR17-43" transform="translate(62.586301 0) scale(0.996264)"/>
     <use xlink:href="#CMR17-41" transform="translate(129.096181 0) scale(0.996264)"/>
    </g>
   </g>
  </g>
 </g>
 <defs>
  <clipPath id="pb1870fb2df">
   <rect x="59.482462" y="12.388862" width="334.8" height="138.6"/>
  </clipPath>
 </defs>
</svg>
