<?xml version="1.0" encoding="utf-8" standalone="no"?>
<!DOCTYPE svg PUBLIC "-//W3C//DTD SVG 1.1//EN"
  "http://www.w3.org/Graphics/SVG/1.1/DTD/svg11.dtd">
<svg xmlns:xlink="http://www.w3.org/1999/xlink" width="387.082462pt" height="181.355801pt" viewBox="0 0 387.082462 181.355801" xmlns="http://www.w3.org/2000/svg" version="1.1">
 <metadata>
  <rdf:RDF xmlns:dc="http://purl.org/dc/elements/1.1/" xmlns:cc="http://creativecommons.org/ns#" xmlns:rdf="http://www.w3.org/1999/02/22-rdf-syntax-ns#">
   <cc:Work>
    <dc:type rdf:resource="http://purl.org/dc/dcmitype/StillImage"/>
    <dc:date>2024-10-11T08:48:15.250459</dc:date>
    <dc:format>image/svg+xml</dc:format>
    <dc:creator>
     <cc:Agent>
      <dc:title>Matplotlib v3.9.2, https://matplotlib.org/</dc:title>
     </cc:Agent>
    </dc:creator>
   </cc:Work>
  </rdf:RDF>
 </metadata>
 <defs>
  <style type="text/css">*{stroke-linejoin: round; stroke-linecap: butt}</style>
 </defs>
 <g id="figure_1">
  <g id="patch_1">
   <path d="M 0 181.355801 
L 387.082462 181.355801 
L 387.082462 0 
L 0 0 
z
" style="fill: #ffffff"/>
  </g>
  <g id="axes_1">
   <g id="patch_2">
    <path d="M 52.282462 143.788862 
L 387.082462 143.788862 
L 387.082462 5.188862 
L 52.282462 5.188862 
z
" style="fill: #eaeaf2"/>
   </g>
   <g id="matplotlib.axis_1">
    <g id="xtick_1">
     <g id="line2d_1">
      <path d="M 67.500644 143.788862 
L 67.500644 5.188862 
" clip-path="url(#p8fbd13f2ae)" style="fill: none; stroke: #ffffff; stroke-linecap: round"/>
     </g>
     <g id="line2d_2"/>
     <g id="text_1">
      <!-- $\mathdefault{0.0}$ -->
      <g style="fill: #262626" transform="translate(58.152118 161.166587) scale(0.15 -0.15)">
       <defs>
        <path id="CMR17-30" d="M 2688 2025 
C 2688 2416 2682 3080 2413 3591 
C 2176 4039 1798 4198 1466 4198 
C 1158 4198 768 4058 525 3597 
C 269 3118 243 2524 243 2025 
C 243 1661 250 1106 448 619 
C 723 -39 1216 -128 1466 -128 
C 1760 -128 2208 -7 2470 600 
C 2662 1042 2688 1559 2688 2025 
z
M 1466 -26 
C 1056 -26 813 325 723 812 
C 653 1188 653 1738 653 2096 
C 653 2588 653 2997 736 3387 
C 858 3929 1216 4096 1466 4096 
C 1728 4096 2067 3923 2189 3400 
C 2272 3036 2278 2607 2278 2096 
C 2278 1680 2278 1169 2202 792 
C 2067 95 1690 -26 1466 -26 
z
" transform="scale(0.015625)"/>
        <path id="CMMI12-3a" d="M 1178 307 
C 1178 492 1024 619 870 619 
C 685 619 557 466 557 313 
C 557 128 710 0 864 0 
C 1050 0 1178 153 1178 307 
z
" transform="scale(0.015625)"/>
       </defs>
       <use xlink:href="#CMR17-30" transform="scale(0.996264)"/>
       <use xlink:href="#CMMI12-3a" transform="translate(45.690477 0) scale(0.996264)"/>
       <use xlink:href="#CMR17-30" transform="translate(72.787654 0) scale(0.996264)"/>
      </g>
     </g>
    </g>
    <g id="xtick_2">
     <g id="line2d_3">
      <path d="M 128.373371 143.788862 
L 128.373371 5.188862 
" clip-path="url(#p8fbd13f2ae)" style="fill: none; stroke: #ffffff; stroke-linecap: round"/>
     </g>
     <g id="line2d_4"/>
     <g id="text_2">
      <!-- $\mathdefault{0.2}$ -->
      <g style="fill: #262626" transform="translate(119.024845 161.166587) scale(0.15 -0.15)">
       <defs>
        <path id="CMR17-32" d="M 2669 989 
L 2554 989 
C 2490 536 2438 459 2413 420 
C 2381 369 1920 369 1830 369 
L 602 369 
C 832 619 1280 1072 1824 1597 
C 2214 1967 2669 2402 2669 3035 
C 2669 3790 2067 4224 1395 4224 
C 691 4224 262 3604 262 3030 
C 262 2780 448 2748 525 2748 
C 589 2748 781 2787 781 3010 
C 781 3207 614 3264 525 3264 
C 486 3264 448 3258 422 3245 
C 544 3790 915 4058 1306 4058 
C 1862 4058 2227 3617 2227 3035 
C 2227 2479 1901 2000 1536 1584 
L 262 146 
L 262 0 
L 2515 0 
L 2669 989 
z
" transform="scale(0.015625)"/>
       </defs>
       <use xlink:href="#CMR17-30" transform="scale(0.996264)"/>
       <use xlink:href="#CMMI12-3a" transform="translate(45.690477 0) scale(0.996264)"/>
       <use xlink:href="#CMR17-32" transform="translate(72.787654 0) scale(0.996264)"/>
      </g>
     </g>
    </g>
    <g id="xtick_3">
     <g id="line2d_5">
      <path d="M 189.246098 143.788862 
L 189.246098 5.188862 
" clip-path="url(#p8fbd13f2ae)" style="fill: none; stroke: #ffffff; stroke-linecap: round"/>
     </g>
     <g id="line2d_6"/>
     <g id="text_3">
      <!-- $\mathdefault{0.4}$ -->
      <g style="fill: #262626" transform="translate(179.897572 161.166587) scale(0.15 -0.15)">
       <defs>
        <path id="CMR17-34" d="M 2150 4122 
C 2150 4256 2144 4256 2029 4256 
L 128 1254 
L 128 1088 
L 1779 1088 
L 1779 457 
C 1779 224 1766 160 1318 160 
L 1197 160 
L 1197 0 
C 1402 0 1747 0 1965 0 
C 2182 0 2528 0 2733 0 
L 2733 160 
L 2611 160 
C 2163 160 2150 224 2150 457 
L 2150 1088 
L 2803 1088 
L 2803 1254 
L 2150 1254 
L 2150 4122 
z
M 1798 3703 
L 1798 1254 
L 256 1254 
L 1798 3703 
z
" transform="scale(0.015625)"/>
       </defs>
       <use xlink:href="#CMR17-30" transform="scale(0.996264)"/>
       <use xlink:href="#CMMI12-3a" transform="translate(45.690477 0) scale(0.996264)"/>
       <use xlink:href="#CMR17-34" transform="translate(72.787654 0) scale(0.996264)"/>
      </g>
     </g>
    </g>
    <g id="xtick_4">
     <g id="line2d_7">
      <path d="M 250.118826 143.788862 
L 250.118826 5.188862 
" clip-path="url(#p8fbd13f2ae)" style="fill: none; stroke: #ffffff; stroke-linecap: round"/>
     </g>
     <g id="line2d_8"/>
     <g id="text_4">
      <!-- $\mathdefault{0.6}$ -->
      <g style="fill: #262626" transform="translate(240.770299 161.166587) scale(0.15 -0.15)">
       <defs>
        <path id="CMR17-36" d="M 678 2176 
C 678 3690 1395 4032 1811 4032 
C 1946 4032 2272 4009 2400 3776 
C 2298 3776 2106 3776 2106 3553 
C 2106 3381 2246 3323 2336 3323 
C 2394 3323 2566 3348 2566 3560 
C 2566 3954 2246 4179 1805 4179 
C 1043 4179 243 3390 243 1984 
C 243 253 966 -128 1478 -128 
C 2099 -128 2688 427 2688 1283 
C 2688 2081 2170 2662 1517 2662 
C 1126 2662 838 2407 678 1960 
L 678 2176 
z
M 1478 25 
C 691 25 691 1200 691 1436 
C 691 1896 909 2560 1504 2560 
C 1613 2560 1926 2560 2138 2120 
C 2253 1870 2253 1609 2253 1289 
C 2253 944 2253 690 2118 434 
C 1978 171 1773 25 1478 25 
z
" transform="scale(0.015625)"/>
       </defs>
       <use xlink:href="#CMR17-30" transform="scale(0.996264)"/>
       <use xlink:href="#CMMI12-3a" transform="translate(45.690477 0) scale(0.996264)"/>
       <use xlink:href="#CMR17-36" transform="translate(72.787654 0) scale(0.996264)"/>
      </g>
     </g>
    </g>
    <g id="xtick_5">
     <g id="line2d_9">
      <path d="M 310.991553 143.788862 
L 310.991553 5.188862 
" clip-path="url(#p8fbd13f2ae)" style="fill: none; stroke: #ffffff; stroke-linecap: round"/>
     </g>
     <g id="line2d_10"/>
     <g id="text_5">
      <!-- $\mathdefault{0.8}$ -->
      <g style="fill: #262626" transform="translate(301.643027 161.166587) scale(0.15 -0.15)">
       <defs>
        <path id="CMR17-38" d="M 1741 2264 
C 2144 2467 2554 2773 2554 3263 
C 2554 3841 1990 4179 1472 4179 
C 890 4179 378 3759 378 3180 
C 378 3021 416 2747 666 2505 
C 730 2442 998 2251 1171 2130 
C 883 1983 211 1634 211 934 
C 211 279 838 -128 1459 -128 
C 2144 -128 2720 362 2720 1010 
C 2720 1590 2330 1857 2074 2029 
L 1741 2264 
z
M 902 2822 
C 851 2854 595 3051 595 3351 
C 595 3739 998 4032 1459 4032 
C 1965 4032 2336 3676 2336 3262 
C 2336 2669 1670 2331 1638 2331 
C 1632 2331 1626 2331 1574 2370 
L 902 2822 
z
M 2080 1519 
C 2176 1449 2483 1240 2483 851 
C 2483 381 2010 25 1472 25 
C 890 25 448 438 448 940 
C 448 1443 838 1862 1280 2060 
L 2080 1519 
z
" transform="scale(0.015625)"/>
       </defs>
       <use xlink:href="#CMR17-30" transform="scale(0.996264)"/>
       <use xlink:href="#CMMI12-3a" transform="translate(45.690477 0) scale(0.996264)"/>
       <use xlink:href="#CMR17-38" transform="translate(72.787654 0) scale(0.996264)"/>
      </g>
     </g>
    </g>
    <g id="xtick_6">
     <g id="line2d_11">
      <path d="M 371.86428 143.788862 
L 371.86428 5.188862 
" clip-path="url(#p8fbd13f2ae)" style="fill: none; stroke: #ffffff; stroke-linecap: round"/>
     </g>
     <g id="line2d_12"/>
     <g id="text_6">
      <!-- $\mathdefault{1.0}$ -->
      <g style="fill: #262626" transform="translate(362.515754 161.166587) scale(0.15 -0.15)">
       <defs>
        <path id="CMR17-31" d="M 1702 4058 
C 1702 4192 1696 4192 1606 4192 
C 1357 3916 979 3827 621 3827 
C 602 3827 570 3827 563 3808 
C 557 3795 557 3782 557 3648 
C 755 3648 1088 3686 1344 3839 
L 1344 461 
C 1344 236 1331 160 781 160 
L 589 160 
L 589 0 
C 896 0 1216 0 1523 0 
C 1830 0 2150 0 2458 0 
L 2458 160 
L 2266 160 
C 1715 160 1702 230 1702 458 
L 1702 4058 
z
" transform="scale(0.015625)"/>
       </defs>
       <use xlink:href="#CMR17-31" transform="scale(0.996264)"/>
       <use xlink:href="#CMMI12-3a" transform="translate(45.690477 0) scale(0.996264)"/>
       <use xlink:href="#CMR17-30" transform="translate(72.787654 0) scale(0.996264)"/>
      </g>
     </g>
    </g>
    <g id="text_7">
     <!-- $s_1$ -->
     <g style="fill: #262626" transform="translate(213.621025 178.450057) scale(0.15 -0.15)">
      <defs>
       <path id="CMMI12-73" d="M 1459 1280 
C 1568 1261 1741 1223 1779 1216 
C 1862 1192 2150 1090 2150 783 
C 2150 586 1971 70 1229 70 
C 1094 70 614 70 486 436 
C 742 404 870 603 870 745 
C 870 880 781 950 653 950 
C 512 950 326 841 326 552 
C 326 173 710 -64 1222 -64 
C 2195 -64 2483 651 2483 984 
C 2483 1079 2483 1258 2278 1462 
C 2118 1616 1965 1648 1619 1718 
C 1446 1756 1171 1814 1171 2101 
C 1171 2229 1286 2689 1894 2689 
C 2163 2689 2426 2589 2490 2368 
C 2208 2368 2195 2125 2195 2119 
C 2195 1984 2317 1946 2374 1946 
C 2464 1946 2643 2015 2643 2281 
C 2643 2545 2400 2816 1901 2816 
C 1062 2816 838 2160 838 1899 
C 838 1414 1312 1312 1459 1280 
z
" transform="scale(0.015625)"/>
      </defs>
      <use xlink:href="#CMMI12-73" transform="scale(0.996264)"/>
      <use xlink:href="#CMR17-31" transform="translate(45.950048 -14.943915) scale(0.697382)"/>
     </g>
    </g>
   </g>
   <g id="matplotlib.axis_2">
    <g id="ytick_1">
     <g id="line2d_13">
      <path d="M 52.282462 143.788862 
L 387.082462 143.788862 
" clip-path="url(#p8fbd13f2ae)" style="fill: none; stroke: #ffffff; stroke-linecap: round"/>
     </g>
     <g id="line2d_14"/>
     <g id="text_8">
      <!-- $\mathdefault{10^{-2}}$ -->
      <g style="fill: #262626" transform="translate(17.283469 148.977725) scale(0.15 -0.15)">
       <defs>
        <path id="CMSY10-0" d="M 4218 1472 
C 4326 1472 4442 1472 4442 1600 
C 4442 1728 4326 1728 4218 1728 
L 755 1728 
C 646 1728 531 1728 531 1600 
C 531 1472 646 1472 755 1472 
L 4218 1472 
z
" transform="scale(0.015625)"/>
       </defs>
       <use xlink:href="#CMR17-31" transform="scale(0.996264)"/>
       <use xlink:href="#CMR17-30" transform="translate(45.690477 0) scale(0.996264)"/>
       <use xlink:href="#CMSY10-0" transform="translate(91.380954 36.153639) scale(0.697382)"/>
       <use xlink:href="#CMR17-32" transform="translate(145.621947 36.153639) scale(0.697382)"/>
      </g>
     </g>
    </g>
    <g id="ytick_2">
     <g id="line2d_15">
      <path d="M 52.282462 109.138862 
L 387.082462 109.138862 
" clip-path="url(#p8fbd13f2ae)" style="fill: none; stroke: #ffffff; stroke-linecap: round"/>
     </g>
     <g id="line2d_16"/>
     <g id="text_9">
      <!-- $\mathdefault{10^{-1}}$ -->
      <g style="fill: #262626" transform="translate(17.283469 114.327725) scale(0.15 -0.15)">
       <use xlink:href="#CMR17-31" transform="scale(0.996264)"/>
       <use xlink:href="#CMR17-30" transform="translate(45.690477 0) scale(0.996264)"/>
       <use xlink:href="#CMSY10-0" transform="translate(91.380954 36.153639) scale(0.697382)"/>
       <use xlink:href="#CMR17-31" transform="translate(145.621947 36.153639) scale(0.697382)"/>
      </g>
     </g>
    </g>
    <g id="ytick_3">
     <g id="line2d_17">
      <path d="M 52.282462 74.488862 
L 387.082462 74.488862 
" clip-path="url(#p8fbd13f2ae)" style="fill: none; stroke: #ffffff; stroke-linecap: round"/>
     </g>
     <g id="line2d_18"/>
     <g id="text_10">
      <!-- $\mathdefault{10^{0}}$ -->
      <g style="fill: #262626" transform="translate(25.419615 79.677725) scale(0.15 -0.15)">
       <use xlink:href="#CMR17-31" transform="scale(0.996264)"/>
       <use xlink:href="#CMR17-30" transform="translate(45.690477 0) scale(0.996264)"/>
       <use xlink:href="#CMR17-30" transform="translate(91.380954 36.153639) scale(0.697382)"/>
      </g>
     </g>
    </g>
    <g id="ytick_4">
     <g id="line2d_19">
      <path d="M 52.282462 39.838862 
L 387.082462 39.838862 
" clip-path="url(#p8fbd13f2ae)" style="fill: none; stroke: #ffffff; stroke-linecap: round"/>
     </g>
     <g id="line2d_20"/>
     <g id="text_11">
      <!-- $\mathdefault{10^{1}}$ -->
      <g style="fill: #262626" transform="translate(25.419615 45.027725) scale(0.15 -0.15)">
       <use xlink:href="#CMR17-31" transform="scale(0.996264)"/>
       <use xlink:href="#CMR17-30" transform="translate(45.690477 0) scale(0.996264)"/>
       <use xlink:href="#CMR17-31" transform="translate(91.380954 36.153639) scale(0.697382)"/>
      </g>
     </g>
    </g>
    <g id="ytick_5">
     <g id="line2d_21">
      <path d="M 52.282462 5.188862 
L 387.082462 5.188862 
" clip-path="url(#p8fbd13f2ae)" style="fill: none; stroke: #ffffff; stroke-linecap: round"/>
     </g>
     <g id="line2d_22"/>
     <g id="text_12">
      <!-- $\mathdefault{10^{2}}$ -->
      <g style="fill: #262626" transform="translate(25.419615 10.377725) scale(0.15 -0.15)">
       <use xlink:href="#CMR17-31" transform="scale(0.996264)"/>
       <use xlink:href="#CMR17-30" transform="translate(45.690477 0) scale(0.996264)"/>
       <use xlink:href="#CMR17-32" transform="translate(91.380954 36.153639) scale(0.697382)"/>
      </g>
     </g>
    </g>
    <g id="ytick_6">
     <g id="line2d_23"/>
    </g>
    <g id="ytick_7">
     <g id="line2d_24"/>
    </g>
    <g id="ytick_8">
     <g id="line2d_25"/>
    </g>
    <g id="ytick_9">
     <g id="line2d_26"/>
    </g>
    <g id="ytick_10">
     <g id="line2d_27"/>
    </g>
    <g id="ytick_11">
     <g id="line2d_28"/>
    </g>
    <g id="ytick_12">
     <g id="line2d_29"/>
    </g>
    <g id="ytick_13">
     <g id="line2d_30"/>
    </g>
    <g id="ytick_14">
     <g id="line2d_31"/>
    </g>
    <g id="ytick_15">
     <g id="line2d_32"/>
    </g>
    <g id="ytick_16">
     <g id="line2d_33"/>
    </g>
    <g id="ytick_17">
     <g id="line2d_34"/>
    </g>
    <g id="ytick_18">
     <g id="line2d_35"/>
    </g>
    <g id="ytick_19">
     <g id="line2d_36"/>
    </g>
    <g id="ytick_20">
     <g id="line2d_37"/>
    </g>
    <g id="ytick_21">
     <g id="line2d_38"/>
    </g>
    <g id="ytick_22">
     <g id="line2d_39"/>
    </g>
    <g id="ytick_23">
     <g id="line2d_40"/>
    </g>
    <g id="ytick_24">
     <g id="line2d_41"/>
    </g>
    <g id="ytick_25">
     <g id="line2d_42"/>
    </g>
    <g id="ytick_26">
     <g id="line2d_43"/>
    </g>
    <g id="ytick_27">
     <g id="line2d_44"/>
    </g>
    <g id="ytick_28">
     <g id="line2d_45"/>
    </g>
    <g id="ytick_29">
     <g id="line2d_46"/>
    </g>
    <g id="ytick_30">
     <g id="line2d_47"/>
    </g>
    <g id="ytick_31">
     <g id="line2d_48"/>
    </g>
    <g id="ytick_32">
     <g id="line2d_49"/>
    </g>
    <g id="ytick_33">
     <g id="line2d_50"/>
    </g>
    <g id="ytick_34">
     <g id="line2d_51"/>
    </g>
    <g id="ytick_35">
     <g id="line2d_52"/>
    </g>
    <g id="ytick_36">
     <g id="line2d_53"/>
    </g>
    <g id="ytick_37">
     <g id="line2d_54"/>
    </g>
    <g id="text_13">
     <!-- Density -->
     <g style="fill: #262626" transform="translate(10.377725 98.814048) rotate(-90) scale(0.15 -0.15)">
      <defs>
       <path id="CMR17-44" d="M 333 4352 
L 333 4186 
C 774 4186 845 4186 845 3900 
L 845 452 
C 845 166 774 166 333 166 
L 333 0 
L 2368 0 
C 3398 0 4224 943 4224 2141 
C 4224 3346 3411 4352 2368 4352 
L 333 4352 
z
M 1523 166 
C 1267 166 1254 197 1254 414 
L 1254 3938 
C 1254 4155 1267 4186 1523 4186 
L 2240 4186 
C 2771 4186 3750 3874 3750 2141 
C 3750 1242 3488 879 3366 707 
C 3213 510 2848 166 2240 166 
L 1523 166 
z
" transform="scale(0.015625)"/>
       <path id="CMR17-65" d="M 2438 1472 
C 2464 1498 2464 1511 2464 1576 
C 2464 2238 2118 2816 1389 2816 
C 710 2816 173 2169 173 1383 
C 173 551 781 -64 1459 -64 
C 2176 -64 2458 607 2458 740 
C 2458 784 2419 784 2406 784 
C 2362 784 2355 771 2330 696 
C 2189 265 1837 51 1504 51 
C 1229 51 954 203 781 480 
C 582 803 582 1176 582 1472 
L 2438 1472 
z
M 589 1568 
C 634 2505 1126 2714 1382 2714 
C 1818 2714 2112 2297 2118 1568 
L 589 1568 
z
" transform="scale(0.015625)"/>
       <path id="CMR17-6e" d="M 2656 1933 
C 2656 2259 2592 2790 1837 2790 
C 1331 2790 1069 2400 973 2144 
L 966 2144 
L 966 2790 
L 211 2720 
L 211 2554 
C 589 2554 646 2515 646 2208 
L 646 428 
C 646 184 621 153 211 153 
L 211 -13 
C 365 0 646 0 813 0 
C 979 0 1267 0 1421 -13 
L 1421 153 
C 1011 153 986 178 986 428 
L 986 1658 
C 986 2247 1344 2688 1792 2688 
C 2266 2688 2317 2266 2317 1958 
L 2317 428 
C 2317 184 2291 153 1882 153 
L 1882 -13 
C 2035 0 2317 0 2483 0 
C 2650 0 2938 0 3091 -13 
L 3091 153 
C 2682 153 2656 178 2656 428 
L 2656 1933 
z
" transform="scale(0.015625)"/>
       <path id="CMR17-73" d="M 1978 2697 
C 1978 2813 1971 2819 1933 2819 
C 1907 2819 1901 2813 1824 2717 
C 1805 2691 1747 2626 1728 2601 
C 1523 2819 1235 2819 1126 2819 
C 416 2819 160 2447 160 2076 
C 160 1498 813 1365 998 1325 
C 1402 1243 1542 1217 1677 1101 
C 1760 1025 1901 884 1901 654 
C 1901 384 1747 38 1158 38 
C 602 38 403 460 288 1021 
C 269 1110 269 1117 218 1117 
C 166 1117 160 1110 160 983 
L 160 63 
C 160 -51 166 -58 205 -58 
C 237 -58 243 -51 275 0 
C 314 57 410 211 448 276 
C 576 103 800 -64 1158 -64 
C 1792 -64 2131 283 2131 784 
C 2131 1112 1958 1285 1875 1362 
C 1683 1561 1459 1606 1190 1657 
C 838 1735 390 1825 390 2217 
C 390 2383 480 2737 1126 2737 
C 1811 2737 1850 2094 1862 1888 
C 1869 1856 1901 1849 1920 1849 
C 1978 1849 1978 1869 1978 1978 
L 1978 2697 
z
" transform="scale(0.015625)"/>
       <path id="CMR17-69" d="M 992 3909 
C 992 4049 877 4170 730 4170 
C 589 4170 467 4056 467 3909 
C 467 3769 582 3648 730 3648 
C 870 3648 992 3763 992 3909 
z
M 243 2706 
L 243 2541 
C 602 2541 653 2502 653 2197 
L 653 427 
C 653 184 627 153 218 153 
L 218 -13 
C 371 0 646 0 806 0 
C 960 0 1222 0 1370 -13 
L 1370 153 
C 992 153 979 191 979 420 
L 979 2776 
L 243 2706 
z
" transform="scale(0.015625)"/>
       <path id="CMR17-74" d="M 966 2560 
L 1862 2560 
L 1862 2725 
L 966 2725 
L 966 3904 
L 851 3904 
C 838 3245 614 2668 70 2668 
L 70 2560 
L 627 2560 
L 627 771 
C 627 650 627 -64 1370 -64 
C 1747 -64 1965 306 1965 777 
L 1965 1140 
L 1850 1140 
L 1850 783 
C 1850 344 1677 51 1408 51 
C 1222 51 966 178 966 758 
L 966 2560 
z
" transform="scale(0.015625)"/>
       <path id="CMR17-79" d="M 2496 2197 
C 2656 2586 2944 2586 3034 2586 
L 3034 2752 
C 2912 2752 2752 2752 2630 2752 
C 2496 2752 2285 2752 2157 2758 
L 2157 2592 
C 2400 2573 2406 2394 2406 2343 
C 2406 2280 2394 2248 2362 2171 
L 1664 449 
L 902 2306 
C 870 2382 870 2426 870 2433 
C 870 2573 1018 2586 1171 2586 
L 1171 2758 
C 1018 2752 742 2752 582 2752 
C 410 2752 205 2752 64 2758 
L 64 2586 
C 410 2586 448 2554 531 2350 
L 1485 15 
C 1197 -738 1030 -1178 627 -1178 
C 557 -1178 397 -1159 282 -1044 
C 429 -1031 493 -942 493 -833 
C 493 -725 416 -629 288 -629 
C 147 -629 77 -725 77 -840 
C 77 -1095 339 -1280 627 -1280 
C 998 -1280 1229 -922 1357 -604 
L 2496 2197 
z
" transform="scale(0.015625)"/>
      </defs>
      <use xlink:href="#CMR17-44" transform="scale(0.996264)"/>
      <use xlink:href="#CMR17-65" transform="translate(70.393556 0) scale(0.996264)"/>
      <use xlink:href="#CMR17-6e" transform="translate(110.879216 0) scale(0.996264)"/>
      <use xlink:href="#CMR17-73" transform="translate(161.774586 0) scale(0.996264)"/>
      <use xlink:href="#CMR17-69" transform="translate(197.575924 0) scale(0.996264)"/>
      <use xlink:href="#CMR17-74" transform="translate(222.446982 0) scale(0.996264)"/>
      <use xlink:href="#CMR17-79" transform="translate(255.125296 0) scale(0.996264)"/>
     </g>
    </g>
   </g>
   <g id="PolyCollection_1">
    <path d="M 65.631738 198.414355 
L 65.631738 34724.488862 
L 66.249176 34724.488862 
L 66.866614 34724.488862 
L 67.484051 34724.488862 
L 68.101489 34724.488862 
L 68.718927 34724.488862 
L 69.336365 34724.488862 
L 69.953802 34724.488862 
L 70.57124 34724.488862 
L 71.188678 34724.488862 
L 71.806116 34724.488862 
L 72.423554 34724.488862 
L 73.040991 34724.488862 
L 73.658429 34724.488862 
L 74.275867 34724.488862 
L 74.893305 34724.488862 
L 75.510742 34724.488862 
L 76.12818 34724.488862 
L 76.745618 34724.488862 
L 77.363056 34724.488862 
L 77.980493 34724.488862 
L 78.597931 34724.488862 
L 79.215369 34724.488862 
L 79.832807 34724.488862 
L 80.450245 34724.488862 
L 81.067682 34724.488862 
L 81.68512 34724.488862 
L 82.302558 34724.488862 
L 82.919996 34724.488862 
L 83.537433 34724.488862 
L 84.154871 34724.488862 
L 84.772309 34724.488862 
L 85.389747 34724.488862 
L 86.007185 34724.488862 
L 86.624622 34724.488862 
L 87.24206 34724.488862 
L 87.859498 34724.488862 
L 88.476936 34724.488862 
L 89.094373 34724.488862 
L 89.711811 34724.488862 
L 90.329249 34724.488862 
L 90.946687 34724.488862 
L 91.564124 34724.488862 
L 92.181562 34724.488862 
L 92.799 34724.488862 
L 93.416438 34724.488862 
L 94.033876 34724.488862 
L 94.651313 34724.488862 
L 95.268751 34724.488862 
L 95.886189 34724.488862 
L 96.503627 34724.488862 
L 97.121064 34724.488862 
L 97.738502 34724.488862 
L 98.35594 34724.488862 
L 98.973378 34724.488862 
L 99.590815 34724.488862 
L 100.208253 34724.488862 
L 100.825691 34724.488862 
L 101.443129 34724.488862 
L 102.060567 34724.488862 
L 102.678004 34724.488862 
L 103.295442 34724.488862 
L 103.91288 34724.488862 
L 104.530318 34724.488862 
L 105.147755 34724.488862 
L 105.765193 34724.488862 
L 106.382631 34724.488862 
L 107.000069 34724.488862 
L 107.617506 34724.488862 
L 108.234944 34724.488862 
L 108.852382 34724.488862 
L 109.46982 34724.488862 
L 110.087258 34724.488862 
L 110.704695 34724.488862 
L 111.322133 34724.488862 
L 111.939571 34724.488862 
L 112.557009 34724.488862 
L 113.174446 34724.488862 
L 113.791884 34724.488862 
L 114.409322 34724.488862 
L 115.02676 34724.488862 
L 115.644198 34724.488862 
L 116.261635 34724.488862 
L 116.879073 34724.488862 
L 117.496511 34724.488862 
L 118.113949 34724.488862 
L 118.731386 34724.488862 
L 119.348824 34724.488862 
L 119.966262 34724.488862 
L 120.5837 34724.488862 
L 121.201137 34724.488862 
L 121.818575 34724.488862 
L 122.436013 34724.488862 
L 123.053451 34724.488862 
L 123.670889 34724.488862 
L 124.288326 34724.488862 
L 124.905764 34724.488862 
L 125.523202 34724.488862 
L 126.14064 34724.488862 
L 126.758077 34724.488862 
L 127.375515 34724.488862 
L 127.992953 34724.488862 
L 128.610391 34724.488862 
L 129.227828 34724.488862 
L 129.845266 34724.488862 
L 130.462704 34724.488862 
L 131.080142 34724.488862 
L 131.69758 34724.488862 
L 132.315017 34724.488862 
L 132.932455 34724.488862 
L 133.549893 34724.488862 
L 134.167331 34724.488862 
L 134.784768 34724.488862 
L 135.402206 34724.488862 
L 136.019644 34724.488862 
L 136.637082 34724.488862 
L 137.254519 34724.488862 
L 137.871957 34724.488862 
L 138.489395 34724.488862 
L 139.106833 34724.488862 
L 139.724271 34724.488862 
L 140.341708 34724.488862 
L 140.959146 34724.488862 
L 141.576584 34724.488862 
L 142.194022 34724.488862 
L 142.811459 34724.488862 
L 143.428897 34724.488862 
L 144.046335 34724.488862 
L 144.663773 34724.488862 
L 145.281211 34724.488862 
L 145.898648 34724.488862 
L 146.516086 34724.488862 
L 147.133524 34724.488862 
L 147.750962 34724.488862 
L 148.368399 34724.488862 
L 148.985837 34724.488862 
L 149.603275 34724.488862 
L 150.220713 34724.488862 
L 150.83815 34724.488862 
L 151.455588 34724.488862 
L 152.073026 34724.488862 
L 152.690464 34724.488862 
L 153.307902 34724.488862 
L 153.925339 34724.488862 
L 154.542777 34724.488862 
L 155.160215 34724.488862 
L 155.777653 34724.488862 
L 156.39509 34724.488862 
L 157.012528 34724.488862 
L 157.629966 34724.488862 
L 158.247404 34724.488862 
L 158.864841 34724.488862 
L 159.482279 34724.488862 
L 160.099717 34724.488862 
L 160.717155 34724.488862 
L 161.334593 34724.488862 
L 161.95203 34724.488862 
L 162.569468 34724.488862 
L 163.186906 34724.488862 
L 163.804344 34724.488862 
L 164.421781 34724.488862 
L 165.039219 34724.488862 
L 165.656657 34724.488862 
L 166.274095 34724.488862 
L 166.891532 34724.488862 
L 167.50897 34724.488862 
L 168.126408 34724.488862 
L 168.743846 34724.488862 
L 169.361284 34724.488862 
L 169.978721 34724.488862 
L 170.596159 34724.488862 
L 171.213597 34724.488862 
L 171.831035 34724.488862 
L 172.448472 34724.488862 
L 173.06591 34724.488862 
L 173.683348 34724.488862 
L 174.300786 34724.488862 
L 174.918224 34724.488862 
L 175.535661 34724.488862 
L 176.153099 34724.488862 
L 176.770537 34724.488862 
L 177.387975 34724.488862 
L 178.005412 34724.488862 
L 178.62285 34724.488862 
L 179.240288 34724.488862 
L 179.857726 34724.488862 
L 180.475163 34724.488862 
L 181.092601 34724.488862 
L 181.710039 34724.488862 
L 182.327477 34724.488862 
L 182.944915 34724.488862 
L 183.562352 34724.488862 
L 184.17979 34724.488862 
L 184.797228 34724.488862 
L 185.414666 34724.488862 
L 186.032103 34724.488862 
L 186.649541 34724.488862 
L 187.266979 34724.488862 
L 187.884417 34724.488862 
L 188.501854 34724.488862 
L 189.119292 34724.488862 
L 189.73673 34724.488862 
L 190.354168 34724.488862 
L 190.971606 34724.488862 
L 191.589043 34724.488862 
L 192.206481 34724.488862 
L 192.823919 34724.488862 
L 193.441357 34724.488862 
L 194.058794 34724.488862 
L 194.676232 34724.488862 
L 195.29367 34724.488862 
L 195.911108 34724.488862 
L 196.528545 34724.488862 
L 197.145983 34724.488862 
L 197.763421 34724.488862 
L 198.380859 34724.488862 
L 198.998297 34724.488862 
L 199.615734 34724.488862 
L 200.233172 34724.488862 
L 200.85061 34724.488862 
L 201.468048 34724.488862 
L 202.085485 34724.488862 
L 202.702923 34724.488862 
L 203.320361 34724.488862 
L 203.937799 34724.488862 
L 204.555237 34724.488862 
L 205.172674 34724.488862 
L 205.790112 34724.488862 
L 206.40755 34724.488862 
L 207.024988 34724.488862 
L 207.642425 34724.488862 
L 208.259863 34724.488862 
L 208.877301 34724.488862 
L 209.494739 34724.488862 
L 210.112176 34724.488862 
L 210.729614 34724.488862 
L 211.347052 34724.488862 
L 211.96449 34724.488862 
L 212.581928 34724.488862 
L 213.199365 34724.488862 
L 213.816803 34724.488862 
L 214.434241 34724.488862 
L 215.051679 34724.488862 
L 215.669116 34724.488862 
L 216.286554 34724.488862 
L 216.903992 34724.488862 
L 217.52143 34724.488862 
L 218.138867 34724.488862 
L 218.756305 34724.488862 
L 219.373743 34724.488862 
L 219.991181 34724.488862 
L 220.608619 34724.488862 
L 221.226056 34724.488862 
L 221.843494 34724.488862 
L 222.460932 34724.488862 
L 223.07837 34724.488862 
L 223.695807 34724.488862 
L 224.313245 34724.488862 
L 224.930683 34724.488862 
L 225.548121 34724.488862 
L 226.165558 34724.488862 
L 226.782996 34724.488862 
L 227.400434 34724.488862 
L 228.017872 34724.488862 
L 228.63531 34724.488862 
L 229.252747 34724.488862 
L 229.870185 34724.488862 
L 230.487623 34724.488862 
L 231.105061 34724.488862 
L 231.722498 34724.488862 
L 232.339936 34724.488862 
L 232.957374 34724.488862 
L 233.574812 34724.488862 
L 234.192249 34724.488862 
L 234.809687 34724.488862 
L 235.427125 34724.488862 
L 236.044563 34724.488862 
L 236.662001 34724.488862 
L 237.279438 34724.488862 
L 237.896876 34724.488862 
L 238.514314 34724.488862 
L 239.131752 34724.488862 
L 239.749189 34724.488862 
L 240.366627 34724.488862 
L 240.984065 34724.488862 
L 241.601503 34724.488862 
L 242.218941 34724.488862 
L 242.836378 34724.488862 
L 243.453816 34724.488862 
L 244.071254 34724.488862 
L 244.688692 34724.488862 
L 245.306129 34724.488862 
L 245.923567 34724.488862 
L 246.541005 34724.488862 
L 247.158443 34724.488862 
L 247.77588 34724.488862 
L 248.393318 34724.488862 
L 249.010756 34724.488862 
L 249.628194 34724.488862 
L 250.245632 34724.488862 
L 250.863069 34724.488862 
L 251.480507 34724.488862 
L 252.097945 34724.488862 
L 252.715383 34724.488862 
L 253.33282 34724.488862 
L 253.950258 34724.488862 
L 254.567696 34724.488862 
L 255.185134 34724.488862 
L 255.802571 34724.488862 
L 256.420009 34724.488862 
L 257.037447 34724.488862 
L 257.654885 34724.488862 
L 258.272323 34724.488862 
L 258.88976 34724.488862 
L 259.507198 34724.488862 
L 260.124636 34724.488862 
L 260.742074 34724.488862 
L 261.359511 34724.488862 
L 261.976949 34724.488862 
L 262.594387 34724.488862 
L 263.211825 34724.488862 
L 263.829262 34724.488862 
L 264.4467 34724.488862 
L 265.064138 34724.488862 
L 265.681576 34724.488862 
L 266.299014 34724.488862 
L 266.916451 34724.488862 
L 267.533889 34724.488862 
L 268.151327 34724.488862 
L 268.768765 34724.488862 
L 269.386202 34724.488862 
L 270.00364 34724.488862 
L 270.621078 34724.488862 
L 271.238516 34724.488862 
L 271.855954 34724.488862 
L 272.473391 34724.488862 
L 273.090829 34724.488862 
L 273.708267 34724.488862 
L 274.325705 34724.488862 
L 274.943142 34724.488862 
L 275.56058 34724.488862 
L 276.178018 34724.488862 
L 276.795456 34724.488862 
L 277.412893 34724.488862 
L 278.030331 34724.488862 
L 278.647769 34724.488862 
L 279.265207 34724.488862 
L 279.882645 34724.488862 
L 280.500082 34724.488862 
L 281.11752 34724.488862 
L 281.734958 34724.488862 
L 282.352396 34724.488862 
L 282.969833 34724.488862 
L 283.587271 34724.488862 
L 284.204709 34724.488862 
L 284.822147 34724.488862 
L 285.439584 34724.488862 
L 286.057022 34724.488862 
L 286.67446 34724.488862 
L 287.291898 34724.488862 
L 287.909336 34724.488862 
L 288.526773 34724.488862 
L 289.144211 34724.488862 
L 289.761649 34724.488862 
L 290.379087 34724.488862 
L 290.996524 34724.488862 
L 291.613962 34724.488862 
L 292.2314 34724.488862 
L 292.848838 34724.488862 
L 293.466275 34724.488862 
L 294.083713 34724.488862 
L 294.701151 34724.488862 
L 295.318589 34724.488862 
L 295.936027 34724.488862 
L 296.553464 34724.488862 
L 297.170902 34724.488862 
L 297.78834 34724.488862 
L 298.405778 34724.488862 
L 299.023215 34724.488862 
L 299.640653 34724.488862 
L 300.258091 34724.488862 
L 300.875529 34724.488862 
L 301.492967 34724.488862 
L 302.110404 34724.488862 
L 302.727842 34724.488862 
L 303.34528 34724.488862 
L 303.962718 34724.488862 
L 304.580155 34724.488862 
L 305.197593 34724.488862 
L 305.815031 34724.488862 
L 306.432469 34724.488862 
L 307.049906 34724.488862 
L 307.667344 34724.488862 
L 308.284782 34724.488862 
L 308.90222 34724.488862 
L 309.519658 34724.488862 
L 310.137095 34724.488862 
L 310.754533 34724.488862 
L 311.371971 34724.488862 
L 311.989409 34724.488862 
L 312.606846 34724.488862 
L 313.224284 34724.488862 
L 313.841722 34724.488862 
L 314.45916 34724.488862 
L 315.076597 34724.488862 
L 315.694035 34724.488862 
L 316.311473 34724.488862 
L 316.928911 34724.488862 
L 317.546349 34724.488862 
L 318.163786 34724.488862 
L 318.781224 34724.488862 
L 319.398662 34724.488862 
L 320.0161 34724.488862 
L 320.633537 34724.488862 
L 321.250975 34724.488862 
L 321.868413 34724.488862 
L 322.485851 34724.488862 
L 323.103288 34724.488862 
L 323.720726 34724.488862 
L 324.338164 34724.488862 
L 324.955602 34724.488862 
L 325.57304 34724.488862 
L 326.190477 34724.488862 
L 326.807915 34724.488862 
L 327.425353 34724.488862 
L 328.042791 34724.488862 
L 328.660228 34724.488862 
L 329.277666 34724.488862 
L 329.895104 34724.488862 
L 330.512542 34724.488862 
L 331.12998 34724.488862 
L 331.747417 34724.488862 
L 332.364855 34724.488862 
L 332.982293 34724.488862 
L 333.599731 34724.488862 
L 334.217168 34724.488862 
L 334.834606 34724.488862 
L 335.452044 34724.488862 
L 336.069482 34724.488862 
L 336.686919 34724.488862 
L 337.304357 34724.488862 
L 337.921795 34724.488862 
L 338.539233 34724.488862 
L 339.156671 34724.488862 
L 339.774108 34724.488862 
L 340.391546 34724.488862 
L 341.008984 34724.488862 
L 341.626422 34724.488862 
L 342.243859 34724.488862 
L 342.861297 34724.488862 
L 343.478735 34724.488862 
L 344.096173 34724.488862 
L 344.71361 34724.488862 
L 345.331048 34724.488862 
L 345.948486 34724.488862 
L 346.565924 34724.488862 
L 347.183362 34724.488862 
L 347.800799 34724.488862 
L 348.418237 34724.488862 
L 349.035675 34724.488862 
L 349.653113 34724.488862 
L 350.27055 34724.488862 
L 350.887988 34724.488862 
L 351.505426 34724.488862 
L 352.122864 34724.488862 
L 352.740301 34724.488862 
L 353.357739 34724.488862 
L 353.975177 34724.488862 
L 354.592615 34724.488862 
L 355.210053 34724.488862 
L 355.82749 34724.488862 
L 356.444928 34724.488862 
L 357.062366 34724.488862 
L 357.679804 34724.488862 
L 358.297241 34724.488862 
L 358.914679 34724.488862 
L 359.532117 34724.488862 
L 360.149555 34724.488862 
L 360.766993 34724.488862 
L 361.38443 34724.488862 
L 362.001868 34724.488862 
L 362.619306 34724.488862 
L 363.236744 34724.488862 
L 363.854181 34724.488862 
L 364.471619 34724.488862 
L 365.089057 34724.488862 
L 365.706495 34724.488862 
L 366.323932 34724.488862 
L 366.94137 34724.488862 
L 367.558808 34724.488862 
L 368.176246 34724.488862 
L 368.793684 34724.488862 
L 369.411121 34724.488862 
L 370.028559 34724.488862 
L 370.645997 34724.488862 
L 371.263435 34724.488862 
L 371.880872 34724.488862 
L 372.49831 34724.488862 
L 373.115748 34724.488862 
L 373.733186 34724.488862 
L 373.733186 201.820281 
L 373.733186 201.820281 
L 373.115748 164.467315 
L 372.49831 141.896638 
L 371.880872 134.108251 
L 371.263435 141.102154 
L 370.645997 162.878346 
L 370.028559 199.436828 
L 369.411121 250.777599 
L 368.793684 316.900659 
L 368.176246 397.80601 
L 367.558808 493.493649 
L 366.94137 603.963579 
L 366.323932 729.215798 
L 365.706495 869.250306 
L 365.089057 1024.067104 
L 364.471619 1193.666191 
L 363.854181 1378.047568 
L 363.236744 1572.450103 
L 362.619306 1391.859832 
L 362.001868 1206.416711 
L 361.38443 1035.75588 
L 360.766993 879.877339 
L 360.149555 738.781087 
L 359.532117 612.467125 
L 358.914679 500.935452 
L 358.297241 404.186069 
L 357.679804 322.218975 
L 357.062366 255.034171 
L 356.444928 202.631656 
L 355.82749 165.011431 
L 355.210053 142.173495 
L 354.592615 134.117849 
L 353.975177 140.844493 
L 353.357739 162.353426 
L 352.740301 198.644648 
L 352.122864 249.71816 
L 351.505426 315.573962 
L 350.887988 396.212053 
L 350.27055 491.632211 
L 349.653113 541.489984 
L 349.035675 439.373207 
L 348.418237 351.763363 
L 347.800799 278.93581 
L 347.183362 220.890546 
L 346.565924 177.627571 
L 345.948486 149.146886 
L 345.331048 135.448491 
L 344.71361 136.532385 
L 344.096173 152.398568 
L 343.478735 183.047041 
L 342.861297 228.477804 
L 342.243859 288.690856 
L 341.626422 363.686198 
L 341.008984 453.463829 
L 340.391546 558.02375 
L 339.774108 677.36596 
L 339.156671 811.49046 
L 338.539233 960.397249 
L 337.921795 1124.086328 
L 337.304357 1302.557697 
L 336.686919 1495.811355 
L 336.069482 1703.847302 
L 335.452044 1926.66554 
L 334.834606 2164.266066 
L 334.217168 2416.648267 
L 333.599731 2307.814921 
L 332.982293 2061.700877 
L 332.364855 1830.369123 
L 331.747417 1613.819659 
L 331.12998 1412.052484 
L 330.512542 1225.067598 
L 329.895104 1052.865002 
L 329.277666 895.444695 
L 328.660228 752.806677 
L 328.042791 624.950941 
L 327.425353 511.877459 
L 326.807915 413.586096 
L 326.190477 330.076182 
L 325.57304 261.34437 
L 324.955602 207.373726 
L 324.338164 168.077212 
L 323.720726 143.008416 
L 323.103288 130.127967 
L 322.485851 124.054054 
L 321.868413 122.578151 
L 321.250975 129.368861 
L 320.633537 135.193915 
L 320.0161 133.361137 
L 319.398662 136.982579 
L 318.781224 131.866762 
L 318.163786 120.701964 
L 317.546349 113.749548 
L 316.928911 112.819407 
L 316.311473 119.708192 
L 315.694035 132.476342 
L 315.076597 134.389441 
L 314.45916 135.653026 
L 313.841722 150.127679 
L 313.224284 179.177866 
L 312.606846 197.586561 
L 311.989409 163.650636 
L 311.371971 141.488493 
L 310.754533 134.101187 
L 310.137095 141.382262 
L 309.519658 157.242698 
L 308.90222 146.144054 
L 308.284782 134.752402 
L 307.667344 137.747111 
L 307.049906 155.513351 
L 306.432469 186.247271 
L 305.815031 175.93161 
L 305.197593 148.325315 
L 304.580155 135.207143 
L 303.962718 136.724965 
L 303.34528 148.277378 
L 302.727842 142.350528 
L 302.110404 134.175587 
L 301.492967 139.892728 
L 300.875529 160.368537 
L 300.258091 195.613335 
L 299.640653 231.552375 
L 299.023215 190.714748 
L 298.405778 157.178955 
L 297.78834 138.262335 
L 297.170902 132.714158 
L 296.553464 133.419392 
L 295.936027 132.883681 
L 295.318589 140.364289 
L 294.701151 157.737742 
L 294.083713 145.75619 
L 293.466275 126.461101 
L 292.848838 119.342909 
L 292.2314 122.486154 
L 291.613962 125.115039 
L 290.996524 118.293851 
L 290.379087 115.45217 
L 289.761649 116.328617 
L 289.144211 112.284304 
L 288.526773 107.263777 
L 287.909336 107.082641 
L 287.291898 113.140623 
L 286.67446 125.17306 
L 286.057022 126.522998 
L 285.439584 118.842941 
L 284.822147 121.786346 
L 284.204709 137.355463 
L 283.587271 155.056443 
L 282.969833 137.413677 
L 282.352396 124.812034 
L 281.734958 126.50546 
L 281.11752 139.314777 
L 280.500082 138.997974 
L 279.882645 132.031968 
L 279.265207 131.09282 
L 278.647769 130.263719 
L 278.030331 130.496703 
L 277.412893 132.218138 
L 276.795456 142.361189 
L 276.178018 165.408098 
L 275.56058 172.521971 
L 274.943142 147.315479 
L 274.325705 134.841039 
L 273.708267 135.434305 
L 273.090829 134.796936 
L 272.473391 125.276442 
L 271.855954 124.193889 
L 271.238516 128.963178 
L 270.621078 132.940649 
L 270.00364 144.775933 
L 269.386202 170.248555 
L 268.768765 210.360188 
L 268.151327 265.236486 
L 267.533889 334.892868 
L 266.916451 419.331259 
L 266.299014 518.551904 
L 265.681576 632.554835 
L 265.064138 761.340053 
L 264.4467 904.907442 
L 263.829262 921.551224 
L 263.211825 776.362934 
L 262.594387 645.954495 
L 261.976949 530.325175 
L 261.359511 429.469864 
L 260.742074 343.375219 
L 260.124636 272.006445 
L 259.507198 215.273054 
L 258.88976 172.94158 
L 258.272323 144.423866 
L 257.654885 128.347296 
L 257.037447 122.186626 
L 256.420009 123.328443 
L 255.802571 127.250263 
L 255.185134 118.00226 
L 254.567696 106.384155 
L 253.950258 101.780737 
L 253.33282 102.580357 
L 252.715383 104.756183 
L 252.097945 104.564142 
L 251.480507 105.951545 
L 250.863069 107.431242 
L 250.245632 102.900653 
L 249.628194 96.28715 
L 249.010756 90.843511 
L 248.393318 87.272099 
L 247.77588 87.630478 
L 247.158443 90.056482 
L 246.541005 92.643955 
L 245.923567 94.480586 
L 245.306129 92.135792 
L 244.688692 90.084484 
L 244.071254 93.282813 
L 243.453816 97.261678 
L 242.836378 98.391822 
L 242.218941 98.875404 
L 241.601503 100.404749 
L 240.984065 105.069488 
L 240.366627 109.975833 
L 239.749189 110.481265 
L 239.131752 110.096097 
L 238.514314 115.064519 
L 237.896876 120.02582 
L 237.279438 124.152702 
L 236.662001 138.00939 
L 236.044563 157.237569 
L 235.427125 144.391202 
L 234.809687 134.050495 
L 234.192249 135.079166 
L 233.574812 133.853833 
L 232.957374 128.362738 
L 232.339936 128.39435 
L 231.722498 136.523415 
L 231.105061 155.927527 
L 230.487623 165.835288 
L 229.870185 140.31063 
L 229.252747 125.784495 
L 228.63531 125.40575 
L 228.017872 135.273319 
L 227.400434 131.752486 
L 226.782996 122.254907 
L 226.165558 121.349162 
L 225.548121 128.989096 
L 224.930683 136.700691 
L 224.313245 129.946125 
L 223.695807 123.135387 
L 223.07837 118.515128 
L 222.460932 112.084332 
L 221.843494 105.412584 
L 221.226056 104.250313 
L 220.608619 104.290484 
L 219.991181 101.916425 
L 219.373743 98.741725 
L 218.756305 97.550594 
L 218.138867 98.067911 
L 217.52143 97.786841 
L 216.903992 93.919539 
L 216.286554 88.398405 
L 215.669116 84.055548 
L 215.051679 81.087397 
L 214.434241 80.266889 
L 213.816803 81.706516 
L 213.199365 81.998421 
L 212.581928 81.220091 
L 211.96449 81.258664 
L 211.347052 81.052982 
L 210.729614 80.138395 
L 210.112176 79.07755 
L 209.494739 77.820416 
L 208.877301 76.884676 
L 208.259863 77.121812 
L 207.642425 78.876064 
L 207.024988 82.720952 
L 206.40755 86.436856 
L 205.790112 87.515858 
L 205.172674 86.562432 
L 204.555237 85.525488 
L 203.937799 86.362882 
L 203.320361 89.455963 
L 202.702923 93.256778 
L 202.085485 94.044312 
L 201.468048 94.773644 
L 200.85061 98.207999 
L 200.233172 104.381269 
L 199.615734 109.107062 
L 198.998297 115.440881 
L 198.380859 129.306722 
L 197.763421 129.224078 
L 197.145983 116.96551 
L 196.528545 109.167101 
L 195.911108 108.997536 
L 195.29367 113.935747 
L 194.676232 116.251812 
L 194.058794 119.900635 
L 193.441357 126.097209 
L 192.823919 132.643243 
L 192.206481 134.638893 
L 191.589043 130.916843 
L 190.971606 128.816104 
L 190.354168 125.117295 
L 189.73673 121.802658 
L 189.119292 115.860235 
L 188.501854 110.685274 
L 187.884417 109.490844 
L 187.266979 107.729004 
L 186.649541 103.888823 
L 186.032103 98.846047 
L 185.414666 92.612229 
L 184.797228 88.608442 
L 184.17979 87.658414 
L 183.562352 85.813858 
L 182.944915 81.808362 
L 182.327477 77.791942 
L 181.710039 74.540369 
L 181.092601 71.568783 
L 180.475163 68.857469 
L 179.857726 66.794498 
L 179.240288 64.215255 
L 178.62285 60.989394 
L 178.005412 58.727956 
L 177.387975 58.173149 
L 176.770537 58.194293 
L 176.153099 58.305953 
L 175.535661 58.897865 
L 174.918224 59.27843 
L 174.300786 60.956373 
L 173.683348 64.009443 
L 173.06591 65.209409 
L 172.448472 65.596105 
L 171.831035 66.387837 
L 171.213597 68.610507 
L 170.596159 74.350806 
L 169.978721 82.390855 
L 169.361284 88.438358 
L 168.743846 91.36725 
L 168.126408 95.65898 
L 167.50897 100.620169 
L 166.891532 104.37403 
L 166.274095 107.675435 
L 165.656657 107.369795 
L 165.039219 107.533646 
L 164.421781 108.612887 
L 163.804344 108.333058 
L 163.186906 108.112021 
L 162.569468 109.966028 
L 161.95203 113.905186 
L 161.334593 114.411013 
L 160.717155 111.830863 
L 160.099717 107.50584 
L 159.482279 100.77139 
L 158.864841 94.222594 
L 158.247404 90.584476 
L 157.629966 87.939874 
L 157.012528 84.520286 
L 156.39509 79.447603 
L 155.777653 73.88818 
L 155.160215 70.750025 
L 154.542777 69.52839 
L 153.925339 66.176582 
L 153.307902 61.132093 
L 152.690464 57.028618 
L 152.073026 54.421688 
L 151.455588 53.25776 
L 150.83815 52.252519 
L 150.220713 50.562267 
L 149.603275 49.127678 
L 148.985837 48.589014 
L 148.368399 48.65888 
L 147.750962 49.436772 
L 147.133524 50.905456 
L 146.516086 52.326649 
L 145.898648 53.340726 
L 145.281211 54.402559 
L 144.663773 55.660521 
L 144.046335 57.730281 
L 143.428897 61.054877 
L 142.811459 64.893467 
L 142.194022 67.568709 
L 141.576584 69.583967 
L 140.959146 72.291745 
L 140.341708 77.124293 
L 139.724271 83.620564 
L 139.106833 90.213523 
L 138.489395 97.580723 
L 137.871957 101.454703 
L 137.254519 101.473361 
L 136.637082 102.614725 
L 136.019644 107.389533 
L 135.402206 115.89165 
L 134.784768 124.842735 
L 134.167331 126.208306 
L 133.549893 116.606367 
L 132.932455 110.989295 
L 132.315017 111.431885 
L 131.69758 111.610713 
L 131.080142 109.308132 
L 130.462704 105.160591 
L 129.845266 98.221476 
L 129.227828 91.371482 
L 128.610391 87.404719 
L 127.992953 83.80624 
L 127.375515 79.013726 
L 126.758077 74.7197 
L 126.14064 70.46799 
L 125.523202 66.10766 
L 124.905764 62.174462 
L 124.288326 57.865376 
L 123.670889 53.595307 
L 123.053451 50.349493 
L 122.436013 48.219947 
L 121.818575 46.60495 
L 121.201137 44.816752 
L 120.5837 42.88222 
L 119.966262 40.700553 
L 119.348824 39.412117 
L 118.731386 39.848801 
L 118.113949 41.502514 
L 117.496511 43.181373 
L 116.879073 44.571898 
L 116.261635 46.425168 
L 115.644198 48.818093 
L 115.02676 51.82464 
L 114.409322 55.238189 
L 113.791884 58.66512 
L 113.174446 61.681017 
L 112.557009 65.32332 
L 111.939571 70.484613 
L 111.322133 75.312322 
L 110.704695 80.535884 
L 110.087258 88.438132 
L 109.46982 97.061666 
L 108.852382 103.022843 
L 108.234944 108.991332 
L 107.617506 116.722252 
L 107.000069 116.1285 
L 106.382631 111.824615 
L 105.765193 109.311198 
L 105.147755 110.726882 
L 104.530318 112.265775 
L 103.91288 109.321158 
L 103.295442 105.95261 
L 102.678004 104.975745 
L 102.060567 104.438883 
L 101.443129 101.46901 
L 100.825691 95.559953 
L 100.208253 87.941544 
L 99.590815 81.124766 
L 98.973378 75.141562 
L 98.35594 68.313345 
L 97.738502 61.443456 
L 97.121064 55.567707 
L 96.503627 49.412535 
L 95.886189 43.648359 
L 95.268751 39.573284 
L 94.651313 36.676155 
L 94.033876 34.865287 
L 93.416438 34.318153 
L 92.799 34.997686 
L 92.181562 36.836718 
L 91.564124 39.991523 
L 90.946687 44.245408 
L 90.329249 49.262357 
L 89.711811 55.331478 
L 89.094373 62.980438 
L 88.476936 71.2063 
L 87.859498 78.768493 
L 87.24206 85.655656 
L 86.624622 90.837187 
L 86.007185 94.561085 
L 85.389747 100.66295 
L 84.772309 107.376422 
L 84.154871 108.81596 
L 83.537433 108.679372 
L 82.919996 113.297277 
L 82.302558 118.342405 
L 81.68512 114.29171 
L 81.067682 105.648487 
L 80.450245 97.340563 
L 79.832807 90.476867 
L 79.215369 83.209499 
L 78.597931 74.551402 
L 77.980493 66.455901 
L 77.363056 59.667212 
L 76.745618 54.532802 
L 76.12818 50.340867 
L 75.510742 47.244982 
L 74.893305 45.271351 
L 74.275867 44.037148 
L 73.658429 44.014441 
L 73.040991 45.796132 
L 72.423554 48.94181 
L 71.806116 52.297623 
L 71.188678 56.868227 
L 70.57124 64.472104 
L 69.953802 73.835021 
L 69.336365 83.170746 
L 68.718927 92.573649 
L 68.101489 101.143221 
L 67.484051 111.377122 
L 66.866614 129.243904 
L 66.249176 157.770626 
L 65.631738 198.414355 
z
" clip-path="url(#p8fbd13f2ae)" style="fill: #4c72b0; fill-opacity: 0.25; stroke: #4c72b0; stroke-width: 0.3"/>
   </g>
   <g id="line2d_55">
    <path d="M 67.500644 115.274959 
L 68.720538 91.681718 
L 69.940432 72.803686 
L 71.160327 58.640865 
L 71.770274 53.327658 
L 72.380221 49.193253 
L 72.990168 46.237651 
L 73.600115 44.460852 
L 74.210063 43.862855 
L 74.82001 44.443661 
L 75.429957 46.203269 
L 76.039904 49.14168 
L 76.649851 53.258893 
L 77.259798 58.554908 
L 78.479693 72.683347 
L 79.699587 91.526996 
L 80.919481 115.085855 
L 82.139376 143.359924 
L 83.55988 182.355801 
L 83.55988 182.355801 
" clip-path="url(#p8fbd13f2ae)" style="fill: none; stroke: #4c72b0; stroke-linecap: round"/>
   </g>
   <g id="line2d_56">
    <path d="M 82.819251 182.355801 
L 84.579164 137.728484 
L 85.799059 111.541999 
L 87.018953 89.214615 
L 88.238847 70.746334 
L 89.458742 56.137154 
L 90.678636 45.387077 
L 91.288583 41.459201 
L 91.89853 38.496101 
L 92.508478 36.497777 
L 93.118425 35.464228 
L 93.728372 35.395455 
L 94.338319 36.291457 
L 94.948266 38.152234 
L 95.558213 40.977787 
L 96.168161 44.768116 
L 96.778108 49.52322 
L 97.998002 61.927755 
L 99.217896 78.191391 
L 100.437791 98.31413 
L 101.657685 122.295971 
L 102.877579 150.136914 
L 104.11577 182.355801 
L 104.11577 182.355801 
" clip-path="url(#p8fbd13f2ae)" style="fill: none; stroke: #55a868; stroke-linecap: round"/>
   </g>
   <g id="line2d_57">
    <path d="M 103.074614 182.355801 
L 104.707421 155.124275 
L 106.537262 128.121277 
L 108.367104 104.780189 
L 110.196945 85.101012 
L 111.41684 74.015955 
L 112.636734 64.558414 
L 113.856628 56.728389 
L 115.076523 50.52588 
L 116.296417 45.950887 
L 116.906364 44.273708 
L 117.516311 43.003409 
L 118.126259 42.139989 
L 118.736206 41.683447 
L 119.346153 41.633785 
L 119.9561 41.991001 
L 120.566047 42.755097 
L 121.175994 43.926071 
L 121.785942 45.503924 
L 122.395889 47.488657 
L 123.615783 52.678758 
L 124.835677 59.496375 
L 126.055572 67.941508 
L 127.275466 78.014157 
L 128.49536 89.714322 
L 129.715255 103.042002 
L 131.545096 126.085115 
L 133.374938 152.790138 
L 135.158362 182.355801 
L 135.158362 182.355801 
" clip-path="url(#p8fbd13f2ae)" style="fill: none; stroke: #c44e52; stroke-linecap: round"/>
   </g>
   <g id="line2d_58">
    <path d="M 131.012842 182.355801 
L 132.764991 156.941093 
L 134.594832 133.294924 
L 136.424674 112.587658 
L 138.254515 94.819292 
L 139.474409 84.606438 
L 140.694304 75.699763 
L 141.914198 68.099266 
L 143.134092 61.804948 
L 144.353987 56.816808 
L 145.573881 53.134846 
L 146.183828 51.783682 
L 146.793775 50.759063 
L 147.403723 50.060988 
L 148.01367 49.689458 
L 148.623617 49.644473 
L 149.233564 49.926032 
L 149.843511 50.534136 
L 150.453458 51.468785 
L 151.063406 52.729978 
L 151.673353 54.317715 
L 152.893247 58.472824 
L 154.113141 63.934112 
L 155.333036 70.701578 
L 156.55293 78.775223 
L 157.772824 88.155046 
L 158.992719 98.841047 
L 160.82256 117.319134 
L 162.652402 138.736122 
L 164.482243 163.092012 
L 165.792341 182.355801 
L 165.792341 182.355801 
" clip-path="url(#p8fbd13f2ae)" style="fill: none; stroke: #8172b2; stroke-linecap: round"/>
   </g>
   <g id="line2d_59">
    <path d="M 159.772142 182.355801 
L 161.432507 158.932971 
L 163.262349 136.010608 
L 165.09219 116.081343 
L 166.922032 99.145177 
L 168.141926 89.517232 
L 169.361821 81.219554 
L 170.581715 74.252142 
L 171.801609 68.614996 
L 173.021504 64.308117 
L 173.631451 62.653527 
L 174.241398 61.331504 
L 174.851345 60.342047 
L 175.461292 59.685157 
L 176.071239 59.360833 
L 176.681187 59.369076 
L 177.291134 59.709885 
L 177.901081 60.383261 
L 178.511028 61.389204 
L 179.120975 62.727713 
L 179.730922 64.398789 
L 180.950817 68.73864 
L 182.170711 74.408757 
L 183.390605 81.409141 
L 184.6105 89.73979 
L 185.830394 99.400707 
L 187.050288 110.391889 
L 188.88013 129.372911 
L 190.709971 151.347033 
L 192.539813 176.314254 
L 192.949828 182.355801 
L 192.949828 182.355801 
" clip-path="url(#p8fbd13f2ae)" style="fill: none; stroke: #ccb974; stroke-linecap: round"/>
   </g>
   <g id="line2d_60">
    <path d="M 187.321993 182.355801 
L 189.490077 163.81405 
L 191.929866 145.179739 
L 193.759707 132.740366 
L 195.589549 121.617873 
L 197.41939 111.812259 
L 199.249232 103.323526 
L 201.079073 96.151672 
L 202.298968 92.102036 
L 203.518862 88.63768 
L 204.738756 85.758604 
L 205.958651 83.464807 
L 207.178545 81.756291 
L 208.398439 80.633055 
L 209.008386 80.290916 
L 209.618334 80.095098 
L 210.228281 80.0456 
L 210.838228 80.142422 
L 211.448175 80.385563 
L 212.058122 80.775025 
L 213.278017 81.992908 
L 214.497911 83.796072 
L 215.717805 86.184515 
L 216.9377 89.158238 
L 218.157594 92.717241 
L 219.377488 96.861523 
L 220.597383 101.591086 
L 222.427224 109.78283 
L 224.257066 119.291454 
L 226.086907 130.116958 
L 227.916749 142.259341 
L 229.74659 155.718605 
L 231.576432 170.494748 
L 232.937858 182.355801 
L 232.937858 182.355801 
" clip-path="url(#p8fbd13f2ae)" style="fill: none; stroke: #64b5cd; stroke-linecap: round"/>
   </g>
   <g id="line2d_61">
    <path d="M 230.767996 182.355801 
L 232.186379 166.81188 
L 234.01622 148.943974 
L 235.846062 133.495132 
L 237.675903 120.465353 
L 238.895798 113.122759 
L 240.115692 106.855304 
L 241.335586 101.662989 
L 242.555481 97.545813 
L 243.775375 94.503777 
L 244.385322 93.385936 
L 244.995269 92.53688 
L 245.605216 91.956609 
L 246.215164 91.645123 
L 246.825111 91.602421 
L 247.435058 91.828505 
L 248.045005 92.323374 
L 248.654952 93.087027 
L 249.264899 94.119465 
L 249.874847 95.420688 
L 251.094741 98.82949 
L 252.314635 103.31343 
L 253.53453 108.87251 
L 254.754424 115.50673 
L 255.974318 123.216089 
L 257.194213 132.000588 
L 259.024054 147.193223 
L 260.853896 164.804922 
L 262.465963 182.355801 
L 262.465963 182.355801 
" clip-path="url(#p8fbd13f2ae)" style="fill: none; stroke: #4c72b0; stroke-linecap: round"/>
   </g>
   <g id="line2d_62">
    <path d="M 231.470836 182.355801 
L 235.236115 176.439239 
L 239.505745 170.160802 
L 243.165428 165.14291 
L 246.825111 160.460674 
L 250.484794 156.114093 
L 254.144477 152.103168 
L 257.80416 148.427897 
L 261.463843 145.088282 
L 265.123526 142.084321 
L 268.783209 139.416016 
L 271.832945 137.448832 
L 274.882681 135.714741 
L 277.932416 134.213745 
L 280.982152 132.945842 
L 284.031888 131.911033 
L 287.081624 131.109318 
L 290.13136 130.540697 
L 293.181096 130.20517 
L 296.230831 130.102737 
L 299.280567 130.233397 
L 302.330303 130.597151 
L 305.380039 131.194 
L 308.429775 132.023942 
L 311.479511 133.086978 
L 314.529246 134.383108 
L 317.578982 135.912331 
L 320.628718 137.674649 
L 323.678454 139.67006 
L 326.72819 141.898565 
L 330.387873 144.880456 
L 334.047556 148.198001 
L 337.707239 151.851202 
L 341.366922 155.840058 
L 345.026605 160.164568 
L 348.686288 164.824735 
L 352.345971 169.820556 
L 356.005654 175.152032 
L 360.275284 181.796319 
L 360.621216 182.355801 
L 360.621216 182.355801 
" clip-path="url(#p8fbd13f2ae)" style="fill: none; stroke: #55a868; stroke-linecap: round"/>
   </g>
   <g id="patch_3">
    <path d="M 52.282462 143.788862 
L 52.282462 5.188862 
" style="fill: none"/>
   </g>
   <g id="patch_4">
    <path d="M 387.082462 143.788862 
L 387.082462 5.188862 
" style="fill: none"/>
   </g>
   <g id="patch_5">
    <path d="M 52.282462 143.788862 
L 387.082462 143.788862 
" style="fill: none"/>
   </g>
   <g id="patch_6">
    <path d="M 52.282462 5.188862 
L 387.082462 5.188862 
" style="fill: none"/>
   </g>
   <g id="text_14">
    <!-- 0 -->
    <g transform="translate(74.21451 42.014913) scale(0.1 -0.1)">
     <use xlink:href="#CMR17-30" transform="scale(0.996264)"/>
    </g>
   </g>
   <g id="text_15">
    <!-- 1 -->
    <g transform="translate(93.466878 34.23256) scale(0.1 -0.1)">
     <use xlink:href="#CMR17-31" transform="scale(0.996264)"/>
    </g>
   </g>
   <g id="text_16">
    <!-- 2 -->
    <g transform="translate(119.115628 40.001094) scale(0.1 -0.1)">
     <use xlink:href="#CMR17-32" transform="scale(0.996264)"/>
    </g>
   </g>
   <g id="text_17">
    <!-- 3 -->
    <g transform="translate(148.402671 46.985259) scale(0.1 -0.1)">
     <defs>
      <path id="CMR17-33" d="M 1414 2157 
C 1984 2157 2234 1662 2234 1090 
C 2234 320 1824 25 1453 25 
C 1114 25 563 194 390 693 
C 422 680 454 680 486 680 
C 640 680 755 782 755 948 
C 755 1133 614 1216 486 1216 
C 378 1216 211 1165 211 926 
C 211 335 787 -128 1466 -128 
C 2176 -128 2720 430 2720 1085 
C 2720 1707 2208 2157 1600 2227 
C 2086 2328 2554 2756 2554 3329 
C 2554 3820 2048 4179 1472 4179 
C 890 4179 378 3829 378 3329 
C 378 3110 544 3072 627 3072 
C 762 3072 877 3155 877 3321 
C 877 3486 762 3569 627 3569 
C 602 3569 570 3569 544 3557 
C 730 3959 1235 4032 1459 4032 
C 1683 4032 2106 3925 2106 3320 
C 2106 3143 2080 2828 1862 2550 
C 1670 2304 1453 2304 1242 2284 
C 1210 2284 1062 2269 1037 2269 
C 992 2263 966 2257 966 2208 
C 966 2163 973 2157 1101 2157 
L 1414 2157 
z
" transform="scale(0.015625)"/>
     </defs>
     <use xlink:href="#CMR17-33" transform="scale(0.996264)"/>
    </g>
   </g>
   <g id="text_18">
    <!-- 4 -->
    <g transform="translate(176.361095 54.640675) scale(0.1 -0.1)">
     <use xlink:href="#CMR17-34" transform="scale(0.996264)"/>
    </g>
   </g>
   <g id="text_19">
    <!-- 5 -->
    <g transform="translate(210.129645 66.580719) scale(0.1 -0.1)">
     <defs>
      <path id="CMR17-35" d="M 730 3692 
C 794 3666 1056 3584 1325 3584 
C 1920 3584 2246 3911 2432 4100 
C 2432 4157 2432 4192 2394 4192 
C 2387 4192 2374 4192 2323 4163 
C 2099 4058 1837 3973 1517 3973 
C 1325 3973 1037 3999 723 4139 
C 653 4171 640 4171 634 4171 
C 602 4171 595 4164 595 4037 
L 595 2203 
C 595 2089 595 2057 659 2057 
C 691 2057 704 2070 736 2114 
C 941 2401 1222 2522 1542 2522 
C 1766 2522 2246 2382 2246 1289 
C 2246 1085 2246 715 2054 421 
C 1894 159 1645 25 1370 25 
C 947 25 518 320 403 814 
C 429 807 480 795 506 795 
C 589 795 749 840 749 1038 
C 749 1210 627 1280 506 1280 
C 358 1280 262 1190 262 1011 
C 262 454 704 -128 1382 -128 
C 2042 -128 2669 440 2669 1264 
C 2669 2030 2170 2624 1549 2624 
C 1222 2624 947 2503 730 2274 
L 730 3692 
z
" transform="scale(0.015625)"/>
     </defs>
     <use xlink:href="#CMR17-35" transform="scale(0.996264)"/>
    </g>
   </g>
   <g id="text_20">
    <!-- 6 -->
    <g transform="translate(246.617038 70.299171) scale(0.1 -0.1)">
     <use xlink:href="#CMR17-36" transform="scale(0.996264)"/>
    </g>
   </g>
   <g id="text_21">
    <!-- 7+ -->
    <g transform="translate(296.046174 73.614961) scale(0.1 -0.1)">
     <defs>
      <path id="CMR17-37" d="M 2886 3941 
L 2886 4081 
L 1382 4081 
C 634 4081 621 4165 595 4288 
L 480 4288 
L 294 3094 
L 410 3094 
C 429 3215 474 3540 550 3661 
C 589 3712 1062 3712 1171 3712 
L 2579 3712 
L 1869 2661 
C 1395 1954 1069 999 1069 165 
C 1069 89 1069 -128 1299 -128 
C 1530 -128 1530 89 1530 171 
L 1530 465 
C 1530 1508 1709 2196 2003 2636 
L 2886 3941 
z
" transform="scale(0.015625)"/>
      <path id="CMR17-2b" d="M 2413 1472 
L 4109 1472 
C 4198 1472 4307 1472 4307 1580 
C 4307 1695 4205 1695 4109 1695 
L 2413 1695 
L 2413 3386 
C 2413 3475 2413 3584 2304 3584 
C 2189 3584 2189 3482 2189 3386 
L 2189 1695 
L 493 1695 
C 403 1695 294 1695 294 1587 
C 294 1472 397 1472 493 1472 
L 2189 1472 
L 2189 -218 
C 2189 -307 2189 -416 2298 -416 
C 2413 -416 2413 -314 2413 -218 
L 2413 1472 
z
" transform="scale(0.015625)"/>
     </defs>
     <use xlink:href="#CMR17-37" transform="scale(0.996264)"/>
     <use xlink:href="#CMR17-2b" transform="translate(45.690477 0) scale(0.996264)"/>
    </g>
   </g>
   <g id="text_22">
    <!-- PCA -->
    <g style="fill: #262626" transform="translate(323.631568 20.93394) scale(0.15 -0.15)">
     <defs>
      <path id="CMR17-50" d="M 1267 2042 
L 2291 2042 
C 3117 2042 3718 2578 3718 3184 
C 3718 3791 3130 4352 2291 4352 
L 333 4352 
L 333 4186 
C 774 4186 845 4186 845 3899 
L 845 446 
C 845 160 774 160 333 160 
L 333 0 
C 518 0 858 0 1056 0 
C 1254 0 1594 0 1779 0 
L 1779 160 
C 1338 160 1267 160 1267 446 
L 1267 2042 
z
M 1254 2176 
L 1254 3938 
C 1254 4155 1267 4186 1523 4186 
L 2170 4186 
C 2995 4186 3232 3714 3232 3184 
C 3232 2604 2950 2176 2170 2176 
L 1254 2176 
z
" transform="scale(0.015625)"/>
      <path id="CMR17-43" d="M 3974 4289 
C 3974 4403 3968 4410 3930 4410 
C 3904 4410 3898 4403 3853 4327 
L 3571 3792 
C 3258 4187 2874 4416 2381 4416 
C 1286 4416 294 3456 294 2148 
C 294 826 1286 -128 2387 -128 
C 3366 -128 3974 730 3974 1461 
C 3974 1524 3974 1550 3917 1550 
C 3866 1550 3866 1531 3859 1474 
C 3808 585 3168 38 2477 38 
C 1824 38 781 495 781 2147 
C 781 3805 1843 4250 2464 4250 
C 3187 4250 3712 3628 3834 2745 
C 3846 2668 3846 2655 3904 2655 
C 3974 2655 3974 2668 3974 2783 
L 3974 4289 
z
" transform="scale(0.015625)"/>
      <path id="CMR17-41" d="M 2323 4378 
C 2291 4461 2278 4480 2214 4480 
C 2150 4480 2138 4461 2106 4378 
L 749 566 
C 627 223 371 153 147 153 
L 147 -13 
C 262 0 518 0 640 0 
C 800 0 1056 0 1210 -13 
L 1210 153 
C 909 153 864 361 864 439 
C 864 497 877 530 890 569 
L 1229 1536 
L 2906 1536 
L 3290 442 
C 3322 365 3322 352 3322 327 
C 3322 153 3046 153 2925 153 
L 2925 0 
C 3110 0 3443 0 3642 0 
C 3808 0 4128 0 4282 -13 
L 4282 153 
C 3942 153 3827 153 3744 387 
L 2323 4378 
z
M 2067 3893 
L 2848 1702 
L 1286 1702 
L 2067 3893 
z
" transform="scale(0.015625)"/>
     </defs>
     <use xlink:href="#CMR17-50" transform="scale(0.996264)"/>
     <use xlink:href="#CMR17-43" transform="translate(62.586301 0) scale(0.996264)"/>
     <use xlink:href="#CMR17-41" transform="translate(129.096181 0) scale(0.996264)"/>
    </g>
   </g>
  </g>
 </g>
 <defs>
  <clipPath id="p8fbd13f2ae">
   <rect x="52.282462" y="5.188862" width="334.8" height="138.6"/>
  </clipPath>
 </defs>
</svg>
