<?xml version="1.0" encoding="utf-8" standalone="no"?>
<!DOCTYPE svg PUBLIC "-//W3C//DTD SVG 1.1//EN"
  "http://www.w3.org/Graphics/SVG/1.1/DTD/svg11.dtd">
<svg xmlns:xlink="http://www.w3.org/1999/xlink" width="432pt" height="180pt" viewBox="0 0 432 180" xmlns="http://www.w3.org/2000/svg" version="1.1">
 <metadata>
  <rdf:RDF xmlns:dc="http://purl.org/dc/elements/1.1/" xmlns:cc="http://creativecommons.org/ns#" xmlns:rdf="http://www.w3.org/1999/02/22-rdf-syntax-ns#">
   <cc:Work>
    <dc:type rdf:resource="http://purl.org/dc/dcmitype/StillImage"/>
    <dc:date>2024-10-09T15:13:55.869248</dc:date>
    <dc:format>image/svg+xml</dc:format>
    <dc:creator>
     <cc:Agent>
      <dc:title>Matplotlib v3.9.2, https://matplotlib.org/</dc:title>
     </cc:Agent>
    </dc:creator>
   </cc:Work>
  </rdf:RDF>
 </metadata>
 <defs>
  <style type="text/css">*{stroke-linejoin: round; stroke-linecap: butt}</style>
 </defs>
 <g id="figure_1">
  <g id="patch_1">
   <path d="M 0 180 
L 432 180 
L 432 0 
L 0 0 
L 0 180 
z
" style="fill: none"/>
  </g>
  <g id="axes_1">
   <g id="patch_2">
    <path d="M 54 160.2 
L 388.8 160.2 
L 388.8 21.6 
L 54 21.6 
L 54 160.2 
z
" style="fill: none"/>
   </g>
   <g id="matplotlib.axis_1">
    <g id="text_1">
     <!-- Time (a.u.) -->
     <g style="fill: #262626" transform="translate(180.697266 175.597656) scale(0.15 -0.15)">
      <defs>
       <path id="DejaVuSans-54" d="M -19 4666 
L 3928 4666 
L 3928 4134 
L 2272 4134 
L 2272 0 
L 1638 0 
L 1638 4134 
L -19 4134 
L -19 4666 
z
" transform="scale(0.015625)"/>
       <path id="DejaVuSans-69" d="M 603 3500 
L 1178 3500 
L 1178 0 
L 603 0 
L 603 3500 
z
M 603 4863 
L 1178 4863 
L 1178 4134 
L 603 4134 
L 603 4863 
z
" transform="scale(0.015625)"/>
       <path id="DejaVuSans-6d" d="M 3328 2828 
Q 3544 3216 3844 3400 
Q 4144 3584 4550 3584 
Q 5097 3584 5394 3201 
Q 5691 2819 5691 2113 
L 5691 0 
L 5113 0 
L 5113 2094 
Q 5113 2597 4934 2840 
Q 4756 3084 4391 3084 
Q 3944 3084 3684 2787 
Q 3425 2491 3425 1978 
L 3425 0 
L 2847 0 
L 2847 2094 
Q 2847 2600 2669 2842 
Q 2491 3084 2119 3084 
Q 1678 3084 1418 2786 
Q 1159 2488 1159 1978 
L 1159 0 
L 581 0 
L 581 3500 
L 1159 3500 
L 1159 2956 
Q 1356 3278 1631 3431 
Q 1906 3584 2284 3584 
Q 2666 3584 2933 3390 
Q 3200 3197 3328 2828 
z
" transform="scale(0.015625)"/>
       <path id="DejaVuSans-65" d="M 3597 1894 
L 3597 1613 
L 953 1613 
Q 991 1019 1311 708 
Q 1631 397 2203 397 
Q 2534 397 2845 478 
Q 3156 559 3463 722 
L 3463 178 
Q 3153 47 2828 -22 
Q 2503 -91 2169 -91 
Q 1331 -91 842 396 
Q 353 884 353 1716 
Q 353 2575 817 3079 
Q 1281 3584 2069 3584 
Q 2775 3584 3186 3129 
Q 3597 2675 3597 1894 
z
M 3022 2063 
Q 3016 2534 2758 2815 
Q 2500 3097 2075 3097 
Q 1594 3097 1305 2825 
Q 1016 2553 972 2059 
L 3022 2063 
z
" transform="scale(0.015625)"/>
       <path id="DejaVuSans-20" transform="scale(0.015625)"/>
       <path id="DejaVuSans-28" d="M 1984 4856 
Q 1566 4138 1362 3434 
Q 1159 2731 1159 2009 
Q 1159 1288 1364 580 
Q 1569 -128 1984 -844 
L 1484 -844 
Q 1016 -109 783 600 
Q 550 1309 550 2009 
Q 550 2706 781 3412 
Q 1013 4119 1484 4856 
L 1984 4856 
z
" transform="scale(0.015625)"/>
       <path id="DejaVuSans-61" d="M 2194 1759 
Q 1497 1759 1228 1600 
Q 959 1441 959 1056 
Q 959 750 1161 570 
Q 1363 391 1709 391 
Q 2188 391 2477 730 
Q 2766 1069 2766 1631 
L 2766 1759 
L 2194 1759 
z
M 3341 1997 
L 3341 0 
L 2766 0 
L 2766 531 
Q 2569 213 2275 61 
Q 1981 -91 1556 -91 
Q 1019 -91 701 211 
Q 384 513 384 1019 
Q 384 1609 779 1909 
Q 1175 2209 1959 2209 
L 2766 2209 
L 2766 2266 
Q 2766 2663 2505 2880 
Q 2244 3097 1772 3097 
Q 1472 3097 1187 3025 
Q 903 2953 641 2809 
L 641 3341 
Q 956 3463 1253 3523 
Q 1550 3584 1831 3584 
Q 2591 3584 2966 3190 
Q 3341 2797 3341 1997 
z
" transform="scale(0.015625)"/>
       <path id="DejaVuSans-2e" d="M 684 794 
L 1344 794 
L 1344 0 
L 684 0 
L 684 794 
z
" transform="scale(0.015625)"/>
       <path id="DejaVuSans-75" d="M 544 1381 
L 544 3500 
L 1119 3500 
L 1119 1403 
Q 1119 906 1312 657 
Q 1506 409 1894 409 
Q 2359 409 2629 706 
Q 2900 1003 2900 1516 
L 2900 3500 
L 3475 3500 
L 3475 0 
L 2900 0 
L 2900 538 
Q 2691 219 2414 64 
Q 2138 -91 1772 -91 
Q 1169 -91 856 284 
Q 544 659 544 1381 
z
M 1991 3584 
L 1991 3584 
z
" transform="scale(0.015625)"/>
       <path id="DejaVuSans-29" d="M 513 4856 
L 1013 4856 
Q 1481 4119 1714 3412 
Q 1947 2706 1947 2009 
Q 1947 1309 1714 600 
Q 1481 -109 1013 -844 
L 513 -844 
Q 928 -128 1133 580 
Q 1338 1288 1338 2009 
Q 1338 2731 1133 3434 
Q 928 4138 513 4856 
z
" transform="scale(0.015625)"/>
      </defs>
      <use xlink:href="#DejaVuSans-54"/>
      <use xlink:href="#DejaVuSans-69" x="57.958984"/>
      <use xlink:href="#DejaVuSans-6d" x="85.742188"/>
      <use xlink:href="#DejaVuSans-65" x="183.154297"/>
      <use xlink:href="#DejaVuSans-20" x="244.677734"/>
      <use xlink:href="#DejaVuSans-28" x="276.464844"/>
      <use xlink:href="#DejaVuSans-61" x="315.478516"/>
      <use xlink:href="#DejaVuSans-2e" x="376.757812"/>
      <use xlink:href="#DejaVuSans-75" x="408.544922"/>
      <use xlink:href="#DejaVuSans-2e" x="471.923828"/>
      <use xlink:href="#DejaVuSans-29" x="503.710938"/>
     </g>
    </g>
   </g>
   <g id="matplotlib.axis_2">
    <g id="text_2">
     <!-- Voltage (a.u.) -->
     <g style="fill: #262626" transform="translate(46.880469 141.386719) rotate(-90) scale(0.15 -0.15)">
      <defs>
       <path id="DejaVuSans-56" d="M 1831 0 
L 50 4666 
L 709 4666 
L 2188 738 
L 3669 4666 
L 4325 4666 
L 2547 0 
L 1831 0 
z
" transform="scale(0.015625)"/>
       <path id="DejaVuSans-6f" d="M 1959 3097 
Q 1497 3097 1228 2736 
Q 959 2375 959 1747 
Q 959 1119 1226 758 
Q 1494 397 1959 397 
Q 2419 397 2687 759 
Q 2956 1122 2956 1747 
Q 2956 2369 2687 2733 
Q 2419 3097 1959 3097 
z
M 1959 3584 
Q 2709 3584 3137 3096 
Q 3566 2609 3566 1747 
Q 3566 888 3137 398 
Q 2709 -91 1959 -91 
Q 1206 -91 779 398 
Q 353 888 353 1747 
Q 353 2609 779 3096 
Q 1206 3584 1959 3584 
z
" transform="scale(0.015625)"/>
       <path id="DejaVuSans-6c" d="M 603 4863 
L 1178 4863 
L 1178 0 
L 603 0 
L 603 4863 
z
" transform="scale(0.015625)"/>
       <path id="DejaVuSans-74" d="M 1172 4494 
L 1172 3500 
L 2356 3500 
L 2356 3053 
L 1172 3053 
L 1172 1153 
Q 1172 725 1289 603 
Q 1406 481 1766 481 
L 2356 481 
L 2356 0 
L 1766 0 
Q 1100 0 847 248 
Q 594 497 594 1153 
L 594 3053 
L 172 3053 
L 172 3500 
L 594 3500 
L 594 4494 
L 1172 4494 
z
" transform="scale(0.015625)"/>
       <path id="DejaVuSans-67" d="M 2906 1791 
Q 2906 2416 2648 2759 
Q 2391 3103 1925 3103 
Q 1463 3103 1205 2759 
Q 947 2416 947 1791 
Q 947 1169 1205 825 
Q 1463 481 1925 481 
Q 2391 481 2648 825 
Q 2906 1169 2906 1791 
z
M 3481 434 
Q 3481 -459 3084 -895 
Q 2688 -1331 1869 -1331 
Q 1566 -1331 1297 -1286 
Q 1028 -1241 775 -1147 
L 775 -588 
Q 1028 -725 1275 -790 
Q 1522 -856 1778 -856 
Q 2344 -856 2625 -561 
Q 2906 -266 2906 331 
L 2906 616 
Q 2728 306 2450 153 
Q 2172 0 1784 0 
Q 1141 0 747 490 
Q 353 981 353 1791 
Q 353 2603 747 3093 
Q 1141 3584 1784 3584 
Q 2172 3584 2450 3431 
Q 2728 3278 2906 2969 
L 2906 3500 
L 3481 3500 
L 3481 434 
z
" transform="scale(0.015625)"/>
      </defs>
      <use xlink:href="#DejaVuSans-56"/>
      <use xlink:href="#DejaVuSans-6f" x="60.658203"/>
      <use xlink:href="#DejaVuSans-6c" x="121.839844"/>
      <use xlink:href="#DejaVuSans-74" x="149.623047"/>
      <use xlink:href="#DejaVuSans-61" x="188.832031"/>
      <use xlink:href="#DejaVuSans-67" x="250.111328"/>
      <use xlink:href="#DejaVuSans-65" x="313.587891"/>
      <use xlink:href="#DejaVuSans-20" x="375.111328"/>
      <use xlink:href="#DejaVuSans-28" x="406.898438"/>
      <use xlink:href="#DejaVuSans-61" x="445.912109"/>
      <use xlink:href="#DejaVuSans-2e" x="507.191406"/>
      <use xlink:href="#DejaVuSans-75" x="538.978516"/>
      <use xlink:href="#DejaVuSans-2e" x="602.357422"/>
      <use xlink:href="#DejaVuSans-29" x="634.144531"/>
     </g>
    </g>
   </g>
   <g id="line2d_1">
    <path d="M 69.218182 151.387179 
L 71.260891 153.182051 
L 73.3036 152.823077 
L 75.346309 153.9 
L 77.389018 148.874359 
L 79.431727 152.105128 
L 81.474436 148.874359 
L 83.517145 150.669231 
L 85.559854 147.438462 
L 87.602563 142.412821 
L 89.645272 133.079487 
L 91.68798 122.310256 
L 93.730689 114.771795 
L 95.773398 102.207692 
L 97.816107 92.515385 
L 99.858816 72.412821 
L 101.901525 59.489744 
L 103.944234 54.464103 
L 105.986943 37.233333 
L 108.029652 32.207692 
L 110.072361 27.9 
L 112.11507 32.207692 
L 114.157779 32.207692 
L 116.200488 31.489744 
L 118.243197 42.976923 
L 120.285906 49.438462 
L 122.328615 50.15641 
L 124.371324 55.9 
L 126.414033 67.387179 
L 128.456742 70.976923 
L 130.499451 81.746154 
L 132.54216 87.489744 
L 134.584869 97.541026 
L 136.627578 102.566667 
L 138.670287 105.438462 
L 140.712996 104.720513 
L 142.755705 108.669231 
L 144.798414 111.182051 
L 146.841123 117.284615 
L 148.883832 121.592308 
L 150.926541 125.182051 
L 152.96925 127.694872 
L 155.011959 129.130769 
L 157.054667 134.15641 
L 159.097376 132.720513 
L 161.140085 135.233333 
L 163.182794 135.951282 
L 167.268212 140.258974 
L 169.310921 147.438462 
L 171.35363 145.284615 
L 173.396339 149.951282 
L 175.439048 147.079487 
L 177.481757 150.669231 
L 179.524466 149.233333 
L 181.567175 152.105128 
L 183.609884 152.464103 
L 185.652593 151.387179 
L 187.695302 152.464103 
L 189.738011 151.746154 
L 191.78072 149.951282 
L 193.823429 152.105128 
L 195.866138 149.951282 
L 197.908847 145.64359 
L 199.951556 146.361538 
L 201.994265 146.720513 
L 204.036974 146.361538 
L 206.079683 147.438462 
L 208.122392 149.233333 
L 210.165101 146.361538 
L 212.20781 149.592308 
L 214.250519 148.874359 
L 216.293228 147.079487 
L 218.335937 146.002564 
L 220.378646 146.361538 
L 222.421354 145.64359 
L 224.464063 145.284615 
L 226.506772 145.284615 
L 228.549481 148.15641 
L 230.59219 145.64359 
L 232.634899 145.284615 
L 234.677608 147.079487 
L 236.720317 144.207692 
L 238.763026 142.771795 
L 240.805735 141.694872 
L 242.848444 144.925641 
L 244.891153 143.130769 
L 246.933862 144.566667 
L 248.976571 142.771795 
L 251.01928 141.335897 
L 253.061989 140.976923 
L 255.104698 142.412821 
L 257.147407 141.694872 
L 259.190116 142.053846 
L 261.232825 144.566667 
L 263.275534 146.002564 
L 265.318243 145.284615 
L 267.360952 146.720513 
L 269.403661 146.361538 
L 273.489079 148.515385 
L 277.574497 146.361538 
L 279.617206 148.515385 
L 281.659915 148.15641 
L 283.702624 148.874359 
L 285.745333 149.233333 
L 287.788041 149.233333 
L 291.873459 146.361538 
L 293.916168 149.592308 
L 295.958877 149.592308 
L 298.001586 149.233333 
L 300.044295 147.438462 
L 302.087004 149.233333 
L 304.129713 147.079487 
L 306.172422 146.002564 
L 308.215131 147.438462 
L 310.25784 150.310256 
L 312.300549 148.15641 
L 314.343258 146.361538 
L 316.385967 148.515385 
L 320.471385 144.925641 
L 322.514094 143.489744 
L 324.556803 140.617949 
L 328.642221 139.9 
L 330.68493 142.771795 
L 332.727639 146.002564 
L 334.770348 146.361538 
L 336.813057 148.15641 
L 338.855766 147.438462 
L 342.941184 143.848718 
L 344.983893 145.284615 
L 347.026602 144.566667 
L 349.069311 143.489744 
L 351.11202 144.925641 
L 353.154728 144.207692 
L 355.197437 143.848718 
L 357.240146 140.617949 
L 359.282855 143.848718 
L 361.325564 143.848718 
L 363.368273 140.258974 
L 365.410982 141.335897 
L 367.453691 140.258974 
L 369.4964 141.335897 
L 371.539109 142.771795 
L 373.581818 141.694872 
L 373.581818 141.694872 
" clip-path="url(#p0b99218b45)" style="fill: none; stroke: #4c72b0; stroke-linecap: round"/>
   </g>
   <g id="patch_3">
    <path d="M 54 160.2 
L 54 21.6 
" style="fill: none"/>
   </g>
   <g id="patch_4">
    <path d="M 388.8 160.2 
L 388.8 21.6 
" style="fill: none"/>
   </g>
   <g id="patch_5">
    <path d="M 54 160.2 
L 388.8 160.2 
" style="fill: none"/>
   </g>
   <g id="patch_6">
    <path d="M 54 21.6 
L 388.8 21.6 
" style="fill: none"/>
   </g>
   <g id="PathCollection_1">
    <defs>
     <path id="mc0c97e01e4" d="M -7.071068 7.071068 
L 7.071068 -7.071068 
M -7.071068 -7.071068 
L 7.071068 7.071068 
" style="stroke: #ff0000; stroke-width: 1.75"/>
    </defs>
    <g clip-path="url(#p0b99218b45)">
     <use xlink:href="#mc0c97e01e4" x="110.072361" y="27.9" style="fill: #ff0000; stroke: #ff0000; stroke-width: 1.75"/>
    </g>
   </g>
  </g>
 </g>
 <defs>
  <clipPath id="p0b99218b45">
   <rect x="54" y="21.6" width="334.8" height="138.6"/>
  </clipPath>
 </defs>
</svg>
