<?xml version="1.0" encoding="utf-8" standalone="no"?>
<!DOCTYPE svg PUBLIC "-//W3C//DTD SVG 1.1//EN"
  "http://www.w3.org/Graphics/SVG/1.1/DTD/svg11.dtd">
<svg xmlns:xlink="http://www.w3.org/1999/xlink" width="432pt" height="180pt" viewBox="0 0 432 180" xmlns="http://www.w3.org/2000/svg" version="1.1">
 <metadata>
  <rdf:RDF xmlns:dc="http://purl.org/dc/elements/1.1/" xmlns:cc="http://creativecommons.org/ns#" xmlns:rdf="http://www.w3.org/1999/02/22-rdf-syntax-ns#">
   <cc:Work>
    <dc:type rdf:resource="http://purl.org/dc/dcmitype/StillImage"/>
    <dc:date>2024-10-11T08:48:15.505944</dc:date>
    <dc:format>image/svg+xml</dc:format>
    <dc:creator>
     <cc:Agent>
      <dc:title>Matplotlib v3.9.2, https://matplotlib.org/</dc:title>
     </cc:Agent>
    </dc:creator>
   </cc:Work>
  </rdf:RDF>
 </metadata>
 <defs>
  <style type="text/css">*{stroke-linejoin: round; stroke-linecap: butt}</style>
 </defs>
 <g id="figure_1">
  <g id="patch_1">
   <path d="M 0 180 
L 432 180 
L 432 0 
L 0 0 
z
" style="fill: #ffffff"/>
  </g>
  <g id="axes_1">
   <g id="patch_2">
    <path d="M 54 160.2 
L 388.8 160.2 
L 388.8 21.6 
L 54 21.6 
z
" style="fill: #eaeaf2"/>
   </g>
   <g id="matplotlib.axis_1">
    <g id="text_1">
     <!-- Time (a.u.) -->
     <g style="fill: #262626" transform="translate(184.818811 175.40797) scale(0.15 -0.15)">
      <defs>
       <path id="CMR17-54" d="M 3981 4326 
L 288 4326 
L 179 2918 
L 294 2918 
C 378 3976 467 4160 1453 4160 
C 1568 4160 1754 4160 1805 4154 
C 1926 4135 1926 4058 1926 3912 
L 1926 459 
C 1926 230 1907 160 1376 160 
L 1197 160 
L 1197 0 
C 1504 0 1824 0 2138 0 
C 2451 0 2771 0 3078 0 
L 3078 160 
L 2899 160 
C 2368 160 2349 230 2349 459 
L 2349 3912 
C 2349 4052 2349 4129 2464 4154 
C 2515 4160 2701 4160 2816 4160 
C 3795 4160 3891 3976 3974 2918 
L 4090 2918 
L 3981 4326 
z
" transform="scale(0.015625)"/>
       <path id="CMR17-69" d="M 992 3909 
C 992 4049 877 4170 730 4170 
C 589 4170 467 4056 467 3909 
C 467 3769 582 3648 730 3648 
C 870 3648 992 3763 992 3909 
z
M 243 2706 
L 243 2541 
C 602 2541 653 2502 653 2197 
L 653 427 
C 653 184 627 153 218 153 
L 218 -13 
C 371 0 646 0 806 0 
C 960 0 1222 0 1370 -13 
L 1370 153 
C 992 153 979 191 979 420 
L 979 2776 
L 243 2706 
z
" transform="scale(0.015625)"/>
       <path id="CMR17-6d" d="M 4326 1933 
C 4326 2252 4269 2790 3507 2790 
C 3072 2790 2771 2496 2656 2151 
L 2650 2151 
C 2573 2676 2195 2790 1837 2790 
C 1331 2790 1069 2400 973 2144 
L 966 2144 
L 966 2790 
L 211 2720 
L 211 2554 
C 589 2554 646 2515 646 2208 
L 646 428 
C 646 184 621 153 211 153 
L 211 -13 
C 365 0 646 0 813 0 
C 979 0 1267 0 1421 -13 
L 1421 153 
C 1011 153 986 178 986 428 
L 986 1658 
C 986 2247 1344 2688 1792 2688 
C 2266 2688 2317 2266 2317 1958 
L 2317 428 
C 2317 184 2291 153 1882 153 
L 1882 -13 
C 2035 0 2317 0 2483 0 
C 2650 0 2938 0 3091 -13 
L 3091 153 
C 2682 153 2656 178 2656 428 
L 2656 1658 
C 2656 2247 3014 2688 3462 2688 
C 3936 2688 3987 2266 3987 1958 
L 3987 428 
C 3987 184 3962 153 3552 153 
L 3552 -13 
C 3706 0 3987 0 4154 0 
C 4320 0 4608 0 4762 -13 
L 4762 153 
C 4352 153 4326 178 4326 428 
L 4326 1933 
z
" transform="scale(0.015625)"/>
       <path id="CMR17-65" d="M 2438 1472 
C 2464 1498 2464 1511 2464 1576 
C 2464 2238 2118 2816 1389 2816 
C 710 2816 173 2169 173 1383 
C 173 551 781 -64 1459 -64 
C 2176 -64 2458 607 2458 740 
C 2458 784 2419 784 2406 784 
C 2362 784 2355 771 2330 696 
C 2189 265 1837 51 1504 51 
C 1229 51 954 203 781 480 
C 582 803 582 1176 582 1472 
L 2438 1472 
z
M 589 1568 
C 634 2505 1126 2714 1382 2714 
C 1818 2714 2112 2297 2118 1568 
L 589 1568 
z
" transform="scale(0.015625)"/>
       <path id="CMR17-28" d="M 1958 -1561 
C 1958 -1555 1958 -1542 1939 -1523 
C 1645 -1224 858 -407 858 1581 
C 858 3569 1632 4379 1946 4697 
C 1946 4704 1958 4717 1958 4736 
C 1958 4755 1939 4768 1914 4768 
C 1843 4768 1299 4296 986 3594 
C 666 2887 576 2199 576 1588 
C 576 1128 621 351 1005 -471 
C 1312 -1135 1837 -1600 1914 -1600 
C 1946 -1600 1958 -1587 1958 -1561 
z
" transform="scale(0.015625)"/>
       <path id="CMR17-61" d="M 2304 1653 
C 2304 2072 2304 2294 2035 2543 
C 1798 2752 1523 2816 1306 2816 
C 800 2816 435 2407 435 1971 
C 435 1728 627 1728 666 1728 
C 749 1728 896 1778 896 1954 
C 896 2112 774 2181 666 2181 
C 640 2181 608 2174 589 2168 
C 723 2592 1069 2714 1293 2714 
C 1613 2714 1965 2429 1965 1885 
L 1965 1600 
C 1587 1600 1133 1549 774 1357 
C 371 1133 256 813 256 570 
C 256 77 832 -64 1171 -64 
C 1523 -64 1850 139 1990 511 
C 2003 233 2182 -18 2464 -18 
C 2598 -18 2938 70 2938 567 
L 2938 920 
L 2822 920 
L 2822 562 
C 2822 178 2650 128 2566 128 
C 2304 128 2304 458 2304 738 
L 2304 1653 
z
M 1965 870 
C 1965 317 1568 38 1216 38 
C 896 38 646 275 646 570 
C 646 761 730 1100 1101 1305 
C 1408 1478 1760 1504 1965 1504 
L 1965 870 
z
" transform="scale(0.015625)"/>
       <path id="CMR17-2e" d="M 1062 261 
C 1062 420 934 522 800 522 
C 672 522 538 420 538 261 
C 538 102 666 0 800 0 
C 928 0 1062 102 1062 261 
z
" transform="scale(0.015625)"/>
       <path id="CMR17-75" d="M 1882 2693 
L 1882 2528 
C 2259 2528 2317 2489 2317 2186 
L 2317 1032 
C 2317 500 2029 38 1555 38 
C 1030 38 986 348 986 678 
L 986 2763 
L 211 2693 
L 211 2528 
C 467 2528 640 2528 646 2274 
L 646 1058 
C 646 633 646 361 813 183 
C 896 101 1056 -64 1517 -64 
C 2061 -64 2272 377 2323 506 
L 2330 506 
L 2330 -63 
L 3091 -63 
L 3091 128 
C 2714 128 2656 166 2656 473 
L 2656 2763 
L 1882 2693 
z
" transform="scale(0.015625)"/>
       <path id="CMR17-29" d="M 1683 1581 
C 1683 2040 1638 2817 1254 3639 
C 947 4303 422 4768 346 4768 
C 326 4768 301 4761 301 4729 
C 301 4717 307 4710 314 4697 
C 621 4378 1402 3568 1402 1584 
C 1402 -407 627 -1217 314 -1537 
C 307 -1549 301 -1556 301 -1568 
C 301 -1600 326 -1600 346 -1600 
C 416 -1600 960 -1128 1274 -426 
C 1594 281 1683 969 1683 1581 
z
" transform="scale(0.015625)"/>
      </defs>
      <use xlink:href="#CMR17-54" transform="scale(0.996264)"/>
      <use xlink:href="#CMR17-69" transform="translate(66.509881 0) scale(0.996264)"/>
      <use xlink:href="#CMR17-6d" transform="translate(91.380939 0) scale(0.996264)"/>
      <use xlink:href="#CMR17-65" transform="translate(168.300529 0) scale(0.996264)"/>
      <use xlink:href="#CMR17-28" transform="translate(238.862156 0) scale(0.996264)"/>
      <use xlink:href="#CMR17-61" transform="translate(274.142924 0) scale(0.996264)"/>
      <use xlink:href="#CMR17-2e" transform="translate(319.833401 0) scale(0.996264)"/>
      <use xlink:href="#CMR17-75" transform="translate(344.704459 0) scale(0.996264)"/>
      <use xlink:href="#CMR17-2e" transform="translate(395.599829 0) scale(0.996264)"/>
      <use xlink:href="#CMR17-29" transform="translate(420.470887 0) scale(0.996264)"/>
     </g>
    </g>
   </g>
   <g id="matplotlib.axis_2">
    <g id="text_2">
     <!-- Voltage (a.u.) -->
     <g style="fill: #262626" transform="translate(46.26401 134.794835) rotate(-90) scale(0.15 -0.15)">
      <defs>
       <path id="CMR17-56" d="M 3776 3745 
C 3834 3886 3936 4160 4365 4160 
L 4365 4332 
C 4218 4319 4051 4319 3891 4319 
C 3738 4319 3475 4319 3328 4332 
L 3328 4160 
C 3648 4160 3661 3936 3661 3898 
C 3661 3827 3642 3783 3622 3732 
L 2362 446 
L 1043 3886 
C 1024 3931 1011 3963 1011 3994 
C 1011 4160 1267 4160 1402 4160 
L 1402 4319 
C 1197 4319 896 4319 685 4319 
C 518 4319 218 4319 64 4332 
L 64 4160 
C 435 4160 506 4135 582 3931 
L 2106 -26 
C 2138 -115 2144 -128 2214 -128 
C 2285 -128 2291 -115 2323 -26 
L 3776 3745 
z
" transform="scale(0.015625)"/>
       <path id="CMR17-6f" d="M 2758 1356 
C 2758 2176 2163 2816 1466 2816 
C 768 2816 173 2176 173 1356 
C 173 551 768 -64 1466 -64 
C 2163 -64 2758 551 2758 1356 
z
M 1466 51 
C 1165 51 909 230 762 480 
C 602 767 582 1126 582 1408 
C 582 1677 595 2010 762 2298 
C 890 2509 1139 2714 1466 2714 
C 1754 2714 1997 2554 2150 2330 
C 2349 2029 2349 1607 2349 1408 
C 2349 1158 2336 775 2163 467 
C 1984 173 1709 51 1466 51 
z
" transform="scale(0.015625)"/>
       <path id="CMR17-6c" d="M 979 4396 
L 218 4326 
L 218 4160 
C 595 4160 653 4122 653 3817 
L 653 426 
C 653 184 627 153 218 153 
L 218 -13 
C 371 0 653 0 813 0 
C 979 0 1261 0 1414 -13 
L 1414 153 
C 1005 153 979 178 979 426 
L 979 4396 
z
" transform="scale(0.015625)"/>
       <path id="CMR17-74" d="M 966 2560 
L 1862 2560 
L 1862 2725 
L 966 2725 
L 966 3904 
L 851 3904 
C 838 3245 614 2668 70 2668 
L 70 2560 
L 627 2560 
L 627 771 
C 627 650 627 -64 1370 -64 
C 1747 -64 1965 306 1965 777 
L 1965 1140 
L 1850 1140 
L 1850 783 
C 1850 344 1677 51 1408 51 
C 1222 51 966 178 966 758 
L 966 2560 
z
" transform="scale(0.015625)"/>
       <path id="CMR17-67" d="M 710 1164 
C 832 1068 1043 960 1299 960 
C 1805 960 2240 1357 2240 1888 
C 2240 2054 2189 2310 1997 2509 
C 2176 2692 2438 2752 2586 2752 
C 2611 2752 2650 2752 2682 2734 
C 2656 2728 2598 2703 2598 2605 
C 2598 2527 2656 2471 2739 2471 
C 2835 2471 2886 2533 2886 2614 
C 2886 2731 2790 2854 2586 2854 
C 2330 2854 2106 2738 1926 2580 
C 1734 2753 1504 2816 1299 2816 
C 794 2816 358 2419 358 1888 
C 358 1522 570 1292 634 1228 
C 442 1004 442 743 442 711 
C 442 545 506 302 723 168 
C 390 85 128 -169 128 -486 
C 128 -943 736 -1280 1466 -1280 
C 2170 -1280 2803 -956 2803 -479 
C 2803 384 1856 384 1363 384 
C 1216 384 954 384 922 391 
C 723 423 589 602 589 826 
C 589 883 589 1024 710 1164 
z
M 1299 1068 
C 736 1068 736 1760 736 1889 
C 736 2016 736 2708 1299 2708 
C 1862 2708 1862 2016 1862 1889 
C 1862 1760 1862 1068 1299 1068 
z
M 1466 -1171 
C 826 -1171 384 -835 384 -486 
C 384 -289 493 -105 634 -4 
C 794 104 858 104 1293 104 
C 1818 104 2547 104 2547 -486 
C 2547 -835 2106 -1171 1466 -1171 
z
" transform="scale(0.015625)"/>
      </defs>
      <use xlink:href="#CMR17-56" transform="scale(0.996264)"/>
      <use xlink:href="#CMR17-6f" transform="translate(61.265174 0) scale(0.996264)"/>
      <use xlink:href="#CMR17-6c" transform="translate(106.955652 0) scale(0.996264)"/>
      <use xlink:href="#CMR17-74" transform="translate(131.82671 0) scale(0.996264)"/>
      <use xlink:href="#CMR17-61" transform="translate(167.107478 0) scale(0.996264)"/>
      <use xlink:href="#CMR17-67" transform="translate(212.797955 0) scale(0.996264)"/>
      <use xlink:href="#CMR17-65" transform="translate(258.488432 0) scale(0.996264)"/>
      <use xlink:href="#CMR17-28" transform="translate(329.050059 0) scale(0.996264)"/>
      <use xlink:href="#CMR17-61" transform="translate(364.330827 0) scale(0.996264)"/>
      <use xlink:href="#CMR17-2e" transform="translate(410.021304 0) scale(0.996264)"/>
      <use xlink:href="#CMR17-75" transform="translate(434.892362 0) scale(0.996264)"/>
      <use xlink:href="#CMR17-2e" transform="translate(485.787732 0) scale(0.996264)"/>
      <use xlink:href="#CMR17-29" transform="translate(510.658791 0) scale(0.996264)"/>
     </g>
    </g>
   </g>
   <g id="line2d_1">
    <path d="M 69.218182 129.02843 
L 71.260891 128.832064 
L 75.346309 129.224796 
L 77.389018 129.617527 
L 79.431727 129.813893 
L 81.474436 127.457503 
L 83.517145 121.959258 
L 85.559854 119.01377 
L 87.602563 112.730062 
L 89.645272 103.697231 
L 91.68798 91.522546 
L 95.773398 62.853127 
L 97.816107 54.213028 
L 99.858816 46.358393 
L 101.901525 39.289221 
L 103.944234 35.361904 
L 105.986943 35.754635 
L 108.029652 27.9 
L 110.072361 32.220049 
L 112.11507 31.041854 
L 114.157779 37.325562 
L 116.200488 36.540099 
L 118.243197 39.289221 
L 120.285906 45.572929 
L 122.328615 52.24937 
L 124.371324 56.569419 
L 126.414033 65.994981 
L 128.456742 70.315031 
L 130.499451 73.064153 
L 132.54216 78.562398 
L 134.584869 80.133325 
L 136.627578 83.667911 
L 138.670287 86.417033 
L 140.712996 88.773424 
L 142.755705 92.30801 
L 144.798414 101.34084 
L 146.841123 102.126304 
L 148.883832 108.213646 
L 150.926541 108.802744 
L 152.96925 109.980939 
L 155.011959 112.926427 
L 157.054667 113.908257 
L 159.097376 115.479184 
L 161.140085 117.639209 
L 165.225503 119.602867 
L 167.268212 122.35199 
L 169.310921 122.941087 
L 171.35363 123.922917 
L 177.481757 130.402991 
L 179.524466 130.010259 
L 181.567175 130.795723 
L 183.609884 131.973918 
L 185.652593 133.741211 
L 187.695302 134.919406 
L 189.738011 135.508504 
L 191.78072 136.293967 
L 193.823429 136.883065 
L 195.866138 135.508504 
L 197.908847 137.079431 
L 199.951556 137.864895 
L 201.994265 137.864895 
L 204.036974 136.883065 
L 206.079683 139.04309 
L 208.122392 137.275797 
L 210.165101 136.097602 
L 212.20781 137.079431 
L 214.250519 138.453992 
L 216.293228 137.079431 
L 218.335937 136.883065 
L 220.378646 135.901236 
L 222.421354 135.901236 
L 224.464063 134.133943 
L 226.506772 133.544845 
L 228.549481 135.508504 
L 230.59219 134.330309 
L 234.677608 133.544845 
L 236.720317 134.133943 
L 238.763026 135.508504 
L 240.805735 132.563016 
L 242.848444 133.544845 
L 244.891153 133.348479 
L 246.933862 134.330309 
L 248.976571 136.686699 
L 251.01928 136.686699 
L 253.061989 136.490333 
L 255.104698 137.668529 
L 257.147407 137.275797 
L 259.190116 136.097602 
L 261.232825 136.686699 
L 263.275534 136.293967 
L 265.318243 137.472163 
L 267.360952 136.490333 
L 269.403661 136.490333 
L 271.44637 138.06126 
L 273.489079 135.312138 
L 275.531788 135.70487 
L 277.574497 134.330309 
L 279.617206 135.312138 
L 281.659915 135.115772 
L 283.702624 134.72304 
L 285.745333 136.293967 
L 287.788041 135.115772 
L 291.873459 135.115772 
L 293.916168 136.097602 
L 298.001586 135.70487 
L 300.044295 136.883065 
L 302.087004 135.901236 
L 304.129713 135.70487 
L 306.172422 135.70487 
L 308.215131 135.115772 
L 310.25784 134.133943 
L 312.300549 133.741211 
L 314.343258 134.72304 
L 316.385967 133.937577 
L 318.428676 133.348479 
L 320.471385 136.097602 
L 322.514094 136.293967 
L 324.556803 138.06126 
L 326.599512 136.293967 
L 328.642221 137.668529 
L 330.68493 137.864895 
L 332.727639 138.453992 
L 334.770348 136.490333 
L 336.813057 136.097602 
L 338.855766 136.293967 
L 340.898475 136.686699 
L 342.941184 134.919406 
L 344.983893 135.70487 
L 347.026602 137.275797 
L 349.069311 134.133943 
L 351.11202 135.901236 
L 353.154728 136.883065 
L 355.197437 137.079431 
L 357.240146 136.686699 
L 359.282855 137.079431 
L 361.325564 136.490333 
L 363.368273 136.883065 
L 367.453691 138.06126 
L 369.4964 136.883065 
L 371.539109 137.668529 
L 373.581818 135.901236 
L 373.581818 135.901236 
" clip-path="url(#p663dacfcc9)" style="fill: none; stroke: #4c72b0; stroke-linecap: round"/>
   </g>
   <g id="line2d_2">
    <path d="M 69.218182 153.9 
L 77.389018 153.815328 
L 79.431727 153.516311 
L 81.474436 152.578182 
L 83.517145 150.749622 
L 85.559854 148.052813 
L 87.602563 144.269868 
L 89.645272 138.908425 
L 91.68798 131.716004 
L 97.816107 107.111555 
L 99.858816 100.048103 
L 101.901525 93.621748 
L 103.944234 88.049387 
L 105.986943 83.356457 
L 108.029652 80.018522 
L 110.072361 77.604655 
L 112.11507 76.157471 
L 114.157779 75.725889 
L 116.200488 76.012747 
L 118.243197 76.903162 
L 120.285906 78.368436 
L 122.328615 80.207032 
L 124.371324 82.491828 
L 126.414033 85.044398 
L 132.54216 93.49212 
L 138.670287 102.416031 
L 142.755705 108.302295 
L 146.841123 113.910709 
L 150.926541 119.19698 
L 155.011959 123.9955 
L 159.097376 128.292757 
L 163.182794 132.005261 
L 167.268212 135.293271 
L 171.35363 138.167828 
L 175.439048 140.611687 
L 179.524466 142.603119 
L 183.609884 144.352501 
L 187.695302 145.814199 
L 191.78072 147.123928 
L 195.866138 148.188692 
L 201.994265 149.552019 
L 206.079683 150.294674 
L 212.20781 151.19779 
L 218.335937 151.861094 
L 226.506772 152.510745 
L 236.720317 152.956937 
L 248.976571 153.245493 
L 291.873459 153.548137 
L 318.428676 153.590701 
L 342.941184 153.709161 
L 351.11202 153.69574 
L 373.581818 153.792782 
L 373.581818 153.792782 
" clip-path="url(#p663dacfcc9)" style="fill: none; stroke: #55a868; stroke-linecap: round"/>
   </g>
   <g id="LineCollection_1">
    <path d="M 69.218182 153.9 
L 69.218182 129.02843 
" clip-path="url(#p663dacfcc9)" style="fill: none; stroke: #4c72b0"/>
    <path d="M 79.431727 153.516311 
L 79.431727 129.813893 
" clip-path="url(#p663dacfcc9)" style="fill: none; stroke: #4c72b0"/>
    <path d="M 89.645272 138.908425 
L 89.645272 103.697231 
" clip-path="url(#p663dacfcc9)" style="fill: none; stroke: #4c72b0"/>
    <path d="M 99.858816 100.048103 
L 99.858816 46.358393 
" clip-path="url(#p663dacfcc9)" style="fill: none; stroke: #4c72b0"/>
    <path d="M 110.072361 77.604655 
L 110.072361 32.220049 
" clip-path="url(#p663dacfcc9)" style="fill: none; stroke: #4c72b0"/>
    <path d="M 120.285906 78.368436 
L 120.285906 45.572929 
" clip-path="url(#p663dacfcc9)" style="fill: none; stroke: #4c72b0"/>
    <path d="M 130.499451 90.625511 
L 130.499451 73.064153 
" clip-path="url(#p663dacfcc9)" style="fill: none; stroke: #4c72b0"/>
    <path d="M 140.712996 105.418322 
L 140.712996 88.773424 
" clip-path="url(#p663dacfcc9)" style="fill: none; stroke: #4c72b0"/>
    <path d="M 150.926541 119.19698 
L 150.926541 108.802744 
" clip-path="url(#p663dacfcc9)" style="fill: none; stroke: #4c72b0"/>
    <path d="M 161.140085 130.225033 
L 161.140085 117.639209 
" clip-path="url(#p663dacfcc9)" style="fill: none; stroke: #4c72b0"/>
    <path d="M 171.35363 138.167828 
L 171.35363 123.922917 
" clip-path="url(#p663dacfcc9)" style="fill: none; stroke: #4c72b0"/>
    <path d="M 181.567175 143.535285 
L 181.567175 130.795723 
" clip-path="url(#p663dacfcc9)" style="fill: none; stroke: #4c72b0"/>
    <path d="M 191.78072 147.123928 
L 191.78072 136.293967 
" clip-path="url(#p663dacfcc9)" style="fill: none; stroke: #4c72b0"/>
    <path d="M 201.994265 149.552019 
L 201.994265 137.864895 
" clip-path="url(#p663dacfcc9)" style="fill: none; stroke: #4c72b0"/>
    <path d="M 212.20781 151.19779 
L 212.20781 137.079431 
" clip-path="url(#p663dacfcc9)" style="fill: none; stroke: #4c72b0"/>
    <path d="M 222.421354 152.190504 
L 222.421354 135.901236 
" clip-path="url(#p663dacfcc9)" style="fill: none; stroke: #4c72b0"/>
    <path d="M 232.634899 152.820896 
L 232.634899 133.937577 
" clip-path="url(#p663dacfcc9)" style="fill: none; stroke: #4c72b0"/>
    <path d="M 242.848444 153.113894 
L 242.848444 133.544845 
" clip-path="url(#p663dacfcc9)" style="fill: none; stroke: #4c72b0"/>
    <path d="M 253.061989 153.351001 
L 253.061989 136.490333 
" clip-path="url(#p663dacfcc9)" style="fill: none; stroke: #4c72b0"/>
    <path d="M 263.275534 153.477485 
L 263.275534 136.293967 
" clip-path="url(#p663dacfcc9)" style="fill: none; stroke: #4c72b0"/>
    <path d="M 273.489079 153.521195 
L 273.489079 135.312138 
" clip-path="url(#p663dacfcc9)" style="fill: none; stroke: #4c72b0"/>
    <path d="M 283.702624 153.566041 
L 283.702624 134.72304 
" clip-path="url(#p663dacfcc9)" style="fill: none; stroke: #4c72b0"/>
    <path d="M 293.916168 153.542946 
L 293.916168 136.097602 
" clip-path="url(#p663dacfcc9)" style="fill: none; stroke: #4c72b0"/>
    <path d="M 304.129713 153.574753 
L 304.129713 135.70487 
" clip-path="url(#p663dacfcc9)" style="fill: none; stroke: #4c72b0"/>
    <path d="M 314.343258 153.56881 
L 314.343258 134.72304 
" clip-path="url(#p663dacfcc9)" style="fill: none; stroke: #4c72b0"/>
    <path d="M 324.556803 153.601288 
L 324.556803 138.06126 
" clip-path="url(#p663dacfcc9)" style="fill: none; stroke: #4c72b0"/>
    <path d="M 334.770348 153.652793 
L 334.770348 136.490333 
" clip-path="url(#p663dacfcc9)" style="fill: none; stroke: #4c72b0"/>
    <path d="M 344.983893 153.683908 
L 344.983893 135.70487 
" clip-path="url(#p663dacfcc9)" style="fill: none; stroke: #4c72b0"/>
    <path d="M 355.197437 153.723312 
L 355.197437 137.079431 
" clip-path="url(#p663dacfcc9)" style="fill: none; stroke: #4c72b0"/>
    <path d="M 365.410982 153.777764 
L 365.410982 137.472163 
" clip-path="url(#p663dacfcc9)" style="fill: none; stroke: #4c72b0"/>
   </g>
   <g id="patch_3">
    <path d="M 54 160.2 
L 54 21.6 
" style="fill: none"/>
   </g>
   <g id="patch_4">
    <path d="M 388.8 160.2 
L 388.8 21.6 
" style="fill: none"/>
   </g>
   <g id="patch_5">
    <path d="M 54 160.2 
L 388.8 160.2 
" style="fill: none"/>
   </g>
   <g id="patch_6">
    <path d="M 54 21.6 
L 388.8 21.6 
" style="fill: none"/>
   </g>
   <g id="legend_1">
    <g id="line2d_3">
     <path d="M 160.885854 40.35 
L 175.885854 40.35 
L 190.885854 40.35 
" style="fill: none; stroke: #4c72b0; stroke-linecap: round"/>
    </g>
    <g id="text_3">
     <!-- TES Signal -->
     <g style="fill: #262626" transform="translate(202.885854 45.6) scale(0.15 -0.15)">
      <defs>
       <path id="CMR17-45" d="M 3885 1615 
L 3770 1615 
C 3629 676 3546 166 2419 166 
L 1530 166 
C 1274 166 1261 197 1261 414 
L 1261 2176 
L 1862 2176 
C 2464 2176 2522 1960 2522 1430 
L 2637 1430 
L 2637 3081 
L 2522 3081 
C 2522 2557 2464 2342 1862 2342 
L 1261 2342 
L 1261 3913 
C 1261 4128 1274 4160 1530 4160 
L 2406 4160 
C 3398 4160 3514 3769 3603 2929 
L 3718 2929 
L 3565 4325 
L 326 4325 
L 326 4160 
C 768 4160 838 4160 838 3874 
L 838 451 
C 838 166 768 166 326 166 
L 326 0 
L 3654 0 
L 3885 1615 
z
" transform="scale(0.015625)"/>
       <path id="CMR17-53" d="M 2803 4290 
C 2803 4404 2797 4411 2758 4411 
C 2720 4411 2707 4385 2682 4328 
L 2490 3907 
C 2246 4257 1875 4416 1472 4416 
C 819 4416 294 3901 294 3253 
C 294 3056 339 2776 557 2510 
C 794 2218 1018 2167 1530 2033 
C 1722 1982 2042 1899 2106 1874 
C 2470 1722 2662 1341 2662 985 
C 2662 527 2336 38 1779 38 
C 1094 38 454 419 410 1311 
C 403 1413 397 1419 352 1419 
C 301 1419 294 1413 294 1285 
L 294 -1 
C 294 -115 301 -122 339 -122 
C 384 -122 397 -90 486 108 
C 493 127 493 140 614 381 
C 934 -39 1472 -128 1779 -128 
C 2477 -128 2970 451 2970 1124 
C 2970 1454 2848 1708 2778 1823 
C 2509 2230 2221 2306 1914 2382 
C 1869 2402 1856 2402 1498 2490 
C 1152 2579 1005 2624 845 2796 
C 666 2992 602 3196 602 3399 
C 602 3812 934 4263 1478 4263 
C 2157 4263 2579 3786 2675 2993 
C 2694 2878 2701 2872 2746 2872 
C 2803 2872 2803 2891 2803 2999 
L 2803 4290 
z
" transform="scale(0.015625)"/>
       <path id="CMR17-6e" d="M 2656 1933 
C 2656 2259 2592 2790 1837 2790 
C 1331 2790 1069 2400 973 2144 
L 966 2144 
L 966 2790 
L 211 2720 
L 211 2554 
C 589 2554 646 2515 646 2208 
L 646 428 
C 646 184 621 153 211 153 
L 211 -13 
C 365 0 646 0 813 0 
C 979 0 1267 0 1421 -13 
L 1421 153 
C 1011 153 986 178 986 428 
L 986 1658 
C 986 2247 1344 2688 1792 2688 
C 2266 2688 2317 2266 2317 1958 
L 2317 428 
C 2317 184 2291 153 1882 153 
L 1882 -13 
C 2035 0 2317 0 2483 0 
C 2650 0 2938 0 3091 -13 
L 3091 153 
C 2682 153 2656 178 2656 428 
L 2656 1933 
z
" transform="scale(0.015625)"/>
      </defs>
      <use xlink:href="#CMR17-54" transform="scale(0.996264)"/>
      <use xlink:href="#CMR17-45" transform="translate(66.509881 0) scale(0.996264)"/>
      <use xlink:href="#CMR17-53" transform="translate(129.096181 0) scale(0.996264)"/>
      <use xlink:href="#CMR17-53" transform="translate(210.067517 0) scale(0.996264)"/>
      <use xlink:href="#CMR17-69" transform="translate(260.962887 0) scale(0.996264)"/>
      <use xlink:href="#CMR17-67" transform="translate(285.833945 0) scale(0.996264)"/>
      <use xlink:href="#CMR17-6e" transform="translate(331.524423 0) scale(0.996264)"/>
      <use xlink:href="#CMR17-61" transform="translate(382.419792 0) scale(0.996264)"/>
      <use xlink:href="#CMR17-6c" transform="translate(428.110269 0) scale(0.996264)"/>
     </g>
    </g>
    <g id="line2d_4">
     <path d="M 160.885854 61.255745 
L 175.885854 61.255745 
L 190.885854 61.255745 
" style="fill: none; stroke: #55a868; stroke-linecap: round"/>
    </g>
    <g id="text_4">
     <!-- First Principal Component -->
     <g style="fill: #262626" transform="translate(202.885854 66.505745) scale(0.15 -0.15)">
      <defs>
       <path id="CMR17-46" d="M 3482 4325 
L 326 4325 
L 326 4160 
C 768 4160 838 4160 838 3874 
L 838 446 
C 838 160 768 160 326 160 
L 326 0 
C 512 0 870 0 1069 0 
C 1331 0 1638 0 1901 0 
L 1901 160 
L 1760 160 
C 1274 160 1261 223 1261 452 
L 1261 2075 
L 1837 2075 
C 2432 2075 2490 1865 2490 1332 
L 2605 1332 
L 2605 2987 
L 2490 2987 
C 2490 2450 2432 2240 1837 2240 
L 1261 2240 
L 1261 3911 
C 1261 4128 1274 4160 1530 4160 
L 2355 4160 
C 3322 4160 3430 3765 3520 2916 
L 3635 2916 
L 3482 4325 
z
" transform="scale(0.015625)"/>
       <path id="CMR17-72" d="M 960 1497 
C 960 2112 1222 2688 1702 2688 
C 1747 2688 1792 2682 1837 2662 
C 1837 2662 1696 2617 1696 2452 
C 1696 2298 1818 2234 1914 2234 
C 1990 2234 2131 2279 2131 2458 
C 2131 2663 1926 2790 1709 2790 
C 1222 2790 1011 2317 947 2093 
L 941 2093 
L 941 2790 
L 198 2720 
L 198 2554 
C 576 2554 634 2515 634 2208 
L 634 428 
C 634 184 608 153 198 153 
L 198 -13 
C 352 0 646 0 813 0 
C 998 0 1325 0 1498 -13 
L 1498 153 
C 1037 153 960 153 960 440 
L 960 1497 
z
" transform="scale(0.015625)"/>
       <path id="CMR17-73" d="M 1978 2697 
C 1978 2813 1971 2819 1933 2819 
C 1907 2819 1901 2813 1824 2717 
C 1805 2691 1747 2626 1728 2601 
C 1523 2819 1235 2819 1126 2819 
C 416 2819 160 2447 160 2076 
C 160 1498 813 1365 998 1325 
C 1402 1243 1542 1217 1677 1101 
C 1760 1025 1901 884 1901 654 
C 1901 384 1747 38 1158 38 
C 602 38 403 460 288 1021 
C 269 1110 269 1117 218 1117 
C 166 1117 160 1110 160 983 
L 160 63 
C 160 -51 166 -58 205 -58 
C 237 -58 243 -51 275 0 
C 314 57 410 211 448 276 
C 576 103 800 -64 1158 -64 
C 1792 -64 2131 283 2131 784 
C 2131 1112 1958 1285 1875 1362 
C 1683 1561 1459 1606 1190 1657 
C 838 1735 390 1825 390 2217 
C 390 2383 480 2737 1126 2737 
C 1811 2737 1850 2094 1862 1888 
C 1869 1856 1901 1849 1920 1849 
C 1978 1849 1978 1869 1978 1978 
L 1978 2697 
z
" transform="scale(0.015625)"/>
       <path id="CMR17-50" d="M 1267 2042 
L 2291 2042 
C 3117 2042 3718 2578 3718 3184 
C 3718 3791 3130 4352 2291 4352 
L 333 4352 
L 333 4186 
C 774 4186 845 4186 845 3899 
L 845 446 
C 845 160 774 160 333 160 
L 333 0 
C 518 0 858 0 1056 0 
C 1254 0 1594 0 1779 0 
L 1779 160 
C 1338 160 1267 160 1267 446 
L 1267 2042 
z
M 1254 2176 
L 1254 3938 
C 1254 4155 1267 4186 1523 4186 
L 2170 4186 
C 2995 4186 3232 3714 3232 3184 
C 3232 2604 2950 2176 2170 2176 
L 1254 2176 
z
" transform="scale(0.015625)"/>
       <path id="CMR17-63" d="M 2234 2240 
C 2112 2240 1933 2240 1933 2017 
C 1933 1838 2080 1787 2163 1787 
C 2208 1787 2394 1807 2394 2024 
C 2394 2467 1958 2803 1466 2803 
C 787 2803 211 2178 211 1363 
C 211 516 813 -64 1466 -64 
C 2259 -64 2458 677 2458 748 
C 2458 774 2451 793 2406 793 
C 2362 793 2355 787 2330 703 
C 2163 180 1798 51 1523 51 
C 1114 51 621 427 621 1369 
C 621 2338 1094 2688 1472 2688 
C 1722 2688 2093 2573 2234 2240 
z
" transform="scale(0.015625)"/>
       <path id="CMR17-70" d="M 1408 -1063 
C 998 -1063 973 -1037 973 -789 
L 973 402 
C 1158 134 1427 -38 1766 -38 
C 2406 -38 3053 523 3053 1388 
C 3053 2191 2496 2802 1837 2802 
C 1453 2802 1139 2592 960 2338 
L 960 2802 
L 198 2732 
L 198 2567 
C 576 2567 634 2528 634 2223 
L 634 -789 
C 634 -1031 608 -1063 198 -1063 
L 198 -1228 
C 352 -1216 634 -1216 800 -1216 
C 966 -1216 1254 -1216 1408 -1228 
L 1408 -1063 
z
M 973 2012 
C 973 2102 973 2235 1222 2471 
C 1254 2497 1472 2688 1792 2688 
C 2259 2688 2643 2108 2643 1382 
C 2643 656 2234 64 1728 64 
C 1498 64 1248 172 1056 472 
C 973 612 973 650 973 752 
L 973 2012 
z
" transform="scale(0.015625)"/>
       <path id="CMR17-43" d="M 3974 4289 
C 3974 4403 3968 4410 3930 4410 
C 3904 4410 3898 4403 3853 4327 
L 3571 3792 
C 3258 4187 2874 4416 2381 4416 
C 1286 4416 294 3456 294 2148 
C 294 826 1286 -128 2387 -128 
C 3366 -128 3974 730 3974 1461 
C 3974 1524 3974 1550 3917 1550 
C 3866 1550 3866 1531 3859 1474 
C 3808 585 3168 38 2477 38 
C 1824 38 781 495 781 2147 
C 781 3805 1843 4250 2464 4250 
C 3187 4250 3712 3628 3834 2745 
C 3846 2668 3846 2655 3904 2655 
C 3974 2655 3974 2668 3974 2783 
L 3974 4289 
z
" transform="scale(0.015625)"/>
      </defs>
      <use xlink:href="#CMR17-46" transform="scale(0.996264)"/>
      <use xlink:href="#CMR17-69" transform="translate(59.983847 0) scale(0.996264)"/>
      <use xlink:href="#CMR17-72" transform="translate(84.854905 0) scale(0.996264)"/>
      <use xlink:href="#CMR17-73" transform="translate(120.135673 0) scale(0.996264)"/>
      <use xlink:href="#CMR17-74" transform="translate(155.937011 0) scale(0.996264)"/>
      <use xlink:href="#CMR17-50" transform="translate(221.293745 0) scale(0.996264)"/>
      <use xlink:href="#CMR17-72" transform="translate(283.880045 0) scale(0.996264)"/>
      <use xlink:href="#CMR17-69" transform="translate(319.160813 0) scale(0.996264)"/>
      <use xlink:href="#CMR17-6e" transform="translate(344.031871 0) scale(0.996264)"/>
      <use xlink:href="#CMR17-63" transform="translate(394.927241 0) scale(0.996264)"/>
      <use xlink:href="#CMR17-69" transform="translate(435.412902 0) scale(0.996264)"/>
      <use xlink:href="#CMR17-70" transform="translate(460.28396 0) scale(0.996264)"/>
      <use xlink:href="#CMR17-61" transform="translate(511.17933 0) scale(0.996264)"/>
      <use xlink:href="#CMR17-6c" transform="translate(556.869807 0) scale(0.996264)"/>
      <use xlink:href="#CMR17-43" transform="translate(611.816832 0) scale(0.996264)"/>
      <use xlink:href="#CMR17-6f" transform="translate(678.326712 0) scale(0.996264)"/>
      <use xlink:href="#CMR17-6d" transform="translate(724.01719 0) scale(0.996264)"/>
      <use xlink:href="#CMR17-70" transform="translate(800.936779 0) scale(0.996264)"/>
      <use xlink:href="#CMR17-6f" transform="translate(854.434588 0) scale(0.996264)"/>
      <use xlink:href="#CMR17-6e" transform="translate(900.125065 0) scale(0.996264)"/>
      <use xlink:href="#CMR17-65" transform="translate(951.020435 0) scale(0.996264)"/>
      <use xlink:href="#CMR17-6e" transform="translate(991.506095 0) scale(0.996264)"/>
      <use xlink:href="#CMR17-74" transform="translate(1039.799011 0) scale(0.996264)"/>
     </g>
    </g>
   </g>
  </g>
 </g>
 <defs>
  <clipPath id="p663dacfcc9">
   <rect x="54" y="21.6" width="334.8" height="138.6"/>
  </clipPath>
 </defs>
</svg>
